<svg xmlns="http://www.w3.org/2000/svg" viewBox="0 0 53.35 18.01"><title>01</title><g id="Layer_2" data-name="Layer 2"><g id="Layer_1-2" data-name="Layer 1"><path d="M6,9.09,9.31,4.6H7.91a1.55,1.55,0,0,0-1.36.66L4.78,7.64,3.07,5.26A1.54,1.54,0,0,0,1.69,4.6H.31L3.62,9.09,0,14H1.32a1.53,1.53,0,0,0,1.37-.67l2.1-2.78,4.9,6.79a1.5,1.5,0,0,0,1.36.66h1.44ZM32.78,14h1.91V4.6H32.78Zm-15,0h1.91V4.6h-1.9Zm28.71,3.3L53.35,4.6h-1A1.43,1.43,0,0,0,51,5.26l-2.7,5L46,5.26a1.38,1.38,0,0,0-1.36-.66h-1l3.61,7.66L44,18h1A1.52,1.52,0,0,0,46.49,17.3ZM21.9,4.6V14h1.9V7.55A3,3,0,0,1,26.28,6.2a2.33,2.33,0,0,1,2.41,2.65v4.24a.85.85,0,0,0,.8.9h1.08V8.52c0-2.43-1.54-4.12-3.79-4.12a4.21,4.21,0,0,0-2.94,1.12V4.6Zm16.29,6.06a3.25,3.25,0,0,0,3,3.49,2.9,2.9,0,0,0,.51,0A4.61,4.61,0,0,0,43.07,14l-.38-1.69a3.22,3.22,0,0,1-.87.09A1.59,1.59,0,0,1,40.09,11a1.82,1.82,0,0,1,0-.33V6.29h2.6L42,4.6H40.08V.83l-1.89.83V4.6h-2V6.29h2ZM11.91,6.29V14H13.8V6.29h2.43V4.6H13.8V3.9a1.86,1.86,0,0,1,1.9-2.13,2.3,2.3,0,0,1,.64.09L16.69.18A3.67,3.67,0,0,0,15.55,0,3.56,3.56,0,0,0,11.9,3.47a2.67,2.67,0,0,0,0,.4V4.6h-1L9.69,6.29Z"/></g></g></svg>