<?xml version="1.0" encoding="utf-8"?>
<!-- Generator: Adobe Illustrator 24.0.0, SVG Export Plug-In . SVG Version: 6.00 Build 0)  -->
<svg version="1.1" id="Layer_1" xmlns="http://www.w3.org/2000/svg" xmlns:xlink="http://www.w3.org/1999/xlink" x="0px" y="0px"
	 viewBox="0 0 53.3 18" style="enable-background:new 0 0 53.3 18;" xml:space="preserve">
<style type="text/css">
	.st0{fill:#FFFFFF;}
</style>
<title>01</title>
<g id="Layer_2_1_">
	<g id="Layer_1-2">
		<path class="st0" d="M6,9.1l3.3-4.5H7.9c-0.5,0-1.1,0.2-1.4,0.7L4.8,7.6L3.1,5.3C2.8,4.8,2.2,4.6,1.7,4.6H0.3l3.3,4.5L0,14h1.3
			c0.5,0,1.1-0.2,1.4-0.7l2.1-2.8l4.9,6.8c0.3,0.4,0.8,0.7,1.4,0.7h1.4L6,9.1z M32.8,14h1.9V4.6h-1.9V14z M17.8,14h1.9V4.6h-1.9V14z
			 M46.5,17.3l6.9-12.7h-1c-0.5-0.1-1.1,0.2-1.3,0.7l-2.7,5l-2.3-5c-0.3-0.5-0.8-0.7-1.4-0.7h-1l3.6,7.7L44,18h1
			C45.6,18.1,46.2,17.8,46.5,17.3z M21.9,4.6V14h1.9V7.6c0.5-0.8,1.5-1.3,2.5-1.4c1.3-0.1,2.4,0.9,2.4,2.2c0,0.1,0,0.3,0,0.4V13
			c0,0.5,0.3,0.9,0.8,0.9l0,0h1.1V8.5c0-2.4-1.5-4.1-3.8-4.1c-1.1,0-2.1,0.4-2.9,1.1V4.6H21.9z M38.2,10.7c-0.1,1.8,1.2,3.4,3,3.5
			l0,0c0.2,0,0.3,0,0.5,0c0.5,0,0.9,0,1.4-0.1l-0.4-1.7c-0.3,0.1-0.6,0.1-0.9,0.1c-0.9,0.1-1.6-0.5-1.7-1.4c0-0.1,0-0.2,0-0.3V6.3
			h2.6L42,4.6h-1.9V0.8l-1.9,0.8v2.9h-2v1.7h2C38.2,6.2,38.2,10.7,38.2,10.7z M11.9,6.3V14h1.9V6.3h2.4V4.6h-2.4V3.9
			c-0.1-1,0.6-2,1.6-2.1c0.1,0,0.2,0,0.3,0c0.2,0,0.4,0,0.6,0.1l0.4-1.7C16.3,0.1,15.9,0,15.6,0c-2-0.1-3.6,1.5-3.6,3.5l0,0
			c0,0.1,0,0.3,0,0.4v0.7h-1L9.7,6.3H11.9z"/>
	</g>
</g>
</svg>
