<svg xmlns="http://www.w3.org/2000/svg" viewBox="0 0 796 234"><defs><style>.cls-1{fill:#fff;}.cls-2{fill:#231f20;}</style></defs><title>BrandHub-VectorGraphics</title><g id="Vector"><rect class="cls-1" x="-0.02" y="0.19" width="796" height="234"/><rect x="410.64" y="48.27" width="336.54" height="139.04"/><path class="cls-2" d="M79.55,118.82,96.81,95.68H89.6a8,8,0,0,0-7,3.41l-9.1,12.24L64.66,99.09a8,8,0,0,0-7-3.41H50.43L67.5,118.82,48.82,144h6.83a8,8,0,0,0,7-3.41l10.81-14.32,25.32,35a7.87,7.87,0,0,0,7,3.42h7.4ZM217.72,144h9.76V95.68h-9.76Zm-77.48,0H150V95.68h-9.77Zm148.13,17.07,35.37-65.43h-5.31c-3.22,0-5.69.95-7,3.41L297.47,125l-12-25.89c-1.24-2.56-3.8-3.41-7-3.41h-5.12l18.59,39.45-16.22,29.59H281C284.29,164.72,286.94,163.67,288.37,161.11ZM161.67,95.68V144h9.77V110.85a15.37,15.37,0,0,1,12.8-6.92c7.21,0,12.14,4.55,12.14,13.65V139.4a4.4,4.4,0,0,0,4.55,4.64h5.22V115.88c0-12.52-8-21.24-19.54-21.24a21.81,21.81,0,0,0-15.17,5.78V95.68Zm83.93,31.2c0,10.52,6.45,18,18,18a24.81,24.81,0,0,0,7.11-1l-2-8.54a19.77,19.77,0,0,1-4.46.48c-4.74,0-8.91-2.56-8.91-9.2V104.4H269l-4-8.72h-9.67V76.24L245.6,80.5V95.68H235.26v8.72H245.6ZM110.18,104.4V144h9.76V104.4h12.52V95.68H119.94V92.07c0-8.25,4.94-11,9.77-11a11.45,11.45,0,0,1,3.32.48l2-8.63A16.9,16.9,0,0,0,129,72c-12.13,0-18.77,9-18.77,19.91v3.8h-5.12l-6.17,8.72Z"/><path class="cls-1" d="M473,118.82l17.26-23.14H483a8,8,0,0,0-7,3.41l-9.1,12.24-8.82-12.24a8,8,0,0,0-7-3.41h-7.21l17.07,23.14L442.24,144h6.83a8,8,0,0,0,7-3.41l10.81-14.32,25.32,35a7.87,7.87,0,0,0,7,3.42h7.4ZM611.14,144h9.76V95.68h-9.76Zm-77.48,0h9.77V95.68h-9.77Zm148.13,17.07,35.37-65.43h-5.31c-3.22,0-5.69.95-7,3.41L690.89,125l-12-25.89c-1.24-2.56-3.8-3.41-7-3.41h-5.12l18.59,39.45-16.22,29.59h5.31C677.71,164.72,680.36,163.67,681.79,161.11ZM555.09,95.68V144h9.77V110.85a15.37,15.37,0,0,1,12.8-6.92c7.21,0,12.14,4.55,12.14,13.65V139.4a4.4,4.4,0,0,0,4.55,4.64h5.22V115.88c0-12.52-8-21.24-19.54-21.24a21.81,21.81,0,0,0-15.17,5.78V95.68ZM639,126.88c0,10.52,6.45,18,18,18a24.81,24.81,0,0,0,7.11-1l-2-8.54a19.77,19.77,0,0,1-4.46.48c-4.74,0-8.91-2.56-8.91-9.2V104.4h13.65l-4-8.72h-9.67V76.24L639,80.5V95.68H628.68v8.72H639ZM503.6,104.4V144h9.76V104.4h12.52V95.68H513.36V92.07c0-8.25,4.94-11,9.77-11a11.45,11.45,0,0,1,3.32.48l2-8.63a16.9,16.9,0,0,0-6.07-1c-12.13,0-18.77,9-18.77,19.91v3.8h-5.12l-6.17,8.72Z"/></g></svg>