<svg xmlns="http://www.w3.org/2000/svg" viewBox="0 0 1210 601"><defs><style>.cls-1{fill:#fff;}.cls-2{fill:#231f20;}.cls-3{fill:#c8001d;}.cls-4{fill:#58595b;}.cls-5{fill:#8c8c8c;}</style></defs><title>BrandHub-VectorGraphics</title><g id="Vector"><rect class="cls-1" x="-0.5" width="1211" height="601"/><rect x="418.5" y="341.64" width="373" height="154.1"/><path class="cls-2" d="M120.5,399.55l16.7-22.38h-7a7.73,7.73,0,0,0-6.79,3.3l-8.81,11.84-8.53-11.84a7.73,7.73,0,0,0-6.79-3.3h-7l16.51,22.38L90.78,424h6.6a7.73,7.73,0,0,0,6.79-3.3l10.46-13.86,24.5,33.85a7.61,7.61,0,0,0,6.79,3.31h7.15ZM254.17,424h9.45V377.17h-9.45Zm-74.95,0h9.45V377.17h-9.45Zm143.3,16.51,34.22-63.3H351.6c-3.12,0-5.5.92-6.79,3.3l-13.48,25-11.66-25c-1.19-2.47-3.66-3.3-6.78-3.3h-5l18,38.16L310.23,444h5.13C318.57,444,321.14,443,322.52,440.47ZM200,377.17V424h9.45V391.85a14.89,14.89,0,0,1,12.39-6.7c7,0,11.74,4.4,11.74,13.21v21.1a4.26,4.26,0,0,0,4.4,4.5h5V396.71c0-12.11-7.71-20.55-18.9-20.55a21.07,21.07,0,0,0-14.68,5.6v-4.59Zm81.19,30.18c0,10.19,6.24,17.43,17.43,17.43a24,24,0,0,0,6.88-.91l-1.92-8.26a19.69,19.69,0,0,1-4.31.46c-4.59,0-8.63-2.48-8.63-8.9V385.61H303.8L300,377.17h-9.36V358.36l-9.45,4.13v14.68h-10v8.44h10Zm-131-21.74V424h9.45V385.61h12.1v-8.44h-12.1v-3.49c0-8,4.77-10.64,9.44-10.64a11.16,11.16,0,0,1,3.22.46l1.92-8.35a16.47,16.47,0,0,0-5.87-.92c-11.74,0-18.16,8.72-18.16,19.27v3.67h-5l-6,8.44Z"/><path class="cls-2" d="M72.58,468.56A3.43,3.43,0,0,0,76,471.78a3.83,3.83,0,0,0,3-1.45l1.41,1.33a5.58,5.58,0,0,1-4.48,2,5.4,5.4,0,0,1-5.5-5.54,5.2,5.2,0,0,1,5.18-5.54c3,0,5.11,2.4,5.11,5.54a4.33,4.33,0,0,1,0,.45Zm.18-1.8h5.79a3,3,0,0,0-2.8-2.31A3.1,3.1,0,0,0,72.76,466.76Z"/><path class="cls-2" d="M83.16,457.37h2.15v16.06H83.16Z"/><path class="cls-2" d="M100.24,459.27a3.83,3.83,0,0,0-.79-.09,2.09,2.09,0,0,0-1.63.75,3,3,0,0,0-.41,1.9v1h3.28v1.92H97.41v8.71H95.26v-8.71H92.77V462.8h2.49v-.91a5,5,0,0,1,.68-3,4.17,4.17,0,0,1,3.48-1.77,4.92,4.92,0,0,1,1.27.16Z"/><path class="cls-2" d="M103,471.87a5.4,5.4,0,0,1-1-3.64V462.8h2.15v5.76a3,3,0,0,0,.61,2.13,2.68,2.68,0,0,0,2,.93,4,4,0,0,0,3-1.52v-7.3H112v10.63h-2.08v-1a4.79,4.79,0,0,1-6.9-.58Z"/><path class="cls-2" d="M121.84,473.43a6.17,6.17,0,0,1-1.68.22,3.84,3.84,0,0,1-3-1.24,4.08,4.08,0,0,1-.86-2.83v-4.86h-2.71V462.8h2.71v-2.94h2.15v2.94h3.4v1.92h-3.4v5a2,2,0,0,0,.32,1.35,2,2,0,0,0,1.47.57,5.28,5.28,0,0,0,1.18-.14Z"/><path class="cls-2" d="M125,471.87a5.45,5.45,0,0,1-1-3.64V462.8h2.15v5.76a3,3,0,0,0,.61,2.13,2.72,2.72,0,0,0,2.06.93,4.06,4.06,0,0,0,3-1.52v-7.3h2.14v10.63h-2.08v-1a4.74,4.74,0,0,1-3.12,1.2A4.82,4.82,0,0,1,125,471.87Z"/><path class="cls-2" d="M143.07,464.7a3,3,0,0,0-.84-.09,3.57,3.57,0,0,0-2.87,1.78v7h-2.15V462.8h2.08V464a3.91,3.91,0,0,1,3.19-1.45,4.92,4.92,0,0,1,.84.07Z"/><path class="cls-2" d="M149.49,462.57a5.54,5.54,0,1,1-5.5,5.54A5.4,5.4,0,0,1,149.49,462.57Zm0,9.05a3.51,3.51,0,1,0-3.35-3.51A3.35,3.35,0,0,0,149.49,471.62Z"/><path class="cls-2" d="M170.66,472.45a4.88,4.88,0,0,1-3.28,1.2,5.44,5.44,0,0,1-2.67-.7,5.55,5.55,0,0,1-2.72-4.84,5.64,5.64,0,0,1,2.74-4.86,5.08,5.08,0,0,1,2.6-.68,5,5,0,0,1,3.26,1.16v-6.36h2.15v16.06h-2.08Zm-.07-6.33a3.83,3.83,0,0,0-3-1.51,3.4,3.4,0,0,0-3.42,3.5,3.47,3.47,0,0,0,3.53,3.51,3.69,3.69,0,0,0,2.92-1.52Z"/><path class="cls-2" d="M177.19,468.56a3.43,3.43,0,0,0,3.44,3.22,3.83,3.83,0,0,0,3.05-1.45l1.41,1.33a5.58,5.58,0,0,1-4.48,2,5.4,5.4,0,0,1-5.5-5.54,5.2,5.2,0,0,1,5.18-5.54c3,0,5.11,2.4,5.11,5.54a4.33,4.33,0,0,1,0,.45Zm.18-1.8h5.79a3,3,0,0,0-2.8-2.31A3.1,3.1,0,0,0,177.37,466.76Z"/><path class="cls-2" d="M193.31,457.37h2.15v16.06h-2.15Z"/><path class="cls-2" d="M203.33,462.57a5.54,5.54,0,1,1-5.49,5.54A5.39,5.39,0,0,1,203.33,462.57Zm0,9.05a3.51,3.51,0,1,0-3.34-3.51A3.35,3.35,0,0,0,203.33,471.62Z"/><path class="cls-2" d="M224.5,472.45a4.87,4.87,0,0,1-3.28,1.2,5.47,5.47,0,0,1-2.67-.7,5.56,5.56,0,0,1-2.71-4.84,5.63,5.63,0,0,1,2.73-4.86,5.08,5.08,0,0,1,2.6-.68,5,5,0,0,1,3.33,1.2v-1h2.08v10.63H224.5Zm-.07-6.33a3.81,3.81,0,0,0-3-1.51,3.4,3.4,0,0,0-3.41,3.5,3.47,3.47,0,0,0,3.52,3.51,3.69,3.69,0,0,0,2.92-1.52Z"/><path class="cls-2" d="M230,470.6a5.16,5.16,0,0,0,3.14,1.18c.93,0,1.86-.5,1.86-1.34,0-1.22-1.77-1.29-3.33-1.81-1.29-.43-2.44-1.24-2.44-2.73,0-2.29,2-3.33,3.93-3.33a5.37,5.37,0,0,1,3.53,1.18l-1.11,1.54a3.73,3.73,0,0,0-2.28-.84c-1,0-1.92.5-1.92,1.33s.83,1,1.9,1.25c1.67.43,3.87,1.17,3.87,3.37,0,2-1.88,3.25-4,3.25a6.65,6.65,0,0,1-4.3-1.47Z"/><path class="cls-2" d="M244.17,462.57a5.54,5.54,0,1,1-5.49,5.54A5.39,5.39,0,0,1,244.17,462.57Zm0,9.05a3.51,3.51,0,1,0-3.34-3.51A3.35,3.35,0,0,0,244.17,471.62Z"/><path class="cls-2" d="M254.12,462.8v1a4.62,4.62,0,0,1,3.12-1.25,4.81,4.81,0,0,1,3.76,1.77,5.3,5.3,0,0,1,4.05-1.77,4.83,4.83,0,0,1,3.78,1.79,5.42,5.42,0,0,1,1,3.64v5.43h-2.15v-5.77a3.06,3.06,0,0,0-.61-2.13,2.63,2.63,0,0,0-2-.92,4.38,4.38,0,0,0-3.24,1.51A8.37,8.37,0,0,1,262,468v5.43h-2.14v-5.77a3,3,0,0,0-.62-2.13,2.71,2.71,0,0,0-2.05-.92,4,4,0,0,0-3,1.51v7.31H252V462.8Z"/><path class="cls-2" d="M274.93,473.43h-2.08V457.37H275v6.36a5.22,5.22,0,0,1,5.86-.48,5.61,5.61,0,0,1,2.74,4.86,5.55,5.55,0,0,1-2.72,4.84,5.4,5.4,0,0,1-2.66.7,4.87,4.87,0,0,1-3.28-1.2Zm.06-3.33a3.72,3.72,0,0,0,2.92,1.52,3.47,3.47,0,0,0,3.53-3.51,3.4,3.4,0,0,0-3.42-3.5,3.84,3.84,0,0,0-3,1.51Z"/><path class="cls-2" d="M291.82,464.7a3,3,0,0,0-.84-.09,3.57,3.57,0,0,0-2.87,1.78v7H286V462.8H288V464a3.91,3.91,0,0,1,3.19-1.45,4.92,4.92,0,0,1,.84.07Z"/><path class="cls-2" d="M298.24,462.57a5.54,5.54,0,1,1-5.5,5.54A5.39,5.39,0,0,1,298.24,462.57Zm0,9.05a3.51,3.51,0,1,0-3.35-3.51A3.35,3.35,0,0,0,298.24,471.62Z"/><path class="cls-2" d="M306.2,470.6a5.18,5.18,0,0,0,3.14,1.18c.93,0,1.86-.5,1.86-1.34,0-1.22-1.77-1.29-3.33-1.81-1.29-.43-2.44-1.24-2.44-2.73,0-2.29,2-3.33,3.94-3.33a5.41,5.41,0,0,1,3.53,1.18l-1.11,1.54a3.79,3.79,0,0,0-2.29-.84c-1,0-1.92.5-1.92,1.33s.84,1,1.9,1.25c1.67.43,3.87,1.17,3.87,3.37,0,2-1.88,3.25-4,3.25a6.65,6.65,0,0,1-4.3-1.47Z"/><path class="cls-2" d="M320.43,462.57a5.54,5.54,0,1,1-5.5,5.54A5.39,5.39,0,0,1,320.43,462.57Zm0,9.05a3.51,3.51,0,1,0-3.35-3.51A3.35,3.35,0,0,0,320.43,471.62Z"/><path class="cls-2" d="M331.57,470.71l-2.71,5.88h-1.47l1.7-5.88Z"/><path class="cls-2" d="M340.62,463.73a4.81,4.81,0,0,1,3.12-1.16,4.93,4.93,0,0,1,3.87,1.88,5.65,5.65,0,0,1,1,3.78v5.2H346.5v-5.32a3.6,3.6,0,0,0-.63-2.46,2.8,2.8,0,0,0-2.2-1,3.92,3.92,0,0,0-3.05,1.51v7.31h-2.15V457.37h2.15Z"/><path class="cls-2" d="M356.29,462.57a5.54,5.54,0,1,1-5.5,5.54A5.4,5.4,0,0,1,356.29,462.57Zm0,9.05a3.51,3.51,0,1,0-3.35-3.51A3.35,3.35,0,0,0,356.29,471.62Z"/><path class="cls-2" d="M363.91,478.85l2.87-6.53-4.54-9.52h2.3l3.33,7,3.05-7h2.26l-7,16.05Z"/><path class="cls-3" d="M887.56,399.55l16.71-22.38h-7a7.76,7.76,0,0,0-6.8,3.3l-8.81,11.84-8.54-11.84a7.76,7.76,0,0,0-6.8-3.3h-7l16.53,22.38L857.8,424h6.61a7.76,7.76,0,0,0,6.8-3.3l10.47-13.86,24.52,33.85A7.61,7.61,0,0,0,913,444h7.17ZM1021.36,424h9.46V377.17h-9.46Zm-75,0h9.46V377.17h-9.46Zm143.45,16.51,34.26-63.3h-5.15c-3.12,0-5.51.92-6.79,3.3l-13.5,25-11.66-25c-1.2-2.47-3.68-3.3-6.8-3.3h-5l18,38.16L1077.48,444h5.14C1085.83,444,1088.4,443,1089.78,440.47Zm-122.69-63.3V424h9.46V391.85a14.88,14.88,0,0,1,12.39-6.7c7,0,11.76,4.4,11.76,13.21v21.1a4.27,4.27,0,0,0,4.41,4.5h5V396.71c0-12.11-7.72-20.55-18.92-20.55a21.08,21.08,0,0,0-14.69,5.6v-4.59Zm81.27,30.18c0,10.19,6.25,17.43,17.45,17.43a24.11,24.11,0,0,0,6.89-.91l-1.93-8.26a19.69,19.69,0,0,1-4.31.46c-4.6,0-8.64-2.48-8.64-8.9V385.61h13.23l-3.86-8.44h-9.37V358.36l-9.46,4.13v14.68h-10v8.44h10ZM917.22,385.61V424h9.46V385.61H938.8v-8.44H926.68v-3.49c0-8,4.77-10.64,9.46-10.64a11.14,11.14,0,0,1,3.21.46l1.93-8.35a16.49,16.49,0,0,0-5.88-.92c-11.75,0-18.18,8.72-18.18,19.27v3.67h-5l-6,8.44Z"/><path class="cls-4" d="M839.58,468.56a3.44,3.44,0,0,0,3.45,3.22,3.83,3.83,0,0,0,3.05-1.45l1.41,1.33a5.59,5.59,0,0,1-4.49,2,5.4,5.4,0,0,1-5.5-5.54,5.2,5.2,0,0,1,5.19-5.54c3,0,5.11,2.4,5.11,5.54a4.33,4.33,0,0,1,0,.45Zm.18-1.8h5.8a3,3,0,0,0-2.81-2.31A3.1,3.1,0,0,0,839.76,466.76Z"/><path class="cls-4" d="M850.18,457.37h2.15v16.06h-2.15Z"/><path class="cls-4" d="M867.27,459.27a3.83,3.83,0,0,0-.79-.09,2.09,2.09,0,0,0-1.63.75,3,3,0,0,0-.41,1.9v1h3.28v1.92h-3.28v8.71h-2.15v-8.71H859.8V462.8h2.49v-.91a4.93,4.93,0,0,1,.68-3,4.17,4.17,0,0,1,3.48-1.77,4.92,4.92,0,0,1,1.27.16Z"/><path class="cls-4" d="M870.05,471.87a5.45,5.45,0,0,1-1-3.64V462.8h2.15v5.76a3,3,0,0,0,.61,2.13,2.72,2.72,0,0,0,2.06.93,4,4,0,0,0,3-1.52v-7.3H879v10.63H877v-1a4.77,4.77,0,0,1-3.13,1.2A4.82,4.82,0,0,1,870.05,471.87Z"/><path class="cls-4" d="M888.89,473.43a6.17,6.17,0,0,1-1.68.22,3.84,3.84,0,0,1-3-1.24,4.08,4.08,0,0,1-.86-2.83v-4.86h-2.72V462.8h2.72v-2.94h2.15v2.94h3.4v1.92h-3.4v5a2,2,0,0,0,.32,1.35,2,2,0,0,0,1.47.57,5.28,5.28,0,0,0,1.18-.14Z"/><path class="cls-4" d="M892,471.87a5.4,5.4,0,0,1-1-3.64V462.8h2.15v5.76a3,3,0,0,0,.61,2.13,2.72,2.72,0,0,0,2.06.93,4,4,0,0,0,3-1.52v-7.3H901v10.63h-2.08v-1a4.8,4.8,0,0,1-6.91-.58Z"/><path class="cls-4" d="M910.14,464.7a2.89,2.89,0,0,0-.83-.09,3.58,3.58,0,0,0-2.88,1.78v7h-2.15V462.8h2.08V464a3.91,3.91,0,0,1,3.2-1.45,4.89,4.89,0,0,1,.83.07Z"/><path class="cls-4" d="M916.57,462.57a5.54,5.54,0,1,1-5.5,5.54A5.4,5.4,0,0,1,916.57,462.57Zm0,9.05a3.51,3.51,0,1,0-3.35-3.51A3.35,3.35,0,0,0,916.57,471.62Z"/><path class="cls-4" d="M937.76,472.45a4.87,4.87,0,0,1-3.28,1.2,5.44,5.44,0,0,1-2.67-.7,5.55,5.55,0,0,1-2.72-4.84,5.61,5.61,0,0,1,2.74-4.86,5.05,5.05,0,0,1,2.6-.68,5,5,0,0,1,3.26,1.16v-6.36h2.16v16.06h-2.09Zm-.07-6.33a3.81,3.81,0,0,0-3-1.51,3.4,3.4,0,0,0-3.42,3.5,3.47,3.47,0,0,0,3.53,3.51,3.69,3.69,0,0,0,2.92-1.52Z"/><path class="cls-4" d="M944.3,468.56a3.44,3.44,0,0,0,3.44,3.22,3.83,3.83,0,0,0,3.06-1.45l1.41,1.33a5.59,5.59,0,0,1-4.49,2,5.4,5.4,0,0,1-5.5-5.54,5.2,5.2,0,0,1,5.18-5.54c3,0,5.12,2.4,5.12,5.54a4.33,4.33,0,0,1,0,.45Zm.18-1.8h5.8a3,3,0,0,0-2.81-2.31A3.1,3.1,0,0,0,944.48,466.76Z"/><path class="cls-4" d="M960.44,457.37h2.15v16.06h-2.15Z"/><path class="cls-4" d="M970.47,462.57a5.54,5.54,0,1,1-5.5,5.54A5.39,5.39,0,0,1,970.47,462.57Zm0,9.05a3.51,3.51,0,1,0-3.35-3.51A3.35,3.35,0,0,0,970.47,471.62Z"/><path class="cls-4" d="M991.66,472.45a4.87,4.87,0,0,1-3.28,1.2,5.44,5.44,0,0,1-2.67-.7,5.55,5.55,0,0,1-2.72-4.84,5.61,5.61,0,0,1,2.74-4.86,5.05,5.05,0,0,1,2.6-.68,5,5,0,0,1,3.33,1.2v-1h2.08v10.63h-2.08Zm-.07-6.33a3.81,3.81,0,0,0-3-1.51,3.4,3.4,0,0,0-3.42,3.5,3.47,3.47,0,0,0,3.53,3.51,3.69,3.69,0,0,0,2.92-1.52Z"/><path class="cls-4" d="M997.11,470.6a5.21,5.21,0,0,0,3.15,1.18c.93,0,1.86-.5,1.86-1.34,0-1.22-1.77-1.29-3.33-1.81-1.29-.43-2.45-1.24-2.45-2.73,0-2.29,2-3.33,3.94-3.33a5.42,5.42,0,0,1,3.54,1.18l-1.11,1.54a3.79,3.79,0,0,0-2.29-.84c-1,0-1.92.5-1.92,1.33s.83,1,1.9,1.25c1.67.43,3.87,1.17,3.87,3.37,0,2-1.88,3.25-4,3.25a6.67,6.67,0,0,1-4.31-1.47Z"/><path class="cls-4" d="M1011.35,462.57a5.54,5.54,0,1,1-5.5,5.54A5.4,5.4,0,0,1,1011.35,462.57Zm0,9.05a3.51,3.51,0,1,0-3.35-3.51A3.35,3.35,0,0,0,1011.35,471.62Z"/><path class="cls-4" d="M1021.31,462.8v1a4.62,4.62,0,0,1,3.13-1.25,4.82,4.82,0,0,1,3.76,1.77,5.3,5.3,0,0,1,4-1.77,4.8,4.8,0,0,1,3.78,1.79,5.36,5.36,0,0,1,1,3.64v5.43h-2.16v-5.77a3,3,0,0,0-.61-2.13,2.61,2.61,0,0,0-2-.92,4.38,4.38,0,0,0-3.24,1.51,8.37,8.37,0,0,1,.18,1.88v5.43H1027v-5.77a3,3,0,0,0-.61-2.13,2.71,2.71,0,0,0-2.06-.92,4.07,4.07,0,0,0-3,1.51v7.31h-2.15V462.8Z"/><path class="cls-4" d="M1042.14,473.43h-2.08V457.37h2.15v6.36a5,5,0,0,1,3.26-1.16,5.05,5.05,0,0,1,2.6.68,5.61,5.61,0,0,1,2.74,4.86,5.55,5.55,0,0,1-2.72,4.84,5.44,5.44,0,0,1-2.67.7,4.88,4.88,0,0,1-3.28-1.2Zm.07-3.33a3.69,3.69,0,0,0,2.92,1.52,3.47,3.47,0,0,0,3.53-3.51,3.4,3.4,0,0,0-3.42-3.5,3.81,3.81,0,0,0-3,1.51Z"/><path class="cls-4" d="M1059.05,464.7a3,3,0,0,0-.84-.09,3.57,3.57,0,0,0-2.87,1.78v7h-2.15V462.8h2.08V464a3.91,3.91,0,0,1,3.19-1.45,4.92,4.92,0,0,1,.84.07Z"/><path class="cls-4" d="M1065.48,462.57a5.54,5.54,0,1,1-5.5,5.54A5.39,5.39,0,0,1,1065.48,462.57Zm0,9.05a3.51,3.51,0,1,0-3.35-3.51A3.35,3.35,0,0,0,1065.48,471.62Z"/><path class="cls-4" d="M1073.45,470.6a5.16,5.16,0,0,0,3.14,1.18c.93,0,1.86-.5,1.86-1.34,0-1.22-1.77-1.29-3.33-1.81-1.29-.43-2.44-1.24-2.44-2.73,0-2.29,2-3.33,3.94-3.33a5.41,5.41,0,0,1,3.53,1.18l-1.11,1.54a3.79,3.79,0,0,0-2.29-.84c-1,0-1.92.5-1.92,1.33s.84,1,1.9,1.25c1.67.43,3.87,1.17,3.87,3.37,0,2-1.88,3.25-4,3.25a6.63,6.63,0,0,1-4.3-1.47Z"/><path class="cls-4" d="M1087.69,462.57a5.54,5.54,0,1,1-5.51,5.54A5.4,5.4,0,0,1,1087.69,462.57Zm0,9.05a3.51,3.51,0,1,0-3.35-3.51A3.35,3.35,0,0,0,1087.69,471.62Z"/><path class="cls-4" d="M1098.85,470.71l-2.72,5.88h-1.47l1.7-5.88Z"/><path class="cls-4" d="M1107.9,463.73a4.82,4.82,0,0,1,3.13-1.16,4.93,4.93,0,0,1,3.87,1.88,5.65,5.65,0,0,1,1,3.78v5.2h-2.15v-5.32a3.54,3.54,0,0,0-.64-2.46,2.77,2.77,0,0,0-2.19-1,3.92,3.92,0,0,0-3.06,1.51v7.31h-2.15V457.37h2.15Z"/><path class="cls-4" d="M1123.59,462.57a5.54,5.54,0,1,1-5.5,5.54A5.39,5.39,0,0,1,1123.59,462.57Zm0,9.05a3.51,3.51,0,1,0-3.35-3.51A3.35,3.35,0,0,0,1123.59,471.62Z"/><path class="cls-4" d="M1131.22,478.85l2.87-6.53-4.55-9.52h2.31l3.33,7,3.06-7h2.26l-7,16.05Z"/><path class="cls-1" d="M501.5,399.55l16.7-22.38h-7a7.73,7.73,0,0,0-6.79,3.3l-8.81,11.84-8.53-11.84a7.73,7.73,0,0,0-6.79-3.3h-7l16.51,22.38L471.78,424h6.6a7.73,7.73,0,0,0,6.79-3.3l10.46-13.86,24.5,33.85a7.61,7.61,0,0,0,6.79,3.31h7.15ZM635.17,424h9.45V377.17h-9.45Zm-74.95,0h9.45V377.17h-9.45Zm143.3,16.51,34.22-63.3H732.6c-3.12,0-5.5.92-6.79,3.3l-13.48,25-11.66-25c-1.19-2.47-3.66-3.3-6.78-3.3h-5l18,38.16L691.23,444h5.13C699.57,444,702.14,443,703.52,440.47ZM581,377.17V424h9.45V391.85a14.89,14.89,0,0,1,12.39-6.7c7,0,11.74,4.4,11.74,13.21v21.1a4.26,4.26,0,0,0,4.4,4.5H624V396.71c0-12.11-7.71-20.55-18.9-20.55a21.07,21.07,0,0,0-14.68,5.6v-4.59Zm81.19,30.18c0,10.19,6.24,17.43,17.43,17.43a24,24,0,0,0,6.88-.91l-1.92-8.26a19.69,19.69,0,0,1-4.31.46c-4.59,0-8.63-2.48-8.63-8.9V385.61H684.8L681,377.17h-9.36V358.36l-9.45,4.13v14.68h-10v8.44h10Zm-131-21.74V424h9.45V385.61h12.1v-8.44h-12.1v-3.49c0-8,4.77-10.64,9.44-10.64a11.16,11.16,0,0,1,3.22.46l1.92-8.35a16.47,16.47,0,0,0-5.87-.92c-11.74,0-18.16,8.72-18.16,19.27v3.67h-5l-6,8.44Z"/><path class="cls-1" d="M453.58,468.56a3.43,3.43,0,0,0,3.44,3.22,3.83,3.83,0,0,0,3.05-1.45l1.41,1.33a5.58,5.58,0,0,1-4.48,2,5.4,5.4,0,0,1-5.5-5.54,5.2,5.2,0,0,1,5.18-5.54c3,0,5.11,2.4,5.11,5.54a4.33,4.33,0,0,1,0,.45Zm.18-1.8h5.79a3,3,0,0,0-2.8-2.31A3.1,3.1,0,0,0,453.76,466.76Z"/><path class="cls-1" d="M464.16,457.37h2.15v16.06h-2.15Z"/><path class="cls-1" d="M481.24,459.27a3.83,3.83,0,0,0-.79-.09,2.09,2.09,0,0,0-1.63.75,3,3,0,0,0-.41,1.9v1h3.28v1.92h-3.28v8.71h-2.15v-8.71h-2.49V462.8h2.49v-.91a5,5,0,0,1,.68-3,4.17,4.17,0,0,1,3.48-1.77,4.92,4.92,0,0,1,1.27.16Z"/><path class="cls-1" d="M484,471.87a5.4,5.4,0,0,1-1-3.64V462.8h2.15v5.76a3,3,0,0,0,.61,2.13,2.68,2.68,0,0,0,2.05.93,4,4,0,0,0,3-1.52v-7.3H493v10.63h-2.08v-1a4.79,4.79,0,0,1-6.9-.58Z"/><path class="cls-1" d="M502.84,473.43a6.17,6.17,0,0,1-1.68.22,3.84,3.84,0,0,1-3-1.24,4.08,4.08,0,0,1-.86-2.83v-4.86h-2.71V462.8h2.71v-2.94h2.15v2.94h3.4v1.92h-3.4v5a2,2,0,0,0,.32,1.35,2,2,0,0,0,1.47.57,5.28,5.28,0,0,0,1.18-.14Z"/><path class="cls-1" d="M506,471.87a5.45,5.45,0,0,1-1-3.64V462.8h2.15v5.76a3,3,0,0,0,.61,2.13,2.72,2.72,0,0,0,2.06.93,4.06,4.06,0,0,0,3-1.52v-7.3h2.14v10.63h-2.08v-1a4.74,4.74,0,0,1-3.12,1.2A4.82,4.82,0,0,1,506,471.87Z"/><path class="cls-1" d="M524.07,464.7a3,3,0,0,0-.84-.09,3.57,3.57,0,0,0-2.87,1.78v7h-2.15V462.8h2.08V464a3.91,3.91,0,0,1,3.19-1.45,4.92,4.92,0,0,1,.84.07Z"/><path class="cls-1" d="M530.49,462.57a5.54,5.54,0,1,1-5.5,5.54A5.4,5.4,0,0,1,530.49,462.57Zm0,9.05a3.51,3.51,0,1,0-3.35-3.51A3.35,3.35,0,0,0,530.49,471.62Z"/><path class="cls-1" d="M551.66,472.45a4.88,4.88,0,0,1-3.28,1.2,5.44,5.44,0,0,1-2.67-.7,5.55,5.55,0,0,1-2.72-4.84,5.64,5.64,0,0,1,2.74-4.86,5.08,5.08,0,0,1,2.6-.68,5,5,0,0,1,3.26,1.16v-6.36h2.15v16.06h-2.08Zm-.07-6.33a3.83,3.83,0,0,0-3-1.51,3.4,3.4,0,0,0-3.42,3.5,3.47,3.47,0,0,0,3.53,3.51,3.69,3.69,0,0,0,2.92-1.52Z"/><path class="cls-1" d="M558.19,468.56a3.43,3.43,0,0,0,3.44,3.22,3.83,3.83,0,0,0,3-1.45l1.41,1.33a5.58,5.58,0,0,1-4.48,2,5.4,5.4,0,0,1-5.5-5.54,5.2,5.2,0,0,1,5.18-5.54c3,0,5.11,2.4,5.11,5.54a4.33,4.33,0,0,1,0,.45Zm.18-1.8h5.79a3,3,0,0,0-2.8-2.31A3.1,3.1,0,0,0,558.37,466.76Z"/><path class="cls-1" d="M574.31,457.37h2.15v16.06h-2.15Z"/><path class="cls-1" d="M584.33,462.57a5.54,5.54,0,1,1-5.49,5.54A5.39,5.39,0,0,1,584.33,462.57Zm0,9.05a3.51,3.51,0,1,0-3.34-3.51A3.35,3.35,0,0,0,584.33,471.62Z"/><path class="cls-1" d="M605.5,472.45a4.87,4.87,0,0,1-3.28,1.2,5.47,5.47,0,0,1-2.67-.7,5.56,5.56,0,0,1-2.71-4.84,5.63,5.63,0,0,1,2.73-4.86,5.08,5.08,0,0,1,2.6-.68,5,5,0,0,1,3.33,1.2v-1h2.08v10.63H605.5Zm-.07-6.33a3.81,3.81,0,0,0-3-1.51,3.4,3.4,0,0,0-3.41,3.5,3.47,3.47,0,0,0,3.52,3.51,3.69,3.69,0,0,0,2.92-1.52Z"/><path class="cls-1" d="M611,470.6a5.16,5.16,0,0,0,3.14,1.18c.93,0,1.86-.5,1.86-1.34,0-1.22-1.77-1.29-3.33-1.81-1.29-.43-2.44-1.24-2.44-2.73,0-2.29,2-3.33,3.93-3.33a5.37,5.37,0,0,1,3.53,1.18l-1.11,1.54a3.73,3.73,0,0,0-2.28-.84c-1,0-1.92.5-1.92,1.33s.83,1,1.9,1.25c1.67.43,3.87,1.17,3.87,3.37,0,2-1.88,3.25-4,3.25a6.65,6.65,0,0,1-4.3-1.47Z"/><path class="cls-1" d="M625.17,462.57a5.54,5.54,0,1,1-5.49,5.54A5.39,5.39,0,0,1,625.17,462.57Zm0,9.05a3.51,3.51,0,1,0-3.34-3.51A3.35,3.35,0,0,0,625.17,471.62Z"/><path class="cls-1" d="M635.12,462.8v1a4.62,4.62,0,0,1,3.12-1.25,4.81,4.81,0,0,1,3.76,1.77,5.3,5.3,0,0,1,4-1.77,4.83,4.83,0,0,1,3.78,1.79,5.42,5.42,0,0,1,1,3.64v5.43h-2.15v-5.77a3.06,3.06,0,0,0-.61-2.13,2.63,2.63,0,0,0-2-.92,4.38,4.38,0,0,0-3.24,1.51A8.37,8.37,0,0,1,643,468v5.43h-2.14v-5.77a3,3,0,0,0-.62-2.13,2.71,2.71,0,0,0-2.05-.92,4,4,0,0,0-3,1.51v7.31H633V462.8Z"/><path class="cls-1" d="M655.93,473.43h-2.08V457.37H656v6.36a5.22,5.22,0,0,1,5.86-.48,5.61,5.61,0,0,1,2.74,4.86,5.55,5.55,0,0,1-2.72,4.84,5.4,5.4,0,0,1-2.66.7,4.87,4.87,0,0,1-3.28-1.2Zm.06-3.33a3.72,3.72,0,0,0,2.92,1.52,3.47,3.47,0,0,0,3.53-3.51,3.4,3.4,0,0,0-3.42-3.5,3.84,3.84,0,0,0-3,1.51Z"/><path class="cls-1" d="M672.82,464.7a3,3,0,0,0-.84-.09,3.57,3.57,0,0,0-2.87,1.78v7H667V462.8H669V464a3.91,3.91,0,0,1,3.19-1.45,4.92,4.92,0,0,1,.84.07Z"/><path class="cls-1" d="M679.24,462.57a5.54,5.54,0,1,1-5.5,5.54A5.39,5.39,0,0,1,679.24,462.57Zm0,9.05a3.51,3.51,0,1,0-3.35-3.51A3.35,3.35,0,0,0,679.24,471.62Z"/><path class="cls-1" d="M687.2,470.6a5.18,5.18,0,0,0,3.14,1.18c.93,0,1.86-.5,1.86-1.34,0-1.22-1.77-1.29-3.33-1.81-1.29-.43-2.44-1.24-2.44-2.73,0-2.29,2-3.33,3.94-3.33a5.41,5.41,0,0,1,3.53,1.18l-1.11,1.54a3.79,3.79,0,0,0-2.29-.84c-1,0-1.92.5-1.92,1.33s.84,1,1.9,1.25c1.67.43,3.87,1.17,3.87,3.37,0,2-1.88,3.25-4,3.25a6.65,6.65,0,0,1-4.3-1.47Z"/><path class="cls-1" d="M701.43,462.57a5.54,5.54,0,1,1-5.5,5.54A5.39,5.39,0,0,1,701.43,462.57Zm0,9.05a3.51,3.51,0,1,0-3.35-3.51A3.35,3.35,0,0,0,701.43,471.62Z"/><path class="cls-1" d="M712.57,470.71l-2.71,5.88h-1.47l1.7-5.88Z"/><path class="cls-1" d="M721.62,463.73a4.81,4.81,0,0,1,3.12-1.16,4.93,4.93,0,0,1,3.87,1.88,5.65,5.65,0,0,1,1,3.78v5.2H727.5v-5.32a3.6,3.6,0,0,0-.63-2.46,2.8,2.8,0,0,0-2.2-1,3.92,3.92,0,0,0-3,1.51v7.31h-2.15V457.37h2.15Z"/><path class="cls-1" d="M737.29,462.57a5.54,5.54,0,1,1-5.5,5.54A5.4,5.4,0,0,1,737.29,462.57Zm0,9.05a3.51,3.51,0,1,0-3.35-3.51A3.35,3.35,0,0,0,737.29,471.62Z"/><path class="cls-1" d="M744.91,478.85l2.87-6.53-4.54-9.52h2.3l3.33,7,3-7h2.26l-7,16.05Z"/><rect x="418.5" y="45.85" width="373" height="154.1"/><path class="cls-2" d="M118,106.09l16.66-22.33h-7a7.72,7.72,0,0,0-6.77,3.29l-8.78,11.81-8.51-11.81a7.73,7.73,0,0,0-6.78-3.29h-7l16.47,22.33-18,24.34h6.59a7.7,7.7,0,0,0,6.77-3.3l10.44-13.81,24.43,33.76a7.6,7.6,0,0,0,6.77,3.3h7.14Zm133.34,24.34h9.42V83.76h-9.42Zm-74.77,0H186V83.76h-9.43Zm143,16.47,34.13-63.14h-5.12c-3.12,0-5.49.91-6.78,3.29L328.3,112l-11.62-25c-1.19-2.47-3.66-3.29-6.77-3.29H305l17.93,38.07-15.65,28.55h5.13C315.58,150.38,318.14,149.37,319.52,146.9ZM197.25,83.76v46.67h9.43v-32A14.84,14.84,0,0,1,219,91.72c7,0,11.72,4.39,11.72,13.18v21a4.25,4.25,0,0,0,4.39,4.49h5V103.25c0-12.08-7.68-20.5-18.85-20.5a21,21,0,0,0-14.64,5.58V83.76Zm81,30.1c0,10.16,6.23,17.39,17.39,17.39a23.89,23.89,0,0,0,6.86-.91l-1.92-8.24a19,19,0,0,1-4.3.46c-4.57,0-8.6-2.47-8.6-8.88V92.18h13.18L297,83.76h-9.33V65l-9.43,4.11V83.76h-10v8.42h10ZM147.56,92.18v38.25H157V92.18h12.08V83.76H157V80.28c0-8,4.76-10.62,9.42-10.62a11.5,11.5,0,0,1,3.21.46l1.92-8.33a16.68,16.68,0,0,0-5.86-.91c-11.71,0-18.12,8.69-18.12,19.22v3.66h-4.94l-6,8.42Z"/><path class="cls-2" d="M112.26,179.77a5.65,5.65,0,0,1-1.67.23,3.82,3.82,0,0,1-3-1.24,4.07,4.07,0,0,1-.86-2.82v-4.85H104v-1.92h2.7v-2.93h2.15v2.93h3.38v1.92h-3.38v5a2.08,2.08,0,0,0,.31,1.36,2,2,0,0,0,1.47.56,5.13,5.13,0,0,0,1.17-.14Z"/><path class="cls-2" d="M116.77,170.1a4.81,4.81,0,0,1,3.12-1.15,4.88,4.88,0,0,1,3.85,1.87,5.64,5.64,0,0,1,1,3.77v5.18h-2.14v-5.3A3.62,3.62,0,0,0,122,172a2.8,2.8,0,0,0-2.19-1,3.92,3.92,0,0,0-3,1.51v7.28h-2.14v-16h2.14Z"/><path class="cls-2" d="M129,174.92a3.42,3.42,0,0,0,3.43,3.21,3.8,3.8,0,0,0,3-1.45l1.4,1.34a5.56,5.56,0,0,1-4.46,2,5.39,5.39,0,0,1-5.49-5.53,5.19,5.19,0,0,1,5.17-5.52c2.95,0,5.1,2.39,5.1,5.52a2.9,2.9,0,0,1,0,.45Zm.18-1.8H135a3,3,0,0,0-2.79-2.3A3.07,3.07,0,0,0,129.18,173.12Z"/><path class="cls-2" d="M151.17,165.65a3.66,3.66,0,0,0-.79-.09,2.07,2.07,0,0,0-1.62.75,3,3,0,0,0-.41,1.89v1h3.27v1.92h-3.27v8.68h-2.14v-8.68h-2.48v-1.92h2.48v-.9a4.93,4.93,0,0,1,.68-3,4.16,4.16,0,0,1,3.47-1.76,4.9,4.9,0,0,1,1.26.16Z"/><path class="cls-2" d="M154,178.22a5.35,5.35,0,0,1-1-3.63v-5.42h2.14v5.75a3,3,0,0,0,.61,2.12,2.68,2.68,0,0,0,2.05.93,4,4,0,0,0,3-1.51v-7.29h2.14v10.6h-2.07v-1a4.76,4.76,0,0,1-3.11,1.2A4.81,4.81,0,0,1,154,178.22Z"/><path class="cls-2" d="M172.72,179.77a5.7,5.7,0,0,1-1.67.23,3.81,3.81,0,0,1-3-1.24,4,4,0,0,1-.86-2.82v-4.85h-2.71v-1.92h2.71v-2.93h2.14v2.93h3.39v1.92h-3.39v5a2.07,2.07,0,0,0,.32,1.36,2,2,0,0,0,1.46.56,5.28,5.28,0,0,0,1.18-.14Z"/><path class="cls-2" d="M175.83,178.22a5.35,5.35,0,0,1-1-3.63v-5.42H177v5.75a3,3,0,0,0,.61,2.12,2.68,2.68,0,0,0,2,.93,4,4,0,0,0,3-1.51v-7.29h2.14v10.6h-2.07v-1a4.73,4.73,0,0,1-3.11,1.2A4.81,4.81,0,0,1,175.83,178.22Z"/><path class="cls-2" d="M193.9,171.07a3,3,0,0,0-.84-.09,3.53,3.53,0,0,0-2.86,1.78v7h-2.14v-10.6h2.07v1.22a3.88,3.88,0,0,1,3.18-1.44,6.15,6.15,0,0,1,.84.06Z"/><path class="cls-2" d="M196.9,174.92a3.42,3.42,0,0,0,3.43,3.21,3.8,3.8,0,0,0,3-1.45l1.4,1.34a5.57,5.57,0,0,1-4.47,2,5.39,5.39,0,0,1-5.48-5.53A5.19,5.19,0,0,1,200,169c2.95,0,5.1,2.39,5.1,5.52a2.9,2.9,0,0,1,0,.45Zm.18-1.8h5.77a3,3,0,0,0-2.79-2.3A3.07,3.07,0,0,0,197.08,173.12Z"/><path class="cls-2" d="M217.56,169a5.53,5.53,0,1,1-5.48,5.52A5.37,5.37,0,0,1,217.56,169Zm0,9a3.5,3.5,0,1,0-3.34-3.5A3.35,3.35,0,0,0,217.56,178Z"/><path class="cls-2" d="M231.39,165.65a3.83,3.83,0,0,0-.79-.09,2.1,2.1,0,0,0-1.63.75,3,3,0,0,0-.4,1.89v1h3.27v1.92h-3.27v8.68h-2.14v-8.68H224v-1.92h2.48v-.9a5,5,0,0,1,.67-3,4.17,4.17,0,0,1,3.48-1.76,4.9,4.9,0,0,1,1.26.16Z"/><path class="cls-2" d="M246.91,178.8a4.86,4.86,0,0,1-3.27,1.2,5.4,5.4,0,0,1-2.66-.7,5.54,5.54,0,0,1-2.71-4.83,5.61,5.61,0,0,1,2.73-4.85,5.11,5.11,0,0,1,2.59-.67,5,5,0,0,1,3.32,1.19v-1H249v10.6h-2.07Zm-.07-6.31a3.81,3.81,0,0,0-3-1.51,3.39,3.39,0,0,0-3.41,3.49,3.46,3.46,0,0,0,3.52,3.5,3.68,3.68,0,0,0,2.91-1.51Z"/><path class="cls-2" d="M260.08,169.17l2.91,7.24,2.91-7.24h2.21l-4.31,10.6h-1.49l-3-7.44-3,7.44h-1.49l-4.31-10.6h2.21l2.91,7.24,2.91-7.24Z"/><path class="cls-2" d="M270.75,174.92a3.42,3.42,0,0,0,3.43,3.21,3.83,3.83,0,0,0,3.05-1.45l1.39,1.34a5.55,5.55,0,0,1-4.46,2,5.39,5.39,0,0,1-5.48-5.53,5.18,5.18,0,0,1,5.16-5.52c3,0,5.1,2.39,5.1,5.52a4.33,4.33,0,0,1,0,.45Zm.18-1.8h5.78a3,3,0,0,0-2.8-2.3A3.07,3.07,0,0,0,270.93,173.12Z"/><path class="cls-2" d="M281.4,177a5.13,5.13,0,0,0,3.13,1.18c.93,0,1.85-.5,1.85-1.33,0-1.22-1.76-1.29-3.31-1.81-1.29-.43-2.44-1.24-2.44-2.73,0-2.28,2-3.31,3.93-3.31a5.4,5.4,0,0,1,3.52,1.17L287,171.65a3.79,3.79,0,0,0-2.28-.83c-1,0-1.91.5-1.91,1.33s.83,1,1.89,1.24c1.67.43,3.86,1.17,3.86,3.36,0,2-1.87,3.25-3.95,3.25a6.64,6.64,0,0,1-4.29-1.47Z"/><path class="cls-2" d="M295.59,169a5.53,5.53,0,1,1-5.48,5.52A5.37,5.37,0,0,1,295.59,169Zm0,9a3.5,3.5,0,1,0-3.34-3.5A3.35,3.35,0,0,0,295.59,178Z"/><path class="cls-2" d="M305.51,169.17v1a4.59,4.59,0,0,1,3.12-1.24,4.81,4.81,0,0,1,3.74,1.76,5.31,5.31,0,0,1,4-1.76,4.79,4.79,0,0,1,3.77,1.78,5.41,5.41,0,0,1,1,3.63v5.41H319V174a3,3,0,0,0-.61-2.12,2.59,2.59,0,0,0-2-.92,4.36,4.36,0,0,0-3.23,1.51,8.34,8.34,0,0,1,.18,1.87v5.41h-2.14V174a3,3,0,0,0-.61-2.12,2.71,2.71,0,0,0-2.05-.92,4,4,0,0,0-3,1.51v7.28h-2.14v-10.6Z"/><path class="cls-2" d="M325.36,174.92a3.42,3.42,0,0,0,3.43,3.21,3.83,3.83,0,0,0,3-1.45l1.4,1.34a5.57,5.57,0,0,1-4.47,2,5.39,5.39,0,0,1-5.48-5.53,5.18,5.18,0,0,1,5.16-5.52c3,0,5.1,2.39,5.1,5.52a4.33,4.33,0,0,1,0,.45Zm.18-1.8h5.78a3,3,0,0,0-2.8-2.3A3.09,3.09,0,0,0,325.54,173.12Z"/><path class="cls-1" d="M502,106.09l16.66-22.33h-7a7.72,7.72,0,0,0-6.77,3.29l-8.79,11.81-8.51-11.81a7.71,7.71,0,0,0-6.77-3.29h-6.95l16.47,22.33-18,24.34h6.59a7.7,7.7,0,0,0,6.77-3.3l10.43-13.81,24.44,33.76a7.59,7.59,0,0,0,6.77,3.3h7.14Zm133.34,24.34h9.42V83.76h-9.42Zm-74.77,0H570V83.76h-9.43ZM703.51,146.9l34.14-63.14h-5.13c-3.11,0-5.49.91-6.77,3.29L712.3,112l-11.62-25c-1.19-2.47-3.66-3.29-6.77-3.29H689l17.94,38.07-15.65,28.55h5.13C699.58,150.38,702.14,149.37,703.51,146.9ZM581.25,83.76v46.67h9.43v-32A14.84,14.84,0,0,1,603,91.72c7,0,11.72,4.39,11.72,13.18v21a4.25,4.25,0,0,0,4.39,4.49h5V103.25c0-12.08-7.69-20.5-18.85-20.5a21,21,0,0,0-14.64,5.58V83.76Zm81,30.1c0,10.16,6.22,17.39,17.39,17.39a23.94,23.94,0,0,0,6.86-.91l-1.92-8.24a19,19,0,0,1-4.3.46c-4.58,0-8.6-2.47-8.6-8.88V92.18h13.18L681,83.76h-9.33V65l-9.43,4.11V83.76h-10v8.42h10ZM531.56,92.18v38.25H541V92.18h12.08V83.76H541V80.28c0-8,4.76-10.62,9.42-10.62a11.5,11.5,0,0,1,3.21.46l1.92-8.33a16.68,16.68,0,0,0-5.86-.91c-11.71,0-18.12,8.69-18.12,19.22v3.66h-4.94l-6,8.42Z"/><path class="cls-1" d="M496.26,179.77a5.7,5.7,0,0,1-1.67.23,3.82,3.82,0,0,1-3-1.24,4.07,4.07,0,0,1-.86-2.82v-4.85H488v-1.92h2.7v-2.93h2.15v2.93h3.38v1.92h-3.38v5a2.08,2.08,0,0,0,.31,1.36,2,2,0,0,0,1.47.56,5.26,5.26,0,0,0,1.17-.14Z"/><path class="cls-1" d="M500.77,170.1a4.81,4.81,0,0,1,3.11-1.15,4.88,4.88,0,0,1,3.86,1.87,5.64,5.64,0,0,1,1,3.77v5.18h-2.14v-5.3A3.56,3.56,0,0,0,506,172a2.77,2.77,0,0,0-2.18-1,3.92,3.92,0,0,0-3.05,1.51v7.28h-2.14v-16h2.14Z"/><path class="cls-1" d="M513,174.92a3.42,3.42,0,0,0,3.43,3.21,3.82,3.82,0,0,0,3-1.45l1.4,1.34a5.57,5.57,0,0,1-4.47,2,5.39,5.39,0,0,1-5.48-5.53,5.19,5.19,0,0,1,5.17-5.52c2.95,0,5.1,2.39,5.1,5.52a2.9,2.9,0,0,1,0,.45Zm.18-1.8H519a3,3,0,0,0-2.79-2.3A3.07,3.07,0,0,0,513.18,173.12Z"/><path class="cls-1" d="M535.17,165.65a3.83,3.83,0,0,0-.79-.09,2.07,2.07,0,0,0-1.62.75,3,3,0,0,0-.41,1.89v1h3.27v1.92h-3.27v8.68h-2.14v-8.68h-2.48v-1.92h2.48v-.9a4.93,4.93,0,0,1,.68-3,4.16,4.16,0,0,1,3.47-1.76,4.9,4.9,0,0,1,1.26.16Z"/><path class="cls-1" d="M538,178.22a5.35,5.35,0,0,1-1-3.63v-5.42h2.14v5.75a3,3,0,0,0,.61,2.12,2.68,2.68,0,0,0,2,.93,4,4,0,0,0,3-1.51v-7.29h2.14v10.6h-2.07v-1a4.77,4.77,0,0,1-6.88-.58Z"/><path class="cls-1" d="M556.71,179.77A5.65,5.65,0,0,1,555,180a3.82,3.82,0,0,1-3-1.24,4.07,4.07,0,0,1-.85-2.82v-4.85h-2.71v-1.92h2.71v-2.93h2.14v2.93h3.38v1.92h-3.38v5a2.07,2.07,0,0,0,.32,1.36,2,2,0,0,0,1.46.56,5.13,5.13,0,0,0,1.17-.14Z"/><path class="cls-1" d="M559.83,178.22a5.35,5.35,0,0,1-1-3.63v-5.42H561v5.75a3,3,0,0,0,.61,2.12,2.68,2.68,0,0,0,2,.93,4,4,0,0,0,3-1.51v-7.29h2.14v10.6h-2.07v-1a4.77,4.77,0,0,1-6.88-.58Z"/><path class="cls-1" d="M577.9,171.07a3,3,0,0,0-.84-.09,3.53,3.53,0,0,0-2.86,1.78v7h-2.15v-10.6h2.08v1.22a3.88,3.88,0,0,1,3.18-1.44,6,6,0,0,1,.83.06Z"/><path class="cls-1" d="M580.9,174.92a3.41,3.41,0,0,0,3.42,3.21,3.83,3.83,0,0,0,3-1.45l1.4,1.34a5.57,5.57,0,0,1-4.47,2,5.39,5.39,0,0,1-5.48-5.53A5.19,5.19,0,0,1,584,169c3,0,5.09,2.39,5.09,5.52a4.33,4.33,0,0,1,0,.45Zm.18-1.8h5.77a3,3,0,0,0-2.8-2.3A3.07,3.07,0,0,0,581.08,173.12Z"/><path class="cls-1" d="M601.56,169a5.53,5.53,0,1,1-5.48,5.52A5.37,5.37,0,0,1,601.56,169Zm0,9a3.5,3.5,0,1,0-3.34-3.5A3.35,3.35,0,0,0,601.56,178Z"/><path class="cls-1" d="M615.39,165.65a3.83,3.83,0,0,0-.79-.09,2.09,2.09,0,0,0-1.63.75,3,3,0,0,0-.4,1.89v1h3.27v1.92h-3.27v8.68h-2.15v-8.68h-2.48v-1.92h2.48v-.9a5,5,0,0,1,.68-3,4.17,4.17,0,0,1,3.47-1.76,5,5,0,0,1,1.27.16Z"/><path class="cls-1" d="M630.91,178.8a4.86,4.86,0,0,1-3.27,1.2,5.47,5.47,0,0,1-2.67-.7,5.67,5.67,0,0,1,0-9.68,5.11,5.11,0,0,1,2.59-.67,5,5,0,0,1,3.32,1.19v-1H633v10.6h-2.07Zm-.07-6.31a3.82,3.82,0,0,0-3-1.51,3.39,3.39,0,0,0-3.41,3.49,3.46,3.46,0,0,0,3.52,3.5,3.68,3.68,0,0,0,2.91-1.51Z"/><path class="cls-1" d="M644.08,169.17l2.91,7.24,2.91-7.24h2.21l-4.31,10.6h-1.49l-3-7.44-3,7.44h-1.49l-4.31-10.6h2.21l2.91,7.24,2.91-7.24Z"/><path class="cls-1" d="M654.75,174.92a3.42,3.42,0,0,0,3.43,3.21,3.8,3.8,0,0,0,3-1.45l1.4,1.34a5.56,5.56,0,0,1-4.46,2,5.4,5.4,0,0,1-5.49-5.53,5.19,5.19,0,0,1,5.17-5.52c3,0,5.1,2.39,5.1,5.52a4.33,4.33,0,0,1,0,.45Zm.18-1.8h5.77a3,3,0,0,0-2.79-2.3A3.07,3.07,0,0,0,654.93,173.12Z"/><path class="cls-1" d="M665.4,177a5.13,5.13,0,0,0,3.13,1.18c.93,0,1.85-.5,1.85-1.33,0-1.22-1.76-1.29-3.31-1.81-1.29-.43-2.44-1.24-2.44-2.73,0-2.28,2-3.31,3.93-3.31a5.35,5.35,0,0,1,3.51,1.17l-1.1,1.53a3.81,3.81,0,0,0-2.28-.83c-1,0-1.92.5-1.92,1.33s.84,1,1.9,1.24c1.67.43,3.86,1.17,3.86,3.36,0,2-1.88,3.25-3.95,3.25a6.62,6.62,0,0,1-4.29-1.47Z"/><path class="cls-1" d="M679.59,169a5.53,5.53,0,1,1-5.49,5.52A5.37,5.37,0,0,1,679.59,169Zm0,9a3.5,3.5,0,1,0-3.34-3.5A3.34,3.34,0,0,0,679.59,178Z"/><path class="cls-1" d="M689.51,169.17v1a4.59,4.59,0,0,1,3.11-1.24,4.81,4.81,0,0,1,3.75,1.76,5.31,5.31,0,0,1,4-1.76,4.77,4.77,0,0,1,3.76,1.78,5.35,5.35,0,0,1,1,3.63v5.41H703V174a3,3,0,0,0-.61-2.12,2.59,2.59,0,0,0-2-.92,4.36,4.36,0,0,0-3.23,1.51,9,9,0,0,1,.18,1.87v5.41h-2.14V174a3,3,0,0,0-.61-2.12,2.72,2.72,0,0,0-2.05-.92,4,4,0,0,0-3,1.51v7.28h-2.14v-10.6Z"/><path class="cls-1" d="M709.36,174.92a3.42,3.42,0,0,0,3.43,3.21,3.83,3.83,0,0,0,3.05-1.45l1.39,1.34a5.56,5.56,0,0,1-4.46,2,5.39,5.39,0,0,1-5.48-5.53,5.18,5.18,0,0,1,5.16-5.52c3,0,5.1,2.39,5.1,5.52a4.33,4.33,0,0,1,0,.45Zm.18-1.8h5.78a3,3,0,0,0-2.8-2.3A3.07,3.07,0,0,0,709.54,173.12Z"/><path class="cls-3" d="M885,106.09l16.66-22.33h-7a7.72,7.72,0,0,0-6.77,3.29l-8.78,11.81-8.51-11.81a7.73,7.73,0,0,0-6.78-3.29h-7l16.47,22.33-18,24.34h6.59a7.7,7.7,0,0,0,6.77-3.3l10.44-13.81,24.43,33.76a7.6,7.6,0,0,0,6.77,3.3h7.14Zm133.34,24.34h9.42V83.76h-9.42Zm-74.77,0H953V83.76h-9.43Zm142.95,16.47,34.13-63.14h-5.12c-3.12,0-5.49.91-6.78,3.29l-13.45,25-11.62-25c-1.19-2.47-3.66-3.29-6.77-3.29H1072l17.93,38.07-15.65,28.55h5.13C1082.58,150.38,1085.14,149.37,1086.52,146.9ZM964.25,83.76v46.67h9.43v-32A14.84,14.84,0,0,1,986,91.72c7,0,11.72,4.39,11.72,13.18v21a4.25,4.25,0,0,0,4.39,4.49h5V103.25c0-12.08-7.68-20.5-18.85-20.5a21,21,0,0,0-14.64,5.58V83.76Zm81,30.1c0,10.16,6.23,17.39,17.39,17.39a23.89,23.89,0,0,0,6.86-.91l-1.92-8.24a19,19,0,0,1-4.3.46c-4.57,0-8.6-2.47-8.6-8.88V92.18h13.18L1064,83.76h-9.33V65l-9.43,4.11V83.76h-10v8.42h10ZM914.56,92.18v38.25H924V92.18h12.08V83.76H924V80.28c0-8,4.76-10.62,9.42-10.62a11.5,11.5,0,0,1,3.21.46l1.92-8.33a16.68,16.68,0,0,0-5.86-.91c-11.71,0-18.12,8.69-18.12,19.22v3.66h-4.94l-6,8.42Z"/><path class="cls-4" d="M879.26,179.77a5.65,5.65,0,0,1-1.67.23,3.82,3.82,0,0,1-3-1.24,4.07,4.07,0,0,1-.86-2.82v-4.85H871v-1.92h2.7v-2.93h2.15v2.93h3.38v1.92h-3.38v5a2.08,2.08,0,0,0,.31,1.36,2,2,0,0,0,1.47.56,5.13,5.13,0,0,0,1.17-.14Z"/><path class="cls-4" d="M883.77,170.1a4.81,4.81,0,0,1,3.12-1.15,4.88,4.88,0,0,1,3.85,1.87,5.64,5.64,0,0,1,1,3.77v5.18h-2.14v-5.3A3.62,3.62,0,0,0,889,172a2.8,2.8,0,0,0-2.19-1,3.92,3.92,0,0,0-3.05,1.51v7.28h-2.14v-16h2.14Z"/><path class="cls-4" d="M896,174.92a3.42,3.42,0,0,0,3.43,3.21,3.8,3.8,0,0,0,3-1.45l1.4,1.34a5.56,5.56,0,0,1-4.46,2,5.39,5.39,0,0,1-5.49-5.53,5.19,5.19,0,0,1,5.17-5.52c2.95,0,5.1,2.39,5.1,5.52a2.9,2.9,0,0,1,0,.45Zm.18-1.8H902a3,3,0,0,0-2.79-2.3A3.07,3.07,0,0,0,896.18,173.12Z"/><path class="cls-4" d="M918.17,165.65a3.66,3.66,0,0,0-.79-.09,2.07,2.07,0,0,0-1.62.75,3,3,0,0,0-.41,1.89v1h3.27v1.92h-3.27v8.68h-2.14v-8.68h-2.48v-1.92h2.48v-.9a4.93,4.93,0,0,1,.68-3,4.16,4.16,0,0,1,3.47-1.76,4.9,4.9,0,0,1,1.26.16Z"/><path class="cls-4" d="M921,178.22a5.35,5.35,0,0,1-1-3.63v-5.42h2.14v5.75a3,3,0,0,0,.61,2.12,2.68,2.68,0,0,0,2,.93,4,4,0,0,0,3-1.51v-7.29h2.14v10.6h-2.07v-1a4.76,4.76,0,0,1-3.11,1.2A4.81,4.81,0,0,1,921,178.22Z"/><path class="cls-4" d="M939.72,179.77a5.7,5.7,0,0,1-1.67.23,3.81,3.81,0,0,1-3-1.24,4,4,0,0,1-.86-2.82v-4.85h-2.71v-1.92h2.71v-2.93h2.14v2.93h3.39v1.92h-3.39v5a2.07,2.07,0,0,0,.32,1.36,2,2,0,0,0,1.46.56,5.28,5.28,0,0,0,1.18-.14Z"/><path class="cls-4" d="M942.83,178.22a5.35,5.35,0,0,1-1-3.63v-5.42H944v5.75a3,3,0,0,0,.61,2.12,2.68,2.68,0,0,0,2,.93,4,4,0,0,0,3-1.51v-7.29h2.14v10.6h-2.07v-1a4.73,4.73,0,0,1-3.11,1.2A4.81,4.81,0,0,1,942.83,178.22Z"/><path class="cls-4" d="M960.9,171.07a3,3,0,0,0-.84-.09,3.53,3.53,0,0,0-2.86,1.78v7h-2.14v-10.6h2.07v1.22a3.88,3.88,0,0,1,3.18-1.44,6.15,6.15,0,0,1,.84.06Z"/><path class="cls-4" d="M963.9,174.92a3.42,3.42,0,0,0,3.43,3.21,3.8,3.8,0,0,0,3-1.45l1.4,1.34a5.57,5.57,0,0,1-4.47,2,5.39,5.39,0,0,1-5.48-5.53A5.19,5.19,0,0,1,967,169c3,0,5.1,2.39,5.1,5.52a2.9,2.9,0,0,1,0,.45Zm.18-1.8h5.77a3,3,0,0,0-2.79-2.3A3.07,3.07,0,0,0,964.08,173.12Z"/><path class="cls-4" d="M984.56,169a5.53,5.53,0,1,1-5.48,5.52A5.37,5.37,0,0,1,984.56,169Zm0,9a3.5,3.5,0,1,0-3.34-3.5A3.35,3.35,0,0,0,984.56,178Z"/><path class="cls-4" d="M998.39,165.65a3.83,3.83,0,0,0-.79-.09,2.1,2.1,0,0,0-1.63.75,3,3,0,0,0-.4,1.89v1h3.27v1.92h-3.27v8.68h-2.14v-8.68H991v-1.92h2.48v-.9a5,5,0,0,1,.67-3,4.17,4.17,0,0,1,3.48-1.76,4.9,4.9,0,0,1,1.26.16Z"/><path class="cls-4" d="M1013.91,178.8a4.86,4.86,0,0,1-3.27,1.2,5.4,5.4,0,0,1-2.66-.7,5.54,5.54,0,0,1-2.71-4.83,5.61,5.61,0,0,1,2.73-4.85,5.11,5.11,0,0,1,2.59-.67,5,5,0,0,1,3.32,1.19v-1H1016v10.6h-2.07Zm-.07-6.31a3.81,3.81,0,0,0-3-1.51,3.39,3.39,0,0,0-3.41,3.49,3.46,3.46,0,0,0,3.52,3.5,3.68,3.68,0,0,0,2.91-1.51Z"/><path class="cls-4" d="M1027.08,169.17l2.91,7.24,2.91-7.24h2.21l-4.31,10.6h-1.49l-3-7.44-3,7.44h-1.49l-4.31-10.6h2.21l2.91,7.24,2.91-7.24Z"/><path class="cls-4" d="M1037.75,174.92a3.42,3.42,0,0,0,3.43,3.21,3.83,3.83,0,0,0,3-1.45l1.39,1.34a5.55,5.55,0,0,1-4.46,2,5.39,5.39,0,0,1-5.48-5.53,5.18,5.18,0,0,1,5.16-5.52c3,0,5.1,2.39,5.1,5.52a4.33,4.33,0,0,1,0,.45Zm.18-1.8h5.78a3,3,0,0,0-2.8-2.3A3.07,3.07,0,0,0,1037.93,173.12Z"/><path class="cls-4" d="M1048.4,177a5.13,5.13,0,0,0,3.13,1.18c.93,0,1.85-.5,1.85-1.33,0-1.22-1.76-1.29-3.31-1.81-1.29-.43-2.44-1.24-2.44-2.73,0-2.28,2-3.31,3.93-3.31a5.4,5.4,0,0,1,3.52,1.17l-1.11,1.53a3.79,3.79,0,0,0-2.28-.83c-1,0-1.91.5-1.91,1.33s.83,1,1.89,1.24c1.67.43,3.86,1.17,3.86,3.36,0,2-1.87,3.25-4,3.25a6.64,6.64,0,0,1-4.29-1.47Z"/><path class="cls-4" d="M1062.59,169a5.53,5.53,0,1,1-5.48,5.52A5.37,5.37,0,0,1,1062.59,169Zm0,9a3.5,3.5,0,1,0-3.34-3.5A3.35,3.35,0,0,0,1062.59,178Z"/><path class="cls-4" d="M1072.51,169.17v1a4.59,4.59,0,0,1,3.12-1.24,4.81,4.81,0,0,1,3.74,1.76,5.31,5.31,0,0,1,4-1.76,4.79,4.79,0,0,1,3.77,1.78,5.41,5.41,0,0,1,1,3.63v5.41H1086V174a3,3,0,0,0-.61-2.12,2.59,2.59,0,0,0-2-.92,4.36,4.36,0,0,0-3.23,1.51,8.34,8.34,0,0,1,.18,1.87v5.41h-2.14V174a3,3,0,0,0-.61-2.12,2.71,2.71,0,0,0-2-.92,4,4,0,0,0-3,1.51v7.28h-2.14v-10.6Z"/><path class="cls-4" d="M1092.36,174.92a3.42,3.42,0,0,0,3.43,3.21,3.83,3.83,0,0,0,3-1.45l1.4,1.34a5.57,5.57,0,0,1-4.47,2,5.39,5.39,0,0,1-5.48-5.53,5.18,5.18,0,0,1,5.16-5.52c3,0,5.1,2.39,5.1,5.52a4.33,4.33,0,0,1,0,.45Zm.18-1.8h5.78a3,3,0,0,0-2.8-2.3A3.09,3.09,0,0,0,1092.54,173.12Z"/><path class="cls-5" d="M868.15,225.83v13.48h6.79v2.15h-9.41V225.83Z"/><path class="cls-5" d="M879.56,225.18v2.32h-2.67v-2.32Zm-.11,4.77v11.51H877V230Z"/><path class="cls-5" d="M885.05,230l.23,1.84a5.19,5.19,0,0,1,.76-1,4,4,0,0,1,.83-.63,3.21,3.21,0,0,1,.86-.32,4.5,4.5,0,0,1,.89-.1,5.66,5.66,0,0,1,1,.09,3.51,3.51,0,0,1,.93.31,3.14,3.14,0,0,1,.82.6,3.59,3.59,0,0,1,.64.95,4.28,4.28,0,0,1,1.5-1.5,3.78,3.78,0,0,1,1.87-.45,4,4,0,0,1,1.53.27,3.5,3.5,0,0,1,1.17.82,4.2,4.2,0,0,1,.42.57,4,4,0,0,1,.32.72,5.31,5.31,0,0,1,.21.91,9.77,9.77,0,0,1,.07,1.16v7.3h-2.49v-7.64a2.94,2.94,0,0,0-.09-.71,1.81,1.81,0,0,0-.32-.67,1.65,1.65,0,0,0-.61-.48,2.12,2.12,0,0,0-1-.19,2.47,2.47,0,0,0-1,.18,2.21,2.21,0,0,0-1.23,1.24,2.46,2.46,0,0,0-.18.94v7.33h-2.48v-7.64a2.94,2.94,0,0,0-.09-.71,1.81,1.81,0,0,0-.32-.67,1.65,1.65,0,0,0-.61-.48,2.14,2.14,0,0,0-1-.19,2.37,2.37,0,0,0-.93.18,2.22,2.22,0,0,0-.74.49,2.49,2.49,0,0,0-.49.75,2.46,2.46,0,0,0-.18.94v7.33H883V232l-.23-2.09Z"/><path class="cls-5" d="M905,225.18v2.32h-2.67v-2.32Zm-.11,4.77v11.51h-2.45V230Z"/><path class="cls-5" d="M911.21,226.89V230h2.62v1.88h-2.62v6.62a1.42,1.42,0,0,0,.06.42,1,1,0,0,0,.16.36.78.78,0,0,0,.3.24,1,1,0,0,0,.45.09h1.73l-.16,1.86a2.11,2.11,0,0,1-.79.2,11.2,11.2,0,0,1-1.28.06,3.66,3.66,0,0,1-1.31-.22,2.58,2.58,0,0,1-.91-.6,2.51,2.51,0,0,1-.53-.89,3.49,3.49,0,0,1-.17-1.08v-7.06H906.9V230h1.86l.28-3.06Z"/><path class="cls-5" d="M918,236.26a6.2,6.2,0,0,0,.21,1.29,3.53,3.53,0,0,0,.54,1.12,2.76,2.76,0,0,0,1,.79,3.34,3.34,0,0,0,1.5.29,5.48,5.48,0,0,0,1.85-.3,7.76,7.76,0,0,0,1.66-.82l.75,1.75a7.73,7.73,0,0,1-1.9,1,7.32,7.32,0,0,1-2.39.36,6.77,6.77,0,0,1-2.55-.44,4.61,4.61,0,0,1-1.77-1.21,5,5,0,0,1-1-1.84,7.68,7.68,0,0,1-.33-2.29,7.91,7.91,0,0,1,.37-2.48,5.82,5.82,0,0,1,1.08-2,5,5,0,0,1,1.7-1.31,5.3,5.3,0,0,1,2.25-.47,5.16,5.16,0,0,1,2.07.39,4.22,4.22,0,0,1,1.5,1.08,4.6,4.6,0,0,1,.93,1.63,6.06,6.06,0,0,1,.32,2c0,.13,0,.31,0,.54s0,.53-.07.87Zm2.87-4.69a2.49,2.49,0,0,0-1.89.8,4,4,0,0,0-.94,2.27h5.31a4.37,4.37,0,0,0-.17-1.24,2.92,2.92,0,0,0-.47-1,2.17,2.17,0,0,0-.78-.63A2.36,2.36,0,0,0,920.84,231.57Z"/><path class="cls-5" d="M938.11,225.18v16.28h-2.06l-.22-1.62a6.39,6.39,0,0,1-.76.89,4.08,4.08,0,0,1-.8.57,3.1,3.1,0,0,1-.88.32,5.24,5.24,0,0,1-1,.09,4.49,4.49,0,0,1-1.57-.26,3.78,3.78,0,0,1-1.2-.71,4.12,4.12,0,0,1-.86-1,6.42,6.42,0,0,1-.55-1.26,7.25,7.25,0,0,1-.31-1.38,10.89,10.89,0,0,1-.09-1.38,9.37,9.37,0,0,1,.27-2.28,5.58,5.58,0,0,1,.85-1.9,4.1,4.1,0,0,1,1.47-1.3,4.76,4.76,0,0,1,3.12-.38,3.55,3.55,0,0,1,.83.3,3.17,3.17,0,0,1,.69.53,6.13,6.13,0,0,1,.61.76v-6.23Zm-2.46,9a2.3,2.3,0,0,0-.16-.83,2.1,2.1,0,0,0-.47-.76,2.45,2.45,0,0,0-.81-.57,2.6,2.6,0,0,0-1.17-.23,2.43,2.43,0,0,0-1.38.34,2.31,2.31,0,0,0-.8.9,3.73,3.73,0,0,0-.37,1.25,10.85,10.85,0,0,0-.09,1.4,11.64,11.64,0,0,0,.09,1.45,4,4,0,0,0,.37,1.28,2.27,2.27,0,0,0,.8.91,2.43,2.43,0,0,0,1.38.35,2.91,2.91,0,0,0,1.17-.22,2.3,2.3,0,0,0,.81-.56,2.06,2.06,0,0,0,.47-.75,2.21,2.21,0,0,0,.16-.82Z"/><path class="cls-5" d="M949.39,225.83v10a13,13,0,0,0,.08,1.44,2.62,2.62,0,0,0,.43,1.16,2.24,2.24,0,0,0,1,.79,5.16,5.16,0,0,0,1.92.29,5.09,5.09,0,0,0,1.9-.29,2.16,2.16,0,0,0,1-.79,2.62,2.62,0,0,0,.43-1.16,13,13,0,0,0,.08-1.44v-10h2.56V236c0,.46,0,.92-.07,1.38a6.57,6.57,0,0,1-.29,1.33,4.75,4.75,0,0,1-.62,1.18,3.87,3.87,0,0,1-1.07,1,5.68,5.68,0,0,1-1.65.64,11.33,11.33,0,0,1-4.64,0,5.68,5.68,0,0,1-1.65-.64,4,4,0,0,1-1.09-1,4.47,4.47,0,0,1-.63-1.18,6,6,0,0,1-.3-1.33,12.75,12.75,0,0,1-.07-1.38V225.83Z"/><path class="cls-5" d="M969.37,232.3a12.3,12.3,0,0,0-1.55-.54,6.55,6.55,0,0,0-1.68-.22,3.38,3.38,0,0,0-.72.07,2.2,2.2,0,0,0-.61.22,1.21,1.21,0,0,0-.41.4,1.1,1.1,0,0,0-.16.62,1.19,1.19,0,0,0,.19.69,1.55,1.55,0,0,0,.53.48,4.15,4.15,0,0,0,.84.36q.5.17,1.11.33c.38.11.77.24,1.17.4a4.25,4.25,0,0,1,1.08.65,3,3,0,0,1,.79,1,3,3,0,0,1,.31,1.43,3.24,3.24,0,0,1-1.41,2.76,4.81,4.81,0,0,1-1.54.68,7.51,7.51,0,0,1-1.88.23,10.37,10.37,0,0,1-1.12-.06q-.55-.08-1-.18a8.31,8.31,0,0,1-.9-.24,3.4,3.4,0,0,1-.65-.28l.36-2a8.59,8.59,0,0,0,1.52.61,6.39,6.39,0,0,0,1.84.26,6,6,0,0,0,.84-.07,2.52,2.52,0,0,0,.76-.25,1.48,1.48,0,0,0,.54-.45,1.22,1.22,0,0,0,.2-.72,1.29,1.29,0,0,0-.19-.72,1.86,1.86,0,0,0-.56-.51,3.81,3.81,0,0,0-.88-.39c-.34-.12-.73-.24-1.15-.37a10.06,10.06,0,0,1-1.09-.42,4.11,4.11,0,0,1-1-.66,3.34,3.34,0,0,1-.77-1,2.87,2.87,0,0,1-.3-1.36,3.19,3.19,0,0,1,.33-1.48,3,3,0,0,1,.91-1.06,3.92,3.92,0,0,1,1.4-.64,7,7,0,0,1,1.77-.21,9.93,9.93,0,0,1,1.92.18,9.81,9.81,0,0,1,1.62.47Z"/><path class="cls-5" d="M974.71,236.26a6.22,6.22,0,0,0,.22,1.29,3.15,3.15,0,0,0,.54,1.12,2.59,2.59,0,0,0,1,.79,3.3,3.3,0,0,0,1.49.29,5.5,5.5,0,0,0,1.86-.3,7.92,7.92,0,0,0,1.65-.82l.76,1.75a7.8,7.8,0,0,1-1.91,1,7.26,7.26,0,0,1-2.38.36,6.82,6.82,0,0,1-2.56-.44,4.77,4.77,0,0,1-1.77-1.21,5,5,0,0,1-1-1.84,7.68,7.68,0,0,1-.34-2.29,7.91,7.91,0,0,1,.38-2.48,5.8,5.8,0,0,1,1.07-2,5.07,5.07,0,0,1,1.7-1.31,5.31,5.31,0,0,1,2.26-.47,5.11,5.11,0,0,1,2.06.39,4.26,4.26,0,0,1,1.51,1.08,4.6,4.6,0,0,1,.93,1.63,6.32,6.32,0,0,1,.32,2c0,.13,0,.31,0,.54s0,.53-.07.87Zm2.88-4.69a2.46,2.46,0,0,0-1.89.8,4,4,0,0,0-.94,2.27h5.3a4.38,4.38,0,0,0-.16-1.24,2.94,2.94,0,0,0-.48-1,2.14,2.14,0,0,0-.77-.63A2.39,2.39,0,0,0,977.59,231.57Z"/><path class="cls-5" d="M868.15,520.83v13.48h6.79v2.15h-9.41V520.83Z"/><path class="cls-5" d="M879.56,520.18v2.32h-2.67v-2.32Zm-.11,4.77v11.51H877V525Z"/><path class="cls-5" d="M885.05,525l.23,1.84a5.19,5.19,0,0,1,.76-1,4,4,0,0,1,.83-.63,3.21,3.21,0,0,1,.86-.32,4.5,4.5,0,0,1,.89-.1,5.66,5.66,0,0,1,1,.09,3.51,3.51,0,0,1,.93.31,3.14,3.14,0,0,1,.82.6,3.59,3.59,0,0,1,.64.95,4.28,4.28,0,0,1,1.5-1.5,3.78,3.78,0,0,1,1.87-.45,4,4,0,0,1,1.53.27,3.5,3.5,0,0,1,1.17.82,4.2,4.2,0,0,1,.42.57,4,4,0,0,1,.32.72,5.31,5.31,0,0,1,.21.91,9.77,9.77,0,0,1,.07,1.16v7.3h-2.49v-7.64a2.94,2.94,0,0,0-.09-.71,1.81,1.81,0,0,0-.32-.67,1.65,1.65,0,0,0-.61-.48,2.12,2.12,0,0,0-1-.19,2.47,2.47,0,0,0-1,.18,2.21,2.21,0,0,0-1.23,1.24,2.46,2.46,0,0,0-.18.94v7.33h-2.48v-7.64a2.94,2.94,0,0,0-.09-.71,1.81,1.81,0,0,0-.32-.67,1.65,1.65,0,0,0-.61-.48,2.14,2.14,0,0,0-1-.19,2.37,2.37,0,0,0-.93.18,2.22,2.22,0,0,0-.74.49,2.49,2.49,0,0,0-.49.75,2.46,2.46,0,0,0-.18.94v7.33H883V527l-.23-2.09Z"/><path class="cls-5" d="M905,520.18v2.32h-2.67v-2.32Zm-.11,4.77v11.51h-2.45V525Z"/><path class="cls-5" d="M911.21,521.89V525h2.62v1.88h-2.62v6.62a1.42,1.42,0,0,0,.06.42,1,1,0,0,0,.16.36.78.78,0,0,0,.3.24,1,1,0,0,0,.45.09h1.73l-.16,1.86a2.11,2.11,0,0,1-.79.2,11.2,11.2,0,0,1-1.28.06,3.66,3.66,0,0,1-1.31-.22,2.58,2.58,0,0,1-.91-.6,2.51,2.51,0,0,1-.53-.89,3.49,3.49,0,0,1-.17-1.08v-7.06H906.9V525h1.86l.28-3.06Z"/><path class="cls-5" d="M918,531.26a6.2,6.2,0,0,0,.21,1.29,3.53,3.53,0,0,0,.54,1.12,2.76,2.76,0,0,0,1,.79,3.34,3.34,0,0,0,1.5.29,5.48,5.48,0,0,0,1.85-.3,7.76,7.76,0,0,0,1.66-.82l.75,1.75a7.73,7.73,0,0,1-1.9,1,7.32,7.32,0,0,1-2.39.36,6.77,6.77,0,0,1-2.55-.44,4.61,4.61,0,0,1-1.77-1.21,5,5,0,0,1-1-1.84,7.68,7.68,0,0,1-.33-2.29,7.91,7.91,0,0,1,.37-2.48,5.82,5.82,0,0,1,1.08-2,5,5,0,0,1,1.7-1.31,5.3,5.3,0,0,1,2.25-.47,5.16,5.16,0,0,1,2.07.39,4.22,4.22,0,0,1,1.5,1.08,4.6,4.6,0,0,1,.93,1.63,6.06,6.06,0,0,1,.32,2c0,.13,0,.31,0,.54s0,.53-.07.87Zm2.87-4.69a2.49,2.49,0,0,0-1.89.8,4,4,0,0,0-.94,2.27h5.31a4.37,4.37,0,0,0-.17-1.24,2.92,2.92,0,0,0-.47-1,2.17,2.17,0,0,0-.78-.63A2.36,2.36,0,0,0,920.84,526.57Z"/><path class="cls-5" d="M938.11,520.18v16.28h-2.06l-.22-1.62a6.39,6.39,0,0,1-.76.89,4.08,4.08,0,0,1-.8.57,3.1,3.1,0,0,1-.88.32,5.24,5.24,0,0,1-1,.09,4.49,4.49,0,0,1-1.57-.26,3.78,3.78,0,0,1-1.2-.71,4.12,4.12,0,0,1-.86-1,6.42,6.42,0,0,1-.55-1.26,7.25,7.25,0,0,1-.31-1.38,10.89,10.89,0,0,1-.09-1.38,9.37,9.37,0,0,1,.27-2.28,5.58,5.58,0,0,1,.85-1.9,4.1,4.1,0,0,1,1.47-1.3,4.76,4.76,0,0,1,3.12-.38,3.55,3.55,0,0,1,.83.3,3.17,3.17,0,0,1,.69.53,6.13,6.13,0,0,1,.61.76v-6.23Zm-2.46,9a2.3,2.3,0,0,0-.16-.83,2.1,2.1,0,0,0-.47-.76,2.45,2.45,0,0,0-.81-.57,2.6,2.6,0,0,0-1.17-.23,2.43,2.43,0,0,0-1.38.34,2.31,2.31,0,0,0-.8.9,3.73,3.73,0,0,0-.37,1.25,10.85,10.85,0,0,0-.09,1.4,11.64,11.64,0,0,0,.09,1.45,4,4,0,0,0,.37,1.28,2.27,2.27,0,0,0,.8.91,2.43,2.43,0,0,0,1.38.35,2.91,2.91,0,0,0,1.17-.22,2.3,2.3,0,0,0,.81-.56,2.06,2.06,0,0,0,.47-.75,2.21,2.21,0,0,0,.16-.82Z"/><path class="cls-5" d="M949.39,520.83v10a13,13,0,0,0,.08,1.44,2.62,2.62,0,0,0,.43,1.16,2.24,2.24,0,0,0,1,.79,5.16,5.16,0,0,0,1.92.29,5.09,5.09,0,0,0,1.9-.29,2.16,2.16,0,0,0,1-.79,2.62,2.62,0,0,0,.43-1.16,13,13,0,0,0,.08-1.44v-10h2.56V531c0,.46,0,.92-.07,1.38a6.57,6.57,0,0,1-.29,1.33,4.75,4.75,0,0,1-.62,1.18,3.87,3.87,0,0,1-1.07,1,5.68,5.68,0,0,1-1.65.64,11.33,11.33,0,0,1-4.64,0,5.68,5.68,0,0,1-1.65-.64,4,4,0,0,1-1.09-1,4.47,4.47,0,0,1-.63-1.18,6,6,0,0,1-.3-1.33,12.75,12.75,0,0,1-.07-1.38V520.83Z"/><path class="cls-5" d="M969.37,527.3a12.3,12.3,0,0,0-1.55-.54,6.55,6.55,0,0,0-1.68-.22,3.38,3.38,0,0,0-.72.07,2.2,2.2,0,0,0-.61.22,1.21,1.21,0,0,0-.41.4,1.1,1.1,0,0,0-.16.62,1.19,1.19,0,0,0,.19.69,1.55,1.55,0,0,0,.53.48,4.15,4.15,0,0,0,.84.36q.5.17,1.11.33c.38.11.77.24,1.17.4a4.25,4.25,0,0,1,1.08.65,3,3,0,0,1,.79,1,3,3,0,0,1,.31,1.43,3.24,3.24,0,0,1-1.41,2.76,4.81,4.81,0,0,1-1.54.68,7.51,7.51,0,0,1-1.88.23,10.37,10.37,0,0,1-1.12-.06q-.55-.07-1-.18a8.31,8.31,0,0,1-.9-.24,3.4,3.4,0,0,1-.65-.28l.36-2a8.59,8.59,0,0,0,1.52.61,6.39,6.39,0,0,0,1.84.26,6,6,0,0,0,.84-.07,2.52,2.52,0,0,0,.76-.25,1.48,1.48,0,0,0,.54-.45,1.22,1.22,0,0,0,.2-.72,1.29,1.29,0,0,0-.19-.72,1.86,1.86,0,0,0-.56-.51,3.81,3.81,0,0,0-.88-.39c-.34-.12-.73-.24-1.15-.37a10.06,10.06,0,0,1-1.09-.42,4.11,4.11,0,0,1-1-.66,3.34,3.34,0,0,1-.77-1,2.87,2.87,0,0,1-.3-1.36,3.19,3.19,0,0,1,.33-1.48,3,3,0,0,1,.91-1.06,3.92,3.92,0,0,1,1.4-.64,7,7,0,0,1,1.77-.21,9.93,9.93,0,0,1,1.92.18,9.81,9.81,0,0,1,1.62.47Z"/><path class="cls-5" d="M974.71,531.26a6.22,6.22,0,0,0,.22,1.29,3.15,3.15,0,0,0,.54,1.12,2.59,2.59,0,0,0,1,.79,3.3,3.3,0,0,0,1.49.29,5.5,5.5,0,0,0,1.86-.3,7.92,7.92,0,0,0,1.65-.82l.76,1.75a7.8,7.8,0,0,1-1.91,1,7.26,7.26,0,0,1-2.38.36,6.82,6.82,0,0,1-2.56-.44,4.77,4.77,0,0,1-1.77-1.21,5,5,0,0,1-1-1.84,7.68,7.68,0,0,1-.34-2.29,7.91,7.91,0,0,1,.38-2.48,5.8,5.8,0,0,1,1.07-2,5.07,5.07,0,0,1,1.7-1.31,5.31,5.31,0,0,1,2.26-.47,5.11,5.11,0,0,1,2.06.39,4.26,4.26,0,0,1,1.51,1.08,4.6,4.6,0,0,1,.93,1.63,6.32,6.32,0,0,1,.32,2c0,.13,0,.31,0,.54s0,.53-.07.87Zm2.88-4.69a2.46,2.46,0,0,0-1.89.8,4,4,0,0,0-.94,2.27h5.3a4.38,4.38,0,0,0-.16-1.24,2.94,2.94,0,0,0-.48-1,2.14,2.14,0,0,0-.77-.63A2.39,2.39,0,0,0,977.59,526.57Z"/></g></svg>