<svg xmlns="http://www.w3.org/2000/svg" viewBox="0 0 382 186"><defs><style>.cls-1{fill:#fff;}.cls-2{fill:#e2f3f5;}.cls-3{fill:#00d6ca;}.cls-4{fill:none;stroke:#5a5a5c;stroke-miterlimit:10;stroke-width:0.5px;}</style></defs><title>BrandHub-VectorGraphics</title><g id="Vector"><rect class="cls-1" x="-0.17" y="0.33" width="382" height="186"/><rect class="cls-2" x="20.71" y="18.5" width="340.36" height="149.34"/><path class="cls-3" d="M180.22,19.05V44.4h5.12V27a8.06,8.06,0,0,1,6.71-3.63c3.78,0,6.37,2.39,6.37,7.16V42a2.31,2.31,0,0,0,2.38,2.44h2.74V29.63c0-6.56-4.18-11.13-10.24-11.13a11.44,11.44,0,0,0-8,3V19.05Z"/><path class="cls-3" d="M180.22,142.48v25.36h5.12v-17.4a8.06,8.06,0,0,1,6.71-3.63c3.78,0,6.37,2.38,6.37,7.16V165.4a2.31,2.31,0,0,0,2.38,2.44h2.74V153.07c0-6.56-4.18-11.13-10.24-11.13a11.44,11.44,0,0,0-8,3v-2.49Z"/><path class="cls-3" d="M21.26,105.66H46.61v-5.12H29.21a8.06,8.06,0,0,1-3.63-6.72c0-3.77,2.39-6.36,7.16-6.36H44.17a2.31,2.31,0,0,0,2.44-2.38V82.34H31.85c-6.57,0-11.14,4.18-11.14,10.24a11.44,11.44,0,0,0,3,8H21.26Z"/><path class="cls-3" d="M360.52,82.34H335.17v5.12h17.4a8.08,8.08,0,0,1,3.63,6.71c0,3.78-2.39,6.37-7.16,6.37H337.6a2.3,2.3,0,0,0-2.43,2.38v2.74h14.76c6.56,0,11.14-4.18,11.14-10.24a11.43,11.43,0,0,0-3-8h2.49Z"/><rect class="cls-1" x="46.93" y="44.7" width="288.12" height="97.24"/><path d="M79.14,93.81l18.1-24.26H89.68a8.4,8.4,0,0,0-7.36,3.58L72.78,86,63.53,73.13a8.38,8.38,0,0,0-7.35-3.58H48.62l17.9,24.26L46.93,120.26h7.16a8.34,8.34,0,0,0,7.35-3.58l11.34-15,26.55,36.69a8.26,8.26,0,0,0,7.35,3.58h7.76ZM224,120.26h10.24V69.55H224Zm-81.23,0H153V69.55H142.78Zm155.3,17.9,37.09-68.61H329.6c-3.38,0-6,1-7.36,3.58l-14.61,27.15L295,73.13c-1.29-2.68-4-3.58-7.36-3.58h-5.37l19.49,41.36-17,31h5.57C293.81,141.94,296.59,140.84,298.08,138.16ZM165.25,69.55v50.71h10.24V85.46a16.13,16.13,0,0,1,13.42-7.26c7.56,0,12.73,4.78,12.73,14.32v22.87a4.62,4.62,0,0,0,4.77,4.87h5.47V90.73c0-13.12-8.35-22.27-20.48-22.27a22.86,22.86,0,0,0-15.91,6.06v-5Zm88,32.71c0,11,6.76,18.9,18.89,18.9a25.93,25.93,0,0,0,7.46-1l-2.09-9a20.87,20.87,0,0,1-4.67.5c-5,0-9.35-2.68-9.35-9.64V78.7H277.8l-4.18-9.15H263.48V49.17l-10.24,4.47V69.55H242.4V78.7h10.84Zm-142-23.56v41.56H121.5V78.7h13.12V69.55H121.5V65.77c0-8.65,5.17-11.53,10.24-11.53a12.16,12.16,0,0,1,3.48.5l2.09-9.05a17.9,17.9,0,0,0-6.37-1c-12.72,0-19.68,9.44-19.68,20.88v4h-5.37L99.43,78.7Z"/><line class="cls-4" x1="46.93" y1="185.66" x2="46.93" y2="0.34"/><line class="cls-4" y1="44.7" x2="381.78" y2="44.7"/><line class="cls-4" x1="381.47" y1="141.94" x2="0.31" y2="141.94"/><line class="cls-4" x1="335.05" y1="186" x2="335.05"/></g></svg>