<svg xmlns="http://www.w3.org/2000/svg" viewBox="0 0 382 220"><defs><style>.cls-1{fill:#fff;}.cls-2{fill:#e2f3f5;}.cls-3{fill:#00d6ca;}.cls-4{fill:none;stroke:#5a5a5c;stroke-miterlimit:10;stroke-width:0.5px;}</style></defs><title>BrandHub-VectorGraphics</title><g id="Vector"><rect class="cls-1" width="382" height="220"/><rect class="cls-2" x="20.91" y="19.16" width="340.36" height="181.07"/><path class="cls-3" d="M180.42,19.7V45.06h5.12V27.66A8.06,8.06,0,0,1,192.25,24c3.78,0,6.37,2.39,6.37,7.16V42.62A2.31,2.31,0,0,0,201,45.06h2.74V30.29c0-6.56-4.18-11.13-10.24-11.13a11.44,11.44,0,0,0-8,3V19.7Z"/><path class="cls-3" d="M180.42,174.87v25.36h5.12v-17.4a8.06,8.06,0,0,1,6.71-3.63c3.78,0,6.37,2.38,6.37,7.16v11.43a2.31,2.31,0,0,0,2.38,2.44h2.74V185.46c0-6.56-4.18-11.13-10.24-11.13a11.44,11.44,0,0,0-8,3v-2.49Z"/><path class="cls-3" d="M21.46,121.91H46.81v-5.12H29.41a8.06,8.06,0,0,1-3.63-6.71c0-3.78,2.39-6.36,7.16-6.36H44.38a2.31,2.31,0,0,0,2.43-2.39V98.6H32.05c-6.57,0-11.14,4.17-11.14,10.24a11.41,11.41,0,0,0,3,8H21.46Z"/><path class="cls-3" d="M360.72,98.6H335.37v5.12h17.4a8.08,8.08,0,0,1,3.63,6.71c0,3.78-2.39,6.36-7.16,6.36H337.8a2.31,2.31,0,0,0-2.43,2.39v2.73h14.76c6.56,0,11.14-4.17,11.14-10.24a11.46,11.46,0,0,0-3-8h2.48Z"/><rect class="cls-1" x="47.13" y="45.35" width="288.12" height="128.97"/><line class="cls-4" x1="47.13" x2="47.13" y2="220"/><line class="cls-4" x1="382.18" y1="45.35" y2="45.35"/><line class="cls-4" x1="382.18" y1="174.57" y2="174.57"/><line class="cls-4" x1="335.25" y1="220" x2="335.25"/><path d="M79.05,94.21,97.16,69.93H89.59a8.4,8.4,0,0,0-7.36,3.58L72.68,86.35,63.43,73.51a8.4,8.4,0,0,0-7.37-3.58H48.5L66.41,94.21l-19.6,26.47H54a8.39,8.39,0,0,0,7.37-3.59l11.34-15,26.57,36.71a8.27,8.27,0,0,0,7.36,3.59h7.76Zm145,26.47h10.24V69.93H224Zm-81.29,0H153V69.93H142.73Zm155.41,17.9,37.11-68.65h-5.57c-3.38,0-6,1-7.36,3.58l-14.63,27.17L295.06,73.51c-1.3-2.68-4-3.58-7.37-3.58h-5.37l19.5,41.39-17,31.05h5.57C293.86,142.37,296.65,141.27,298.14,138.58ZM165.21,69.93v50.75h10.25V85.85a16.12,16.12,0,0,1,13.43-7.26c7.56,0,12.74,4.77,12.74,14.33V115.8a4.62,4.62,0,0,0,4.77,4.88h5.48V91.12c0-13.13-8.36-22.28-20.5-22.28a22.87,22.87,0,0,0-15.92,6.07v-5Zm88.06,32.74c0,11,6.76,18.9,18.9,18.9a26.27,26.27,0,0,0,7.46-1l-2.09-9a20.87,20.87,0,0,1-4.67.5c-5,0-9.35-2.69-9.35-9.65V79.09h14.32l-4.18-9.16H263.52V49.54L253.27,54V69.93H242.42v9.16h10.85ZM111.19,79.09v41.59h10.24V79.09h13.14V69.93H121.43V66.15c0-8.66,5.18-11.54,10.25-11.54a12.11,12.11,0,0,1,3.48.5l2.09-9.06a18.07,18.07,0,0,0-6.36-1c-12.74,0-19.7,9.45-19.7,20.89v4h-5.38l-6.46,9.16Z"/><path d="M72.8,174.33a6.61,6.61,0,0,1-1.81.24,4.12,4.12,0,0,1-3.26-1.35,4.38,4.38,0,0,1-.93-3.06v-5.28H63.85V162.8H66.8v-3.19h2.33v3.19H72.8v2.08H69.13v5.4a2.2,2.2,0,0,0,.34,1.47,2.15,2.15,0,0,0,1.59.61,6.12,6.12,0,0,0,1.28-.14Z"/><path d="M77.71,163.8a5.23,5.23,0,0,1,3.38-1.25,5.32,5.32,0,0,1,4.2,2,6.18,6.18,0,0,1,1.13,4.1v5.64H84.09v-5.77a3.86,3.86,0,0,0-.69-2.67A3,3,0,0,0,81,164.76a4.28,4.28,0,0,0-3.31,1.64v7.93H75.38V156.91h2.33Z"/><path d="M91,169.05a3.72,3.72,0,0,0,3.73,3.49A4.16,4.16,0,0,0,98,171l1.52,1.44a6,6,0,0,1-4.85,2.16,5.86,5.86,0,0,1-6-6c0-3.46,2.35-6,5.61-6s5.55,2.6,5.55,6a3.43,3.43,0,0,1,0,.49Zm.2-2h6.28a3.23,3.23,0,0,0-3-2.5A3.35,3.35,0,0,0,91.2,167.09Z"/><path d="M115.11,159a3.69,3.69,0,0,0-.86-.1,2.28,2.28,0,0,0-1.76.81,3.29,3.29,0,0,0-.44,2.06v1.06h3.55v2.08h-3.55v9.45h-2.33v-9.45H107V162.8h2.7v-1a5.45,5.45,0,0,1,.73-3.24,4.53,4.53,0,0,1,3.78-1.91,5.27,5.27,0,0,1,1.37.17Z"/><path d="M118.13,172.63a5.84,5.84,0,0,1-1.06-3.94V162.8h2.33v6.25a3.26,3.26,0,0,0,.67,2.31,2.93,2.93,0,0,0,2.23,1,4.35,4.35,0,0,0,3.23-1.64V162.8h2.33v11.53h-2.25v-1.06a5.19,5.19,0,0,1-7.48-.64Z"/><path d="M138.53,174.33a6.61,6.61,0,0,1-1.81.24,4.12,4.12,0,0,1-3.26-1.35,4.39,4.39,0,0,1-.94-3.06v-5.28h-2.94V162.8h2.94v-3.19h2.33v3.19h3.68v2.08h-3.68v5.4a2.2,2.2,0,0,0,.35,1.47,2.15,2.15,0,0,0,1.59.61,6.27,6.27,0,0,0,1.28-.14Z"/><path d="M141.92,172.63a5.84,5.84,0,0,1-1.06-3.94V162.8h2.33v6.25a3.26,3.26,0,0,0,.67,2.31,2.93,2.93,0,0,0,2.23,1,4.35,4.35,0,0,0,3.23-1.64V162.8h2.33v11.53H149.4v-1.06a5.19,5.19,0,0,1-7.48-.64Z"/><path d="M161.56,164.86a3.44,3.44,0,0,0-.9-.1,3.87,3.87,0,0,0-3.12,1.94v7.63h-2.33V162.8h2.26v1.32a4.22,4.22,0,0,1,3.46-1.57,5.78,5.78,0,0,1,.9.08Z"/><path d="M164.82,169.05a3.73,3.73,0,0,0,3.73,3.49,4.16,4.16,0,0,0,3.31-1.57l1.52,1.44a6,6,0,0,1-4.85,2.16,5.86,5.86,0,0,1-6-6c0-3.46,2.35-6,5.61-6s5.55,2.6,5.55,6a3.43,3.43,0,0,1,0,.49Zm.2-2h6.28a3.22,3.22,0,0,0-3-2.5A3.35,3.35,0,0,0,165,167.09Z"/><path d="M187.29,162.55a6,6,0,1,1-6,6A5.84,5.84,0,0,1,187.29,162.55Zm0,9.81a3.8,3.8,0,1,0-3.63-3.8A3.63,3.63,0,0,0,187.29,172.36Z"/><path d="M202.32,159a3.59,3.59,0,0,0-.85-.1,2.28,2.28,0,0,0-1.77.81,3.29,3.29,0,0,0-.44,2.06v1.06h3.55v2.08h-3.55v9.45h-2.33v-9.45h-2.7V162.8h2.7v-1a5.37,5.37,0,0,1,.74-3.24,4.5,4.5,0,0,1,3.77-1.91,5.21,5.21,0,0,1,1.37.17Z"/><path d="M219.2,173.27a5.27,5.27,0,0,1-3.56,1.3,5.84,5.84,0,0,1-2.89-.76,6,6,0,0,1-2.95-5.25,6.1,6.1,0,0,1,3-5.27,5.7,5.7,0,0,1,6.43.56v-1h2.25v11.53H219.2Zm-.08-6.87a4.14,4.14,0,0,0-3.28-1.64,3.69,3.69,0,0,0-3.7,3.8,3.76,3.76,0,0,0,3.82,3.8,4,4,0,0,0,3.16-1.64Z"/><path d="M233.52,162.8l3.16,7.87,3.17-7.87h2.4l-4.68,11.53H236l-3.24-8.1-3.24,8.1h-1.61l-4.69-11.53h2.4l3.17,7.87,3.16-7.87Z"/><path d="M245.12,169.05a3.72,3.72,0,0,0,3.73,3.49,4.16,4.16,0,0,0,3.31-1.57l1.52,1.44a6,6,0,0,1-4.85,2.16,5.86,5.86,0,0,1-6-6c0-3.46,2.35-6,5.61-6s5.54,2.6,5.54,6c0,.1,0,.27,0,.49Zm.2-2h6.28a3.23,3.23,0,0,0-3-2.5A3.35,3.35,0,0,0,245.32,167.09Z"/><path d="M256.7,171.26a5.63,5.63,0,0,0,3.41,1.28c1,0,2-.54,2-1.45,0-1.33-1.91-1.4-3.61-2-1.4-.47-2.65-1.35-2.65-3,0-2.48,2.21-3.61,4.27-3.61a5.86,5.86,0,0,1,3.83,1.28l-1.2,1.67a4.12,4.12,0,0,0-2.48-.91c-1.13,0-2.09.54-2.09,1.45s.91,1.05,2.06,1.35c1.82.46,4.2,1.27,4.2,3.65,0,2.18-2,3.53-4.29,3.53A7.18,7.18,0,0,1,255.5,173Z"/><path d="M272.12,162.55a6,6,0,1,1-6,6A5.84,5.84,0,0,1,272.12,162.55Zm0,9.81a3.8,3.8,0,1,0-3.63-3.8A3.63,3.63,0,0,0,272.12,172.36Z"/><path d="M282.92,162.8v1.1a5,5,0,0,1,3.38-1.35,5.21,5.21,0,0,1,4.07,1.92,5.77,5.77,0,0,1,4.39-1.92,5.24,5.24,0,0,1,4.1,1.94,5.86,5.86,0,0,1,1.05,3.95v5.89h-2.33v-6.26a3.25,3.25,0,0,0-.66-2.3,2.82,2.82,0,0,0-2.16-1,4.75,4.75,0,0,0-3.51,1.64,9.13,9.13,0,0,1,.2,2v5.89h-2.33v-6.26a3.3,3.3,0,0,0-.66-2.3,2.93,2.93,0,0,0-2.23-1A4.39,4.39,0,0,0,283,166.4v7.93h-2.33V162.8Z"/><path d="M304.5,169.05a3.71,3.71,0,0,0,3.73,3.49,4.19,4.19,0,0,0,3.31-1.57l1.52,1.44a6,6,0,0,1-4.86,2.16,5.86,5.86,0,0,1-6-6c0-3.46,2.36-6,5.62-6s5.54,2.6,5.54,6c0,.1,0,.27,0,.49Zm.19-2H311a3.22,3.22,0,0,0-3-2.5A3.37,3.37,0,0,0,304.69,167.09Z"/></g></svg>