<svg xmlns="http://www.w3.org/2000/svg" viewBox="0 0 382 186"><defs><style>.cls-1{fill:#fff;}.cls-2{fill:#e2f3f5;}.cls-3{fill:#00d6ca;}.cls-4{fill:none;stroke:#5a5a5c;stroke-miterlimit:10;stroke-width:0.5px;}</style></defs><title>BrandHub-VectorGraphics</title><g id="Vector"><rect class="cls-1" x="-0.17" y="0.33" width="382" height="186"/><rect class="cls-2" x="34.16" y="31.96" width="314.46" height="123.44"/><path class="cls-3" d="M186.55,32.23V44.91h2.56v-8.7a4,4,0,0,1,3.36-1.82c1.89,0,3.18,1.19,3.18,3.58v5.72a1.16,1.16,0,0,0,1.19,1.22h1.37V37.52c0-3.28-2.09-5.56-5.12-5.56a5.73,5.73,0,0,0-4,1.51V32.23Z"/><path class="cls-3" d="M186.55,142.72v12.67h2.56v-8.7a4,4,0,0,1,3.36-1.81c1.89,0,3.18,1.19,3.18,3.58v5.71a1.15,1.15,0,0,0,1.19,1.22h1.37V148c0-3.28-2.09-5.57-5.12-5.57a5.69,5.69,0,0,0-4,1.52v-1.24Z"/><path class="cls-3" d="M34.43,100.33H47.11V97.77h-8.7a4,4,0,0,1-1.81-3.35c0-1.89,1.19-3.18,3.58-3.18h5.71A1.16,1.16,0,0,0,47.11,90V88.68H39.73c-3.28,0-5.57,2.08-5.57,5.12a5.68,5.68,0,0,0,1.52,4H34.43Z"/><path class="cls-3" d="M348.34,88.68H335.67v2.56h8.7a4,4,0,0,1,1.81,3.35c0,1.89-1.19,3.18-3.58,3.18h-5.72a1.15,1.15,0,0,0-1.21,1.2v1.36h7.38c3.28,0,5.57-2.08,5.57-5.12a5.68,5.68,0,0,0-1.52-4h1.24Z"/><rect class="cls-1" x="47.43" y="45.2" width="288.12" height="97.24"/><path d="M79.64,94.32l18.1-24.26H90.18a8.37,8.37,0,0,0-7.36,3.58L73.28,86.46,64,73.64a8.36,8.36,0,0,0-7.35-3.58H49.12L67,94.32,47.43,120.77h7.16a8.37,8.37,0,0,0,7.35-3.58l11.34-15,26.55,36.69a8.24,8.24,0,0,0,7.35,3.58h7.76Zm144.87,26.45h10.24V70.06H224.51Zm-81.23,0h10.24V70.06H143.28Zm155.3,17.89,37.09-68.6H330.1c-3.38,0-6,1-7.36,3.58l-14.61,27.14L295.5,73.64c-1.29-2.69-4-3.58-7.36-3.58h-5.37l19.49,41.36-17,31h5.57C294.31,142.44,297.09,141.35,298.58,138.66ZM165.75,70.06v50.71H176V86a16.1,16.1,0,0,1,13.42-7.26c7.56,0,12.73,4.77,12.73,14.32V115.9a4.62,4.62,0,0,0,4.77,4.87h5.47V91.24C212.38,78.11,204,69,191.9,69A22.82,22.82,0,0,0,176,75v-5Zm88,32.71c0,11,6.76,18.89,18.89,18.89a26.32,26.32,0,0,0,7.46-1l-2.09-9a20.87,20.87,0,0,1-4.67.5c-5,0-9.35-2.69-9.35-9.65V79.21H278.3l-4.18-9.15H264V49.68l-10.24,4.47V70.06H242.9v9.15h10.84Zm-142-23.56v41.56H122V79.21h13.12V70.06H122V66.28c0-8.65,5.17-11.53,10.24-11.53a12.54,12.54,0,0,1,3.48.49l2.09-9a17.85,17.85,0,0,0-6.37-1c-12.72,0-19.68,9.45-19.68,20.88v4h-5.37l-6.46,9.15Z"/><line class="cls-4" x1="47.43" y1="185.74" x2="47.43"/><line class="cls-4" x1="0.5" y1="45.2" x2="381.5" y2="45.2"/><line class="cls-4" x1="0.5" y1="142.44" x2="381.5" y2="142.44"/><line class="cls-4" x1="335.55" y1="0.14" x2="335.55" y2="185.61"/></g></svg>