<svg xmlns="http://www.w3.org/2000/svg" viewBox="0 0 382 220"><defs><style>.cls-1{fill:#fff;}.cls-2{fill:#e2f3f5;}.cls-3{fill:#00d6ca;}.cls-4{fill:none;stroke:#5a5a5c;stroke-miterlimit:10;stroke-width:0.5px;}</style></defs><title>BrandHub-VectorGraphics</title><g id="Vector"><rect class="cls-1" width="382" height="220"/><rect class="cls-2" x="34.36" y="32.13" width="314.46" height="155.52"/><path class="cls-3" d="M186.75,32.41V45.08h2.56v-8.7a4,4,0,0,1,3.36-1.81c1.89,0,3.18,1.19,3.18,3.58v5.71A1.15,1.15,0,0,0,197,45.08h1.37V37.7c0-3.28-2.09-5.57-5.12-5.57a5.69,5.69,0,0,0-4,1.52V32.41Z"/><path class="cls-3" d="M186.75,175v12.68h2.56V179a4,4,0,0,1,3.36-1.81c1.89,0,3.18,1.19,3.18,3.58v5.71a1.16,1.16,0,0,0,1.19,1.22h1.37v-7.38c0-3.28-2.09-5.57-5.12-5.57a5.69,5.69,0,0,0-4,1.52V175Z"/><path class="cls-3" d="M34.63,115.6H47.31V113h-8.7a4,4,0,0,1-1.81-3.36c0-1.89,1.19-3.18,3.58-3.18h5.71a1.16,1.16,0,0,0,1.22-1.19v-1.37H39.93c-3.28,0-5.57,2.09-5.57,5.12a5.69,5.69,0,0,0,1.52,4H34.63Z"/><path class="cls-3" d="M348.54,103.94H335.87v2.56h8.7a4,4,0,0,1,1.81,3.36c0,1.88-1.19,3.18-3.58,3.18h-5.71a1.15,1.15,0,0,0-1.22,1.19v1.37h7.38c3.28,0,5.57-2.09,5.57-5.12a5.69,5.69,0,0,0-1.52-4h1.24Z"/><rect class="cls-1" x="47.63" y="45.13" width="288.12" height="129.57"/><line class="cls-4" x1="47.63" y1="219.78" x2="47.63"/><line class="cls-4" x1="0.5" y1="45.13" x2="381.68" y2="45.13"/><line class="cls-4" x1="0.5" y1="174.7" x2="381.68" y2="174.7"/><line class="cls-4" x1="335.75" y1="219.78" x2="335.75"/><path d="M79.55,94.34,97.66,70.06H90.09a8.37,8.37,0,0,0-7.36,3.58L73.18,86.48,63.93,73.64a8.38,8.38,0,0,0-7.37-3.58H49L66.91,94.34,47.31,120.8h7.16a8.38,8.38,0,0,0,7.37-3.58l11.34-15,26.57,36.71a8.26,8.26,0,0,0,7.36,3.58h7.76Zm145,26.46h10.24V70.06H224.52Zm-81.29,0h10.24V70.06H143.23Zm155.41,17.91,37.11-68.65h-5.57c-3.38,0-6,1-7.36,3.58l-14.63,27.17L295.56,73.64c-1.3-2.68-4-3.58-7.37-3.58h-5.37l19.5,41.39-17,31h5.57C294.36,142.49,297.15,141.4,298.64,138.71ZM165.71,70.06V120.8H176V86a16.12,16.12,0,0,1,13.43-7.26c7.56,0,12.74,4.77,12.74,14.32v22.89a4.62,4.62,0,0,0,4.77,4.87h5.48V91.25C212.38,78.12,204,69,191.88,69A22.82,22.82,0,0,0,176,75v-5Zm88.06,32.73c0,11,6.76,18.91,18.9,18.91a25.88,25.88,0,0,0,7.46-1l-2.09-9a20.87,20.87,0,0,1-4.67.5c-5,0-9.35-2.69-9.35-9.65V79.21h14.32l-4.18-9.15H264V49.66l-10.25,4.48V70.06H242.92v9.15h10.85ZM111.69,79.21V120.8h10.24V79.21h13.14V70.06H121.93V66.28c0-8.66,5.18-11.54,10.25-11.54a12.11,12.11,0,0,1,3.48.5l2.09-9.06a17.84,17.84,0,0,0-6.36-1c-12.74,0-19.7,9.45-19.7,20.89v4h-5.38l-6.46,9.15Z"/><path d="M73.3,174.45a6.22,6.22,0,0,1-1.81.25,4.16,4.16,0,0,1-3.26-1.35,4.38,4.38,0,0,1-.93-3.06V165h-3v-2.08h3v-3.19h2.33v3.19H73.3V165H69.63v5.4a2.2,2.2,0,0,0,.34,1.47,2.15,2.15,0,0,0,1.59.61,6.12,6.12,0,0,0,1.28-.14Z"/><path d="M78.21,163.93a5.23,5.23,0,0,1,3.38-1.25,5.32,5.32,0,0,1,4.2,2,6.17,6.17,0,0,1,1.13,4.09v5.64H84.59v-5.76A3.86,3.86,0,0,0,83.9,166a3,3,0,0,0-2.38-1.13,4.28,4.28,0,0,0-3.31,1.64v7.92H75.88V157h2.33Z"/><path d="M91.5,169.18a3.71,3.71,0,0,0,3.73,3.48,4.13,4.13,0,0,0,3.31-1.57l1.52,1.45a6,6,0,0,1-4.85,2.16,5.86,5.86,0,0,1-6-6c0-3.46,2.35-6,5.61-6s5.55,2.6,5.55,6a3.43,3.43,0,0,1,0,.49Zm.2-2H98a3.23,3.23,0,0,0-3-2.5A3.34,3.34,0,0,0,91.7,167.22Z"/><path d="M115.61,159.1a3.69,3.69,0,0,0-.86-.1,2.28,2.28,0,0,0-1.76.81,3.29,3.29,0,0,0-.44,2.06v1.06h3.55V165h-3.55v9.44h-2.33V165h-2.7v-2.08h2.7v-1a5.43,5.43,0,0,1,.73-3.24,4.53,4.53,0,0,1,3.78-1.91,5.27,5.27,0,0,1,1.37.17Z"/><path d="M118.63,172.76a5.86,5.86,0,0,1-1.06-3.95v-5.88h2.33v6.25a3.26,3.26,0,0,0,.67,2.31,2.93,2.93,0,0,0,2.23,1,4.39,4.39,0,0,0,3.23-1.64v-7.92h2.33v11.52h-2.25v-1a5.19,5.19,0,0,1-7.48-.64Z"/><path d="M139,174.45a6.22,6.22,0,0,1-1.81.25,4.16,4.16,0,0,1-3.26-1.35,4.39,4.39,0,0,1-.94-3.06V165h-2.94v-2.08H133v-3.19h2.33v3.19H139V165h-3.68v5.4a2.2,2.2,0,0,0,.35,1.47,2.15,2.15,0,0,0,1.59.61,6.27,6.27,0,0,0,1.28-.14Z"/><path d="M142.42,172.76a5.86,5.86,0,0,1-1.06-3.95v-5.88h2.33v6.25a3.26,3.26,0,0,0,.67,2.31,2.93,2.93,0,0,0,2.23,1,4.39,4.39,0,0,0,3.23-1.64v-7.92h2.33v11.52H149.9v-1a5.19,5.19,0,0,1-7.48-.64Z"/><path d="M162.06,165a3.06,3.06,0,0,0-.9-.1,3.85,3.85,0,0,0-3.12,1.94v7.62h-2.33V162.93H158v1.32a4.22,4.22,0,0,1,3.46-1.57,5.78,5.78,0,0,1,.9.08Z"/><path d="M165.32,169.18a3.72,3.72,0,0,0,3.73,3.48,4.13,4.13,0,0,0,3.31-1.57l1.52,1.45A6,6,0,0,1,169,174.7a5.86,5.86,0,0,1-6-6c0-3.46,2.35-6,5.61-6s5.55,2.6,5.55,6a3.43,3.43,0,0,1,0,.49Zm.2-2h6.28a3.22,3.22,0,0,0-3-2.5A3.34,3.34,0,0,0,165.52,167.22Z"/><path d="M187.79,162.68a6,6,0,1,1-6,6A5.84,5.84,0,0,1,187.79,162.68Zm0,9.81a3.8,3.8,0,1,0-3.63-3.8A3.63,3.63,0,0,0,187.79,172.49Z"/><path d="M202.82,159.1a3.59,3.59,0,0,0-.85-.1,2.28,2.28,0,0,0-1.77.81,3.29,3.29,0,0,0-.44,2.06v1.06h3.55V165h-3.55v9.44h-2.33V165h-2.7v-2.08h2.7v-1a5.35,5.35,0,0,1,.74-3.24,4.5,4.5,0,0,1,3.77-1.91,5.21,5.21,0,0,1,1.37.17Z"/><path d="M219.7,173.4a5.32,5.32,0,0,1-3.56,1.3,5.84,5.84,0,0,1-2.89-.76,6,6,0,0,1-2.95-5.25,6.1,6.1,0,0,1,3-5.27,5.7,5.7,0,0,1,6.43.56v-1H222v11.52H219.7Zm-.08-6.87a4.14,4.14,0,0,0-3.28-1.64,3.69,3.69,0,0,0-3.7,3.8,3.76,3.76,0,0,0,3.82,3.8,4,4,0,0,0,3.16-1.64Z"/><path d="M234,162.93l3.16,7.87,3.17-7.87h2.4l-4.68,11.52h-1.62l-3.24-8.09L230,174.45h-1.61l-4.69-11.52h2.4l3.17,7.87,3.16-7.87Z"/><path d="M245.62,169.18a3.71,3.71,0,0,0,3.73,3.48,4.13,4.13,0,0,0,3.31-1.57l1.52,1.45a6,6,0,0,1-4.85,2.16,5.86,5.86,0,0,1-6-6c0-3.46,2.35-6,5.61-6s5.54,2.6,5.54,6c0,.1,0,.27,0,.49Zm.2-2h6.28a3.23,3.23,0,0,0-3-2.5A3.34,3.34,0,0,0,245.82,167.22Z"/><path d="M257.2,171.39a5.62,5.62,0,0,0,3.41,1.27c1,0,2-.54,2-1.44,0-1.33-1.91-1.4-3.61-2-1.4-.47-2.65-1.35-2.65-3,0-2.48,2.21-3.61,4.27-3.61a5.86,5.86,0,0,1,3.83,1.28l-1.2,1.67a4.12,4.12,0,0,0-2.48-.91c-1.13,0-2.09.54-2.09,1.44s.91,1.06,2.06,1.35c1.82.47,4.2,1.28,4.2,3.66,0,2.18-2,3.53-4.29,3.53a7.18,7.18,0,0,1-4.66-1.59Z"/><path d="M272.62,162.68a6,6,0,1,1-6,6A5.84,5.84,0,0,1,272.62,162.68Zm0,9.81a3.8,3.8,0,1,0-3.63-3.8A3.63,3.63,0,0,0,272.62,172.49Z"/><path d="M283.42,162.93V164a5,5,0,0,1,3.38-1.35,5.21,5.21,0,0,1,4.07,1.92,5.77,5.77,0,0,1,4.39-1.92,5.24,5.24,0,0,1,4.1,1.94,5.86,5.86,0,0,1,1.05,3.95v5.88h-2.33V168.2a3.24,3.24,0,0,0-.66-2.3,2.82,2.82,0,0,0-2.16-1,4.75,4.75,0,0,0-3.51,1.64,9.13,9.13,0,0,1,.2,2v5.88h-2.33V168.2a3.28,3.28,0,0,0-.66-2.3,2.93,2.93,0,0,0-2.23-1,4.39,4.39,0,0,0-3.24,1.64v7.92h-2.33V162.93Z"/><path d="M305,169.18a3.7,3.7,0,0,0,3.73,3.48,4.17,4.17,0,0,0,3.31-1.57l1.52,1.45a6,6,0,0,1-4.86,2.16,5.86,5.86,0,0,1-6-6c0-3.46,2.36-6,5.62-6s5.54,2.6,5.54,6c0,.1,0,.27,0,.49Zm.19-2h6.28a3.22,3.22,0,0,0-3-2.5A3.36,3.36,0,0,0,305.19,167.22Z"/></g></svg>