<svg id="Layer_1" data-name="Layer 1" xmlns="http://www.w3.org/2000/svg" viewBox="0 0 563 211"><defs><style>.cls-1{fill:#1c1b1a;}.cls-2{fill:#030303;}.cls-3,.cls-4{fill:none;stroke:#030303;stroke-miterlimit:10;}.cls-3{stroke-width:1.5px;}.cls-4{stroke-width:3px;}</style></defs><title>Xfinity-Olympics-K</title><path class="cls-1" d="M42.9,110.59,64.76,81.28H55.63a10.14,10.14,0,0,0-8.89,4.32L35.21,101.1,24,85.6a10.11,10.11,0,0,0-8.88-4.32H6l21.62,29.31L4,142.54h8.65a10.1,10.1,0,0,0,8.89-4.33l13.69-18.13L67.28,164.4c2,2.88,4.81,4.32,8.89,4.32h9.37Zm175,31.95h12.38V81.28H217.9Zm-98.13,0h12.37V81.28H119.77Zm187.62,21.62,44.8-82.88h-6.73c-4.08,0-7.2,1.2-8.89,4.32l-17.65,32.8L303.66,85.6c-1.56-3.24-4.8-4.32-8.88-4.32h-6.49l23.54,50-20.54,37.47H298C302.22,168.72,305.59,167.4,307.39,164.16ZM146.92,81.28v61.26h12.37v-42c3.84-5.41,9.37-8.77,16.21-8.77,9.13,0,15.38,5.77,15.38,17.3v27.62a5.58,5.58,0,0,0,5.76,5.89h6.61V106.86C203.25,91,193.16,80,178.51,80a27.57,27.57,0,0,0-19.22,7.33v-6Zm106.3,39.52c0,13.33,8.16,22.82,22.82,22.82a31.54,31.54,0,0,0,9-1.2l-2.53-10.81a25.38,25.38,0,0,1-5.64.6c-6,0-11.29-3.24-11.29-11.65V92.33h17.29l-5-11H265.59V56.66l-12.37,5.4V81.28h-13.1v11h13.1ZM81.7,92.33v50.21H94.07V92.33h15.85v-11H94.07V76.72c0-10.45,6.24-13.94,12.37-13.94a14.77,14.77,0,0,1,4.2.6l2.53-10.93a21.67,21.67,0,0,0-7.69-1.2C90.1,51.25,81.7,62.66,81.7,76.48v4.8H75.21l-7.81,11Z"/><rect class="cls-2" x="419.33" y="105.6" width="133.72" height="5.41"/><path class="cls-2" d="M552.56,73.12H472.82V67.71h79.74V62.29H472.82V56.88h79.74V51.47H472.82V46.05h79.74V40.64H419.33V78.53H552.56ZM425.2,76.71l-1.27-.93-1.27.93.49-1.5-1.28-.92h1.58l.48-1.5.49,1.5H426l-1.27.92Zm-.48-9.08.48,1.5-1.27-.93-1.27.93.49-1.5-1.27-.92h1.57l.48-1.5.49,1.5H426Zm0-7.58.48,1.49-1.27-.92-1.27.92.49-1.49-1.28-.92h1.58l.48-1.5.49,1.5H426Zm0-7.58L425.2,54,423.93,53l-1.27.92.49-1.49-1.28-.93h1.58l.48-1.49.49,1.49H426Zm0-7.59.48,1.5-1.27-.93-1.27.93.49-1.5L421.87,44h1.58l.48-1.49.49,1.49H426Zm4.91,28L428.36,72l-1.27.93.48-1.5-1.27-.92h1.57l.49-1.49.48,1.49h1.58l-1.27.92Zm-.48-9.08.48,1.5-1.27-.93-1.27.93.48-1.5-1.27-.92h1.58l.48-1.5.49,1.5h1.57Zm0-7.58.48,1.49-1.27-.92-1.27.92.48-1.49-1.27-.93h1.58l.48-1.49.49,1.49h1.57Zm0-7.59.48,1.5-1.27-.92-1.27.92.48-1.5-1.27-.92h1.58l.48-1.49.49,1.49h1.57Zm4.91,28-1.27-.93-1.27.93.48-1.5-1.27-.92h1.57l.49-1.5.48,1.5h1.58l-1.28.92Zm-.49-9.08.49,1.5-1.27-.93-1.27.93.48-1.5-1.27-.92h1.57l.49-1.5.48,1.5h1.58Zm0-7.58.49,1.49-1.27-.92-1.27.92.48-1.49-1.27-.92h1.57l.49-1.5.48,1.5h1.58Zm0-7.58.49,1.49L432.79,53l-1.27.92.48-1.49-1.27-.93h1.57l.49-1.49.48,1.49h1.58Zm0-7.59.49,1.5-1.27-.93-1.27.93.48-1.5L430.73,44h1.57l.49-1.49.48,1.49h1.58Zm4.92,28L437.22,72l-1.28.93.49-1.5-1.27-.92h1.57l.49-1.49.48,1.49h1.57l-1.27.92ZM438,63.84l.49,1.5-1.27-.93-1.28.93.49-1.5-1.27-.92h1.57l.49-1.5.48,1.5h1.58Zm0-7.58.49,1.49-1.27-.92-1.28.92.49-1.49-1.27-.93h1.57l.49-1.49.48,1.49h1.58Zm0-7.59.49,1.5-1.27-.92-1.28.92.49-1.5-1.27-.92h1.57l.49-1.49.48,1.49h1.58Zm4.92,28-1.28-.93-1.27.93.49-1.5-1.27-.92h1.57l.48-1.5.49,1.5h1.57l-1.27.92Zm-.49-9.08.49,1.5-1.28-.93-1.27.93.49-1.5-1.27-.92h1.57l.48-1.5.49,1.5h1.57Zm0-7.58.49,1.49-1.28-.92-1.27.92.49-1.49-1.27-.92h1.57l.48-1.5.49,1.5h1.57Zm0-7.58.49,1.49L441.64,53l-1.27.92.49-1.49-1.27-.93h1.57l.48-1.49.49,1.49h1.57Zm0-7.59.49,1.5-1.28-.93-1.27.93.49-1.5L439.59,44h1.57l.48-1.49.49,1.49h1.57Zm4.91,28L446.07,72l-1.27.93.49-1.5L444,70.5h1.57l.49-1.49.49,1.49h1.57l-1.27.92Zm-.48-9.08.48,1.5-1.27-.93-1.27.93.49-1.5L444,62.92h1.57l.49-1.5.49,1.5h1.57Zm0-7.58.48,1.49-1.27-.92-1.27.92.49-1.49L444,55.33h1.57l.49-1.49.49,1.49h1.57Zm0-7.59.48,1.5-1.27-.92-1.27.92.49-1.5L444,47.75h1.57l.49-1.49.49,1.49h1.57Zm4.91,28-1.27-.93-1.27.93.48-1.5-1.27-.92H450l.48-1.5.49,1.5h1.57l-1.27.92Zm-.48-9.08.48,1.5-1.27-.93-1.27.93.48-1.5-1.27-.92H450l.48-1.5.49,1.5h1.57Zm0-7.58.48,1.49-1.27-.92-1.27.92.48-1.49-1.27-.92H450l.48-1.5.49,1.5h1.57Zm0-7.58.48,1.49L450.5,53l-1.27.92.48-1.49-1.27-.93H450l.48-1.49.49,1.49h1.57Zm0-7.59.48,1.5-1.27-.93-1.27.93.48-1.5L448.44,44H450l.48-1.49L451,44h1.57Zm4.91,28L454.93,72l-1.28.93.49-1.5-1.27-.92h1.57l.49-1.49.48,1.49H457l-1.28.92Zm-.49-9.08.49,1.5-1.27-.93-1.28.93.49-1.5-1.27-.92h1.57l.49-1.5.48,1.5H457Zm0-7.58.49,1.49-1.27-.92-1.28.92.49-1.49-1.27-.93h1.57l.49-1.49.48,1.49H457Zm0-7.59.49,1.5-1.27-.92-1.28.92.49-1.5-1.27-.92h1.57l.49-1.49.48,1.49H457Zm4.92,28-1.28-.93-1.27.93.49-1.5-1.27-.92h1.57l.48-1.5.49,1.5h1.57l-1.27.92Zm-.49-9.08.49,1.5-1.27-.93-1.28.93.49-1.5-1.27-.92h1.57l.48-1.5.49,1.5h1.57Zm0-7.58.49,1.49-1.27-.92-1.28.92.49-1.49-1.27-.92h1.57l.48-1.5.49,1.5h1.57Zm0-7.58.49,1.49L459.36,53l-1.28.92.49-1.49-1.27-.93h1.57l.48-1.49.49,1.49h1.57Zm0-7.59.49,1.5-1.27-.93-1.28.93.49-1.5L457.3,44h1.57l.48-1.49.49,1.49h1.57Zm4.92,28L463.78,72l-1.27.93.49-1.5-1.27-.92h1.57l.48-1.49.49,1.49h1.57l-1.27.92Zm-.49-9.08.49,1.5-1.28-.93-1.27.93.49-1.5-1.27-.92h1.57l.48-1.5.49,1.5h1.57Zm0-7.58.49,1.49-1.28-.92-1.27.92.49-1.49-1.27-.93h1.57l.48-1.49.49,1.49h1.57Zm0-7.59.49,1.5-1.28-.92-1.27.92.49-1.5-1.27-.92h1.57l.48-1.49.49,1.49h1.57Zm4.91,28-1.27-.93-1.27.93.48-1.5-1.27-.92h1.58l.48-1.5.49,1.5h1.57l-1.27.92ZM469,67.63l.48,1.5-1.27-.93-1.27.93.48-1.5-1.27-.92h1.58l.48-1.5.49,1.5h1.57Zm0-7.58.48,1.49-1.27-.92-1.27.92.48-1.49-1.27-.92h1.58l.48-1.5.49,1.5h1.57Zm0-7.58.48,1.49L468.21,53l-1.27.92.48-1.49-1.27-.93h1.58l.48-1.49.49,1.49h1.57Zm0-7.59.48,1.5-1.27-.93-1.27.93.48-1.5L466.15,44h1.58l.48-1.49L468.7,44h1.57Z"/><rect class="cls-2" x="419.33" y="83.95" width="133.72" height="5.41"/><rect class="cls-2" x="419.33" y="94.77" width="133.72" height="5.41"/><path class="cls-2" d="M543.7,129.08a19.49,19.49,0,0,0-13.87-5.74h0a19.65,19.65,0,0,0-19.43,16.92,19.57,19.57,0,0,0-2.43-.15h0a20.31,20.31,0,0,0-2.35.14,19.61,19.61,0,0,0-19.43-16.91h0a19.65,19.65,0,0,0-19.43,16.92,19.57,19.57,0,0,0-2.43-.15h0a20.18,20.18,0,0,0-2.35.14,19.61,19.61,0,0,0-19.43-16.91h0a19.61,19.61,0,1,0,0,39.22,20.18,20.18,0,0,0,2.35-.14,19.62,19.62,0,0,0,38.86,0,19.57,19.57,0,0,0,2.43.15,20.48,20.48,0,0,0,2.36-.14,19.61,19.61,0,0,0,38.85,0,21.57,21.57,0,0,0,2.43.15,19.62,19.62,0,0,0,13.87-33.48ZM442.55,159.15a16.2,16.2,0,1,1,0-32.4h0A16.19,16.19,0,0,1,458.63,141,19.66,19.66,0,0,0,444.73,159a15.65,15.65,0,0,1-2.18.15Zm16.12-14.61a16.23,16.23,0,0,1-10.47,13.59A16.25,16.25,0,0,1,458.67,144.54Zm5.66,31.38h0a16.23,16.23,0,0,1-16.08-14.2,19.67,19.67,0,0,0,13.9-18.05,15.65,15.65,0,0,1,2.18-.15h0a16.81,16.81,0,0,1,2.26.16,19.67,19.67,0,0,0,13.82,18A16.22,16.22,0,0,1,464.33,175.92Zm5.74-31.36a16.23,16.23,0,0,1,10.39,13.54A16.21,16.21,0,0,1,470.07,144.56Zm16.12,14.59a16.81,16.81,0,0,1-2.26-.16,19.63,19.63,0,0,0-13.82-18,16.23,16.23,0,0,1,16.08-14.22h0A16.16,16.16,0,0,1,502.26,141a19.65,19.65,0,0,0-13.89,18,15.65,15.65,0,0,1-2.18.15Zm16.12-14.61a16.24,16.24,0,0,1-10.46,13.59A16.24,16.24,0,0,1,502.31,144.54ZM508,175.92h0a16.23,16.23,0,0,1-16.08-14.2,19.67,19.67,0,0,0,13.9-18.05,15.65,15.65,0,0,1,2.18-.15h0a16.81,16.81,0,0,1,2.26.16,19.67,19.67,0,0,0,13.82,18A16.22,16.22,0,0,1,508,175.92Zm5.74-31.36a16.21,16.21,0,0,1,10.38,13.54A16.22,16.22,0,0,1,513.71,144.56Zm16.12,14.59h0a16.81,16.81,0,0,1-2.26-.16,19.63,19.63,0,0,0-13.82-18,16.23,16.23,0,0,1,16.08-14.22h0a16.2,16.2,0,0,1,0,32.4Z"/><rect class="cls-3" x="419.33" y="40.64" width="133.72" height="70.37"/><line class="cls-4" x1="385.76" y1="25.44" x2="385.76" y2="182.8"/></svg>