<svg xmlns="http://www.w3.org/2000/svg" viewBox="0 0 106 20"><defs><style>.cls-1{fill:#fff;}</style></defs><title>BrandHub-VectorGraphics</title><g id="Vector"><rect class="cls-1" x="-0.82" y="-1.98" width="108.03" height="24.1"/><path d="M7.27,10.09,10.62,5.6H9.22a1.55,1.55,0,0,0-1.36.66L6.09,8.64,4.38,6.26A1.54,1.54,0,0,0,3,5.6H1.62l3.31,4.49L1.31,15H2.63A1.54,1.54,0,0,0,4,14.33l2.1-2.78L11,18.34a1.52,1.52,0,0,0,1.36.66H13.8ZM34.09,15H36V5.6H34.09Zm-15,0H21V5.6h-1.9ZM47.8,18.3,54.66,5.6h-1a1.42,1.42,0,0,0-1.36.66l-2.7,5-2.34-5a1.37,1.37,0,0,0-1.36-.66h-1l3.61,7.66L45.33,19h1A1.51,1.51,0,0,0,47.8,18.3ZM23.21,5.6V15h1.9V8.55A3,3,0,0,1,27.59,7.2C29,7.2,30,8.09,30,9.85v4.24a.85.85,0,0,0,.88.9h1V9.52c0-2.43-1.54-4.12-3.79-4.12a4.2,4.2,0,0,0-2.94,1.12V5.6ZM39.5,11.66A3.25,3.25,0,0,0,43,15.15,4.89,4.89,0,0,0,44.38,15L44,13.31a3.69,3.69,0,0,1-.87.09,1.6,1.6,0,0,1-1.73-1.78V7.29H44L43.27,5.6H41.39V1.83l-1.89.83V5.6h-2V7.29h2ZM13.22,7.29V15h1.89V7.29h2.43V5.6H15.11V4.9c0-1.6,1-2.13,1.9-2.13a2.06,2.06,0,0,1,.64.09L18,1.18A3.41,3.41,0,0,0,16.86,1a3.56,3.56,0,0,0-3.64,3.87V5.6h-1L11,7.29Z"/></g></svg>