<svg xmlns="http://www.w3.org/2000/svg" viewBox="0 0 106 20"><defs><style>.cls-1{fill:#fff;}.cls-2{fill:#c8001d;}.cls-3{fill:#58595b;}</style></defs><title>BrandHub-VectorGraphics</title><g id="Vector"><rect class="cls-1" x="-1.38" y="-1.98" width="108.03" height="24.1"/><path class="cls-2" d="M6,7.88,8.48,4.5H7.43a1.17,1.17,0,0,0-1,.5L5.09,6.79,3.8,5a1.15,1.15,0,0,0-1-.5h-1L4.22,7.88,1.5,11.56h1a1.15,1.15,0,0,0,1-.5L5.09,9l3.68,5.1a1.14,1.14,0,0,0,1,.5h1.08Zm20.09,3.68h1.43V4.5H26.06Zm-11.26,0h1.42V4.5H14.8ZM36.34,14,41.48,4.5h-.77a1,1,0,0,0-1,.5l-2,3.78L35.91,5a1,1,0,0,0-1-.5h-.74l2.7,5.76-2.36,4.31h.77A1.12,1.12,0,0,0,36.34,14ZM17.91,4.5v7.06h1.42V6.72a2.24,2.24,0,0,1,1.87-1c1,0,1.76.66,1.76,2v3.18a.65.65,0,0,0,.66.68h.76V7.45a2.84,2.84,0,0,0-2.84-3.1,3.2,3.2,0,0,0-2.21.84V4.5ZM30.12,9.05a2.44,2.44,0,0,0,2.62,2.63,3.66,3.66,0,0,0,1-.14l-.28-1.24a3,3,0,0,1-.65.07A1.21,1.21,0,0,1,31.54,9V5.78h2L33,4.5H31.54V1.67l-1.42.62V4.5h-1.5V5.78h1.5ZM10.42,5.78v5.78h1.42V5.78h1.83V4.5H11.84V4c0-1.21.72-1.61,1.43-1.61a1.79,1.79,0,0,1,.48.07L14,1.18a2.78,2.78,0,0,0-.89-.13A2.67,2.67,0,0,0,10.42,4V4.5H9.68l-.9,1.28Z"/><path class="cls-3" d="M5.1,19a.87.87,0,0,1-.25,0,.59.59,0,0,1-.45-.19.6.6,0,0,1-.13-.43V17.7H3.86v-.29h.41V17h.32v.44H5.1v.29H4.59v.75a.28.28,0,0,0,0,.2.29.29,0,0,0,.22.09l.18,0Z"/><path class="cls-3" d="M5.78,17.55a.71.71,0,0,1,.47-.17.73.73,0,0,1,.58.28.81.81,0,0,1,.16.57V19H6.67v-.8a.53.53,0,0,0-.1-.37.41.41,0,0,0-.33-.16.62.62,0,0,0-.46.23V19H5.46V16.59h.32Z"/><path class="cls-3" d="M7.63,18.28a.5.5,0,0,0,.51.48.57.57,0,0,0,.46-.21l.21.2a.84.84,0,0,1-.67.3.82.82,0,0,1-.83-.84.78.78,0,1,1,1.55,0v.07Zm0-.27h.87a.44.44,0,0,0-.42-.35A.47.47,0,0,0,7.65,18Z"/><path class="cls-3" d="M11,16.88l-.12,0a.35.35,0,0,0-.25.12.48.48,0,0,0-.06.28v.15H11v.29h-.5V19h-.32V17.7H9.85v-.29h.37v-.14a.79.79,0,0,1,.1-.45.65.65,0,0,1,.53-.26l.19,0Z"/><path class="cls-3" d="M11.39,18.78a.82.82,0,0,1-.15-.55v-.82h.32v.87a.51.51,0,0,0,.09.32.41.41,0,0,0,.31.14.6.6,0,0,0,.45-.23v-1.1h.33V19h-.32v-.14a.77.77,0,0,1-.47.18A.74.74,0,0,1,11.39,18.78Z"/><path class="cls-3" d="M14.21,19a.82.82,0,0,1-.25,0,.59.59,0,0,1-.45-.19.65.65,0,0,1-.13-.43V17.7H13v-.29h.41V17h.32v.44h.51v.29H13.7v.75a.28.28,0,0,0,.05.2.29.29,0,0,0,.22.09l.18,0Z"/><path class="cls-3" d="M14.68,18.78a.89.89,0,0,1-.14-.55v-.82h.32v.87a.45.45,0,0,0,.09.32.4.4,0,0,0,.31.14.6.6,0,0,0,.45-.23v-1.1H16V19h-.31v-.14a.77.77,0,0,1-.47.18A.76.76,0,0,1,14.68,18.78Z"/><path class="cls-3" d="M17.41,17.7l-.13,0a.54.54,0,0,0-.43.27V19h-.32v-1.6h.31v.18a.6.6,0,0,1,.48-.21h.12Z"/><path class="cls-3" d="M17.86,18.28a.52.52,0,0,0,.52.48.61.61,0,0,0,.46-.21l.21.2a.86.86,0,0,1-.68.3.82.82,0,0,1-.82-.84.77.77,0,1,1,1.54,0v.07Zm0-.27h.87a.44.44,0,0,0-.42-.35A.46.46,0,0,0,17.89,18Z"/><path class="cls-3" d="M21,17.38a.8.8,0,0,1,.83.83.83.83,0,1,1-1.65,0A.8.8,0,0,1,21,17.38Zm0,1.36a.53.53,0,1,0-.5-.53A.51.51,0,0,0,21,18.74Z"/><path class="cls-3" d="M23.06,16.88l-.12,0a.35.35,0,0,0-.25.12.48.48,0,0,0-.06.28v.15h.5v.29h-.5V19h-.32V17.7h-.37v-.29h.37v-.14a.79.79,0,0,1,.1-.45.65.65,0,0,1,.53-.26l.19,0Z"/><path class="cls-3" d="M25.4,18.87a.78.78,0,0,1-.5.18.77.77,0,0,1-.4-.11.84.84,0,0,1-.41-.73.83.83,0,0,1,.42-.73.69.69,0,0,1,.39-.1.74.74,0,0,1,.5.18v-.15h.31V19H25.4Zm0-1a.59.59,0,0,0-.46-.23.51.51,0,0,0-.51.53.52.52,0,0,0,.53.53.55.55,0,0,0,.44-.23Z"/><path class="cls-3" d="M27.38,17.41l.44,1.09.44-1.09h.33L27.94,19h-.22l-.45-1.12L26.82,19H26.6L26,17.41h.33l.44,1.09.44-1.09Z"/><path class="cls-3" d="M29,18.28a.52.52,0,0,0,.52.48.59.59,0,0,0,.46-.21l.21.2a.86.86,0,0,1-.68.3.82.82,0,0,1-.82-.84.77.77,0,1,1,1.54,0v.07ZM29,18h.87a.44.44,0,0,0-.42-.35A.46.46,0,0,0,29,18Z"/><path class="cls-3" d="M30.6,18.59a.78.78,0,0,0,.47.17c.14,0,.28-.07.28-.2s-.27-.19-.5-.27-.37-.19-.37-.41a.53.53,0,0,1,.59-.5.8.8,0,0,1,.53.17l-.16.24a.56.56,0,0,0-.35-.13c-.15,0-.29.07-.29.2s.13.15.29.19.58.17.58.51a.54.54,0,0,1-.6.49,1,1,0,0,1-.64-.23Z"/><path class="cls-3" d="M32.73,17.38a.8.8,0,0,1,.83.83.83.83,0,1,1-1.65,0A.8.8,0,0,1,32.73,17.38Zm0,1.36a.53.53,0,1,0-.5-.53A.51.51,0,0,0,32.73,18.74Z"/><path class="cls-3" d="M34.23,17.41v.15a.69.69,0,0,1,.47-.18.71.71,0,0,1,.56.26.83.83,0,0,1,.61-.26.71.71,0,0,1,.57.27.77.77,0,0,1,.15.54V19h-.33v-.87a.45.45,0,0,0-.09-.32.41.41,0,0,0-.3-.14.63.63,0,0,0-.48.23,2.16,2.16,0,0,1,0,.28V19h-.32v-.87a.45.45,0,0,0-.09-.32.43.43,0,0,0-.31-.14.6.6,0,0,0-.45.23V19h-.32v-1.6Z"/><path class="cls-3" d="M37.22,18.28a.52.52,0,0,0,.52.48.57.57,0,0,0,.46-.21l.21.2a.85.85,0,0,1-.67.3.82.82,0,0,1-.83-.84.78.78,0,1,1,1.55,0,.23.23,0,0,1,0,.07Zm0-.27h.87a.44.44,0,0,0-.42-.35A.46.46,0,0,0,37.25,18Z"/></g></svg>