<svg id="Vector" xmlns="http://www.w3.org/2000/svg" viewBox="0 0 382 209"><defs><style>.cls-1{fill:#fff;}.cls-2{fill:#fe5c5c;}.cls-3{fill:none;stroke:#fff;stroke-miterlimit:10;stroke-width:3px;}.cls-4{fill:#c8001d;}</style></defs><title>BrandHub-VectorGraphics</title><rect class="cls-1" x="-0.33" y="38.38" width="382" height="170.46"/><circle class="cls-2" cx="191.5" cy="30" r="28.5"/><line class="cls-3" x1="201.83" y1="19.67" x2="181.17" y2="40.33"/><line class="cls-3" x1="181.17" y1="19.67" x2="201.83" y2="40.33"/><path class="cls-4" d="M234,147.9V97.15H222.27v53.77H234Zm-80.81,0V97.15H141.51v53.77H153.2Zm37.67-51.82c-5.51,0-10.75,2.31-13.48,5.93V97.15H165.7v53.77h11.69V119.54c0-8.72,3.77-13.53,10.63-13.53,7.44,0,10.62,4.36,10.62,14.55v30.36h11.67V120.15C210.31,104.4,203.61,96.08,190.87,96.08ZM251,106.3v30.05c0,9.81,5.33,15.62,14.26,15.62a28.94,28.94,0,0,0,8.15-1.05l1.41-9.33a24,24,0,0,1-5.29.76c-4.86,0-6.86-2-6.86-6.8V106.3h13.44l-3.49-9.15h-10V77.74L251,83.67V97.15h-8.52v9.15ZM110.19,97.15h-5.52l-6.39,9.15h11.91v44.62h11.7V106.3h11.93V97.15H121.89V92c0-3.93,1.64-5.53,5.61-5.53a25.56,25.56,0,0,1,6.32.9V77.9a28.75,28.75,0,0,0-9.33-1.42c-9,0-14.3,5.86-14.3,15.64Zm223.81,0H321.38l-18.76,34.26L289.79,97.15H277.66l18,46.89-13.94,25.83h12.35Zm-253.57,26,18.29-26H85.31L74,113.71,62.71,97.15H49.28l18.28,26L48,150.92H61.42L74,132.51l26.15,37.36H113Z"/></svg>