<svg id="Vector" xmlns="http://www.w3.org/2000/svg" viewBox="0 0 382 209"><defs><style>.cls-1{fill:#fff;}.cls-2{fill:#fe5c5c;}.cls-3{fill:none;stroke:#fff;stroke-miterlimit:10;stroke-width:3px;}</style></defs><title>BrandHub-VectorGraphics</title><rect class="cls-1" x="-0.33" y="38.38" width="382" height="170.46"/><circle class="cls-2" cx="191.5" cy="30" r="28.5"/><line class="cls-3" x1="201.83" y1="19.67" x2="181.17" y2="40.33"/><line class="cls-3" x1="181.17" y1="19.67" x2="201.83" y2="40.33"/><path d="M342.82,107.5a4.76,4.76,0,0,1-1.82-.35,4.41,4.41,0,0,1-1.46-1,4.53,4.53,0,0,1-1-1.45,4.44,4.44,0,0,1-.36-1.79,4.35,4.35,0,0,1,.36-1.75A4.58,4.58,0,0,1,341,98.77a4.59,4.59,0,0,1,1.82-.37,4.8,4.8,0,0,1,3.34,1.35,4.54,4.54,0,0,1,1,1.45,4.35,4.35,0,0,1,.36,1.75,4.46,4.46,0,0,1-1.36,3.24,4.55,4.55,0,0,1-1.49,1A4.91,4.91,0,0,1,342.82,107.5Zm0-.7a4,4,0,0,0,1.56-.3,3.91,3.91,0,0,0,1.27-.82,3.6,3.6,0,0,0,.84-1.22,3.64,3.64,0,0,0,.31-1.51,3.54,3.54,0,0,0-.31-1.48,3.74,3.74,0,0,0-.84-1.23,4.13,4.13,0,0,0-1.27-.84,4,4,0,0,0-1.56-.31,3.86,3.86,0,0,0-1.52.31,4,4,0,0,0-1.24.84,4,4,0,0,0-.83,1.23,3.69,3.69,0,0,0-.3,1.48,3.8,3.8,0,0,0,.3,1.51,3.88,3.88,0,0,0,.83,1.22,3.78,3.78,0,0,0,1.24.82A3.85,3.85,0,0,0,342.82,106.8ZM341,105.11v-4.58h2.56a2,2,0,0,1,.65.1,1.85,1.85,0,0,1,.51.3,1.33,1.33,0,0,1,.47,1,1.18,1.18,0,0,1-.28.77,1.63,1.63,0,0,1-.72.52l1.1,1.89h-1l-1-1.81h-1.35v1.81Zm.89-3.83v1.27h1.65a.83.83,0,0,0,.53-.18.56.56,0,0,0,0-.91.79.79,0,0,0-.51-.18Z"/><path d="M78.8,124.33l18.09-24.26H89.34A8.4,8.4,0,0,0,82,103.65l-9.54,12.83-9.25-12.83a8.4,8.4,0,0,0-7.36-3.58H48.27l17.9,24.26L46.58,150.78h7.16a8.37,8.37,0,0,0,7.36-3.58l11.34-15L99,168.88a8.28,8.28,0,0,0,7.36,3.58h7.76Zm144.86,26.45H233.9V100.07H223.66Zm-81.23,0h10.24V100.07H142.43Zm155.31,17.9,37.08-68.61h-5.57c-3.38,0-6,1-7.35,3.58L307.28,130.8l-12.63-27.15c-1.29-2.68-4-3.58-7.35-3.58h-5.37l19.49,41.37-17,31H290C293.46,172.46,296.25,171.36,297.74,168.68ZM164.9,100.07v50.71h10.24V116a16.14,16.14,0,0,1,13.43-7.26c7.55,0,12.72,4.78,12.72,14.32v22.87a4.62,4.62,0,0,0,4.77,4.87h5.47V121.25c0-13.12-8.35-22.27-20.48-22.27a22.86,22.86,0,0,0-15.91,6.07v-5Zm88,32.72c0,11,6.77,18.89,18.9,18.89a25.86,25.86,0,0,0,7.45-1l-2.08-9a21,21,0,0,1-4.68.5c-5,0-9.34-2.68-9.34-9.64V109.22h14.31l-4.17-9.15H263.14V79.69l-10.25,4.48v15.9H242.06v9.15h10.83Zm-142-23.57v41.56h10.24V109.22h13.13v-9.15H121.15V96.3c0-8.65,5.17-11.54,10.25-11.54a12.21,12.21,0,0,1,3.48.5L137,76.21a17.84,17.84,0,0,0-6.36-1c-12.73,0-19.69,9.44-19.69,20.88v4h-5.37l-6.46,9.15Z"/></svg>