<svg id="Vector" xmlns="http://www.w3.org/2000/svg" viewBox="0 0 382 209"><defs><style>.cls-1{fill:#fff;}.cls-2{fill:#fe5c5c;}.cls-3{fill:none;stroke:#fff;stroke-miterlimit:10;stroke-width:3px;}</style></defs><title>BrandHub-VectorGraphics</title><rect class="cls-1" x="-0.33" y="38.38" width="382" height="170.46"/><circle class="cls-2" cx="191.5" cy="30" r="28.5"/><line class="cls-3" x1="201.83" y1="19.67" x2="181.17" y2="40.33"/><line class="cls-3" x1="181.17" y1="19.67" x2="201.83" y2="40.33"/><path d="M87,130c4.27-9.58,6.6-14.35,11.67-23.81-2.92.73-4.38,1.11-7.29,1.89-3.25.88-5.08,2.43-6.24,4.81-2.45,5.09-3.62,7.64-5.86,12.77-4.67-2.92-7-4.35-11.9-7.12-2.32-1.26-4.73-1.46-7.91-.29-2.85,1-4.27,1.59-7.1,2.7,9.6,4.78,14.25,7.33,23.23,12.69-3.55,8.67-6.75,17.6-9.52,26.55,2.39-.94,3.58-1.4,6-2.3a8,8,0,0,0,5.21-5c2.21-6,3.4-9,5.93-15a332.79,332.79,0,0,1,30.84,22.53,7.17,7.17,0,0,0,6.7,1.45c2.54-.57,3.82-.84,6.36-1.36C114.58,149.25,101,139.39,87,130Zm132.67,7.67c3.6.31,5.39.48,9,.89q2.34-20.64,4.66-41.28c-4-.45-6-.65-10.08-1Q221.47,117,219.69,137.65Zm-71.4,1.42c3.59-.45,5.38-.65,9-1l-4.11-41.34c-4,.4-6,.63-10.07,1.14Q145.69,118.46,148.29,139.07ZM280,163.61a463.15,463.15,0,0,1,50.64-42.06c-2.09-.83-3.13-1.23-5.22-2-3.18-1.21-5.9-1.32-7.92.21-8.47,6.42-12.55,9.75-20.43,16.6-1.83-9.9-2.89-14.86-5.33-24.77-.64-2.46-3-3.88-6.3-4.72-2.07-.53-3.1-.79-5.18-1.3q5.37,18.56,9.1,37.54c-7.28,6.53-14.36,13.45-21,20.59,1.81.46,2.72.69,4.53,1.17C275.64,165.6,278.13,165.37,280,163.61ZM165.22,95.72q1.4,20.72,2.78,41.45c3.6-.25,5.4-.34,9-.49q-.58-14.24-1.15-28.48A15.7,15.7,0,0,1,188.63,102c7.33,0,12.24,4,12,11.86-.21,7.49-.31,11.23-.52,18.72a4,4,0,0,0,4.09,4.13c1.93.08,2.89.13,4.81.23.53-9.66.79-14.49,1.31-24.16.73-11.16-8.66-18.87-19.29-18.77a24.15,24.15,0,0,0-15.56,5.27c-.06-1.62-.1-2.44-.16-4.07C171.28,95.34,169.26,95.45,165.22,95.72Zm82.43,30.56c-1.46,8.92,3.4,16.12,13.87,18.36a26.59,26.59,0,0,0,6.62.66c-.05-3-.08-4.54-.17-7.57a22.16,22.16,0,0,1-4.21-.52c-4.39-1-7.86-3.84-6.79-9.44,1.44-7.52,2.16-11.29,3.59-18.81,5.48,1.05,8.21,1.62,13.65,2.87-.92-3.28-1.39-4.92-2.37-8.21-3.94-.86-5.92-1.26-9.87-2,1.25-6.56,1.88-9.84,3.13-16.4-4.44.65-6.65,1-11,1.77L252,99.83c-4.25-.69-6.37-1-10.63-1.58-.4,3-.6,4.46-1,7.43,4.17.56,6.25.87,10.41,1.55C249.51,114.85,248.89,118.66,247.65,126.28Zm-133.83-15.9,7,33.31c3.55-.75,5.32-1.1,8.88-1.75q-3.06-16.74-6.13-33.49c5-.92,7.54-1.34,12.59-2.08L135.09,99c-5.15.77-7.72,1.19-12.84,2.13-.22-1.22-.33-1.83-.56-3-1.27-7,3.51-10.24,8.64-11a14.34,14.34,0,0,1,3.59-.13c.41-3.06.63-4.59,1.08-7.64a23.82,23.82,0,0,0-6.69.17c-10.06,1.42-19,9.62-16.71,20.46.27,1.28.41,1.92.68,3.19-2.09.44-3.14.67-5.22,1.14-1.85,3.49-2.74,5.24-4.48,8.75C107.06,111.84,109.31,111.33,113.82,110.38Z"/></svg>