<svg id="Vector" xmlns="http://www.w3.org/2000/svg" viewBox="0 0 382 209"><defs><style>.cls-1{fill:#fff;}.cls-2{fill:#fe5c5c;}.cls-3{fill:none;stroke:#fff;stroke-miterlimit:10;stroke-width:3px;}</style></defs><title>BrandHub-VectorGraphics</title><rect class="cls-1" x="-0.33" y="38.38" width="382" height="170.46"/><circle class="cls-2" cx="191.5" cy="30" r="28.5"/><line class="cls-3" x1="201.83" y1="19.67" x2="181.17" y2="40.33"/><line class="cls-3" x1="181.17" y1="19.67" x2="201.83" y2="40.33"/><path d="M108,123.69l6.63-8.89H111.9a3,3,0,0,0-2.69,1.31l-3.5,4.7-3.39-4.7a3,3,0,0,0-2.69-1.31H96.86l6.55,8.89-7.17,9.68h2.62a3.07,3.07,0,0,0,2.7-1.31l4.15-5.5L115.43,140a3,3,0,0,0,2.7,1.32H121Zm53.07,9.68h3.75V114.8h-3.75Zm-29.76,0h3.75V114.8h-3.75Zm56.9,6.56,13.59-25.13h-2a2.77,2.77,0,0,0-2.7,1.31l-5.35,9.94-4.63-9.94a2.68,2.68,0,0,0-2.7-1.31h-2L189.6,130l-6.23,11.37h2A3,3,0,0,0,188.25,139.93ZM139.58,114.8v18.57h3.76V120.63a5.89,5.89,0,0,1,4.91-2.66c2.77,0,4.67,1.75,4.67,5.24v8.38a1.68,1.68,0,0,0,1.74,1.78h2V122.56c0-4.81-3.06-8.16-7.51-8.16a8.33,8.33,0,0,0-5.82,2.22V114.8Zm32.24,12c0,4,2.48,6.92,6.92,6.92a9.46,9.46,0,0,0,2.73-.36l-.76-3.28a7.67,7.67,0,0,1-1.71.18,3.19,3.19,0,0,1-3.43-3.53v-8.56h5.25l-1.53-3.35h-3.72v-7.47L171.82,109v5.83h-4v3.35h4Zm-52-8.63v15.22h3.75V118.15h4.81V114.8h-4.81v-1.39c0-3.17,1.89-4.22,3.75-4.22a4.42,4.42,0,0,1,1.27.18l.77-3.31a6.35,6.35,0,0,0-2.33-.37c-4.67,0-7.21,3.46-7.21,7.65v1.46h-2l-2.37,3.35Z"/><path d="M52.62,112.86v2H46.68v17.77H44.24V114.86H38.31v-2Z"/><path d="M57.6,112v8.53a5.39,5.39,0,0,1,.85-1.27,3.91,3.91,0,0,1,1-.78,4,4,0,0,1,1.1-.39,7,7,0,0,1,1.24-.11,5.07,5.07,0,0,1,2,.37,4.61,4.61,0,0,1,1.47,1,4.34,4.34,0,0,1,.93,1.59,7.12,7.12,0,0,1,.32,2.33v9.33H64.24v-9.72a3.67,3.67,0,0,0-.17-1.12,2.44,2.44,0,0,0-.59-1,2.57,2.57,0,0,0-.92-.62,4.21,4.21,0,0,0-2.91.06,3.27,3.27,0,0,0-1.11.76,3.21,3.21,0,0,0-.7,1.13,3.8,3.8,0,0,0-.24,1.35v9.16H55.36V112Z"/><path d="M72.56,125.85a8.83,8.83,0,0,0,.22,1.85,4.7,4.7,0,0,0,.71,1.63,3.65,3.65,0,0,0,1.36,1.15,4.7,4.7,0,0,0,2.15.44,6,6,0,0,0,1.14-.1,6.36,6.36,0,0,0,1-.3,5.22,5.22,0,0,0,1-.48c.31-.19.64-.4,1-.64l.9,1.78a7.87,7.87,0,0,1-5,1.67,7.73,7.73,0,0,1-3-.55,5.73,5.73,0,0,1-2.11-1.51,6,6,0,0,1-1.23-2.28,10.53,10.53,0,0,1,.05-5.92A7.25,7.25,0,0,1,72,120.17a5.8,5.8,0,0,1,2-1.58,6.22,6.22,0,0,1,2.7-.58,5.84,5.84,0,0,1,2.44.49,5,5,0,0,1,1.78,1.34,5.82,5.82,0,0,1,1.09,2,8.65,8.65,0,0,1,.37,2.56c0,.22,0,.44,0,.64s0,.46-.07.78Zm4-6a3.68,3.68,0,0,0-1.45.29A3.53,3.53,0,0,0,74,121a4.39,4.39,0,0,0-.85,1.34,7.21,7.21,0,0,0-.47,1.79h7.44a6,6,0,0,0-.23-1.68,3.88,3.88,0,0,0-.67-1.35,3.2,3.2,0,0,0-1.1-.89A3.31,3.31,0,0,0,76.58,119.86Z"/><path d="M223.87,132.63l-.28-2.52a5.87,5.87,0,0,1-.88,1.34,4.38,4.38,0,0,1-1,.84,3.63,3.63,0,0,1-1.15.43,5.73,5.73,0,0,1-1.26.13,5.07,5.07,0,0,1-2-.37,4.61,4.61,0,0,1-1.47-1,4.34,4.34,0,0,1-.93-1.59,7.12,7.12,0,0,1-.32-2.33v-9.33h2.24V128a4.37,4.37,0,0,0,.15,1.12,2.3,2.3,0,0,0,.57,1,2.87,2.87,0,0,0,.93.6,3.91,3.91,0,0,0,1.42.23,3.75,3.75,0,0,0,1.5-.29,3.31,3.31,0,0,0,1.12-.76,3.26,3.26,0,0,0,.7-1.12,3.85,3.85,0,0,0,.24-1.36v-9.16h2.24v11.88l.27,2.52Z"/><path d="M238.49,120.64c-.59-.22-1.19-.41-1.79-.58a7.12,7.12,0,0,0-2-.26,5.24,5.24,0,0,0-1.07.11,3,3,0,0,0-.89.35,1.87,1.87,0,0,0-.6.62,1.83,1.83,0,0,0-.22.91,1.87,1.87,0,0,0,.26,1,2.27,2.27,0,0,0,.74.7,5.23,5.23,0,0,0,1.16.52c.45.15.95.31,1.52.46A9.63,9.63,0,0,1,237,125a4.92,4.92,0,0,1,1.24.79,3.67,3.67,0,0,1,1.27,2.9,4,4,0,0,1-.47,2,4.12,4.12,0,0,1-1.23,1.36,5.41,5.41,0,0,1-1.79.8,8.06,8.06,0,0,1-2.1.26,10.47,10.47,0,0,1-1.39-.09c-.45-.07-.87-.14-1.25-.23a8.3,8.3,0,0,1-1-.28,3.41,3.41,0,0,1-.61-.27l.45-1.9a11.59,11.59,0,0,0,1.62.65,7,7,0,0,0,2.14.3,6.43,6.43,0,0,0,1.24-.11,3.61,3.61,0,0,0,1.08-.36,2.37,2.37,0,0,0,.78-.69,1.86,1.86,0,0,0,.3-1.08,1.88,1.88,0,0,0-.28-1.06,2.39,2.39,0,0,0-.78-.77,5.74,5.74,0,0,0-1.19-.58c-.46-.17-1-.34-1.49-.5a9.22,9.22,0,0,1-1.28-.54,5.13,5.13,0,0,1-1.18-.83,3.93,3.93,0,0,1-.87-1.15,3.3,3.3,0,0,1-.34-1.54,3.8,3.8,0,0,1,.38-1.73,3.59,3.59,0,0,1,1-1.25,4.75,4.75,0,0,1,1.58-.77,7.67,7.67,0,0,1,2-.26,12.61,12.61,0,0,1,2.21.2,7.62,7.62,0,0,1,1.88.56Z"/><path d="M244.6,125.85a8.83,8.83,0,0,0,.22,1.85,4.72,4.72,0,0,0,.72,1.63,3.55,3.55,0,0,0,1.35,1.15,4.73,4.73,0,0,0,2.15.44,6,6,0,0,0,1.14-.1,6.08,6.08,0,0,0,1-.3,5.22,5.22,0,0,0,1-.48c.32-.19.64-.4,1-.64l.9,1.78a7.87,7.87,0,0,1-5,1.67,7.8,7.8,0,0,1-3-.55,5.73,5.73,0,0,1-2.11-1.51,6.27,6.27,0,0,1-1.23-2.28,10.53,10.53,0,0,1,.05-5.92,7.43,7.43,0,0,1,1.27-2.42,5.9,5.9,0,0,1,2-1.58,6.22,6.22,0,0,1,2.7-.58,5.84,5.84,0,0,1,2.44.49,5,5,0,0,1,1.78,1.34,5.82,5.82,0,0,1,1.09,2,8.65,8.65,0,0,1,.37,2.56c0,.22,0,.44,0,.64s0,.46-.06.78Zm4-6a3.6,3.6,0,0,0-1.44.29A3.47,3.47,0,0,0,246,121a4.59,4.59,0,0,0-.85,1.34,7.21,7.21,0,0,0-.47,1.79h7.44a6,6,0,0,0-.23-1.68,3.88,3.88,0,0,0-.67-1.35,3.2,3.2,0,0,0-1.1-.89A3.31,3.31,0,0,0,248.62,119.86Z"/><path d="M260.24,118.23l.29,2.53q.32-.54.66-1a4.38,4.38,0,0,1,.77-.83,3.46,3.46,0,0,1,.92-.55,2.75,2.75,0,0,1,1.09-.21,6.35,6.35,0,0,1,1.51.21l-.28,2.37a7.54,7.54,0,0,0-.83-.14l-.63,0a3.12,3.12,0,0,0-2.26.78,3,3,0,0,0-.82,2.24v9h-2.24v-11.9l-.27-2.5Z"/><path d="M285.75,118.23v14.82a8.31,8.31,0,0,1-.33,2.41,5.13,5.13,0,0,1-1.05,1.89,4.88,4.88,0,0,1-1.82,1.23,7.25,7.25,0,0,1-2.65.43,10.63,10.63,0,0,1-5-1.17l.61-2c.27.17.55.32.84.47a8,8,0,0,0,1,.38,7.62,7.62,0,0,0,1.18.26,10.65,10.65,0,0,0,1.45.1,5.55,5.55,0,0,0,1.38-.17,2.55,2.55,0,0,0,1.15-.63,3.37,3.37,0,0,0,.77-1.32,6.91,6.91,0,0,0,.28-2.18v-2.21a4.33,4.33,0,0,1-1.84,1.75,5.61,5.61,0,0,1-2.39.52,5.28,5.28,0,0,1-1.93-.33,4.76,4.76,0,0,1-1.46-.89,5.08,5.08,0,0,1-1.05-1.3,8,8,0,0,1-.68-1.59,12.2,12.2,0,0,1-.36-1.72,14.28,14.28,0,0,1-.11-1.71,11.61,11.61,0,0,1,.33-2.8,6.66,6.66,0,0,1,1.05-2.32,5.2,5.2,0,0,1,1.83-1.59,5.73,5.73,0,0,1,2.7-.59,5.9,5.9,0,0,1,1.24.13,4,4,0,0,1,1.05.41,3.89,3.89,0,0,1,.91.74,7.39,7.39,0,0,1,.86,1.1l.27-2.16Zm-2.24,5.18a3.69,3.69,0,0,0-.21-1.19,3.31,3.31,0,0,0-.67-1.12,3.52,3.52,0,0,0-1.16-.83,4,4,0,0,0-1.71-.33,3.39,3.39,0,0,0-1.93.49,3.25,3.25,0,0,0-1.14,1.27,5.39,5.39,0,0,0-.54,1.77,14.38,14.38,0,0,0-.13,2c0,.43,0,.88.06,1.32a8.34,8.34,0,0,0,.21,1.28,5.15,5.15,0,0,0,.42,1.14,3.27,3.27,0,0,0,.69.91,2.94,2.94,0,0,0,1,.61,3.84,3.84,0,0,0,1.38.22,4.11,4.11,0,0,0,1.69-.32,3.56,3.56,0,0,0,1.15-.82,3.22,3.22,0,0,0,.67-1.12,3.64,3.64,0,0,0,.21-1.19Z"/><path d="M299.82,132.63l-.29-2.52a5.54,5.54,0,0,1-.87,1.34,4.38,4.38,0,0,1-1,.84,3.63,3.63,0,0,1-1.15.43,5.86,5.86,0,0,1-1.26.13,5.07,5.07,0,0,1-2-.37,4.61,4.61,0,0,1-1.47-1,4.5,4.5,0,0,1-.94-1.59,7.4,7.4,0,0,1-.32-2.33v-9.33h2.24V128a4,4,0,0,0,.16,1.12,2.3,2.3,0,0,0,.57,1,2.87,2.87,0,0,0,.93.6,3.91,3.91,0,0,0,1.42.23,3.75,3.75,0,0,0,1.5-.29,3.24,3.24,0,0,0,1.82-1.88,3.85,3.85,0,0,0,.24-1.36v-9.16h2.24v11.88l.27,2.52Z"/><path d="M309.1,112v2.54h-2.57V112Zm-.16,6.2v14.4H306.7v-14.4Z"/><path d="M325,112v20.6h-1.82l-.27-2.19a5.76,5.76,0,0,1-1,1.16,4.84,4.84,0,0,1-1.07.73,4.49,4.49,0,0,1-1.15.4,6,6,0,0,1-1.2.12,5.42,5.42,0,0,1-2-.33,4.94,4.94,0,0,1-1.47-.89,4.77,4.77,0,0,1-1-1.3,8.08,8.08,0,0,1-.65-1.58,10.06,10.06,0,0,1-.35-1.7,13.76,13.76,0,0,1-.11-1.67,11.84,11.84,0,0,1,.34-2.85,6.9,6.9,0,0,1,1-2.35,5.11,5.11,0,0,1,1.8-1.59,5.59,5.59,0,0,1,2.61-.58,4.83,4.83,0,0,1,2.39.54,4.31,4.31,0,0,1,1.64,1.71V112Zm-2.24,11.38a3.62,3.62,0,0,0-.21-1.17,3.32,3.32,0,0,0-.66-1.13,3.45,3.45,0,0,0-1.17-.84,4,4,0,0,0-1.71-.33,3.9,3.9,0,0,0-1.39.22,3.05,3.05,0,0,0-1,.61,3.2,3.2,0,0,0-.67.91,5.34,5.34,0,0,0-.42,1.14,8.41,8.41,0,0,0-.21,1.27c0,.44-.05.88-.05,1.32a13.05,13.05,0,0,0,.14,2,5.47,5.47,0,0,0,.54,1.77,3.26,3.26,0,0,0,1.14,1.28,3.44,3.44,0,0,0,2,.49,4.11,4.11,0,0,0,1.69-.32,3.61,3.61,0,0,0,1.16-.82,3.19,3.19,0,0,0,.66-1.12,3.64,3.64,0,0,0,.21-1.19Z"/><path d="M331.35,125.85a8.83,8.83,0,0,0,.22,1.85,4.7,4.7,0,0,0,.71,1.63,3.65,3.65,0,0,0,1.36,1.15,4.7,4.7,0,0,0,2.15.44,6,6,0,0,0,1.14-.1,6.36,6.36,0,0,0,1-.3,4.86,4.86,0,0,0,1-.48c.32-.19.65-.4,1-.64l.9,1.78a7.87,7.87,0,0,1-5,1.67,7.73,7.73,0,0,1-3-.55,5.73,5.73,0,0,1-2.11-1.51,6,6,0,0,1-1.23-2.28,9.67,9.67,0,0,1-.4-2.85,10,10,0,0,1,.45-3.07,7.25,7.25,0,0,1,1.27-2.42,5.8,5.8,0,0,1,2-1.58,6.22,6.22,0,0,1,2.7-.58,5.84,5.84,0,0,1,2.44.49,5,5,0,0,1,1.78,1.34,5.82,5.82,0,0,1,1.09,2,8.65,8.65,0,0,1,.37,2.56c0,.22,0,.44,0,.64s0,.46-.07.78Zm4-6a3.68,3.68,0,0,0-1.45.29,3.53,3.53,0,0,0-1.17.83,4.39,4.39,0,0,0-.85,1.34,7.21,7.21,0,0,0-.47,1.79h7.44a6,6,0,0,0-.23-1.68,3.88,3.88,0,0,0-.67-1.35,3.21,3.21,0,0,0-2.6-1.22Z"/></svg>