<svg id="Vector" xmlns="http://www.w3.org/2000/svg" viewBox="0 0 382 209"><defs><style>.cls-1{fill:#fff;}.cls-2{fill:#fe5c5c;}.cls-3{fill:none;stroke:#fff;stroke-miterlimit:10;stroke-width:3px;}.cls-4{fill:#c8001d;}.cls-5{fill:#58595b;}</style></defs><title>BrandHub-VectorGraphics</title><rect class="cls-1" x="-0.33" y="38.38" width="382" height="170.46"/><circle class="cls-2" cx="191.5" cy="30" r="28.5"/><line class="cls-3" x1="201.83" y1="19.67" x2="181.17" y2="40.33"/><line class="cls-3" x1="181.17" y1="19.67" x2="201.83" y2="40.33"/><path class="cls-4" d="M103,115l14.4-19.3h-6a6.65,6.65,0,0,0-5.85,2.85l-7.6,10.2-7.35-10.2a6.68,6.68,0,0,0-5.86-2.85h-6L92.91,115,77.33,136H83a6.68,6.68,0,0,0,5.86-2.85l9-11.94L119,150.41a6.59,6.59,0,0,0,5.85,2.84H131ZM218.2,136h8.14V95.67H218.2Zm-64.62,0h8.14V95.67h-8.14Zm123.54,14.24,29.51-54.58H302.2c-2.69,0-4.75.79-5.86,2.85l-11.62,21.59L274.67,98.52c-1-2.14-3.16-2.85-5.85-2.85h-4.27l15.5,32.91-13.53,24.67H271C273.72,153.25,275.94,152.38,277.12,150.25ZM171.45,95.67V136h8.15V108.33a12.83,12.83,0,0,1,10.68-5.78c6,0,10.12,3.8,10.12,11.39v18.19a3.68,3.68,0,0,0,3.8,3.88h4.35V112.52c0-10.44-6.65-17.72-16.3-17.72a18.14,18.14,0,0,0-12.65,4.83v-4Zm70,26c0,8.78,5.38,15,15,15a20.51,20.51,0,0,0,5.93-.79l-1.66-7.12a16.54,16.54,0,0,1-3.72.4c-3.95,0-7.43-2.14-7.43-7.67V103H261l-3.32-7.28H249.6V79.46L241.45,83V95.67h-8.62V103h8.62ZM128.5,103V136h8.15V103h10.44V95.67H136.65v-3c0-6.89,4.11-9.18,8.15-9.18a9.61,9.61,0,0,1,2.76.4l1.67-7.2a14.17,14.17,0,0,0-5.07-.79c-10.12,0-15.66,7.51-15.66,16.61v3.16h-4.27L119.09,103Z"/><path class="cls-5" d="M160.74,178.66a5,5,0,0,1-1.45.2,3.28,3.28,0,0,1-2.59-1.08,3.47,3.47,0,0,1-.74-2.43v-4.2h-2.34V169.5H156V167h1.85v2.54h2.93v1.65h-2.93v4.29a1.79,1.79,0,0,0,.27,1.17,1.73,1.73,0,0,0,1.27.49,4.51,4.51,0,0,0,1-.12Z"/><path class="cls-5" d="M164.64,170.3a4.13,4.13,0,0,1,2.69-1,4.24,4.24,0,0,1,3.33,1.62,4.92,4.92,0,0,1,.9,3.26v4.48H169.7v-4.58a3.12,3.12,0,0,0-.54-2.13,2.43,2.43,0,0,0-1.89-.89,3.38,3.38,0,0,0-2.63,1.3v6.3h-1.86V164.82h1.86Z"/><path class="cls-5" d="M175.2,174.47a3,3,0,0,0,3,2.77A3.33,3.33,0,0,0,180.8,176l1.21,1.15a4.81,4.81,0,0,1-3.86,1.72,4.66,4.66,0,0,1-4.74-4.78,4.45,4.45,0,1,1,8.87,0,3.3,3.3,0,0,1,0,.39Zm.16-1.56h5a2.56,2.56,0,0,0-2.42-2A2.66,2.66,0,0,0,175.36,172.91Z"/><path class="cls-5" d="M194.37,166.46a2.94,2.94,0,0,0-.68-.08,1.81,1.81,0,0,0-1.41.64,2.64,2.64,0,0,0-.35,1.64v.84h2.83v1.65h-2.83v7.51h-1.85v-7.51h-2.15V169.5h2.15v-.78a4.32,4.32,0,0,1,.58-2.58,3.62,3.62,0,0,1,3-1.52,4.19,4.19,0,0,1,1.09.14Z"/><path class="cls-5" d="M196.77,177.31a4.6,4.6,0,0,1-.84-3.13V169.5h1.85v5a2.56,2.56,0,0,0,.53,1.83,2.33,2.33,0,0,0,1.77.8,3.45,3.45,0,0,0,2.57-1.31V169.5h1.86v9.16h-1.8v-.84a4.1,4.1,0,0,1-5.94-.51Z"/><path class="cls-5" d="M213,178.66a5,5,0,0,1-1.45.2,3.29,3.29,0,0,1-2.59-1.08,3.52,3.52,0,0,1-.74-2.43v-4.2h-2.34V169.5h2.34V167h1.85v2.54H213v1.65h-2.93v4.29a1.73,1.73,0,0,0,.28,1.17,1.7,1.7,0,0,0,1.26.49,4.44,4.44,0,0,0,1-.12Z"/><path class="cls-5" d="M215.68,177.31a4.6,4.6,0,0,1-.84-3.13V169.5h1.85v5a2.61,2.61,0,0,0,.53,1.83,2.33,2.33,0,0,0,1.77.8,3.49,3.49,0,0,0,2.58-1.31V169.5h1.85v9.16h-1.8v-.84a4.1,4.1,0,0,1-5.94-.51Z"/><path class="cls-5" d="M231.3,171.13a3.12,3.12,0,0,0-.73-.07,3.05,3.05,0,0,0-2.47,1.54v6.06h-1.85V169.5H228v1.05a3.37,3.37,0,0,1,2.75-1.25,4.56,4.56,0,0,1,.72.06Z"/><path class="cls-5" d="M233.89,174.47a3,3,0,0,0,3,2.77,3.3,3.3,0,0,0,2.63-1.25l1.21,1.15a4.79,4.79,0,0,1-3.86,1.72,4.66,4.66,0,0,1-4.74-4.78,4.45,4.45,0,1,1,8.88,0,3.3,3.3,0,0,1,0,.39Zm.15-1.56h5a2.57,2.57,0,0,0-2.42-2A2.68,2.68,0,0,0,234,172.91Z"/><path class="cls-5" d="M251.75,169.3a4.78,4.78,0,1,1-4.74,4.78A4.65,4.65,0,0,1,251.75,169.3Zm0,7.8a3,3,0,1,0-2.89-3A2.88,2.88,0,0,0,251.75,177.1Z"/><path class="cls-5" d="M263.7,166.46a2.94,2.94,0,0,0-.68-.08,1.81,1.81,0,0,0-1.41.64,2.64,2.64,0,0,0-.35,1.64v.84h2.83v1.65h-2.83v7.51h-1.85v-7.51h-2.14V169.5h2.14v-.78a4.31,4.31,0,0,1,.59-2.58,3.59,3.59,0,0,1,3-1.52,4.13,4.13,0,0,1,1.09.14Z"/><path class="cls-5" d="M277.11,177.82a4.2,4.2,0,0,1-2.82,1,4.69,4.69,0,0,1-2.3-.61,4.78,4.78,0,0,1-2.34-4.17,4.83,4.83,0,0,1,2.36-4.19,4.34,4.34,0,0,1,2.24-.59,4.29,4.29,0,0,1,2.86,1v-.83h1.8v9.16h-1.8Zm-.06-5.46a3.29,3.29,0,0,0-2.61-1.3,2.93,2.93,0,0,0-2.94,3,3,3,0,0,0,3,3,3.16,3.16,0,0,0,2.51-1.31Z"/><path class="cls-5" d="M288.5,169.5l2.51,6.26,2.52-6.26h1.91l-3.72,9.16h-1.29l-2.57-6.43-2.58,6.43H284l-3.73-9.16h1.91l2.52,6.26,2.51-6.26Z"/><path class="cls-5" d="M297.72,174.47a3,3,0,0,0,3,2.77,3.33,3.33,0,0,0,2.63-1.25l1.21,1.15a4.81,4.81,0,0,1-3.86,1.72,4.65,4.65,0,0,1-4.74-4.78,4.45,4.45,0,1,1,8.87,0,3.3,3.3,0,0,1,0,.39Zm.16-1.56h5a2.56,2.56,0,0,0-2.42-2A2.66,2.66,0,0,0,297.88,172.91Z"/><path class="cls-5" d="M306.92,176.22a4.45,4.45,0,0,0,2.71,1c.8,0,1.6-.43,1.6-1.15,0-1.06-1.52-1.11-2.86-1.56-1.11-.37-2.11-1.08-2.11-2.36,0-2,1.76-2.87,3.39-2.87a4.66,4.66,0,0,1,3.05,1l-1,1.32a3.26,3.26,0,0,0-2-.72c-.9,0-1.66.43-1.66,1.15s.72.84,1.64,1.07c1.44.37,3.33,1,3.33,2.91,0,1.73-1.61,2.81-3.41,2.81a5.7,5.7,0,0,1-3.7-1.27Z"/><path class="cls-5" d="M319.19,169.3a4.78,4.78,0,1,1-4.74,4.78A4.65,4.65,0,0,1,319.19,169.3Zm0,7.8a3,3,0,1,0-2.89-3A2.88,2.88,0,0,0,319.19,177.1Z"/><path class="cls-5" d="M327.77,169.5v.87a4,4,0,0,1,2.69-1.07,4.17,4.17,0,0,1,3.23,1.52,4.6,4.6,0,0,1,3.49-1.52,4.16,4.16,0,0,1,3.26,1.54,4.68,4.68,0,0,1,.84,3.14v4.68h-1.85v-5a2.59,2.59,0,0,0-.53-1.83,2.25,2.25,0,0,0-1.72-.8,3.76,3.76,0,0,0-2.78,1.3,8.2,8.2,0,0,1,.15,1.62v4.68H332.7v-5a2.59,2.59,0,0,0-.53-1.83,2.33,2.33,0,0,0-1.77-.8,3.52,3.52,0,0,0-2.58,1.3v6.3H326V169.5Z"/><path class="cls-5" d="M344.92,174.47a3,3,0,0,0,3,2.77,3.33,3.33,0,0,0,2.63-1.25l1.21,1.15a4.79,4.79,0,0,1-3.86,1.72,4.66,4.66,0,0,1-4.74-4.78,4.45,4.45,0,1,1,8.87,0,3.3,3.3,0,0,1,0,.39Zm.16-1.56h5a2.56,2.56,0,0,0-2.42-2A2.66,2.66,0,0,0,345.08,172.91Z"/></svg>