<svg id="Vector" xmlns="http://www.w3.org/2000/svg" viewBox="0 0 382 209"><defs><style>.cls-1{fill:#fff;}.cls-2{fill:#fe5c5c;}.cls-3{fill:none;stroke:#fff;stroke-miterlimit:10;stroke-width:3px;}</style></defs><title>BrandHub-VectorGraphics</title><rect class="cls-1" x="-0.33" y="38.38" width="382" height="170.46"/><circle class="cls-2" cx="191.5" cy="30" r="28.5"/><line class="cls-3" x1="201.83" y1="19.67" x2="181.17" y2="40.33"/><line class="cls-3" x1="181.17" y1="19.67" x2="201.83" y2="40.33"/><path d="M77,123.69l6.63-8.89H80.83a3.07,3.07,0,0,0-2.7,1.31l-3.49,4.7-3.39-4.7a3.07,3.07,0,0,0-2.7-1.31H65.78l6.56,8.89-7.18,9.68h2.63a3,3,0,0,0,2.69-1.31l4.16-5.5L84.36,140a3,3,0,0,0,2.7,1.32H89.9ZM130,133.37h3.75V114.8H130Zm-29.76,0H104V114.8h-3.75Zm56.9,6.56,13.58-25.13h-2a2.75,2.75,0,0,0-2.69,1.31l-5.36,9.94-4.62-9.94a2.69,2.69,0,0,0-2.7-1.31h-2L158.52,130l-6.22,11.37h2A3,3,0,0,0,157.18,139.93ZM108.51,114.8v18.57h3.75V120.63a5.91,5.91,0,0,1,4.92-2.66c2.77,0,4.66,1.75,4.66,5.24v8.38a1.69,1.69,0,0,0,1.75,1.78h2V122.56c0-4.81-3.06-8.16-7.51-8.16a8.36,8.36,0,0,0-5.83,2.22V114.8Zm32.24,12c0,4,2.48,6.92,6.92,6.92a9.51,9.51,0,0,0,2.73-.36l-.76-3.28a7.76,7.76,0,0,1-1.72.18,3.18,3.18,0,0,1-3.42-3.53v-8.56h5.25l-1.53-3.35H144.5v-7.47L140.75,109v5.83h-4v3.35h4Zm-52-8.63v15.22h3.75V118.15h4.81V114.8H92.48v-1.39c0-3.17,1.9-4.22,3.76-4.22a4.42,4.42,0,0,1,1.27.18l.77-3.31a6.41,6.41,0,0,0-2.34-.37c-4.66,0-7.21,3.46-7.21,7.65v1.46h-2l-2.37,3.35Z"/><path d="M182.44,112.86v19.77h-2.38V112.86Z"/><path d="M188.32,112.86h3.3l7.23,13.6,1.73,4h.28l-.3-4.44V112.86h2.27v19.77h-3.2L192.3,119l-1.74-4h-.28l.31,4.44v13.14h-2.27Z"/><path d="M220.57,112.86v2h-5.95v17.78h-2.43V114.85h-5.93v-2Z"/><path d="M236.9,112.86v2H226.4v6.5h9.24v2H226.4v7.31h10.77v2H224V112.86Z"/><path d="M249.39,112.86a12,12,0,0,1,1.66.11,7.09,7.09,0,0,1,1.34.34,4.64,4.64,0,0,1,1.07.53,5.28,5.28,0,0,1,.85.7,4.49,4.49,0,0,1,1.08,1.72,6.09,6.09,0,0,1,.36,2.12,7.33,7.33,0,0,1-.22,1.85,4.45,4.45,0,0,1-2,2.77,6.21,6.21,0,0,1-1.95.78l5.45,8.85h-2.75l-5.13-8.49h-4.89v8.49h-2.38V112.86Zm-5.12,9.32h5.15a5.65,5.65,0,0,0,1.81-.25,2.9,2.9,0,0,0,1.21-.75,2.86,2.86,0,0,0,.68-1.19,5.66,5.66,0,0,0,.21-1.61,4.33,4.33,0,0,0-.21-1.35,2.9,2.9,0,0,0-.68-1.13,3.27,3.27,0,0,0-1.21-.77,5.34,5.34,0,0,0-1.81-.28h-5.15Z"/><path d="M260.51,112.86h3.29l7.24,13.6,1.73,4H273l-.3-4.44V112.86H275v19.77h-3.2L264.49,119l-1.74-4h-.29l.32,4.44v13.14h-2.27Z"/><path d="M293.76,112.86v2h-10.5v6.5h9.24v2h-9.24v7.31H294v2H280.88V112.86Z"/><path d="M310.9,112.86v2H305v17.78h-2.44V114.85h-5.93v-2Z"/></svg>