<svg id="Layer_1" data-name="Layer 1" xmlns="http://www.w3.org/2000/svg" viewBox="0 0 528.31 186.97"><defs><style>.cls-1{fill:none;stroke:#c8001d;stroke-miterlimit:10;stroke-width:3px;}</style></defs><title>Logo-Misuses</title><path d="M66.86,107.53Q77.65,85.09,90,62.91q-6.89,1.38-13.72,2.88c-6.13,1.33-9.63,4.1-11.91,8.53q-6.06,11.9-11.68,23.86Q42,90.38,30.89,82.87c-4.25-2.76-8.71-3.49-14.71-1.73q-6.7,2-13.37,4,21.93,13.4,42.45,27.86-10.95,24.74-20.11,49.67,5.7-1.78,11.44-3.5c5.42-1.61,8.4-4.43,10.25-8.89q5.88-14.06,12.35-28,29.88,22.47,56.59,47c3.42,3.19,7.36,4.36,12.7,3.39q6.12-1.09,12.27-2.1A761.65,761.65,0,0,0,66.86,107.53ZM318.66,128q8.58.58,17.16,1.36,3.72-40.12,7.64-80.23-9.48-.85-19-1.5Q321.5,87.85,318.66,128Zm-136.39,2.32q8.56-.89,17.14-1.57-3.34-40.15-6.87-80.3-9.49.78-19,1.75Q178,90.28,182.27,130.35Zm252.86,43.48a839.55,839.55,0,0,1,91.52-88.19q-4.9-1.55-9.83-3c-6-1.8-11.07-1.6-14.72,1.64q-19.22,17-37,34.81Q459.85,95.52,453.53,72c-1.33-4.66-5.88-7.12-12-8.38q-4.87-1-9.77-1.95,11,35.63,19.35,71.41-20,20.61-38.19,42.15,4.38.87,8.75,1.79C427.11,178.17,431.83,177.45,435.13,173.83ZM215.23,46.93q2.4,40.23,4.69,80.45,8.6-.47,17.2-.76-1-27.63-1.94-55.27a29.48,29.48,0,0,1,24.13-12c13.87-.07,23.16,7.78,22.76,22.93l-.81,36.33c-.1,4.58,3.18,7.8,7.85,8,3.06.1,6.13.21,9.19.34q1-23.45,2.1-46.88c1.1-20.8-13.77-36.16-36.54-36.17-12.06,0-22,3.88-29.31,10.13q-.13-3.94-.29-7.89Q224.75,46.4,215.23,46.93Zm156.14,57.61c-2.28,17.43,7.35,31.1,27.27,34.47a48.29,48.29,0,0,0,12.59.65q-.37-7.31-.8-14.61a40.35,40.35,0,0,1-8-.62c-8.34-1.45-15.06-6.77-13.35-17.7Q392,88.39,395,70.06q12.9,2,25.74,4.33-2.34-7.81-4.8-15.63-9.27-1.62-18.58-3,2.64-16,5.33-32-10.36,2-20.6,4.25-1.8,12.53-3.57,25-10-1.3-20-2.38-.84,7.22-1.67,14.44,9.84,1.07,19.64,2.34Q373.92,86,371.37,104.54ZM118.2,72.46q5.94,32.51,11.63,65,8.47-1.44,17-2.7-5-32.64-10.16-65.27,11.83-1.77,23.74-3.19-.93-7.21-1.87-14.42-12.11,1.46-24.17,3.25c-.32-2-.63-4-.95-5.93-2.24-13.58,6.82-19.57,16.48-20.78a27.42,27.42,0,0,1,6.71,0q1.07-7.37,2.17-14.73a40.24,40.24,0,0,0-12.51-.07C121.5,16.85,111,34.13,114.42,51.93q.58,3.12,1.15,6.22-4.91.84-9.81,1.74-4.5,8.2-8.78,16.46Q107.56,74.28,118.2,72.46Z"/><line class="cls-1" x1="11.37" y1="172.32" x2="517.17" y2="11.7"/></svg>