<svg id="Layer_1" data-name="Layer 1" xmlns="http://www.w3.org/2000/svg" xmlns:xlink="http://www.w3.org/1999/xlink" viewBox="0 0 528.31 186.97"><defs><style>.cls-1{fill:url(#linear-gradient);}.cls-2{fill:none;stroke:#c8001d;stroke-miterlimit:10;stroke-width:3px;}</style><linearGradient id="linear-gradient" x1="5.47" y1="93.66" x2="523.16" y2="93.66" gradientUnits="userSpaceOnUse"><stop offset="0" stop-color="#fff"/><stop offset="1"/></linearGradient></defs><title>Logo-Misuses</title><path class="cls-1" d="M63.33,94.55,95.83,51H82.26c-6.08,0-10,2.14-13.22,6.43l-17.14,23-16.61-23C32.08,53.12,28.15,51,22.08,51H8.5L40.65,94.55,5.47,142.06H18.33c6.07,0,10-2.15,13.21-6.43l20.36-27,47.68,65.9c3,4.28,7.14,6.43,13.21,6.43h13.93Zm260.18,47.51h18.4V51h-18.4Zm-145.89,0H196V51H177.62ZM456.56,174.2,523.16,51h-10c-6.07,0-10.71,1.79-13.21,6.43L473.7,106.16,451,57.41C448.7,52.59,443.88,51,437.8,51h-9.64l35,74.29L432.63,181h10C448.88,181,453.88,179,456.56,174.2ZM218,51v91.08h18.39V79.55c5.71-8,13.93-13,24.11-13,13.57,0,22.85,8.57,22.85,25.71v41.08c0,5.17,3.58,8.75,8.58,8.75h9.82V89c0-23.57-15-40-36.79-40a41,41,0,0,0-28.57,10.89V51Zm158,58.75c0,19.83,12.14,33.93,33.93,33.93a46.82,46.82,0,0,0,13.39-1.78l-3.75-16.07a38.12,38.12,0,0,1-8.39.89c-8.93,0-16.79-4.82-16.79-17.32v-42h25.72L412.63,51H394.41V14.37l-18.39,8V51H356.55V67.41H376ZM121,67.41v74.65H139.4V67.41H163V51H139.4V44.2c0-15.54,9.29-20.72,18.39-20.72a22.1,22.1,0,0,1,6.25.89L167.8,8.12a32.32,32.32,0,0,0-11.43-1.78c-22.86,0-35.36,17-35.36,37.5V51h-9.65L99.76,67.41Z"/><line class="cls-2" x1="10.37" y1="173.32" x2="515.17" y2="11.7"/></svg>