<?xml version="1.0" encoding="utf-8"?>
<!-- Generator: Adobe Illustrator 24.0.1, SVG Export Plug-In . SVG Version: 6.00 Build 0)  -->
<svg version="1.1" id="Layer_1" xmlns="http://www.w3.org/2000/svg" xmlns:xlink="http://www.w3.org/1999/xlink" x="0px" y="0px"
	 viewBox="0 0 528.3 187" style="enable-background:new 0 0 528.3 187;" xml:space="preserve">
<style type="text/css">
	.st0{fill:none;stroke:#231F20;stroke-miterlimit:10;}
	.st1{fill:none;stroke:#C8001D;stroke-width:3;stroke-miterlimit:10;}
</style>
<g>
	<path class="st0" d="M85.2,91.8l28.8-38.6h-12c-5.4,0-8.8,1.9-11.7,5.7L75.1,79.3L60.4,58.9c-2.8-3.8-6.3-5.7-11.7-5.7h-12
		l28.4,38.6l-31.1,42h11.4c5.4,0,8.8-1.9,11.7-5.7l18-23.9l42.2,58.3c2.7,3.8,6.3,5.7,11.7,5.7h12.3L85.2,91.8z M315.4,133.8h16.3
		V53.2h-16.3V133.8z M186.3,133.8h16.3V53.2h-16.3V133.8z M433.1,162.3l58.9-109h-8.8c-5.4,0-9.5,1.6-11.7,5.7l-23.2,43.1
		l-20.1-43.1c-2.1-4.3-6.3-5.7-11.7-5.7H408l31,65.7l-27,49.3h8.8C426.3,168.3,430.7,166.5,433.1,162.3z M222,53.2v80.6h16.3V78.5
		c5.1-7.1,12.3-11.5,21.3-11.5c12,0,20.2,7.6,20.2,22.8v36.3c0,4.6,3.2,7.7,7.6,7.7h8.7V86.9c0-20.9-13.3-35.4-32.5-35.4
		c-10.3,0-18.8,3.6-25.3,9.6v-7.9H222z M361.8,105.2c0,17.5,10.7,30,30,30c4.7,0,8.7-0.6,11.8-1.6l-3.3-14.2
		c-2.1,0.5-4.6,0.8-7.4,0.8c-7.9,0-14.9-4.3-14.9-15.3V67.8h22.8l-6.6-14.5h-16.1V20.8L361.8,28v25.3h-17.2v14.5h17.2V105.2z
		 M136.2,67.8v66h16.3v-66h20.9V53.2h-20.9v-6c0-13.7,8.2-18.3,16.3-18.3c2.1,0,4,0.3,5.5,0.8l3.3-14.4c-2.1-0.8-5.4-1.6-10.1-1.6
		c-20.2,0-31.3,15-31.3,33.2v6.3h-8.5l-10.3,14.5H136.2z"/>
</g>
<title>Logo-Misuses</title>
<line class="st1" x1="11.4" y1="172.3" x2="517.2" y2="11.7"/>
</svg>
