<svg xmlns="http://www.w3.org/2000/svg" viewBox="0 0 796 325"><defs><style>.cls-1{fill:#fff;}</style></defs><title>BrandHub-VectorGraphics</title><g id="Vector"><rect class="cls-1" x="1.2" y="0.62" width="795.03" height="323.09"/><rect x="455.68" y="48.63" width="225.07" height="222.76"/><path class="cls-1" d="M583.81,153.56,630.6,90.83H611.06c-8.74,0-14.39,3.09-19,9.26l-24.68,33.16-23.91-33.16c-4.63-6.17-10.28-9.26-19-9.26H504.89l46.27,62.73-50.64,68.38H519c8.74,0,14.4-3.08,19-9.25l29.31-38.82L636,268.73c4.37,6.17,10.28,9.26,19,9.26h20.06Z"/><rect class="cls-1" x="94.68" y="48.63" width="225.07" height="222.76"/><path d="M222.81,153.56,269.6,90.83H250.06c-8.74,0-14.39,3.09-19,9.26l-24.68,33.16-23.91-33.16c-4.62-6.17-10.28-9.26-19-9.26H143.89l46.28,62.73-50.65,68.38H158c8.74,0,14.4-3.08,19-9.25l29.31-38.82L275,268.73c4.37,6.17,10.28,9.26,19,9.26h20.05Z"/></g></svg>