<svg id="Layer_1" data-name="Layer 1" xmlns="http://www.w3.org/2000/svg" viewBox="0 0 372.68 144.41"><defs><style>.cls-1{fill:none;stroke:#c8001d;stroke-miterlimit:10;stroke-width:3px;}</style></defs><title>BrandSymbol-Misuses</title><path d="M127.92,136.58H114c-6.06,0-10.16-2.14-13.19-6.42L53.24,64.39,32.92,91.31c-3.21,4.27-7.13,6.41-13.19,6.41H6.9L42,50.31,9.93,6.83H23.48c6.06,0,10,2.13,13.19,6.41l16.57,23,17.11-23C73.56,9,77.48,6.83,83.54,6.83H97.09L64.65,50.31Z"/><path d="M110.61,30.89v3a16.82,16.82,0,0,1,10.73-3.74c9.43,0,17,7.56,17,18.15s-7.63,18.21-17.14,18.21a15.8,15.8,0,0,1-9.86-3.17V82H102V30.89Zm9.29,7.78a11.14,11.14,0,0,0-8.57,4.1V53.93A10.56,10.56,0,0,0,119.75,58c5,0,9.22-4,9.22-9.72S124.87,38.67,119.9,38.67Z"/><path d="M167.42,39.1a19.51,19.51,0,0,0-3.24-.22,11,11,0,0,0-9.36,5v22h-9.36V30.89h9v3.53c2.08-2.59,5.9-4,10.15-4a12.35,12.35,0,0,1,2.81.28Z"/><path d="M202.56,60.27a19.48,19.48,0,0,1-14.62,6.26c-10.3,0-18-7.27-18-18.14,0-9.72,6.41-18.22,17-18.22,10,0,16.49,8.14,16.49,17.86a14.76,14.76,0,0,1-.22,2.66H178.94c.5,4.9,4.53,7.92,9.5,7.92a13.26,13.26,0,0,0,8.93-3.81Zm-8.5-16.06a6.93,6.93,0,0,0-7.13-6.34,7.51,7.51,0,0,0-7.7,6.34Z"/><path d="M211.77,55.37a16.78,16.78,0,0,0,9.58,3.24c2.51,0,4.46-1.22,4.46-3,0-5.26-16.92-3.38-16.92-14.62,0-6.69,6.48-10.87,13.39-10.87A19.79,19.79,0,0,1,234,34l-4.18,6.33A12.68,12.68,0,0,0,223,38.09c-2.59,0-4.75.79-4.75,2.59,0,4.32,16.92,2.67,16.92,14.91,0,7-6.84,10.94-13.68,10.94a21.89,21.89,0,0,1-14.26-5Z"/><path d="M243.38,55.37A16.78,16.78,0,0,0,253,58.61c2.52,0,4.47-1.22,4.47-3,0-5.26-16.92-3.38-16.92-14.62,0-6.69,6.48-10.87,13.39-10.87A19.74,19.74,0,0,1,265.55,34l-4.17,6.33a12.68,12.68,0,0,0-6.77-2.23c-2.59,0-4.75.79-4.75,2.59,0,4.32,16.92,2.67,16.92,14.91,0,7-6.84,10.94-13.68,10.94a21.89,21.89,0,0,1-14.26-5Z"/><path d="M278.37,12.53a5.76,5.76,0,1,1-5.91,5.76A5.81,5.81,0,0,1,278.37,12.53Zm4.68,53.28h-9.36V30.89h9.36Z"/><path d="M307.17,51.63l9.36-20.74h9.58L310.27,65.81h-6.49L287.94,30.89h9.87Z"/><path d="M359.94,60.27a19.45,19.45,0,0,1-14.61,6.26c-10.3,0-18-7.27-18-18.14,0-9.72,6.4-18.22,17-18.22,10,0,16.49,8.14,16.49,17.86a14.76,14.76,0,0,1-.22,2.66H336.33c.5,4.9,4.53,7.92,9.5,7.92a13.26,13.26,0,0,0,8.93-3.81Zm-8.49-16.06a6.93,6.93,0,0,0-7.13-6.34,7.53,7.53,0,0,0-7.71,6.34Z"/><line class="cls-1" x1="4.5" y1="138.73" x2="368.08" y2="4.83"/></svg>