<svg xmlns="http://www.w3.org/2000/svg" viewBox="0 0 1210 805"><defs><style>.cls-1{fill:#fff;}.cls-2{fill:#231f20;}.cls-3{fill:#26b3e8;}</style></defs><title>BrandHub-VectorGraphics</title><g id="Vector"><rect class="cls-1" x="0.12" y="-0.18" width="1210" height="805"/><rect x="600" y="46" width="564" height="712"/><path class="cls-2" d="M88.9,268.55l13.42-18h-5.6a6.21,6.21,0,0,0-5.46,2.65l-7.08,9.52-6.86-9.52a6.21,6.21,0,0,0-5.46-2.65H66.25l13.28,18L65,288.17h5.31a6.21,6.21,0,0,0,5.46-2.65l8.41-11.14,19.69,27.22a6.12,6.12,0,0,0,5.46,2.65h5.75Zm107.46,19.62H204V250.56h-7.6Zm-60.26,0h7.6V250.56h-7.6Zm115.21,13.28,27.51-50.89h-4.13c-2.51,0-4.42.74-5.46,2.65l-10.84,20.14L249,253.21c-1-2-3-2.65-5.45-2.65h-4L254,281.24l-12.61,23h4.13C248.14,304.25,250.2,303.44,251.31,301.45Zm-98.54-50.89v37.61h7.6V262.36a12,12,0,0,1,10-5.39c5.6,0,9.44,3.55,9.44,10.63v17a3.42,3.42,0,0,0,3.54,3.61h4.05v-21.9c0-9.74-6.19-16.52-15.19-16.52a16.9,16.9,0,0,0-11.8,4.5v-3.69Zm65.28,24.26c0,8.19,5,14,14,14a19.36,19.36,0,0,0,5.53-.74L236,281.46a15.67,15.67,0,0,1-3.46.37c-3.69,0-6.94-2-6.94-7.15V257.34h10.62l-3.09-6.78h-7.53V235.44l-7.59,3.32v11.8h-8v6.78h8ZM112.72,257.34v30.83h7.6V257.34h9.73v-6.78h-9.73v-2.8c0-6.42,3.83-8.56,7.59-8.56a9.19,9.19,0,0,1,2.59.37l1.55-6.71a13.28,13.28,0,0,0-4.73-.74c-9.44,0-14.6,7-14.6,15.49v2.95h-4l-4.8,6.78Zm207,11.21,13.43-18h-5.61a6.21,6.21,0,0,0-5.46,2.65L315,262.73l-6.86-9.52a6.21,6.21,0,0,0-5.46-2.65h-5.6l13.27,18-14.53,19.62h5.31a6.2,6.2,0,0,0,5.46-2.65L315,274.38l19.69,27.22a6.13,6.13,0,0,0,5.46,2.65h5.76Zm57.56,19.62h7.6V250.56h-7.6Zm-35-55v55h8V263.3h18.47v-7.74H350.37V240.79H371.2l5-7.64Z"/><path class="cls-2" d="M319.74,137.1l13.43-18h-5.61a6.21,6.21,0,0,0-5.46,2.65L315,131.28l-6.86-9.52a6.21,6.21,0,0,0-5.46-2.65h-5.6l13.27,18-14.53,19.62h5.31a6.2,6.2,0,0,0,5.46-2.65L315,142.93l19.69,27.22a6.13,6.13,0,0,0,5.46,2.65h5.76Zm31.42-18H339.58l-4.79,6.78h8.77v30.83h7.6ZM115.08,172.8h-5.75a6.12,6.12,0,0,1-5.46-2.65L84.18,142.93l-8.41,11.14a6.21,6.21,0,0,1-5.46,2.65H65L79.53,137.1l-13.28-18h5.61a6.21,6.21,0,0,1,5.46,2.65l6.86,9.52,7.08-9.52a6.21,6.21,0,0,1,5.46-2.65h5.6l-13.42,18Zm81.28-16.08H204V119.11h-7.6Zm-60.26,0h7.6V119.11h-7.6ZM251.31,170l27.51-50.89h-4.13c-2.51,0-4.42.73-5.46,2.65L258.39,141.9,249,121.76c-1-2-3-2.65-5.45-2.65h-4L254,149.79l-12.61,23h4.13C248.14,172.8,250.2,172,251.31,170Zm-98.54-50.89v37.61h7.6V130.91a12,12,0,0,1,10-5.39c5.6,0,9.44,3.54,9.44,10.62v17a3.42,3.42,0,0,0,3.54,3.61h4.05v-21.9c0-9.74-6.19-16.53-15.19-16.53a16.94,16.94,0,0,0-11.8,4.5v-3.68Zm65.28,24.26c0,8.19,5,14,14,14a19.36,19.36,0,0,0,5.53-.74L236,150a15.67,15.67,0,0,1-3.46.37c-3.69,0-6.94-2-6.94-7.16V125.89h10.62l-3.09-6.78h-7.53V104l-7.59,3.31v11.81h-8v6.78h8ZM112.72,125.89v30.83h7.6V125.89h9.73v-6.78h-9.73V116.3c0-6.41,3.83-8.55,7.59-8.55a8.84,8.84,0,0,1,2.59.37l1.55-6.72a13.56,13.56,0,0,0-4.73-.73c-9.44,0-14.6,7-14.6,15.49v3h-4l-4.8,6.78Z"/><path class="cls-2" d="M88.9,400l13.42-18h-5.6a6.22,6.22,0,0,0-5.46,2.66l-7.08,9.51-6.86-9.51A6.22,6.22,0,0,0,71.86,382H66.25l13.28,18L65,419.63h5.31A6.22,6.22,0,0,0,75.77,417l8.41-11.14,19.69,27.22a6.13,6.13,0,0,0,5.46,2.66h5.75Zm107.46,19.62H204V382h-7.6Zm-60.26,0h7.6V382h-7.6ZM251.31,432.9,278.82,382h-4.13c-2.51,0-4.42.74-5.46,2.66L258.39,404.8,249,384.67c-1-2-3-2.66-5.45-2.66h-4L254,412.69l-12.61,23h4.13C248.14,435.71,250.2,434.89,251.31,432.9ZM152.77,382v37.62h7.6V393.81a12,12,0,0,1,10-5.38c5.6,0,9.44,3.54,9.44,10.62v17a3.43,3.43,0,0,0,3.54,3.62h4.05V397.72c0-9.74-6.19-16.52-15.19-16.52a16.94,16.94,0,0,0-11.8,4.5V382Zm65.28,24.27c0,8.18,5,14,14,14a19,19,0,0,0,5.53-.74L236,412.91a15.09,15.09,0,0,1-3.46.37c-3.69,0-6.94-2-6.94-7.15V388.8h10.62L233.17,382h-7.53V366.89l-7.59,3.32V382h-8v6.79h8ZM112.72,388.8v30.83h7.6V388.8h9.73V382h-9.73v-2.8c0-6.42,3.83-8.56,7.59-8.56a9.19,9.19,0,0,1,2.59.37l1.55-6.71a13.28,13.28,0,0,0-4.73-.74c-9.44,0-14.6,7-14.6,15.49V382h-4l-4.8,6.79Zm182.66,22.56a17.78,17.78,0,0,0,11.34,4.51c4.69,0,8.63-2.62,8.63-6.57,0-9.61-21.61-4.35-21.61-17.17,0-6.82,6.41-10.93,12.73-10.93a21.69,21.69,0,0,1,12.08,3.61l-2.46,3.87c-3.21-2.06-5.51-3-9.37-3s-8.3,2.05-8.3,6.4c0,8.3,21.61,3.87,21.61,17,0,7-5.91,11.26-13,11.26A21.24,21.24,0,0,1,292.51,415Zm81.91-25.64c-.49-.08-2-.08-2.21-.08a13,13,0,0,0-11.75,8.3v25.69h-4.69V382h4.69V387c1.72-2.63,6-5.75,11.83-5.75.66,0,2.3.08,2.79.16Zm-27.42.75H337.3v20.46c0,3.38.65,5,1.65,6.27a7.68,7.68,0,0,0,6.26,2.64,15.07,15.07,0,0,0,4-.5l.83,4.29a18.37,18.37,0,0,1-4.87.66c-3.46,0-7.5-1.07-10.06-4.29-1.65-2.06-2.56-4.78-2.56-9.23v-20.3h-8.75V382h8.75V368.59l4.71-1.7V382h12.57Zm65.66,13c0-10.43-7.4-18.32-17.42-18.32-10.6,0-17.91,8.79-17.91,19.56,0,11.66,8.29,19.55,18.81,19.55a19.44,19.44,0,0,0,15.79-7.52l-1.18-1.05a3,3,0,0,0-4,0A14.91,14.91,0,0,1,399,415.87c-8.63,0-13.8-6.73-14.13-14.7h30.57A14.63,14.63,0,0,0,415.53,399.52Zm-30.4-2.63c1.39-6.49,6.32-11.25,13-11.25,6.49,0,11.59,4.68,12.57,11.25ZM453.53,382v5.19a18.24,18.24,0,0,0-13.72-6,19.07,19.07,0,0,0-11.92,4.19,20,20,0,0,0-7,15.37,19.25,19.25,0,0,0,8,16,19,19,0,0,0,11.17,3.53A16.5,16.5,0,0,0,453.53,414v5.63h4.54V382Zm-.16,25.65c-3,5.09-7.89,8.22-13.4,8.22a14.5,14.5,0,0,1-14.38-15.12,15.32,15.32,0,0,1,5.26-11.92,14.46,14.46,0,0,1,9-3.2,16.49,16.49,0,0,1,13.48,7.56Zm44.18-7.34v16.95a2.35,2.35,0,0,0,2.35,2.35h2.35V399.75h0a32.81,32.81,0,0,0-.41-5.37c2.31-4.53,6.93-8.74,12.95-8.74a11.19,11.19,0,0,1,9.49,4.95c1.32,2,2.14,4.45,2.14,9.73v16.95a2.35,2.35,0,0,0,2.35,2.35h2.35V399.75c0-5-.82-8.09-2.22-10.64a15.94,15.94,0,0,0-14.11-7.92,17.49,17.49,0,0,0-14.76,8,15.67,15.67,0,0,0-14.11-8,16.15,16.15,0,0,0-12.7,5.94V382h-4.54v37.61h4.7V393.48a14.56,14.56,0,0,1,12.54-7.84,11.19,11.19,0,0,1,9.49,4.95c1.32,2,2.14,4.45,2.14,9.73Z"/><path class="cls-2" d="M88.9,531.51l13.42-18h-5.6a6.21,6.21,0,0,0-5.46,2.65l-7.08,9.52-6.86-9.52a6.21,6.21,0,0,0-5.46-2.65H66.25l13.28,18L65,551.13h5.31a6.21,6.21,0,0,0,5.46-2.65l8.41-11.14,19.69,27.22a6.12,6.12,0,0,0,5.46,2.65h5.75Zm107.46,19.62H204V513.52h-7.6Zm-60.26,0h7.6V513.52h-7.6Zm115.21,13.28,27.51-50.89h-4.13c-2.51,0-4.42.73-5.46,2.65l-10.84,20.14L249,516.17c-1-2-3-2.65-5.45-2.65h-4L254,544.2l-12.61,23h4.13C248.14,567.21,250.2,566.4,251.31,564.41Zm-98.54-50.89v37.61h7.6V525.32a12,12,0,0,1,10-5.39c5.6,0,9.44,3.54,9.44,10.62v17a3.42,3.42,0,0,0,3.54,3.61h4.05v-21.9c0-9.74-6.19-16.53-15.19-16.53a16.94,16.94,0,0,0-11.8,4.5v-3.68Zm65.28,24.26c0,8.19,5,14,14,14a19.36,19.36,0,0,0,5.53-.74L236,544.42a15.67,15.67,0,0,1-3.46.37c-3.69,0-6.94-2-6.94-7.16V520.3h10.62l-3.09-6.78h-7.53V498.4l-7.59,3.31v11.81h-8v6.78h8ZM112.72,520.3v30.83h7.6V520.3h9.73v-6.78h-9.73v-2.81c0-6.41,3.83-8.55,7.59-8.55a8.84,8.84,0,0,1,2.59.37l1.55-6.72a13.32,13.32,0,0,0-4.73-.73c-9.44,0-14.6,7-14.6,15.49v2.95h-4l-4.8,6.78Zm300,11.53c0-5.28-.82-7.75-2.14-9.73a11.19,11.19,0,0,0-9.49-5A14.52,14.52,0,0,0,388.52,525v26.15h-4.7V513.52h4.53v5.11a16.18,16.18,0,0,1,12.7-5.94,15.69,15.69,0,0,1,14.11,8,17.52,17.52,0,0,1,14.76-8A16,16,0,0,1,444,520.61c1.4,2.56,2.23,5.61,2.23,10.64v19.88h-2.35a2.36,2.36,0,0,1-2.36-2.35V531.83c0-5.28-.82-7.75-2.14-9.73a11.19,11.19,0,0,0-9.49-5c-6,0-10.64,4.2-12.95,8.74a32.66,32.66,0,0,1,.42,5.36h0v19.88H415a2.36,2.36,0,0,1-2.36-2.35V531.83Zm76.39-.8c0-10.44-7.4-18.33-17.42-18.33-10.6,0-17.92,8.8-17.92,19.56,0,11.67,8.3,19.56,18.82,19.56a19.46,19.46,0,0,0,15.79-7.52l-1.18-1.06a3,3,0,0,0-4,0,14.87,14.87,0,0,1-10.58,4.09c-8.63,0-13.81-6.74-14.13-14.71H489A12.88,12.88,0,0,0,489.07,531Zm-30.41-2.63c1.4-6.49,6.33-11.26,13-11.26,6.49,0,11.58,4.68,12.57,11.26Zm-82.56,3.86c0-10.76-8.13-19.56-19.31-19.56s-19.31,8.8-19.31,19.56,8.14,19.56,19.31,19.56S376.1,543,376.1,532.26Zm-4.68,0c0,8.38-6.16,15.12-14.63,15.12s-14.62-6.74-14.62-15.12,6.16-15.12,14.62-15.12S371.42,523.88,371.42,532.26ZM326.87,519c1.91,2.52,3.18,5.51,3.18,11.9v20.24H327.7a2.48,2.48,0,0,1-2.35-2.49V531.22c0-4.31-.61-7-2.11-9.1a11.5,11.5,0,0,0-9.67-5,14.72,14.72,0,0,0-12.83,7.71v26.26H296V496.89l4.7-1.92v23.45c2.73-3.58,7.55-5.72,12.92-5.72A16.11,16.11,0,0,1,326.87,519Z"/><path class="cls-2" d="M324.91,663.28c0-5.28-.83-7.75-2.15-9.73a11.19,11.19,0,0,0-9.48-4.95,14.52,14.52,0,0,0-12.54,7.84v26.14H296V645h4.53v5.11a16.2,16.2,0,0,1,12.71-5.93,15.65,15.65,0,0,1,14.1,8,17.5,17.5,0,0,1,14.77-8,16,16,0,0,1,14.1,7.91c1.4,2.56,2.23,5.61,2.23,10.64v19.88h-2.35a2.35,2.35,0,0,1-2.35-2.35v-17c0-5.28-.83-7.75-2.15-9.73a11.19,11.19,0,0,0-9.48-4.95c-6,0-10.64,4.21-12.95,8.74a33.92,33.92,0,0,1,.41,5.36h0v19.88h-2.35a2.35,2.35,0,0,1-2.35-2.35v-17Zm199.5-.8c0-10.44-7.39-18.32-17.42-18.32-10.6,0-17.91,8.79-17.91,19.55,0,11.67,8.3,19.56,18.82,19.56a19.44,19.44,0,0,0,15.78-7.52l-1.17-1a3,3,0,0,0-4,0,14.9,14.9,0,0,1-10.58,4.09c-8.63,0-13.81-6.74-14.14-14.71h30.57A14.47,14.47,0,0,0,524.41,662.48ZM494,659.85c1.4-6.49,6.33-11.26,13-11.26,6.49,0,11.59,4.69,12.57,11.26Zm-88.86,3.86c0-10.76-8.14-19.55-19.31-19.55s-19.31,8.79-19.31,19.55,8.13,19.56,19.31,19.56S405.15,674.48,405.15,663.71Zm-4.69,0c0,8.38-6.16,15.12-14.62,15.12s-14.63-6.74-14.63-15.12,6.16-15.12,14.63-15.12S400.46,655.33,400.46,663.71Zm13.63-35.37v54.24h4.54v-5.64a16.5,16.5,0,0,0,13.47,6.33,19,19,0,0,0,11.18-3.53,19.26,19.26,0,0,0,8-16,20,20,0,0,0-7-15.36,19,19,0,0,0-11.91-4.19A18.27,18.27,0,0,0,418.79,650V626.42Zm4.7,42.28V656.15a16.51,16.51,0,0,1,13.48-7.56,14.47,14.47,0,0,1,9,3.21,15.34,15.34,0,0,1,5.26,11.91,14.48,14.48,0,0,1-14.39,15.12C426.68,678.83,421.75,675.71,418.79,670.62Zm45.44,12h-4.7V645h4.7Zm-2.35-44.84a3.07,3.07,0,1,0-3.06-3.07A3.07,3.07,0,0,0,461.88,637.74Zm18.47,44.84h-4.7V628.34l4.7-1.92Z"/><path class="cls-3" d="M385.73,629a21.6,21.6,0,0,0-15.37,6.37,2.52,2.52,0,0,0,1.78,4.3,2.52,2.52,0,0,0,1.79-.74,16.73,16.73,0,0,1,23.62,0,2.52,2.52,0,0,0,3.57-3.56A21.65,21.65,0,0,0,385.73,629Zm0,69.46a21.64,21.64,0,0,0,15.39-6.36,2.53,2.53,0,0,0,.73-1.78,2.52,2.52,0,0,0-4.3-1.79,16.73,16.73,0,0,1-23.62,0,2.52,2.52,0,0,0-1.79-.74,2.52,2.52,0,0,0-1.78,4.31,21.59,21.59,0,0,0,15.37,6.36Z"/><path class="cls-2" d="M88.9,663l13.42-18h-5.6a6.21,6.21,0,0,0-5.46,2.65l-7.08,9.52-6.86-9.52A6.21,6.21,0,0,0,71.86,645H66.25l13.28,18L65,682.58h5.31a6.21,6.21,0,0,0,5.46-2.65l8.41-11.14L103.87,696a6.12,6.12,0,0,0,5.46,2.65h5.75Zm107.46,19.62H204V645h-7.6Zm-60.26,0h7.6V645h-7.6Zm115.21,13.28L278.82,645h-4.13c-2.51,0-4.42.73-5.46,2.65l-10.84,20.14L249,647.62c-1-2-3-2.65-5.45-2.65h-4L254,675.65l-12.61,23h4.13C248.14,698.66,250.2,697.85,251.31,695.86ZM152.77,645v37.61h7.6V656.77a12,12,0,0,1,10-5.39c5.6,0,9.44,3.54,9.44,10.62v17a3.42,3.42,0,0,0,3.54,3.61h4.05v-21.9c0-9.74-6.19-16.52-15.19-16.52a16.93,16.93,0,0,0-11.8,4.49V645Zm65.28,24.26c0,8.19,5,14,14,14a19.36,19.36,0,0,0,5.53-.74L236,675.87a15.67,15.67,0,0,1-3.46.37c-3.69,0-6.94-2-6.94-7.15V651.75h10.62L233.17,645h-7.53V629.85l-7.59,3.32V645h-8v6.78h8ZM112.72,651.75v30.83h7.6V651.75h9.73V645h-9.73v-2.81c0-6.41,3.83-8.55,7.59-8.55a9.19,9.19,0,0,1,2.59.37l1.55-6.71a13.28,13.28,0,0,0-4.73-.74c-9.44,0-14.6,7-14.6,15.49v3h-4l-4.8,6.78Z"/><path class="cls-1" d="M675.9,268.55l13.42-18h-5.6a6.21,6.21,0,0,0-5.46,2.65l-7.08,9.52-6.86-9.52a6.21,6.21,0,0,0-5.46-2.65h-5.61l13.28,18L652,288.17h5.31a6.21,6.21,0,0,0,5.46-2.65l8.41-11.14,19.69,27.22a6.12,6.12,0,0,0,5.46,2.65h5.75Zm107.46,19.62H791V250.56h-7.6Zm-60.26,0h7.6V250.56h-7.6Zm115.21,13.28,27.51-50.89h-4.13c-2.51,0-4.42.74-5.46,2.65l-10.84,20.14L836,253.21c-.95-2-2.95-2.65-5.45-2.65h-4L841,281.24l-12.61,23h4.13C835.14,304.25,837.2,303.44,838.31,301.45Zm-98.54-50.89v37.61h7.6V262.36a12,12,0,0,1,10-5.39c5.6,0,9.44,3.55,9.44,10.63v17a3.42,3.42,0,0,0,3.54,3.61h4.05v-21.9c0-9.74-6.19-16.52-15.19-16.52a16.9,16.9,0,0,0-11.8,4.5v-3.69Zm65.28,24.26c0,8.19,5,14,14,14a19.36,19.36,0,0,0,5.53-.74L823,281.46a15.67,15.67,0,0,1-3.46.37c-3.69,0-6.94-2-6.94-7.15V257.34h10.62l-3.09-6.78h-7.53V235.44l-7.59,3.32v11.8h-8v6.78h8ZM699.72,257.34v30.83h7.6V257.34h9.73v-6.78h-9.73v-2.8c0-6.42,3.83-8.56,7.59-8.56a9.19,9.19,0,0,1,2.59.37l1.55-6.71a13.28,13.28,0,0,0-4.73-.74c-9.44,0-14.6,7-14.6,15.49v2.95h-4l-4.8,6.78Zm207,11.21,13.43-18h-5.61a6.21,6.21,0,0,0-5.46,2.65L902,262.73l-6.86-9.52a6.21,6.21,0,0,0-5.46-2.65h-5.6l13.27,18-14.53,19.62h5.31a6.2,6.2,0,0,0,5.46-2.65L902,274.38l19.69,27.22a6.13,6.13,0,0,0,5.46,2.65h5.76Zm57.56,19.62h7.6V250.56h-7.6Zm-35-55v55h8V263.3h18.47v-7.74H937.37V240.79H958.2l5-7.64Z"/><path class="cls-1" d="M906.74,137.1l13.43-18h-5.61a6.21,6.21,0,0,0-5.46,2.65L902,131.28l-6.86-9.52a6.21,6.21,0,0,0-5.46-2.65h-5.6l13.27,18-14.53,19.62h5.31a6.2,6.2,0,0,0,5.46-2.65L902,142.93l19.69,27.22a6.13,6.13,0,0,0,5.46,2.65h5.76Zm31.42-18H926.58l-4.79,6.78h8.77v30.83h7.6ZM702.08,172.8h-5.75a6.12,6.12,0,0,1-5.46-2.65l-19.69-27.22-8.41,11.14a6.21,6.21,0,0,1-5.46,2.65H652l14.53-19.62-13.28-18h5.61a6.21,6.21,0,0,1,5.46,2.65l6.86,9.52,7.08-9.52a6.21,6.21,0,0,1,5.46-2.65h5.6l-13.42,18Zm81.28-16.08H791V119.11h-7.6Zm-60.26,0h7.6V119.11h-7.6ZM838.31,170l27.51-50.89h-4.13c-2.51,0-4.42.73-5.46,2.65L845.39,141.9,836,121.76c-.95-2-2.95-2.65-5.45-2.65h-4L841,149.79l-12.61,23h4.13C835.14,172.8,837.2,172,838.31,170Zm-98.54-50.89v37.61h7.6V130.91a12,12,0,0,1,10-5.39c5.6,0,9.44,3.54,9.44,10.62v17a3.42,3.42,0,0,0,3.54,3.61h4.05v-21.9c0-9.74-6.19-16.53-15.19-16.53a16.94,16.94,0,0,0-11.8,4.5v-3.68Zm65.28,24.26c0,8.19,5,14,14,14a19.36,19.36,0,0,0,5.53-.74L823,150a15.67,15.67,0,0,1-3.46.37c-3.69,0-6.94-2-6.94-7.16V125.89h10.62l-3.09-6.78h-7.53V104l-7.59,3.31v11.81h-8v6.78h8ZM699.72,125.89v30.83h7.6V125.89h9.73v-6.78h-9.73V116.3c0-6.41,3.83-8.55,7.59-8.55a8.84,8.84,0,0,1,2.59.37l1.55-6.72a13.56,13.56,0,0,0-4.73-.73c-9.44,0-14.6,7-14.6,15.49v3h-4l-4.8,6.78Z"/><path class="cls-1" d="M675.9,400l13.42-18h-5.6a6.22,6.22,0,0,0-5.46,2.66l-7.08,9.51-6.86-9.51a6.22,6.22,0,0,0-5.46-2.66h-5.61l13.28,18L652,419.63h5.31a6.22,6.22,0,0,0,5.46-2.66l8.41-11.14,19.69,27.22a6.13,6.13,0,0,0,5.46,2.66h5.75Zm107.46,19.62H791V382h-7.6Zm-60.26,0h7.6V382h-7.6ZM838.31,432.9,865.82,382h-4.13c-2.51,0-4.42.74-5.46,2.66L845.39,404.8,836,384.67c-.95-2-2.95-2.66-5.45-2.66h-4L841,412.69l-12.61,23h4.13C835.14,435.71,837.2,434.89,838.31,432.9ZM739.77,382v37.62h7.6V393.81a12,12,0,0,1,10-5.38c5.6,0,9.44,3.54,9.44,10.62v17a3.43,3.43,0,0,0,3.54,3.62h4.05V397.72c0-9.74-6.19-16.52-15.19-16.52a16.94,16.94,0,0,0-11.8,4.5V382Zm65.28,24.27c0,8.18,5,14,14,14a19,19,0,0,0,5.53-.74L823,412.91a15.09,15.09,0,0,1-3.46.37c-3.69,0-6.94-2-6.94-7.15V388.8h10.62L820.17,382h-7.53V366.89l-7.59,3.32V382h-8v6.79h8ZM699.72,388.8v30.83h7.6V388.8h9.73V382h-9.73v-2.8c0-6.42,3.83-8.56,7.59-8.56a9.19,9.19,0,0,1,2.59.37l1.55-6.71a13.28,13.28,0,0,0-4.73-.74c-9.44,0-14.6,7-14.6,15.49V382h-4l-4.8,6.79Zm182.66,22.56a17.78,17.78,0,0,0,11.34,4.51c4.69,0,8.63-2.62,8.63-6.57,0-9.61-21.61-4.35-21.61-17.17,0-6.82,6.41-10.93,12.73-10.93a21.69,21.69,0,0,1,12.08,3.61l-2.46,3.87c-3.21-2.06-5.51-3-9.37-3s-8.3,2.05-8.3,6.4c0,8.3,21.61,3.87,21.61,17,0,7-5.91,11.26-13,11.26A21.24,21.24,0,0,1,879.51,415Zm81.91-25.64c-.49-.08-2-.08-2.21-.08a13,13,0,0,0-11.75,8.3v25.69h-4.69V382h4.69V387c1.72-2.63,6-5.75,11.83-5.75.66,0,2.3.08,2.79.16Zm-27.42.75H924.3v20.46c0,3.38.65,5,1.65,6.27a7.68,7.68,0,0,0,6.26,2.64,15.07,15.07,0,0,0,4-.5l.83,4.29a18.37,18.37,0,0,1-4.87.66c-3.46,0-7.5-1.07-10.06-4.29-1.65-2.06-2.56-4.78-2.56-9.23v-20.3h-8.75V382h8.75V368.59l4.71-1.7V382h12.57Zm65.66,13c0-10.43-7.4-18.32-17.42-18.32-10.6,0-17.91,8.79-17.91,19.56,0,11.66,8.29,19.55,18.81,19.55a19.44,19.44,0,0,0,15.79-7.52l-1.18-1.05a3,3,0,0,0-4,0A14.91,14.91,0,0,1,986,415.87c-8.63,0-13.8-6.73-14.13-14.7h30.57A14.63,14.63,0,0,0,1002.53,399.52Zm-30.4-2.63c1.39-6.49,6.32-11.25,13-11.25,6.49,0,11.59,4.68,12.57,11.25Zm68.4-14.88v5.19a18.24,18.24,0,0,0-13.72-6,19.07,19.07,0,0,0-11.92,4.19,20,20,0,0,0-7,15.37,19.25,19.25,0,0,0,8,16,19,19,0,0,0,11.17,3.53,16.5,16.5,0,0,0,13.48-6.32v5.63h4.54V382Zm-.16,25.65c-3,5.09-7.89,8.22-13.4,8.22a14.5,14.5,0,0,1-14.38-15.12,15.32,15.32,0,0,1,5.26-11.92,14.46,14.46,0,0,1,9-3.2,16.49,16.49,0,0,1,13.48,7.56Zm44.18-7.34v16.95a2.35,2.35,0,0,0,2.35,2.35h2.35V399.75h0a32.81,32.81,0,0,0-.41-5.37c2.31-4.53,6.93-8.74,13-8.74a11.19,11.19,0,0,1,9.49,4.95c1.32,2,2.14,4.45,2.14,9.73v16.95a2.35,2.35,0,0,0,2.35,2.35h2.35V399.75c0-5-.82-8.09-2.22-10.64a15.94,15.94,0,0,0-14.11-7.92,17.49,17.49,0,0,0-14.76,8,15.67,15.67,0,0,0-14.11-8,16.15,16.15,0,0,0-12.7,5.94V382h-4.54v37.61h4.7V393.48a14.56,14.56,0,0,1,12.54-7.84,11.19,11.19,0,0,1,9.49,4.95c1.32,2,2.14,4.45,2.14,9.73Z"/><path class="cls-1" d="M675.9,531.51l13.42-18h-5.6a6.21,6.21,0,0,0-5.46,2.65l-7.08,9.52-6.86-9.52a6.21,6.21,0,0,0-5.46-2.65h-5.61l13.28,18L652,551.13h5.31a6.21,6.21,0,0,0,5.46-2.65l8.41-11.14,19.69,27.22a6.12,6.12,0,0,0,5.46,2.65h5.75Zm107.46,19.62H791V513.52h-7.6Zm-60.26,0h7.6V513.52h-7.6Zm115.21,13.28,27.51-50.89h-4.13c-2.51,0-4.42.73-5.46,2.65l-10.84,20.14L836,516.17c-.95-2-2.95-2.65-5.45-2.65h-4L841,544.2l-12.61,23h4.13C835.14,567.21,837.2,566.4,838.31,564.41Zm-98.54-50.89v37.61h7.6V525.32a12,12,0,0,1,10-5.39c5.6,0,9.44,3.54,9.44,10.62v17a3.42,3.42,0,0,0,3.54,3.61h4.05v-21.9c0-9.74-6.19-16.53-15.19-16.53a16.94,16.94,0,0,0-11.8,4.5v-3.68Zm65.28,24.26c0,8.19,5,14,14,14a19.36,19.36,0,0,0,5.53-.74L823,544.42a15.67,15.67,0,0,1-3.46.37c-3.69,0-6.94-2-6.94-7.16V520.3h10.62l-3.09-6.78h-7.53V498.4l-7.59,3.31v11.81h-8v6.78h8ZM699.72,520.3v30.83h7.6V520.3h9.73v-6.78h-9.73v-2.81c0-6.41,3.83-8.55,7.59-8.55a8.84,8.84,0,0,1,2.59.37l1.55-6.72a13.32,13.32,0,0,0-4.73-.73c-9.44,0-14.6,7-14.6,15.49v2.95h-4l-4.8,6.78Zm300,11.53c0-5.28-.82-7.75-2.14-9.73a11.19,11.19,0,0,0-9.49-5A14.52,14.52,0,0,0,975.52,525v26.15h-4.7V513.52h4.53v5.11a16.18,16.18,0,0,1,12.7-5.94,15.69,15.69,0,0,1,14.11,8,17.52,17.52,0,0,1,14.76-8,16,16,0,0,1,14.11,7.92c1.4,2.56,2.23,5.61,2.23,10.64v19.88h-2.35a2.36,2.36,0,0,1-2.36-2.35V531.83c0-5.28-.82-7.75-2.14-9.73a11.19,11.19,0,0,0-9.49-5c-6,0-10.64,4.2-12.95,8.74a32.66,32.66,0,0,1,.42,5.36h0v19.88H1002a2.36,2.36,0,0,1-2.36-2.35V531.83Zm76.39-.8c0-10.44-7.4-18.33-17.42-18.33-10.6,0-17.92,8.8-17.92,19.56,0,11.67,8.3,19.56,18.82,19.56a19.46,19.46,0,0,0,15.79-7.52l-1.18-1.06a3,3,0,0,0-4,0,14.87,14.87,0,0,1-10.58,4.09c-8.63,0-13.81-6.74-14.13-14.71H1076A12.88,12.88,0,0,0,1076.07,531Zm-30.41-2.63c1.4-6.49,6.33-11.26,13-11.26,6.49,0,11.58,4.68,12.57,11.26Zm-82.56,3.86c0-10.76-8.13-19.56-19.31-19.56s-19.31,8.8-19.31,19.56,8.14,19.56,19.31,19.56S963.1,543,963.1,532.26Zm-4.68,0c0,8.38-6.16,15.12-14.63,15.12s-14.62-6.74-14.62-15.12,6.16-15.12,14.62-15.12S958.42,523.88,958.42,532.26ZM913.87,519c1.91,2.52,3.18,5.51,3.18,11.9v20.24H914.7a2.48,2.48,0,0,1-2.35-2.49V531.22c0-4.31-.61-7-2.11-9.1a11.5,11.5,0,0,0-9.67-5,14.72,14.72,0,0,0-12.83,7.71v26.26H883V496.89l4.7-1.92v23.45c2.73-3.58,7.55-5.72,12.92-5.72A16.11,16.11,0,0,1,913.87,519Z"/><path class="cls-1" d="M911.91,663.28c0-5.28-.83-7.75-2.15-9.73a11.19,11.19,0,0,0-9.48-4.95,14.52,14.52,0,0,0-12.54,7.84v26.14H883V645h4.53v5.11a16.2,16.2,0,0,1,12.71-5.93,15.65,15.65,0,0,1,14.1,8,17.5,17.5,0,0,1,14.77-8,16,16,0,0,1,14.1,7.91c1.4,2.56,2.23,5.61,2.23,10.64v19.88h-2.35a2.35,2.35,0,0,1-2.35-2.35v-17c0-5.28-.83-7.75-2.15-9.73a11.19,11.19,0,0,0-9.48-4.95c-6,0-10.64,4.21-12.95,8.74a33.92,33.92,0,0,1,.41,5.36h0v19.88h-2.35a2.35,2.35,0,0,1-2.35-2.35v-17Zm199.5-.8c0-10.44-7.39-18.32-17.42-18.32-10.6,0-17.91,8.79-17.91,19.55,0,11.67,8.3,19.56,18.82,19.56a19.44,19.44,0,0,0,15.78-7.52l-1.17-1a3,3,0,0,0-4,0,14.9,14.9,0,0,1-10.58,4.09c-8.63,0-13.81-6.74-14.14-14.71h30.57A14.47,14.47,0,0,0,1111.41,662.48Zm-30.4-2.63c1.4-6.49,6.33-11.26,13-11.26,6.49,0,11.59,4.69,12.57,11.26Zm-88.86,3.86c0-10.76-8.14-19.55-19.31-19.55s-19.31,8.79-19.31,19.55,8.13,19.56,19.31,19.56S992.15,674.48,992.15,663.71Zm-4.69,0c0,8.38-6.16,15.12-14.62,15.12s-14.63-6.74-14.63-15.12,6.16-15.12,14.63-15.12S987.46,655.33,987.46,663.71Zm13.63-35.37v54.24h4.54v-5.64a16.5,16.5,0,0,0,13.47,6.33,19,19,0,0,0,11.18-3.53,19.26,19.26,0,0,0,8-16,20,20,0,0,0-7-15.36,19,19,0,0,0-11.91-4.19,18.27,18.27,0,0,0-13.56,5.83V626.42Zm4.7,42.28V656.15a16.51,16.51,0,0,1,13.48-7.56,14.47,14.47,0,0,1,9,3.21,15.34,15.34,0,0,1,5.26,11.91,14.48,14.48,0,0,1-14.39,15.12C1013.68,678.83,1008.75,675.71,1005.79,670.62Zm45.44,12h-4.7V645h4.7Zm-2.35-44.84a3.07,3.07,0,1,0-3.06-3.07A3.07,3.07,0,0,0,1048.88,637.74Zm18.47,44.84h-4.7V628.34l4.7-1.92Z"/><path class="cls-3" d="M972.73,629a21.6,21.6,0,0,0-15.37,6.37,2.52,2.52,0,0,0,1.78,4.3,2.52,2.52,0,0,0,1.79-.74,16.73,16.73,0,0,1,23.62,0,2.52,2.52,0,0,0,3.57-3.56A21.65,21.65,0,0,0,972.73,629Zm0,69.46a21.64,21.64,0,0,0,15.39-6.36,2.53,2.53,0,0,0,.73-1.78,2.52,2.52,0,0,0-4.3-1.79,16.73,16.73,0,0,1-23.62,0,2.52,2.52,0,0,0-1.79-.74,2.52,2.52,0,0,0-1.78,4.31,21.59,21.59,0,0,0,15.37,6.36Z"/><path class="cls-1" d="M675.9,663l13.42-18h-5.6a6.21,6.21,0,0,0-5.46,2.65l-7.08,9.52-6.86-9.52a6.21,6.21,0,0,0-5.46-2.65h-5.61l13.28,18L652,682.58h5.31a6.21,6.21,0,0,0,5.46-2.65l8.41-11.14L690.87,696a6.12,6.12,0,0,0,5.46,2.65h5.75Zm107.46,19.62H791V645h-7.6Zm-60.26,0h7.6V645h-7.6Zm115.21,13.28L865.82,645h-4.13c-2.51,0-4.42.73-5.46,2.65l-10.84,20.14L836,647.62c-.95-2-2.95-2.65-5.45-2.65h-4L841,675.65l-12.61,23h4.13C835.14,698.66,837.2,697.85,838.31,695.86ZM739.77,645v37.61h7.6V656.77a12,12,0,0,1,10-5.39c5.6,0,9.44,3.54,9.44,10.62v17a3.42,3.42,0,0,0,3.54,3.61h4.05v-21.9c0-9.74-6.19-16.52-15.19-16.52a16.93,16.93,0,0,0-11.8,4.49V645Zm65.28,24.26c0,8.19,5,14,14,14a19.36,19.36,0,0,0,5.53-.74L823,675.87a15.67,15.67,0,0,1-3.46.37c-3.69,0-6.94-2-6.94-7.15V651.75h10.62L820.17,645h-7.53V629.85l-7.59,3.32V645h-8v6.78h8ZM699.72,651.75v30.83h7.6V651.75h9.73V645h-9.73v-2.81c0-6.41,3.83-8.55,7.59-8.55a9.19,9.19,0,0,1,2.59.37l1.55-6.71a13.28,13.28,0,0,0-4.73-.74c-9.44,0-14.6,7-14.6,15.49v3h-4l-4.8,6.78Z"/></g></svg>