<svg xmlns="http://www.w3.org/2000/svg" viewBox="0 0 480 186"><defs><style>.cls-1{fill:#fff;}.cls-2{fill:#e2f3f5;}.cls-3{fill:#00d6ca;}.cls-4{fill:none;stroke:#5a5a5c;stroke-miterlimit:10;stroke-width:0.5px;}</style></defs><title>BrandHub-VectorGraphics</title><g id="Vector"><rect class="cls-1" x="-0.17" y="-0.68" width="480.45" height="187.01"/><rect class="cls-2" x="20.96" y="18.5" width="438.16" height="149.34"/><path class="cls-3" d="M228.14,19.05V44.4h5.12V27A8.06,8.06,0,0,1,240,23.37c3.78,0,6.36,2.39,6.36,7.16V42a2.31,2.31,0,0,0,2.39,2.44h2.73V29.63c0-6.56-4.17-11.13-10.24-11.13a11.41,11.41,0,0,0-8,3V19.05Z"/><path class="cls-3" d="M228.14,142.48v25.36h5.12v-17.4a8.06,8.06,0,0,1,6.71-3.63c3.78,0,6.36,2.38,6.36,7.16V165.4a2.32,2.32,0,0,0,2.39,2.44h2.73V153.07c0-6.56-4.17-11.13-10.24-11.13a11.41,11.41,0,0,0-8,3v-2.49Z"/><path class="cls-3" d="M21.51,105.66H46.86v-5.12H29.46a8.06,8.06,0,0,1-3.63-6.72c0-3.77,2.39-6.36,7.16-6.36H44.42a2.31,2.31,0,0,0,2.44-2.38V82.34H32.1C25.53,82.34,21,86.52,21,92.58a11.44,11.44,0,0,0,3,8H21.51Z"/><path class="cls-3" d="M458.44,82.34H433.08v5.12h17.4a8.06,8.06,0,0,1,3.63,6.71c0,3.78-2.38,6.37-7.16,6.37H435.52a2.31,2.31,0,0,0-2.44,2.38v2.74h14.77c6.56,0,11.13-4.18,11.13-10.24a11.42,11.42,0,0,0-3-8h2.49Z"/><rect class="cls-1" x="47.18" y="44.7" width="385.43" height="97.24"/><line class="cls-4" x1="47.18" y1="185.66" x2="47.18" y2="0.34"/><line class="cls-4" x1="0.25" y1="44.7" x2="479.92" y2="44.7"/><line class="cls-4" x1="479.53" y1="141.94" x2="0.64" y2="141.94"/><path d="M111.29,78.46V120h10.23V78.46h13.12V69.31H121.52V65.54c0-8.65,5.17-11.53,10.24-11.53a12.54,12.54,0,0,1,3.48.49l2.09-9a17.88,17.88,0,0,0-6.36-1c-12.73,0-19.68,9.44-19.68,20.87v4h-5.37l-6.46,9.15ZM253.21,102c0,11,6.76,18.89,18.88,18.89a25.88,25.88,0,0,0,7.46-1L277.46,111a21.52,21.52,0,0,1-4.67.49c-5,0-9.34-2.68-9.34-9.64V78.46h14.31l-4.17-9.15H263.45V48.94l-10.24,4.47v15.9H242.38v9.15h10.83V102Zm-88-32.7V120h10.24V85.21A16.12,16.12,0,0,1,188.91,78c7.55,0,12.72,4.77,12.72,14.31v22.86A4.62,4.62,0,0,0,206.4,120h5.47V90.48c0-13.12-8.35-22.26-20.48-22.26a22.87,22.87,0,0,0-15.9,6.06v-5ZM298,137.89l37.08-68.58h-5.57c-3.38,0-6,1-7.35,3.58L307.58,100,295,72.89c-1.29-2.68-4-3.58-7.35-3.58h-5.37l19.48,41.35-17,31h5.56c3.48,0,6.26-1.1,7.75-3.78ZM142.79,120H153V69.31H142.79V120Zm81.2,0h10.24V69.31H224V120ZM114.47,141.67h-7.76a8.28,8.28,0,0,1-7.35-3.58L72.82,101.41l-11.33,15A8.36,8.36,0,0,1,54.14,120H47L66.56,93.56,48.67,69.31h7.56a8.38,8.38,0,0,1,7.35,3.58l9.24,12.82,9.54-12.82a8.4,8.4,0,0,1,7.36-3.58h7.55L79.18,93.56l35.29,48.11ZM432.58,69.31H417l-6.46,9.15h11.83V120h10.23V69.31ZM390.24,93.56l18.09-24.25h-7.55a8.37,8.37,0,0,0-7.35,3.58l-9.55,12.82-9.24-12.82a8.39,8.39,0,0,0-7.35-3.58h-7.56l17.89,24.25L358,120h7.16a8.36,8.36,0,0,0,7.35-3.58l11.33-15,26.54,36.68a8.28,8.28,0,0,0,7.35,3.58h7.76L390.24,93.56Z"/><line class="cls-4" x1="432.64" y1="186" x2="432.64"/></g></svg>