<svg xmlns="http://www.w3.org/2000/svg" viewBox="0 0 480 186"><defs><style>.cls-1{fill:#fff;}.cls-2{fill:#e2f3f5;}.cls-3{fill:none;stroke:#5a5a5c;stroke-miterlimit:10;stroke-width:0.5px;}.cls-4{fill:#00d6ca;}</style></defs><title>BrandHub-VectorGraphics</title><g id="Vector"><rect class="cls-1" x="-0.17" y="-0.68" width="480.45" height="187.01"/><rect class="cls-2" x="34.48" y="31.43" width="411.12" height="123.47"/><rect class="cls-1" x="47.18" y="44.7" width="385.43" height="97.24"/><line class="cls-3" x1="47.18" y1="185.66" x2="47.18" y2="0.34"/><line class="cls-3" x1="0.25" y1="44.7" x2="479.92" y2="44.7"/><line class="cls-3" x1="479.53" y1="141.94" x2="0.64" y2="141.94"/><path d="M111.29,78.46V120h10.23V78.46h13.12V69.31H121.52V65.54c0-8.65,5.17-11.53,10.24-11.53a12.54,12.54,0,0,1,3.48.49l2.09-9a17.88,17.88,0,0,0-6.36-1c-12.73,0-19.68,9.44-19.68,20.87v4h-5.37l-6.46,9.15ZM253.21,102c0,11,6.76,18.89,18.88,18.89a25.88,25.88,0,0,0,7.46-1L277.46,111a21.52,21.52,0,0,1-4.67.49c-5,0-9.34-2.68-9.34-9.64V78.46h14.31l-4.17-9.15H263.45V48.94l-10.24,4.47v15.9H242.38v9.15h10.83V102Zm-88-32.7V120h10.24V85.21A16.12,16.12,0,0,1,188.91,78c7.55,0,12.72,4.77,12.72,14.31v22.86A4.62,4.62,0,0,0,206.4,120h5.47V90.48c0-13.12-8.35-22.26-20.48-22.26a22.87,22.87,0,0,0-15.9,6.06v-5ZM298,137.89l37.08-68.58h-5.57c-3.38,0-6,1-7.35,3.58L307.58,100,295,72.89c-1.29-2.68-4-3.58-7.35-3.58h-5.37l19.48,41.35-17,31h5.56c3.48,0,6.26-1.1,7.75-3.78ZM142.79,120H153V69.31H142.79V120Zm81.2,0h10.24V69.31H224V120ZM114.47,141.67h-7.76a8.28,8.28,0,0,1-7.35-3.58L72.82,101.41l-11.33,15A8.36,8.36,0,0,1,54.14,120H47L66.56,93.56,48.67,69.31h7.56a8.38,8.38,0,0,1,7.35,3.58l9.24,12.82,9.54-12.82a8.4,8.4,0,0,1,7.36-3.58h7.55L79.18,93.56l35.29,48.11ZM432.58,69.31H417l-6.46,9.15h11.83V120h10.23V69.31ZM390.24,93.56l18.09-24.25h-7.55a8.37,8.37,0,0,0-7.35,3.58l-9.55,12.82-9.24-12.82a8.39,8.39,0,0,0-7.35-3.58h-7.56l17.89,24.25L358,120h7.16a8.36,8.36,0,0,0,7.35-3.58l11.33-15,26.54,36.68a8.28,8.28,0,0,0,7.35,3.58h7.76L390.24,93.56Z"/><line class="cls-3" x1="432.64" y1="186" x2="432.64"/><path class="cls-4" d="M234.06,31.78V44.46h2.56v-8.7A4,4,0,0,1,240,33.94c1.89,0,3.18,1.19,3.18,3.58v5.72a1.16,1.16,0,0,0,1.2,1.22h1.36V37.07c0-3.28-2.08-5.57-5.12-5.57a5.73,5.73,0,0,0-4,1.52V31.78Z"/><path class="cls-4" d="M234.06,142.23v12.68h2.56v-8.7a4,4,0,0,1,3.35-1.82c1.89,0,3.18,1.2,3.18,3.58v5.72a1.16,1.16,0,0,0,1.2,1.22h1.36v-7.38c0-3.28-2.08-5.57-5.12-5.57a5.68,5.68,0,0,0-4,1.52v-1.25Z"/><path class="cls-4" d="M34.25,99.41H46.93V96.85h-8.7a4,4,0,0,1-1.81-3.35c0-1.89,1.19-3.19,3.57-3.19h5.72a1.15,1.15,0,0,0,1.22-1.19V87.75H39.55c-3.28,0-5.57,2.09-5.57,5.12a5.69,5.69,0,0,0,1.52,4H34.25Z"/><path class="cls-4" d="M445.56,87.75H432.89v2.56h8.7a4.06,4.06,0,0,1,1.81,3.36c0,1.89-1.19,3.18-3.58,3.18H434.1A1.15,1.15,0,0,0,432.89,98v1.37h7.38c3.28,0,5.57-2.09,5.57-5.12a5.75,5.75,0,0,0-1.52-4h1.24Z"/></g></svg>