<svg id="Vector" xmlns="http://www.w3.org/2000/svg" viewBox="0 0 119 32"><defs><style>.cls-1{fill:#fff;}</style></defs><title>BrandHub-VectorGraphics</title><rect class="cls-1" x="0.08" y="0.07" width="118.84" height="31.76"/><path d="M19.7,13.3V21h1.89V13.3H24V11.61H21.59v-.7c0-1.61,1-2.14,1.9-2.14a2.41,2.41,0,0,1,.64.09l.39-1.67A3.36,3.36,0,0,0,23.34,7a3.56,3.56,0,0,0-3.64,3.87v.74h-1L17.51,13.3ZM46,17.66a3.26,3.26,0,0,0,3.49,3.5A4.73,4.73,0,0,0,50.85,21l-.38-1.65a4.31,4.31,0,0,1-.87.09,1.61,1.61,0,0,1-1.73-1.79V13.3h2.65l-.77-1.69H47.87V7.83L46,8.66v2.95H44V13.3h2v4.36ZM29.69,11.61V21h1.89V14.55a3,3,0,0,1,2.49-1.34c1.4,0,2.36.88,2.36,2.65v4.23a.85.85,0,0,0,.88.9h1V15.53c0-2.43-1.54-4.13-3.79-4.13a4.25,4.25,0,0,0-3,1.13v-.92ZM54.28,24.3l6.86-12.69h-1a1.4,1.4,0,0,0-1.36.66l-2.7,5-2.34-5a1.35,1.35,0,0,0-1.36-.66h-1L55,19.26,51.81,25h1a1.51,1.51,0,0,0,1.44-.7ZM25.53,21h1.9V11.61h-1.9V21Zm15,0h1.89V11.61H40.57V21ZM20.28,25H18.85a1.52,1.52,0,0,1-1.36-.66l-4.92-6.79-2.1,2.78A1.54,1.54,0,0,1,9.11,21H7.79l3.62-4.89L8.1,11.61H9.5a1.55,1.55,0,0,1,1.36.66l1.71,2.37,1.77-2.37a1.55,1.55,0,0,1,1.36-.66h1.4L13.75,16.1,20.28,25ZM79.19,11.61H76.3L75.11,13.3H77.3V21h1.89V11.61ZM71.35,16.1l3.35-4.49H73.3a1.55,1.55,0,0,0-1.36.66l-1.76,2.37-1.72-2.37a1.54,1.54,0,0,0-1.36-.66H65.7L69,16.1,65.39,21h1.33a1.55,1.55,0,0,0,1.36-.66l2.1-2.78,4.91,6.79a1.53,1.53,0,0,0,1.36.66h1.44l-6.54-8.9Z"/></svg>