<svg id="Vector" xmlns="http://www.w3.org/2000/svg" viewBox="0 0 382 209"><defs><style>.cls-1{fill:#fff;}.cls-2{fill:#fe5c5c;}.cls-3{fill:none;stroke:#fff;stroke-miterlimit:10;stroke-width:3px;}</style></defs><title>BrandHub-VectorGraphics</title><rect class="cls-1" x="-0.33" y="38.38" width="382" height="170.46"/><circle class="cls-2" cx="191.5" cy="30" r="28.5"/><line class="cls-3" x1="201.83" y1="19.67" x2="181.17" y2="40.33"/><line class="cls-3" x1="181.17" y1="19.67" x2="201.83" y2="40.33"/><path d="M171.39,138.69V106.1h-7.54v34.53h7.54Zm-51.9,0V106.1H112v34.53h7.51Zm24.19-33.28c-3.53,0-6.9,1.48-8.65,3.8V106.1h-7.51v34.53H135V120.48c0-5.6,2.42-8.69,6.82-8.69,4.78,0,6.83,2.79,6.83,9.34v19.5h7.49V120.87C156.17,110.75,151.86,105.41,143.68,105.41ZM182.29,112v19.31c0,6.29,3.42,10,9.16,10a18.28,18.28,0,0,0,5.23-.68l.91-6a15.27,15.27,0,0,1-3.39.49c-3.13,0-4.41-1.26-4.41-4.37V112h8.63l-2.25-5.87h-6.38V93.63l-7.5,3.81v8.66h-5.47V112ZM91.87,106.1H88.32L84.22,112h7.65v28.66h7.51V112H107V106.1H99.38v-3.34c0-2.53,1.05-3.56,3.61-3.56a16.3,16.3,0,0,1,4.05.58v-6a18.51,18.51,0,0,0-6-.91c-5.76,0-9.18,3.77-9.18,10.05Zm143.74,0H227.5l-12,22-8.25-22h-7.78L211,136.21l-8.95,16.59H210ZM72.75,122.77,84.5,106.1H75.88l-7.26,10.63L61.37,106.1H52.75l11.73,16.67L51.92,140.63h8.62l8.08-11.83,16.79,24h8.27Z"/><polygon points="299.19 129.6 308.33 142.65 317.49 142.65 303.75 122.94 316.71 104.54 307.2 104.54 299.19 116.28 291.19 104.54 281.67 104.54 294.62 122.94 280.76 142.65 290.27 142.65 299.19 129.6"/><polygon points="329.06 140.51 329.06 104.54 320.77 104.54 314.57 113.53 320.77 113.53 320.77 142.65 329.06 142.65 329.06 140.51"/><rect x="257.19" y="90.23" width="2" height="66"/></svg>