<svg id="Vector" xmlns="http://www.w3.org/2000/svg" viewBox="0 0 382 209"><defs><style>.cls-1{fill:#fff;}.cls-2{fill:#fe5c5c;}.cls-3{fill:none;stroke:#fff;stroke-miterlimit:10;stroke-width:3px;}.cls-4{fill:#2b9cd8;}</style></defs><title>BrandHub-VectorGraphics</title><rect class="cls-1" x="-0.33" y="38.38" width="382" height="170.46"/><circle class="cls-2" cx="191.5" cy="30" r="28.5"/><line class="cls-3" x1="201.83" y1="19.67" x2="181.17" y2="40.33"/><line class="cls-3" x1="181.17" y1="19.67" x2="201.83" y2="40.33"/><path d="M74.37,148.48h-7L53.15,128.15l-6.85,10H39L49.64,123,39.7,108.92H47l6.15,9,6.14-9h7.3L56.64,123Zm4.82-34.59h6.49v-5H79.19v-2.83c0-2.14.89-3,3.06-3a13.67,13.67,0,0,1,3.43.49V98.45a15.54,15.54,0,0,0-5.07-.77c-4.88,0-7.78,3.18-7.78,8.5v2.74h-3l-3.48,5h6.48v24.28h6.36Zm10.67,24.28h6.37V108.92H89.86Zm31.08,0h6.35V121.43c0-8.57-3.65-13.09-10.58-13.09a9.3,9.3,0,0,0-7.33,3.22v-2.64H103v29.25h6.35V121.1c0-4.75,2.05-7.36,5.78-7.36,4,0,5.78,2.37,5.78,7.91Zm12.86,0h6.38V108.92H133.8Zm22-24.28h7.31l-1.9-5h-5.41V98.36l-6.35,3.23v7.33h-4.63v5h4.63v16.35c0,5.33,2.9,8.5,7.76,8.5a15.88,15.88,0,0,0,4.43-.57l.77-5.08a13.34,13.34,0,0,1-2.88.41c-2.64,0-3.73-1.06-3.73-3.69Zm38.81-5H187.7l-10.2,18.63-7-18.63h-6.6l9.81,25.5-7.59,14.06h6.72Z"/><path class="cls-4" d="M222.2,98.36v10.56h6.68v2.21H222.2v20.24a12.23,12.23,0,0,0,.14,1.89,3.83,3.83,0,0,0,.54,1.5,2.59,2.59,0,0,0,1.16,1,4.85,4.85,0,0,0,2,.35h3l-.17,2.15a3.42,3.42,0,0,1-.54.18,5,5,0,0,1-.66.11l-.85.07c-.33,0-.72,0-1.18,0a7.47,7.47,0,0,1-3.05-.54,5,5,0,0,1-1.92-1.46,5.64,5.64,0,0,1-1-2.17,11.83,11.83,0,0,1-.29-2.65V111.13h-4.74v-2.21h4.74v-7.33Zm23.72,13.79a9.67,9.67,0,0,0-1.32-.27,9.79,9.79,0,0,0-1.11-.06,7.25,7.25,0,0,0-3,.6,7.37,7.37,0,0,0-2.24,1.49,6.26,6.26,0,0,0-1.38,2,5,5,0,0,0-.47,2v20.3h-2.84V108.92h2.67v5.28a13.14,13.14,0,0,1,1.41-2.18,9.39,9.39,0,0,1,1.76-1.7,8.09,8.09,0,0,1,2-1.11,6.78,6.78,0,0,1,2.3-.4,8.69,8.69,0,0,1,1.26.09,11.05,11.05,0,0,1,1.34.25Zm3.32,11.71v.06a19,19,0,0,0,.55,4.62,10.79,10.79,0,0,0,1.82,3.92,8.9,8.9,0,0,0,3.37,2.71,11.9,11.9,0,0,0,5.16,1,13.34,13.34,0,0,0,4.85-.84,17.23,17.23,0,0,0,4.16-2.37l1.18,2.27a17.11,17.11,0,0,1-4.58,2.48,16.51,16.51,0,0,1-5.61.89,15.79,15.79,0,0,1-6.2-1.11,11.55,11.55,0,0,1-4.3-3.05,12.62,12.62,0,0,1-2.52-4.6,19.63,19.63,0,0,1-.81-5.77,20.11,20.11,0,0,1,.91-6.2,14.72,14.72,0,0,1,2.61-4.88,11.87,11.87,0,0,1,4.14-3.21,12.9,12.9,0,0,1,5.51-1.14,12.41,12.41,0,0,1,5,.94,9.93,9.93,0,0,1,3.63,2.63,11.81,11.81,0,0,1,2.22,4,16.62,16.62,0,0,1,.76,5.12q0,.56,0,1.05c0,.33-.07.81-.16,1.43ZM259.37,111a9.77,9.77,0,0,0-3.84.74,8.71,8.71,0,0,0-3,2.14,11.2,11.2,0,0,0-2.1,3.37,15.72,15.72,0,0,0-1.06,4.43h18.83a13.46,13.46,0,0,0-.43-4.22,9.55,9.55,0,0,0-1.66-3.4,7.92,7.92,0,0,0-2.8-2.25A8.94,8.94,0,0,0,259.37,111Zm34,27.2v-5.33a13.24,13.24,0,0,1-2.21,2.61,12.57,12.57,0,0,1-2.58,1.79,11.67,11.67,0,0,1-2.86,1,14,14,0,0,1-3,.33,12.58,12.58,0,0,1-3.82-.55,8.11,8.11,0,0,1-2.9-1.62,7.15,7.15,0,0,1-1.85-2.58,8.73,8.73,0,0,1-.65-3.45,8,8,0,0,1,.93-3.84,7.55,7.55,0,0,1,3.19-3,20.24,20.24,0,0,1,6.07-1.94,57.85,57.85,0,0,1,9.61-.74V118.7c0-2.71-.6-4.65-1.79-5.84s-3.07-1.78-5.61-1.78a17.93,17.93,0,0,0-2.76.21,20.28,20.28,0,0,0-2.58.55,22.5,22.5,0,0,0-2.28.77c-.7.29-1.33.57-1.88.84l-1.08-2.15a12.23,12.23,0,0,1,1.69-.88,16.69,16.69,0,0,1,2.44-.87,22.67,22.67,0,0,1,3.05-.65,23.2,23.2,0,0,1,3.51-.25,15.75,15.75,0,0,1,4.32.54,7.6,7.6,0,0,1,3.18,1.76,7.79,7.79,0,0,1,1.94,3.21,15.07,15.07,0,0,1,.67,4.84v19.17Zm-10.24-1.88a10.81,10.81,0,0,0,4.25-.79,11.32,11.32,0,0,0,3.19-2,8.88,8.88,0,0,0,2-2.51,5.45,5.45,0,0,0,.69-2.47v-5.77q-3.56.1-6.2.42a34.94,34.94,0,0,0-4.51.82,13.56,13.56,0,0,0-3.08,1.16,6.83,6.83,0,0,0-1.89,1.46,4.69,4.69,0,0,0-1,1.7,6.9,6.9,0,0,0-.26,1.89,5.78,5.78,0,0,0,1.73,4.45A7.19,7.19,0,0,0,283.14,136.29Zm36.67,1.88v-20a10.06,10.06,0,0,0-.38-2.79,6,6,0,0,0-1.18-2.26,5.66,5.66,0,0,0-2.14-1.52,8.39,8.39,0,0,0-3.23-.55,7.93,7.93,0,0,0-3.41.7,9,9,0,0,0-2.54,1.73,7.8,7.8,0,0,0-1.59,2.17,4.73,4.73,0,0,0-.55,2v20.46h-2.85V108.92h2.68v5.28a10.27,10.27,0,0,1,1.75-2.57,9.83,9.83,0,0,1,2.17-1.71,9.22,9.22,0,0,1,2.43-1,11.14,11.14,0,0,1,2.57-.3,13.64,13.64,0,0,1,2.9.3,8.59,8.59,0,0,1,2.53,1,7,7,0,0,1,2,1.81,8.84,8.84,0,0,1,1.35,2.79,10.31,10.31,0,0,1,1.66-2.69A8.86,8.86,0,0,1,326.1,110a9.29,9.29,0,0,1,2.48-1,10.83,10.83,0,0,1,2.66-.33,11.1,11.1,0,0,1,4,.66,7.78,7.78,0,0,1,2.88,1.93,8.36,8.36,0,0,1,1.77,3,14,14,0,0,1,.61,4.45v19.47h-2.87V118.26a10.6,10.6,0,0,0-.36-2.81,6,6,0,0,0-1.19-2.29,5.65,5.65,0,0,0-2.14-1.53,8.3,8.3,0,0,0-3.22-.55,8.06,8.06,0,0,0-3.13.62,8.21,8.21,0,0,0-2.57,1.67,8,8,0,0,0-1.74,2.46,7.14,7.14,0,0,0-.65,3v19.33ZM198.17,111.85a7,7,0,0,1,1.65-.63,11.21,11.21,0,0,1,2.74-.31,16.41,16.41,0,0,1,3.88.47,24.22,24.22,0,0,1,3.58,1.16l.63-2.37a12.63,12.63,0,0,0-1.72-.65,17.53,17.53,0,0,0-2-.49c-.69-.12-1.4-.22-2.11-.28s-1.42-.1-2.1-.1a16.14,16.14,0,0,0-3,.27h.09Zm13,15.17a7.53,7.53,0,0,0-2.09-2.36,12.42,12.42,0,0,0-2.86-1.53c-1-.39-2.08-.74-3.09-1s-2.14-.67-3.06-1a9.4,9.4,0,0,1-2.35-1.22,5.09,5.09,0,0,1-1.51-1.67,4.43,4.43,0,0,1-.51-1.92l-1.81,3.3a7.64,7.64,0,0,0,1.59,1.94,11,11,0,0,0,2.47,1.57,22.72,22.72,0,0,0,2.7,1c1.25.39,2.39.77,3.43,1.14a12.72,12.72,0,0,1,2.69,1.32,5.53,5.53,0,0,1,1.76,1.78,4.91,4.91,0,0,1,.62,2.55,5,5,0,0,1-.66,2.64,5.53,5.53,0,0,1-1.78,1.79,8,8,0,0,1-2.57,1,13.66,13.66,0,0,1-3,.32,17.07,17.07,0,0,1-2.49-.18c-.82-.12-1.59-.26-2.31-.44a14.79,14.79,0,0,1-1.93-.59,9.47,9.47,0,0,1-1.41-.66l-.58,2.42a7.59,7.59,0,0,0,1.3.56,18.82,18.82,0,0,0,2.07.56c.79.18,1.65.33,2.59.46a20.55,20.55,0,0,0,2.82.19,16,16,0,0,0,4.07-.5,10.46,10.46,0,0,0,3.44-1.53,7.93,7.93,0,0,0,2.39-2.63,7.67,7.67,0,0,0,.9-3.81A7.17,7.17,0,0,0,211.21,127Z"/><path class="cls-4" d="M346.07,135.08a1.91,1.91,0,0,0-.44-.16,1.71,1.71,0,0,0-.49-.07l-.27,0a.79.79,0,0,0-.23.09.41.41,0,0,0-.16.16.43.43,0,0,0-.06.24.53.53,0,0,0,.07.26,1,1,0,0,0,.18.17l.25.11.27.08a4.24,4.24,0,0,1,.47.17,1.93,1.93,0,0,1,.37.23,1,1,0,0,1,.32.74,1,1,0,0,1-.1.46.91.91,0,0,1-.29.36,1.31,1.31,0,0,1-.46.22,2.33,2.33,0,0,1-.62.08h-.28l-.3,0-.28-.07-.26-.1.11-.55.25.1a1.38,1.38,0,0,0,.27.08l.27.06h.25a1.46,1.46,0,0,0,.3,0,1,1,0,0,0,.26-.09.73.73,0,0,0,.18-.17.5.5,0,0,0,.06-.26.4.4,0,0,0-.08-.27.61.61,0,0,0-.2-.19,1.23,1.23,0,0,0-.26-.12l-.27-.09-.24-.06-.24-.1a1.49,1.49,0,0,1-.24-.14A.69.69,0,0,1,344,136a.77.77,0,0,1-.14-.27,1.23,1.23,0,0,1-.05-.35,1.06,1.06,0,0,1,.1-.48.87.87,0,0,1,.28-.32,1.36,1.36,0,0,1,.42-.2,2.38,2.38,0,0,1,.55-.06,2.4,2.4,0,0,1,.56.06c.16,0,.32.08.46.13Z"/><path class="cls-4" d="M348.28,134.41l1,2.79h0l1-2.79h1v3.75h-.62v-2.25l0-.78h0l-1.06,3H349l-1.05-3h-.05l0,.78v2.25h-.62v-3.75Z"/></svg>