<svg id="Vector" xmlns="http://www.w3.org/2000/svg" viewBox="0 0 382 209"><defs><style>.cls-1{fill:#fff;}.cls-2{fill:#fe5c5c;}.cls-3{fill:none;stroke:#fff;stroke-miterlimit:10;stroke-width:3px;}</style></defs><title>BrandHub-VectorGraphics</title><rect class="cls-1" x="-0.33" y="38.38" width="382" height="170.46"/><circle class="cls-2" cx="191.5" cy="30" r="28.5"/><line class="cls-3" x1="201.83" y1="19.67" x2="181.17" y2="40.33"/><line class="cls-3" x1="181.17" y1="19.67" x2="201.83" y2="40.33"/><path d="M167.35,106.24h-7.53v34.45h7.53Zm-51.78,0h-7.49v34.45h7.49Zm24.13-.69c-3.53,0-6.89,1.48-8.63,3.8v-3.11h-7.49v34.45h7.49V120.58c0-5.58,2.41-8.66,6.81-8.66,4.76,0,6.8,2.78,6.8,9.32v19.45h7.48V121C152.16,110.88,147.86,105.55,139.7,105.55Zm38.51,6.55v19.25c0,6.29,3.42,10,9.14,10a18.58,18.58,0,0,0,5.22-.67l.91-6a15.27,15.27,0,0,1-3.39.49c-3.12,0-4.4-1.26-4.4-4.36V112.1h8.62l-2.25-5.86h-6.37V93.8l-7.48,3.8v8.64h-5.45v5.86ZM88,106.24H84.48l-4.1,5.86H88v28.59h7.5V112.1h7.64v-5.86H95.51v-3.33c0-2.52,1-3.55,3.6-3.55a16.28,16.28,0,0,1,4,.58v-6a18.44,18.44,0,0,0-6-.91C91.43,93,88,96.75,88,103Zm143.4,0h-8.09l-12,22-8.22-22h-7.77l11.54,30-8.93,16.55h7.91ZM69,122.87l11.71-16.63H72.07l-7.24,10.61-7.24-10.61H49L60.7,122.87,48.17,140.69h8.6l8.06-11.8,16.75,23.94h8.25Zm197.9,0,11.72-16.63H270l-7.24,10.61-7.24-10.61h-8.6l11.71,16.63-12.53,17.82h8.6l8.06-11.8,16.75,23.94h8.25Zm53.66-16.63H313v34.45h7.49Zm7.13,30.07v.6H326.4v3.78h-.75v-3.78H324.4v-.6Zm2.16,0,1.12,3.26h0l1.12-3.26h1.11v4.38h-.71v-2.63l0-.92h-.06l-1.24,3.55h-.58l-1.24-3.55h-.06l0,.92v2.63h-.72v-4.38Zm-18.42-35.54v-7.2H285.14v47.12h7.49V119.57H305V112.5h-12.4V100.77Z"/></svg>