<svg id="Vector" xmlns="http://www.w3.org/2000/svg" viewBox="0 0 382 209"><defs><style>.cls-1{fill:#fff;}.cls-2{fill:#fe5c5c;}.cls-3{fill:none;stroke:#fff;stroke-miterlimit:10;stroke-width:3px;}.cls-4{fill:#d71921;}.cls-5{fill:#58595b;}</style></defs><title>BrandHub-VectorGraphics</title><rect class="cls-1" x="-0.33" y="38.38" width="382" height="170.46"/><circle class="cls-2" cx="191.5" cy="30" r="28.5"/><line class="cls-3" x1="201.83" y1="19.67" x2="181.17" y2="40.33"/><line class="cls-3" x1="181.17" y1="19.67" x2="201.83" y2="40.33"/><path class="cls-4" d="M51.45,95.2l6.78,11.22L65.35,95.2h5.77L61.2,109.86l10.13,15.79H65L58,113.31,50.8,125.65H45l10-15.79L45.2,95.2Z"/><path class="cls-4" d="M95.61,95.2v4.19H81.21v8.44H93.67v4.24H81.21v13.58h-5.1V95.2Z"/><path class="cls-4" d="M106.14,95.2v30.45H101V95.2Z"/><path class="cls-4" d="M114.06,95.2h6.52l9.84,18.43,2.63,5.89h.42l-.48-7.2V95.2h4.92v30.45h-6.34l-10-18.47-2.63-5.85h-.44l.48,7.2v17.12h-4.92Z"/><path class="cls-4" d="M150.93,95.2v30.45h-5.1V95.2Z"/><path class="cls-4" d="M178.26,95.2v4.19h-8.68v26.26h-5.16V99.39h-8.71V95.2Z"/><path class="cls-4" d="M186.41,95.2l7.6,15,7.58-15h5.72l-11,19.71v10.74h-5.11V114.91L180.28,95.2Z"/><path class="cls-4" d="M231.3,95.2v13h13.42v-13h5.09v30.45h-5.09V112.32H231.3v13.33h-5.09V95.2Z"/><path class="cls-4" d="M265.76,102.76a10.63,10.63,0,0,1,4.27.82,9.15,9.15,0,0,1,3.25,2.33,10.48,10.48,0,0,1,2.08,3.64,16,16,0,0,1,.06,9.42,11,11,0,0,1-2,3.74,9.51,9.51,0,0,1-3.26,2.51,10.07,10.07,0,0,1-4.39.91,10.67,10.67,0,0,1-4.32-.83,9.08,9.08,0,0,1-3.29-2.37,10.73,10.73,0,0,1-2.09-3.71,15.24,15.24,0,0,1-.74-4.88,14.25,14.25,0,0,1,.72-4.62,10.72,10.72,0,0,1,2-3.66,9.34,9.34,0,0,1,3.27-2.43A10.63,10.63,0,0,1,265.76,102.76Zm0,4a5.14,5.14,0,0,0-2.61.6,4.52,4.52,0,0,0-1.65,1.63,7,7,0,0,0-.88,2.41,17.13,17.13,0,0,0-.25,2.94,18.88,18.88,0,0,0,.22,2.84,7.68,7.68,0,0,0,.82,2.49,4.78,4.78,0,0,0,1.66,1.77,4.9,4.9,0,0,0,2.69.67,5.08,5.08,0,0,0,2.62-.62,4.58,4.58,0,0,0,1.66-1.67,7.8,7.8,0,0,0,.86-2.48,17,17,0,0,0,.25-3,16.2,16.2,0,0,0-.23-2.8,7.35,7.35,0,0,0-.83-2.43,4.72,4.72,0,0,0-1.64-1.71A5.05,5.05,0,0,0,265.72,106.76Z"/><path class="cls-4" d="M285.13,103.22l.44,3.58a10.1,10.1,0,0,1,1.49-2,7.11,7.11,0,0,1,1.61-1.23,6.33,6.33,0,0,1,1.69-.63,8.28,8.28,0,0,1,1.71-.18,11.55,11.55,0,0,1,2,.17,6.55,6.55,0,0,1,1.83.6,6.05,6.05,0,0,1,1.58,1.17,6.55,6.55,0,0,1,1.26,1.85,8.57,8.57,0,0,1,2.92-2.93,7.57,7.57,0,0,1,3.65-.86,7.92,7.92,0,0,1,3,.53,6.33,6.33,0,0,1,2.28,1.58,6.6,6.6,0,0,1,.81,1.11,6.67,6.67,0,0,1,.63,1.4,9.54,9.54,0,0,1,.4,1.78,15.23,15.23,0,0,1,.14,2.25v14.24h-4.84V110.76a5.7,5.7,0,0,0-.18-1.39,3.51,3.51,0,0,0-.62-1.29,3.24,3.24,0,0,0-1.19-1,4.22,4.22,0,0,0-1.89-.37,4.84,4.84,0,0,0-1.85.35,4.15,4.15,0,0,0-1.45,1,4.41,4.41,0,0,0-1,1.46,4.77,4.77,0,0,0-.35,1.83v14.28h-4.82V110.76a5.7,5.7,0,0,0-.18-1.39,3.51,3.51,0,0,0-.62-1.29,3.16,3.16,0,0,0-1.19-1,4.25,4.25,0,0,0-1.91-.37,4.72,4.72,0,0,0-1.82.35,4.31,4.31,0,0,0-1.44,1,4.41,4.41,0,0,0-1,1.46,4.77,4.77,0,0,0-.34,1.83v14.28h-4.78V107.29l-.45-4.07Z"/><path class="cls-4" d="M322,115.52a11.76,11.76,0,0,0,.42,2.51,6.39,6.39,0,0,0,1.05,2.18,5.23,5.23,0,0,0,1.87,1.53,6.45,6.45,0,0,0,2.91.58,10.45,10.45,0,0,0,3.62-.59,15.33,15.33,0,0,0,3.22-1.6l1.48,3.41a15.15,15.15,0,0,1-3.72,1.89,14.1,14.1,0,0,1-4.64.7,13.1,13.1,0,0,1-5-.85,9.28,9.28,0,0,1-3.46-2.37,9.76,9.76,0,0,1-2-3.58,14.84,14.84,0,0,1-.65-4.46,15.18,15.18,0,0,1,.73-4.82,11.3,11.3,0,0,1,2.09-3.84,9.63,9.63,0,0,1,3.32-2.53,10.2,10.2,0,0,1,4.39-.92,9.94,9.94,0,0,1,4,.76,8.25,8.25,0,0,1,2.94,2.09,9.25,9.25,0,0,1,1.81,3.17,12.44,12.44,0,0,1,.62,4c0,.25,0,.61,0,1.07s-.07,1-.14,1.69Zm5.6-9.14a4.83,4.83,0,0,0-3.69,1.56,7.78,7.78,0,0,0-1.83,4.42h10.34a8.75,8.75,0,0,0-.32-2.42,5.59,5.59,0,0,0-.92-1.88,4.32,4.32,0,0,0-1.51-1.24A4.7,4.7,0,0,0,327.57,106.38Z"/><path class="cls-5" d="M49.74,154.68a8,8,0,0,1-3.23-.62,6.65,6.65,0,0,1-2.36-1.75,7.7,7.7,0,0,1-1.45-2.68,12,12,0,0,1-.27-5.67,9.73,9.73,0,0,1,.66-2.06,8.71,8.71,0,0,1,1.09-1.75,7.24,7.24,0,0,1,1.51-1.36,7,7,0,0,1,1.9-.87,8,8,0,0,1,2.29-.31,10.73,10.73,0,0,1,2.88.34,8,8,0,0,1,2.07.87l-.47,1.82c-.3-.19-.61-.36-.92-.53a7.66,7.66,0,0,0-1-.43,6.56,6.56,0,0,0-1.18-.3,9,9,0,0,0-1.44-.11,5.29,5.29,0,0,0-2.51.55,4.86,4.86,0,0,0-1.72,1.49,6.31,6.31,0,0,0-1,2.18,10.85,10.85,0,0,0-.32,2.64,10.28,10.28,0,0,0,.13,1.65,8.21,8.21,0,0,0,.39,1.59,7,7,0,0,0,.7,1.43,4.85,4.85,0,0,0,1,1.16,4.75,4.75,0,0,0,1.42.78,5.89,5.89,0,0,0,1.85.28,9,9,0,0,0,1.44-.11,8,8,0,0,0,1.19-.28,6.79,6.79,0,0,0,1-.42c.31-.17.62-.34.92-.54l.45,1.79a7.53,7.53,0,0,1-2.11.88A11.42,11.42,0,0,1,49.74,154.68Z"/><path class="cls-5" d="M62.62,142.18a5.31,5.31,0,0,1,2.22.46,4.87,4.87,0,0,1,1.66,1.28,5.63,5.63,0,0,1,1,2,8.67,8.67,0,0,1,0,4.91,6.4,6.4,0,0,1-1,2,4.76,4.76,0,0,1-3.92,1.85,5.32,5.32,0,0,1-2.23-.45,4.64,4.64,0,0,1-1.67-1.27,5.82,5.82,0,0,1-1.06-2,8.44,8.44,0,0,1-.37-2.55,8.23,8.23,0,0,1,.35-2.42,5.84,5.84,0,0,1,1-2,4.8,4.8,0,0,1,1.67-1.32A5.15,5.15,0,0,1,62.62,142.18Zm0,1.62a3.13,3.13,0,0,0-1.56.36,2.88,2.88,0,0,0-1,1,4.2,4.2,0,0,0-.58,1.45,8.55,8.55,0,0,0-.18,1.79,8.85,8.85,0,0,0,.17,1.71,4.93,4.93,0,0,0,.55,1.48A2.89,2.89,0,0,0,62.59,153a3.14,3.14,0,0,0,1.57-.37,3.08,3.08,0,0,0,1-1,4.39,4.39,0,0,0,.58-1.47,8.58,8.58,0,0,0,.18-1.8,8.75,8.75,0,0,0-.17-1.7,4.39,4.39,0,0,0-.55-1.46,3,3,0,0,0-1-1A3.11,3.11,0,0,0,62.59,143.8Z"/><path class="cls-5" d="M72.8,142.37l.24,2.12a4.82,4.82,0,0,1,.73-1.12,3.32,3.32,0,0,1,.86-.71,3,3,0,0,1,1-.37,5.22,5.22,0,0,1,1.06-.11,4.27,4.27,0,0,1,1.66.31,3.84,3.84,0,0,1,1.23.84,3.66,3.66,0,0,1,.79,1.34,6.1,6.1,0,0,1,.27,2v7.82H78.73v-8.16a3.86,3.86,0,0,0-.13-.93,2,2,0,0,0-.49-.85,2.2,2.2,0,0,0-.78-.51,3.2,3.2,0,0,0-1.2-.2,3.15,3.15,0,0,0-1.26.24,2.83,2.83,0,0,0-.93.65,2.68,2.68,0,0,0-.59.94,3.32,3.32,0,0,0-.2,1.13v7.69H71.27v-10L71,142.37Z"/><path class="cls-5" d="M86.14,142.37l.24,2.12a4.84,4.84,0,0,1,.74-1.12,3.28,3.28,0,0,1,.85-.71,3,3,0,0,1,1-.37,5.32,5.32,0,0,1,1.07-.11,4.22,4.22,0,0,1,1.65.31,4,4,0,0,1,1.24.84,3.79,3.79,0,0,1,.78,1.34,6.1,6.1,0,0,1,.27,2v7.82H92.07v-8.16a3.42,3.42,0,0,0-.13-.93,2,2,0,0,0-.49-.85,2.2,2.2,0,0,0-.78-.51,3.18,3.18,0,0,0-1.19-.2,3.08,3.08,0,0,0-1.26.24,2.87,2.87,0,0,0-.94.65,2.66,2.66,0,0,0-.58.94,3.09,3.09,0,0,0-.2,1.13v7.69H84.61v-10l-.23-2.12Z"/><path class="cls-5" d="M99.05,148.76a7.22,7.22,0,0,0,.19,1.55,4.12,4.12,0,0,0,.59,1.37,3.11,3.11,0,0,0,1.14,1,4,4,0,0,0,1.81.37,4.86,4.86,0,0,0,1-.09,5.11,5.11,0,0,0,.87-.25,4.77,4.77,0,0,0,.82-.4,9.5,9.5,0,0,0,.81-.54l.76,1.49a6.49,6.49,0,0,1-4.21,1.4,6.52,6.52,0,0,1-2.54-.45,4.85,4.85,0,0,1-1.78-1.27,5.23,5.23,0,0,1-1-1.92,8.32,8.32,0,0,1-.33-2.39,8.45,8.45,0,0,1,.37-2.57,6,6,0,0,1,1.07-2,4.82,4.82,0,0,1,1.7-1.33,5.17,5.17,0,0,1,2.26-.49,4.87,4.87,0,0,1,2,.41,4.18,4.18,0,0,1,1.49,1.13,4.88,4.88,0,0,1,.92,1.7,7.35,7.35,0,0,1,.3,2.15c0,.19,0,.37,0,.54s0,.38,0,.65Zm3.37-5a3,3,0,0,0-1.21.24,3.09,3.09,0,0,0-1,.7,3.91,3.91,0,0,0-.72,1.13,5.87,5.87,0,0,0-.39,1.5h6.24a5,5,0,0,0-.19-1.41,3.42,3.42,0,0,0-.56-1.13,2.62,2.62,0,0,0-.93-.75A2.78,2.78,0,0,0,102.42,143.73Z"/><path class="cls-5" d="M115.33,153a4.63,4.63,0,0,0,1.55-.26,5.13,5.13,0,0,0,1.34-.68l.52,1.61a5.85,5.85,0,0,1-1.54.7,7.3,7.3,0,0,1-2,.24,5.94,5.94,0,0,1-2.42-.45,4.44,4.44,0,0,1-1.69-1.28,5.35,5.35,0,0,1-1-1.93,8.62,8.62,0,0,1-.33-2.44,9,9,0,0,1,.35-2.56,5.64,5.64,0,0,1,1-2,4.8,4.8,0,0,1,1.71-1.3,5.51,5.51,0,0,1,2.37-.48,6.8,6.8,0,0,1,1.94.26,5.83,5.83,0,0,1,1.54.69l-.52,1.61a6,6,0,0,0-1.33-.68,4.79,4.79,0,0,0-1.6-.26,3.44,3.44,0,0,0-1.6.35,3.2,3.2,0,0,0-1.1,1,4.23,4.23,0,0,0-.64,1.48,8,8,0,0,0-.21,1.88,8.91,8.91,0,0,0,.15,1.63,4.25,4.25,0,0,0,.54,1.46,3.08,3.08,0,0,0,1.1,1.05A3.69,3.69,0,0,0,115.33,153Z"/><path class="cls-5" d="M124.21,139.16v3.21h2.86v1.46h-2.86v7.75a2.35,2.35,0,0,0,.06.54,1.28,1.28,0,0,0,.19.43,1.06,1.06,0,0,0,.37.29,1.28,1.28,0,0,0,.55.11h1.82l-.13,1.46-.34.11-.4.07c-.15,0-.32,0-.52,0h-.71a3.17,3.17,0,0,1-1.2-.21,2.55,2.55,0,0,1-.86-.6,2.47,2.47,0,0,1-.53-.88,3,3,0,0,1-.18-1.05v-8.06h-2v-1.46h2l.23-3.21Z"/><path class="cls-5" d="M131,148.76a7.22,7.22,0,0,0,.19,1.55,3.94,3.94,0,0,0,.6,1.37,3.15,3.15,0,0,0,1.13,1,4,4,0,0,0,1.81.37,4.72,4.72,0,0,0,.95-.09,5.11,5.11,0,0,0,.87-.25,4.77,4.77,0,0,0,.82-.4c.27-.16.54-.34.82-.54l.75,1.49a7.08,7.08,0,0,1-1.88,1,7,7,0,0,1-2.33.36,6.55,6.55,0,0,1-2.54-.45,4.82,4.82,0,0,1-1.77-1.27,5.24,5.24,0,0,1-1-1.92,8.32,8.32,0,0,1-.33-2.39,8.77,8.77,0,0,1,.37-2.57,6,6,0,0,1,1.07-2,4.82,4.82,0,0,1,1.7-1.33,5.18,5.18,0,0,1,2.27-.49,4.86,4.86,0,0,1,2,.41,4.22,4.22,0,0,1,1.5,1.13,4.86,4.86,0,0,1,.91,1.7,7,7,0,0,1,.31,2.15c0,.19,0,.37,0,.54s0,.38-.05.65Zm3.38-5a3,3,0,0,0-1.21.24,3.13,3.13,0,0,0-1,.7,3.69,3.69,0,0,0-.71,1.13,5.87,5.87,0,0,0-.4,1.5h6.24a5,5,0,0,0-.19-1.41,3.24,3.24,0,0,0-.56-1.13,2.58,2.58,0,0,0-.92-.75A2.85,2.85,0,0,0,134.36,143.73Z"/><path class="cls-5" d="M151.84,137.16v17.29h-1.52l-.23-1.83a5,5,0,0,1-.82,1,3.92,3.92,0,0,1-.9.62,4,4,0,0,1-1,.34,5.58,5.58,0,0,1-1,.09,4.64,4.64,0,0,1-1.65-.27,3.73,3.73,0,0,1-1.23-.75,4,4,0,0,1-.86-1.09,6.77,6.77,0,0,1-.55-1.33,8.51,8.51,0,0,1-.29-1.42,11.33,11.33,0,0,1-.09-1.4A10.25,10.25,0,0,1,142,146a5.9,5.9,0,0,1,.88-2,4.22,4.22,0,0,1,1.51-1.33,4.66,4.66,0,0,1,2.19-.49,4,4,0,0,1,2,.45,3.69,3.69,0,0,1,1.38,1.44v-6.91ZM150,146.72a3,3,0,0,0-.18-1,2.77,2.77,0,0,0-.55-.95,2.9,2.9,0,0,0-1-.7,3.29,3.29,0,0,0-1.43-.28,3.19,3.19,0,0,0-1.17.19,2.37,2.37,0,0,0-.84.51,2.62,2.62,0,0,0-.57.77,4.66,4.66,0,0,0-.35.95,7,7,0,0,0-.17,1.07c0,.37-.05.74-.05,1.1a11.45,11.45,0,0,0,.12,1.65,4.56,4.56,0,0,0,.45,1.49,2.83,2.83,0,0,0,1,1.07,2.87,2.87,0,0,0,1.64.42,3.43,3.43,0,0,0,1.42-.27,2.93,2.93,0,0,0,1-.69,2.56,2.56,0,0,0,.55-.94,3,3,0,0,0,.18-1Z"/><path class="cls-5" d="M157.55,151.94v2.51H155v-2.51Z"/><path class="cls-5" d="M172.37,137.86a8.21,8.21,0,0,1,2.71.38,4.33,4.33,0,0,1,1.71,1.08,3.93,3.93,0,0,1,.88,1.49,6.29,6.29,0,0,1,0,3.9,4.13,4.13,0,0,1-1,1.58,3.78,3.78,0,0,1-.7.55,4.15,4.15,0,0,1-.9.41,6,6,0,0,1-1.16.25,11,11,0,0,1-1.49.09h-3.81v6.86h-2V137.86Zm-3.81,8.07h4.06a4.57,4.57,0,0,0,1.47-.21,2.55,2.55,0,0,0,1-.6,2.45,2.45,0,0,0,.63-1,4.59,4.59,0,0,0,.2-1.4,4.33,4.33,0,0,0-.17-1.22,3,3,0,0,0-.54-1,2.69,2.69,0,0,0-1-.68,4.41,4.41,0,0,0-1.57-.25h-4.06Z"/><path class="cls-5" d="M182.29,142.37l.24,2.12c.17-.3.36-.59.55-.86a3.58,3.58,0,0,1,.65-.69,3.06,3.06,0,0,1,.77-.47,2.47,2.47,0,0,1,.92-.17,4.14,4.14,0,0,1,.58,0,6.7,6.7,0,0,1,.68.13l-.23,2c-.28-.06-.52-.1-.7-.12l-.53,0a2.63,2.63,0,0,0-1.9.66,2.49,2.49,0,0,0-.68,1.87v7.6h-1.88v-10l-.23-2.1Z"/><path class="cls-5" d="M193.05,142.18a5.27,5.27,0,0,1,2.22.46,4.87,4.87,0,0,1,1.66,1.28,5.63,5.63,0,0,1,1,2,8.67,8.67,0,0,1,0,4.91,6.4,6.4,0,0,1-1,2,4.76,4.76,0,0,1-3.92,1.85,5.32,5.32,0,0,1-2.23-.45,4.64,4.64,0,0,1-1.67-1.27,5.82,5.82,0,0,1-1.06-2,8.44,8.44,0,0,1-.37-2.55,8.23,8.23,0,0,1,.35-2.42,5.84,5.84,0,0,1,1-2,4.8,4.8,0,0,1,1.67-1.32A5.15,5.15,0,0,1,193.05,142.18Zm0,1.62a3.14,3.14,0,0,0-1.57.36,2.88,2.88,0,0,0-1,1,4.2,4.2,0,0,0-.58,1.45,8.55,8.55,0,0,0-.18,1.79,8.85,8.85,0,0,0,.17,1.71,4.93,4.93,0,0,0,.55,1.48,3,3,0,0,0,1,1,3,3,0,0,0,1.61.4,2.91,2.91,0,0,0,2.6-1.36,4.39,4.39,0,0,0,.58-1.47,8.58,8.58,0,0,0,.18-1.8,8.75,8.75,0,0,0-.17-1.7,4.39,4.39,0,0,0-.55-1.46,3,3,0,0,0-1-1A3.07,3.07,0,0,0,193,143.8Z"/><path class="cls-5" d="M203.82,139.16v3.21h2.86v1.46h-2.86v7.75a2.35,2.35,0,0,0,.06.54,1.13,1.13,0,0,0,.2.43.94.94,0,0,0,.36.29,1.28,1.28,0,0,0,.55.11h1.82l-.13,1.46-.34.11-.4.07c-.15,0-.32,0-.52,0h-.71a3.17,3.17,0,0,1-1.2-.21,2.55,2.55,0,0,1-.86-.6,2.47,2.47,0,0,1-.53-.88,3,3,0,0,1-.18-1.05v-8.06h-2v-1.46h2l.23-3.21Z"/><path class="cls-5" d="M210.59,148.76a7.22,7.22,0,0,0,.19,1.55,3.94,3.94,0,0,0,.6,1.37,3.11,3.11,0,0,0,1.14,1,4,4,0,0,0,1.8.37,4.72,4.72,0,0,0,1-.09,5.11,5.11,0,0,0,.87-.25,4.77,4.77,0,0,0,.82-.4c.27-.16.54-.34.82-.54l.75,1.49a7.08,7.08,0,0,1-1.88,1,7,7,0,0,1-2.33.36,6.55,6.55,0,0,1-2.54-.45,4.82,4.82,0,0,1-1.77-1.27,5.08,5.08,0,0,1-1-1.92,8,8,0,0,1-.34-2.39A8.44,8.44,0,0,1,209,146a5.85,5.85,0,0,1,1.06-2,4.82,4.82,0,0,1,1.7-1.33,5.22,5.22,0,0,1,2.27-.49,4.94,4.94,0,0,1,2,.41,4.18,4.18,0,0,1,1.49,1.13,4.86,4.86,0,0,1,.91,1.7,7,7,0,0,1,.31,2.15c0,.19,0,.37,0,.54s0,.38,0,.65Zm3.38-5a3,3,0,0,0-1.21.24,3.13,3.13,0,0,0-1,.7,3.88,3.88,0,0,0-.71,1.13,5.87,5.87,0,0,0-.4,1.5h6.24a5,5,0,0,0-.19-1.41,3.24,3.24,0,0,0-.56-1.13,2.58,2.58,0,0,0-.92-.75A2.85,2.85,0,0,0,214,143.73Z"/><path class="cls-5" d="M226.88,153a4.57,4.57,0,0,0,1.54-.26,5.19,5.19,0,0,0,1.35-.68l.51,1.61a5.78,5.78,0,0,1-1.53.7,7.38,7.38,0,0,1-2,.24,6,6,0,0,1-2.42-.45,4.6,4.6,0,0,1-1.69-1.28,5.51,5.51,0,0,1-1-1.93,8.62,8.62,0,0,1-.33-2.44,9,9,0,0,1,.35-2.56,5.81,5.81,0,0,1,1-2,4.8,4.8,0,0,1,1.71-1.3,5.52,5.52,0,0,1,2.38-.48,6.73,6.73,0,0,1,1.93.26,5.69,5.69,0,0,1,1.54.69l-.51,1.61a6,6,0,0,0-1.34-.68,4.75,4.75,0,0,0-1.6-.26,3.39,3.39,0,0,0-1.59.35,3.15,3.15,0,0,0-1.11,1,4.43,4.43,0,0,0-.64,1.48,8,8,0,0,0-.21,1.88,8.91,8.91,0,0,0,.15,1.63,4.06,4.06,0,0,0,.55,1.46,3.05,3.05,0,0,0,1.09,1.05A3.7,3.7,0,0,0,226.88,153Z"/><path class="cls-5" d="M235.76,139.16v3.21h2.85v1.46h-2.85v7.75a3.1,3.1,0,0,0,.05.54,1.3,1.3,0,0,0,.2.43.94.94,0,0,0,.36.29,1.33,1.33,0,0,0,.56.11h1.81l-.13,1.46-.33.11-.41.07c-.15,0-.32,0-.52,0h-.71a3.12,3.12,0,0,1-1.19-.21,2.5,2.5,0,0,1-.87-.6,2.62,2.62,0,0,1-.53-.88,3,3,0,0,1-.17-1.05v-8.06h-2v-1.46h2l.22-3.21Z"/><path class="cls-5" d="M242.53,148.76a6.64,6.64,0,0,0,.19,1.55,3.75,3.75,0,0,0,.59,1.37,3.11,3.11,0,0,0,1.14,1,4,4,0,0,0,1.81.37,4.86,4.86,0,0,0,1-.09,4.75,4.75,0,0,0,.86-.25,4.86,4.86,0,0,0,.83-.4q.39-.24.81-.54l.76,1.49a6.49,6.49,0,0,1-4.21,1.4,6.6,6.6,0,0,1-2.55-.45,4.9,4.9,0,0,1-1.77-1.27,5.08,5.08,0,0,1-1-1.92,8.32,8.32,0,0,1-.33-2.39A8.45,8.45,0,0,1,241,146a5.87,5.87,0,0,1,1.07-2,4.79,4.79,0,0,1,1.69-1.33,5.22,5.22,0,0,1,2.27-.49,4.9,4.9,0,0,1,2.05.41,4.18,4.18,0,0,1,1.49,1.13,4.71,4.71,0,0,1,.91,1.7,7,7,0,0,1,.31,2.15c0,.19,0,.37,0,.54s0,.38-.06.65Zm3.37-5a3,3,0,0,0-1.21.24,3.25,3.25,0,0,0-1,.7,4.11,4.11,0,0,0-.71,1.13,5.49,5.49,0,0,0-.39,1.5h6.24a5.34,5.34,0,0,0-.19-1.41,3.62,3.62,0,0,0-.56-1.13,2.62,2.62,0,0,0-.93-.75A2.85,2.85,0,0,0,245.9,143.73Z"/><path class="cls-5" d="M263.39,137.16v17.29h-1.53l-.23-1.83a4.68,4.68,0,0,1-.82,1,3.72,3.72,0,0,1-.9.62,3.79,3.79,0,0,1-1,.34,5.66,5.66,0,0,1-1,.09,4.6,4.6,0,0,1-1.65-.27,3.78,3.78,0,0,1-1.24-.75,4.14,4.14,0,0,1-.86-1.09,6.74,6.74,0,0,1-.54-1.33,8.54,8.54,0,0,1-.3-1.42,13.6,13.6,0,0,1-.08-1.4,9.75,9.75,0,0,1,.28-2.4,6.09,6.09,0,0,1,.87-2,4.3,4.3,0,0,1,1.51-1.33,4.66,4.66,0,0,1,2.19-.49,4.09,4.09,0,0,1,2,.45,3.84,3.84,0,0,1,1.38,1.44v-6.91Zm-1.88,9.56a2.86,2.86,0,0,0-1.71-2.64,3.33,3.33,0,0,0-1.44-.28,3.19,3.19,0,0,0-1.17.19,2.37,2.37,0,0,0-.84.51,2.59,2.59,0,0,0-.56.77,4.13,4.13,0,0,0-.35.95,6,6,0,0,0-.18,1.07c0,.37,0,.74,0,1.1a13.06,13.06,0,0,0,.11,1.65,4.56,4.56,0,0,0,.46,1.49,2.72,2.72,0,0,0,1,1.07,2.89,2.89,0,0,0,1.64.42,3.36,3.36,0,0,0,1.42-.27,2.83,2.83,0,0,0,1-.69,2.73,2.73,0,0,0,.56-.94,3,3,0,0,0,.18-1Z"/><path class="cls-5" d="M269.09,151.94v2.51h-2.51v-2.51Z"/><path class="cls-5" d="M280.11,137.86v7.35H288v-7.35h2v16.59h-2v-7.6h-7.89v7.6h-2V137.86Z"/><path class="cls-5" d="M298.92,142.18a5.24,5.24,0,0,1,2.22.46,4.91,4.91,0,0,1,1.67,1.28,5.78,5.78,0,0,1,1,2,8.25,8.25,0,0,1,.36,2.5,7.94,7.94,0,0,1-.35,2.41,6,6,0,0,1-1,2,5,5,0,0,1-1.65,1.36,5,5,0,0,1-2.27.49,5.31,5.31,0,0,1-2.22-.45,4.68,4.68,0,0,1-1.68-1.27,5.63,5.63,0,0,1-1-2,8.14,8.14,0,0,1-.37-2.55A8.23,8.23,0,0,1,294,146a5.83,5.83,0,0,1,1-2,4.93,4.93,0,0,1,1.68-1.32A5.14,5.14,0,0,1,298.92,142.18Zm0,1.62a3.17,3.17,0,0,0-1.57.36,3,3,0,0,0-1,1,4.4,4.4,0,0,0-.57,1.45,8.55,8.55,0,0,0-.18,1.79,8.85,8.85,0,0,0,.17,1.71,4.68,4.68,0,0,0,.55,1.48,3,3,0,0,0,1,1,3.07,3.07,0,0,0,1.61.4,2.91,2.91,0,0,0,2.61-1.36,4.61,4.61,0,0,0,.58-1.47,9.32,9.32,0,0,0,.17-1.8,8.75,8.75,0,0,0-.16-1.7,4.62,4.62,0,0,0-.55-1.46,3,3,0,0,0-1-1A3.07,3.07,0,0,0,298.9,143.8Z"/><path class="cls-5" d="M309.1,142.37l.24,2.12a4.5,4.5,0,0,1,.73-1.13,3.49,3.49,0,0,1,.86-.71,3.32,3.32,0,0,1,.93-.36,4.49,4.49,0,0,1,1-.11,6.38,6.38,0,0,1,1.08.1,3.52,3.52,0,0,1,1,.33,3.1,3.1,0,0,1,.85.65,3,3,0,0,1,.63,1,4.78,4.78,0,0,1,.73-1,3.54,3.54,0,0,1,.83-.65,3.34,3.34,0,0,1,.91-.34,5.34,5.34,0,0,1,1-.1,4.43,4.43,0,0,1,1.62.28,3.5,3.5,0,0,1,1.21.8,4.15,4.15,0,0,1,.43.58,4,4,0,0,1,.32.72,6.52,6.52,0,0,1,.2.91,8,8,0,0,1,.08,1.16v7.82h-1.91v-8.16a4.26,4.26,0,0,0-.09-.86,2.14,2.14,0,0,0-.37-.81,2,2,0,0,0-.71-.59,2.65,2.65,0,0,0-1.17-.23,2.83,2.83,0,0,0-1.18.24,3,3,0,0,0-.91.65,2.81,2.81,0,0,0-.58.94,3.32,3.32,0,0,0-.2,1.13v7.69h-1.9v-8.16a3.67,3.67,0,0,0-.1-.86,2,2,0,0,0-.36-.81,2.12,2.12,0,0,0-.72-.59,2.68,2.68,0,0,0-1.17-.23,2.88,2.88,0,0,0-1.19.24,2.81,2.81,0,0,0-.9.65,2.66,2.66,0,0,0-.58.94,3.09,3.09,0,0,0-.2,1.13v7.69h-1.88v-10l-.23-2.12Z"/><path class="cls-5" d="M328.78,148.76a7.22,7.22,0,0,0,.19,1.55,3.94,3.94,0,0,0,.6,1.37,3.15,3.15,0,0,0,1.13,1,4,4,0,0,0,1.81.37,4.72,4.72,0,0,0,.95-.09,5.11,5.11,0,0,0,.87-.25,4.77,4.77,0,0,0,.82-.4,9.5,9.5,0,0,0,.81-.54l.76,1.49a7,7,0,0,1-1.89,1,6.89,6.89,0,0,1-2.32.36,6.52,6.52,0,0,1-2.54-.45,4.73,4.73,0,0,1-1.77-1.27,5.24,5.24,0,0,1-1-1.92,8.32,8.32,0,0,1-.33-2.39,8.77,8.77,0,0,1,.37-2.57,6,6,0,0,1,1.07-2,4.82,4.82,0,0,1,1.7-1.33,5.18,5.18,0,0,1,2.27-.49,4.86,4.86,0,0,1,2,.41,4.22,4.22,0,0,1,1.5,1.13,4.86,4.86,0,0,1,.91,1.7,7.35,7.35,0,0,1,.31,2.15c0,.19,0,.37,0,.54s0,.38-.05.65Zm3.38-5a2.89,2.89,0,0,0-2.2.94,3.69,3.69,0,0,0-.71,1.13,5.87,5.87,0,0,0-.4,1.5h6.24a5,5,0,0,0-.19-1.41,3.24,3.24,0,0,0-.56-1.13,2.67,2.67,0,0,0-.92-.75A2.85,2.85,0,0,0,332.16,143.73Z"/><path class="cls-5" d="M341.85,151.94v2.51h-2.51v-2.51Z"/></svg>