<svg id="Vector" xmlns="http://www.w3.org/2000/svg" viewBox="0 0 382 209"><defs><style>.cls-1{fill:#fff;}.cls-2{fill:#fe5c5c;}.cls-3{fill:none;stroke:#fff;stroke-miterlimit:10;stroke-width:3px;}.cls-4{fill:#010101;}.cls-5{fill:#27a9d8;}.cls-6{fill:#259cd8;}</style></defs><title>BrandHub-VectorGraphics</title><rect class="cls-1" x="-0.33" y="38.38" width="382" height="170.46"/><circle class="cls-2" cx="191.5" cy="30" r="28.5"/><line class="cls-3" x1="201.83" y1="19.67" x2="181.17" y2="40.33"/><line class="cls-3" x1="181.17" y1="19.67" x2="201.83" y2="40.33"/><path class="cls-4" d="M248.51,138.59a14.29,14.29,0,1,1,10.1-4.18A13.83,13.83,0,0,1,248.51,138.59Zm0-25.11a10.82,10.82,0,1,0,7.64,3.17A10.46,10.46,0,0,0,248.51,113.48Z"/><path class="cls-5" d="M238.48,106.66a1.82,1.82,0,0,1-1.32-.55,1.87,1.87,0,0,1,0-2.63,16.05,16.05,0,0,1,22.68,0,1.87,1.87,0,0,1,.54,1.32,1.85,1.85,0,0,1-.54,1.31,1.85,1.85,0,0,1-2.63,0,12.35,12.35,0,0,0-17.41,0A1.82,1.82,0,0,1,238.48,106.66Z"/><path class="cls-5" d="M248.5,149.81a15.93,15.93,0,0,1-11.33-4.69,1.84,1.84,0,0,1-.55-1.31,1.87,1.87,0,0,1,3.18-1.32,12.32,12.32,0,0,0,17.41,0,1.86,1.86,0,0,1,2.63,2.63,16,16,0,0,1-11.34,4.69Z"/><path class="cls-4" d="M43.9,123.9l9.93-14.09H46.54l-6.13,9-6.13-9H27l9.92,14.09L26.29,139h7.29l6.83-10L54.6,149.28h7Zm137.65-14.09H174.7l-10.19,18.6-7-18.6H151l9.78,25.45-7.57,14h6.7Zm-121.49,0h-3l-3.47,5h6.47V139H66.4V114.77h6.48v-5H66.4V107c0-2.13.9-3,3-3a14.07,14.07,0,0,1,3.43.49V99.36a15.5,15.5,0,0,0-5.07-.77c-4.86,0-7.75,3.18-7.75,8.49Zm76.42,5v16.32c0,5.32,2.89,8.47,7.75,8.47a15.49,15.49,0,0,0,4.42-.57l.77-5.06a13.33,13.33,0,0,1-2.87.41c-2.64,0-3.73-1.06-3.73-3.68V114.77h7.3l-1.91-5h-5.39V99.27l-6.34,3.22v7.32h-4.62v5Zm-32.63-5.54a9.26,9.26,0,0,0-7.31,3.21v-2.63H90.19V139h6.35V122c0-4.73,2-7.35,5.76-7.35,4,0,5.77,2.37,5.77,7.9V139h6.33v-16.7c0-8.55-3.64-13.06-10.55-13.06M83.4,137.36V109.81H77.05V139H83.4Zm43.87,0V109.81H120.9V139h6.37Z"/><path class="cls-4" d="M226.4,139a1.76,1.76,0,0,1-1.75-1.74V121.16a7.68,7.68,0,1,0-15.35,0v16.09a1.63,1.63,0,0,1-.52,1.23,1.73,1.73,0,0,1-2.45,0,1.63,1.63,0,0,1-.52-1.23V121.16a7.68,7.68,0,0,0-15.36,0v16.09a1.65,1.65,0,0,1-.5,1.23,1.75,1.75,0,0,1-2.47,0,1.65,1.65,0,0,1-.5-1.23V121.16a10.81,10.81,0,0,1,3.27-7.89l.56-.53.22-.18c.23-.19.47-.38.71-.55s.37-.25.51-.34l.14-.09.31-.18c.18-.11.34-.19.5-.27l.43-.21.46-.19.51-.18.44-.14.52-.12.2,0a1.1,1.1,0,0,1,.26-.06l.65-.09.38,0c.37,0,.72,0,1.09,0a10.84,10.84,0,0,1,7.89,3.27,16.6,16.6,0,0,1,1.25,1.45l.28.39.28-.39a13.77,13.77,0,0,1,1.25-1.45A10.8,10.8,0,0,1,217,110c.37,0,.73,0,1.08,0l.35,0,.69.1.41.08.57.14.43.14.52.18.46.19.37.18c.22.11.39.19.55.29a2.46,2.46,0,0,1,.32.19l.57.37a9,9,0,0,1,.78.61l.35.29.45.42a10.82,10.82,0,0,1,3.27,7.89v16.09a1.66,1.66,0,0,1-.51,1.23A1.62,1.62,0,0,1,226.4,139Z"/><path class="cls-4" d="M283.9,138.6a14.29,14.29,0,0,1-14.3-14.3V99.13a1.74,1.74,0,0,1,1.73-1.75,1.76,1.76,0,0,1,1.75,1.75v15.79l.7-.73A14.3,14.3,0,1,1,283.9,138.6Zm0-25.12a10.81,10.81,0,1,0,7.65,3.16A10.47,10.47,0,0,0,283.9,113.48Z"/><path class="cls-4" d="M306.77,139a1.76,1.76,0,0,1-1.74-1.74V111.74a1.74,1.74,0,0,1,1.74-1.74,1.74,1.74,0,0,1,1.74,1.74v25.51a1.64,1.64,0,0,1-.51,1.23A1.66,1.66,0,0,1,306.77,139Z"/><path class="cls-4" d="M306.77,105.63a2.26,2.26,0,0,1-1.59-3.86,2.13,2.13,0,0,1,1.59-.66,2.26,2.26,0,0,1,0,4.52Z"/><path class="cls-4" d="M318.63,139a1.66,1.66,0,0,1-1.23-.51,1.61,1.61,0,0,1-.43-.82l0-.14a1,1,0,0,1-.05-.27V99.18A1.66,1.66,0,0,1,317.4,98a1.74,1.74,0,0,1,2.46,0,1.61,1.61,0,0,1,.42.81l0,.15a1,1,0,0,1,.05.27v38.07a1.64,1.64,0,0,1-.51,1.23A1.68,1.68,0,0,1,318.63,139Z"/><path class="cls-4" d="M341.47,138.6a14.3,14.3,0,1,1,10.11-24.42c2.45,2.45,4.09,6,4.09,8.8a1.76,1.76,0,0,1-1.74,1.75H330.62l0,.38a9.69,9.69,0,0,0,.19,1.36,11.56,11.56,0,0,0,3,5.49,10.5,10.5,0,0,0,7.65,3.16,10.43,10.43,0,0,0,8.68-4.47,1.76,1.76,0,0,1,1-.6,1.72,1.72,0,0,1,1.32.21,1.66,1.66,0,0,1,.79,1.07,1.77,1.77,0,0,1-.19,1.33,13.86,13.86,0,0,1-2.15,2.35l0,0-.07.12c-.15.14-.33.27-.51.41l-.12.1-.09.06A13.73,13.73,0,0,1,341.47,138.6Zm0-25.12a10.43,10.43,0,0,0-7.65,3.17,10.69,10.69,0,0,0-2.63,4.14l-.15.46h20.85l-.15-.46a10.74,10.74,0,0,0-2.62-4.13A10.47,10.47,0,0,0,341.47,113.48Z"/><path class="cls-6" d="M258.35,106.74a2.17,2.17,0,0,1-1.54-.63,11.76,11.76,0,0,0-16.61,0,2.18,2.18,0,0,1-3.09-3.08,16.11,16.11,0,0,1,22.77,0,2.17,2.17,0,0,1-1.53,3.71"/><path class="cls-6" d="M238.66,141.61a2.22,2.22,0,0,1,1.54.64,11.76,11.76,0,0,0,16.61,0,2.17,2.17,0,1,1,3.07,3.08,16.12,16.12,0,0,1-22.76,0,2.18,2.18,0,0,1,1.54-3.72"/></svg>