<svg id="Vector" xmlns="http://www.w3.org/2000/svg" viewBox="0 0 382 209"><defs><style>.cls-1{fill:#fff;}.cls-2{fill:#fe5c5c;}.cls-3{fill:none;stroke:#fff;stroke-miterlimit:10;stroke-width:3px;}</style></defs><title>BrandHub-VectorGraphics</title><rect class="cls-1" x="-0.33" y="38.38" width="382" height="170.46"/><circle class="cls-2" cx="191.5" cy="30" r="28.5"/><line class="cls-3" x1="201.83" y1="19.67" x2="181.17" y2="40.33"/><line class="cls-3" x1="181.17" y1="19.67" x2="201.83" y2="40.33"/><path d="M221.54,112.56c.54,0,1.08,0,1.64.07a16,16,0,0,1,1.61.23,12.28,12.28,0,0,1,1.45.37,6.16,6.16,0,0,1,1.18.5l-.56,2.15a12.13,12.13,0,0,0-2.46-1,11.29,11.29,0,0,0-3-.38,7.42,7.42,0,0,0-3.08.6,6.2,6.2,0,0,0-2.22,1.69,7.46,7.46,0,0,0-1.35,2.58,11,11,0,0,0-.46,3.28,11.74,11.74,0,0,0,.42,3.18,7.54,7.54,0,0,0,1.28,2.62,6.21,6.21,0,0,0,2.21,1.77,7.09,7.09,0,0,0,3.17.66h1a9.32,9.32,0,0,0,1-.09,9.09,9.09,0,0,0,1.08-.23,7.51,7.51,0,0,0,1.13-.42v-5.66H221v-2h6.81v8.85a7,7,0,0,1-1.31.62,13.24,13.24,0,0,1-1.68.47c-.6.13-1.21.23-1.82.3a13.36,13.36,0,0,1-1.72.11,10.81,10.81,0,0,1-2.95-.38,8.9,8.9,0,0,1-2.38-1.07,7.86,7.86,0,0,1-1.82-1.62,9.17,9.17,0,0,1-1.28-2.07,10.41,10.41,0,0,1-.75-2.39,13,13,0,0,1-.25-2.57,12.1,12.1,0,0,1,.66-4,9.41,9.41,0,0,1,1.9-3.25,8.83,8.83,0,0,1,3-2.17A10.17,10.17,0,0,1,221.54,112.56Z"/><path d="M240.05,112.86l6.39,19.77h-2.52L242.5,128h-7.88l-1.45,4.68h-2.29l6.52-19.77Zm-2,4.28L235.27,126h6.64l-2.77-8.83-.4-1.74h-.27Z"/><path d="M260.78,112.86v2h-5.95v17.78H252.4V114.85h-5.94v-2Z"/><path d="M277.1,112.86v2H266.6v6.5h9.24v2H266.6v7.32h10.78v2H264.22V112.86Z"/><path d="M283.1,112.86l3.35,15.46.35,2h.27l.34-2L291,112.86h3.13l3.62,15.46.36,2h.29l.3-2,3.36-15.46h2.61l-4.91,19.77h-3.15L293,117.18l-.35-2h-.28l-.33,2-3.53,15.45h-3.14l-4.87-19.77Z"/><path d="M315.25,112.86l6.38,19.77h-2.51L317.69,128h-7.87l-1.45,4.68h-2.3l6.52-19.77Zm-2,4.28L310.46,126h6.65l-2.78-8.83-.4-1.74h-.27Z"/><path d="M324.27,112.86l5.62,10.47,5.66-10.47h2.65l-7.27,12.66v7.11h-2.38v-7.11l-7.19-12.66Z"/><path d="M53,123.74l6.62-8.87H56.84a3,3,0,0,0-2.69,1.31l-3.49,4.69-3.39-4.69a3,3,0,0,0-2.69-1.31H41.82l6.54,8.87-7.16,9.67h2.62a3,3,0,0,0,2.69-1.31l4.15-5.49L60.36,140a3,3,0,0,0,2.7,1.31h2.83Zm53,9.67h3.75V114.87H106Zm-29.7,0H80V114.87H76.26ZM133.05,140l13.57-25.09h-2a2.75,2.75,0,0,0-2.69,1.31l-5.35,9.92-4.61-9.92a2.67,2.67,0,0,0-2.69-1.31h-2L134.4,130l-6.22,11.35h2A3,3,0,0,0,133.05,140ZM84.47,114.87v18.54h3.75V120.69A5.88,5.88,0,0,1,93.13,118c2.76,0,4.65,1.75,4.65,5.24v8.36a1.69,1.69,0,0,0,1.75,1.78h2v-10.8c0-4.8-3.06-8.14-7.49-8.14a8.31,8.31,0,0,0-5.82,2.22v-1.82Zm32.18,12c0,4,2.48,6.91,6.91,6.91a9.87,9.87,0,0,0,2.73-.36l-.76-3.28a7.69,7.69,0,0,1-1.71.19,3.18,3.18,0,0,1-3.42-3.53v-8.55h5.24l-1.53-3.34H120.4v-7.46l-3.75,1.64v5.82h-4v3.34h4Zm-51.92-8.62v15.2h3.74v-15.2h4.8v-3.34h-4.8v-1.38c0-3.17,1.89-4.22,3.75-4.22a4.42,4.42,0,0,1,1.27.18l.77-3.31a6.66,6.66,0,0,0-2.33-.36c-4.66,0-7.2,3.45-7.2,7.63v1.46h-2l-2.36,3.34Zm102.06,5.53,6.62-8.87h-2.76a3.07,3.07,0,0,0-2.7,1.31l-3.49,4.69-3.38-4.69a3,3,0,0,0-2.69-1.31h-2.76l6.54,8.87L155,133.41h2.62a3.06,3.06,0,0,0,2.69-1.31l4.14-5.49L174.17,140a3,3,0,0,0,2.69,1.31h2.84Zm28.38,9.67h3.75V114.87h-3.75Zm-17.24-27.12v27.12h4V121.15H191v-3.82h-9.11v-7.28h10.27l2.48-3.76Z"/></svg>