<svg id="Vector" xmlns="http://www.w3.org/2000/svg" viewBox="0 0 382 209"><defs><style>.cls-1{fill:#fff;}.cls-2{fill:#fe5c5c;}.cls-3{fill:none;stroke:#fff;stroke-miterlimit:10;stroke-width:3px;}.cls-4{fill:#2b9cd8;}</style></defs><title>BrandHub-VectorGraphics</title><rect class="cls-1" x="-0.33" y="38.38" width="382" height="170.46"/><circle class="cls-2" cx="191.5" cy="30" r="28.5"/><line class="cls-3" x1="201.83" y1="19.67" x2="181.17" y2="40.33"/><line class="cls-3" x1="181.17" y1="19.67" x2="201.83" y2="40.33"/><path d="M51.92,123.48l8.94-12H57.13a4.15,4.15,0,0,0-3.64,1.76l-4.72,6.34-4.57-6.34a4.14,4.14,0,0,0-3.63-1.76H36.84l8.84,12L36,136.55h3.54a4.12,4.12,0,0,0,3.63-1.77l5.6-7.42,13.12,18.13a4.1,4.1,0,0,0,3.64,1.77h3.83Z"/><rect x="123.5" y="111.5" width="5.06" height="25.06"/><rect x="83.36" y="111.5" width="5.06" height="25.06"/><path d="M160.1,145.39l18.32-33.89h-2.75c-1.67,0-2.95.49-3.63,1.76l-7.22,13.42-6.24-13.42c-.64-1.32-2-1.76-3.64-1.76h-2.65l9.63,20.43-8.4,15.33h2.75A4,4,0,0,0,160.1,145.39Z"/><path d="M94.46,111.5v25.05h5.06V119.36a8,8,0,0,1,6.64-3.59c3.73,0,6.28,2.36,6.28,7.07v11.3a2.29,2.29,0,0,0,2.36,2.41h2.7V122c0-6.48-4.12-11-10.12-11a11.33,11.33,0,0,0-7.86,3V111.5Z"/><path d="M137.94,127.66c0,5.45,3.34,9.33,9.34,9.33a12.66,12.66,0,0,0,3.68-.49l-1-4.42a10.27,10.27,0,0,1-2.31.25c-2.46,0-4.62-1.33-4.62-4.77V116h7.08L148,111.5h-5V101.42l-5.06,2.22v7.86h-5.35V116h5.35Z"/><path d="M67.79,116v20.53h5.06V116h6.48V111.5H72.85v-1.87c0-4.28,2.55-5.7,5.06-5.7a6,6,0,0,1,1.72.25l1-4.47a8.72,8.72,0,0,0-3.15-.5c-6.28,0-9.72,4.67-9.72,10.32v2H65.13L61.94,116Z"/><path class="cls-4" d="M189.45,131a11.84,11.84,0,0,0,7.56,3c3.12,0,5.74-1.75,5.74-4.38,0-6.4-14.39-2.9-14.39-11.44,0-4.54,4.27-7.27,8.48-7.27a14.45,14.45,0,0,1,8,2.4l-1.64,2.58a10.27,10.27,0,0,0-6.24-2c-2.63,0-5.53,1.37-5.53,4.27,0,5.53,14.39,2.57,14.39,11.33,0,4.65-3.94,7.5-8.64,7.5a14.14,14.14,0,0,1-9.69-3.56Z"/><path class="cls-4" d="M244,114a13.69,13.69,0,0,0-1.48-.06,8.69,8.69,0,0,0-7.83,5.53v17.11h-3.12V111.5h3.12v3.29a9.59,9.59,0,0,1,7.88-3.83c.44,0,1.53.05,1.86.1Z"/><path class="cls-4" d="M225.75,114.46h-8.38v13.63c0,2.26.44,3.36,1.1,4.18a5.14,5.14,0,0,0,4.18,1.76,10.19,10.19,0,0,0,2.69-.33l.55,2.85a12,12,0,0,1-3.24.44,8.44,8.44,0,0,1-6.71-2.85c-1.09-1.38-1.7-3.19-1.7-6.16V114.46h-5.83v-3h5.83v-8.94l3.13-1.14V111.5h8.38Z"/><path class="cls-4" d="M257.88,111c-7.06,0-11.93,5.85-11.93,13,0,7.77,5.53,13,12.53,13A13,13,0,0,0,269,132l-.79-.7a2,2,0,0,0-2.68,0,9.93,9.93,0,0,1-7,2.72c-5.75,0-9.19-4.49-9.41-9.79h20.36a10.46,10.46,0,0,0,.05-1.1C269.48,116.21,264.56,111,257.88,111Zm-8.65,10.45c.93-4.32,4.22-7.5,8.65-7.5a8.44,8.44,0,0,1,8.37,7.5Z"/><path class="cls-4" d="M294.79,111.5V115a12.12,12.12,0,0,0-9.14-4,12.67,12.67,0,0,0-7.93,2.79A13.29,13.29,0,0,0,273.06,124a12.84,12.84,0,0,0,5.31,10.68,12.7,12.7,0,0,0,7.45,2.35,11,11,0,0,0,9-4.22v3.76h3V111.5Zm-.11,17.08a10.36,10.36,0,0,1-8.92,5.47,9.85,9.85,0,0,1-5.63-1.86,10,10,0,0,1-3.95-8.21,10.18,10.18,0,0,1,3.51-7.93,9.6,9.6,0,0,1,6-2.14,11,11,0,0,1,9,5Z"/><path class="cls-4" d="M324.12,123.69V135a1.56,1.56,0,0,0,1.56,1.57h1.57V123.31h0a21.37,21.37,0,0,0-.28-3.57c1.54-3,4.62-5.83,8.63-5.83a7.46,7.46,0,0,1,6.32,3.3c.88,1.32,1.43,3,1.43,6.48V135a1.56,1.56,0,0,0,1.56,1.57h1.57V123.31a14,14,0,0,0-1.48-7.09,10.65,10.65,0,0,0-9.4-5.27,11.63,11.63,0,0,0-9.83,5.33,10.44,10.44,0,0,0-9.4-5.33,10.76,10.76,0,0,0-8.46,4v-3.4h-3v25.05H308V119.13a9.68,9.68,0,0,1,8.35-5.22,7.46,7.46,0,0,1,6.32,3.3c.88,1.32,1.43,3,1.43,6.48Z"/></svg>