<svg id="Vector" xmlns="http://www.w3.org/2000/svg" viewBox="0 0 382 209"><defs><style>.cls-1{fill:#fff;}.cls-2{fill:#fe5c5c;}.cls-3{fill:none;stroke:#fff;stroke-miterlimit:10;stroke-width:3px;}.cls-4{fill:#58595b;}</style></defs><title>BrandHub-VectorGraphics</title><rect class="cls-1" x="-0.33" y="38.38" width="382" height="170.46"/><circle class="cls-2" cx="191.5" cy="30" r="28.5"/><line class="cls-3" x1="201.83" y1="19.67" x2="181.17" y2="40.33"/><line class="cls-3" x1="181.17" y1="19.67" x2="201.83" y2="40.33"/><path d="M65.87,111,74.8,99H71.07a4.12,4.12,0,0,0-3.63,1.76l-4.71,6.33-4.56-6.33A4.14,4.14,0,0,0,54.54,99H50.81l8.83,12L50,124h3.54a4.14,4.14,0,0,0,3.63-1.76l5.59-7.41L75.83,133a4.07,4.07,0,0,0,3.63,1.77h3.82Zm71.47,13h5.06V99h-5.06Zm-40.08,0h5.06V99H97.26Zm76.63,8.83L192.19,99h-2.75c-1.67,0-2.94.49-3.63,1.76l-7.21,13.39-6.23-13.39c-.64-1.32-2-1.76-3.63-1.76h-2.65l9.62,20.4-8.39,15.31h2.74A4,4,0,0,0,173.89,132.85ZM108.35,99v25h5.05V106.85a8,8,0,0,1,6.63-3.58c3.72,0,6.28,2.36,6.28,7.07v11.28a2.28,2.28,0,0,0,2.35,2.4h2.7V109.45c0-6.47-4.12-11-10.11-11a11.26,11.26,0,0,0-7.85,3V99Zm43.42,16.14c0,5.44,3.33,9.32,9.32,9.32a13.06,13.06,0,0,0,3.68-.49l-1-4.42a10.27,10.27,0,0,1-2.31.25c-2.45,0-4.61-1.33-4.61-4.76V103.52h7.06L161.82,99h-5V89l-5,2.21V99h-5.35v4.51h5.35ZM81.71,103.52V124h5.06v-20.5h6.47V99H86.77V97.14c0-4.27,2.55-5.69,5-5.69a5.94,5.94,0,0,1,1.72.25l1-4.47a9,9,0,0,0-3.14-.49c-6.28,0-9.72,4.66-9.72,10.3v2H79.06l-3.18,4.51Zm199.51,7.67c0-3.51-.55-5.16-1.43-6.48a7.44,7.44,0,0,0-6.31-3.29,9.66,9.66,0,0,0-8.33,5.21V124H262V99h3v3.4a10.74,10.74,0,0,1,8.44-4,10.43,10.43,0,0,1,9.39,5.32,11.63,11.63,0,0,1,9.82-5.32,10.6,10.6,0,0,1,9.38,5.27,13.9,13.9,0,0,1,1.48,7.07V124H302a1.56,1.56,0,0,1-1.57-1.56V111.19c0-3.51-.55-5.16-1.42-6.48a7.47,7.47,0,0,0-6.31-3.29c-4,0-7.08,2.8-8.62,5.82a21.15,21.15,0,0,1,.28,3.56h0V124h-1.57a1.56,1.56,0,0,1-1.56-1.56V111.19Zm50.8-.54c0-6.94-4.92-12.18-11.58-12.18-7.05,0-11.92,5.84-11.92,13,0,7.76,5.52,13,12.52,13a13,13,0,0,0,10.5-5l-.79-.7a2,2,0,0,0-2.67,0,9.93,9.93,0,0,1-7,2.72c-5.74,0-9.19-4.48-9.4-9.78H332A10.36,10.36,0,0,0,332,110.65ZM311.8,108.9c.93-4.31,4.21-7.48,8.64-7.48a8.44,8.44,0,0,1,8.36,7.48Zm-54.91,2.57a12.85,12.85,0,1,0-12.84,13A12.72,12.72,0,0,0,256.89,111.47Zm-3.11,0a9.74,9.74,0,1,1-9.73-10A9.72,9.72,0,0,1,253.78,111.47Zm-29.63-8.82c1.27,1.67,2.11,3.66,2.11,7.91V124H224.7a1.65,1.65,0,0,1-1.57-1.66V110.78c0-2.87-.4-4.62-1.4-6a7.63,7.63,0,0,0-6.43-3.3,9.78,9.78,0,0,0-8.53,5.13V124h-3.13V88l3.13-1.28v15.6a11.47,11.47,0,0,1,17.38.38Z"/><path class="cls-4" d="M98.54,158.28a5.29,5.29,0,0,1-1.44.19,3.3,3.3,0,0,1-2.59-1.07,3.5,3.5,0,0,1-.74-2.44v-4.19H91.43v-1.66h2.34v-2.53h1.85v2.53h2.92v1.66H95.62v4.29a1.79,1.79,0,0,0,.27,1.17,1.73,1.73,0,0,0,1.27.49,4.36,4.36,0,0,0,1-.12Z"/><path class="cls-4" d="M102.44,149.91a4.21,4.21,0,0,1,6,.63,4.89,4.89,0,0,1,.89,3.25v4.49h-1.85v-4.59a3.09,3.09,0,0,0-.54-2.12,2.41,2.41,0,0,0-1.9-.9,3.42,3.42,0,0,0-2.63,1.31v6.3h-1.85V144.43h1.85Z"/><path class="cls-4" d="M113,154.08a3,3,0,0,0,3,2.77,3.3,3.3,0,0,0,2.64-1.25l1.2,1.16a4.8,4.8,0,0,1-3.86,1.71,4.65,4.65,0,0,1-4.73-4.78,4.45,4.45,0,1,1,8.87,0,3.21,3.21,0,0,1,0,.39Zm.16-1.56h5a2.56,2.56,0,0,0-2.42-2A2.66,2.66,0,0,0,113.17,152.52Z"/><path class="cls-4" d="M132.18,146.07a3,3,0,0,0-.69-.08,1.81,1.81,0,0,0-1.4.65,2.62,2.62,0,0,0-.35,1.63v.84h2.83v1.66h-2.83v7.51h-1.85v-7.51h-2.15v-1.66h2.15v-.78a4.27,4.27,0,0,1,.58-2.57,3.58,3.58,0,0,1,3-1.52,4.81,4.81,0,0,1,1.1.13Z"/><path class="cls-4" d="M134.57,156.93a4.68,4.68,0,0,1-.84-3.14v-4.68h1.86v5a2.62,2.62,0,0,0,.52,1.84,2.38,2.38,0,0,0,1.78.8,3.49,3.49,0,0,0,2.57-1.31v-6.3h1.85v9.17h-1.79v-.84a4.13,4.13,0,0,1-6-.51Z"/><path class="cls-4" d="M150.79,158.28a5.29,5.29,0,0,1-1.44.19,3.3,3.3,0,0,1-2.59-1.07A3.5,3.5,0,0,1,146,155v-4.19h-2.34v-1.66H146v-2.53h1.85v2.53h2.92v1.66h-2.92v4.29a1.79,1.79,0,0,0,.27,1.17,1.73,1.73,0,0,0,1.27.49,4.36,4.36,0,0,0,1-.12Z"/><path class="cls-4" d="M153.49,156.93a4.63,4.63,0,0,1-.84-3.14v-4.68h1.85v5a2.57,2.57,0,0,0,.53,1.84,2.36,2.36,0,0,0,1.77.8,3.49,3.49,0,0,0,2.57-1.31v-6.3h1.86v9.17h-1.8v-.84a4.12,4.12,0,0,1-5.94-.51Z"/><path class="cls-4" d="M169.1,150.75a2.55,2.55,0,0,0-.72-.08,3.11,3.11,0,0,0-2.48,1.54v6.07h-1.85v-9.17h1.8v1.06a3.32,3.32,0,0,1,2.75-1.25,4.66,4.66,0,0,1,.72.06Z"/><path class="cls-4" d="M171.7,154.08a2.94,2.94,0,0,0,3,2.77,3.3,3.3,0,0,0,2.63-1.25l1.21,1.16a4.82,4.82,0,0,1-3.86,1.71,4.66,4.66,0,0,1-4.74-4.78,4.45,4.45,0,1,1,8.87,0,3.21,3.21,0,0,1,0,.39Zm.15-1.56h5a2.54,2.54,0,0,0-2.41-2A2.67,2.67,0,0,0,171.85,152.52Z"/><path class="cls-4" d="M189.55,148.92a4.78,4.78,0,1,1-4.73,4.77A4.64,4.64,0,0,1,189.55,148.92Zm0,7.8a3,3,0,1,0-2.88-3A2.89,2.89,0,0,0,189.55,156.72Z"/><path class="cls-4" d="M201.51,146.07a3,3,0,0,0-.69-.08,1.81,1.81,0,0,0-1.4.65,2.62,2.62,0,0,0-.35,1.63v.84h2.83v1.66h-2.83v7.51h-1.85v-7.51h-2.15v-1.66h2.15v-.78a4.27,4.27,0,0,1,.58-2.57,3.58,3.58,0,0,1,3-1.52,4.79,4.79,0,0,1,1.09.13Z"/><path class="cls-4" d="M214.92,157.44a4.22,4.22,0,0,1-2.83,1,4.71,4.71,0,0,1-2.3-.6,4.9,4.9,0,0,1,0-8.37,4.39,4.39,0,0,1,2.24-.58,4.3,4.3,0,0,1,2.87,1v-.84h1.79v9.17h-1.79Zm-.06-5.46a3.3,3.3,0,0,0-2.61-1.31,2.93,2.93,0,0,0-2.94,3,3,3,0,0,0,3,3,3.17,3.17,0,0,0,2.51-1.31Z"/><path class="cls-4" d="M226.31,149.11l2.51,6.26,2.52-6.26h1.91l-3.73,9.17h-1.28l-2.58-6.44-2.57,6.44H221.8l-3.72-9.17H220l2.51,6.26,2.52-6.26Z"/><path class="cls-4" d="M235.53,154.08a3,3,0,0,0,3,2.77,3.27,3.27,0,0,0,2.63-1.25l1.21,1.16a4.82,4.82,0,0,1-3.86,1.71,4.65,4.65,0,0,1-4.73-4.78,4.45,4.45,0,1,1,8.87,0,3.21,3.21,0,0,1,0,.39Zm.15-1.56h5a2.56,2.56,0,0,0-2.42-2A2.68,2.68,0,0,0,235.68,152.52Z"/><path class="cls-4" d="M244.73,155.84a4.47,4.47,0,0,0,2.71,1c.8,0,1.6-.43,1.6-1.15,0-1-1.52-1.11-2.87-1.56-1.11-.37-2.1-1.07-2.1-2.36,0-2,1.75-2.86,3.39-2.86a4.67,4.67,0,0,1,3,1l-.95,1.33a3.26,3.26,0,0,0-2-.72c-.9,0-1.66.42-1.66,1.15s.72.83,1.64,1.07c1.44.37,3.33,1,3.33,2.9s-1.62,2.81-3.41,2.81a5.7,5.7,0,0,1-3.7-1.27Z"/><path class="cls-4" d="M257,148.92a4.78,4.78,0,1,1-4.73,4.77A4.64,4.64,0,0,1,257,148.92Zm0,7.8a3,3,0,1,0-2.88-3A2.89,2.89,0,0,0,257,156.72Z"/><path class="cls-4" d="M265.57,149.11V150a4,4,0,0,1,2.69-1.07,4.14,4.14,0,0,1,3.24,1.52,4.58,4.58,0,0,1,3.49-1.52,4.13,4.13,0,0,1,3.26,1.54,4.69,4.69,0,0,1,.83,3.14v4.68h-1.85v-5a2.61,2.61,0,0,0-.52-1.83,2.25,2.25,0,0,0-1.72-.8A3.75,3.75,0,0,0,272.2,152a7.38,7.38,0,0,1,.16,1.62v4.68h-1.85v-5a2.61,2.61,0,0,0-.53-1.83,2.33,2.33,0,0,0-1.77-.8,3.47,3.47,0,0,0-2.58,1.31v6.3h-1.85v-9.17Z"/><path class="cls-4" d="M282.73,154.08a3,3,0,0,0,3,2.77,3.3,3.3,0,0,0,2.64-1.25l1.2,1.16a4.8,4.8,0,0,1-3.86,1.71,4.65,4.65,0,0,1-4.73-4.78,4.45,4.45,0,1,1,8.87,0,3.21,3.21,0,0,1,0,.39Zm.16-1.56h5a2.56,2.56,0,0,0-2.42-2A2.66,2.66,0,0,0,282.89,152.52Z"/></svg>