<svg id="Vector" xmlns="http://www.w3.org/2000/svg" viewBox="0 0 382 209"><defs><style>.cls-1{fill:#fff;}.cls-2{fill:#fe5c5c;}.cls-3{fill:none;stroke:#fff;stroke-miterlimit:10;stroke-width:3px;}</style></defs><title>BrandHub-VectorGraphics</title><rect class="cls-1" x="-0.33" y="38.38" width="382" height="170.46"/><circle class="cls-2" cx="191.5" cy="30" r="28.5"/><line class="cls-3" x1="201.83" y1="19.67" x2="181.17" y2="40.33"/><line class="cls-3" x1="181.17" y1="19.67" x2="201.83" y2="40.33"/><path d="M163.15,112.86l4.59,15.31.39,1.74h.28l.43-1.74,4.55-15.31H176l-6.52,19.77h-2.64l-6.41-19.77Z"/><path d="M183.08,118a6.24,6.24,0,0,1,2.65.55,5.59,5.59,0,0,1,2,1.52,7,7,0,0,1,1.25,2.34,10.09,10.09,0,0,1,.43,3,9.51,9.51,0,0,1-.42,2.86,7.2,7.2,0,0,1-1.22,2.37,5.71,5.71,0,0,1-2,1.61,5.87,5.87,0,0,1-2.7.6,6.31,6.31,0,0,1-2.65-.54,5.63,5.63,0,0,1-2-1.52,6.7,6.7,0,0,1-1.26-2.35,9.94,9.94,0,0,1-.44-3,9.61,9.61,0,0,1,.42-2.89,7,7,0,0,1,1.23-2.35,5.79,5.79,0,0,1,2-1.58A6,6,0,0,1,183.08,118Zm0,1.93a3.72,3.72,0,0,0-1.87.43,3.62,3.62,0,0,0-1.23,1.17,5.23,5.23,0,0,0-.68,1.74,10.26,10.26,0,0,0-.21,2.13,10.5,10.5,0,0,0,.19,2,5.59,5.59,0,0,0,.66,1.76,3.56,3.56,0,0,0,1.22,1.25,4.15,4.15,0,0,0,3.78,0,3.5,3.5,0,0,0,1.24-1.18,5.17,5.17,0,0,0,.69-1.75,10.92,10.92,0,0,0,0-4.16,5.79,5.79,0,0,0-.66-1.75,3.45,3.45,0,0,0-1.23-1.23A3.69,3.69,0,0,0,183.06,119.94Z"/><path d="M195.8,112v2.55h-2.57V112Zm-.16,6.21v14.4h-2.25v-14.4Z"/><path d="M206.24,130.92a5.56,5.56,0,0,0,1.85-.3,6.72,6.72,0,0,0,1.6-.82l.62,1.93a6.83,6.83,0,0,1-1.84.82,8.3,8.3,0,0,1-2.36.3,7.09,7.09,0,0,1-2.89-.55,5.36,5.36,0,0,1-2-1.52,6.43,6.43,0,0,1-1.18-2.3,10.34,10.34,0,0,1-.39-2.91,10.56,10.56,0,0,1,.42-3,6.79,6.79,0,0,1,1.24-2.39,5.72,5.72,0,0,1,2-1.56,6.77,6.77,0,0,1,2.83-.56,8.19,8.19,0,0,1,2.31.3,7.51,7.51,0,0,1,1.84.82l-.62,1.93a6.62,6.62,0,0,0-1.59-.81,5.51,5.51,0,0,0-1.91-.31,4,4,0,0,0-1.9.42,3.63,3.63,0,0,0-1.31,1.15,5.11,5.11,0,0,0-.77,1.77,9.8,9.8,0,0,0-.24,2.24,10.6,10.6,0,0,0,.17,1.94,5.11,5.11,0,0,0,.65,1.74,3.64,3.64,0,0,0,1.31,1.24A4.24,4.24,0,0,0,206.24,130.92Z"/><path d="M215.6,125.85a8.83,8.83,0,0,0,.22,1.85,4.7,4.7,0,0,0,.71,1.63,3.75,3.75,0,0,0,1.36,1.15,4.7,4.7,0,0,0,2.15.44,6.69,6.69,0,0,0,1.13-.1,6.19,6.19,0,0,0,1-.3,5.47,5.47,0,0,0,1-.48c.32-.19.65-.4,1-.64l.9,1.78a8.37,8.37,0,0,1-2.25,1.23,8.17,8.17,0,0,1-2.77.44,7.73,7.73,0,0,1-3-.55,5.65,5.65,0,0,1-2.11-1.51,6,6,0,0,1-1.23-2.28,9.67,9.67,0,0,1-.4-2.85,10,10,0,0,1,.45-3.07,7.15,7.15,0,0,1,1.27-2.42,5.8,5.8,0,0,1,2-1.58,6.08,6.08,0,0,1,2.7-.58,5.69,5.69,0,0,1,2.44.49,5,5,0,0,1,1.78,1.34,5.82,5.82,0,0,1,1.09,2,8.63,8.63,0,0,1,.37,2.55c0,.23,0,.45,0,.65s0,.46-.07.78Zm4-6A3.5,3.5,0,0,0,217,121a4.39,4.39,0,0,0-.85,1.34,7.21,7.21,0,0,0-.47,1.79h7.44a6,6,0,0,0-.23-1.68,3.88,3.88,0,0,0-.67-1.35,3.18,3.18,0,0,0-1.1-.89A3.31,3.31,0,0,0,219.62,119.86Z"/><path d="M243.62,112.86a11.84,11.84,0,0,1,1.66.11,7.09,7.09,0,0,1,1.34.34,4.64,4.64,0,0,1,1.07.53,6,6,0,0,1,.86.7,4.74,4.74,0,0,1,1.08,1.72,6.33,6.33,0,0,1,.35,2.12,7.27,7.27,0,0,1-.22,1.85,4.45,4.45,0,0,1-2,2.77,6.21,6.21,0,0,1-2,.78l5.45,8.85h-2.75l-5.13-8.49H238.5v8.49h-2.38V112.86Zm-5.12,9.32h5.15a5.61,5.61,0,0,0,1.81-.25,2.9,2.9,0,0,0,1.21-.75,2.86,2.86,0,0,0,.68-1.19,5.66,5.66,0,0,0,.21-1.61,4.33,4.33,0,0,0-.21-1.35,2.9,2.9,0,0,0-.68-1.13,3.27,3.27,0,0,0-1.21-.77,5.29,5.29,0,0,0-1.81-.28H238.5Z"/><path d="M255.75,125.85a8.22,8.22,0,0,0,.23,1.85,4.52,4.52,0,0,0,.71,1.63,3.63,3.63,0,0,0,1.35,1.15,4.73,4.73,0,0,0,2.15.44,6.91,6.91,0,0,0,1.14-.1,6.08,6.08,0,0,0,1-.3,5.91,5.91,0,0,0,1-.48c.32-.19.64-.4,1-.64l.9,1.78a8.22,8.22,0,0,1-2.25,1.23,8.13,8.13,0,0,1-2.77.44,7.72,7.72,0,0,1-3-.55,5.69,5.69,0,0,1-2.12-1.51,6.27,6.27,0,0,1-1.23-2.28,10.77,10.77,0,0,1,.05-5.92,7.33,7.33,0,0,1,1.27-2.42,5.84,5.84,0,0,1,2-1.58,6,6,0,0,1,2.7-.58,5.72,5.72,0,0,1,2.44.49,4.92,4.92,0,0,1,1.77,1.34,5.82,5.82,0,0,1,1.09,2,8.32,8.32,0,0,1,.37,2.55c0,.23,0,.45,0,.65s0,.46-.06.78Zm4-6a3.43,3.43,0,0,0-1.44.29,3.57,3.57,0,0,0-1.18.83,4.59,4.59,0,0,0-.85,1.34,7.21,7.21,0,0,0-.47,1.79h7.44a5.69,5.69,0,0,0-.23-1.68,3.88,3.88,0,0,0-.67-1.35,3.09,3.09,0,0,0-1.1-.89A3.25,3.25,0,0,0,259.77,119.86Z"/><path d="M271.39,118.23l.29,2.53a4.91,4.91,0,0,1,.87-1.35,3.93,3.93,0,0,1,1-.84,3.7,3.7,0,0,1,1.11-.43,4.92,4.92,0,0,1,1.14-.13,7.83,7.83,0,0,1,1.29.11,4.35,4.35,0,0,1,1.2.4,3.92,3.92,0,0,1,1,.77,3.75,3.75,0,0,1,.74,1.24,6.49,6.49,0,0,1,.88-1.23,4.31,4.31,0,0,1,1-.77,4,4,0,0,1,1.09-.4,5.66,5.66,0,0,1,1.17-.12,5.16,5.16,0,0,1,1.93.33,4.19,4.19,0,0,1,1.43,1,4.4,4.4,0,0,1,.51.69,4.45,4.45,0,0,1,.39.85,7.1,7.1,0,0,1,.24,1.09,9.35,9.35,0,0,1,.09,1.37v9.33h-2.27v-9.72a5.41,5.41,0,0,0-.11-1,2.49,2.49,0,0,0-.43-1,2.43,2.43,0,0,0-.86-.71,3.1,3.1,0,0,0-1.39-.27,3.3,3.3,0,0,0-1.4.29,3.35,3.35,0,0,0-1.08.76,3.26,3.26,0,0,0-.7,1.12,4.09,4.09,0,0,0-.23,1.36v9.16H278v-9.72a4.75,4.75,0,0,0-.12-1,2.49,2.49,0,0,0-.43-1,2.43,2.43,0,0,0-.86-.71,3.18,3.18,0,0,0-1.4-.27,3.38,3.38,0,0,0-1.41.29,3.58,3.58,0,0,0-1.08.76,3.39,3.39,0,0,0-.69,1.12,3.85,3.85,0,0,0-.23,1.36v9.16h-2.25V120.76l-.27-2.53Z"/><path d="M298.86,118a6.23,6.23,0,0,1,2.64.55,5.72,5.72,0,0,1,2,1.52,7,7,0,0,1,1.24,2.34,9.78,9.78,0,0,1,.43,3,9.51,9.51,0,0,1-.42,2.86,7.18,7.18,0,0,1-1.21,2.37,5.74,5.74,0,0,1-2,1.61,5.82,5.82,0,0,1-2.69.6,6.24,6.24,0,0,1-2.65-.54,5.66,5.66,0,0,1-2-1.52,6.7,6.7,0,0,1-1.26-2.35,9.94,9.94,0,0,1-.44-3,9.61,9.61,0,0,1,.42-2.89,7,7,0,0,1,1.23-2.35,5.73,5.73,0,0,1,2-1.58A6,6,0,0,1,298.86,118Zm0,1.93a3.72,3.72,0,0,0-1.87.43,3.62,3.62,0,0,0-1.23,1.17,5.23,5.23,0,0,0-.68,1.74,10.26,10.26,0,0,0-.21,2.13,9.78,9.78,0,0,0,.2,2,5.58,5.58,0,0,0,.65,1.76,3.68,3.68,0,0,0,1.23,1.25,3.63,3.63,0,0,0,1.91.47,3.72,3.72,0,0,0,1.87-.44,3.47,3.47,0,0,0,1.23-1.18,5.17,5.17,0,0,0,.69-1.75,9.76,9.76,0,0,0,.22-2.14,10.33,10.33,0,0,0-.2-2,5.3,5.3,0,0,0-.66-1.75,3.3,3.3,0,0,0-1.23-1.23A3.64,3.64,0,0,0,298.83,119.94Z"/><path d="M311.7,114.4v3.83h3.4V120h-3.4v9.24a3.24,3.24,0,0,0,.06.64,1.5,1.5,0,0,0,.24.51,1.25,1.25,0,0,0,.43.35,1.62,1.62,0,0,0,.66.13h2.16l-.15,1.73a2.7,2.7,0,0,1-.4.14,3,3,0,0,1-.48.08l-.62,0-.85,0a3.67,3.67,0,0,1-1.42-.26,2.85,2.85,0,0,1-1.66-1.76,3.5,3.5,0,0,1-.22-1.25V120H307.1v-1.74h2.35l.28-3.83Z"/><path d="M319.76,125.85a8.84,8.84,0,0,0,.23,1.85,4.7,4.7,0,0,0,.71,1.63,3.63,3.63,0,0,0,1.35,1.15,4.74,4.74,0,0,0,2.16.44,6.69,6.69,0,0,0,1.13-.1,5.82,5.82,0,0,0,1-.3,5.55,5.55,0,0,0,1-.48c.32-.19.64-.4,1-.64l.9,1.78a8.22,8.22,0,0,1-2.25,1.23,8.11,8.11,0,0,1-2.76.44,7.73,7.73,0,0,1-3-.55,5.57,5.57,0,0,1-2.11-1.51,6.14,6.14,0,0,1-1.24-2.28,10,10,0,0,1-.39-2.85,10.35,10.35,0,0,1,.44-3.07,7.33,7.33,0,0,1,1.27-2.42,5.93,5.93,0,0,1,2-1.58,6,6,0,0,1,2.7-.58,5.72,5.72,0,0,1,2.44.49,5,5,0,0,1,1.78,1.34,5.81,5.81,0,0,1,1.08,2,8.32,8.32,0,0,1,.37,2.55c0,.23,0,.45,0,.65s0,.46-.06.78Zm4-6a3.43,3.43,0,0,0-1.44.29,3.67,3.67,0,0,0-1.18.83,4.37,4.37,0,0,0-.84,1.34,7.21,7.21,0,0,0-.48,1.79h7.44a6,6,0,0,0-.22-1.68,4.07,4.07,0,0,0-.67-1.35,3.28,3.28,0,0,0-1.1-.89A3.32,3.32,0,0,0,323.78,119.86Z"/><path d="M56.48,123.74l6.62-8.87H60.34a3,3,0,0,0-2.69,1.31l-3.49,4.69-3.39-4.69a3,3,0,0,0-2.69-1.31H45.32l6.54,8.87-7.16,9.67h2.62A3,3,0,0,0,50,132.1l4.15-5.49L63.86,140a3,3,0,0,0,2.7,1.31h2.83Zm53,9.67h3.75V114.87h-3.75Zm-29.7,0H83.5V114.87H79.76ZM136.55,140l13.57-25.09h-2a2.75,2.75,0,0,0-2.69,1.31L140,126.1l-4.61-9.92a2.67,2.67,0,0,0-2.69-1.31h-2L137.9,130l-6.22,11.35h2A3,3,0,0,0,136.55,140ZM88,114.87v18.54h3.75V120.69A5.88,5.88,0,0,1,96.63,118c2.76,0,4.65,1.75,4.65,5.24v8.36a1.69,1.69,0,0,0,1.75,1.78h2v-10.8c0-4.8-3.06-8.14-7.49-8.14a8.31,8.31,0,0,0-5.82,2.22v-1.82Zm32.18,12c0,4,2.48,6.91,6.91,6.91a9.87,9.87,0,0,0,2.73-.36L129,130.1a7.69,7.69,0,0,1-1.71.19,3.18,3.18,0,0,1-3.42-3.53v-8.55h5.24l-1.53-3.34H123.9v-7.46l-3.75,1.64v5.82h-4v3.34h4Zm-51.92-8.62v15.2H72v-15.2h4.8v-3.34H72v-1.38c0-3.17,1.89-4.22,3.75-4.22a4.42,4.42,0,0,1,1.27.18l.77-3.31a6.66,6.66,0,0,0-2.33-.36c-4.66,0-7.2,3.45-7.2,7.63v1.46h-2l-2.36,3.34Z"/></svg>