<svg id="Vector" xmlns="http://www.w3.org/2000/svg" viewBox="0 0 382 209"><defs><style>.cls-1{fill:#fff;}.cls-2{fill:#fe5c5c;}.cls-3{fill:none;stroke:#fff;stroke-miterlimit:10;stroke-width:3px;}.cls-4{fill:#58595b;}</style></defs><title>BrandHub-VectorGraphics</title><rect class="cls-1" x="-0.33" y="38.38" width="382" height="170.46"/><circle class="cls-2" cx="191.5" cy="30" r="28.5"/><line class="cls-3" x1="201.83" y1="19.67" x2="181.17" y2="40.33"/><line class="cls-3" x1="181.17" y1="19.67" x2="201.83" y2="40.33"/><path d="M108.59,101.23v26.49h6.53V101.23h8.37V95.39h-8.37V93c0-5.52,3.3-7.36,6.53-7.36a7.87,7.87,0,0,1,2.22.32l1.33-5.77a11.65,11.65,0,0,0-4.06-.63c-8.11,0-12.55,6-12.55,13.31v2.53h-3.42l-4.12,5.84Zm90.51,15c0,7,4.31,12,12.05,12a16.61,16.61,0,0,0,4.75-.63L214.57,122a13.39,13.39,0,0,1-3,.32c-3.17,0-6-1.71-6-6.15V101.23h9.13l-2.66-5.84h-6.47v-13l-6.53,2.85V95.39h-6.9v5.84h6.9v15ZM143,95.39v32.33h6.53V105.54a10.26,10.26,0,0,1,8.55-4.63c4.82,0,8.12,3,8.12,9.13v14.57a3,3,0,0,0,3,3.11h3.49V108.9c0-8.37-5.33-14.2-13.06-14.2a14.6,14.6,0,0,0-10.14,3.86V95.39Zm84.68,43.74,23.64-43.74h-3.55c-2.15,0-3.8.64-4.69,2.29L233.78,115l-8.05-17.3c-.83-1.71-2.54-2.29-4.69-2.29h-3.43L230,121.76,219.2,141.54h3.55c2.22,0,4-.7,4.94-2.41Zm-99-11.41h6.53V95.39h-6.53v32.33Zm51.79,0H187V95.39h-6.53v32.33Zm-69.85,13.82h-4.94a5.25,5.25,0,0,1-4.69-2.28L84.06,115.87l-7.22,9.57a5.35,5.35,0,0,1-4.69,2.28H67.58l12.49-16.86L68.66,95.39h4.82a5.35,5.35,0,0,1,4.69,2.29l5.89,8.17,6.09-8.17a5.34,5.34,0,0,1,4.69-2.29h4.81L88.12,110.86l22.5,30.68ZM313.5,95.39h-9.95l-4.12,5.84H307v26.49h6.53V95.39Zm-27,15.47L298,95.39h-4.81a5.34,5.34,0,0,0-4.69,2.29l-6.09,8.17-5.89-8.17a5.35,5.35,0,0,0-4.69-2.29H267l11.41,15.47L266,127.72h4.57a5.36,5.36,0,0,0,4.69-2.28l7.22-9.57,16.92,23.39a5.28,5.28,0,0,0,4.7,2.28H309l-22.5-30.68Z"/><path class="cls-4" d="M109.36,155.2v1.29h-3.82v11.42H104V156.49h-3.81V155.2Z"/><path class="cls-4" d="M112.56,154.67v5.48a3.54,3.54,0,0,1,.55-.82,2.35,2.35,0,0,1,.62-.49,2.23,2.23,0,0,1,.71-.25,4.11,4.11,0,0,1,.8-.07,3.34,3.34,0,0,1,1.27.23,2.87,2.87,0,0,1,.94.65,2.75,2.75,0,0,1,.61,1,4.91,4.91,0,0,1,.2,1.5v6h-1.43v-6.25a2.56,2.56,0,0,0-.11-.71,1.53,1.53,0,0,0-.38-.65,1.71,1.71,0,0,0-.59-.4,2.6,2.6,0,0,0-.91-.14,2.42,2.42,0,0,0-1,.18,2.29,2.29,0,0,0-.72.49,2.24,2.24,0,0,0-.45.72,2.57,2.57,0,0,0-.15.87v5.89h-1.44V154.67Z"/><path class="cls-4" d="M122.17,163.55a5.87,5.87,0,0,0,.15,1.19,2.93,2.93,0,0,0,.46,1,2.26,2.26,0,0,0,.87.74,3,3,0,0,0,1.38.28,4.23,4.23,0,0,0,.73-.06,4.58,4.58,0,0,0,.66-.19,3.68,3.68,0,0,0,.63-.31,7.49,7.49,0,0,0,.63-.41l.58,1.14a5.53,5.53,0,0,1-1.45.79,5.16,5.16,0,0,1-1.78.28,4.85,4.85,0,0,1-2-.35,3.63,3.63,0,0,1-1.35-1,3.73,3.73,0,0,1-.79-1.47,6.27,6.27,0,0,1-.26-1.83,6.51,6.51,0,0,1,.29-2,4.81,4.81,0,0,1,.81-1.56,3.78,3.78,0,0,1,1.3-1,4,4,0,0,1,1.74-.37,3.73,3.73,0,0,1,1.57.31,3.25,3.25,0,0,1,1.14.86,3.79,3.79,0,0,1,.7,1.3,5.48,5.48,0,0,1,.24,1.65c0,.14,0,.28,0,.41s0,.3,0,.5Zm2.59-3.85a2.21,2.21,0,0,0-.93.19,2.18,2.18,0,0,0-.75.53,2.88,2.88,0,0,0-.55.86,4.8,4.8,0,0,0-.3,1.16H127a3.83,3.83,0,0,0-.15-1.09,2.4,2.4,0,0,0-.43-.86,2.07,2.07,0,0,0-.7-.58A2.19,2.19,0,0,0,124.76,159.7Z"/><path class="cls-4" d="M135.26,158.66V157a2.84,2.84,0,0,1,.16-1,2.2,2.2,0,0,1,.45-.79,2.05,2.05,0,0,1,.73-.53,2.41,2.41,0,0,1,1-.19,4.58,4.58,0,0,1,.85.06,1.34,1.34,0,0,1,.42.14l-.19,1.14a3.34,3.34,0,0,0-.43-.08,4,4,0,0,0-.49,0,1.72,1.72,0,0,0-.5.07.63.63,0,0,0-.33.21.68.68,0,0,0-.18.37,2.15,2.15,0,0,0-.06.55v1.76h2.17v1.11h-2.17v8.14h-1.43v-8.14h-1.54v-1.11Z"/><path class="cls-4" d="M146.24,167.91l-.19-1.62a3.37,3.37,0,0,1-.56.86,2.49,2.49,0,0,1-.65.54,2.22,2.22,0,0,1-.74.28,3.59,3.59,0,0,1-.81.08,3.13,3.13,0,0,1-1.27-.24,2.75,2.75,0,0,1-1-.64,2.87,2.87,0,0,1-.6-1,4.59,4.59,0,0,1-.21-1.5v-6h1.44v6.25a3.12,3.12,0,0,0,.1.72,1.47,1.47,0,0,0,.37.65,1.63,1.63,0,0,0,.6.38,2.74,2.74,0,0,0,1.87,0,2.09,2.09,0,0,0,1.17-1.21,2.35,2.35,0,0,0,.16-.87v-5.89h1.44v7.63l.17,1.62Z"/><path class="cls-4" d="M152.29,156.2v2.46h2.18v1.11h-2.18v5.94a1.73,1.73,0,0,0,0,.41.84.84,0,0,0,.15.33.71.71,0,0,0,.28.23,1,1,0,0,0,.42.08h1.39l-.1,1.12a1.6,1.6,0,0,1-.26.08,1.33,1.33,0,0,1-.3.06l-.4,0H153a2.35,2.35,0,0,1-.91-.16,2,2,0,0,1-.67-.46,2.17,2.17,0,0,1-.4-.67,2.46,2.46,0,0,1-.14-.81v-6.18h-1.51v-1.11h1.51l.18-2.46Z"/><path class="cls-4" d="M162.44,167.91l-.19-1.62a3.37,3.37,0,0,1-.56.86,2.67,2.67,0,0,1-.65.54,2.3,2.3,0,0,1-.74.28,3.62,3.62,0,0,1-.82.08,3.16,3.16,0,0,1-1.27-.24,2.8,2.8,0,0,1-.94-.64,2.73,2.73,0,0,1-.6-1,4.59,4.59,0,0,1-.21-1.5v-6h1.44v6.25a2.66,2.66,0,0,0,.1.72,1.47,1.47,0,0,0,.37.65,1.63,1.63,0,0,0,.6.38,2.74,2.74,0,0,0,1.87,0,2.09,2.09,0,0,0,1.17-1.21,2.57,2.57,0,0,0,.15-.87v-5.89h1.45v7.63l.17,1.62Z"/><path class="cls-4" d="M168,158.66l.18,1.62c.14-.23.28-.45.43-.66a3.11,3.11,0,0,1,.49-.53,2.24,2.24,0,0,1,.59-.35,1.8,1.8,0,0,1,.71-.14l.44,0c.16,0,.34.06.52.11l-.17,1.53-.54-.1-.4,0a2,2,0,0,0-1.46.51,1.87,1.87,0,0,0-.52,1.43v5.82h-1.44v-7.64l-.18-1.61Z"/><path class="cls-4" d="M173.69,163.55a5.23,5.23,0,0,0,.14,1.19,3.11,3.11,0,0,0,.46,1,2.26,2.26,0,0,0,.87.74,3,3,0,0,0,1.38.28,4.23,4.23,0,0,0,.73-.06,5.12,5.12,0,0,0,.67-.19,4,4,0,0,0,.62-.31,7.49,7.49,0,0,0,.63-.41l.58,1.14a5.53,5.53,0,0,1-1.45.79,5.16,5.16,0,0,1-1.78.28,4.77,4.77,0,0,1-1.94-.35,3.67,3.67,0,0,1-1.36-1,3.86,3.86,0,0,1-.79-1.47,6.27,6.27,0,0,1-.26-1.83,6.51,6.51,0,0,1,.29-2,4.64,4.64,0,0,1,.82-1.56,3.6,3.6,0,0,1,1.3-1,3.89,3.89,0,0,1,1.73-.37,3.7,3.7,0,0,1,1.57.31,3.07,3.07,0,0,1,1.14.86,3.79,3.79,0,0,1,.7,1.3,5.48,5.48,0,0,1,.24,1.65c0,.14,0,.28,0,.41s0,.3,0,.5Zm2.58-3.85a2.24,2.24,0,0,0-.93.19,2.28,2.28,0,0,0-.75.53,3.1,3.1,0,0,0-.55.86,4.8,4.8,0,0,0-.3,1.16h4.78a4.22,4.22,0,0,0-.14-1.09,2.57,2.57,0,0,0-.43-.86,2.21,2.21,0,0,0-.71-.58A2.16,2.16,0,0,0,176.27,159.7Z"/><path class="cls-4" d="M190.11,158.52a3.86,3.86,0,0,1,1.7.35,3.54,3.54,0,0,1,1.28,1,4.49,4.49,0,0,1,.8,1.5,6.45,6.45,0,0,1,.28,1.92,6.11,6.11,0,0,1-.27,1.84,4.65,4.65,0,0,1-.78,1.52,3.76,3.76,0,0,1-1.27,1,3.9,3.9,0,0,1-1.74.38,4,4,0,0,1-1.7-.34,3.65,3.65,0,0,1-1.28-1,4.14,4.14,0,0,1-.81-1.51,6.86,6.86,0,0,1,0-3.81,4.62,4.62,0,0,1,.79-1.51,3.65,3.65,0,0,1,1.29-1A3.83,3.83,0,0,1,190.11,158.52Zm0,1.24a2.42,2.42,0,0,0-1.2.27,2.27,2.27,0,0,0-.79.75,3.2,3.2,0,0,0-.44,1.12,6.62,6.62,0,0,0-.14,1.37,6.33,6.33,0,0,0,.13,1.31,3.39,3.39,0,0,0,.42,1.13,2.33,2.33,0,0,0,.79.8,2.29,2.29,0,0,0,1.23.3,2.37,2.37,0,0,0,1.2-.28,2.3,2.3,0,0,0,.79-.76,3.42,3.42,0,0,0,.45-1.12,6.74,6.74,0,0,0,.13-1.38,6.23,6.23,0,0,0-.13-1.3,3.26,3.26,0,0,0-.42-1.12,2.24,2.24,0,0,0-.79-.8A2.33,2.33,0,0,0,190.1,159.76Z"/><path class="cls-4" d="M197,158.66V157a3.1,3.1,0,0,1,.15-1,2.2,2.2,0,0,1,.45-.79,2.09,2.09,0,0,1,.74-.53,2.4,2.4,0,0,1,1-.19,4.7,4.7,0,0,1,.86.06,1.34,1.34,0,0,1,.42.14l-.2,1.14a2.87,2.87,0,0,0-.42-.08,4.21,4.21,0,0,0-.5,0,1.77,1.77,0,0,0-.5.07.72.72,0,0,0-.33.21.85.85,0,0,0-.18.37,2.79,2.79,0,0,0,0,.55v1.76h2.16v1.11h-2.16v8.14H197v-8.14h-1.54v-1.11Z"/><path class="cls-4" d="M207.92,156.2v2.46h2.19v1.11h-2.19v5.94a2.48,2.48,0,0,0,0,.41.84.84,0,0,0,.15.33.79.79,0,0,0,.28.23,1.06,1.06,0,0,0,.43.08h1.39l-.1,1.12-.26.08a1.31,1.31,0,0,1-.31.06l-.4,0h-.54a2.4,2.4,0,0,1-.92-.16,2.11,2.11,0,0,1-.66-.46,2,2,0,0,1-.4-.67,2.23,2.23,0,0,1-.14-.81v-6.18H205v-1.11h1.51l.17-2.46Z"/><path class="cls-4" d="M213.11,163.55a5.23,5.23,0,0,0,.14,1.19,2.93,2.93,0,0,0,.46,1,2.26,2.26,0,0,0,.87.74,3,3,0,0,0,1.38.28,4.23,4.23,0,0,0,.73-.06,5.12,5.12,0,0,0,.67-.19,4,4,0,0,0,.62-.31,7.49,7.49,0,0,0,.63-.41l.58,1.14a5.53,5.53,0,0,1-1.45.79,5.16,5.16,0,0,1-1.78.28,4.77,4.77,0,0,1-1.94-.35,3.67,3.67,0,0,1-1.36-1,3.86,3.86,0,0,1-.79-1.47,6.27,6.27,0,0,1-.26-1.83,6.51,6.51,0,0,1,.29-2,4.81,4.81,0,0,1,.81-1.56,3.72,3.72,0,0,1,1.31-1,3.89,3.89,0,0,1,1.73-.37,3.7,3.7,0,0,1,1.57.31,3.16,3.16,0,0,1,1.14.86,3.79,3.79,0,0,1,.7,1.3,5.48,5.48,0,0,1,.24,1.65c0,.14,0,.28,0,.41s0,.3,0,.5Zm2.58-3.85a2.24,2.24,0,0,0-.93.19,2.28,2.28,0,0,0-.75.53,3.1,3.1,0,0,0-.55.86,4.8,4.8,0,0,0-.3,1.16h4.78a3.83,3.83,0,0,0-.15-1.09,2.4,2.4,0,0,0-.43-.86,2.07,2.07,0,0,0-.7-.58A2.16,2.16,0,0,0,215.69,159.7Z"/><path class="cls-4" d="M223.43,154.67v13.24H222V154.67Z"/><path class="cls-4" d="M227.5,163.55a5.87,5.87,0,0,0,.15,1.19,3.09,3.09,0,0,0,.45,1,2.42,2.42,0,0,0,.87.74,3,3,0,0,0,1.39.28,4.23,4.23,0,0,0,.73-.06,4.58,4.58,0,0,0,.66-.19,3.68,3.68,0,0,0,.63-.31,7.36,7.36,0,0,0,.62-.41l.58,1.14a5.32,5.32,0,0,1-1.44.79,5.16,5.16,0,0,1-1.78.28,4.85,4.85,0,0,1-2-.35,3.67,3.67,0,0,1-1.36-1,4,4,0,0,1-.79-1.47,6.28,6.28,0,0,1-.25-1.83,6.51,6.51,0,0,1,.28-2,4.83,4.83,0,0,1,.82-1.56,3.78,3.78,0,0,1,1.3-1,3.9,3.9,0,0,1,1.74-.37,3.73,3.73,0,0,1,1.57.31,3.25,3.25,0,0,1,1.14.86,3.79,3.79,0,0,1,.7,1.3,5.48,5.48,0,0,1,.24,1.65c0,.14,0,.28,0,.41s0,.3,0,.5Zm2.59-3.85a2.18,2.18,0,0,0-.93.19,2.32,2.32,0,0,0-.76.53,2.86,2.86,0,0,0-.54.86,4,4,0,0,0-.3,1.16h4.78a3.83,3.83,0,0,0-.15-1.09,2.57,2.57,0,0,0-.43-.86,2,2,0,0,0-1.67-.79Z"/><path class="cls-4" d="M236.54,158.66l2.25,6.71.19.81h.09l.22-.81,2.28-6.71h1.57l-3.42,9.25h-1.46l-3.38-9.25Z"/><path class="cls-4" d="M246.4,154.67v1.63h-1.65v-1.63Zm-.11,4v9.25h-1.44v-9.25Z"/><path class="cls-4" d="M254.5,160.2c-.38-.14-.76-.26-1.14-.37a4.65,4.65,0,0,0-1.27-.16,3.11,3.11,0,0,0-.69.07,1.62,1.62,0,0,0-.57.22,1.09,1.09,0,0,0-.53,1,1.18,1.18,0,0,0,.17.65,1.36,1.36,0,0,0,.47.45,3.75,3.75,0,0,0,.75.34c.29.1.61.19,1,.29a6.69,6.69,0,0,1,.84.31,3.2,3.2,0,0,1,.8.51,2.29,2.29,0,0,1,.59.77,2.44,2.44,0,0,1,.23,1.09,2.51,2.51,0,0,1-.3,1.27,2.6,2.6,0,0,1-.8.88,3.5,3.5,0,0,1-1.14.52,5.56,5.56,0,0,1-1.36.16,6.54,6.54,0,0,1-.89-.06c-.29,0-.56-.09-.8-.14s-.46-.12-.64-.18a2.52,2.52,0,0,1-.39-.18l.29-1.22a7,7,0,0,0,1,.42,4.44,4.44,0,0,0,1.37.2,4.26,4.26,0,0,0,.8-.08,2.22,2.22,0,0,0,.7-.23,1.44,1.44,0,0,0,.5-.45,1.15,1.15,0,0,0,.19-.69,1.23,1.23,0,0,0-.18-.68,1.56,1.56,0,0,0-.5-.49,3.85,3.85,0,0,0-.76-.38c-.3-.11-.62-.21-1-.32a5.17,5.17,0,0,1-.82-.35,3.34,3.34,0,0,1-.76-.53,2.73,2.73,0,0,1-.56-.74,2.19,2.19,0,0,1-.21-1,2.45,2.45,0,0,1,.24-1.11,2.16,2.16,0,0,1,.67-.8,2.86,2.86,0,0,1,1-.5,4.82,4.82,0,0,1,1.3-.16,8.42,8.42,0,0,1,1.42.12,5.44,5.44,0,0,1,1.21.36Z"/><path class="cls-4" d="M259.14,154.67v1.63h-1.65v-1.63Zm-.1,4v9.25H257.6v-9.25Z"/><path class="cls-4" d="M265.69,158.52a3.89,3.89,0,0,1,1.7.35,3.62,3.62,0,0,1,1.28,1,4.67,4.67,0,0,1,.8,1.5,6.46,6.46,0,0,1,.27,1.92,6.11,6.11,0,0,1-.27,1.84,4.3,4.3,0,0,1-.78,1.52,3.57,3.57,0,0,1-1.27,1,3.83,3.83,0,0,1-1.73.38,4,4,0,0,1-1.7-.34,3.69,3.69,0,0,1-1.29-1,4.46,4.46,0,0,1-.81-1.51,6.56,6.56,0,0,1-.28-1.95,6.24,6.24,0,0,1,.27-1.86,4.44,4.44,0,0,1,.79-1.51,3.65,3.65,0,0,1,1.29-1A3.83,3.83,0,0,1,265.69,158.52Zm0,1.24a2.47,2.47,0,0,0-1.2.27,2.36,2.36,0,0,0-.79.75,3.41,3.41,0,0,0-.44,1.12,6.64,6.64,0,0,0-.13,1.37,7.09,7.09,0,0,0,.12,1.31,3.64,3.64,0,0,0,.43,1.13,2.21,2.21,0,0,0,.78.8,2.38,2.38,0,0,0,3.23-.74,3.41,3.41,0,0,0,.44-1.12,6.72,6.72,0,0,0,.14-1.38,6.23,6.23,0,0,0-.13-1.3,3.26,3.26,0,0,0-.42-1.12,2.16,2.16,0,0,0-2-1.09Z"/><path class="cls-4" d="M273.49,158.66l.18,1.62a4.13,4.13,0,0,1,.56-.86,2.7,2.7,0,0,1,.66-.54,2.22,2.22,0,0,1,.74-.28,3.59,3.59,0,0,1,.81-.08,3.34,3.34,0,0,1,1.27.23,2.87,2.87,0,0,1,.94.65,2.75,2.75,0,0,1,.61,1,4.91,4.91,0,0,1,.2,1.5v6H278v-6.25a2.53,2.53,0,0,0-.1-.71,1.51,1.51,0,0,0-.37-.65,1.85,1.85,0,0,0-.6-.4,2.7,2.7,0,0,0-.92-.14,2.42,2.42,0,0,0-1,.18,2.29,2.29,0,0,0-.72.49,2.43,2.43,0,0,0-.45.72,2.57,2.57,0,0,0-.15.87v5.89h-1.44v-7.63l-.18-1.62Z"/></svg>