<svg id="Vector" xmlns="http://www.w3.org/2000/svg" viewBox="0 0 382 209"><defs><style>.cls-1{fill:#fff;}.cls-2{fill:#fe5c5c;}.cls-3{fill:none;stroke:#fff;stroke-miterlimit:10;stroke-width:3px;}</style></defs><title>BrandHub-VectorGraphics</title><rect class="cls-1" x="-0.33" y="38.38" width="382" height="170.46"/><circle class="cls-2" cx="191.5" cy="30" r="28.5"/><line class="cls-3" x1="201.83" y1="19.67" x2="181.17" y2="40.33"/><line class="cls-3" x1="181.17" y1="19.67" x2="201.83" y2="40.33"/><path d="M94.63,123.69l6.63-8.89H98.49a3,3,0,0,0-2.69,1.31l-3.5,4.7-3.39-4.7a3,3,0,0,0-2.69-1.31H83.45L90,123.69l-7.18,9.68h2.62a3.07,3.07,0,0,0,2.7-1.31l4.15-5.5L102,140a3,3,0,0,0,2.69,1.32h2.84Zm53.08,9.68h3.75V114.8h-3.75Zm-29.76,0h3.75V114.8H118Zm56.89,6.56,13.59-25.13h-2a2.77,2.77,0,0,0-2.7,1.31l-5.35,9.94-4.63-9.94A2.67,2.67,0,0,0,171,114.8h-2L176.19,130,170,141.32h2A3,3,0,0,0,174.84,139.93ZM126.18,114.8v18.57h3.75V120.63a5.91,5.91,0,0,1,4.92-2.66c2.77,0,4.66,1.75,4.66,5.24v8.38a1.69,1.69,0,0,0,1.75,1.78h2V122.56c0-4.81-3.06-8.16-7.5-8.16a8.34,8.34,0,0,0-5.83,2.22V114.8Zm32.23,12c0,4,2.48,6.92,6.93,6.92a9.51,9.51,0,0,0,2.73-.36l-.77-3.28a7.6,7.6,0,0,1-1.71.18,3.18,3.18,0,0,1-3.42-3.53v-8.56h5.24l-1.53-3.35h-3.71v-7.47L158.41,109v5.83h-4v3.35h4Zm-52-8.63v15.22h3.75V118.15H115V114.8h-4.81v-1.39c0-3.17,1.89-4.22,3.75-4.22a4.49,4.49,0,0,1,1.28.18l.76-3.31a6.35,6.35,0,0,0-2.33-.37c-4.66,0-7.21,3.46-7.21,7.65v1.46h-2l-2.37,3.35Z"/><path d="M200.11,112.86v19.77h-2.38V112.86Z"/><path d="M207.25,118.23l.28,2.53a6.1,6.1,0,0,1,.88-1.34,4.19,4.19,0,0,1,1-.85,3.67,3.67,0,0,1,1.14-.43,5.88,5.88,0,0,1,1.27-.13,5,5,0,0,1,2,.37,4.61,4.61,0,0,1,1.47,1,4.36,4.36,0,0,1,.94,1.59,7.4,7.4,0,0,1,.32,2.33v9.33h-2.23v-9.72a4.37,4.37,0,0,0-.15-1.12,2.35,2.35,0,0,0-.58-1,2.61,2.61,0,0,0-.93-.62,4,4,0,0,0-1.43-.23,3.75,3.75,0,0,0-1.5.29,3.26,3.26,0,0,0-1.81,1.88,3.85,3.85,0,0,0-.24,1.36v9.16h-2.24V120.76l-.28-2.53Z"/><path d="M223.86,114.4v3.83h3.4V120h-3.4v9.24a3.24,3.24,0,0,0,.06.64,1.5,1.5,0,0,0,.24.51,1.25,1.25,0,0,0,.43.35,1.62,1.62,0,0,0,.66.13h2.16l-.15,1.73a2.7,2.7,0,0,1-.4.14,3,3,0,0,1-.48.08l-.62,0-.85,0a3.67,3.67,0,0,1-1.42-.26,3.1,3.1,0,0,1-1-.71,3.17,3.17,0,0,1-.62-1,3.5,3.5,0,0,1-.22-1.25V120h-2.35v-1.74h2.35l.28-3.83Z"/><path d="M231.92,125.85a8.84,8.84,0,0,0,.23,1.85,4.7,4.7,0,0,0,.71,1.63,3.63,3.63,0,0,0,1.35,1.15,4.74,4.74,0,0,0,2.16.44,6.69,6.69,0,0,0,1.13-.1,5.82,5.82,0,0,0,1-.3,6.34,6.34,0,0,0,1-.48c.32-.19.64-.4,1-.64l.9,1.78a8.22,8.22,0,0,1-2.25,1.23,8.07,8.07,0,0,1-2.76.44,7.73,7.73,0,0,1-3-.55,5.65,5.65,0,0,1-2.11-1.51,6,6,0,0,1-1.23-2.28,9.69,9.69,0,0,1-.4-2.86,10.33,10.33,0,0,1,.44-3.06,7.33,7.33,0,0,1,1.27-2.42,5.93,5.93,0,0,1,2-1.58A6.08,6.08,0,0,1,236,118a5.72,5.72,0,0,1,2.44.49,5,5,0,0,1,1.78,1.34,5.81,5.81,0,0,1,1.08,2,8.32,8.32,0,0,1,.37,2.55c0,.23,0,.45,0,.65s0,.46-.06.78Zm4-6a3.43,3.43,0,0,0-1.44.29,3.52,3.52,0,0,0-1.18.83,4.37,4.37,0,0,0-.84,1.34,7.09,7.09,0,0,0-.48,1.79h7.44a6,6,0,0,0-.22-1.68,4.07,4.07,0,0,0-.67-1.35,3.16,3.16,0,0,0-1.1-.89A3.32,3.32,0,0,0,235.94,119.86Z"/><path d="M247.56,118.23l.29,2.53c.21-.36.43-.71.66-1a4.69,4.69,0,0,1,.78-.82,3.72,3.72,0,0,1,.91-.56,3,3,0,0,1,1.1-.2,4.31,4.31,0,0,1,.69,0,7.05,7.05,0,0,1,.81.15l-.27,2.38a8.07,8.07,0,0,0-.84-.14l-.63,0a3.13,3.13,0,0,0-2.26.78,3,3,0,0,0-.81,2.24v9h-2.24v-11.9l-.28-2.5Z"/><path d="M257.45,118.23l.29,2.53a5.75,5.75,0,0,1,.87-1.34,4.19,4.19,0,0,1,1-.85,3.63,3.63,0,0,1,1.15-.43A5.73,5.73,0,0,1,262,118a5.07,5.07,0,0,1,2,.37,4.61,4.61,0,0,1,1.47,1,4.34,4.34,0,0,1,.93,1.59,7.1,7.1,0,0,1,.33,2.33v9.33h-2.23v-9.72a4.39,4.39,0,0,0-.16-1.12,2.35,2.35,0,0,0-.58-1,2.61,2.61,0,0,0-.93-.62,3.91,3.91,0,0,0-1.42-.23,3.77,3.77,0,0,0-1.51.29,3.37,3.37,0,0,0-1.11.76,3.26,3.26,0,0,0-.7,1.12,3.85,3.85,0,0,0-.24,1.36v9.16h-2.24V120.76l-.27-2.53Z"/><path d="M272.83,125.85a8.83,8.83,0,0,0,.22,1.85,4.72,4.72,0,0,0,.72,1.63,3.63,3.63,0,0,0,1.35,1.15,4.73,4.73,0,0,0,2.15.44,6.91,6.91,0,0,0,1.14-.1,6.08,6.08,0,0,0,1-.3,6.82,6.82,0,0,0,1-.48c.32-.19.64-.4,1-.64l.9,1.78a7.87,7.87,0,0,1-5,1.67,7.8,7.8,0,0,1-3-.55,5.73,5.73,0,0,1-2.11-1.51,6.27,6.27,0,0,1-1.23-2.28,10.53,10.53,0,0,1,.05-5.92,7.33,7.33,0,0,1,1.27-2.42,5.9,5.9,0,0,1,2-1.58,6.08,6.08,0,0,1,2.7-.58,5.65,5.65,0,0,1,2.44.49,5,5,0,0,1,1.78,1.34,5.82,5.82,0,0,1,1.09,2,8.32,8.32,0,0,1,.37,2.55c0,.23,0,.45,0,.65s0,.46-.06.78Zm4-6a3.43,3.43,0,0,0-1.44.29,3.33,3.33,0,0,0-1.18.83,4.59,4.59,0,0,0-.85,1.34,7.1,7.1,0,0,0-.47,1.79h7.44a6,6,0,0,0-.23-1.68,3.88,3.88,0,0,0-.67-1.35,3,3,0,0,0-1.1-.89A3.31,3.31,0,0,0,276.85,119.86Z"/><path d="M289.45,114.4v3.83h3.41V120h-3.41v9.24a3.22,3.22,0,0,0,.07.64,1.69,1.69,0,0,0,.23.51,1.29,1.29,0,0,0,.44.35,1.55,1.55,0,0,0,.66.13H293l-.15,1.73a2.47,2.47,0,0,1-.41.14,3.06,3.06,0,0,1-.47.08l-.63,0-.84,0a3.76,3.76,0,0,1-1.43-.26,3.05,3.05,0,0,1-1-.71,3.2,3.2,0,0,1-.63-1,3.73,3.73,0,0,1-.21-1.25V120h-2.35v-1.74h2.35l.28-3.83Z"/></svg>