<svg id="Vector" xmlns="http://www.w3.org/2000/svg" xmlns:xlink="http://www.w3.org/1999/xlink" viewBox="0 0 382 209"><defs><style>.cls-1,.cls-4{fill:none;}.cls-2{fill:#fff;}.cls-3{fill:#fe5c5c;}.cls-4{stroke:#fff;stroke-miterlimit:10;stroke-width:3px;}.cls-5{clip-path:url(#clip-path);}.cls-6{fill:#ef3e33;}</style><clipPath id="clip-path"><rect class="cls-1" x="243.45" y="98.28" width="91.33" height="22.78"/></clipPath></defs><title>BrandHub-VectorGraphics</title><rect class="cls-2" x="-0.33" y="38.38" width="382" height="170.46"/><circle class="cls-3" cx="191.5" cy="30" r="28.5"/><line class="cls-4" x1="201.83" y1="19.67" x2="181.17" y2="40.33"/><line class="cls-4" x1="181.17" y1="19.67" x2="201.83" y2="40.33"/><path d="M157.42,145.05c-.32-.14-.66-.28-1-.41a10.22,10.22,0,0,0-1.15-.33c-.4-.09-.81-.16-1.24-.22a10.66,10.66,0,0,0-1.26-.08,7.4,7.4,0,0,0-1.57.16,3.83,3.83,0,0,0-1.36.53,2.68,2.68,0,0,0-1,1,3,3,0,0,0-.36,1.54,2.94,2.94,0,0,0,.37,1.55,3.32,3.32,0,0,0,1,1,6,6,0,0,0,1.37.68c.52.17,1,.34,1.56.49a21.42,21.42,0,0,1,2.34.85A8.24,8.24,0,0,1,157,153a5.12,5.12,0,0,1,1.3,1.63,4.9,4.9,0,0,1,.48,2.24,5.51,5.51,0,0,1-.5,2.36,5,5,0,0,1-1.45,1.79,7,7,0,0,1-2.32,1.14,11.06,11.06,0,0,1-3.11.4,14.24,14.24,0,0,1-1.43-.07,14.82,14.82,0,0,1-1.47-.2,11.26,11.26,0,0,1-1.42-.33,8.45,8.45,0,0,1-1.29-.49l.59-2.16a7.91,7.91,0,0,0,1.22.54,10.14,10.14,0,0,0,1.33.39,10.46,10.46,0,0,0,1.36.24,10.1,10.1,0,0,0,1.32.09,9.06,9.06,0,0,0,1.73-.17,4.73,4.73,0,0,0,1.52-.55,3.1,3.1,0,0,0,1.07-1,2.79,2.79,0,0,0,.41-1.58,3,3,0,0,0-.46-1.71,4.12,4.12,0,0,0-1.15-1.13,6.4,6.4,0,0,0-1.46-.72c-.52-.18-1-.32-1.42-.44l-1.23-.37a10.93,10.93,0,0,1-1.3-.51,7.6,7.6,0,0,1-1.23-.72,4.48,4.48,0,0,1-1-1,5.06,5.06,0,0,1-.71-1.37,5.79,5.79,0,0,1-.26-1.8,5.5,5.5,0,0,1,.5-2.42,4.85,4.85,0,0,1,1.4-1.68,6.11,6.11,0,0,1,2.14-1,10.41,10.41,0,0,1,2.7-.32,12.55,12.55,0,0,1,2.79.28A23.17,23.17,0,0,1,158,143Z"/><path d="M175.65,142.36v2h-10.5v6.5h9.24v2h-9.24v7.32h10.77v2H162.77V142.36Z"/><path d="M188.14,142.36a11.84,11.84,0,0,1,1.66.11,7.09,7.09,0,0,1,1.34.34,4.64,4.64,0,0,1,1.07.53,5.36,5.36,0,0,1,.86.7,4.74,4.74,0,0,1,1.08,1.72,6.33,6.33,0,0,1,.35,2.12,7.33,7.33,0,0,1-.22,1.85,4.57,4.57,0,0,1-.71,1.57,4.47,4.47,0,0,1-1.28,1.2,6.25,6.25,0,0,1-1.94.78l5.44,8.85H193l-5.13-8.49H183v8.49h-2.38V142.36ZM183,151.68h5.15a5.61,5.61,0,0,0,1.81-.25,2.9,2.9,0,0,0,1.21-.75,2.86,2.86,0,0,0,.68-1.19,5.66,5.66,0,0,0,.21-1.61,4.33,4.33,0,0,0-.21-1.35,2.9,2.9,0,0,0-.68-1.13,3.27,3.27,0,0,0-1.21-.77,5.29,5.29,0,0,0-1.81-.28H183Z"/><path d="M201.64,142.36v19.77h-2.38V142.36Z"/><path d="M220.4,142.36v2H209.9v6.5h9.24v2H209.9v7.32h10.77v2H207.52V142.36Z"/><path d="M235.46,145.05c-.32-.14-.66-.28-1-.41a10.22,10.22,0,0,0-1.15-.33c-.4-.09-.81-.16-1.24-.22a10.66,10.66,0,0,0-1.26-.08,7.5,7.5,0,0,0-1.58.16,4,4,0,0,0-1.36.53,2.74,2.74,0,0,0-.95,1,3,3,0,0,0-.36,1.54,2.94,2.94,0,0,0,.37,1.55,3.32,3.32,0,0,0,1,1,6,6,0,0,0,1.37.68c.52.17,1,.34,1.55.49a20.86,20.86,0,0,1,2.35.85,8.24,8.24,0,0,1,1.92,1.16,5.12,5.12,0,0,1,1.3,1.63,4.9,4.9,0,0,1,.48,2.24,5.51,5.51,0,0,1-.5,2.36,5,5,0,0,1-1.45,1.79,7,7,0,0,1-2.33,1.14,11,11,0,0,1-3.11.4,14,14,0,0,1-1.42-.07,14.82,14.82,0,0,1-1.47-.2,11.84,11.84,0,0,1-1.43-.33,8.74,8.74,0,0,1-1.28-.49l.59-2.16a7.91,7.91,0,0,0,1.22.54,10.14,10.14,0,0,0,1.33.39,10.46,10.46,0,0,0,1.36.24,10,10,0,0,0,1.32.09,9.06,9.06,0,0,0,1.73-.17,4.73,4.73,0,0,0,1.52-.55,3.1,3.1,0,0,0,1.07-1,2.79,2.79,0,0,0,.41-1.58,3,3,0,0,0-.46-1.71,4.12,4.12,0,0,0-1.15-1.13,6.61,6.61,0,0,0-1.46-.72c-.52-.18-1-.32-1.42-.44l-1.23-.37a10.3,10.3,0,0,1-1.3-.51,7.6,7.6,0,0,1-1.23-.72,4.48,4.48,0,0,1-1-1,5.06,5.06,0,0,1-.71-1.37,5.79,5.79,0,0,1-.26-1.8,5.36,5.36,0,0,1,.5-2.42,4.85,4.85,0,0,1,1.4-1.68,6.11,6.11,0,0,1,2.14-1,10.41,10.41,0,0,1,2.7-.32,12.55,12.55,0,0,1,2.79.28A23.17,23.17,0,0,1,236,143Z"/><path d="M77.2,102.53v18.69h4.61V102.53h5.9V98.42h-5.9v-1.7c0-3.89,2.32-5.19,4.6-5.19a5.72,5.72,0,0,1,1.57.22l.94-4.07a8.16,8.16,0,0,0-2.86-.44c-5.73,0-8.86,4.24-8.86,9.39v1.79H74.79l-2.91,4.11Zm63.85,10.6c0,5,3,8.49,8.5,8.49a12,12,0,0,0,3.35-.44l-.93-4a9.84,9.84,0,0,1-2.11.22c-2.23,0-4.2-1.2-4.2-4.33V102.53h6.44l-1.88-4.11h-4.56V89.25l-4.61,2v7.16h-4.87v4.11h4.87v10.6ZM101.48,98.42v22.8h4.61V105.57a7.25,7.25,0,0,1,6-3.26c3.4,0,5.73,2.14,5.73,6.43V119a2.07,2.07,0,0,0,2.14,2.19h2.46V107.94c0-5.9-3.75-10-9.21-10a10.27,10.27,0,0,0-7.15,2.73V98.42Zm59.74,30.85L177.9,98.42h-2.5a3.4,3.4,0,0,0-3.31,1.6l-6.58,12.21L159.84,100c-.59-1.2-1.79-1.6-3.31-1.6h-2.42l8.77,18.6-7.65,14h2.5a3.66,3.66,0,0,0,3.49-1.7Zm-69.84-8.05H96V98.42h-4.6v22.8Zm36.53,0h4.6V98.42h-4.6v22.8ZM78.63,131H75.14a3.71,3.71,0,0,1-3.3-1.61L59.9,112.86l-5.1,6.75a3.78,3.78,0,0,1-3.31,1.61H48.27l8.81-11.89L49,98.42h3.4a3.78,3.78,0,0,1,3.31,1.6l4.16,5.77L64.19,100a3.76,3.76,0,0,1,3.31-1.6h3.4l-8.14,10.91L78.63,131ZM221.76,98.42h-7l-2.91,4.11h5.32v18.69h4.61V98.42Zm-19,10.91,8.14-10.91h-3.4a3.76,3.76,0,0,0-3.31,1.6l-4.29,5.77L195.69,100a3.78,3.78,0,0,0-3.31-1.6H189L197,109.33l-8.81,11.89h3.22a3.78,3.78,0,0,0,3.31-1.61l5.1-6.75,11.94,16.5a3.71,3.71,0,0,0,3.3,1.61h3.49l-15.87-21.64Z"/><g class="cls-5"><path class="cls-6" d="M271.12,98.28c-1.74,0-4.8,2-4.8,6.44h45.12c.61-6.61-4-6.44-4-6.44H271.12m-5.19,8.79s0,1.37,0,2.08a3.46,3.46,0,0,0,3.57,3.13h10.93l-.35,2.69h-14.8l-.78,6.08h17.34a5.8,5.8,0,0,0,5.44-4.64s.68-5.71.69-5.92a3.25,3.25,0,0,0-3.59-3.43Zm23.6,0h21.65l-.48,2.43a3.61,3.61,0,0,1-3.83,2.78h-10.6l-1,8.78h-7.35Zm22.78-2.35h22.21c1-4.31-1.08-6.44-3.26-6.44H313.13Zm5.48,16.34h-7.35l1.61-14h7.43Zm14.78,0h-7.35l1.61-14h7.43Zm-87.47-14H265l-.65,5.21H252.1l-.39,2.7H264l-.74,6.08H243.45Zm1-8.79H266l-.85,6.44H245.41Z"/></g></svg>