<?xml version="1.0" encoding="utf-8"?>
<!-- Generator: Adobe Illustrator 24.0.0, SVG Export Plug-In . SVG Version: 6.00 Build 0)  -->
<svg version="1.1" id="Layer_1" xmlns="http://www.w3.org/2000/svg" xmlns:xlink="http://www.w3.org/1999/xlink" x="0px" y="0px"
	 viewBox="0 0 183.3 68.6" style="enable-background:new 0 0 183.3 68.6;" xml:space="preserve">
<path d="M110.7,35c0-5-0.8-7.4-2-9.2c-1.9-2.8-5.1-4.7-9-4.7c-4.9,0-9.6,3-11.9,7.4v24.8h-4.5V17.6h4.3v4.9
	c2.6-3.4,7.1-5.6,12.1-5.6c6,0,10.9,3,13.4,7.6c2.5-3.6,6.9-7.6,14-7.6c5.9,0,10.8,3,13.4,7.5c1.3,2.4,2.1,5.3,2.1,10.1v18.9
	c0,0-1,0-2.2,0s-2.2-1-2.2-2.2V35c0-5-0.8-7.4-2-9.2c-1.9-2.8-5.1-4.7-9-4.7c-5.7,0-10.1,4-12.3,8.3c0.2,1.4,0.4,3.1,0.4,5.1l0,0
	v18.9c0,0-1,0-2.2,0s-2.2-1-2.2-2.2L110.7,35L110.7,35z M183.3,34.2c0-9.9-7-17.4-16.5-17.4c-10.1,0-17,8.3-17,18.6
	c0,11.1,7.9,18.6,17.9,18.6c6.8,0,11.8-3.1,15-7.1l-1.1-1c-1.1-1-2.7-1-3.8,0c-2.9,2.7-6.2,3.9-10,3.9c-8.2,0-13.1-6.4-13.4-14h29
	C183.3,35.1,183.3,34.5,183.3,34.2z M154.4,31.7c1.3-6.2,6-10.7,12.3-10.7c6.2,0,11,4.4,11.9,10.7H154.4z M76,35.4
	c0-10.2-7.7-18.6-18.3-18.6s-18.3,8.3-18.3,18.6c0,10.2,7.7,18.6,18.3,18.6S76,45.6,76,35.4z M71.6,35.4c0,8-5.9,14.4-13.9,14.4
	s-13.9-6.4-13.9-14.4S49.7,21,57.7,21S71.6,27.4,71.6,35.4z M29.3,22.8c1.8,2.4,3,5.2,3,11.3v19.2c0,0-1,0-2.2,0s-2.2-1.1-2.2-2.4
	V34.4c0-4.1-0.6-6.6-2-8.6c-2-3-5.4-4.7-9.2-4.7c-5,0-9.5,2.7-12.2,7.3v24.9H0V1.8L4.5,0v22.3c2.6-3.4,7.2-5.4,12.3-5.4
	C21.9,16.8,26.5,19,29.3,22.8z"/>
</svg>
