<?xml version="1.0" encoding="utf-8"?>
<!-- Generator: Adobe Illustrator 24.0.0, SVG Export Plug-In . SVG Version: 6.00 Build 0)  -->
<svg version="1.1" id="Layer_1" xmlns="http://www.w3.org/2000/svg" xmlns:xlink="http://www.w3.org/1999/xlink" x="0px" y="0px"
	 viewBox="0 0 52.5 68.5" style="enable-background:new 0 0 52.5 68.5;" xml:space="preserve">
<path d="M22.7,34.6l12.7-17.1h-5.3c-2.4,0-3.9,0.8-5.2,2.5l-6.7,9l-6.5-9c-1.3-1.7-2.8-2.5-5.2-2.5H1.2l12.6,17.1L0,53.2h5
	c2.4,0,3.9-0.8,5.2-2.5l8-10.6L36.9,66c1.2,1.7,2.8,2.5,5.2,2.5h5.5L22.7,34.6z M52.5,17.5h-11l-4.6,6.4h8.3v29.3h7.2L52.5,17.5
	L52.5,17.5z"/>
</svg>
