<?xml version="1.0" encoding="utf-8"?>
<!-- Generator: Adobe Illustrator 24.0.0, SVG Export Plug-In . SVG Version: 6.00 Build 0)  -->
<svg version="1.1" id="Xfinity_Flex_black" xmlns="http://www.w3.org/2000/svg" xmlns:xlink="http://www.w3.org/1999/xlink" x="0px"
	 y="0px" viewBox="0 0 134.7 73.3" style="enable-background:new 0 0 134.7 73.3;" xml:space="preserve">
<path d="M0,25.9L3.7,19h5.2v-3c0-8.6,5.2-15.6,14.8-15.6c2.2,0,3.8,0.4,4.8,0.7L26.8,8c-0.7-0.2-1.6-0.4-2.6-0.4
	c-3.8,0-7.7,2.2-7.7,8.6V19h11.3v6.9H16.5V57H8.8V25.9H0z M108.3,37.2l13.5-18.1h-5.7c-2.5,0-4.2,0.9-5.5,2.7l-7.2,9.6l-6.9-9.6
	c-1.3-1.8-3-2.7-5.5-2.7h-5.7l13.5,18.1L84.1,57h5.4c2.5,0,4.2-0.9,5.5-2.7l8.5-11.3l19.9,27.5c1.3,1.8,3,2.7,5.5,2.7h5.8
	L108.3,37.2z M34,57.1h7.7V0L34,3.1V57.1z M83.1,51l-1.7-2.2c-1.4-1.7-3.8-1.6-5.3-0.6c-2.7,1.9-5.2,2.9-8.7,2.9
	c-6.6,0-11.9-5.1-12.3-11.5h29.3c0.1-0.7,0.1-1.3,0.1-1.6c0-11.2-7.8-19.8-18.3-19.8c-10.8,0-18.5,8.4-18.5,19.8s8.6,19.8,19.7,19.8
	C74.9,57.9,80.2,54.5,83.1,51z M66.4,25c4.5,0,8.9,3.5,10,8.2H55.7C57,28.3,61.4,25,66.4,25z"/>
</svg>
