<?xml version="1.0" encoding="utf-8"?>
<!-- Generator: Adobe Illustrator 24.0.0, SVG Export Plug-In . SVG Version: 6.00 Build 0)  -->
<svg version="1.1" id="Layer_1" xmlns="http://www.w3.org/2000/svg" xmlns:xlink="http://www.w3.org/1999/xlink" x="0px" y="0px"
	 viewBox="0 0 218.1 68.6" style="enable-background:new 0 0 218.1 68.6;" xml:space="preserve">
<style type="text/css">
	.st0{fill:#00A3E0;}
</style>
<g>
	<g>
		<path d="M28.6,35c0-5-0.8-7.4-2-9.2c-1.9-2.8-5.1-4.7-9-4.7c-4.9,0-9.6,3-11.9,7.4v24.8H1.2V17.6h4.3v4.9
			c2.6-3.4,7.1-5.6,12.1-5.6c6,0,10.9,3,13.4,7.6c2.5-3.6,6.9-7.6,14-7.6c5.9,0,10.8,3,13.4,7.5c1.3,2.4,2.1,5.3,2.1,10.1v18.9
			c0,0-1,0-2.2,0s-2.2-1-2.2-2.2V35c0-5-0.8-7.4-2-9.2c-1.9-2.8-5.1-4.7-9-4.7c-5.7,0-10.1,4-12.3,8.3c0.2,1.4,0.4,3.1,0.4,5.1l0,0
			v18.9c0,0-1,0-2.2,0s-2.2-1-2.2-2.2L28.6,35L28.6,35z M218.1,34.2c0-9.9-7-17.4-16.5-17.4c-10.1,0-17,8.3-17,18.6
			c0,11.1,7.9,18.6,17.9,18.6c6.8,0,11.8-3.1,15-7.1l-1.1-1c-1.1-1-2.7-1-3.8,0c-2.9,2.7-6.2,3.9-10,3.9c-8.2,0-13.1-6.4-13.4-14h29
			C218.1,35.1,218.1,34.5,218.1,34.2z M189.2,31.7c1.3-6.2,6-10.7,12.3-10.7c6.2,0,11,4.4,11.9,10.7H189.2z M104.8,35.4
			c0-10.2-7.7-18.6-18.3-18.6s-18.3,8.3-18.3,18.6C68.3,45.6,76,54,86.6,54S104.8,45.6,104.8,35.4z M100.3,35.4
			c0,8-5.9,14.4-13.9,14.4s-13.9-6.4-13.9-14.4S78.4,21,86.4,21S100.3,27.4,100.3,35.4z M113.3,1.8v51.5h4.3V48
			c2.7,3.6,7.3,6,12.8,6c3.4,0,7.1-0.9,10.6-3.4c4.7-3.3,7.6-8.8,7.6-15.2c0-5.9-2.6-11.2-6.6-14.6c-3-2.4-7-4-11.3-4
			c-5.1,0-9.7,2-12.9,5.5V0L113.3,1.8z M117.7,42V28.2c1.6-2.7,6.2-7.2,12.8-7.2c3,0,6.1,1,8.6,3c3.1,2.6,5,6.7,5,11.3
			c0,4.9-2.2,9.3-5.6,11.7c-2.3,1.6-5,2.7-8,2.7C125.2,49.8,120.7,46.8,117.7,42z M160.9,53.3h-4.5V17.6h4.5V53.3z M158.7,10.7
			c1.6,0,2.9-1.3,2.9-2.9s-1.3-2.9-2.9-2.9s-2.9,1.3-2.9,2.9S157.1,10.7,158.7,10.7z M176.2,53.3h-4.5V1.8l4.5-1.8V53.3z"/>
		<path class="st0" d="M86.4,2.4c-5.5,0-10.7,2.1-14.6,6c-0.5,0.4-0.7,1-0.7,1.7s0.2,1.2,0.7,1.7s1.1,0.7,1.7,0.7s1.2-0.3,1.7-0.7
			c3-3,7-4.6,11.2-4.6s8.2,1.6,11.2,4.6c0.4,0.5,1.1,0.7,1.7,0.7s1.2-0.2,1.7-0.7s0.7-1.1,0.7-1.7s-0.2-1.2-0.7-1.7
			C97.2,4.6,91.9,2.4,86.4,2.4L86.4,2.4z M86.4,68.4c5.5,0,10.7-2.1,14.6-6c0.5-0.4,0.7-1,0.7-1.7s-0.2-1.2-0.7-1.7
			c-0.4-0.5-1.1-0.7-1.7-0.7s-1.2,0.2-1.7,0.7c-3,3-7,4.6-11.2,4.6S78.2,62,75.2,59c-0.5-0.5-1.1-0.7-1.7-0.7s-1.2,0.3-1.7,0.7
			s-0.7,1.1-0.7,1.7s0.2,1.2,0.7,1.7C75.7,66.2,80.8,68.4,86.4,68.4L86.4,68.4z"/>
	</g>
</g>
</svg>
