<?xml version="1.0" encoding="utf-8"?>
<!-- Generator: Adobe Illustrator 24.0.0, SVG Export Plug-In . SVG Version: 6.00 Build 0)  -->
<svg version="1.1" id="Layer_1" xmlns="http://www.w3.org/2000/svg" xmlns:xlink="http://www.w3.org/1999/xlink" x="0px" y="0px"
	 viewBox="0 0 225.3 68.5" style="enable-background:new 0 0 225.3 68.5;" xml:space="preserve">
<path d="M1.5,45.4c3,2.6,6.8,4.3,10.8,4.3c4.4,0,8.2-2.5,8.2-6.2C20.5,34.4,0,39.4,0,27.2c0-6.5,6.1-10.4,12.1-10.4
	c4.8,0,8.8,1.6,11.5,3.4l-2.3,3.7c-3-2-5.2-2.9-8.9-2.9s-7.9,2-7.9,6.1C4.5,35,25,30.8,25,43.2c0,6.6-5.6,10.7-12.3,10.7
	c-5.9,0-10.7-2.2-13.8-5.1L1.5,45.4z M79.3,21c-0.5-0.1-1.9-0.1-2.1-0.1c-4.8,0-9.3,3.3-11.2,7.9v24.4h-4.4V17.5H66v4.7
	c1.6-2.5,5.7-5.5,11.2-5.5c0.6,0,2.2,0.1,2.7,0.2L79.3,21z M53.2,21.7H41.3v19.4c0,3.2,0.6,4.8,1.6,5.9c1.3,1.6,3.3,2.5,5.9,2.5
	c1,0,2.5-0.1,3.8-0.5l0.8,4.1c-1.2,0.4-3.2,0.6-4.6,0.6c-3.3,0-7.1-1-9.6-4.1c-1.6-2-2.4-4.5-2.4-8.8V21.7h-8.3v-4.2h8.3V4.8
	l4.5-1.6v14.4h11.9L53.2,21.7L53.2,21.7z M115.5,34.1c0-9.9-7-17.4-16.5-17.4c-10.1,0-17,8.3-17,18.6c0,11.1,7.9,18.6,17.9,18.6
	c6.8,0,11.8-3.1,15-7.1l-1.1-1c-1.1-1-2.7-1-3.8,0c-2.9,2.7-6.2,3.9-10,3.9c-8.2,0-13.1-6.4-13.4-14h29
	C115.5,35,115.5,34.4,115.5,34.1z M86.7,31.6c1.3-6.2,6-10.7,12.3-10.7c6.2,0,11,4.4,11.9,10.7C110.9,31.6,86.7,31.6,86.7,31.6z
	 M151.6,17.5v4.9c-3.2-3.6-7.9-5.7-13-5.7c-4.3,0-8.3,1.6-11.3,4c-4.1,3.4-6.6,8.7-6.6,14.6c0,6.4,2.9,11.9,7.6,15.2
	c3.5,2.5,7.3,3.4,10.6,3.4c5.5,0,10.1-2.4,12.8-6v5.4h4.3V17.5H151.6z M151.5,41.9c-2.8,4.8-7.5,7.8-12.7,7.8c-3,0-5.8-1.1-8-2.7
	c-3.4-2.4-5.6-6.8-5.6-11.7c0-4.6,1.9-8.7,5-11.3c2.5-2,5.6-3,8.6-3c6.6,0,11.2,4.5,12.8,7.2L151.5,41.9L151.5,41.9z M193.4,34.9V51
	c0,1.2,1,2.2,2.2,2.2s2.2,0,2.2,0V34.3l0,0c0-2-0.2-3.7-0.4-5.1c2.2-4.3,6.6-8.3,12.3-8.3c3.9,0,7.1,1.9,9,4.7c1.3,1.9,2,4.2,2,9.2
	V51c0,1.2,1,2.2,2.2,2.2s2.2,0,2.2,0V34.3c0-4.8-0.8-7.7-2.1-10.1c-2.6-4.5-7.5-7.5-13.4-7.5c-7.1,0-11.5,4-14,7.6
	c-2.5-4.6-7.4-7.6-13.4-7.6c-4.9,0-9.5,2.3-12.1,5.6v-4.9h-4.3v35.7h4.5V28.4c2.3-4.5,7-7.4,11.9-7.4c3.9,0,7.1,1.9,9,4.7
	C192.6,27.5,193.4,29.9,193.4,34.9L193.4,34.9z"/>
</svg>
