<svg id="Layer_1" data-name="Layer 1" xmlns="http://www.w3.org/2000/svg" viewBox="0 0 1101.61 268.78"><defs><style>.cls-1{fill:#ef3e33;}</style></defs><title>SubBrands-Misuses</title><path class="cls-1" d="M837.8,51c-6.84,0-18.89,7.79-18.89,25.3H996.35c2.4-26-15.89-25.3-15.89-25.3ZM817.39,85.54s0,5.39,0,8.21c0,5.55,5.56,12.31,14,12.31l43,0L873,116.65H814.81l-3.09,23.92h68.22c5.73,0,19.09-4.62,21.37-18.26,0,0,2.67-22.43,2.73-23.27.34-4.35-2.31-13.5-14.15-13.5Zm92.81,0h85.13l-1.88,9.57s-1.88,11-15.05,11H936.69l-3.93,34.51H903.87l6.33-55Zm89.57-9.23h87.35c3.94-16.92-4.27-25.3-12.82-25.3H1003l-3.25,25.3Zm21.54,64.26H992.42l6.33-55H1028l-6.67,55Zm58.12,0h-28.89l6.33-55h29.23l-6.67,55Zm-343.94-55h78.12l-2.56,20.52H763l-1.54,10.59h48.21l-2.91,23.92H729l6.5-55ZM739.42,51h78.12l-3.33,25.3H736.69L739.42,51Z"/><path d="M622.47,93.54l32.44-43.48H641.37c-6.06,0-10,2.13-13.19,6.41l-17.11,23-16.58-23c-3.21-4.28-7.13-6.41-13.19-6.41H567.76l32.08,43.48L564.73,141h12.83c6.06,0,10-2.14,13.19-6.41l20.32-26.92,47.58,65.77c3,4.28,7.13,6.42,13.19,6.42h13.91ZM698.4,50.06h-28L658.83,66.45H680V141H698.4ZM127.92,179.81H114c-6.06,0-10.16-2.14-13.19-6.42L53.24,107.62,32.92,134.54c-3.21,4.27-7.13,6.41-13.19,6.41H6.9L42,93.54,9.93,50.06H23.48c6.06,0,10,2.13,13.19,6.41l16.57,23,17.11-23c3.21-4.28,7.13-6.41,13.19-6.41H97.09L64.65,93.54ZM324.33,141h18.36V50.06H324.33Zm-145.61,0h18.35V50.06H178.72ZM457.11,173l66.48-123h-10c-6.06,0-10.69,1.78-13.19,6.41l-26.2,48.66L451.59,56.47c-2.32-4.81-7.13-6.41-13.19-6.41h-9.63l34.94,74.14-30.48,55.61h10C449.45,179.81,454.44,177.85,457.11,173ZM219,50.06V141h18.35V78.57c5.71-8,13.91-13,24.07-13,13.54,0,22.81,8.56,22.81,25.67v41c0,5.17,3.56,8.73,8.55,8.73h9.81V88c0-23.53-15-39.92-36.72-39.92A40.94,40.94,0,0,0,237.35,59V50.06Zm157.73,58.63c0,19.79,12.12,33.87,33.86,33.87A47,47,0,0,0,424,140.78l-3.74-16a37.39,37.39,0,0,1-8.38.9c-8.91,0-16.75-4.82-16.75-17.29V66.45h25.66l-7.48-16.39H395.09V13.52l-18.36,8V50.06H357.3V66.45h19.43ZM122.22,66.45V141h18.35V66.45H164.1V50.06H140.57V43.28c0-15.5,9.27-20.67,18.36-20.67a21.73,21.73,0,0,1,6.24.89l3.74-16.22a32.08,32.08,0,0,0-11.4-1.78c-22.82,0-35.29,16.93-35.29,37.43v7.13h-9.63L101,66.45Z"/><path d="M467.71,211.71a36.09,36.09,0,0,0-6-2,30.13,30.13,0,0,0-7-.81,22.14,22.14,0,0,0-4.89.53,12.1,12.1,0,0,0-4.08,1.69,8.51,8.51,0,0,0-2.78,3,9.19,9.19,0,0,0-1,4.53,8.51,8.51,0,0,0,1.15,4.64,9.76,9.76,0,0,0,3,3,17.07,17.07,0,0,0,4.1,1.95c1.51.51,3,1,4.49,1.4a64.94,64.94,0,0,1,6.58,2.27,22.43,22.43,0,0,1,5.39,3.07,13.4,13.4,0,0,1,3.67,4.34,12.85,12.85,0,0,1,1.35,6.11,14.81,14.81,0,0,1-1.35,6.37,13.5,13.5,0,0,1-3.93,4.91,18.9,18.9,0,0,1-6.3,3.15,29,29,0,0,1-8.49,1.13c-1.26,0-2.57-.06-3.93-.19s-2.73-.3-4.08-.54a39.51,39.51,0,0,1-4-.92,24.8,24.8,0,0,1-3.59-1.35l1.24-4.63a27.76,27.76,0,0,0,3.46,1.41,36.66,36.66,0,0,0,3.76,1.05,33.94,33.94,0,0,0,3.87.64,35.38,35.38,0,0,0,3.76.21,25.53,25.53,0,0,0,5.49-.58,14.49,14.49,0,0,0,4.57-1.83,9.18,9.18,0,0,0,3.12-3.17,10,10,0,0,0-.17-9.61,11.88,11.88,0,0,0-3.34-3.4,19.21,19.21,0,0,0-4.44-2.22q-2.4-.85-4.59-1.45c-1.07-.3-2.22-.62-3.42-1a32.36,32.36,0,0,1-3.57-1.27,21.18,21.18,0,0,1-3.4-1.85,12.48,12.48,0,0,1-2.86-2.61,12.28,12.28,0,0,1-2-3.57A16.06,16.06,0,0,1,438,213a12.55,12.55,0,0,1,3.76-4.6,16.75,16.75,0,0,1,5.79-2.77,28.18,28.18,0,0,1,7.42-.92,34.33,34.33,0,0,1,7.58.77q3.36.78,6.3,1.75Z"/><path d="M519.53,205.54v4.32H489.26v19.55h26.81v4.33H489.26v21.84h31v4.33H484.11V205.54Z"/><path d="M555.59,205.54a31.21,31.21,0,0,1,4.64.32,19.9,19.9,0,0,1,3.76.92,13.47,13.47,0,0,1,3,1.49,14.25,14.25,0,0,1,2.37,2,12.87,12.87,0,0,1,3,4.74,17.27,17.27,0,0,1,1,5.9,19.29,19.29,0,0,1-.72,5.41,13,13,0,0,1-2.19,4.4,12.82,12.82,0,0,1-3.76,3.22,17.67,17.67,0,0,1-5.44,1.9l15.15,24.1h-5.9l-14.55-23.35H540.33v23.35h-5.16V205.54Zm-15.26,26.81H556q12,0,12-11.47a13.26,13.26,0,0,0-.72-4.47,8.64,8.64,0,0,0-2.24-3.48,10.42,10.42,0,0,0-3.85-2.26,17,17,0,0,0-5.56-.81H540.33Z"/><path d="M593.46,205.54v54.37h-5.15V205.54Z"/><path d="M647,205.54v4.32H616.7v19.55h26.81v4.33H616.7v21.84h31v4.33H611.55V205.54Z"/><path d="M690.25,211.71a36.09,36.09,0,0,0-6-2,30.13,30.13,0,0,0-7-.81,22.14,22.14,0,0,0-4.89.53,12.1,12.1,0,0,0-4.08,1.69,8.6,8.6,0,0,0-2.78,3,9.19,9.19,0,0,0-1,4.53,8.6,8.6,0,0,0,1.15,4.64,9.76,9.76,0,0,0,3,3,17.25,17.25,0,0,0,4.1,1.95c1.51.51,3,1,4.49,1.4a64.1,64.1,0,0,1,6.58,2.27,22.5,22.5,0,0,1,5.4,3.07,13.49,13.49,0,0,1,3.66,4.34,12.85,12.85,0,0,1,1.36,6.11,14.82,14.82,0,0,1-1.36,6.37,13.5,13.5,0,0,1-3.93,4.91,18.85,18.85,0,0,1-6.29,3.15,29.11,29.11,0,0,1-8.5,1.13c-1.26,0-2.57-.06-3.93-.19s-2.73-.3-4.08-.54a39.51,39.51,0,0,1-4-.92,25.25,25.25,0,0,1-3.59-1.35l1.24-4.63a27.76,27.76,0,0,0,3.46,1.41,36.66,36.66,0,0,0,3.76,1.05,33.94,33.94,0,0,0,3.87.64,35.38,35.38,0,0,0,3.76.21,25.53,25.53,0,0,0,5.49-.58,14.4,14.4,0,0,0,4.57-1.83,9.18,9.18,0,0,0,3.12-3.17,10,10,0,0,0-.17-9.61,11.76,11.76,0,0,0-3.34-3.4,19.21,19.21,0,0,0-4.44-2.22q-2.4-.85-4.59-1.45c-1.07-.3-2.21-.62-3.42-1a32.36,32.36,0,0,1-3.57-1.27,21.18,21.18,0,0,1-3.4-1.85,12.48,12.48,0,0,1-2.86-2.61,12.26,12.26,0,0,1-1.95-3.57,14.24,14.24,0,0,1-.74-4.8,14.6,14.6,0,0,1,1.34-6.41,12.55,12.55,0,0,1,3.76-4.6,16.75,16.75,0,0,1,5.79-2.77,28.23,28.23,0,0,1,7.42-.92,34.33,34.33,0,0,1,7.58.77q3.36.78,6.3,1.75Z"/></svg>