<svg id="Layer_1" data-name="Layer 1" xmlns="http://www.w3.org/2000/svg" viewBox="0 0 1396.91 186.97"><defs><style>.cls-1{fill:none;stroke:#c8001d;stroke-miterlimit:10;stroke-width:3px;}</style></defs><title>SubBrands-Misuses</title><path d="M894.76,66.59A48.25,48.25,0,0,0,884,62.52a50.66,50.66,0,0,0-12.95-1.62A33.65,33.65,0,0,0,857,63.69a29.14,29.14,0,0,0-10.31,7.7,33.1,33.1,0,0,0-6.33,11.66,48.33,48.33,0,0,0-2.14,14.71A51,51,0,0,0,840.15,112a33.8,33.8,0,0,0,5.92,11.75,28.74,28.74,0,0,0,10.11,8,32.76,32.76,0,0,0,14.56,3,76.39,76.39,0,0,0,10.17-.7,32.87,32.87,0,0,0,10.22-3.16V104.62h-22V98h29.18v37a26.66,26.66,0,0,1-5.6,2.66,56,56,0,0,1-7.21,2q-3.82.82-7.79,1.29a61.23,61.23,0,0,1-7.35.47,45.74,45.74,0,0,1-12.66-1.64,37.4,37.4,0,0,1-10.19-4.57,34,34,0,0,1-7.83-7,39.85,39.85,0,0,1-5.47-8.85A46.33,46.33,0,0,1,831,109.16a58,58,0,0,1-1-11,52,52,0,0,1,2.81-17.28,40.73,40.73,0,0,1,8.15-14,37.64,37.64,0,0,1,13-9.29,43.37,43.37,0,0,1,17.49-3.36c2.31,0,4.65.1,7,.32a66.48,66.48,0,0,1,6.89,1,52.55,52.55,0,0,1,6.21,1.59,27.21,27.21,0,0,1,5.07,2.16Z"/><path d="M964.85,119.38H929l-6.85,20.86h-7.68l28.42-84.73H952l28,84.73h-8.38ZM949,70.16l-1.46-6.09h-.94l-1.58,6.09L931.1,112.64h31.82Z"/><path d="M1044.43,55.51v6.74h-26.54v78h-8.26v-78H983.09V55.51Z"/><path d="M1117.4,55.51v6.74h-47.17V92.72H1112v6.74h-41.78v34h48.34v6.74H1062.2V55.51Z"/><path d="M1143.72,55.51l15.82,70,1.17,7.09h1l1.29-7.09,17.41-70h10.84l17.52,70,1.28,7.09h.94l1.23-7.09,16.06-70h8.79l-21.27,84.73h-10.9l-17.52-70-1.17-7.09h-1.12l-1.17,7.09-17.17,70H1155.9L1135,55.51Z"/><path d="M1296.36,119.38h-35.85l-6.86,20.86H1246l28.42-84.73h9.14l28,84.73h-8.38Zm-15.82-49.22-1.46-6.09h-.94l-1.58,6.09-14,42.48h31.82Z"/><path d="M1323,55.51l25,46.59L1373,55.51h8.9l-30.47,53.91v30.82h-7.91V109.42l-30.23-53.91Z"/><path d="M64.21,95,96.68,51.42H83.12c-6.06,0-10,2.14-13.2,6.42l-17.13,23-16.59-23C33,53.56,29.07,51.42,23,51.42H9.44L41.55,95,6.41,142.41H19.25c6.07,0,10-2.14,13.21-6.42l20.33-26.94,47.64,65.83c3,4.28,7.14,6.42,13.2,6.42h13.92Zm259.94,47.46h18.38v-91H324.15Zm-145.76,0h18.38v-91H178.39Zm278.68,32.11,66.55-123.1h-10c-6.07,0-10.71,1.79-13.21,6.42L474.2,106.55,451.54,57.84c-2.32-4.81-7.14-6.42-13.2-6.42H428.7l35,74.22L433.16,181.3h10C449.4,181.3,454.39,179.34,457.07,174.52ZM218.71,51.42v91h18.38V80c5.71-8,13.92-13,24.09-13,13.56,0,22.83,8.57,22.83,25.69v41c0,5.17,3.57,8.74,8.57,8.74h9.81v-53c0-23.55-15-40-36.75-40a41,41,0,0,0-28.55,10.88V51.42Zm157.9,58.7c0,19.8,12.13,33.9,33.9,33.9a46.71,46.71,0,0,0,13.38-1.79l-3.75-16a38.05,38.05,0,0,1-8.39.89c-8.92,0-16.77-4.82-16.77-17.31V67.84h25.69l-7.49-16.42H395V14.85l-18.37,8V51.42H357.16V67.84h19.45ZM121.84,67.84v74.57h18.37V67.84h23.55V51.42H140.21V44.64c0-15.52,9.28-20.69,18.38-20.69a21.86,21.86,0,0,1,6.25.89L168.58,8.6a32.17,32.17,0,0,0-11.42-1.78c-22.83,0-35.32,17-35.32,37.47v7.13H112.2L100.61,67.84ZM622.6,95l32.47-43.53H641.51c-6.07,0-10,2.14-13.2,6.42l-17.13,23-16.59-23c-3.22-4.28-7.14-6.42-13.21-6.42H567.82L599.94,95l-35.15,47.46h12.85c6.06,0,10-2.14,13.2-6.42l20.34-26.94,47.63,65.83c3,4.28,7.14,6.42,13.21,6.42h13.91Zm139.23,47.46h18.38v-91H761.83ZM677.22,9.32V142.41h19.46V82.24h44.67V63.52H696.68V27.8h50.38L759.24,9.32Z"/><line class="cls-1" x1="14.7" y1="169.33" x2="1379.44" y2="16.36"/></svg>