<svg id="Layer_1" data-name="Layer 1" xmlns="http://www.w3.org/2000/svg" viewBox="0 0 1101.61 268.78"><defs><style>.cls-1{fill:#ef3e33;}.cls-2{font-size:77px;font-family:XFINITYStandard-Light, XFINITY Standard TT;font-weight:300;letter-spacing:0.02em;}.cls-3{letter-spacing:0.03em;}</style></defs><title>SubBrands-Misuses</title><path class="cls-1" d="M837.8,51c-6.84,0-18.89,7.79-18.89,25.3H996.35c2.4-26-15.89-25.3-15.89-25.3ZM817.39,85.54s0,5.39,0,8.21c0,5.55,5.56,12.31,14,12.31l43,0L873,116.65H814.81l-3.09,23.92h68.22c5.73,0,19.09-4.62,21.37-18.26,0,0,2.67-22.43,2.73-23.27.34-4.35-2.31-13.5-14.15-13.5Zm92.81,0h85.13l-1.88,9.57s-1.88,11-15.05,11H936.69l-3.93,34.51H903.87l6.33-55Zm89.57-9.23h87.35c3.94-16.92-4.27-25.3-12.82-25.3H1003l-3.25,25.3Zm21.54,64.26H992.42l6.33-55H1028l-6.67,55Zm58.12,0h-28.89l6.33-55h29.23l-6.67,55Zm-343.94-55h78.12l-2.56,20.52H763l-1.54,10.59h48.21l-2.91,23.92H729l6.5-55ZM739.42,51h78.12l-3.33,25.3H736.69L739.42,51Z"/><path d="M622.47,93.54l32.44-43.48H641.37c-6.06,0-10,2.13-13.19,6.41l-17.11,23-16.58-23c-3.21-4.28-7.13-6.41-13.19-6.41H567.76l32.08,43.48L564.73,141h12.83c6.06,0,10-2.14,13.19-6.41l20.32-26.92,47.58,65.77c3,4.28,7.13,6.42,13.19,6.42h13.91ZM698.4,50.06h-28L658.83,66.45H680V141H698.4ZM127.92,179.81H114c-6.06,0-10.16-2.14-13.19-6.42L53.24,107.62,32.92,134.54c-3.21,4.27-7.13,6.41-13.19,6.41H6.9L42,93.54,9.93,50.06H23.48c6.06,0,10,2.13,13.19,6.41l16.57,23,17.11-23c3.21-4.28,7.13-6.41,13.19-6.41H97.09L64.65,93.54ZM324.33,141h18.36V50.06H324.33Zm-145.61,0h18.35V50.06H178.72ZM457.11,173l66.48-123h-10c-6.06,0-10.69,1.78-13.19,6.41l-26.2,48.66L451.59,56.47c-2.32-4.81-7.13-6.41-13.19-6.41h-9.63l34.94,74.14-30.48,55.61h10C449.45,179.81,454.44,177.85,457.11,173ZM219,50.06V141h18.35V78.57c5.71-8,13.91-13,24.07-13,13.54,0,22.81,8.56,22.81,25.67v41c0,5.17,3.56,8.73,8.55,8.73h9.81V88c0-23.53-15-39.92-36.72-39.92A40.94,40.94,0,0,0,237.35,59V50.06Zm157.73,58.63c0,19.79,12.12,33.87,33.86,33.87A47,47,0,0,0,424,140.78l-3.74-16a37.39,37.39,0,0,1-8.38.9c-8.91,0-16.75-4.82-16.75-17.29V66.45h25.66l-7.48-16.39H395.09V13.52l-18.36,8V50.06H357.3V66.45h19.43ZM122.22,66.45V141h18.35V66.45H164.1V50.06H140.57V43.28c0-15.5,9.27-20.67,18.36-20.67a21.73,21.73,0,0,1,6.24.89l3.74-16.22a32.08,32.08,0,0,0-11.4-1.78c-22.82,0-35.29,16.93-35.29,37.43v7.13h-9.63L101,66.45Z"/><text class="cls-2" transform="translate(432.37 259.91)">SER<tspan class="cls-3" x="148.23" y="0">I</tspan><tspan x="171.48" y="0">ES</tspan></text></svg>