<svg id="Layer_1" data-name="Layer 1" xmlns="http://www.w3.org/2000/svg" viewBox="0 0 1145.51 186.97"><defs><style>.cls-1{fill:#0272b6;}.cls-2{fill:none;stroke:#c8001d;stroke-miterlimit:10;stroke-width:3px;}</style></defs><title>SubBrands-Misuses</title><path d="M63.39,94.56,96,50.89H82.36c-6.09,0-10,2.15-13.25,6.44L51.93,80.42,35.29,57.33c-3.22-4.29-7.16-6.44-13.24-6.44H8.45L40.66,94.56,5.4,142.16H18.29c6.08,0,10-2.15,13.24-6.44l20.4-27,47.79,66c3,4.3,7.16,6.45,13.24,6.45h14Z"/><rect x="324.14" y="50.89" width="18.43" height="91.27"/><rect x="177.92" y="50.89" width="18.43" height="91.27"/><path d="M457.47,174.37,524.22,50.89h-10c-6.09,0-10.74,1.79-13.25,6.44l-26.3,48.86L451.92,57.33c-2.33-4.83-7.16-6.44-13.24-6.44H429l35.08,74.45-30.6,55.84h10C449.77,181.18,454.78,179.21,457.47,174.37Z"/><path d="M218.37,50.89v91.27H236.8V79.52c5.73-8,14-13.06,24.16-13.06,13.61,0,22.91,8.59,22.91,25.77v41.16c0,5.19,3.58,8.77,8.59,8.77h9.84V89c0-23.62-15-40.09-36.86-40.09A41.15,41.15,0,0,0,236.8,59.84v-9Z"/><path d="M376.75,109.77c0,19.86,12.17,34,34,34A46.61,46.61,0,0,0,424.18,142l-3.76-16.1a38.32,38.32,0,0,1-8.41.89c-8.95,0-16.82-4.83-16.82-17.36V67.35H421l-7.52-16.46H395.19V14.2l-18.44,8.06V50.89h-19.5V67.35h19.5Z"/><path d="M121.19,67.35v74.81h18.44V67.35h23.62V50.89H139.63v-6.8c0-15.57,9.3-20.76,18.43-20.76a22.23,22.23,0,0,1,6.26.89l3.76-16.28a32,32,0,0,0-11.45-1.79c-22.91,0-35.44,17-35.44,37.58v7.16h-9.66L99.9,67.35Z"/><path class="cls-1" d="M564.4,122.09c7.78,6.58,17.35,11,27.52,11,11.36,0,20.93-6.38,20.93-16,0-23.33-52.44-10.57-52.44-41.67,0-16.55,15.56-26.52,30.91-26.52a52.74,52.74,0,0,1,29.31,8.77l-6,9.38c-7.77-5-13.35-7.38-22.72-7.38-9.57,0-20.14,5-20.14,15.55,0,20.14,52.43,9.37,52.43,41.27,0,17-14.35,27.31-31.5,27.31-15.15,0-27.31-5.58-35.29-12.95Z"/><path class="cls-1" d="M763.15,59.89c-1.19-.2-4.78-.2-5.38-.2-12.36,0-23.72,8.37-28.51,20.14v62.33H717.9V50.9h11.36v12c4.19-6.38,14.55-14,28.71-14,1.6,0,5.58.2,6.78.4Z"/><path class="cls-1" d="M696.61,61.7H666.1v49.66c0,8.2,1.6,12.2,4,15.2,3.2,4,8.41,6.41,15.21,6.41a36.29,36.29,0,0,0,9.8-1.2l2,10.4a44.41,44.41,0,0,1-11.81,1.6c-8.4,0-18.21-2.6-24.41-10.4-4-5-6.21-11.61-6.21-22.41V61.7H633.46V50.9h21.23V18.33L666.1,14.2V50.9h30.51Z"/><path class="cls-1" d="M813.66,48.92c-25.72,0-43.47,21.34-43.47,47.45,0,28.31,20.14,47.45,45.66,47.45,17.35,0,30.22-7.83,38.31-18.24L851.3,123a7.25,7.25,0,0,0-9.76.11,36.19,36.19,0,0,1-25.69,9.93c-20.93,0-33.5-16.35-34.29-35.69h74.17a34.21,34.21,0,0,0,.2-4C855.93,68.06,838,48.92,813.66,48.92ZM782.16,87c3.38-15.75,15.35-27.31,31.5-27.31,15.75,0,28.11,11.36,30.5,27.31Z"/><path class="cls-1" d="M948.13,50.9V63.48a44.23,44.23,0,0,0-33.3-14.56,46.29,46.29,0,0,0-28.91,10.17A48.51,48.51,0,0,0,869,96.37c0,16.35,7.38,30.51,19.34,38.89a46.2,46.2,0,0,0,27.12,8.57c14.16,0,25.92-6.18,32.7-15.35v13.68h11V50.9Zm-.4,62.22c-7.18,12.37-19.14,19.94-32.5,19.94a36.18,36.18,0,0,1-20.54-6.78c-8.77-6.18-14.35-17.34-14.35-29.91,0-11.76,4.78-22.33,12.76-28.91A35.15,35.15,0,0,1,915,59.69c16.75,0,28.71,11.56,32.7,18.34Z"/><path class="cls-1" d="M1055,95.33v41.12a5.71,5.71,0,0,0,5.7,5.71h5.71V93.92h0a80.18,80.18,0,0,0-1-13c5.6-11,16.81-21.21,31.42-21.21a27.16,27.16,0,0,1,23,12c3.2,4.8,5.2,10.81,5.2,23.62v41.12a5.71,5.71,0,0,0,5.7,5.71h5.71V93.92c0-12.21-2-19.61-5.41-25.81-6.6-11.61-19.21-19.22-34.22-19.22-18.21,0-29.42,10.21-35.83,19.42-6.4-11.81-19-19.42-34.22-19.42-12.61,0-24.22,5.81-30.82,14.41V50.89h-11v91.27h11.41V78.71c6-11.4,18-19,30.42-19a27.16,27.16,0,0,1,23,12c3.2,4.8,5.2,10.81,5.2,23.62Z"/><line class="cls-2" x1="13.37" y1="168.66" x2="1129.37" y2="15.69"/></svg>