<svg id="Layer_1" data-name="Layer 1" xmlns="http://www.w3.org/2000/svg" viewBox="0 0 1396.91 186.97"><defs><style>.cls-1{font-size:120px;font-family:XFINITYStandard-Light, XFINITY Standard TT;font-weight:300;letter-spacing:0.02em;}.cls-2{letter-spacing:-0.04em;}.cls-3{letter-spacing:0.03em;}.cls-4{letter-spacing:0em;}</style></defs><title>SubBrands-Misuses</title><text class="cls-1" transform="translate(823.1 140.24)">G<tspan class="cls-2" x="87.02" y="0">A</tspan><tspan class="cls-3" x="157.23" y="0">TE</tspan><tspan class="cls-4" x="306.67" y="0">W</tspan><tspan class="cls-2" x="418.54" y="0">A</tspan><tspan class="cls-3" x="488.74" y="0">Y</tspan></text><path d="M64.21,95,96.68,51.42H83.12c-6.06,0-10,2.14-13.2,6.42l-17.13,23-16.59-23C33,53.56,29.07,51.42,23,51.42H9.44L41.55,95,6.41,142.41H19.25c6.07,0,10-2.14,13.21-6.42l20.33-26.94,47.64,65.83c3,4.28,7.14,6.42,13.2,6.42h13.92Zm259.94,47.46h18.38v-91H324.15Zm-145.76,0h18.38v-91H178.39Zm278.68,32.11,66.55-123.1h-10c-6.07,0-10.71,1.79-13.21,6.42L474.2,106.55,451.54,57.84c-2.32-4.81-7.14-6.42-13.2-6.42H428.7l35,74.22L433.16,181.3h10C449.4,181.3,454.39,179.34,457.07,174.52ZM218.71,51.42v91h18.38V80c5.71-8,13.92-13,24.09-13,13.56,0,22.83,8.57,22.83,25.69v41c0,5.17,3.57,8.74,8.57,8.74h9.81v-53c0-23.55-15-40-36.75-40a41,41,0,0,0-28.55,10.88V51.42Zm157.9,58.7c0,19.8,12.13,33.9,33.9,33.9a46.71,46.71,0,0,0,13.38-1.79l-3.75-16a38.05,38.05,0,0,1-8.39.89c-8.92,0-16.77-4.82-16.77-17.31V67.84h25.69l-7.49-16.42H395V14.85l-18.37,8V51.42H357.16V67.84h19.45ZM121.84,67.84v74.57h18.37V67.84h23.55V51.42H140.21V44.64c0-15.52,9.28-20.69,18.38-20.69a21.86,21.86,0,0,1,6.25.89L168.58,8.6a32.17,32.17,0,0,0-11.42-1.78c-22.83,0-35.32,17-35.32,37.47v7.13H112.2L100.61,67.84ZM622.6,95l32.47-43.53H641.51c-6.07,0-10,2.14-13.2,6.42l-17.13,23-16.59-23c-3.22-4.28-7.14-6.42-13.21-6.42H567.82L599.94,95l-35.15,47.46h12.85c6.06,0,10-2.14,13.2-6.42l20.34-26.94,47.63,65.83c3,4.28,7.14,6.42,13.21,6.42h13.91Zm139.23,47.46h18.38v-91H761.83ZM677.22,9.32V142.41h19.46V82.24h44.67V63.52H696.68V27.8h50.38L759.24,9.32Z"/></svg>