<svg xmlns="http://www.w3.org/2000/svg" viewBox="0 0 442.5 68.5">
<path d="M22.7,34.6l12.7-17.1h-5.3c-2.4,0-3.9,0.8-5.2,2.5l-6.7,9l-6.5-9c-1.3-1.7-2.8-2.5-5.2-2.5H1.2l12.6,17.1L0,53.2h5
	c2.4,0,3.9-0.8,5.2-2.5l8-10.6L36.9,66c1.2,1.7,2.8,2.5,5.2,2.5h5.5L22.7,34.6z M124.7,53.2h7.2V17.5h-7.2V53.2z M67.5,53.2h7.2
	V17.5h-7.2V53.2z M176.9,65.8L203,17.5h-3.9c-2.4,0-4.2,0.7-5.2,2.5l-10.3,19.1L174.7,20c-0.9-1.9-2.8-2.5-5.2-2.5h-3.8l13.7,29.1
	l-12,21.8h3.9C173.8,68.5,175.8,67.7,176.9,65.8z M83.3,17.5v35.7h7.2V28.7c2.2-3.2,5.5-5.1,9.5-5.1c5.3,0,9,3.4,9,10.1v16.1
	c0,2,1.4,3.4,3.4,3.4h3.9V32.4c0-9.2-5.9-15.7-14.4-15.7c-4.6,0-8.3,1.6-11.2,4.3v-3.5H83.3z M145.3,40.5c0,7.8,4.8,13.3,13.3,13.3
	c2.1,0,3.9-0.3,5.3-0.7l-1.5-6.3c-0.9,0.2-2,0.4-3.3,0.4c-3.5,0-6.6-1.9-6.6-6.8V23.9h10.1l-2.9-6.4h-7.1V3.2l-7.2,3.2v11.2h-7.6
	v6.4h7.6V40.5z M45.3,23.9v29.3h7.2V23.9h9.2v-6.4h-9.2v-2.7c0-6.1,3.6-8.1,7.2-8.1c0.9,0,1.8,0.1,2.5,0.4l1.5-6.4
	C62.7,0.4,61.3,0,59.2,0c-9,0-13.9,6.7-13.9,14.7v2.8h-3.8L37,23.9H45.3z M218.7,45.4c3,2.6,6.8,4.3,10.8,4.3c4.4,0,8.2-2.5,8.2-6.2
	c0-9.1-20.5-4.1-20.5-16.3c0-6.5,6.1-10.4,12.1-10.4c4.8,0,8.8,1.6,11.5,3.4l-2.3,3.7c-3-2-5.2-2.9-8.9-2.9c-3.7,0-7.9,2-7.9,6.1
	c0,7.9,20.5,3.7,20.5,16.1c0,6.6-5.6,10.7-12.3,10.7c-5.9,0-10.7-2.2-13.8-5.1L218.7,45.4z M296.5,21c-0.5-0.1-1.9-0.1-2.1-0.1
	c-4.8,0-9.3,3.3-11.2,7.9v24.4h-4.4V17.5h4.4v4.7c1.6-2.5,5.7-5.5,11.2-5.5c0.6,0,2.2,0.1,2.7,0.2L296.5,21z M270.4,21.7h-11.9v19.4
	c0,3.2,0.6,4.8,1.6,5.9c1.3,1.6,3.3,2.5,5.9,2.5c1,0,2.5-0.1,3.8-0.5l0.8,4.1c-1.2,0.4-3.2,0.6-4.6,0.6c-3.3,0-7.1-1-9.6-4.1
	c-1.6-2-2.4-4.5-2.4-8.8V21.7h-8.3v-4.2h8.3V4.8l4.5-1.6v14.4h11.9V21.7z M332.7,34.1c0-9.9-7-17.4-16.5-17.4
	c-10.1,0-17,8.3-17,18.6c0,11.1,7.9,18.6,17.9,18.6c6.8,0,11.8-3.1,15-7.1l-1.1-1c-1.1-1-2.7-1-3.8,0c-2.9,2.7-6.2,3.9-10,3.9
	c-8.2,0-13.1-6.4-13.4-14h29C332.7,35,332.7,34.4,332.7,34.1z M303.9,31.6c1.3-6.2,6-10.7,12.3-10.7c6.2,0,11,4.4,11.9,10.7H303.9z
	 M368.8,17.5v4.9c-3.2-3.6-7.9-5.7-13-5.7c-4.3,0-8.3,1.6-11.3,4c-4.1,3.4-6.6,8.7-6.6,14.6c0,6.4,2.9,11.9,7.6,15.2
	c3.5,2.5,7.3,3.4,10.6,3.4c5.5,0,10.1-2.4,12.8-6v5.4h4.3V17.5H368.8z M368.7,41.9c-2.8,4.8-7.5,7.8-12.7,7.8c-3,0-5.8-1.1-8-2.7
	c-3.4-2.4-5.6-6.8-5.6-11.7c0-4.6,1.9-8.7,5-11.3c2.5-2,5.6-3,8.6-3c6.6,0,11.2,4.5,12.8,7.2V41.9z M410.6,34.9V51
	c0,1.2,1,2.2,2.2,2.2s2.2,0,2.2,0V34.3l0,0c0-2-0.2-3.7-0.4-5.1c2.2-4.3,6.6-8.3,12.3-8.3c3.9,0,7.1,1.9,9,4.7c1.3,1.9,2,4.2,2,9.2
	V51c0,1.2,1,2.2,2.2,2.2s2.2,0,2.2,0V34.3c0-4.8-0.8-7.7-2.1-10.1c-2.6-4.5-7.5-7.5-13.4-7.5c-7.1,0-11.5,4-14,7.6
	c-2.5-4.6-7.4-7.6-13.4-7.6c-4.9,0-9.5,2.3-12.1,5.6v-4.9h-4.3v35.7h4.5V28.4c2.3-4.5,7-7.4,11.9-7.4c3.9,0,7.1,1.9,9,4.7
	C409.8,27.5,410.6,29.9,410.6,34.9L410.6,34.9z"/>
</svg>
