<?xml version="1.0" encoding="utf-8"?>
<!-- Generator: Adobe Illustrator 24.0.0, SVG Export Plug-In . SVG Version: 6.00 Build 0)  -->
<svg version="1.1" id="Xfinity_Flex_black" xmlns="http://www.w3.org/2000/svg" xmlns:xlink="http://www.w3.org/1999/xlink" x="0px"
	 y="0px" viewBox="0 0 365.9 73.3" style="enable-background:new 0 0 365.9 73.3;" xml:space="preserve">
<path d="M231.2,25.9l3.7-6.9h5.2v-3c0-8.6,5.2-15.6,14.8-15.6c2.2,0,3.8,0.4,4.8,0.7L258,8c-0.7-0.2-1.6-0.4-2.6-0.4
	c-3.8,0-7.7,2.2-7.7,8.6v2.8h11.3v6.9h-11.3v31.1h-7.7V25.9H231.2z M339.5,37.2L353,19.1h-5.7c-2.5,0-4.2,0.9-5.5,2.7l-7.2,9.6
	l-6.9-9.6c-1.3-1.8-3-2.7-5.5-2.7h-5.7L330,37.2l-14.7,19.8h5.4c2.5,0,4.2-0.9,5.5-2.7l8.5-11.3l19.9,27.5c1.3,1.8,3,2.7,5.5,2.7
	h5.8L339.5,37.2z M265.2,57.1h7.7V0l-7.7,3.1V57.1z M314.3,51l-1.7-2.2c-1.4-1.7-3.8-1.6-5.3-0.6c-2.7,1.9-5.2,2.9-8.7,2.9
	c-6.6,0-11.9-5.1-12.3-11.5h29.3c0.1-0.7,0.1-1.3,0.1-1.6c0-11.2-7.8-19.8-18.3-19.8c-10.8,0-18.5,8.4-18.5,19.8
	c0,11.4,8.6,19.8,19.7,19.8C306.1,57.9,311.4,54.5,314.3,51z M297.6,25c4.5,0,8.9,3.5,10,8.2h-20.7C288.2,28.3,292.6,25,297.6,25z"
	/>
<path d="M50.6,73.3h-5.8c-2.5,0-4.2-0.9-5.5-2.7L19.4,43.1l-8.5,11.3c-1.3,1.8-3,2.7-5.5,2.7H0l14.7-19.8L1.3,19.1h5.7
	c2.5,0,4.2,0.9,5.5,2.7l6.9,9.6l7.2-9.6c1.3-1.8,3-2.7,5.5-2.7h5.7L24.1,37.2L50.6,73.3z M132.7,57.1h7.7v-38h-7.7V57.1z M71.8,57.1
	h7.7v-38h-7.7V57.1z M188.2,70.5L216,19.1h-4.2c-2.5,0-4.5,0.7-5.5,2.7l-11,20.3l-9.5-20.3c-1-2-3-2.7-5.5-2.7h-4l14.6,31
	l-12.7,23.2h4.2C185,73.3,187.1,72.5,188.2,70.5 M88.7,19.1v38h7.7V31c2.4-3.4,5.8-5.4,10.1-5.4c5.7,0,9.5,3.6,9.5,10.7v17.1
	c0,2.2,1.5,3.7,3.6,3.7h4.1V34.9c0-9.8-6.3-16.7-15.3-16.7c-4.8,0-8.9,1.7-11.9,4.5v-3.7H88.7z M154.6,43.6
	c0,8.3,5.1,14.2,14.2,14.2c2.2,0,4.1-0.3,5.6-0.7l-1.6-6.7c-1,0.2-2.2,0.4-3.5,0.4c-3.7,0-7-2-7-7.2V25.9H173l-3.1-6.9h-7.6V3.8
	l-7.7,3.4v11.9h-8.1v6.9h8.1V43.6z M48.2,25.9v31.1h7.7V25.9h9.8v-6.9h-9.8v-2.8c0-6.5,3.9-8.6,7.7-8.6c1,0,1.9,0.1,2.6,0.4l1.6-6.8
	c-1-0.4-2.5-0.7-4.8-0.7c-9.5,0-14.8,7.1-14.8,15.6v3h-4l-4.8,6.9H48.2z"/>
</svg>
