<svg xmlns="http://www.w3.org/2000/svg" viewBox="0 0 442.5 68.5">
<path d="M216.1,24.2l3.5-6.4h4.9V15c0-8,4.9-14.6,13.8-14.6c2.1,0,3.6,0.4,4.5,0.7l-1.6,6.4c-0.7-0.2-1.5-0.4-2.4-0.4
	c-3.6,0-7.2,2.1-7.2,8v2.6H242v6.4h-10.6v29.1h-7.2V24.2H216.1z M317.3,34.8l12.6-16.9h-5.3c-2.3,0-3.9,0.8-5.1,2.5l-6.7,9l-6.4-9
	c-1.2-1.7-2.8-2.5-5.1-2.5h-5.3l12.6,16.9l-13.7,18.5h5c2.3,0,3.9-0.8,5.1-2.5l7.9-10.6l18.6,25.7c1.2,1.7,2.8,2.5,5.1,2.5h5.4
	L317.3,34.8z M247.8,53.4h7.2V0l-7.2,2.9V53.4z M293.7,47.7l-1.6-2.1c-1.3-1.6-3.6-1.5-5-0.6c-2.5,1.8-4.9,2.7-8.1,2.7
	c-6.2,0-11.1-4.8-11.5-10.7h27.4c0.1-0.7,0.1-1.2,0.1-1.5C295,25,287.7,17,277.9,17c-10.1,0-17.3,7.8-17.3,18.5S268.7,54,279,54
	C286.1,54.1,291,50.9,293.7,47.7z M278.1,23.4c4.2,0,8.3,3.3,9.3,7.7h-19.3C269.3,26.4,273.4,23.4,278.1,23.4z"/>
<path d="M47.3,68.5h-5.4c-2.3,0-3.9-0.8-5.1-2.5L18.1,40.3l-7.9,10.6C9,52.5,7.4,53.4,5,53.4H0l13.7-18.5l-12.5-17h5.3
	c2.3,0,3.9,0.8,5.1,2.5l6.4,9l6.7-9c1.2-1.7,2.8-2.5,5.1-2.5h5.3L22.5,34.8L47.3,68.5z M124,53.4h7.2V17.8H124V53.4z M67.1,53.4h7.2
	V17.8h-7.2V53.4z M175.9,65.9l26-48h-3.9c-2.3,0-4.2,0.7-5.1,2.5l-10.3,19l-8.9-19c-0.9-1.9-2.8-2.5-5.1-2.5h-3.7l13.6,29
	l-11.9,21.7h3.9C172.9,68.5,174.8,67.8,175.9,65.9 M82.9,17.8v35.5h7.2V29c2.2-3.2,5.4-5,9.4-5c5.3,0,8.9,3.4,8.9,10v16
	c0,2.1,1.4,3.5,3.4,3.5h3.8V32.6c0-9.2-5.9-15.6-14.3-15.6c-4.5,0-8.3,1.6-11.1,4.2v-3.5L82.9,17.8L82.9,17.8z M144.5,40.7
	c0,7.8,4.8,13.3,13.3,13.3c2.1,0,3.8-0.3,5.2-0.7l-1.5-6.3c-0.9,0.2-2.1,0.4-3.3,0.4c-3.5,0-6.5-1.9-6.5-6.7V24.2h10l-2.9-6.4h-7.1
	V3.6l-7.2,3.2v11.1h-7.6v6.4h7.6V40.7L144.5,40.7z M45,24.2v29.1h7.2V24.2h9.2v-6.4h-9.2v-2.6c0-6.1,3.6-8,7.2-8
	c0.9,0,1.8,0.1,2.4,0.4l1.5-6.4c-0.9-0.4-2.3-0.7-4.5-0.7C50,0.5,45,7.1,45,15v2.8h-3.7l-4.5,6.4L45,24.2L45,24.2z"/>
</svg>
