<svg xmlns="http://www.w3.org/2000/svg" viewBox="0 0 442.5 68.5">
<path d="M22.7,34.7l12.7-17.1h-5.3c-2.4,0-3.9,0.8-5.2,2.5l-6.7,9l-6.5-9c-1.3-1.7-2.8-2.5-5.2-2.5H1.2l12.6,17.1L0,53.3h5
	c2.4,0,3.9-0.8,5.2-2.5l8-10.6l18.7,25.8c1.2,1.7,2.8,2.5,5.2,2.5h5.5L22.7,34.7z M124.7,53.3h7.2V17.6h-7.2V53.3z M67.5,53.3h7.2
	V17.6h-7.2V53.3z M176.9,65.9L203,17.6h-3.9c-2.4,0-4.2,0.7-5.2,2.5l-10.3,19.1l-8.9-19.1c-0.9-1.9-2.8-2.5-5.2-2.5h-3.8l13.7,29.1
	l-12,21.8h3.9C173.8,68.6,175.8,67.8,176.9,65.9z M83.3,17.6v35.7h7.2V28.8c2.2-3.2,5.5-5.1,9.5-5.1c5.3,0,9,3.4,9,10.1v16.1
	c0,2,1.4,3.4,3.4,3.4h3.9V32.5c0-9.2-5.9-15.7-14.4-15.7c-4.6,0-8.3,1.6-11.2,4.3v-3.5H83.3z M145.3,40.6c0,7.8,4.8,13.3,13.3,13.3
	c2.1,0,3.9-0.3,5.3-0.7l-1.5-6.3c-0.9,0.2-2,0.4-3.3,0.4c-3.5,0-6.6-1.9-6.6-6.8V24h10.1l-2.9-6.4h-7.1V3.3l-7.2,3.2v11.2h-7.6V24
	h7.6V40.6z M45.3,24v29.3h7.2V24h9.2v-6.4h-9.2v-2.7c0-6.1,3.6-8.1,7.2-8.1c0.9,0,1.8,0.1,2.5,0.4l1.5-6.4c-0.9-0.4-2.4-0.7-4.5-0.7
	c-9,0-13.9,6.7-13.9,14.7v2.8h-3.8L37,24H45.3z M330,35c0-5-0.8-7.4-2-9.2c-1.9-2.8-5.1-4.7-9-4.7c-4.9,0-9.6,3-11.9,7.4v24.8h-4.5
	V17.6h4.3v4.9c2.6-3.4,7.1-5.6,12.1-5.6c6,0,10.9,3,13.4,7.6c2.5-3.6,6.9-7.6,14-7.6c5.9,0,10.8,3,13.4,7.5
	c1.3,2.4,2.1,5.3,2.1,10.1v18.9c0,0-1,0-2.2,0s-2.2-1-2.2-2.2V35c0-5-0.8-7.4-2-9.2c-1.9-2.8-5.1-4.7-9-4.7c-5.7,0-10.1,4-12.3,8.3
	c0.2,1.4,0.4,3.1,0.4,5.1l0,0v18.9c0,0-1,0-2.2,0s-2.2-1-2.2-2.2L330,35L330,35z M402.6,34.2c0-9.9-7-17.4-16.5-17.4
	c-10.1,0-17,8.3-17,18.6c0,11.1,7.9,18.6,17.9,18.6c6.8,0,11.8-3.1,15-7.1l-1.1-1c-1.1-1-2.7-1-3.8,0c-2.9,2.7-6.2,3.9-10,3.9
	c-8.2,0-13.1-6.4-13.4-14h29C402.6,35.1,402.6,34.5,402.6,34.2z M373.7,31.7c1.3-6.2,6-10.7,12.3-10.7c6.2,0,11,4.4,11.9,10.7H373.7
	z M295.3,35.4c0-10.2-7.7-18.6-18.3-18.6s-18.3,8.3-18.3,18.6c0,10.2,7.7,18.6,18.3,18.6S295.3,45.6,295.3,35.4z M290.9,35.4
	c0,8-5.9,14.4-13.9,14.4s-13.9-6.4-13.9-14.4c0-8,5.9-14.4,13.9-14.4S290.9,27.4,290.9,35.4z M248.6,22.8c1.8,2.4,3,5.2,3,11.3v19.2
	c0,0-1,0-2.2,0c-1.2,0-2.2-1.1-2.2-2.4V34.4c0-4.1-0.6-6.6-2-8.6c-2-3-5.4-4.7-9.2-4.7c-5,0-9.5,2.7-12.2,7.3v24.9h-4.5V1.8l4.5-1.8
	v22.3c2.6-3.4,7.2-5.4,12.3-5.4C241.2,16.8,245.8,19,248.6,22.8z"/>
</svg>
