<svg xmlns="http://www.w3.org/2000/svg" viewBox="0 0 442.5 68.5">
<path d="M22.7,34.6l12.7-17.1h-5.3c-2.4,0-3.9,0.8-5.2,2.5l-6.7,9l-6.5-9c-1.3-1.7-2.8-2.5-5.2-2.5H1.2l12.6,17.1L0,53.2h5
	c2.4,0,3.9-0.8,5.2-2.5l8-10.6L36.9,66c1.2,1.7,2.8,2.5,5.2,2.5h5.5L22.7,34.6z M124.7,53.2h7.2V17.5h-7.2V53.2z M67.5,53.2h7.2
	V17.5h-7.2V53.2z M176.9,65.8L203,17.5h-3.9c-2.4,0-4.2,0.7-5.2,2.5l-10.3,19.1L174.7,20c-0.9-1.9-2.8-2.5-5.2-2.5h-3.8l13.7,29.1
	l-12,21.8h3.9C173.8,68.5,175.8,67.7,176.9,65.8z M83.3,17.5v35.7h7.2V28.7c2.2-3.2,5.5-5.1,9.5-5.1c5.3,0,9,3.4,9,10.1v16.1
	c0,2,1.4,3.4,3.4,3.4h3.9V32.4c0-9.2-5.9-15.7-14.4-15.7c-4.6,0-8.3,1.6-11.2,4.3v-3.5H83.3z M145.3,40.5c0,7.8,4.8,13.3,13.3,13.3
	c2.1,0,3.9-0.3,5.3-0.7l-1.5-6.3c-0.9,0.2-2,0.4-3.3,0.4c-3.5,0-6.6-1.9-6.6-6.8V23.9h10.1l-2.9-6.4h-7.1V3.2l-7.2,3.2v11.2h-7.6
	v6.4h7.6V40.5z M45.3,23.9v29.3h7.2V23.9h9.2v-6.4h-9.2v-2.7c0-6.1,3.6-8.1,7.2-8.1c0.9,0,1.8,0.1,2.5,0.4l1.5-6.4
	C62.7,0.4,61.3,0,59.2,0c-9,0-13.9,6.7-13.9,14.7v2.8h-3.8L37,23.9H45.3z M241.8,34.6l12.7-17.1h-5.3c-2.4,0-3.9,0.8-5.2,2.5l-6.7,9
	l-6.5-9c-1.3-1.7-2.8-2.5-5.2-2.5h-5.3l12.6,17.1l-13.8,18.6h5c2.4,0,3.9-0.8,5.2-2.5l8-10.6L256,66c1.2,1.7,2.8,2.5,5.2,2.5h5.5
	L241.8,34.6z M296.5,53.2h7.2V17.5h-7.2V53.2z M263.3,1v52.2h7.6V29.6h17.5v-7.3l-17.5,0v-14h19.8l4.8-7.3H263.3z"/>
</svg>
