<svg xmlns="http://www.w3.org/2000/svg" viewBox="0 0 934 186"><defs><style>.cls-1{fill:#fff;}.cls-2{fill:#00d6ca;}.cls-3{fill:#e2f3f5;}.cls-10,.cls-11,.cls-12,.cls-13,.cls-14,.cls-4,.cls-5,.cls-6,.cls-7,.cls-8,.cls-9{fill:none;stroke-miterlimit:10;}.cls-10,.cls-11,.cls-12,.cls-13,.cls-4,.cls-5,.cls-6,.cls-7,.cls-8,.cls-9{stroke:#5a5a5c;}.cls-4{stroke-width:0.5px;}.cls-6{stroke-dasharray:3.01 5.01 3.01 5.01;}.cls-7{stroke-dasharray:3.01 5.01 3.01 5.01 3.01 5.01;}.cls-8{stroke-dasharray:3.03 5.05 3.03 5.05;}.cls-9{stroke-dasharray:3.03 5.05 3.03 5.05 3.03 5.05;}.cls-10{stroke-dasharray:3 5.01 3 5.01;}.cls-11{stroke-dasharray:3 5.01 3 5.01 3 5.01;}.cls-12{stroke-dasharray:3.03 5.04 3.03 5.04;}.cls-13{stroke-dasharray:3.03 5.04 3.03 5.04 3.03 5.04;}.cls-14{stroke:#000;stroke-width:2px;}.cls-15{fill:#5a5a5c;}</style></defs><title>BrandHub-VectorGraphics</title><g id="Vector"><rect class="cls-1" width="934" height="186"/><path class="cls-2" d="M824,93.28,842.09,69h-7.56a8.37,8.37,0,0,0-7.36,3.58l-9.54,12.82L808.38,72.6A8.37,8.37,0,0,0,801,69h-7.55l17.89,24.26-19.58,26.44h7.15a8.36,8.36,0,0,0,7.36-3.58l11.34-15,26.54,36.69a8.26,8.26,0,0,0,7.36,3.58h7.76Z"/><path class="cls-2" d="M856.11,78.16v41.56h10.24V78.16h13.12V69H866.35V65.24c0-8.65,5.17-11.54,10.24-11.54a12.21,12.21,0,0,1,3.48.5l2.09-9.05a18.18,18.18,0,0,0-6.37-1c-12.72,0-19.68,9.44-19.68,20.88v4h-5.37l-6.47,9.14Z"/><rect class="cls-3" x="20.71" y="17.96" width="340.36" height="149.34"/><path class="cls-2" d="M180.22,18.51V43.86h5.12V26.46a8.08,8.08,0,0,1,6.71-3.63c3.78,0,6.37,2.39,6.37,7.16V41.43a2.3,2.3,0,0,0,2.38,2.43h2.74V29.1c0-6.56-4.18-11.14-10.24-11.14a11.44,11.44,0,0,0-8,3V18.51Z"/><path class="cls-2" d="M180.22,142V167.3h5.12V149.9a8.06,8.06,0,0,1,6.71-3.63c3.78,0,6.37,2.39,6.37,7.16v11.43a2.31,2.31,0,0,0,2.38,2.44h2.74V152.53c0-6.56-4.18-11.13-10.24-11.13a11.44,11.44,0,0,0-8,3V142Z"/><path class="cls-2" d="M21.26,105.12H46.61V100H29.21a8.06,8.06,0,0,1-3.63-6.71c0-3.78,2.39-6.37,7.16-6.37H44.17a2.31,2.31,0,0,0,2.44-2.38V81.8H31.85C25.28,81.8,20.71,86,20.71,92a11.42,11.42,0,0,0,3,8H21.26Z"/><path class="cls-2" d="M360.52,81.8H335.17v5.12h17.4a8.09,8.09,0,0,1,3.63,6.72c0,3.77-2.39,6.36-7.16,6.36H337.6a2.3,2.3,0,0,0-2.43,2.38v2.74h14.76c6.56,0,11.14-4.18,11.14-10.24a11.45,11.45,0,0,0-3-8h2.49Z"/><rect class="cls-1" x="46.93" y="44.16" width="288.12" height="97.24"/><path d="M79.14,93.28,97.24,69H89.68a8.37,8.37,0,0,0-7.36,3.58L72.78,85.42,63.53,72.6A8.36,8.36,0,0,0,56.18,69H48.62l17.9,24.26L46.93,119.72h7.16a8.34,8.34,0,0,0,7.35-3.58l11.34-15,26.55,36.69a8.24,8.24,0,0,0,7.35,3.58h7.76ZM224,119.72h10.24V69H224Zm-81.23,0H153V69H142.78Zm155.3,17.9L335.17,69H329.6c-3.38,0-6,1-7.36,3.58L307.63,99.74,295,72.6c-1.29-2.69-4-3.58-7.36-3.58h-5.37l19.49,41.36-17,31h5.57C293.81,141.4,296.59,140.3,298.08,137.62ZM165.25,69v50.7h10.24V84.92a16.12,16.12,0,0,1,13.42-7.25c7.56,0,12.73,4.77,12.73,14.31v22.87a4.62,4.62,0,0,0,4.77,4.87h5.47V90.19c0-13.12-8.35-22.27-20.48-22.27A22.82,22.82,0,0,0,175.49,74V69Zm88,32.71c0,11,6.76,18.89,18.89,18.89a25.93,25.93,0,0,0,7.46-1l-2.09-8.94a21.52,21.52,0,0,1-4.67.49c-5,0-9.35-2.68-9.35-9.64V78.16H277.8L273.62,69H263.48V48.63l-10.24,4.48V69H242.4v9.14h10.84Zm-142-23.57v41.56H121.5V78.16h13.12V69H121.5V65.24c0-8.65,5.17-11.54,10.24-11.54a12.16,12.16,0,0,1,3.48.5l2.09-9.05a18.13,18.13,0,0,0-6.37-1c-12.72,0-19.68,9.44-19.68,20.88v4h-5.37l-6.46,9.14Z"/><line class="cls-4" x1="46.93" y1="185.66" x2="46.93" y2="0.8"/><line class="cls-4" y1="44.16" x2="379.58" y2="44.16"/><line class="cls-4" x1="379.28" y1="141.4" x2="0.31" y2="141.4"/><line class="cls-4" x1="335.05" y1="186" x2="335.05" y2="0.46"/><rect class="cls-3" x="361.04" y="17.96" width="340.36" height="149.34"/><path class="cls-2" d="M361.59,105.12h25.35V100h-17.4a8.07,8.07,0,0,1-3.62-6.71c0-3.78,2.38-6.37,7.15-6.37h11.44a2.3,2.3,0,0,0,2.43-2.38V81.8H372.18C365.62,81.8,361,86,361,92a11.43,11.43,0,0,0,3,8h-2.49Z"/><path class="cls-2" d="M700.85,81.8H675.5v5.12h17.4a8.06,8.06,0,0,1,3.63,6.72c0,3.77-2.39,6.36-7.16,6.36H677.94a2.31,2.31,0,0,0-2.44,2.38v2.74h14.77c6.56,0,11.13-4.18,11.13-10.24a11.44,11.44,0,0,0-3-8h2.48Z"/><rect class="cls-1" x="387.26" y="44.16" width="288.12" height="97.24"/><line class="cls-4" x1="387.26" y1="185.66" x2="387.26" y2="0.8"/><line class="cls-5" x1="342.53" y1="44.16" x2="344.03" y2="44.16"/><line class="cls-6" x1="349.04" y1="44.16" x2="362.58" y2="44.16"/><line class="cls-7" x1="365.08" y1="44.16" x2="891.98" y2="44.16"/><line class="cls-5" x1="894.49" y1="44.16" x2="895.99" y2="44.16"/><line class="cls-5" x1="386.99" y1="68.66" x2="388.49" y2="68.66"/><line class="cls-8" x1="393.54" y1="68.66" x2="407.18" y2="68.66"/><line class="cls-9" x1="409.71" y1="68.66" x2="770.96" y2="68.66"/><line class="cls-5" x1="773.49" y1="68.66" x2="774.99" y2="68.66"/><line class="cls-5" x1="895.54" y1="141.4" x2="894.04" y2="141.4"/><line class="cls-10" x1="889.04" y1="141.4" x2="875.52" y2="141.4"/><line class="cls-11" x1="873.02" y1="141.4" x2="346.98" y2="141.4"/><line class="cls-5" x1="344.48" y1="141.4" x2="342.98" y2="141.4"/><line class="cls-5" x1="774.68" y1="119.9" x2="773.18" y2="119.9"/><line class="cls-12" x1="768.13" y1="119.9" x2="754.51" y2="119.9"/><line class="cls-13" x1="751.99" y1="119.9" x2="391.33" y2="119.9"/><line class="cls-5" x1="388.8" y1="119.9" x2="387.3" y2="119.9"/><line class="cls-4" x1="675.39" y1="186" x2="675.39" y2="0.46"/><line class="cls-14" x1="360.99" y1="44.25" x2="360.99" y2="141.35"/><rect class="cls-15" x="386.99" y="68.99" width="288.67" height="50.5"/><path class="cls-2" d="M715.33,69v50.7h10.24V84.92A16.12,16.12,0,0,1,739,77.67c7.56,0,12.73,4.77,12.73,14.31v22.87a4.62,4.62,0,0,0,4.77,4.87H762V90.19c0-13.12-8.35-22.27-20.48-22.27A22.82,22.82,0,0,0,725.57,74V69Z"/><path class="cls-1" d="M477.32,85.11a7.94,7.94,0,0,1,2.58.36,4,4,0,0,1,1.64,1,3.63,3.63,0,0,1,.77,1.35,5.58,5.58,0,0,1,.26,1.74,5.42,5.42,0,0,1-.32,1.91,3.71,3.71,0,0,1-.92,1.45,3.9,3.9,0,0,1-.69.52,4.38,4.38,0,0,1-.87.38,7.43,7.43,0,0,1-1.09.23,11.2,11.2,0,0,1-1.36.07h-3.07v5.78h-2.48V85.11Zm-3.07,7h3.26a3.8,3.8,0,0,0,1.14-.15,2,2,0,0,0,.79-.45,2,2,0,0,0,.48-.83,3.93,3.93,0,0,0,.14-1.13,3.24,3.24,0,0,0-.13-.94,2,2,0,0,0-1.21-1.28,3.23,3.23,0,0,0-1.21-.19h-3.26Z"/><path class="cls-1" d="M484.37,89.88a3.21,3.21,0,0,1,.66-.38,8.41,8.41,0,0,1,1-.35,10.77,10.77,0,0,1,1.22-.26,9.57,9.57,0,0,1,1.46-.1,7.17,7.17,0,0,1,1.82.21,3.37,3.37,0,0,1,1.35.68,2.85,2.85,0,0,1,.83,1.21,5,5,0,0,1,.28,1.8v4.44a6.64,6.64,0,0,0,.2,1.77,6,6,0,0,0,.39,1h-2.37a6.53,6.53,0,0,1-.26-.62,3.51,3.51,0,0,1-.18-1,4.1,4.1,0,0,1-1.43,1.35,4,4,0,0,1-2.08.5,4.55,4.55,0,0,1-1.38-.2,3,3,0,0,1-1.08-.61,2.87,2.87,0,0,1-.7-1,3.64,3.64,0,0,1-.24-1.37,3.51,3.51,0,0,1,.32-1.5,2.8,2.8,0,0,1,1.12-1.15,6.58,6.58,0,0,1,2.08-.76,17.73,17.73,0,0,1,3.25-.3v-.72a2,2,0,0,0-.46-1.46,2.13,2.13,0,0,0-1.55-.47,5.8,5.8,0,0,0-1.66.24,9.86,9.86,0,0,0-1.6.61Zm6.21,4.74a14.15,14.15,0,0,0-2.39.33,4.52,4.52,0,0,0-1.34.51,1.42,1.42,0,0,0-.59.65,2,2,0,0,0-.13.68,1.62,1.62,0,0,0,.43,1.19,1.84,1.84,0,0,0,1.34.42,3.2,3.2,0,0,0,1.09-.18,2.5,2.5,0,0,0,.85-.51,2.21,2.21,0,0,0,.55-.79,2.76,2.76,0,0,0,.19-1Z"/><path class="cls-1" d="M498.08,89l.22,1.8a8.78,8.78,0,0,1,.54-.77,3.59,3.59,0,0,1,.61-.62,2.86,2.86,0,0,1,.69-.41,2.11,2.11,0,0,1,.8-.15,3.62,3.62,0,0,1,.55,0,2.12,2.12,0,0,1,.56.16l-.27,2.33a3.69,3.69,0,0,0-.64-.1l-.56,0a2.47,2.47,0,0,0-.84.13,1.92,1.92,0,0,0-.66.37,1.61,1.61,0,0,0-.43.62,2.24,2.24,0,0,0-.15.86v6.68h-2.33V91L496,89Z"/><path class="cls-1" d="M506.53,86.11V89H509V90.8h-2.48v6.27a1.77,1.77,0,0,0,.05.41,1,1,0,0,0,.16.34.79.79,0,0,0,.28.23,1.1,1.1,0,0,0,.43.08h1.64l-.15,1.76a2.12,2.12,0,0,1-.75.2c-.32,0-.73,0-1.22,0a3.32,3.32,0,0,1-1.24-.21,2.31,2.31,0,0,1-.86-.57,2.24,2.24,0,0,1-.5-.84,3.12,3.12,0,0,1-.17-1V90.8h-1.76V89h1.76l.27-2.91Z"/><path class="cls-1" d="M513.23,89l.21,1.74a5,5,0,0,1,.73-1,3.32,3.32,0,0,1,.78-.61,3.06,3.06,0,0,1,.83-.3,5.4,5.4,0,0,1,.91-.08,4.11,4.11,0,0,1,1.56.27,3.14,3.14,0,0,1,1.88,2,6.46,6.46,0,0,1,.24,1.9v6.94H518V92.69a3,3,0,0,0-.09-.72,1.57,1.57,0,0,0-.37-.65,1.52,1.52,0,0,0-.63-.42,2.67,2.67,0,0,0-1-.16,2.4,2.4,0,0,0-.93.17,2.13,2.13,0,0,0-.73.47,2.2,2.2,0,0,0-.67,1.6v7h-2.32V91l-.22-2Z"/><path class="cls-1" d="M525.2,95a6.1,6.1,0,0,0,.21,1.22,3.31,3.31,0,0,0,.51,1.07,2.46,2.46,0,0,0,.91.74,3.15,3.15,0,0,0,1.42.29A5.2,5.2,0,0,0,530,98a7.65,7.65,0,0,0,1.57-.78l.72,1.66a7.52,7.52,0,0,1-1.81.92,6.88,6.88,0,0,1-2.26.34,6.57,6.57,0,0,1-2.43-.41,4.55,4.55,0,0,1-1.68-1.16,4.66,4.66,0,0,1-1-1.74,7.25,7.25,0,0,1-.32-2.17,7.33,7.33,0,0,1,.36-2.35,5.37,5.37,0,0,1,1-1.87,4.65,4.65,0,0,1,1.61-1.23,4.94,4.94,0,0,1,2.14-.45,4.83,4.83,0,0,1,2,.37,4,4,0,0,1,1.43,1,4.34,4.34,0,0,1,.88,1.54,6.07,6.07,0,0,1,.3,1.94c0,.12,0,.3,0,.52s0,.5-.07.82Zm2.73-4.45a2.39,2.39,0,0,0-1.8.76,3.9,3.9,0,0,0-.89,2.15h5a3.94,3.94,0,0,0-.16-1.17,2.55,2.55,0,0,0-.45-.92,2,2,0,0,0-.73-.6A2.18,2.18,0,0,0,527.93,90.55Z"/><path class="cls-1" d="M537.17,89l.21,1.8a8.86,8.86,0,0,1,.55-.77,3.59,3.59,0,0,1,.61-.62,2.68,2.68,0,0,1,.69-.41,2.11,2.11,0,0,1,.8-.15,3.74,3.74,0,0,1,.55,0,2.23,2.23,0,0,1,.56.16l-.27,2.33a3.65,3.65,0,0,0-.65-.1l-.55,0a2.57,2.57,0,0,0-.85.13,2.13,2.13,0,0,0-.66.37,1.7,1.7,0,0,0-.42.62,2.24,2.24,0,0,0-.15.86v6.68h-2.33V91l-.21-2Z"/><path class="cls-1" d="M550.51,85.11V97.89H557v2H548V85.11Z"/><path class="cls-1" d="M563,88.79a5.1,5.1,0,0,1,2.07.4,4.53,4.53,0,0,1,1.59,1.13,5.08,5.08,0,0,1,1,1.78,7.64,7.64,0,0,1,.36,2.33,7.48,7.48,0,0,1-.33,2.26,5.27,5.27,0,0,1-1,1.81,4.66,4.66,0,0,1-1.58,1.23,5.05,5.05,0,0,1-2.14.44,5.29,5.29,0,0,1-2.11-.4,4.52,4.52,0,0,1-1.6-1.16,5.24,5.24,0,0,1-1-1.81,7.33,7.33,0,0,1-.36-2.37,7.07,7.07,0,0,1,.35-2.25,5.39,5.39,0,0,1,1-1.79,4.69,4.69,0,0,1,1.59-1.18A5.25,5.25,0,0,1,563,88.79Zm0,1.95a2.41,2.41,0,0,0-1.27.29,2.19,2.19,0,0,0-.81.79,3.51,3.51,0,0,0-.42,1.18,7.24,7.24,0,0,0-.13,1.43,9,9,0,0,0,.11,1.38,3.52,3.52,0,0,0,.4,1.21,2.21,2.21,0,0,0,.8.86,2.82,2.82,0,0,0,2.59,0,2.25,2.25,0,0,0,.81-.81,3.68,3.68,0,0,0,.42-1.21,8.7,8.7,0,0,0,0-2.82,3.64,3.64,0,0,0-.41-1.19,2.27,2.27,0,0,0-.8-.83A2.41,2.41,0,0,0,563,90.74Z"/><path class="cls-1" d="M579.74,89v10.9a5.9,5.9,0,0,1-.35,2.11,4.07,4.07,0,0,1-1,1.5,4.12,4.12,0,0,1-1.57.9,6.84,6.84,0,0,1-2,.29,9.42,9.42,0,0,1-2-.21,7.88,7.88,0,0,1-1.66-.56l.33-1.87a7.33,7.33,0,0,0,1.44.55,7,7,0,0,0,1.86.23,3.78,3.78,0,0,0,1.16-.16,2,2,0,0,0,.85-.5,2.33,2.33,0,0,0,.52-.93,4.84,4.84,0,0,0,.17-1.42v-1.3a3.51,3.51,0,0,1-3.06,1.55,4.27,4.27,0,0,1-1.49-.24,3.62,3.62,0,0,1-1.13-.66,3.86,3.86,0,0,1-.82-1,5.93,5.93,0,0,1-.54-1.2,7,7,0,0,1-.3-1.3,9.72,9.72,0,0,1-.09-1.31,8.63,8.63,0,0,1,.26-2.13,5.54,5.54,0,0,1,.81-1.79,4.11,4.11,0,0,1,1.41-1.24,4.21,4.21,0,0,1,2-.46,4.1,4.1,0,0,1,1,.1,3,3,0,0,1,.79.31,3.35,3.35,0,0,1,.69.53,9,9,0,0,1,.65.77l.2-1.48Zm-2.34,4a2.22,2.22,0,0,0-.14-.78,2.07,2.07,0,0,0-.45-.73A2.31,2.31,0,0,0,576,91a2.76,2.76,0,0,0-1.14-.21,2.3,2.3,0,0,0-1.3.33,2.2,2.2,0,0,0-.74.86,3.67,3.67,0,0,0-.35,1.19,11.38,11.38,0,0,0-.08,1.31,10.43,10.43,0,0,0,.09,1.38,3.72,3.72,0,0,0,.35,1.21,2.11,2.11,0,0,0,.76.86,2.3,2.3,0,0,0,1.3.33,3,3,0,0,0,1.13-.2,2.25,2.25,0,0,0,.76-.53A2.22,2.22,0,0,0,577.4,96Z"/><path class="cls-1" d="M587.46,88.79a5.15,5.15,0,0,1,2.08.4,4.4,4.4,0,0,1,1.58,1.13,4.93,4.93,0,0,1,1,1.78,7.34,7.34,0,0,1,.37,2.33,7.18,7.18,0,0,1-.34,2.26,5.25,5.25,0,0,1-1,1.81,4.6,4.6,0,0,1-1.59,1.23,5,5,0,0,1-2.14.44,5.21,5.21,0,0,1-2.1-.4,4.43,4.43,0,0,1-1.6-1.16,5.24,5.24,0,0,1-1-1.81,7.33,7.33,0,0,1-.36-2.37,6.81,6.81,0,0,1,.35-2.25,5.22,5.22,0,0,1,1-1.79,4.59,4.59,0,0,1,1.59-1.18A5.21,5.21,0,0,1,587.46,88.79Zm0,1.95a2.46,2.46,0,0,0-1.27.29,2.24,2.24,0,0,0-.8.79,3.32,3.32,0,0,0-.43,1.18,8.11,8.11,0,0,0-.12,1.43,7.87,7.87,0,0,0,.11,1.38,3.52,3.52,0,0,0,.4,1.21,2.21,2.21,0,0,0,.8.86,2.38,2.38,0,0,0,1.31.33,2.47,2.47,0,0,0,1.28-.3,2.14,2.14,0,0,0,.8-.81,3.68,3.68,0,0,0,.42-1.21,8,8,0,0,0,0-2.82,3.63,3.63,0,0,0-.4-1.19,2.35,2.35,0,0,0-.8-.83A2.44,2.44,0,0,0,587.44,90.74Z"/></g></svg>