<svg xmlns="http://www.w3.org/2000/svg" viewBox="0 0 658 186"><defs><style>.cls-1{fill:#fff;}.cls-2{fill:#00d6ca;}.cls-3{fill:#e2f3f5;}.cls-10,.cls-4,.cls-5,.cls-6,.cls-7,.cls-8,.cls-9{fill:none;stroke-miterlimit:10;}.cls-4,.cls-5,.cls-6,.cls-7,.cls-8,.cls-9{stroke:#5a5a5c;}.cls-4{stroke-width:0.5px;}.cls-6{stroke-dasharray:3.09 5.15 3.09 5.15;}.cls-7{stroke-dasharray:3.09 5.15 3.09 5.15 3.09 5.15;}.cls-8{stroke-dasharray:3.08 5.14 3.08 5.14;}.cls-9{stroke-dasharray:3.08 5.14 3.08 5.14 3.08 5.14;}.cls-10{stroke:#000;stroke-width:2px;}.cls-11{fill:#5a5a5c;}</style></defs><title>BrandHub-VectorGraphics</title><g id="Vector"><rect class="cls-1" x="-0.36" y="0.03" width="658" height="186"/><path class="cls-2" d="M559,93.28,577.09,69h-7.56a8.37,8.37,0,0,0-7.36,3.58l-9.54,12.82L543.38,72.6A8.37,8.37,0,0,0,536,69h-7.55l17.89,24.26-19.58,26.44h7.15a8.36,8.36,0,0,0,7.36-3.58l11.34-15,26.54,36.69a8.26,8.26,0,0,0,7.36,3.58h7.76Z"/><path class="cls-2" d="M591.11,78.16v41.56h10.24V78.16h13.12V69H601.35V65.24c0-8.65,5.17-11.54,10.24-11.54a12.21,12.21,0,0,1,3.48.5l2.09-9.05a18.18,18.18,0,0,0-6.37-1c-12.72,0-19.68,9.44-19.68,20.88v4h-5.37l-6.47,9.14Z"/><rect class="cls-3" x="18.71" y="17.96" width="340.36" height="149.34"/><path class="cls-2" d="M178.22,18.51V43.86h5.12V26.46a8.08,8.08,0,0,1,6.71-3.63c3.78,0,6.37,2.39,6.37,7.16V41.43a2.3,2.3,0,0,0,2.38,2.43h2.74V29.1c0-6.56-4.18-11.14-10.24-11.14a11.44,11.44,0,0,0-8,3V18.51Z"/><path class="cls-2" d="M178.22,142V167.3h5.12V149.9a8.06,8.06,0,0,1,6.71-3.63c3.78,0,6.37,2.39,6.37,7.16v11.43a2.31,2.31,0,0,0,2.38,2.44h2.74V152.53c0-6.56-4.18-11.13-10.24-11.13a11.44,11.44,0,0,0-8,3V142Z"/><path class="cls-2" d="M19.26,105.12H44.61V100H27.21a8.06,8.06,0,0,1-3.63-6.71c0-3.78,2.39-6.37,7.16-6.37H42.17a2.31,2.31,0,0,0,2.44-2.38V81.8H29.85C23.28,81.8,18.71,86,18.71,92a11.42,11.42,0,0,0,3,8H19.26Z"/><path class="cls-2" d="M358.52,81.8H333.17v5.12h17.4a8.09,8.09,0,0,1,3.63,6.72c0,3.77-2.39,6.36-7.16,6.36H335.6a2.3,2.3,0,0,0-2.43,2.38v2.74h14.76c6.56,0,11.14-4.18,11.14-10.24a11.45,11.45,0,0,0-3-8h2.49Z"/><rect class="cls-1" x="44.93" y="44.16" width="288.12" height="97.24"/><path d="M77.14,93.28,95.24,69H87.68a8.37,8.37,0,0,0-7.36,3.58L70.78,85.42,61.53,72.6A8.36,8.36,0,0,0,54.18,69H46.62l17.9,24.26L44.93,119.72h7.16a8.34,8.34,0,0,0,7.35-3.58l11.34-15,26.55,36.69a8.24,8.24,0,0,0,7.35,3.58h7.76ZM222,119.72h10.24V69H222Zm-81.23,0H151V69H140.78Zm155.3,17.9L333.17,69H327.6c-3.38,0-6,1-7.36,3.58L305.63,99.74,293,72.6c-1.29-2.69-4-3.58-7.36-3.58h-5.37l19.49,41.36-17,31h5.57C291.81,141.4,294.59,140.3,296.08,137.62ZM163.25,69v50.7h10.24V84.92a16.12,16.12,0,0,1,13.42-7.25c7.56,0,12.73,4.77,12.73,14.31v22.87a4.62,4.62,0,0,0,4.77,4.87h5.47V90.19c0-13.12-8.35-22.27-20.48-22.27A22.82,22.82,0,0,0,173.49,74V69Zm88,32.71c0,11,6.76,18.89,18.89,18.89a25.93,25.93,0,0,0,7.46-1l-2.09-8.94a21.52,21.52,0,0,1-4.67.49c-5,0-9.35-2.68-9.35-9.64V78.16H275.8L271.62,69H261.48V48.63l-10.24,4.48V69H240.4v9.14h10.84Zm-142-23.57v41.56H119.5V78.16h13.12V69H119.5V65.24c0-8.65,5.17-11.54,10.24-11.54a12.16,12.16,0,0,1,3.48.5l2.09-9.05a18.13,18.13,0,0,0-6.37-1c-12.72,0-19.68,9.44-19.68,20.88v4h-5.37l-6.46,9.14Z"/><line class="cls-4" x1="44.93" y1="185.66" x2="44.93" y2="0.34"/><line class="cls-4" y1="44.16" x2="377.58" y2="44.16"/><line class="cls-4" x1="377.28" y1="141.4" x2="0.31" y2="141.4"/><line class="cls-4" x1="333.05" y1="186" x2="333.05"/><rect class="cls-3" x="359.04" y="17.96" width="149.17" height="149.34"/><path class="cls-2" d="M359.59,105.12h25.35V100h-17.4a8.07,8.07,0,0,1-3.62-6.71c0-3.78,2.38-6.37,7.15-6.37h11.44a2.3,2.3,0,0,0,2.43-2.38V81.8H370.18C363.62,81.8,359,86,359,92a11.43,11.43,0,0,0,3,8h-2.49Z"/><rect class="cls-1" x="385.26" y="44.16" width="96.06" height="97.24"/><line class="cls-4" x1="385.26" y1="185.66" x2="385.26" y2="0.34"/><line class="cls-5" x1="340.53" y1="44.16" x2="342.03" y2="44.16"/><line class="cls-6" x1="347.18" y1="44.16" x2="361.08" y2="44.16"/><line class="cls-7" x1="363.65" y1="44.16" x2="632.92" y2="44.16"/><line class="cls-5" x1="635.49" y1="44.16" x2="636.99" y2="44.16"/><line class="cls-5" x1="636.75" y1="141.4" x2="635.25" y2="141.4"/><line class="cls-8" x1="630.11" y1="141.4" x2="616.23" y2="141.4"/><line class="cls-9" x1="613.66" y1="141.4" x2="344.84" y2="141.4"/><line class="cls-5" x1="342.27" y1="141.4" x2="340.77" y2="141.4"/><line class="cls-10" x1="358.99" y1="44.25" x2="358.99" y2="141.35"/><circle class="cls-11" cx="433.24" cy="92.56" r="48.3"/><path class="cls-1" d="M404.74,74.11a7.94,7.94,0,0,1,2.58.36,3.89,3.89,0,0,1,1.64,1,3.79,3.79,0,0,1,.78,1.35A5.58,5.58,0,0,1,410,78.6a5.43,5.43,0,0,1-.31,1.91,3.85,3.85,0,0,1-.93,1.45,3.9,3.9,0,0,1-.69.52,4.55,4.55,0,0,1-.86.38,7.58,7.58,0,0,1-1.1.23,11.09,11.09,0,0,1-1.36.07h-3.07v5.78h-2.48V74.11Zm-3.07,7h3.26a3.75,3.75,0,0,0,1.14-.15,1.79,1.79,0,0,0,1.27-1.28,3.91,3.91,0,0,0,.15-1.13,3.24,3.24,0,0,0-.14-.94,2,2,0,0,0-1.21-1.28,3.23,3.23,0,0,0-1.21-.19h-3.26Z"/><path class="cls-1" d="M411.8,78.88a3.38,3.38,0,0,1,.65-.38,8.41,8.41,0,0,1,.95-.35,11,11,0,0,1,1.23-.26,9.44,9.44,0,0,1,1.45-.1,7.31,7.31,0,0,1,1.83.21,3.33,3.33,0,0,1,1.34.68,2.87,2.87,0,0,1,.84,1.21,5.23,5.23,0,0,1,.28,1.8v4.44a6.25,6.25,0,0,0,.2,1.77,6.07,6.07,0,0,0,.38,1h-2.37c-.07-.14-.15-.35-.25-.62a3.23,3.23,0,0,1-.19-1,4,4,0,0,1-3.5,1.85,4.67,4.67,0,0,1-1.39-.2,3,3,0,0,1-1.08-.61,2.72,2.72,0,0,1-.69-1,3.45,3.45,0,0,1-.25-1.37,3.37,3.37,0,0,1,.33-1.5,2.83,2.83,0,0,1,1.11-1.15,6.55,6.55,0,0,1,2.09-.76,17.73,17.73,0,0,1,3.25-.3v-.72a2,2,0,0,0-.46-1.46,2.14,2.14,0,0,0-1.55-.47,5.7,5.7,0,0,0-1.66.24,9.21,9.21,0,0,0-1.6.61ZM418,83.62a14.29,14.29,0,0,0-2.4.33,4.63,4.63,0,0,0-1.34.51,1.39,1.39,0,0,0-.58.65,1.79,1.79,0,0,0-.13.68A1.61,1.61,0,0,0,414,87a1.86,1.86,0,0,0,1.34.42,3.16,3.16,0,0,0,1.09-.18,2.33,2.33,0,0,0,.85-.51,2.21,2.21,0,0,0,.55-.79,2.77,2.77,0,0,0,.2-1Z"/><path class="cls-1" d="M425.51,78l.21,1.8a8.78,8.78,0,0,1,.54-.77,4.49,4.49,0,0,1,.61-.62,2.92,2.92,0,0,1,.7-.41,2.07,2.07,0,0,1,.8-.15,3.5,3.5,0,0,1,.54,0,2,2,0,0,1,.56.16l-.26,2.33a3.8,3.8,0,0,0-.65-.1l-.55,0a2.57,2.57,0,0,0-.85.13,1.77,1.77,0,0,0-.66.37,1.61,1.61,0,0,0-.43.62,2.25,2.25,0,0,0-.14.86v6.68H423.6V80l-.22-2Z"/><path class="cls-1" d="M434,75.11V78h2.49V79.8H434v6.27a1.35,1.35,0,0,0,.06.41,1,1,0,0,0,.15.34.82.82,0,0,0,.29.23,1.06,1.06,0,0,0,.43.08h1.64l-.16,1.76a2,2,0,0,1-.74.2c-.33,0-.73,0-1.23,0a3.35,3.35,0,0,1-1.24-.21,2.49,2.49,0,0,1-.86-.57,2.38,2.38,0,0,1-.5-.84,3.13,3.13,0,0,1-.16-1V79.8h-1.77V78h1.77l.26-2.91Z"/><path class="cls-1" d="M440.65,78l.22,1.74a4.7,4.7,0,0,1,.72-1,3.78,3.78,0,0,1,.78-.61,3.25,3.25,0,0,1,.84-.3,5.31,5.31,0,0,1,.91-.08,4.11,4.11,0,0,1,1.56.27,3.24,3.24,0,0,1,1.12.75,3.32,3.32,0,0,1,.76,1.29,6.42,6.42,0,0,1,.24,1.9v6.94h-2.34V81.69a2.55,2.55,0,0,0-.1-.72,1.45,1.45,0,0,0-.36-.65,1.56,1.56,0,0,0-.64-.42,2.62,2.62,0,0,0-1-.16,2.33,2.33,0,0,0-.93.17,2.18,2.18,0,0,0-.74.47,2.2,2.2,0,0,0-.49.71A2.39,2.39,0,0,0,441,82v7H438.7V80l-.21-2Z"/><path class="cls-1" d="M452.63,84a5.46,5.46,0,0,0,.2,1.22,3.16,3.16,0,0,0,.51,1.06,2.42,2.42,0,0,0,.92.75,3.07,3.07,0,0,0,1.41.29,5.3,5.3,0,0,0,1.77-.29,7.58,7.58,0,0,0,1.56-.78l.72,1.66a7.34,7.34,0,0,1-1.81.92,6.84,6.84,0,0,1-2.26.34,6.52,6.52,0,0,1-2.42-.41,4.67,4.67,0,0,1-1.69-1.16,4.8,4.8,0,0,1-1-1.74,7.25,7.25,0,0,1-.31-2.17,7.62,7.62,0,0,1,.35-2.35,5.72,5.72,0,0,1,1-1.87,4.68,4.68,0,0,1,1.62-1.23,4.89,4.89,0,0,1,2.13-.45,4.83,4.83,0,0,1,2,.37,3.82,3.82,0,0,1,1.43,1,4.34,4.34,0,0,1,.88,1.54,5.8,5.8,0,0,1,.31,1.94c0,.12,0,.3,0,.52s0,.5-.06.82Zm2.72-4.45a2.36,2.36,0,0,0-1.79.76,3.83,3.83,0,0,0-.89,2.15h5a4.25,4.25,0,0,0-.15-1.17,2.55,2.55,0,0,0-.45-.92,2,2,0,0,0-.74-.6A2.15,2.15,0,0,0,455.35,79.55Z"/><path class="cls-1" d="M464.59,78l.22,1.8a8.78,8.78,0,0,1,.54-.77,4,4,0,0,1,.61-.62,3.06,3.06,0,0,1,.69-.41,2.15,2.15,0,0,1,.8-.15,3.62,3.62,0,0,1,.55,0,2.12,2.12,0,0,1,.56.16l-.26,2.33a3.8,3.8,0,0,0-.65-.1l-.55,0a2.57,2.57,0,0,0-.85.13,1.77,1.77,0,0,0-.66.37,1.61,1.61,0,0,0-.43.62,2.24,2.24,0,0,0-.15.86v6.68h-2.32V80l-.22-2Z"/><path class="cls-1" d="M413.71,96.11v12.78h6.45v2h-8.93V96.11Z"/><path class="cls-1" d="M426.2,99.79a5.15,5.15,0,0,1,2.08.4,4.49,4.49,0,0,1,1.58,1.13,4.93,4.93,0,0,1,1,1.78,7.08,7.08,0,0,1,.36,2.33,7.48,7.48,0,0,1-.33,2.26,5.27,5.27,0,0,1-1,1.81,4.66,4.66,0,0,1-1.58,1.23,5.05,5.05,0,0,1-2.14.44,5.29,5.29,0,0,1-2.11-.4,4.52,4.52,0,0,1-1.6-1.16,5.24,5.24,0,0,1-1-1.81,7.33,7.33,0,0,1-.36-2.37,7.07,7.07,0,0,1,.35-2.25,5.57,5.57,0,0,1,1-1.79,4.73,4.73,0,0,1,1.6-1.18A5.21,5.21,0,0,1,426.2,99.79Zm0,1.95a2.44,2.44,0,0,0-1.27.29,2.19,2.19,0,0,0-.81.79,3.51,3.51,0,0,0-.42,1.18,8.09,8.09,0,0,0-.13,1.43,9,9,0,0,0,.11,1.38,3.75,3.75,0,0,0,.4,1.21,2.31,2.31,0,0,0,.81.86,2.38,2.38,0,0,0,1.31.33,2.5,2.5,0,0,0,1.28-.3,2.22,2.22,0,0,0,.8-.81,3.68,3.68,0,0,0,.42-1.21,8.54,8.54,0,0,0,.12-1.46,7.57,7.57,0,0,0-.11-1.36,3.63,3.63,0,0,0-.4-1.19,2.35,2.35,0,0,0-.8-.83A2.47,2.47,0,0,0,426.18,101.74Z"/><path class="cls-1" d="M443,100v10.89a5.7,5.7,0,0,1-.36,2.12,4,4,0,0,1-1,1.5,4.16,4.16,0,0,1-1.56.9,6.91,6.91,0,0,1-2,.29,9.27,9.27,0,0,1-2-.21,8,8,0,0,1-1.67-.56l.33-1.87a7.33,7.33,0,0,0,1.44.55,7,7,0,0,0,1.86.23,3.7,3.7,0,0,0,1.16-.16,2,2,0,0,0,.86-.5,2.32,2.32,0,0,0,.51-.93,4.81,4.81,0,0,0,.18-1.42v-1.3a3.52,3.52,0,0,1-3.07,1.55,4.27,4.27,0,0,1-1.49-.24,3.73,3.73,0,0,1-1.13-.66,4.07,4.07,0,0,1-.82-1,5.93,5.93,0,0,1-.54-1.2,7.91,7.91,0,0,1-.29-1.3,8.35,8.35,0,0,1-.1-1.31,8.63,8.63,0,0,1,.26-2.13,5.54,5.54,0,0,1,.81-1.79,4.11,4.11,0,0,1,1.41-1.24,4.22,4.22,0,0,1,2.05-.46,4.07,4.07,0,0,1,.95.1,3.07,3.07,0,0,1,1.48.84,7.49,7.49,0,0,1,.65.77L441,100Zm-2.34,4a2.24,2.24,0,0,0-.15-.78,2,2,0,0,0-.44-.73,2.26,2.26,0,0,0-.78-.54,2.75,2.75,0,0,0-1.13-.21,2.25,2.25,0,0,0-1.3.33,2.15,2.15,0,0,0-.75.86,3.67,3.67,0,0,0-.34,1.19,9.5,9.5,0,0,0-.09,1.31,10.43,10.43,0,0,0,.09,1.38,4,4,0,0,0,.35,1.21,2.19,2.19,0,0,0,.76.86,2.33,2.33,0,0,0,1.31.33,2.91,2.91,0,0,0,1.12-.2,2.25,2.25,0,0,0,.76-.53,2,2,0,0,0,.44-.72,2.15,2.15,0,0,0,.15-.77Z"/><path class="cls-1" d="M450.67,99.79a5.1,5.1,0,0,1,2.07.4,4.53,4.53,0,0,1,1.59,1.13,5.24,5.24,0,0,1,1,1.78,7.64,7.64,0,0,1,.36,2.33,7.48,7.48,0,0,1-.33,2.26,5.27,5.27,0,0,1-1,1.81,4.6,4.6,0,0,1-1.59,1.23,5,5,0,0,1-2.13.44,5.29,5.29,0,0,1-2.11-.4,4.43,4.43,0,0,1-1.6-1.16,5.24,5.24,0,0,1-1-1.81,7.33,7.33,0,0,1-.36-2.37,7.07,7.07,0,0,1,.35-2.25,5.39,5.39,0,0,1,1-1.79,4.59,4.59,0,0,1,1.59-1.18A5.25,5.25,0,0,1,450.67,99.79Zm0,1.95a2.41,2.41,0,0,0-1.27.29,2.19,2.19,0,0,0-.81.79,3.75,3.75,0,0,0-.43,1.18,8.11,8.11,0,0,0-.12,1.43,9,9,0,0,0,.11,1.38,3.52,3.52,0,0,0,.4,1.21,2.21,2.21,0,0,0,.8.86,2.82,2.82,0,0,0,2.59,0,2.25,2.25,0,0,0,.81-.81,3.68,3.68,0,0,0,.42-1.21,8.7,8.7,0,0,0,0-2.82,3.64,3.64,0,0,0-.41-1.19,2.27,2.27,0,0,0-.8-.83A2.41,2.41,0,0,0,450.65,101.74Z"/><path class="cls-2" d="M507.47,81.8H482.12v5.12h17.4a8.06,8.06,0,0,1,3.63,6.72c0,3.77-2.39,6.36-7.16,6.36H484.56a2.31,2.31,0,0,0-2.44,2.38v2.74h14.77c6.56,0,11.13-4.18,11.13-10.24a11.44,11.44,0,0,0-3-8h2.48Z"/><line class="cls-4" x1="482.01" y1="186" x2="482.01"/></g></svg>