<svg xmlns="http://www.w3.org/2000/svg" viewBox="0 0 520 186"><defs><style>.cls-1{fill:#fff;}.cls-2{fill:#e2f3f5;}.cls-3{fill:#00d6ca;}.cls-4{fill:#231f20;}.cls-5{fill:none;stroke:#5a5a5c;stroke-miterlimit:10;stroke-dasharray:3 5 3 5 3 5;}</style></defs><title>BrandHub-VectorGraphics</title><g id="Vector"><rect class="cls-1" y="0.33" width="520" height="186"/><rect class="cls-2" x="169.21" y="18.5" width="340.36" height="149.34"/><rect class="cls-2" x="25.77" y="18.5" width="169.13" height="149.34"/><rect class="cls-1" x="51.67" y="44.7" width="130.54" height="97.24"/><path class="cls-3" d="M328.72,19.05V44.4h5.12V27a8.06,8.06,0,0,1,6.71-3.63c3.78,0,6.37,2.39,6.37,7.16V42a2.31,2.31,0,0,0,2.38,2.44H352V29.63c0-6.56-4.18-11.13-10.24-11.13a11.44,11.44,0,0,0-8,3V19.05Z"/><path class="cls-3" d="M112.39,19.05V44.4h5.12V27a8.06,8.06,0,0,1,6.71-3.63c3.78,0,6.36,2.39,6.36,7.16V42A2.31,2.31,0,0,0,133,44.4h2.73V29.63c0-6.56-4.17-11.13-10.24-11.13a11.41,11.41,0,0,0-7.95,3V19.05Z"/><path class="cls-3" d="M112.39,142.23v25.35h5.12v-17.4a8.06,8.06,0,0,1,6.71-3.63c3.78,0,6.36,2.39,6.36,7.16v11.44a2.31,2.31,0,0,0,2.39,2.43h2.73V152.82c0-6.57-4.17-11.14-10.24-11.14a11.41,11.41,0,0,0-7.95,3v-2.48Z"/><path class="cls-3" d="M328.72,142.48v25.36h5.12v-17.4a8.06,8.06,0,0,1,6.71-3.63c3.78,0,6.37,2.38,6.37,7.16V165.4a2.31,2.31,0,0,0,2.38,2.44H352V153.07c0-6.56-4.18-11.13-10.24-11.13a11.44,11.44,0,0,0-8,3v-2.49Z"/><path class="cls-3" d="M26.32,68.32H51.67V63.2H34.27a8.07,8.07,0,0,1-3.62-6.71c0-3.78,2.38-6.36,7.15-6.36H49.24a2.31,2.31,0,0,0,2.43-2.39V45H36.91c-6.56,0-11.14,4.17-11.14,10.24a11.42,11.42,0,0,0,3,8H26.32Z"/><path class="cls-3" d="M509,82.34H483.67v5.12h17.4a8.08,8.08,0,0,1,3.63,6.71c0,3.78-2.39,6.37-7.16,6.37H486.1a2.3,2.3,0,0,0-2.43,2.38v2.74h14.76c6.56,0,11.14-4.18,11.14-10.24a11.43,11.43,0,0,0-3-8H509Z"/><rect class="cls-1" x="195.43" y="44.7" width="288.12" height="97.24"/><path d="M227.64,93.81l18.1-24.26h-7.56a8.4,8.4,0,0,0-7.36,3.58L221.28,86,212,73.13a8.38,8.38,0,0,0-7.35-3.58h-7.56L215,93.81l-19.59,26.45h7.16a8.34,8.34,0,0,0,7.35-3.58l11.34-15,26.55,36.69a8.26,8.26,0,0,0,7.35,3.58h7.76Zm144.87,26.45h10.24V69.55H372.51Zm-81.23,0h10.24V69.55H291.28Zm155.3,17.9,37.09-68.61H478.1c-3.38,0-6,1-7.36,3.58l-14.61,27.15L443.5,73.13c-1.29-2.68-4-3.58-7.36-3.58h-5.37l19.49,41.36-17,31h5.57C442.31,141.94,445.09,140.84,446.58,138.16ZM313.75,69.55v50.71H324V85.46a16.13,16.13,0,0,1,13.42-7.26c7.56,0,12.73,4.78,12.73,14.32v22.87a4.62,4.62,0,0,0,4.77,4.87h5.47V90.73c0-13.12-8.35-22.27-20.48-22.27A22.86,22.86,0,0,0,324,74.52v-5Zm88,32.71c0,11,6.76,18.9,18.89,18.9a25.93,25.93,0,0,0,7.46-1l-2.09-9a20.87,20.87,0,0,1-4.67.5c-5,0-9.35-2.68-9.35-9.64V78.7H426.3l-4.18-9.15H412V49.17l-10.24,4.47V69.55H390.9V78.7h10.84Zm-142-23.56v41.56H270V78.7h13.12V69.55H270V65.77c0-8.65,5.17-11.53,10.24-11.53a12.16,12.16,0,0,1,3.48.5l2.09-9.05a17.9,17.9,0,0,0-6.37-1c-12.72,0-19.68,9.44-19.68,20.88v4h-5.37l-6.46,9.15Z"/><path class="cls-4" d="M58,84.14a8.34,8.34,0,0,1,2.7.37,4,4,0,0,1,1.72,1.1A3.82,3.82,0,0,1,63.27,87a6.06,6.06,0,0,1,.26,1.82,5.73,5.73,0,0,1-.33,2,4.17,4.17,0,0,1-1,1.52,4.23,4.23,0,0,1-.72.54,5.08,5.08,0,0,1-.91.39,6,6,0,0,1-1.14.24,10.43,10.43,0,0,1-1.43.08H54.82v6h-2.6V84.14Zm-3.21,7.35h3.41a3.81,3.81,0,0,0,1.2-.17,2.08,2.08,0,0,0,.82-.47,2,2,0,0,0,.5-.86,4,4,0,0,0,.16-1.19,3.52,3.52,0,0,0-.14-1,2,2,0,0,0-.45-.8,2.23,2.23,0,0,0-.82-.55,3.58,3.58,0,0,0-1.27-.19H54.82Z"/><path class="cls-4" d="M67.91,88.23l.23,1.89a9.55,9.55,0,0,1,.57-.8,3.59,3.59,0,0,1,.64-.65,2.42,2.42,0,0,1,.72-.43,2.13,2.13,0,0,1,.84-.16,3.88,3.88,0,0,1,.57,0,2.36,2.36,0,0,1,.59.17l-.28,2.44a5.65,5.65,0,0,0-.68-.11l-.58,0a2.75,2.75,0,0,0-.88.14,2.08,2.08,0,0,0-.7.39,1.67,1.67,0,0,0-.44.65,2.23,2.23,0,0,0-.16.9v7H65.91V90.28l-.22-2Z"/><path class="cls-4" d="M75.36,94.5a6,6,0,0,0,.21,1.28,3.19,3.19,0,0,0,.54,1.11,2.63,2.63,0,0,0,1,.79,3.3,3.3,0,0,0,1.49.29,5.38,5.38,0,0,0,1.84-.3A8.4,8.4,0,0,0,82,96.86l.75,1.74a7.71,7.71,0,0,1-1.9,1,7.18,7.18,0,0,1-2.36.36A6.68,6.68,0,0,1,76,99.48a4.61,4.61,0,0,1-1.77-1.21,4.86,4.86,0,0,1-1-1.82,7.57,7.57,0,0,1-.34-2.28,7.74,7.74,0,0,1,.38-2.46,5.74,5.74,0,0,1,1.06-1.95A4.88,4.88,0,0,1,76,88.46,5.26,5.26,0,0,1,78.24,88a5.1,5.1,0,0,1,2.05.39,4.41,4.41,0,0,1,1.5,1.07,4.6,4.6,0,0,1,.92,1.62,6.31,6.31,0,0,1,.32,2c0,.13,0,.31,0,.54s0,.52-.07.86Zm2.85-4.66a2.47,2.47,0,0,0-1.88.8,4,4,0,0,0-.93,2.25h5.27a4.31,4.31,0,0,0-.16-1.23,2.78,2.78,0,0,0-.47-1,2.14,2.14,0,0,0-.77-.63A2.36,2.36,0,0,0,78.21,89.84Z"/><path class="cls-4" d="M92.76,90.56A13.31,13.31,0,0,0,91.22,90a6.17,6.17,0,0,0-1.67-.22,3.38,3.38,0,0,0-.72.07,2,2,0,0,0-.6.22,1.08,1.08,0,0,0-.57,1,1.27,1.27,0,0,0,.18.69,1.67,1.67,0,0,0,.54.47,3.57,3.57,0,0,0,.83.36c.32.11.69.22,1.1.33a9.39,9.39,0,0,1,1.16.4,4,4,0,0,1,1.07.64,3,3,0,0,1,1.1,2.39A3.33,3.33,0,0,1,93.26,98a3.37,3.37,0,0,1-1,1.14,4.75,4.75,0,0,1-1.53.68,7.48,7.48,0,0,1-1.87.23,8.17,8.17,0,0,1-1.11-.07,10.47,10.47,0,0,1-1-.17,7.53,7.53,0,0,1-.89-.24,4.27,4.27,0,0,1-.65-.27l.36-2a8.8,8.8,0,0,0,1.51.6,6.37,6.37,0,0,0,1.83.26,6,6,0,0,0,.84-.07,2.55,2.55,0,0,0,.75-.25,1.37,1.37,0,0,0,.53-.45,1.18,1.18,0,0,0,.21-.72A1.28,1.28,0,0,0,91,96a1.76,1.76,0,0,0-.56-.52,5.11,5.11,0,0,0-.87-.39L88.4,94.7a9.2,9.2,0,0,1-1.08-.42,3.82,3.82,0,0,1-1-.65,3.31,3.31,0,0,1-.76-1,2.81,2.81,0,0,1-.3-1.35,3.15,3.15,0,0,1,.33-1.47,3.06,3.06,0,0,1,.9-1.06,4.13,4.13,0,0,1,1.39-.63,7,7,0,0,1,1.76-.21,9.83,9.83,0,0,1,1.91.18,9.4,9.4,0,0,1,1.61.47Z"/><path class="cls-4" d="M98.07,94.5a6,6,0,0,0,.21,1.28,3,3,0,0,0,.54,1.11,2.63,2.63,0,0,0,1,.79,3.3,3.3,0,0,0,1.49.29,5.42,5.42,0,0,0,1.84-.3,8.4,8.4,0,0,0,1.65-.81l.75,1.74a7.71,7.71,0,0,1-1.9,1,7.2,7.2,0,0,1-2.37.36,6.75,6.75,0,0,1-2.54-.44,4.65,4.65,0,0,1-1.76-1.21,4.86,4.86,0,0,1-1-1.82,7.27,7.27,0,0,1-.34-2.28,8,8,0,0,1,.37-2.46A5.93,5.93,0,0,1,97,89.76a4.88,4.88,0,0,1,1.69-1.3,5.25,5.25,0,0,1,2.24-.47,5.11,5.11,0,0,1,2.06.39,4.28,4.28,0,0,1,1.49,1.07,4.47,4.47,0,0,1,.93,1.62,6.31,6.31,0,0,1,.32,2c0,.13,0,.31,0,.54s0,.52-.07.86Zm2.85-4.66a2.47,2.47,0,0,0-1.88.8,4,4,0,0,0-.93,2.25h5.27a4.31,4.31,0,0,0-.16-1.23,2.78,2.78,0,0,0-.47-1,2.23,2.23,0,0,0-.77-.63A2.36,2.36,0,0,0,100.92,89.84Z"/><path class="cls-4" d="M110.64,88.23l.23,1.83a5.19,5.19,0,0,1,.76-1,3.53,3.53,0,0,1,.82-.63,2.86,2.86,0,0,1,.87-.32,5,5,0,0,1,1-.09,4.27,4.27,0,0,1,1.63.29,3.36,3.36,0,0,1,1.18.79,3.24,3.24,0,0,1,.79,1.35,6.61,6.61,0,0,1,.25,2v7.26h-2.45V92.08a2.89,2.89,0,0,0-.1-.76,1.56,1.56,0,0,0-.38-.67,1.72,1.72,0,0,0-.67-.45,2.9,2.9,0,0,0-1-.16,2.57,2.57,0,0,0-1,.17,2.43,2.43,0,0,0-.78.5,2.57,2.57,0,0,0-.51.74,2.42,2.42,0,0,0-.18.94v7.28H108.6V90.3l-.22-2.07Z"/><path class="cls-4" d="M124.22,85.19v3h2.6V90.1h-2.6v6.57a1.49,1.49,0,0,0,.06.43,1,1,0,0,0,.16.35.7.7,0,0,0,.3.24,1,1,0,0,0,.45.09h1.72l-.16,1.85a2.11,2.11,0,0,1-.79.2,11.08,11.08,0,0,1-1.28.06,3.65,3.65,0,0,1-1.3-.22,2.63,2.63,0,0,1-.9-.6,2.36,2.36,0,0,1-.52-.88,3.22,3.22,0,0,1-.18-1.08v-7h-1.84V88.23h1.84l.28-3Z"/><path class="cls-4" d="M130.94,94.5a6,6,0,0,0,.21,1.28,3.38,3.38,0,0,0,.54,1.11,2.63,2.63,0,0,0,.95.79,3.3,3.3,0,0,0,1.49.29,5.38,5.38,0,0,0,1.84-.3,8.4,8.4,0,0,0,1.65-.81l.75,1.74a7.71,7.71,0,0,1-1.9,1,7.18,7.18,0,0,1-2.36.36,6.68,6.68,0,0,1-2.54-.44,4.61,4.61,0,0,1-1.77-1.21,4.86,4.86,0,0,1-1-1.82,7.57,7.57,0,0,1-.34-2.28,7.74,7.74,0,0,1,.38-2.46,5.74,5.74,0,0,1,1.06-1.95,4.88,4.88,0,0,1,1.69-1.3,5.26,5.26,0,0,1,2.25-.47,5.1,5.1,0,0,1,2.05.39,4.41,4.41,0,0,1,1.5,1.07,4.6,4.6,0,0,1,.92,1.62,6.31,6.31,0,0,1,.32,2c0,.13,0,.31,0,.54s0,.52-.07.86Zm2.85-4.66a2.47,2.47,0,0,0-1.88.8,4,4,0,0,0-.93,2.25h5.27a4.31,4.31,0,0,0-.16-1.23,2.61,2.61,0,0,0-.47-1,2.14,2.14,0,0,0-.77-.63A2.33,2.33,0,0,0,133.79,89.84Z"/><path class="cls-4" d="M151,83.48V99.67h-2.05l-.22-1.61a6.24,6.24,0,0,1-.75.88,3.47,3.47,0,0,1-.8.57,3.15,3.15,0,0,1-.87.32,5.21,5.21,0,0,1-1,.09,4.49,4.49,0,0,1-1.57-.26,4,4,0,0,1-1.19-.7,4.26,4.26,0,0,1-.85-1,6,6,0,0,1-.56-1.26,7.77,7.77,0,0,1-.3-1.37,10.74,10.74,0,0,1-.09-1.37,9.21,9.21,0,0,1,.27-2.26,5.62,5.62,0,0,1,.84-1.89,4.24,4.24,0,0,1,1.46-1.3,4.42,4.42,0,0,1,2.12-.48,4.35,4.35,0,0,1,1,.11,3.08,3.08,0,0,1,.82.3,2.89,2.89,0,0,1,.69.53,4.69,4.69,0,0,1,.6.75v-6.2Zm-2.45,8.93a2.42,2.42,0,0,0-.15-.82,2.24,2.24,0,0,0-.47-.76,2.52,2.52,0,0,0-.8-.57,2.81,2.81,0,0,0-1.17-.22,2.42,2.42,0,0,0-1.37.34,2.36,2.36,0,0,0-.8.89,3.73,3.73,0,0,0-.36,1.24,10.81,10.81,0,0,0-.09,1.39,11.36,11.36,0,0,0,.09,1.44,3.84,3.84,0,0,0,.36,1.27,2.27,2.27,0,0,0,.8.91,2.42,2.42,0,0,0,1.37.35,2.81,2.81,0,0,0,1.17-.22,2.47,2.47,0,0,0,.8-.55,2.3,2.3,0,0,0,.47-.75,2.4,2.4,0,0,0,.15-.81Z"/><path class="cls-4" d="M162,83.48v6.29a5.3,5.3,0,0,1,.61-.77,3.27,3.27,0,0,1,.69-.55,2.84,2.84,0,0,1,.82-.34,3.7,3.7,0,0,1,1-.12,4.36,4.36,0,0,1,2.11.48,4.27,4.27,0,0,1,1.47,1.3,5.62,5.62,0,0,1,.84,1.89,9.21,9.21,0,0,1,.27,2.26,10.74,10.74,0,0,1-.09,1.37,7.78,7.78,0,0,1-.31,1.37,5.47,5.47,0,0,1-.55,1.26,4.26,4.26,0,0,1-.85,1,4,4,0,0,1-1.2.7,4.4,4.4,0,0,1-1.56.26,5.21,5.21,0,0,1-1-.09,3.69,3.69,0,0,1-.87-.28,3.32,3.32,0,0,1-.8-.54,5.31,5.31,0,0,1-.74-.85l-.23,1.51h-2V83.48Zm0,12.06a2.4,2.4,0,0,0,.15.81,2.3,2.3,0,0,0,.47.75,2.63,2.63,0,0,0,.81.55,2.81,2.81,0,0,0,1.17.22,2.42,2.42,0,0,0,1.37-.35,2.27,2.27,0,0,0,.8-.91,3.84,3.84,0,0,0,.36-1.27,11.36,11.36,0,0,0,.09-1.44,10.81,10.81,0,0,0-.09-1.39,3.73,3.73,0,0,0-.36-1.24,2.36,2.36,0,0,0-.8-.89,2.42,2.42,0,0,0-1.37-.34,2.81,2.81,0,0,0-1.17.22,2.68,2.68,0,0,0-.81.57,2.24,2.24,0,0,0-.47.76,2.42,2.42,0,0,0-.15.82Z"/><path class="cls-4" d="M173.43,88.23,176,95.69l.29,1.1h.1l.29-1.1L179,88.23h2.55l-4.63,12.85a11.62,11.62,0,0,1-.54,1.31,5.12,5.12,0,0,1-.72,1.12,3.31,3.31,0,0,1-1,.77,2.67,2.67,0,0,1-1.29.3,4.93,4.93,0,0,1-.71,0,1.23,1.23,0,0,1-.48-.15l-.17-1.79a9.41,9.41,0,0,0,1,0,2.1,2.1,0,0,0,.69-.18,1.27,1.27,0,0,0,.45-.38,2.53,2.53,0,0,0,.34-.66l.54-1.49-4.28-11.61Z"/><path class="cls-3" d="M182.43,99.9h12.68V97.34h-8.7A4,4,0,0,1,184.6,94c0-1.89,1.19-3.18,3.58-3.18h5.71a1.16,1.16,0,0,0,1.22-1.19V88.24h-7.38c-3.28,0-5.57,2.09-5.57,5.12a5.69,5.69,0,0,0,1.52,4h-1.25Z"/><path class="cls-3" d="M7.55,87.87v12.68h2.56v-8.7A4,4,0,0,1,13.47,90c1.89,0,3.18,1.19,3.18,3.58v5.72a1.16,1.16,0,0,0,1.19,1.22h1.37V93.16c0-3.28-2.09-5.57-5.12-5.57a5.74,5.74,0,0,0-4,1.52V87.87Z"/><line class="cls-5" x1="182.24" y1="88.19" x2="0.5" y2="88.19"/><line class="cls-5" x1="182.24" y1="99.94" x2="0.5" y2="99.94"/></g></svg>