<svg id="Vector" xmlns="http://www.w3.org/2000/svg" viewBox="0 0 520 210"><defs><style>.cls-1{fill:#fff;}.cls-2{fill:#fe5c5c;}.cls-3{fill:none;stroke:#fff;stroke-miterlimit:10;stroke-width:3px;}.cls-4{fill:#5a5a5c;}</style></defs><title>BrandHub-VectorGraphics</title><rect class="cls-1" x="-0.33" y="38.86" width="520" height="170.38"/><circle class="cls-2" cx="259.83" cy="30.5" r="28.5"/><line class="cls-3" x1="270.17" y1="20.17" x2="249.5" y2="40.83"/><line class="cls-3" x1="249.5" y1="20.17" x2="270.17" y2="40.83"/><path d="M53,123.84l13.84-18.56H61.1A6.4,6.4,0,0,0,55.47,108l-7.3,9.81L41.09,108a6.38,6.38,0,0,0-5.62-2.74H29.69l13.69,18.56-15,20.23h5.48a6.4,6.4,0,0,0,5.63-2.74l8.67-11.48,20.31,28.06a6.3,6.3,0,0,0,5.62,2.74H80Zm110.81,20.23h7.84V105.28h-7.84Zm-62.14,0h7.84V105.28h-7.84Zm118.81,13.69,28.37-52.48h-4.26c-2.59,0-4.57.76-5.63,2.74l-11.18,20.76L218.16,108c-1-2.06-3-2.74-5.63-2.74h-4.11l14.91,31.64-13,23.73h4.26C217.25,160.65,219.38,159.81,220.52,157.76ZM118.9,105.28v38.79h7.84V117.45A12.33,12.33,0,0,1,137,111.9c5.78,0,9.74,3.65,9.74,10.95v17.49a3.53,3.53,0,0,0,3.65,3.73h4.18V121.48c0-10-6.39-17-15.66-17a17.45,17.45,0,0,0-12.17,4.64v-3.8Zm67.31,25c0,8.45,5.18,14.45,14.45,14.45a19.78,19.78,0,0,0,5.71-.76l-1.6-6.84a15.94,15.94,0,0,1-3.57.38c-3.81,0-7.15-2.06-7.15-7.38V112.28H205l-3.19-7h-7.76V89.69l-7.84,3.42v12.17h-8.29v7h8.29Zm-108.61-18v31.79h7.84V112.28h10v-7h-10v-2.89c0-6.62,4-8.82,7.83-8.82a9.27,9.27,0,0,1,2.66.38L97.53,87a13.68,13.68,0,0,0-4.87-.77c-9.73,0-15.06,7.23-15.06,16v3H73.5l-5,7Z"/><rect class="cls-4" x="298.73" y="94.26" width="165" height="58.03"/><path class="cls-1" d="M326.72,116.56a7.9,7.9,0,0,1,2.58.36,3.75,3.75,0,0,1,1.65,1,3.61,3.61,0,0,1,.77,1.35,5.58,5.58,0,0,1,.25,1.74,5.43,5.43,0,0,1-.31,1.91,3.93,3.93,0,0,1-.93,1.45,3.5,3.5,0,0,1-.68.52,4.3,4.3,0,0,1-.87.37,5.66,5.66,0,0,1-1.09.23,11.24,11.24,0,0,1-1.37.08h-3.06v5.77h-2.48V116.56Zm-3.06,7h3.26a3.84,3.84,0,0,0,1.14-.15,2.43,2.43,0,0,0,.79-.45,2,2,0,0,0,.47-.83,3.91,3.91,0,0,0,.15-1.13,3.24,3.24,0,0,0-.13-.94,2,2,0,0,0-.43-.77,2.08,2.08,0,0,0-.78-.51,3.27,3.27,0,0,0-1.21-.19h-3.26Z"/><path class="cls-1" d="M333.78,121.32a4,4,0,0,1,.65-.37,7.52,7.52,0,0,1,1-.35,10.77,10.77,0,0,1,1.22-.26,9.44,9.44,0,0,1,1.45-.1,7.19,7.19,0,0,1,1.83.21,3.43,3.43,0,0,1,1.35.67,3.08,3.08,0,0,1,.83,1.21,5.08,5.08,0,0,1,.28,1.8v4.44a6.67,6.67,0,0,0,.2,1.78,5.61,5.61,0,0,0,.38,1h-2.36a4.83,4.83,0,0,1-.26-.62,3.78,3.78,0,0,1-.19-1,3.94,3.94,0,0,1-1.42,1.36,4.16,4.16,0,0,1-2.08.5,4.36,4.36,0,0,1-1.39-.21,2.9,2.9,0,0,1-1.07-.61,2.66,2.66,0,0,1-.7-1,3.58,3.58,0,0,1-.25-1.36,3.37,3.37,0,0,1,.33-1.5,2.83,2.83,0,0,1,1.11-1.15,6.41,6.41,0,0,1,2.09-.76,17.73,17.73,0,0,1,3.25-.3V124a2,2,0,0,0-.46-1.47,2.17,2.17,0,0,0-1.55-.46,6.1,6.1,0,0,0-1.66.23,11.64,11.64,0,0,0-1.6.61Zm6.21,4.75a14.15,14.15,0,0,0-2.39.33,4.44,4.44,0,0,0-1.35.51,1.49,1.49,0,0,0-.58.64,1.87,1.87,0,0,0-.13.69,1.6,1.6,0,0,0,.43,1.19,1.83,1.83,0,0,0,1.33.42,3.21,3.21,0,0,0,1.1-.18,2.5,2.5,0,0,0,.85-.51,2.28,2.28,0,0,0,.55-.8,2.69,2.69,0,0,0,.19-1.05Z"/><path class="cls-1" d="M347.49,120.46l.21,1.81a6.27,6.27,0,0,1,.55-.77,3.59,3.59,0,0,1,.61-.62,2.42,2.42,0,0,1,.69-.41,2.07,2.07,0,0,1,.8-.15,3.31,3.31,0,0,1,1.11.2l-.27,2.34a5.19,5.19,0,0,0-.65-.11l-.55,0a2.57,2.57,0,0,0-.85.13,1.94,1.94,0,0,0-.66.37,1.7,1.7,0,0,0-.42.62,2.24,2.24,0,0,0-.15.86v6.67h-2.33v-9l-.22-2Z"/><path class="cls-1" d="M355.94,117.56v2.9h2.48v1.79h-2.48v6.27a1.36,1.36,0,0,0,.05.41.89.89,0,0,0,.16.34.71.71,0,0,0,.28.23,1.06,1.06,0,0,0,.43.08h1.64l-.15,1.76a2.12,2.12,0,0,1-.75.2c-.32,0-.73.05-1.22.05a3.32,3.32,0,0,1-1.24-.21,2.31,2.31,0,0,1-.86-.57,2.26,2.26,0,0,1-.51-.84,3.13,3.13,0,0,1-.16-1v-6.69h-1.77v-1.79h1.77l.27-2.9Z"/><path class="cls-1" d="M362.63,120.46l.22,1.75a4.38,4.38,0,0,1,.73-1,3.49,3.49,0,0,1,.77-.61,2.92,2.92,0,0,1,.84-.3,5.31,5.31,0,0,1,.91-.08,4.11,4.11,0,0,1,1.56.27,3.15,3.15,0,0,1,1.12.75,3.1,3.1,0,0,1,.76,1.29,6.42,6.42,0,0,1,.24,1.9v6.93h-2.34v-7.25a2.48,2.48,0,0,0-.1-.71,1.45,1.45,0,0,0-.36-.65,1.68,1.68,0,0,0-.64-.43,2.85,2.85,0,0,0-1-.15,2.33,2.33,0,0,0-.93.17,2.28,2.28,0,0,0-.74.47,2,2,0,0,0-.48.71,2.18,2.18,0,0,0-.18.89v6.95h-2.33v-8.94l-.21-2Z"/><path class="cls-1" d="M374.61,126.45a6.09,6.09,0,0,0,.2,1.22,3,3,0,0,0,.52,1.06,2.5,2.5,0,0,0,.91.75,3.11,3.11,0,0,0,1.41.28,5.26,5.26,0,0,0,1.77-.28,7.91,7.91,0,0,0,1.57-.78l.71,1.66a7.34,7.34,0,0,1-1.81.92,7.11,7.11,0,0,1-2.26.34,6.35,6.35,0,0,1-2.42-.42,4.41,4.41,0,0,1-1.68-1.15,4.66,4.66,0,0,1-1-1.74,7.27,7.27,0,0,1-.32-2.18,7.6,7.6,0,0,1,.35-2.34,5.72,5.72,0,0,1,1-1.87,4.81,4.81,0,0,1,1.62-1.24,5.05,5.05,0,0,1,2.14-.44,4.86,4.86,0,0,1,2,.37,4,4,0,0,1,1.43,1,4.49,4.49,0,0,1,.88,1.54,6.07,6.07,0,0,1,.3,1.94c0,.12,0,.29,0,.52s0,.49-.06.82Zm2.73-4.45a2.34,2.34,0,0,0-1.8.76,3.8,3.8,0,0,0-.89,2.15h5a4.38,4.38,0,0,0-.15-1.18,2.59,2.59,0,0,0-.45-.91,2,2,0,0,0-.73-.6A2.18,2.18,0,0,0,377.34,122Z"/><path class="cls-1" d="M386.57,120.46l.22,1.81a7.5,7.5,0,0,1,.54-.77,4.49,4.49,0,0,1,.61-.62,2.62,2.62,0,0,1,.7-.41,2.07,2.07,0,0,1,.8-.15,2.59,2.59,0,0,1,.54.05,2.42,2.42,0,0,1,.56.15l-.26,2.34a5.19,5.19,0,0,0-.65-.11l-.55,0a2.57,2.57,0,0,0-.85.13,1.77,1.77,0,0,0-.66.37,1.61,1.61,0,0,0-.43.62,2.46,2.46,0,0,0-.14.86v6.67h-2.33v-9l-.22-2Z"/><path class="cls-1" d="M399.92,116.56v12.78h6.44v2h-8.93V116.56Z"/><path class="cls-1" d="M412.4,120.24a5.15,5.15,0,0,1,2.08.4,4.4,4.4,0,0,1,1.59,1.13,5.29,5.29,0,0,1,1,1.77,7.76,7.76,0,0,1,.36,2.34,7.42,7.42,0,0,1-.33,2.25,5.4,5.4,0,0,1-1,1.82,4.46,4.46,0,0,1-1.59,1.22,4.88,4.88,0,0,1-2.14.45,5.24,5.24,0,0,1-2.1-.41,4.4,4.4,0,0,1-1.6-1.15,5.24,5.24,0,0,1-1-1.81,7.37,7.37,0,0,1-.36-2.37,6.72,6.72,0,0,1,.35-2.25,5.13,5.13,0,0,1,1-1.79,4.59,4.59,0,0,1,1.59-1.18A5.21,5.21,0,0,1,412.4,120.24Zm0,2a2.46,2.46,0,0,0-1.27.29,2.24,2.24,0,0,0-.8.79,3.52,3.52,0,0,0-.43,1.18,8,8,0,0,0-.12,1.43,9,9,0,0,0,.11,1.38,3.52,3.52,0,0,0,.4,1.21,2.28,2.28,0,0,0,.8.86,2.38,2.38,0,0,0,1.31.33,2.47,2.47,0,0,0,1.28-.3,2.2,2.2,0,0,0,.81-.82,4,4,0,0,0,.42-1.2,8.54,8.54,0,0,0,.12-1.46,8.83,8.83,0,0,0-.11-1.37,3.58,3.58,0,0,0-.41-1.18,2.2,2.2,0,0,0-.8-.83A2.44,2.44,0,0,0,412.38,122.19Z"/><path class="cls-1" d="M429.15,120.46v10.9a6,6,0,0,1-.35,2.12,4.07,4.07,0,0,1-1,1.5,4.12,4.12,0,0,1-1.57.89,6.52,6.52,0,0,1-2,.3,9.42,9.42,0,0,1-2.05-.21,7.43,7.43,0,0,1-1.67-.57l.33-1.86a7.68,7.68,0,0,0,1.45.55,6.93,6.93,0,0,0,1.85.23,4.14,4.14,0,0,0,1.17-.16,1.89,1.89,0,0,0,.85-.51,2.22,2.22,0,0,0,.52-.92,5.26,5.26,0,0,0,.17-1.42V130a3.52,3.52,0,0,1-3.06,1.55,4.23,4.23,0,0,1-1.49-.24,3.62,3.62,0,0,1-1.13-.66,4.11,4.11,0,0,1-.83-1,5.61,5.61,0,0,1-.53-1.2,7.21,7.21,0,0,1-.3-1.3,9.72,9.72,0,0,1-.09-1.31,8.31,8.31,0,0,1,.26-2.14,5.32,5.32,0,0,1,.81-1.79,4.06,4.06,0,0,1,1.4-1.23,4.25,4.25,0,0,1,2-.46,4,4,0,0,1,1,.1,3.09,3.09,0,0,1,.8.31,2.79,2.79,0,0,1,.68.53,7.52,7.52,0,0,1,.66.77l.2-1.49Zm-2.34,4a2.47,2.47,0,0,0-.14-.78,2.26,2.26,0,0,0-.45-.74,2.45,2.45,0,0,0-.77-.53,2.83,2.83,0,0,0-1.14-.21,2.08,2.08,0,0,0-2.05,1.19,3.68,3.68,0,0,0-.34,1.18,11.69,11.69,0,0,0-.08,1.32,12.48,12.48,0,0,0,.08,1.38,3.72,3.72,0,0,0,.36,1.21,2.18,2.18,0,0,0,.76.86,2.3,2.3,0,0,0,1.3.33,2.88,2.88,0,0,0,1.12-.2,2.14,2.14,0,0,0,1.21-1.25,2.37,2.37,0,0,0,.14-.77Z"/><path class="cls-1" d="M436.87,120.24a5.15,5.15,0,0,1,2.08.4,4.37,4.37,0,0,1,1.58,1.13,5.12,5.12,0,0,1,1,1.77,7.18,7.18,0,0,1,.36,2.34,7.42,7.42,0,0,1-.33,2.25,5.23,5.23,0,0,1-1,1.82,4.51,4.51,0,0,1-1.58,1.22,4.91,4.91,0,0,1-2.14.45,5.29,5.29,0,0,1-2.11-.41,4.49,4.49,0,0,1-1.6-1.15,5.24,5.24,0,0,1-1-1.81,7.37,7.37,0,0,1-.36-2.37,7,7,0,0,1,.35-2.25,5.47,5.47,0,0,1,1-1.79,4.73,4.73,0,0,1,1.6-1.18A5.21,5.21,0,0,1,436.87,120.24Zm0,2a2.44,2.44,0,0,0-1.27.29,2.19,2.19,0,0,0-.81.79,3.51,3.51,0,0,0-.42,1.18,8,8,0,0,0-.13,1.43,9,9,0,0,0,.11,1.38,3.75,3.75,0,0,0,.4,1.21,2.26,2.26,0,0,0,2.12,1.19,2.5,2.5,0,0,0,1.28-.3,2.25,2.25,0,0,0,.8-.82,3.55,3.55,0,0,0,.42-1.2,8.54,8.54,0,0,0,.12-1.46,7.76,7.76,0,0,0-.11-1.37,3.57,3.57,0,0,0-.4-1.18,2.27,2.27,0,0,0-.8-.83A2.47,2.47,0,0,0,436.85,122.19Z"/></svg>