<svg id="Vector" xmlns="http://www.w3.org/2000/svg" viewBox="0 0 520 210"><defs><style>.cls-1{fill:#fff;}.cls-2{fill:#fe5c5c;}.cls-3,.cls-4{fill:none;stroke-miterlimit:10;}.cls-3{stroke:#fff;stroke-width:3px;}.cls-4{stroke:#000;stroke-width:2px;}.cls-5{fill:#5a5a5c;}</style></defs><title>BrandHub-VectorGraphics</title><rect class="cls-1" x="-0.33" y="38.86" width="520" height="170.38"/><circle class="cls-2" cx="259.83" cy="30.5" r="28.5"/><line class="cls-3" x1="270.17" y1="20.17" x2="249.5" y2="40.83"/><line class="cls-3" x1="249.5" y1="20.17" x2="270.17" y2="40.83"/><path d="M53,112.5,66.88,94H61.1a6.41,6.41,0,0,0-5.63,2.73l-7.3,9.82-7.08-9.82A6.4,6.4,0,0,0,35.47,94H29.69L43.38,112.5l-15,20.24h5.48A6.42,6.42,0,0,0,39.5,130l8.67-11.49,20.31,28.07a6.32,6.32,0,0,0,5.62,2.74H80Zm110.81,20.24h7.84V94h-7.84Zm-62.14,0h7.84V94h-7.84Zm118.81,13.69L248.89,94h-4.26c-2.59,0-4.57.76-5.63,2.73l-11.18,20.77-9.66-20.77c-1-2.05-3-2.73-5.63-2.73h-4.11l14.91,31.64-13,23.73h4.26C217.25,149.32,219.38,148.48,220.52,146.43ZM118.9,94v38.79h7.84V106.12A12.31,12.31,0,0,1,137,100.56c5.78,0,9.74,3.65,9.74,11V129a3.54,3.54,0,0,0,3.65,3.73h4.18V110.15c0-10-6.39-17-15.66-17a17.45,17.45,0,0,0-12.17,4.64V94Zm67.31,25c0,8.44,5.18,14.45,14.45,14.45a19.78,19.78,0,0,0,5.71-.76l-1.6-6.85a15.94,15.94,0,0,1-3.57.38c-3.81,0-7.15-2-7.15-7.37V100.94H205l-3.19-7h-7.76V78.35l-7.84,3.43V94h-8.29v7h8.29Zm-108.61-18v31.8h7.84v-31.8h10V94h-10V91.06c0-6.62,4-8.83,7.83-8.83a9.63,9.63,0,0,1,2.66.38l1.6-6.92a13.73,13.73,0,0,0-4.87-.76c-9.73,0-15.06,7.23-15.06,16v3H73.5l-5,7Z"/><path d="M48.26,173.75a4.89,4.89,0,0,1-1.38.19,3.18,3.18,0,0,1-2.5-1,3.38,3.38,0,0,1-.71-2.34v-4H41.42v-1.59h2.25V162.5h1.78v2.44h2.81v1.59H45.45v4.12a1.75,1.75,0,0,0,.26,1.13,1.65,1.65,0,0,0,1.22.47,4.75,4.75,0,0,0,1-.11Z"/><path d="M52,165.7a4,4,0,0,1,2.59-.95,4.09,4.09,0,0,1,3.21,1.55,4.75,4.75,0,0,1,.86,3.14v4.31H56.89v-4.41a3,3,0,0,0-.53-2,2.29,2.29,0,0,0-1.82-.86A3.26,3.26,0,0,0,52,167.69v6.06H50.23V160.44H52Z"/><path d="M62.17,169.72A2.85,2.85,0,0,0,65,172.38a3.16,3.16,0,0,0,2.53-1.2l1.17,1.11A4.64,4.64,0,0,1,65,173.94a4.48,4.48,0,0,1-4.56-4.6,4.28,4.28,0,1,1,8.53,0,3.07,3.07,0,0,1,0,.38Zm.15-1.5h4.8a2.46,2.46,0,0,0-2.32-1.92A2.57,2.57,0,0,0,62.32,168.22Z"/><path d="M80.6,162a2.73,2.73,0,0,0-.65-.07,1.71,1.71,0,0,0-1.35.62,2.43,2.43,0,0,0-.34,1.57v.81H81v1.59H78.26v7.22H76.48v-7.22H74.42v-1.59h2.06v-.75a4.17,4.17,0,0,1,.56-2.48,3.45,3.45,0,0,1,2.89-1.46,4.42,4.42,0,0,1,1,.13Z"/><path d="M82.91,172.45a4.46,4.46,0,0,1-.81-3v-4.5h1.78v4.78a2.5,2.5,0,0,0,.51,1.76,2.24,2.24,0,0,0,1.71.77A3.35,3.35,0,0,0,88.57,171v-6.05h1.78v8.81H88.63v-.81a4,4,0,0,1-5.72-.49Z"/><path d="M98.51,173.75a5,5,0,0,1-1.39.19,3.16,3.16,0,0,1-2.49-1,3.34,3.34,0,0,1-.72-2.34v-4H91.66v-1.59h2.25V162.5H95.7v2.44h2.81v1.59H95.7v4.12a1.69,1.69,0,0,0,.26,1.13,1.63,1.63,0,0,0,1.22.47,4.58,4.58,0,0,0,1-.11Z"/><path d="M101.1,172.45a4.41,4.41,0,0,1-.81-3v-4.5h1.78v4.78a2.5,2.5,0,0,0,.51,1.76,2.24,2.24,0,0,0,1.7.77,3.37,3.37,0,0,0,2.48-1.26v-6.05h1.78v8.81h-1.73v-.81a3.94,3.94,0,0,1-2.58,1A4,4,0,0,1,101.1,172.45Z"/><path d="M116.11,166.51a2.36,2.36,0,0,0-.69-.07,2.94,2.94,0,0,0-2.38,1.48v5.83h-1.78v-8.81H113v1a3.22,3.22,0,0,1,2.64-1.2,4.32,4.32,0,0,1,.7.06Z"/><path d="M118.61,169.72a2.83,2.83,0,0,0,2.85,2.66,3.19,3.19,0,0,0,2.53-1.2l1.16,1.11a4.63,4.63,0,0,1-3.71,1.65,4.48,4.48,0,0,1-4.56-4.6,4.28,4.28,0,1,1,8.53,0,3.07,3.07,0,0,1,0,.38Zm.15-1.5h4.8a2.48,2.48,0,0,0-2.33-1.92A2.56,2.56,0,0,0,118.76,168.22Z"/><path d="M135.78,164.75a4.6,4.6,0,1,1-4.56,4.59A4.46,4.46,0,0,1,135.78,164.75Zm0,7.5a2.91,2.91,0,1,0-2.78-2.91A2.78,2.78,0,0,0,135.78,172.25Z"/><path d="M147.27,162a2.73,2.73,0,0,0-.65-.07,1.71,1.71,0,0,0-1.35.62,2.43,2.43,0,0,0-.34,1.57v.81h2.72v1.59h-2.72v7.22h-1.78v-7.22h-2.06v-1.59h2.06v-.75a4.17,4.17,0,0,1,.56-2.48,3.45,3.45,0,0,1,2.89-1.46,4.42,4.42,0,0,1,1.05.13Z"/><path d="M160.17,172.94a4,4,0,0,1-2.72,1,4.47,4.47,0,0,1-2.21-.59,4.6,4.6,0,0,1-2.25-4,4.66,4.66,0,0,1,2.27-4,4.24,4.24,0,0,1,2.15-.56,4.15,4.15,0,0,1,2.76,1v-.8h1.72v8.81h-1.72Zm-.06-5.25a3.16,3.16,0,0,0-2.51-1.25,2.82,2.82,0,0,0-2.83,2.9,2.88,2.88,0,0,0,2.93,2.91,3,3,0,0,0,2.41-1.26Z"/><path d="M171.12,164.94l2.42,6,2.42-6h1.83l-3.58,8.81H173l-2.48-6.19L168,173.75h-1.24l-3.58-8.81H165l2.42,6,2.42-6Z"/><path d="M180,169.72a2.83,2.83,0,0,0,2.85,2.66,3.19,3.19,0,0,0,2.53-1.2l1.16,1.11a4.63,4.63,0,0,1-3.71,1.65,4.48,4.48,0,0,1-4.56-4.6,4.28,4.28,0,1,1,8.53,0,3.07,3.07,0,0,1,0,.38Zm.15-1.5h4.8a2.48,2.48,0,0,0-2.33-1.92A2.56,2.56,0,0,0,180.14,168.22Z"/><path d="M188.84,171.4a4.26,4.26,0,0,0,2.6,1c.77,0,1.54-.41,1.54-1.11,0-1-1.46-1.07-2.76-1.5a2.47,2.47,0,0,1-2-2.27c0-1.89,1.69-2.75,3.26-2.75a4.53,4.53,0,0,1,2.93,1l-.92,1.28a3.16,3.16,0,0,0-1.9-.7c-.86,0-1.59.42-1.59,1.11s.69.81,1.57,1c1.39.36,3.21,1,3.21,2.8,0,1.66-1.56,2.7-3.28,2.7a5.52,5.52,0,0,1-3.56-1.22Z"/><path d="M200.63,164.75a4.6,4.6,0,1,1-4.56,4.59A4.46,4.46,0,0,1,200.63,164.75Zm0,7.5a2.91,2.91,0,1,0-2.78-2.91A2.78,2.78,0,0,0,200.63,172.25Z"/><path d="M208.88,164.94v.84a3.85,3.85,0,0,1,2.59-1,4,4,0,0,1,3.11,1.46,4.41,4.41,0,0,1,3.35-1.46,4,4,0,0,1,3.13,1.48,4.44,4.44,0,0,1,.81,3v4.5h-1.78V169a2.52,2.52,0,0,0-.51-1.77,2.17,2.17,0,0,0-1.65-.76,3.62,3.62,0,0,0-2.68,1.25,6.93,6.93,0,0,1,.15,1.56v4.5h-1.78V169a2.58,2.58,0,0,0-.5-1.77,2.3,2.3,0,0,0-1.71-.76,3.36,3.36,0,0,0-2.48,1.25v6.06h-1.78v-8.81Z"/><path d="M225.38,169.72a2.83,2.83,0,0,0,2.85,2.66,3.19,3.19,0,0,0,2.53-1.2l1.16,1.11a4.63,4.63,0,0,1-3.71,1.65,4.48,4.48,0,0,1-4.56-4.6,4.28,4.28,0,1,1,8.53,0,3.07,3.07,0,0,1,0,.38Zm.15-1.5h4.8A2.48,2.48,0,0,0,228,166.3,2.56,2.56,0,0,0,225.53,168.22Z"/><line class="cls-4" x1="289.73" y1="78.26" x2="289.73" y2="165.16"/><rect class="cls-5" x="324.73" y="94.26" width="165" height="58.03"/><path class="cls-1" d="M352.72,116.56a7.9,7.9,0,0,1,2.58.36,3.84,3.84,0,0,1,1.65,1,3.61,3.61,0,0,1,.77,1.35,5.58,5.58,0,0,1,.25,1.74,5.43,5.43,0,0,1-.31,1.91,3.93,3.93,0,0,1-.93,1.45,3.5,3.5,0,0,1-.68.52,4.3,4.3,0,0,1-.87.37,5.66,5.66,0,0,1-1.09.23,9.54,9.54,0,0,1-1.37.08h-3.06v5.77h-2.48V116.56Zm-3.06,7h3.26a3.84,3.84,0,0,0,1.14-.15,2.43,2.43,0,0,0,.79-.45,2,2,0,0,0,.47-.83,3.91,3.91,0,0,0,.15-1.13,3.24,3.24,0,0,0-.13-.94,1.91,1.91,0,0,0-.43-.76,2,2,0,0,0-.78-.52,3.27,3.27,0,0,0-1.21-.19h-3.26Z"/><path class="cls-1" d="M359.78,121.33a3.38,3.38,0,0,1,.65-.38,7.52,7.52,0,0,1,1-.35,10.77,10.77,0,0,1,1.22-.26,9.44,9.44,0,0,1,1.45-.1,7.19,7.19,0,0,1,1.83.21,3.31,3.31,0,0,1,1.35.68,2.94,2.94,0,0,1,.83,1.21,5,5,0,0,1,.28,1.79v4.44a6.67,6.67,0,0,0,.2,1.78,5.61,5.61,0,0,0,.38,1h-2.36a4.83,4.83,0,0,1-.26-.62,3.78,3.78,0,0,1-.19-1,3.94,3.94,0,0,1-1.42,1.36,4.16,4.16,0,0,1-2.08.5,4.36,4.36,0,0,1-1.39-.21,2.88,2.88,0,0,1-1.07-.6,2.74,2.74,0,0,1-.7-1,3.68,3.68,0,0,1-.25-1.37,3.37,3.37,0,0,1,.33-1.5,2.83,2.83,0,0,1,1.11-1.15,6.41,6.41,0,0,1,2.09-.76,17.73,17.73,0,0,1,3.25-.3V124a2,2,0,0,0-.46-1.46,2.13,2.13,0,0,0-1.55-.47,6.1,6.1,0,0,0-1.66.23,11.64,11.64,0,0,0-1.6.61Zm6.21,4.74a14.15,14.15,0,0,0-2.39.33,4.72,4.72,0,0,0-1.35.51,1.49,1.49,0,0,0-.58.64,1.87,1.87,0,0,0-.13.69,1.58,1.58,0,0,0,.43,1.19,1.83,1.83,0,0,0,1.33.42,3.21,3.21,0,0,0,1.1-.18,2.5,2.5,0,0,0,.85-.51,2.28,2.28,0,0,0,.55-.8,2.69,2.69,0,0,0,.19-1.05Z"/><path class="cls-1" d="M373.49,120.46l.21,1.81a7.14,7.14,0,0,1,.55-.77,3.59,3.59,0,0,1,.61-.62,2.42,2.42,0,0,1,.69-.41,2.07,2.07,0,0,1,.8-.15,3.74,3.74,0,0,1,.55.05,2.23,2.23,0,0,1,.56.16l-.27,2.33a3.8,3.8,0,0,0-.65-.1l-.55,0a2.57,2.57,0,0,0-.85.13,1.94,1.94,0,0,0-.66.37,1.7,1.7,0,0,0-.42.62,2.24,2.24,0,0,0-.15.86v6.67h-2.33v-9l-.22-2Z"/><path class="cls-1" d="M381.94,117.56v2.9h2.48v1.79h-2.48v6.27a1.36,1.36,0,0,0,.05.41.82.82,0,0,0,.16.34.71.71,0,0,0,.28.23,1.06,1.06,0,0,0,.43.08h1.64l-.15,1.76a2.12,2.12,0,0,1-.75.2c-.32,0-.73.05-1.22.05a3.32,3.32,0,0,1-1.24-.21,2.31,2.31,0,0,1-.86-.57,2.26,2.26,0,0,1-.51-.84,3.13,3.13,0,0,1-.16-1v-6.69h-1.77v-1.79h1.77l.27-2.9Z"/><path class="cls-1" d="M388.63,120.46l.22,1.75a4.38,4.38,0,0,1,.73-1,3.49,3.49,0,0,1,.77-.61,2.92,2.92,0,0,1,.84-.3,5.31,5.31,0,0,1,.91-.08,4.11,4.11,0,0,1,1.56.27,3.15,3.15,0,0,1,1.12.75,3.1,3.1,0,0,1,.76,1.29,6.42,6.42,0,0,1,.24,1.9v6.93h-2.34v-7.25a2.53,2.53,0,0,0-.1-.71,1.45,1.45,0,0,0-.36-.65,1.56,1.56,0,0,0-.64-.42,2.62,2.62,0,0,0-1-.16,2.33,2.33,0,0,0-.93.17,2.28,2.28,0,0,0-.74.47,2,2,0,0,0-.48.71,2.18,2.18,0,0,0-.18.89v6.95h-2.33v-8.94l-.21-2Z"/><path class="cls-1" d="M400.61,126.45a6.09,6.09,0,0,0,.2,1.22,3,3,0,0,0,.52,1.06,2.5,2.5,0,0,0,.91.75,3.11,3.11,0,0,0,1.41.28,5.26,5.26,0,0,0,1.77-.28,7.91,7.91,0,0,0,1.57-.78l.71,1.66a7.34,7.34,0,0,1-1.81.92,6.84,6.84,0,0,1-2.26.34,6.35,6.35,0,0,1-2.42-.42,4.41,4.41,0,0,1-1.68-1.15,4.66,4.66,0,0,1-1-1.74,7.27,7.27,0,0,1-.32-2.18,7.6,7.6,0,0,1,.35-2.34,5.72,5.72,0,0,1,1-1.87,4.81,4.81,0,0,1,1.62-1.24,5.05,5.05,0,0,1,2.14-.44,4.86,4.86,0,0,1,2,.37,4,4,0,0,1,1.43,1,4.49,4.49,0,0,1,.88,1.54,6.07,6.07,0,0,1,.3,1.94c0,.12,0,.29,0,.52s0,.49-.06.82Zm2.73-4.45a2.34,2.34,0,0,0-1.8.76,3.8,3.8,0,0,0-.89,2.15h5a4.38,4.38,0,0,0-.15-1.18,2.59,2.59,0,0,0-.45-.91,2,2,0,0,0-.73-.6A2.18,2.18,0,0,0,403.34,122Z"/><path class="cls-1" d="M412.57,120.46l.22,1.81a8.78,8.78,0,0,1,.54-.77,4.49,4.49,0,0,1,.61-.62,2.62,2.62,0,0,1,.7-.41,2.07,2.07,0,0,1,.8-.15,3.5,3.5,0,0,1,.54.05,2,2,0,0,1,.56.16l-.26,2.33a3.8,3.8,0,0,0-.65-.1l-.55,0a2.57,2.57,0,0,0-.85.13,1.77,1.77,0,0,0-.66.37,1.61,1.61,0,0,0-.43.62,2.46,2.46,0,0,0-.14.86v6.67h-2.33v-9l-.22-2Z"/><path class="cls-1" d="M425.92,116.56v12.78h6.44v2h-8.93V116.56Z"/><path class="cls-1" d="M438.4,120.24a5.15,5.15,0,0,1,2.08.4,4.4,4.4,0,0,1,1.59,1.13,5.24,5.24,0,0,1,1,1.78,7.64,7.64,0,0,1,.36,2.33,7.42,7.42,0,0,1-.33,2.25,5.4,5.4,0,0,1-1,1.82,4.46,4.46,0,0,1-1.59,1.22,4.88,4.88,0,0,1-2.14.45,5.42,5.42,0,0,1-2.1-.4,4.43,4.43,0,0,1-1.6-1.16,5.24,5.24,0,0,1-1-1.81,7.37,7.37,0,0,1-.36-2.37,6.72,6.72,0,0,1,.35-2.25,5.22,5.22,0,0,1,1-1.79,4.59,4.59,0,0,1,1.59-1.18A5.21,5.21,0,0,1,438.4,120.24Zm0,2a2.46,2.46,0,0,0-1.27.29,2.24,2.24,0,0,0-.8.79,3.52,3.52,0,0,0-.43,1.18,8.11,8.11,0,0,0-.12,1.43,9,9,0,0,0,.11,1.38,3.52,3.52,0,0,0,.4,1.21,2.28,2.28,0,0,0,.8.86,2.38,2.38,0,0,0,1.31.33,2.47,2.47,0,0,0,1.28-.3,2.2,2.2,0,0,0,.81-.82,4,4,0,0,0,.42-1.2,8.54,8.54,0,0,0,.12-1.46,8.83,8.83,0,0,0-.11-1.37,3.66,3.66,0,0,0-.41-1.18,2.2,2.2,0,0,0-.8-.83A2.44,2.44,0,0,0,438.38,122.19Z"/><path class="cls-1" d="M455.15,120.46v10.9a6,6,0,0,1-.35,2.12,4.07,4.07,0,0,1-1,1.5,4.28,4.28,0,0,1-1.57.9,6.84,6.84,0,0,1-2,.29,9.42,9.42,0,0,1-2.05-.21,7.43,7.43,0,0,1-1.67-.57l.33-1.86a7.68,7.68,0,0,0,1.45.55,6.93,6.93,0,0,0,1.85.23,3.81,3.81,0,0,0,1.17-.16,1.89,1.89,0,0,0,.85-.51,2.22,2.22,0,0,0,.52-.92,5.26,5.26,0,0,0,.17-1.42V130a3.52,3.52,0,0,1-3.06,1.55,4.23,4.23,0,0,1-1.49-.24,3.62,3.62,0,0,1-1.13-.66,4.11,4.11,0,0,1-.83-1,5.61,5.61,0,0,1-.53-1.2,7.21,7.21,0,0,1-.3-1.3,9.72,9.72,0,0,1-.09-1.31,8.31,8.31,0,0,1,.26-2.14,5.18,5.18,0,0,1,.81-1.78,4,4,0,0,1,1.4-1.24,4.25,4.25,0,0,1,2-.46,4,4,0,0,1,1,.1,3.09,3.09,0,0,1,.8.31,3.05,3.05,0,0,1,.68.53,7.52,7.52,0,0,1,.66.77l.2-1.49Zm-2.34,4a2.47,2.47,0,0,0-.14-.78,2.12,2.12,0,0,0-.45-.73,2.31,2.31,0,0,0-.77-.54,2.83,2.83,0,0,0-1.14-.21,2.08,2.08,0,0,0-2.05,1.19,3.67,3.67,0,0,0-.34,1.19,11.38,11.38,0,0,0-.08,1.31,12.48,12.48,0,0,0,.08,1.38,3.72,3.72,0,0,0,.36,1.21,2.18,2.18,0,0,0,.76.86,2.3,2.3,0,0,0,1.3.33,2.88,2.88,0,0,0,1.12-.2,2.14,2.14,0,0,0,1.21-1.25,2.37,2.37,0,0,0,.14-.77Z"/><path class="cls-1" d="M462.87,120.24a5.15,5.15,0,0,1,2.08.4,4.37,4.37,0,0,1,1.58,1.13,5.08,5.08,0,0,1,1,1.78,7.08,7.08,0,0,1,.36,2.33,7.42,7.42,0,0,1-.33,2.25,5.23,5.23,0,0,1-1,1.82,4.51,4.51,0,0,1-1.58,1.22,4.91,4.91,0,0,1-2.14.45,5.47,5.47,0,0,1-2.11-.4,4.52,4.52,0,0,1-1.6-1.16,5.24,5.24,0,0,1-1-1.81,7.37,7.37,0,0,1-.36-2.37,7,7,0,0,1,.35-2.25,5.57,5.57,0,0,1,1-1.79,4.73,4.73,0,0,1,1.6-1.18A5.21,5.21,0,0,1,462.87,120.24Zm0,2a2.44,2.44,0,0,0-1.27.29,2.19,2.19,0,0,0-.81.79,3.51,3.51,0,0,0-.42,1.18,8.09,8.09,0,0,0-.13,1.43,9,9,0,0,0,.11,1.38,3.75,3.75,0,0,0,.4,1.21,2.26,2.26,0,0,0,2.12,1.19,2.5,2.5,0,0,0,1.28-.3,2.25,2.25,0,0,0,.8-.82,3.55,3.55,0,0,0,.42-1.2,8.54,8.54,0,0,0,.12-1.46,7.76,7.76,0,0,0-.11-1.37,3.65,3.65,0,0,0-.4-1.18,2.27,2.27,0,0,0-.8-.83A2.47,2.47,0,0,0,462.85,122.19Z"/></svg>