<svg id="Vector" xmlns="http://www.w3.org/2000/svg" viewBox="0 0 520 210"><defs><style>.cls-1{fill:#fff;}.cls-2{fill:#fe5c5c;}.cls-3,.cls-5{fill:none;stroke-miterlimit:10;}.cls-3{stroke:#fff;stroke-width:3px;}.cls-4{fill:#5a5a5c;}.cls-5{stroke:#000;stroke-width:2px;}</style></defs><title>BrandHub-VectorGraphics</title><rect class="cls-1" x="-0.33" y="38.86" width="520" height="170.38"/><circle class="cls-2" cx="259.83" cy="30.5" r="28.5"/><line class="cls-3" x1="270.17" y1="20.17" x2="249.5" y2="40.83"/><line class="cls-3" x1="249.5" y1="20.17" x2="270.17" y2="40.83"/><path d="M77.54,112.23V144h7.83V112.23h10v-7h-10v-2.89c0-6.61,4-8.82,7.84-8.82a9.32,9.32,0,0,1,2.66.38L97.46,87a13.62,13.62,0,0,0-4.86-.76c-9.74,0-15.06,7.23-15.06,16v3H73.43l-4.94,7Zm108.6,18c0,8.45,5.17,14.45,14.45,14.45a19.75,19.75,0,0,0,5.7-.76l-1.59-6.84a16,16,0,0,1-3.58.38c-3.8,0-7.15-2-7.15-7.38V112.23h10.95l-3.19-7H194V89.64l-7.83,3.42v12.17h-8.29v7h8.29v18Zm-67.31-25V144h7.84V117.4a12.33,12.33,0,0,1,10.26-5.55c5.78,0,9.74,3.65,9.74,11v17.49a3.53,3.53,0,0,0,3.65,3.73h4.18V121.43c0-10-6.39-17-15.66-17A17.47,17.47,0,0,0,126.67,109v-3.81Zm101.61,52.48,28.37-52.48h-4.26c-2.59,0-4.57.76-5.63,2.74l-11.18,20.76L218.08,108c-1-2-3-2.74-5.63-2.74h-4.1l14.9,31.64-13,23.73h4.26c2.66,0,4.79-.84,5.93-2.89ZM101.65,144h7.83V105.23h-7.83V144Zm62.13,0h7.83V105.23h-7.83V144ZM80,160.6H74a6.32,6.32,0,0,1-5.63-2.74L48.11,129.8l-8.67,11.48A6.41,6.41,0,0,1,33.81,144H28.33l15-20.23L29.63,105.23h5.78A6.4,6.4,0,0,1,41,108l7.08,9.81,7.3-9.81A6.42,6.42,0,0,1,61,105.23h5.78L53,123.79,80,160.6ZM323.4,105.23H311.46l-4.95,7h9.05V144h7.84V105.23ZM291,123.79l13.84-18.56h-5.78a6.42,6.42,0,0,0-5.63,2.74l-7.3,9.81L279.06,108a6.42,6.42,0,0,0-5.63-2.74h-5.78l13.69,18.56-15,20.23h5.47a6.4,6.4,0,0,0,5.63-2.74l8.67-11.48,20.31,28.06a6.3,6.3,0,0,0,5.62,2.74H318l-27-36.81Z"/><circle class="cls-4" cx="429.73" cy="122.45" r="48.51"/><path class="cls-1" d="M401.81,104.07a7.86,7.86,0,0,1,2.58.36,3.85,3.85,0,0,1,1.65,1,3.65,3.65,0,0,1,.77,1.34,5.58,5.58,0,0,1,.25,1.74,5.52,5.52,0,0,1-.31,1.92,4,4,0,0,1-.93,1.45,3.45,3.45,0,0,1-.68.51,4.31,4.31,0,0,1-.87.38,6.53,6.53,0,0,1-1.09.23,11.24,11.24,0,0,1-1.37.08h-3.06v5.77h-2.48V104.07Zm-3.06,7H402a3.82,3.82,0,0,0,1.14-.16,2.12,2.12,0,0,0,.79-.45,2,2,0,0,0,.47-.83,3.87,3.87,0,0,0,.15-1.13,3.12,3.12,0,0,0-.13-.93,1.94,1.94,0,0,0-.43-.77,2.09,2.09,0,0,0-.78-.52,3.49,3.49,0,0,0-1.21-.19h-3.26Z"/><path class="cls-1" d="M408.87,108.84a3.41,3.41,0,0,1,.65-.37,6.26,6.26,0,0,1,1-.35,7.66,7.66,0,0,1,1.22-.26,9.39,9.39,0,0,1,1.45-.11A7.19,7.19,0,0,1,415,108a3.44,3.44,0,0,1,1.35.68,2.94,2.94,0,0,1,.83,1.21,5,5,0,0,1,.28,1.8v4.44a6.64,6.64,0,0,0,.2,1.77,5,5,0,0,0,.39,1h-2.37a5.56,5.56,0,0,1-.26-.62,3.51,3.51,0,0,1-.18-1,3.93,3.93,0,0,1-3.51,1.85,4.36,4.36,0,0,1-1.39-.2,3.05,3.05,0,0,1-1.07-.61,2.66,2.66,0,0,1-.7-1,3.62,3.62,0,0,1-.25-1.36,3.38,3.38,0,0,1,.33-1.51,2.86,2.86,0,0,1,1.12-1.15,6.5,6.5,0,0,1,2.08-.75,17.63,17.63,0,0,1,3.25-.31v-.71a2,2,0,0,0-.46-1.47,2.13,2.13,0,0,0-1.55-.46,6.1,6.1,0,0,0-1.66.23,10.47,10.47,0,0,0-1.6.61Zm6.21,4.75a14.3,14.3,0,0,0-2.39.32,4.69,4.69,0,0,0-1.35.52,1.43,1.43,0,0,0-.58.64,1.86,1.86,0,0,0-.13.68,1.58,1.58,0,0,0,.43,1.19,1.84,1.84,0,0,0,1.34.42,3.2,3.2,0,0,0,1.09-.18,2.5,2.5,0,0,0,.85-.51,2.34,2.34,0,0,0,.55-.79,2.69,2.69,0,0,0,.19-1Z"/><path class="cls-1" d="M422.58,108l.21,1.8a8.86,8.86,0,0,1,.55-.77,4.48,4.48,0,0,1,.61-.62,2.68,2.68,0,0,1,.69-.41,2.07,2.07,0,0,1,.8-.15,3.74,3.74,0,0,1,.55,0,2.23,2.23,0,0,1,.56.16l-.27,2.34a3.68,3.68,0,0,0-.65-.11l-.55,0a2.86,2.86,0,0,0-.85.13,2,2,0,0,0-.66.38,1.66,1.66,0,0,0-.42.61,2.31,2.31,0,0,0-.15.86v6.68h-2.33v-9l-.21-2Z"/><path class="cls-1" d="M431,105.08V108h2.48v1.78H431V116a1.29,1.29,0,0,0,.05.4,1,1,0,0,0,.16.34.63.63,0,0,0,.28.23.94.94,0,0,0,.43.08h1.64l-.15,1.77a2.14,2.14,0,0,1-.75.19,10.49,10.49,0,0,1-1.22,0,3.32,3.32,0,0,1-1.24-.21,2.31,2.31,0,0,1-.86-.57,2.11,2.11,0,0,1-.51-.84,3.11,3.11,0,0,1-.16-1v-6.7h-1.76V108h1.76l.27-2.9Z"/><path class="cls-1" d="M437.72,108l.22,1.74a4.63,4.63,0,0,1,.73-1,3.26,3.26,0,0,1,.78-.6,2.78,2.78,0,0,1,.83-.31,5.31,5.31,0,0,1,.91-.08,3.92,3.92,0,0,1,1.56.28,3.29,3.29,0,0,1,1.13.75,3.19,3.19,0,0,1,.75,1.29,6.37,6.37,0,0,1,.24,1.9v6.93h-2.34v-7.25a2.55,2.55,0,0,0-.1-.72,1.42,1.42,0,0,0-.36-.64,1.68,1.68,0,0,0-.64-.43,2.62,2.62,0,0,0-1-.16,2.56,2.56,0,0,0-.93.17,2.28,2.28,0,0,0-.74.47,2,2,0,0,0-.48.71,2.26,2.26,0,0,0-.18.9v7h-2.33V110l-.21-2Z"/><path class="cls-1" d="M449.7,114a7.22,7.22,0,0,0,.2,1.22,3.09,3.09,0,0,0,.52,1.06,2.5,2.5,0,0,0,.91.75,3.14,3.14,0,0,0,1.41.28,5.21,5.21,0,0,0,1.77-.29,7.91,7.91,0,0,0,1.57-.78l.72,1.66a7.35,7.35,0,0,1-1.81.92,6.9,6.9,0,0,1-2.27.34,6.35,6.35,0,0,1-2.42-.41,4.53,4.53,0,0,1-1.68-1.15,4.78,4.78,0,0,1-1-1.75,7.2,7.2,0,0,1-.32-2.17,7.67,7.67,0,0,1,.35-2.35,5.72,5.72,0,0,1,1-1.87,4.81,4.81,0,0,1,3.76-1.68,5,5,0,0,1,2,.37,4.24,4.24,0,0,1,1.43,1,4.54,4.54,0,0,1,.88,1.55,6,6,0,0,1,.3,1.93c0,.13,0,.3,0,.52s0,.5-.07.83Zm2.73-4.45a2.34,2.34,0,0,0-1.8.76,3.77,3.77,0,0,0-.89,2.15h5a4.37,4.37,0,0,0-.16-1.18,2.64,2.64,0,0,0-.45-.92,2.24,2.24,0,0,0-.73-.6A2.31,2.31,0,0,0,452.43,109.52Z"/><path class="cls-1" d="M461.67,108l.21,1.8a8.78,8.78,0,0,1,.54-.77,6,6,0,0,1,.61-.62,2.92,2.92,0,0,1,.7-.41,2.07,2.07,0,0,1,.8-.15,3.74,3.74,0,0,1,.55,0,2.05,2.05,0,0,1,.55.16l-.26,2.34a3.84,3.84,0,0,0-.65-.11l-.55,0a2.86,2.86,0,0,0-.85.13,1.87,1.87,0,0,0-.66.38,1.69,1.69,0,0,0-.43.61,2.54,2.54,0,0,0-.14.86v6.68h-2.33v-9l-.22-2Z"/><path class="cls-1" d="M410.79,126.07v12.79h6.45v2H408.3V126.07Z"/><path class="cls-1" d="M423.28,129.75a5.3,5.3,0,0,1,2.07.4,4.55,4.55,0,0,1,1.59,1.14,5.29,5.29,0,0,1,1,1.77,7.64,7.64,0,0,1,.36,2.33,7.48,7.48,0,0,1-.33,2.26,5.49,5.49,0,0,1-1,1.82,4.7,4.7,0,0,1-1.59,1.22,4.86,4.86,0,0,1-2.13.44,5.26,5.26,0,0,1-2.11-.4,4.52,4.52,0,0,1-1.6-1.15,5.33,5.33,0,0,1-1-1.81,7.39,7.39,0,0,1-.36-2.38,7.07,7.07,0,0,1,.35-2.25,5.08,5.08,0,0,1,1-1.78,4.47,4.47,0,0,1,1.59-1.18A5.25,5.25,0,0,1,423.28,129.75Zm0,1.95A2.57,2.57,0,0,0,422,132a2.27,2.27,0,0,0-.8.8,3.39,3.39,0,0,0-.43,1.17,8.19,8.19,0,0,0-.12,1.43,9.09,9.09,0,0,0,.11,1.39,3.6,3.6,0,0,0,.4,1.21,2.23,2.23,0,0,0,2.11,1.19,2.38,2.38,0,0,0,1.28-.31,2.25,2.25,0,0,0,.81-.81,4,4,0,0,0,.42-1.21,8.54,8.54,0,0,0,.12-1.46,8.71,8.71,0,0,0-.11-1.36,3.64,3.64,0,0,0-.41-1.19,2.27,2.27,0,0,0-.8-.83A2.54,2.54,0,0,0,423.25,131.7Z"/><path class="cls-1" d="M440,130v10.9a5.87,5.87,0,0,1-.35,2.11,4.07,4.07,0,0,1-1,1.5,4.2,4.2,0,0,1-1.57.9,6.52,6.52,0,0,1-2,.3,9.42,9.42,0,0,1-2.05-.21,7.61,7.61,0,0,1-1.67-.57l.33-1.87a8.43,8.43,0,0,0,1.45.56,7,7,0,0,0,1.85.22,4.15,4.15,0,0,0,1.17-.15,1.89,1.89,0,0,0,.85-.51,2.33,2.33,0,0,0,.52-.93,5.13,5.13,0,0,0,.17-1.41v-1.31a3.5,3.5,0,0,1-3.06,1.55,4.27,4.27,0,0,1-1.49-.24,3.62,3.62,0,0,1-1.13-.66,3.86,3.86,0,0,1-.82-1,5.12,5.12,0,0,1-.54-1.19,7.32,7.32,0,0,1-.3-1.31,9.72,9.72,0,0,1-.09-1.31,8.75,8.75,0,0,1,.26-2.13,5.23,5.23,0,0,1,.81-1.79,4,4,0,0,1,1.4-1.24,4.4,4.4,0,0,1,2-.46,3.93,3.93,0,0,1,1,.11,2.94,2.94,0,0,1,.8.3,3.41,3.41,0,0,1,.69.54,6.7,6.7,0,0,1,.65.77l.2-1.49Zm-2.34,4a2.48,2.48,0,0,0-.14-.79,2.22,2.22,0,0,0-.45-.73,2.31,2.31,0,0,0-.77-.54,2.83,2.83,0,0,0-1.14-.21,2.3,2.3,0,0,0-1.3.33,2.34,2.34,0,0,0-.75.87,3.87,3.87,0,0,0-.34,1.18,11.51,11.51,0,0,0-.08,1.31,10.58,10.58,0,0,0,.09,1.39,3.55,3.55,0,0,0,.35,1.21,2.25,2.25,0,0,0,.76.86,2.3,2.3,0,0,0,1.3.33,2.7,2.7,0,0,0,1.12-.21,2.29,2.29,0,0,0,.77-.53,2.11,2.11,0,0,0,.44-.71,2.47,2.47,0,0,0,.14-.78Z"/><path class="cls-1" d="M447.74,129.75a5.32,5.32,0,0,1,2.08.4,4.51,4.51,0,0,1,1.58,1.14,5,5,0,0,1,1,1.77,7.34,7.34,0,0,1,.37,2.33,7.48,7.48,0,0,1-.34,2.26,5.32,5.32,0,0,1-1,1.82,4.76,4.76,0,0,1-1.58,1.22,4.9,4.9,0,0,1-2.14.44,5.29,5.29,0,0,1-2.11-.4,4.61,4.61,0,0,1-1.6-1.15,5.33,5.33,0,0,1-1-1.81,7.39,7.39,0,0,1-.36-2.38,7.07,7.07,0,0,1,.35-2.25,5.42,5.42,0,0,1,1-1.78,4.6,4.6,0,0,1,1.6-1.18A5.21,5.21,0,0,1,447.74,129.75Zm0,1.95a2.54,2.54,0,0,0-1.27.29,2.3,2.3,0,0,0-.81.8,3.38,3.38,0,0,0-.42,1.17,8.19,8.19,0,0,0-.12,1.43,9.1,9.1,0,0,0,.1,1.39,3.83,3.83,0,0,0,.4,1.21,2.47,2.47,0,0,0,.81.86,2.38,2.38,0,0,0,1.31.33,2.4,2.4,0,0,0,1.28-.31,2.22,2.22,0,0,0,.8-.81,3.53,3.53,0,0,0,.42-1.21,8.53,8.53,0,0,0,.13-1.46,7.64,7.64,0,0,0-.12-1.36,3.63,3.63,0,0,0-.4-1.19,2.35,2.35,0,0,0-.8-.83A2.56,2.56,0,0,0,447.72,131.7Z"/><line class="cls-5" x1="353.73" y1="78.26" x2="353.73" y2="165.16"/></svg>