<svg id="Layer_1" data-name="Layer 1" xmlns="http://www.w3.org/2000/svg" viewBox="0 0 901.98 173.48"><defs><style>.cls-1{fill:none;stroke:#000;stroke-miterlimit:10;}.cls-2{fill:#5a5a5c;}.cls-3{font-size:28px;fill:#fff;font-family:XFINITYStandard-Medium, XFINITY Standard TT;font-weight:500;}.cls-4{letter-spacing:-0.06em;}.cls-5{letter-spacing:-0.02em;}.cls-6{letter-spacing:0.01em;}.cls-7{letter-spacing:-0.02em;}</style></defs><title>Xfinity_CoBranding</title><path d="M58.85,86.7,87.6,48.15h-12c-5.38,0-8.85,1.9-11.7,5.69L48.74,74.22,34,53.84c-2.84-3.79-6.32-5.69-11.69-5.69h-12L38.78,86.7l-31.12,42H19c5.37,0,8.85-1.9,11.69-5.69l18-23.86,42.18,58.31c2.69,3.79,6.32,5.68,11.69,5.68h12.33Zm230.2,42h16.28V48.15H289.05Zm-129.08,0h16.27V48.15H160Zm246.79,28.44,58.94-109h-8.85c-5.37,0-9.48,1.58-11.69,5.69L421.93,97,401.87,53.84c-2.06-4.27-6.32-5.69-11.7-5.69h-8.53l31,65.73-27,49.29h8.85C400,163.17,404.39,161.44,406.76,157.17Zm-211.08-109v80.58H212V73.43C217,66.32,224.27,61.9,233.28,61.9c12,0,20.22,7.58,20.22,22.75V121a7.34,7.34,0,0,0,7.59,7.74h8.69V81.8c0-20.85-13.27-35.39-32.55-35.39A36.33,36.33,0,0,0,212,56.05v-7.9Zm139.83,52c0,17.54,10.74,30,30,30a41.29,41.29,0,0,0,11.85-1.58l-3.32-14.22a33.11,33.11,0,0,1-7.43.79c-7.9,0-14.85-4.26-14.85-15.32V62.69h22.75L367.9,48.15H351.78V15.76l-16.27,7.11V48.15H318.28V62.69h17.23ZM109.88,62.69v66h16.28v-66H147V48.15H126.16v-6c0-13.75,8.21-18.33,16.27-18.33a19.25,19.25,0,0,1,5.53.79l3.32-14.38a28.46,28.46,0,0,0-10.11-1.58c-20.23,0-31.29,15-31.29,33.18v6.32h-8.53L91.08,62.69Z"/><line class="cls-1" x1="516.95" y1="10.85" x2="516.95" y2="168.48"/><rect class="cls-2" x="571.6" y="49.43" width="320.84" height="78"/><text class="cls-3" transform="translate(626.35 98.3)"><tspan class="cls-4">P</tspan><tspan x="16.16" y="0">A</tspan><tspan class="cls-5" x="34.78" y="0">R</tspan><tspan x="53.43" y="0">T</tspan><tspan class="cls-6" x="69.14" y="0">N</tspan><tspan x="90.04" y="0">ER </tspan><tspan class="cls-7" x="133.45" y="0">L</tspan><tspan x="147.62" y="0">OGO</tspan></text></svg>