<svg id="Layer_1" data-name="Layer 1" xmlns="http://www.w3.org/2000/svg" viewBox="0 0 1882.97 647"><defs><style>.cls-1{fill:#004a53;}.cls-2{fill:#221e1f;}.cls-3{fill:#fff;}.cls-4{fill:#bac3c8;}.cls-5{font-size:101.46px;font-family:XfinityBrown-Regular, Xfinity Brown;letter-spacing:-0.03em;}.cls-6{letter-spacing:-0.03em;}.cls-7{letter-spacing:-0.02em;}.cls-8{letter-spacing:-0.06em;}.cls-9{letter-spacing:-0.04em;}.cls-10{letter-spacing:-0.04em;}.cls-11{letter-spacing:-0.04em;}.cls-12{letter-spacing:-0.03em;}.cls-13{letter-spacing:-0.02em;}.cls-14{fill:none;stroke:#000;stroke-miterlimit:10;stroke-width:6px;}</style></defs><title>Xfinity_CoBranding</title><path class="cls-1" d="M1599.78,98.67l-22.29,23.27c44-19.35,136.85-50.69,136.85-50.69l-27,26.27c95.22-29.22,155.58-39,155.58-39s-19.82,43.89-46.16,81.17c12.7-1.19,39.22-4.2,39.22-4.2s-26.63,44.33-65.88,81.85c4.35.65,22.11,4.75,22.11,4.75s-23.71,35-64.87,70.84c-52.51,45.75-75.75,40.26-75.75,40.26a17.21,17.21,0,0,0,.46-4.58,17.9,17.9,0,0,0-.36-3.05c-40.45,37.87-74,25-74,25s15-36.09-7.86-43.43c-17.72-5.7-44.91,8.76-47.1,16.52-2.38,8.44-13.7,31.88-24.9,45.61-19.43,23.79-40.91,34.62-40.91,34.62s-19.45-15.05-12.58-58.92c1.5-9.57-.39-13.31-1.43-14.92-3.18-4.91-28.14.38-34.25,14.28-4.32,9.8,20.44,18.18,20.44,18.18a62.27,62.27,0,0,1-31.48,16.62c-12.58,2.54-32,1.67-52.44-16.08-12.07-10.51-14.48-46-14.48-46s15-27.31,44.17-50.89a35.29,35.29,0,0,1-11.17-12.65c58.69-25.1,66.82-60.8,133.12-100.54C1527.71,134.41,1560.25,116.2,1599.78,98.67Z"/><path class="cls-2" d="M1755.29,222.29c2.34.5,12,2.27,17.34,4.5C1752.4,259.41,1692,323.41,1658.37,326a24.81,24.81,0,0,0-5.16-13.75c-12.69,23-51.28,37.11-67.26,33.37,19.61-71.16-62.92-44.24-69.29-24.7-16.54,50.7-58.29,74.47-58.29,74.47s-13.27-15.21-7.48-49.36c4.28-25.19-11.65-24.44-11.65-24.44-6.36-.32-30.49,2.54-38.14,19.34-6.17,13.55,15.29,23.11,15.29,23.11s-31.08,24.69-66.87-6.09c-8.79-7.55-12-39.34-12-39.34a187.94,187.94,0,0,1,49.56-53.43c-10-3.86-13.08-9-13.08-9,48.22-22,67.2-58.63,108.28-85.8,45.27-30,79.9-44.63,79.9-44.63l-13.1,16.4s11-4.65,15.71-7c43.09-21,116.06-43.83,116.06-43.83l-22.8,22a824.34,824.34,0,0,1,85.26-22.84c25.3-5.34,78.18-16.33,78.18-16.33a320.26,320.26,0,0,1-39,73.45c15.93-1.08,33.11-2,33.11-2S1797.08,182.62,1755.29,222.29Z"/><path class="cls-2" d="M1559.54,172.33l-1.6.57,1.43-.51Z"/><path class="cls-2" d="M1557.68,173l.26-.1Z"/><path class="cls-3" d="M1614.23,258.43s-23-11.26-59.37.52c0,0,50.17-29.58,113.57-16.79a158.29,158.29,0,0,0-100.07-.14,197.62,197.62,0,0,0-20.48,9s3.21-2.35,9.23-5.89a275.91,275.91,0,0,1,55.5-30.94c14-5.73,41.94-13.12,53.29-13.74,0,0-29.17-5-55.81,1.63,0,0,42.19-16.34,83.1-17.15,13.7-.27,45,1.48,45,1.48-45.17-13.54-92-16.3-124-11.47-18.21,4.46-32.57,8.92-32.57,8.92s2.51-1.26,7.32-3.29c11.56-6.83,59-32.15,147-45.66a238.17,238.17,0,0,0-25-1.4c-14.07,0-41.75,4.65-41.75,4.65,20.06-9.11,57.86-17.88,104.57-22.27,0,0-71.34-8.64-157.81,18.2l-1.13.5s9.13-6.58,19.43-13.38c7.6-5,18.59-12.84,18.59-12.84s-44.34,10.5-104.41,38.84c-16.94,8-25.9,12.75-25.9,12.75,2.61-3,14.68-13.53,17.6-17.28-44.59,21.72-60.89,36.14-87.42,64.13-23.67,25-22.61,29.32-58.48,48.6a60.81,60.81,0,0,0,53.13-6.44c4.64-3,9-7.21,13.17-11.62,9.48-10.94,6.38-22.2,19-30.25-1.8,4.16-4.77,9.45-5,14.9,6-8.29,18-19.2,31.28-27.07,33.79-20,56.18-23.44,56.18-23.44-.85.29-1.7.6-2.54.9-46.15,19.06-53.74,44.09-54,46.72-.52,5.64,16.68-7,30.71-8.64-14.77,5.17-27.48,17.7-33.65,32.17-2.62,6.14-3.42,13.13-10.73,18.59a31.75,31.75,0,0,1-8.36,5.32c-9.7,4.36-16.39,2.12-18.67.6a7.67,7.67,0,0,1-2.19-2.45c4.69,1.34,11.08.2,16.91-3.45a24.78,24.78,0,0,0,9.25-9.92h0a10.82,10.82,0,0,0,.14-10.57c-1.3-2.46-4-3.79-7.12-4.28.19-.53,1.82-4.62,6.89-10.68-6.88,4.93-11.35,10.86-13.67,13.54a9.87,9.87,0,0,1,7.62,4.52c3.09,5.17.18,12.58-6.5,16.54s-14.6,3-17.69-2.2a8.4,8.4,0,0,1-.88-2c-.36.2-.7.41-1.07.6-2.09,1.07-6.31,2.84-6.31,2.84a17.77,17.77,0,0,0,6.33.37c.53,7.31,5.07,19.06,30.81,12.48-7.37,7.22-25.06,6.7-35.78,1.05,1.47,1.09,3.14,2.26,5.14,3.51,32.2,20.12,69.4,1.35,78.48-3.85a71.9,71.9,0,0,1,6.73-3.8A76,76,0,0,0,1526,290.48C1537.32,276,1570.21,253,1614.23,258.43Z"/><path class="cls-4" d="M1496.37,226.33c1.22,4.78,9.5-.13,9.5-.13s-11.2,9.44-15.71,19.64a12,12,0,0,1-1.48,5.5,10.49,10.49,0,0,0,3.18.31,18.93,18.93,0,0,0,6.28-2.34s.06,6.07-6.41,11.92c7.31-5.46,8.11-12.45,10.73-18.59,6.17-14.47,18.88-27,33.65-32.17-14,1.68-31.23,14.28-30.71,8.64.23-2.63,7.82-27.66,54-46.72l-1.69.61C1515.39,188.66,1493.11,213.65,1496.37,226.33Z"/><path class="cls-1" d="M1478.73,245.62c2.18,3.67,0,9-4.9,11.9s-10.63,2.27-12.81-1.39a5.63,5.63,0,0,1-.67-1.79c-.93.66-1.9,1.26-2.88,1.82a8.4,8.4,0,0,0,.88,2c3.09,5.18,11,6.15,17.69,2.2s9.59-11.37,6.5-16.54a9.87,9.87,0,0,0-7.62-4.52l-2.51,3.11A7.23,7.23,0,0,1,1478.73,245.62Z"/><path class="cls-2" d="M1473.83,257.52c4.9-2.9,7.08-8.23,4.9-11.9a7.23,7.23,0,0,0-6.32-3.16,83.52,83.52,0,0,1-6.69,7.38,7.33,7.33,0,0,0,2.87,6.62,8.14,8.14,0,0,1-4.78-1.16,5,5,0,0,1-1.71-2.27c-.57.45-1.16.89-1.75,1.31a5.63,5.63,0,0,0,.67,1.79C1463.2,259.79,1468.94,260.41,1473.83,257.52Z"/><path class="cls-3" d="M1463.81,255.3a8.14,8.14,0,0,0,4.78,1.16,7.33,7.33,0,0,1-2.87-6.62c-1.15,1.1-2.35,2.18-3.62,3.19A5,5,0,0,0,1463.81,255.3Z"/><path class="cls-4" d="M1738.22,186.41s-31.33-1.75-45-1.48c-40.91.81-83.1,17.15-83.1,17.15,26.64-6.65,55.81-1.63,55.81-1.63-11.35.62-39.26,8-53.29,13.74a275.91,275.91,0,0,0-55.5,30.94c23.83-14.06,91.55-47,177.33-28.52,0,0,5.62-4.3,20.59-20.65,15.89-17.33,19.29-28,19.29-28s-72.85-8-125.62,0c-11.39,1.71-23.64,4.39-34.52,7.05C1646.21,170.11,1693.05,172.87,1738.22,186.41Z"/><path class="cls-4" d="M1569.85,272.49c59.59-14.61,101,3.4,105.87,22.23l.59-.31c2.41-1.3,11.68-5.22,25.65-18.89,14.67-14.37,23.86-25.9,27.51-33.66-60.86-30.69-128.15-12.47-161.11.16a158.29,158.29,0,0,1,100.07.14C1605,229.37,1554.86,259,1554.86,259c36.35-11.78,59.37-.52,59.37-.52-44-5.47-76.91,17.61-88.26,32.05-.87,1.76-1.69,3.6-2.43,5.53C1533.77,286.43,1544.69,278.67,1569.85,272.49Z"/><path class="cls-4" d="M1773.77,115.89c-46.71,4.39-84.51,13.16-104.57,22.27,0,0,27.68-4.69,41.75-4.65a238.17,238.17,0,0,1,25,1.4c-88,13.51-135.46,38.83-147,45.66,11.71-4.94,37-14.43,73.34-21.51,34.22-6.69,74-8.27,90-9.83,22.86-22,31.89-49.78,31.89-49.78s-39.75,3.11-84.85,11.36c-46.92,8.59-77.25,20.74-83.32,23.28C1702.43,107.25,1773.77,115.89,1773.77,115.89Z"/><path class="cls-4" d="M1536.26,296.29s15-11.26,40.51-7.11c37.66,6.16,36.53,29.91,36.53,29.91s17-7.26,25.6-22.15c0,0-10.62-10.19-29.85-13.63C1558.9,274.31,1536.26,296.29,1536.26,296.29Z"/><path class="cls-4" d="M1433.33,268.62c-9.67,2.94-21.95,2.06-28.72.21-7.83,5.36-36,17.33-53.94,47.56.9,10.27,1.93,23.41,6.12,30.62,17.14,27.22,47.21,17.24,47.21,17.24s-45.6-20.37,3.27-49.77c15.6-9.39,58.72-16.36,84.4-8,2.2.82,4.89,2.75,4.71,3.24-2.7,13.07-13.58,49.69-31.5,60.06-9.85-14.46,16.33-47.56-10.29-48.89a34.53,34.53,0,0,1,3.71,24.07c-1.26,6.05-5.44,22.2,1.9,39,0,0,40.52-24.11,52.68-79.94,1.56-5.5,2.63-10.16,5-14.38C1465.86,309.93,1433.33,268.62,1433.33,268.62Zm-15.67,17.75c-3.73,1.09-11.8,2.22-8-3.51,0,0,4.85-2.59,11.34-5.93,2.78,2.28,5.67,3.89,13.24,4.62C1434.29,281.55,1420.68,285.48,1417.66,286.37Z"/><path class="cls-2" d="M1409.71,282.86c-3.85,5.73,4.22,4.6,8,3.51,3-.89,16.63-4.82,16.63-4.82-7.57-.73-10.46-2.34-13.24-4.62C1414.56,280.27,1409.71,282.86,1409.71,282.86Z"/><text class="cls-5" transform="translate(26.97 581.18)">P<tspan class="cls-6" x="58.13" y="0">r</tspan><tspan class="cls-7" x="92.53" y="0">oud </tspan><tspan class="cls-8" x="290.57" y="0">P</tspan><tspan class="cls-7" x="345.97" y="0">artne</tspan><tspan class="cls-9" x="593.21" y="0">r</tspan><tspan class="cls-7" x="626.39" y="0"> </tspan><tspan x="649.93" y="0">o</tspan><tspan class="cls-10" x="705.83" y="0">f</tspan><tspan class="cls-11" x="740.94" y="0"> </tspan><tspan class="cls-7" x="762.65" y="0">the Philadelphia </tspan><tspan class="cls-12" x="1526.91" y="0">E</tspan><tspan class="cls-13" x="1579.26" y="0">agles</tspan></text><path d="M155,228.59l69.11-92.66H195.29c-12.91,0-21.27,4.56-28.1,13.67l-36.46,49-35.31-49c-6.84-9.11-15.19-13.67-28.1-13.67H38.46l68.35,92.66L32,329.6H59.34c12.91,0,21.27-4.56,28.1-13.67l43.29-57.34L232.12,398.71c6.46,9.11,15.19,13.67,28.1,13.67h29.62Zm553.27,101h39.11V135.93H708.31Zm-310.25,0h39.12V135.93H398.06ZM991.21,398l141.64-262h-21.27c-12.91,0-22.78,3.8-28.1,13.67l-55.82,103.67L979.43,149.6c-4.93-10.25-15.18-13.67-28.1-13.67h-20.5l74.43,158L940.32,412.38h21.27C974.88,412.38,985.51,408.2,991.21,398Zm-507.33-262V329.6H523V196.69C535.15,179.6,552.62,169,574.26,169c28.86,0,48.61,18.23,48.61,54.68V311c0,11,7.59,18.61,18.22,18.61H662V216.82c0-50.13-31.9-85.06-78.23-85.06-24.68,0-45.18,8.73-60.75,23.16v-19ZM820,260.86C820,303,845.77,333,892.1,333a99.76,99.76,0,0,0,28.48-3.79l-8-34.18a80.22,80.22,0,0,1-17.85,1.9c-19,0-35.69-10.25-35.69-36.83V170.87h54.68l-16-34.94H859.06V58.09L820,75.18v60.75H778.56v34.94H820Zm-542.26-90V329.6H316.8V170.87h50.13V135.93H316.8V121.5c0-33,19.75-44,39.11-44a46.76,46.76,0,0,1,13.3,1.9l8-34.55c-4.94-1.9-12.91-3.8-24.3-3.8-48.61,0-75.19,36.07-75.19,79.74v15.19H257.18L232.5,170.87Z"/><line class="cls-14" x1="1227" y1="47.53" x2="1227" y2="413.69"/></svg>