<svg id="Layer_1" data-name="Layer 1" xmlns="http://www.w3.org/2000/svg" viewBox="0 0 778.61 173.48"><defs><style>.cls-1{font-size:46px;font-family:XfinityBrown-Bold, Xfinity Brown;font-weight:700;letter-spacing:-0.03em;}.cls-2{letter-spacing:-0.03em;}.cls-3{letter-spacing:-0.02em;}.cls-4{letter-spacing:-0.03em;}.cls-5{letter-spacing:-0.04em;}.cls-6{letter-spacing:-0.04em;}</style></defs><title>Xfinity_CoBranding</title><path d="M357.47,86.7l28.76-38.55h-12c-5.37,0-8.85,1.9-11.69,5.69L347.36,74.22l-14.7-20.38c-2.84-3.79-6.32-5.69-11.69-5.69H309L337.4,86.7l-31.12,42h11.37c5.38,0,8.85-1.9,11.7-5.69l18-23.86,42.18,58.31c2.69,3.79,6.32,5.68,11.7,5.68h12.32Zm230.21,42H604V48.15H587.68Zm-129.09,0h16.27V48.15H458.59Zm246.8,28.44,58.93-109h-8.85c-5.37,0-9.48,1.58-11.69,5.69L720.55,97,700.49,53.84c-2.06-4.27-6.32-5.69-11.69-5.69h-8.54l31,65.73-27,49.29h8.85C698.59,163.17,703,161.44,705.39,157.17ZM494.3,48.15v80.58h16.27V73.43c5.06-7.11,12.33-11.53,21.33-11.53,12,0,20.23,7.58,20.23,22.75V121a7.34,7.34,0,0,0,7.58,7.74h8.69V81.8c0-20.85-13.27-35.39-32.55-35.39a36.33,36.33,0,0,0-25.28,9.64v-7.9Zm139.83,52c0,17.54,10.74,30,30,30A41.29,41.29,0,0,0,676,128.57l-3.32-14.22a33,33,0,0,1-7.43.79c-7.9,0-14.85-4.26-14.85-15.32V62.69h22.75l-6.63-14.54H650.4V15.76l-16.27,7.11V48.15H616.91V62.69h17.22ZM408.5,62.69v66h16.28v-66h20.85V48.15H424.78v-6c0-13.75,8.21-18.33,16.27-18.33a19.2,19.2,0,0,1,5.53.79l3.32-14.38a28.42,28.42,0,0,0-10.11-1.58c-20.23,0-31.29,15-31.29,33.18v6.32H400L389.7,62.69Z"/><text class="cls-1" transform="translate(9.04 102.92)">P<tspan class="cls-2" x="26.77" y="0">r</tspan><tspan class="cls-3" x="43.93" y="0">ese</tspan><tspan class="cls-4" x="112.88" y="0">nt</tspan><tspan class="cls-3" x="159.71" y="0">ed </tspan><tspan class="cls-5" x="222.09" y="0">b</tspan><tspan class="cls-6" x="249.04" y="0">y</tspan></text></svg>