<svg id="Layer_1" data-name="Layer 1" xmlns="http://www.w3.org/2000/svg" viewBox="0 0 778.61 173.48"><title>Xfinity_CoBranding</title><path d="M357.47,86.7l28.76-38.55h-12c-5.37,0-8.85,1.9-11.69,5.69L347.36,74.22l-14.7-20.38c-2.84-3.79-6.32-5.69-11.69-5.69H309L337.4,86.7l-31.12,42h11.37c5.38,0,8.85-1.9,11.7-5.69l18-23.86,42.18,58.31c2.69,3.79,6.32,5.68,11.7,5.68h12.32Zm230.21,42H604V48.15H587.68Zm-129.09,0h16.27V48.15H458.59Zm246.8,28.44,58.93-109h-8.85c-5.37,0-9.48,1.58-11.69,5.69L720.55,97,700.49,53.84c-2.06-4.27-6.32-5.69-11.69-5.69h-8.54l31,65.73-27,49.29h8.85C698.59,163.17,703,161.44,705.39,157.17ZM494.3,48.15v80.58h16.27V73.43c5.06-7.11,12.33-11.53,21.33-11.53,12,0,20.23,7.58,20.23,22.75V121a7.34,7.34,0,0,0,7.58,7.74h8.69V81.8c0-20.85-13.27-35.39-32.55-35.39a36.33,36.33,0,0,0-25.28,9.64v-7.9Zm139.83,52c0,17.54,10.74,30,30,30A41.29,41.29,0,0,0,676,128.57l-3.32-14.22a33,33,0,0,1-7.43.79c-7.9,0-14.85-4.26-14.85-15.32V62.69h22.75l-6.63-14.54H650.4V15.76l-16.27,7.11V48.15H616.91V62.69h17.22ZM408.5,62.69v66h16.28v-66h20.85V48.15H424.78v-6c0-13.75,8.21-18.33,16.27-18.33a19.2,19.2,0,0,1,5.53.79l3.32-14.38a28.42,28.42,0,0,0-10.11-1.58c-20.23,0-31.29,15-31.29,33.18v6.32H400L389.7,62.69Z"/><path d="M19.12,89.81v13.11H12.91V70.71H25c4.51,0,7.27,1.48,9,3.78a9.33,9.33,0,0,1,1.93,5.75A9.45,9.45,0,0,1,34,86c-1.75,2.3-4.51,3.78-9,3.78Zm5.06-5.43c2.62,0,3.77-.55,4.51-1.43a4,4,0,0,0,1-2.71,3.93,3.93,0,0,0-1-2.67c-.74-.87-1.89-1.43-4.51-1.43H19.12v8.24Z"/><path d="M53.34,85.85a13.09,13.09,0,0,0-2.07-.14,7,7,0,0,0-6,3.18v14h-6V80.61h5.75v2.25a8.26,8.26,0,0,1,6.49-2.58,7.5,7.5,0,0,1,1.79.19Z"/><path d="M75.79,99.38a12.45,12.45,0,0,1-9.34,4c-6.58,0-11.5-4.65-11.5-11.59C55,85.57,59,80.15,65.81,80.15c6.39,0,10.53,5.19,10.53,11.4a9.18,9.18,0,0,1-.14,1.71H60.7c.32,3.12,2.9,5.06,6.07,5.06a8.48,8.48,0,0,0,5.71-2.44ZM70.36,89.12a4.42,4.42,0,0,0-4.55-4.05,4.78,4.78,0,0,0-4.92,4.05Z"/><path d="M81.68,96.25a10.69,10.69,0,0,0,6.11,2.07c1.61,0,2.86-.78,2.86-1.89,0-3.36-10.81-2.16-10.81-9.34,0-4.28,4.14-6.94,8.55-6.94a12.69,12.69,0,0,1,7.46,2.43l-2.67,4a8.12,8.12,0,0,0-4.33-1.42c-1.65,0-3,.5-3,1.65,0,2.76,10.81,1.7,10.81,9.52,0,4.51-4.37,7-8.74,7a14,14,0,0,1-9.11-3.22Z"/><path d="M120.36,99.38a12.45,12.45,0,0,1-9.34,4c-6.57,0-11.5-4.65-11.5-11.59,0-6.22,4.1-11.64,10.86-11.64,6.39,0,10.54,5.19,10.54,11.4a10.12,10.12,0,0,1-.14,1.71H105.27c.33,3.12,2.9,5.06,6.08,5.06a8.46,8.46,0,0,0,5.7-2.44Zm-5.43-10.26a4.42,4.42,0,0,0-4.55-4.05,4.79,4.79,0,0,0-4.92,4.05Z"/><path d="M125.42,102.92V80.61h5.52v2a10.48,10.48,0,0,1,6.67-2.43,9.88,9.88,0,0,1,7.64,3.45c1.47,1.74,2.25,4.14,2.25,8v11.37h-6V91c0-2.21-.5-3.36-1.33-4.18a4.67,4.67,0,0,0-3.36-1.25,7.13,7.13,0,0,0-5.43,2.76v14.59Z"/><path d="M161.58,95.19a3.27,3.27,0,0,0,.6,2.35,2.88,2.88,0,0,0,2.07.69,6.09,6.09,0,0,0,2.76-.74l1.93,4.23a9.38,9.38,0,0,1-5.57,1.66,7.7,7.7,0,0,1-6-2.35c-1.11-1.29-1.75-3-1.75-5.75V85.44h-5.29V80.61h5.29V73.47h6v7.14h6.67v4.83h-6.67Z"/><path d="M191.57,99.38a12.45,12.45,0,0,1-9.34,4c-6.58,0-11.5-4.65-11.5-11.59,0-6.22,4.1-11.64,10.86-11.64,6.39,0,10.53,5.19,10.53,11.4a10.16,10.16,0,0,1-.13,1.71H176.48c.32,3.12,2.9,5.06,6.07,5.06a8.48,8.48,0,0,0,5.71-2.44Zm-5.43-10.26a4.42,4.42,0,0,0-4.55-4.05,4.78,4.78,0,0,0-4.92,4.05Z"/><path d="M218.34,102.92h-5.52V101a10.32,10.32,0,0,1-6.76,2.39c-6.07,0-10.95-4.83-10.95-11.64S199.94,80.15,206,80.15a10.82,10.82,0,0,1,6.39,2V70.25h6ZM207,98a6.74,6.74,0,0,0,5.38-2.62V88.2a7.09,7.09,0,0,0-5.47-2.63A6.2,6.2,0,0,0,207,98Z"/><path d="M240.6,70.25V82.17a10.74,10.74,0,0,1,6.4-2c6,0,10.86,4.83,10.86,11.59s-4.88,11.64-11,11.64a10.36,10.36,0,0,1-6.77-2.39v1.93h-5.52V70.25Zm5.48,15.32a7.11,7.11,0,0,0-5.48,2.63v7.13A6.74,6.74,0,0,0,246,98a6.2,6.2,0,0,0,.09-12.38Z"/><path d="M263.1,113.27l5.75-12.38L258.64,80.61H265l6.9,13.89,6.3-13.89h6.17l-15.14,32.66Z"/></svg>