<svg id="Layer_1" data-name="Layer 1" xmlns="http://www.w3.org/2000/svg" xmlns:xlink="http://www.w3.org/1999/xlink" viewBox="0 0 1854 647"><defs><style>.cls-1{fill:none;stroke:#000;stroke-miterlimit:10;stroke-width:6px;}.cls-10,.cls-11,.cls-12,.cls-13,.cls-2,.cls-3,.cls-4,.cls-5,.cls-6,.cls-7,.cls-8,.cls-9{isolation:isolate;}.cls-10,.cls-11,.cls-12,.cls-13,.cls-3,.cls-4,.cls-5,.cls-6,.cls-7,.cls-8,.cls-9{font-size:109px;font-family:XfinityBrown-Regular, Xfinity Brown;}.cls-3{letter-spacing:-0.02em;}.cls-4{letter-spacing:-0.09em;}.cls-5{letter-spacing:-0.02em;}.cls-6{letter-spacing:-0.06em;}.cls-7{letter-spacing:-0.03em;}.cls-8{letter-spacing:-0.06em;}.cls-9{letter-spacing:-0.04em;}.cls-10{letter-spacing:-0.05em;}.cls-11{letter-spacing:-0.08em;}.cls-12{letter-spacing:-0.05em;}.cls-13{letter-spacing:-0.05em;}</style></defs><title>Xfinity_CoBranding-0-3</title><line class="cls-1" x1="1298.47" y1="35.19" x2="1298.47" y2="421.09"/><image class="cls-2" width="2200" height="1606" transform="translate(1325.8 20.56) scale(0.26)" xlink:href="Atlanta-Braves-Logo.png"/><path d="M164.81,231.38,237.46,134H207.12c-13.57,0-22.35,4.79-29.54,14.37l-38.32,51.5-37.12-51.5C95,138.77,86.17,134,72.6,134H42.26l71.85,97.4L35.47,337.57H64.21c13.58,0,22.36-4.79,29.54-14.37l45.51-60.28,106.59,147.3c6.78,9.58,16,14.37,29.53,14.37h31.14ZM746.43,337.57h41.11V134H746.43Zm-326.14,0h41.12V134H420.29Zm623.53,71.85L1192.72,134h-22.36c-13.57,0-23.95,4-29.54,14.37l-58.68,109-50.7-109c-5.18-10.77-16-14.37-29.53-14.37H980.35l78.24,166L990.33,424.59h22.35c14,0,25.15-4.39,31.14-15.17ZM510.51,134V337.57h41.11V197.85c12.78-18,31.14-29.14,53.89-29.14,30.34,0,51.1,19.16,51.1,57.49V318c0,11.57,8,19.56,19.16,19.56h22V219c0-52.69-33.53-89.42-82.23-89.42-26,0-47.5,9.18-63.87,24.35V134ZM863.79,265.32c0,44.31,27.14,75.84,75.84,75.84a104.84,104.84,0,0,0,29.94-4l-8.38-35.93a83.94,83.94,0,0,1-18.76,2c-20,0-37.53-10.78-37.53-38.72v-93.8h57.49L945.62,134H904.9V52.15l-41.11,18V134H820.27v36.73h43.52Zm-570-94.61V337.57H334.9V170.71h52.7V134H334.9V118.81c0-34.73,20.76-46.3,41.12-46.3a49.16,49.16,0,0,1,14,2l8.38-36.32c-5.19-2-13.57-4-25.54-4-51.1,0-79,37.92-79,83.83v16H272.19l-25.95,36.73Z"/><g class="cls-2"><text class="cls-3" transform="translate(23 605.39)">Official </text><text class="cls-4" transform="translate(415.83 605.39)">P</text><text class="cls-5" transform="translate(475.34 605.39)">artne</text><text class="cls-6" transform="translate(740.97 605.39)">r</text><text class="cls-3" transform="translate(776.61 605.39)"> </text><text class="cls-7" transform="translate(801.9 605.39)">o</text><text class="cls-8" transform="translate(861.96 605.39)">f</text><text class="cls-9" transform="translate(899.67 605.39)"> </text><text class="cls-5" transform="translate(923 605.39)">the</text><text class="cls-10" transform="translate(1086.61 605.39)"> </text><text class="cls-11" transform="translate(1108.74 605.39)">A</text><text class="cls-5" transform="translate(1176.86 605.39)">tla</text><text class="cls-7" transform="translate(1309.29 605.39)">n</text><text class="cls-7" transform="translate(1371.86 605.39)">t</text><text class="cls-5" transform="translate(1413.61 605.39)">a B</text><text class="cls-12" transform="translate(1569.58 605.39)">r</text><text class="cls-5" transform="translate(1606.54 605.39)">a</text><text class="cls-13" transform="translate(1670.19 605.39)">v</text><text class="cls-3" transform="translate(1722.07 605.39)">es</text></g></svg>