<?xml version="1.0" encoding="utf-8"?>
<!-- Generator: Adobe Illustrator 23.0.1, SVG Export Plug-In . SVG Version: 6.00 Build 0)  -->
<svg version="1.1" id="Layer_1" xmlns="http://www.w3.org/2000/svg" xmlns:xlink="http://www.w3.org/1999/xlink" x="0px" y="0px"
	 viewBox="0 0 374.6 154.5" style="enable-background:new 0 0 374.6 154.5;" xml:space="preserve">
<g>
	<path d="M198,120.1h16.3V39.5H198V120.1z M68.9,120.1h16.3V39.5H68.9V120.1z M315.7,148.5l58.9-109h-8.8c-5.4,0-9.5,1.6-11.7,5.7
		l-23.2,43.1l-20.1-43.1c-2.1-4.3-6.3-5.7-11.7-5.7h-8.5l31,65.7l-27,49.3h8.8C308.9,154.5,313.3,152.8,315.7,148.5z M104.6,39.5
		v80.6h16.3V64.8c5.1-7.1,12.3-11.5,21.3-11.5c12,0,20.2,7.6,20.2,22.8v36.3c0,4.6,3.2,7.7,7.6,7.7h8.7V73.2
		c0-20.9-13.3-35.4-32.5-35.4c-10.3,0-18.8,3.6-25.3,9.6v-7.9H104.6z M244.4,91.5c0,17.5,10.7,30,30,30c4.7,0,8.7-0.6,11.8-1.6
		l-3.3-14.2c-2.1,0.5-4.6,0.8-7.4,0.8c-7.9,0-14.9-4.3-14.9-15.3V54h22.8l-6.6-14.5h-16.1V7.1l-16.3,7.1v25.3h-17.2V54h17.2V91.5z
		 M18.8,54v66h16.3V54h20.9V39.5H35.1v-6c0-13.7,8.2-18.3,16.3-18.3c2.1,0,4,0.3,5.5,0.8l3.3-14.4C58.1,0.8,54.8,0,50.1,0
		C29.9,0,18.8,15,18.8,33.2v6.3h-8.5L0,54H18.8z"/>
</g>
</svg>
