<?xml version="1.0" encoding="utf-8"?>
<!-- Generator: Adobe Illustrator 23.0.0, SVG Export Plug-In . SVG Version: 6.00 Build 0)  -->
<svg version="1.1" id="Layer_1" xmlns="http://www.w3.org/2000/svg" xmlns:xlink="http://www.w3.org/1999/xlink" x="0px" y="0px"
	 viewBox="0 0 458.04 154.52" style="enable-background:new 0 0 458.04 154.52;" xml:space="preserve">
<g>
	<path d="M51.19,78.05L79.95,39.5H67.94c-5.37,0-8.85,1.9-11.69,5.69L41.08,65.57L26.39,45.19c-2.84-3.79-6.32-5.69-11.69-5.69H2.69
		l28.44,38.55L0,120.08h11.38c5.37,0,8.85-1.9,11.69-5.69l18.01-23.86l42.19,58.3c2.69,3.79,6.32,5.69,11.69,5.69h12.32L51.19,78.05
		z M281.4,120.08h16.27V39.5H281.4V120.08z M152.31,120.08h16.27V39.5h-16.27V120.08z M399.11,148.52L458.04,39.5h-8.85
		c-5.37,0-9.48,1.58-11.69,5.69l-23.23,43.13l-20.07-43.13c-2.05-4.27-6.32-5.69-11.69-5.69h-8.53l30.97,65.73l-27.02,49.3h8.85
		C392.31,154.52,396.74,152.79,399.11,148.52z M188.02,39.5v80.58h16.27v-55.3c5.06-7.11,12.32-11.53,21.33-11.53
		c12.01,0,20.22,7.58,20.22,22.75v36.34c0,4.58,3.16,7.74,7.58,7.74h8.69V73.15c0-20.86-13.27-35.39-32.55-35.39
		c-10.27,0-18.8,3.63-25.28,9.64v-7.9H188.02z M327.85,91.48c0,17.54,10.74,30.02,30.02,30.02c4.74,0,8.69-0.63,11.85-1.58
		l-3.32-14.22c-2.05,0.47-4.58,0.79-7.43,0.79c-7.9,0-14.85-4.27-14.85-15.33V54.04h22.75l-6.64-14.54h-16.12V7.11l-16.27,7.11V39.5
		h-17.22v14.54h17.22V91.48z M102.23,54.04v66.04h16.27V54.04h20.86V39.5H118.5v-6c0-13.75,8.22-18.33,16.27-18.33
		c2.05,0,3.95,0.32,5.53,0.79l3.32-14.38C141.57,0.79,138.25,0,133.51,0c-20.22,0-31.28,15.01-31.28,33.18v6.32h-8.53L83.42,54.04
		H102.23z"/>
</g>
</svg>
