<svg id="Layer_1" data-name="Layer 1" xmlns="http://www.w3.org/2000/svg" viewBox="0 0 360 360"><defs><style>.cls-1{fill:#231f20;}</style></defs><title>SecGraphics-0-3</title><path class="cls-1" d="M236.42,280.77a12.28,12.28,0,0,1-9.58-4.59,63.1,63.1,0,0,0-98.33,0,12.29,12.29,0,1,1-19.14-15.41,87.65,87.65,0,0,1,136.62,0,12.29,12.29,0,0,1-9.57,20Z"/><path class="cls-1" d="M282.63,229.57A12.31,12.31,0,0,1,273,225a122.32,122.32,0,0,0-190.73,0,12.29,12.29,0,0,1-19.14-15.43,146.91,146.91,0,0,1,229,0,12.27,12.27,0,0,1-9.55,20Z"/><path class="cls-1" d="M327.78,175.71a12.23,12.23,0,0,1-9.58-4.58,180.34,180.34,0,0,0-281,0A12.28,12.28,0,0,1,18,155.74a204.87,204.87,0,0,1,319.35,0,12.27,12.27,0,0,1-9.57,20Z"/></svg>