<svg xmlns="http://www.w3.org/2000/svg" xmlns:xlink="http://www.w3.org/1999/xlink" viewBox="0 0 201.67 400"><defs><style>.cls-1{isolation:isolate;}.cls-2,.cls-69,.cls-70{fill:#fff;}.cls-10,.cls-11,.cls-12,.cls-13,.cls-14,.cls-15,.cls-16,.cls-17,.cls-18,.cls-19,.cls-2,.cls-20,.cls-21,.cls-22,.cls-23,.cls-24,.cls-25,.cls-26,.cls-27,.cls-28,.cls-29,.cls-3,.cls-30,.cls-31,.cls-32,.cls-33,.cls-34,.cls-35,.cls-36,.cls-37,.cls-38,.cls-39,.cls-4,.cls-40,.cls-41,.cls-42,.cls-43,.cls-44,.cls-45,.cls-46,.cls-47,.cls-48,.cls-49,.cls-5,.cls-50,.cls-51,.cls-52,.cls-53,.cls-54,.cls-55,.cls-56,.cls-57,.cls-58,.cls-59,.cls-6,.cls-60,.cls-61,.cls-62,.cls-63,.cls-64,.cls-65,.cls-66,.cls-7,.cls-8,.cls-9{mix-blend-mode:multiply;}.cls-3{fill:#fefefe;}.cls-4{fill:#fdfdfd;}.cls-5{fill:#fcfcfc;}.cls-6{fill:#fbfbfb;}.cls-7{fill:#fafafa;}.cls-8{fill:#f9f9f9;}.cls-9{fill:#f8f8f8;}.cls-10{fill:#f7f7f7;}.cls-11{fill:#f6f6f6;}.cls-12{fill:#f5f5f5;}.cls-13{fill:#f4f4f4;}.cls-14{fill:#f3f3f3;}.cls-15{fill:#f2f2f2;}.cls-16{fill:#f1f1f1;}.cls-17{fill:#f0f0f0;}.cls-18{fill:#efefef;}.cls-19{fill:#eee;}.cls-20{fill:#ededed;}.cls-21{fill:#ececec;}.cls-22{fill:#ebebeb;}.cls-23{fill:#eaeaea;}.cls-24{fill:#e9e9e9;}.cls-25{fill:#e8e8e8;}.cls-26{fill:#e7e7e7;}.cls-27{fill:#e6e6e6;}.cls-28{fill:#e5e5e5;}.cls-29{fill:#e4e4e4;}.cls-30{fill:#e3e3e3;}.cls-31{fill:#e2e2e2;}.cls-32{fill:#e1e1e1;}.cls-33{fill:#e0e0e0;}.cls-34{fill:#dfdfdf;}.cls-35{fill:#dedede;}.cls-36{fill:#ddd;}.cls-37{fill:#dcdcdc;}.cls-38{fill:#dbdbdb;}.cls-39{fill:#dadada;}.cls-40{fill:#d9d9d9;}.cls-41{fill:#d8d8d8;}.cls-42{fill:#d7d7d7;}.cls-43{fill:#d6d6d6;}.cls-44{fill:#d5d5d5;}.cls-45{fill:#d4d4d4;}.cls-46{fill:#d3d3d3;}.cls-47{fill:#d2d2d2;}.cls-48{fill:#d1d1d1;}.cls-49{fill:#d0d0d0;}.cls-50{fill:#cfcfcf;}.cls-51{fill:#cecece;}.cls-52{fill:#cdcdcd;}.cls-53{fill:#ccc;}.cls-54{fill:#cbcbcb;}.cls-55{fill:#cacaca;}.cls-56{fill:#c9c9c9;}.cls-57{fill:#c8c8c8;}.cls-58{fill:#c7c7c7;}.cls-59{fill:#c6c6c6;}.cls-60{fill:#c5c5c5;}.cls-61{fill:#c4c4c4;}.cls-62{fill:#c3c3c3;}.cls-63{fill:#c2c2c2;}.cls-64{fill:#c1c1c1;}.cls-65{fill:silver;}.cls-66{fill:#bfbfbf;}.cls-67{fill:url(#linear-gradient);}.cls-68,.cls-71{fill:#ffb81c;}.cls-69{fill-rule:evenodd;}.cls-71{font-size:19.36px;font-family:Gotham-Black, Gotham Black;font-weight:800;letter-spacing:0em;}.cls-72{letter-spacing:-0.01em;}.cls-73{letter-spacing:-0.08em;}.cls-74{letter-spacing:0em;}.cls-75{letter-spacing:-0.02em;}.cls-76{letter-spacing:-0.05em;}</style><linearGradient id="linear-gradient" x1="100.77" y1="32.18" x2="100.77" y2="370.67" gradientUnits="userSpaceOnUse"><stop offset="0" stop-color="#18688e"/><stop offset="0.45" stop-color="#112d4f"/><stop offset="1"/></linearGradient></defs><title>SecGraphics-0-4</title><g class="cls-1"><g id="Layer_1" data-name="Layer 1"><path class="cls-2" d="M183.13,324.73a10.58,10.58,0,0,1-7.22,9.58L25.64,377.39c-4,1.14-7.22-1.31-7.22-5.44V29a7.53,7.53,0,0,1,7.51-7.51H175.61A7.53,7.53,0,0,1,183.13,29Z"/><path class="cls-3" d="M182.87,324.68a10.43,10.43,0,0,1-7.13,9.45l-149.94,43c-3.91,1.12-7.12-1.3-7.12-5.37V29.17a7.44,7.44,0,0,1,7.41-7.41H175.45a7.44,7.44,0,0,1,7.42,7.41Z"/><path class="cls-4" d="M182.6,324.63a10.31,10.31,0,0,1-7,9.33L26,376.85c-3.87,1.1-7-1.28-7-5.3V29.37a7.33,7.33,0,0,1,7.31-7.31h149a7.33,7.33,0,0,1,7.31,7.31Z"/><path class="cls-5" d="M182.34,324.58a10.14,10.14,0,0,1-6.93,9.2L26.13,376.57c-3.81,1.1-6.93-1.25-6.93-5.22V29.56a7.24,7.24,0,0,1,7.21-7.21H175.13a7.23,7.23,0,0,1,7.21,7.21Z"/><path class="cls-6" d="M182.08,324.54a10,10,0,0,1-6.83,9.06L26.3,376.3c-3.76,1.08-6.84-1.24-6.84-5.15V29.76a7.13,7.13,0,0,1,7.11-7.11H175a7.13,7.13,0,0,1,7.11,7.11Z"/><path class="cls-7" d="M181.82,324.49a9.89,9.89,0,0,1-6.73,8.94L26.46,376A5,5,0,0,1,19.72,371V30a7,7,0,0,1,7-7H174.81a7,7,0,0,1,7,7Z"/><path class="cls-8" d="M181.56,324.44a9.73,9.73,0,0,1-6.64,8.81L26.62,375.76a4.93,4.93,0,0,1-6.64-5V30.15a6.93,6.93,0,0,1,6.91-6.91H174.65a6.93,6.93,0,0,1,6.91,6.91Z"/><path class="cls-9" d="M181.3,324.39a9.58,9.58,0,0,1-6.54,8.68l-148,42.42a4.87,4.87,0,0,1-6.55-4.93V30.34a6.84,6.84,0,0,1,6.81-6.81H174.49a6.83,6.83,0,0,1,6.81,6.81Z"/><path class="cls-10" d="M181,324.34a9.45,9.45,0,0,1-6.45,8.56L27,375.22a4.79,4.79,0,0,1-6.44-4.86V30.54a6.72,6.72,0,0,1,6.7-6.71H174.33A6.73,6.73,0,0,1,181,30.54Z"/><path class="cls-11" d="M180.78,324.29a9.32,9.32,0,0,1-6.35,8.43L27.12,375a4.72,4.72,0,0,1-6.35-4.79V30.73a6.63,6.63,0,0,1,6.6-6.61h146.8a6.63,6.63,0,0,1,6.61,6.61Z"/><path class="cls-12" d="M180.52,324.24a9.16,9.16,0,0,1-6.26,8.3l-147,42.14A4.65,4.65,0,0,1,21,370v-339a6.52,6.52,0,0,1,6.5-6.5H174a6.53,6.53,0,0,1,6.51,6.5Z"/><path class="cls-13" d="M180.26,324.19a9,9,0,0,1-6.16,8.17L27.44,374.41a4.57,4.57,0,0,1-6.15-4.64V31.12a6.43,6.43,0,0,1,6.4-6.41H173.85a6.43,6.43,0,0,1,6.41,6.41Z"/><path class="cls-14" d="M180,324.14a8.9,8.9,0,0,1-6.06,8.05L27.61,374.13a4.5,4.5,0,0,1-6.06-4.56V31.31a6.32,6.32,0,0,1,6.3-6.3H173.69a6.33,6.33,0,0,1,6.31,6.3Z"/><path class="cls-15" d="M179.74,324.1a8.74,8.74,0,0,1-6,7.91l-146,41.85a4.43,4.43,0,0,1-6-4.49V31.51A6.23,6.23,0,0,1,28,25.3H173.53a6.23,6.23,0,0,1,6.21,6.21Z"/><path class="cls-16" d="M179.48,324.05a8.59,8.59,0,0,1-5.87,7.78L27.94,373.59a4.36,4.36,0,0,1-5.87-4.42V31.7a6.12,6.12,0,0,1,6.1-6.1h145.2a6.13,6.13,0,0,1,6.11,6.1Z"/><path class="cls-17" d="M179.22,324a8.46,8.46,0,0,1-5.78,7.66L28.1,373.32A4.29,4.29,0,0,1,22.33,369V31.9a6,6,0,0,1,6-6H173.21a6,6,0,0,1,6,6Z"/><path class="cls-18" d="M179,324a8.31,8.31,0,0,1-5.67,7.53l-145,41.57a4.22,4.22,0,0,1-5.67-4.28V32.09a5.92,5.92,0,0,1,5.9-5.9H173.05a5.92,5.92,0,0,1,5.9,5.9Z"/><path class="cls-19" d="M178.69,323.9a8.18,8.18,0,0,1-5.57,7.4L28.43,372.78a4.15,4.15,0,0,1-5.58-4.2V32.29a5.82,5.82,0,0,1,5.8-5.8H172.89a5.82,5.82,0,0,1,5.8,5.8Z"/><path class="cls-19" d="M178.43,323.85a8,8,0,0,1-5.48,7.28L28.59,372.51a4.08,4.08,0,0,1-5.48-4.13V32.48a5.72,5.72,0,0,1,5.7-5.7H172.73a5.72,5.72,0,0,1,5.7,5.7Z"/><path class="cls-20" d="M178.17,323.8a7.9,7.9,0,0,1-5.38,7.15l-144,41.29a4,4,0,0,1-5.39-4.06V32.68a5.62,5.62,0,0,1,5.6-5.6h143.6a5.62,5.62,0,0,1,5.6,5.6Z"/><path class="cls-21" d="M177.91,323.75a7.74,7.74,0,0,1-5.29,7L28.92,372a3.93,3.93,0,0,1-5.29-4V32.87a5.52,5.52,0,0,1,5.5-5.5H172.41a5.52,5.52,0,0,1,5.5,5.5Z"/><path class="cls-22" d="M177.65,323.71a7.58,7.58,0,0,1-5.19,6.88L29.09,371.69a3.86,3.86,0,0,1-5.2-3.91V33.07a5.42,5.42,0,0,1,5.4-5.4h143a5.42,5.42,0,0,1,5.4,5.4Z"/><path class="cls-23" d="M23.94,33a5.46,5.46,0,0,1,5.47-5.28H172.33a5.45,5.45,0,0,1,5.27,5.46V323.57a7.69,7.69,0,0,1-5.07,6.93L29.18,371.6c-2.79.8-5.24-.88-5.24-3.78Z"/><path class="cls-24" d="M24,32.94a5.51,5.51,0,0,1,5.53-5.15H172.4a5.5,5.5,0,0,1,5.16,5.52V323.44c0,2.83-2.23,6.19-5,7L29.27,371.5c-2.72.78-5.28-.81-5.28-3.64Z"/><path class="cls-25" d="M24,32.88c0-2.76,2.83-5,5.6-5H172.48c2.77,0,5,2.82,5,5.59V323.3c0,2.77-2.18,6.26-4.84,7L29.37,371.4c-2.66.76-5.33-.73-5.33-3.5Z"/><path class="cls-26" d="M24.08,32.82c0-2.7,3-4.91,5.67-4.91h142.8c2.7,0,4.91,2.95,4.91,5.65V323.17c0,2.7-2.12,6.32-4.72,7.06L29.46,371.3c-2.59.75-5.38-.66-5.38-3.36Z"/><path class="cls-27" d="M24.13,32.76c0-2.63,3.1-4.79,5.74-4.79H172.63c2.63,0,4.79,3.08,4.79,5.71V323c0,2.64-2.08,6.38-4.61,7.11L29.56,371.2c-2.53.73-5.43-.59-5.43-3.23Z"/><path class="cls-28" d="M24.18,32.7c0-2.56,3.23-4.66,5.8-4.66H172.7c2.57,0,4.67,3.2,4.67,5.76V322.9c0,2.56-2,6.44-4.48,7.15L29.65,371.11c-2.46.7-5.47-.53-5.47-3.1Z"/><path class="cls-29" d="M24.22,32.64c0-2.5,3.38-4.54,5.87-4.54H172.78c2.5,0,4.54,3.33,4.54,5.83V322.76c0,2.5-2,6.51-4.36,7.2L29.75,371c-2.4.69-5.53-.46-5.53-3Z"/><path class="cls-30" d="M24.27,32.58c0-2.43,3.51-4.42,5.94-4.42H172.86c2.43,0,4.41,3.46,4.41,5.89V322.63c0,2.43-1.91,6.57-4.24,7.24l-143.19,41c-2.33.67-5.57-.39-5.57-2.82Z"/><path class="cls-31" d="M24.32,32.52c0-2.37,3.64-4.3,6-4.3H172.93c2.36,0,4.3,3.59,4.3,6V322.5c0,2.36-1.86,6.62-4.13,7.27l-143.16,41c-2.27.65-5.62-.32-5.62-2.68Z"/><path class="cls-32" d="M24.37,32.46c0-2.3,3.77-4.18,6.07-4.18H173c2.29,0,4.17,3.72,4.17,6V322.36c0,2.3-1.81,6.69-4,7.32L30,370.71c-2.2.64-5.66-.25-5.66-2.54Z"/><path class="cls-33" d="M24.41,32.39c0-2.22,3.91-4.05,6.14-4.05H173.08c2.23,0,4,3.85,4,6.08V322.23c0,2.22-1.75,6.75-3.89,7.36l-143.11,41c-2.14.61-5.72-.19-5.72-2.42Z"/><path class="cls-34" d="M24.46,32.33c0-2.16,4.05-3.92,6.21-3.92H173.16c2.16,0,3.92,4,3.92,6.13V322.09c0,2.16-1.69,6.82-3.77,7.41l-143.09,41c-2.07.59-5.76-.12-5.76-2.28Z"/><path class="cls-35" d="M24.51,32.27c0-2.09,4.18-3.8,6.27-3.8H173.23c2.1,0,3.81,4.1,3.81,6.2V322c0,2.09-1.65,6.87-3.66,7.45l-143.06,41c-2,.58-5.81-.05-5.81-2.14Z"/><path class="cls-36" d="M24.56,32.21c0-2,4.31-3.68,6.33-3.68H173.31c2,0,3.68,4.23,3.68,6.26v287c0,2-1.59,6.94-3.54,7.5l-143,41c-1.94.56-5.85,0-5.85-2Z"/><path class="cls-37" d="M24.6,32.15c0-2,4.45-3.56,6.41-3.56H173.38c2,0,3.56,4.36,3.56,6.32V321.69c0,2-1.54,7-3.42,7.54l-143,41c-1.88.54-5.91.1-5.91-1.86Z"/><path class="cls-38" d="M24.65,32.09c0-1.89,4.58-3.44,6.47-3.44H173.46c1.89,0,3.44,4.49,3.44,6.38V321.55c0,1.89-1.49,7.07-3.31,7.59l-143,41c-1.81.52-6,.16-6-1.73Z"/><path class="cls-39" d="M24.7,32c0-1.82,4.71-3.32,6.54-3.32H173.53c1.83,0,3.32,4.62,3.32,6.45V321.42c0,1.82-1.43,7.12-3.19,7.63l-143,41c-1.75.5-6,.23-6-1.59Z"/><path class="cls-40" d="M24.74,32c0-1.76,4.86-3.19,6.61-3.19H173.61c1.76,0,3.19,4.75,3.19,6.5v286c0,1.75-1.38,7.18-3.07,7.66l-142.94,41c-1.68.48-6.05.3-6.05-1.46Z"/><path class="cls-41" d="M24.79,31.91c0-1.69,5-3.07,6.68-3.07H173.69c1.68,0,3.06,4.88,3.06,6.56V321.15c0,1.69-1.32,7.25-2.95,7.71l-142.91,41c-1.62.47-6.1.37-6.1-1.32Z"/><path class="cls-42" d="M24.84,31.84c0-1.62,5.12-2.94,6.74-2.94H173.76c1.62,0,3,5,3,6.63V321c0,1.62-1.28,7.31-2.83,7.75L31,369.73c-1.55.45-6.14.44-6.14-1.18Z"/><path class="cls-43" d="M24.89,31.78c0-1.55,5.25-2.82,6.8-2.82H173.84c1.55,0,2.82,5.14,2.82,6.69V320.88c0,1.55-1.22,7.37-2.71,7.8l-142.87,41c-1.49.42-6.19.5-6.19-1.05Z"/><path class="cls-44" d="M24.93,31.72c0-1.48,5.39-2.7,6.88-2.7h142.1c1.49,0,2.7,5.27,2.7,6.75v285c0,1.48-1.17,7.43-2.59,7.84l-142.85,41c-1.42.41-6.24.57-6.24-.91Z"/><path class="cls-45" d="M25,31.66c0-1.42,5.52-2.58,6.94-2.58H174c1.42,0,2.57,5.4,2.57,6.82V320.61c0,1.42-1.11,7.5-2.47,7.89L31.27,369.44c-1.36.39-6.29.64-6.29-.77Z"/><path class="cls-46" d="M25,31.6c0-1.35,5.66-2.45,7-2.45h142c1.35,0,2.46,5.52,2.46,6.87V320.48c0,1.35-1.06,7.56-2.36,7.93L31.36,369.34c-1.29.37-6.33.71-6.33-.64Z"/><path class="cls-47" d="M25.08,31.54c0-1.28,5.79-2.33,7.07-2.33h142c1.28,0,2.33,5.65,2.33,6.93v284.2c0,1.29-1,7.62-2.24,8L31.46,369.24c-1.23.36-6.38.78-6.38-.5Z"/><path class="cls-48" d="M25.12,31.48c0-1.22,5.93-2.21,7.15-2.21H174.21c1.22,0,2.21,5.78,2.21,7v284c0,1.21-.95,7.68-2.12,8L31.55,369.15c-1.17.33-6.43.85-6.43-.37Z"/><path class="cls-49" d="M25.17,31.42c0-1.15,6.06-2.09,7.21-2.09H174.29c1.15,0,2.09,5.91,2.09,7.06V320.08c0,1.14-.91,7.74-2,8.05L31.65,369.05c-1.11.31-6.48.92-6.48-.23Z"/><path class="cls-50" d="M25.22,31.36c0-1.08,6.19-2,7.27-2H174.37c1.08,0,2,6,2,7.12V319.94c0,1.08-.85,7.81-1.89,8.1L31.74,369c-1,.3-6.52,1-6.52-.09Z"/><path class="cls-51" d="M25.26,31.29c0-1,6.34-1.84,7.35-1.84H174.44c1,0,1.84,6.17,1.84,7.18V319.81c0,1-.79,7.86-1.77,8.14L31.84,368.85c-1,.28-6.58,1.06-6.58,0Z"/><path class="cls-52" d="M25.31,31.23c0-.94,6.47-1.71,7.41-1.71h141.8c.94,0,1.71,6.29,1.71,7.24V319.67c0,.95-.74,7.93-1.65,8.19L31.93,368.75c-.91.26-6.62,1.13-6.62.18Z"/><path class="cls-53" d="M25.36,31.17c0-.87,6.6-1.59,7.48-1.59H174.59c.88,0,1.6,6.42,1.6,7.3V319.54c0,.88-.69,8-1.54,8.23L32,368.66c-.85.24-6.67,1.19-6.67.31Z"/><path class="cls-54" d="M25.41,31.11c0-.81,6.73-1.47,7.54-1.47H174.67c.81,0,1.47,6.55,1.47,7.36V319.4c0,.81-.64,8.06-1.42,8.28L32.12,368.56c-.78.22-6.71,1.26-6.71.45Z"/><path class="cls-55" d="M25.45,31.05c0-.74,6.87-1.35,7.62-1.35H174.74c.75,0,1.35,6.68,1.35,7.42V319.27c0,.74-.58,8.11-1.3,8.32L32.22,368.46c-.72.2-6.77,1.33-6.77.59Z"/><path class="cls-56" d="M25.5,31c0-.68,7-1.23,7.68-1.23H174.82c.67,0,1.23,6.81,1.23,7.49V319.13c0,.68-.54,8.18-1.18,8.37L32.31,368.36c-.65.19-6.81,1.4-6.81.73Z"/><path class="cls-57" d="M25.55,30.93c0-.61,7.14-1.11,7.74-1.11h141.6c.61,0,1.11,6.94,1.11,7.55V319c0,.61-.48,8.24-1.06,8.41L32.41,368.26c-.59.17-6.86,1.47-6.86.87Z"/><path class="cls-58" d="M25.59,30.87c0-.54,7.28-1,7.82-1H175c.54,0,1,7.06,1,7.6V318.87c0,.54-.42,8.3-.94,8.44L32.5,368.17c-.52.14-6.91,1.53-6.91,1Z"/><path class="cls-59" d="M25.64,30.81c0-.48,7.41-.86,7.88-.86H175c.48,0,.86,7.19.86,7.67V318.73c0,.47-.37,8.36-.82,8.49L32.6,368.07c-.46.13-7,1.6-7,1.13Z"/><path class="cls-60" d="M25.69,30.74c0-.4,7.54-.73,8-.73H175.12c.4,0,.74,7.32.74,7.73V318.6c0,.4-.32,8.42-.71,8.53L32.69,368c-.39.11-7,1.68-7,1.27Z"/><path class="cls-61" d="M25.74,30.68c0-.33,7.67-.61,8-.61H175.2c.33,0,.61,7.46.61,7.79v280.6c0,.34-.27,8.49-.59,8.58L32.79,367.87c-.33.09-7,1.75-7,1.41Z"/><path class="cls-62" d="M25.78,30.62c0-.27,7.82-.49,8.09-.49h141.4c.27,0,.49,7.59.49,7.86V318.33c0,.27-.21,8.55-.47,8.62L32.88,367.77c-.26.08-7.1,1.82-7.1,1.55Z"/><path class="cls-63" d="M25.83,30.56c0-.2,8-.37,8.15-.37H175.35c.2,0,.36,7.72.36,7.92V318.19c0,.21-.15,8.61-.35,8.67L33,367.68c-.2.05-7.15,1.88-7.15,1.68Z"/><path class="cls-64" d="M25.88,30.5c0-.13,8.08-.24,8.21-.24H175.42c.14,0,.25,7.84.25,8V318.06c0,.13-.11,8.67-.24,8.71L33.07,367.58c-.13,0-7.19,1.95-7.19,1.81Z"/><path class="cls-65" d="M25.93,30.44c0-.07,8.21-.12,8.28-.12H175.5c.06,0,.12,8,.12,8V317.92c0,.07-.05,8.74-.12,8.76L33.17,367.48c-.07,0-7.24,2-7.24,1.95Z"/><polygon class="cls-66" points="175.57 326.59 25.97 369.47 25.97 30.38 175.57 30.38 175.57 326.59"/><polygon class="cls-67" points="175.77 314.93 25.77 357.93 25.77 29.92 175.77 29.92 175.77 314.93 175.77 314.93"/><polygon class="cls-68" points="175.77 314.93 25.77 357.93 25.77 369.93 175.77 326.92 175.77 314.93 175.77 314.93"/><polygon class="cls-69" points="65.77 223.93 65.77 222.92 136.77 222.92 136.77 223.93 126.61 223.93 65.77 223.93 65.77 223.93"/><path class="cls-70" d="M122.42,209l-8.61-8.53V198.6L124.26,209Zm-2.64,0-6-5.9v-1.85l7.83,7.75Zm-2.64,0-3.31-3.28v-1.83L119,209Zm.59-7.19-.92-.92,7.17-7.19v1.83l-6.26,6.28Zm-1.32-1.31-.92-.92L126.6,188.4v1.84l-10.2,10.23Zm-1.33-1.31-.92-.92,9.8-9.83v1.84l-8.89,8.91ZM88.45,209.4a7.07,7.07,0,1,1,7-7.09,6.85,6.85,0,0,1-7,7.09Zm0-12.42a5.37,5.37,0,1,0,5.11,5.34A5.06,5.06,0,0,0,88.41,197Zm14.92,12.38a7.07,7.07,0,1,1,7-7.09,6.86,6.86,0,0,1-7,7.09Zm0-12.43a5.37,5.37,0,1,0,5.11,5.34,5.06,5.06,0,0,0-5.11-5.34Zm21.54,12,0-13.45h1.83l0,11.74,6.72,0v1.71l-8.55,0Zm20.3-.07-4.57-11.08h0L136,208.91H134l5.64-13.47h2l5.61,13.44Zm-33.78.11,0-13.45h1.85l0,13.46Z"/><path class="cls-70" d="M60.19,209.31a4.2,4.2,0,0,1-3.56-2v1.78H55.24V196h1.39v5.71a4.16,4.16,0,0,1,3.56-2.07,4.54,4.54,0,0,1,4.45,4.82v0a4.56,4.56,0,0,1-4.45,4.84Zm3-4.86a3.35,3.35,0,0,0-3.28-3.6,3.47,3.47,0,0,0-3.37,3.58v0a3.47,3.47,0,0,0,3.37,3.6,3.29,3.29,0,0,0,3.28-3.59v0Zm8.06,5c-.79,1.93-1.69,2.63-3.1,2.63a4.19,4.19,0,0,1-2-.47l.47-1.1a2.84,2.84,0,0,0,1.46.34c.83,0,1.35-.43,1.91-1.74l-4.23-9.28h1.53l3.38,7.76,3-7.76h1.48l-3.91,9.62Z"/><path class="cls-70" d="M46,172.67c3,.78,4.66,1.85,4.66,4.41v0c0,2.92-2.23,4.56-5.4,4.56A9.36,9.36,0,0,1,39,179.33L40.93,177a6.74,6.74,0,0,0,4.39,1.78c1.32,0,2.12-.52,2.12-1.38v0c0-.82-.51-1.24-3-1.87-3-.76-4.87-1.58-4.87-4.5v0c0-2.67,2.14-4.43,5.14-4.43a8.5,8.5,0,0,1,5.46,1.87l-1.68,2.43a6.89,6.89,0,0,0-3.82-1.44c-1.24,0-1.89.56-1.89,1.28v0c0,1,.63,1.28,3.17,1.93Zm13.16,4.39H56.7v4.41H53.47v-14.7h6c3.51,0,5.63,2.08,5.63,5.08v0c0,3.4-2.65,5.17-5.95,5.17Zm2.67-5.15c0-1.44-1-2.22-2.62-2.22H56.7v4.49h2.56A2.27,2.27,0,0,0,61.82,172v-.05Zm16.87,6.68v2.88H67.49v-14.7H78.58v2.88H70.71v3h6.93v2.88H70.71v3.08Zm14.07,0v2.88H81.56v-14.7H92.65v2.88H84.78v3H91.7v2.88H84.78v3.08Zm8.61,2.88H95.63v-14.7h5.74c4.62,0,7.81,3.17,7.81,7.31v0c0,4.14-3.19,7.35-7.81,7.35Zm4.43-7.35a4.23,4.23,0,0,0-4.43-4.43h-2.5v8.86h2.5a4.19,4.19,0,0,0,4.43-4.39v0Zm12.07-4.37v11.72h-3.23V169.75h-4.47v-3h12.17v3ZM136,178.59v2.88h-11.2v-14.7h11.09v2.88H128v3H135v2.88H128v3.08Zm8.84-5.92c3,.78,4.66,1.85,4.66,4.41v0c0,2.92-2.23,4.56-5.4,4.56a9.36,9.36,0,0,1-6.23-2.35L139.8,177a6.72,6.72,0,0,0,4.38,1.78c1.33,0,2.13-.52,2.13-1.38v0c0-.82-.51-1.24-3-1.87-3-.76-4.88-1.58-4.88-4.5v0c0-2.67,2.15-4.43,5.15-4.43a8.5,8.5,0,0,1,5.46,1.87l-1.68,2.43a6.94,6.94,0,0,0-3.82-1.44c-1.24,0-1.89.56-1.89,1.28v0c0,1,.63,1.28,3.17,1.93Zm13.81-2.92v11.72h-3.23V169.75H151v-3h12.18v3Z"/><path class="cls-70" d="M100.66,155.43c-22.29,0-40.36-17.81-40.36-39.78s18.07-39.78,40.36-39.78S141,93.68,141,115.65,123,155.43,100.66,155.43Zm0-33.77,15.66-18.32-2.69-2.65L95,116.12l5.63,5.54Zm0-37.37a32.06,32.06,0,0,0-32.29,31.83,31.5,31.5,0,0,0,9.46,22.5L82,134.53a25.77,25.77,0,0,1-7.74-18.41,26.42,26.42,0,0,1,52.84,0,25.77,25.77,0,0,1-7.74,18.41l4.15,4.09a31.46,31.46,0,0,0,9.46-22.5,32.06,32.06,0,0,0-32.29-31.83ZM84.88,71.46h-3L60.77,39.93h31l21.58,31.53Zm33,.11-15.74-23.4,5.68-8.24h33L117.83,71.57Z"/><text class="cls-71" transform="translate(46.1 251.35)">AMERI<tspan class="cls-72" x="65.25" y="0">C</tspan><tspan class="cls-73" x="79.25" y="0">A</tspan><tspan x="93.07" y="0">’S</tspan><tspan class="cls-74"><tspan x="29.73" y="19.56">BE</tspan><tspan class="cls-75" x="56.45" y="19.56">S</tspan><tspan x="68.66" y="19.56">T</tspan><tspan x="4.65" y="39.12">INTERNET</tspan></tspan><tspan x="3.23" y="58.68">PR</tspan><tspan class="cls-76" x="30.14" y="58.68">O</tspan><tspan x="45.33" y="58.68">VIDER</tspan></text></g></g></svg>