<svg id="Mobile_AppIcon" xmlns="http://www.w3.org/2000/svg" xmlns:xlink="http://www.w3.org/1999/xlink" viewBox="0 0 1024 1024"><defs><style>.cls-1{fill:#fff;}.cls-1,.cls-4,.cls-6,.cls-8,.cls-9{fill-rule:evenodd;}.cls-2{fill:url(#linear-gradient);}.cls-3{mask:url(#mask);}.cls-4{fill:#030404;}.cls-5{mask:url(#mask-2);}.cls-6{fill:url(#linear-gradient-2);}.cls-7{mask:url(#mask-3);}.cls-8{fill:url(#linear-gradient-3);}.cls-9{fill:#080d18;}</style><linearGradient id="linear-gradient" x1="1.75" y1="1022.25" x2="1022.25" y2="1.75" gradientUnits="userSpaceOnUse"><stop offset="0" stop-color="#fbfcfc"/><stop offset="1" stop-color="#ebeef0"/></linearGradient><mask id="mask" x="347.38" y="448.8" width="332.59" height="332.59" maskUnits="userSpaceOnUse"><g id="mask-5"><path id="path-4" class="cls-1" d="M512.76,457.88c-43.57.31-80.43,15.85-110.9,46.62-30.47,31.08-45.7,68.24-45.4,111.51,0,43.56,15.85,80.43,46.62,110.9,31.07,30.77,68.24,45.7,111.51,45.39,43.57-.3,80.43-15.84,110.9-46.61,30.77-31.08,45.7-68.25,45.4-111.51S655,534.05,624.27,503C593.5,473.11,556.75,457.88,514,457.88Zm-78,237.65c-21.93-21.64-32.9-48.14-33.2-79.22s10.66-57.58,32.29-79.52c21.63-22.24,48.14-33.21,79.21-33.51,30.78-.31,57.59,10.36,79.22,32.3,22.24,21.63,33.21,48.13,33.51,79.21s-10.66,57.58-32.29,79.52c-21.64,22.24-48.14,33.21-79.22,33.51H513C482.79,727.83,456.4,716.86,434.76,695.53Z"/></g></mask><mask id="mask-2" x="380.6" y="323.3" width="261.92" height="93.29" maskUnits="userSpaceOnUse"><g id="mask-10"><path id="path-9" class="cls-1" d="M387.41,376a23.9,23.9,0,0,0,.3,33.72,23.48,23.48,0,0,0,33.47-.31,127.56,127.56,0,0,1,181.06-1.23A22.16,22.16,0,0,0,619,415a23.76,23.76,0,0,0,16.43-40.77,174.89,174.89,0,0,0-121.1-50.87h-1.2A175,175,0,0,0,387.41,376"/></g></mask><linearGradient id="linear-gradient-2" x1="-1964.46" y1="819.72" x2="-1963.5" y2="819.69" gradientTransform="matrix(261.92, 0, 0, -93.29, 514906.2, 76840.71)" gradientUnits="userSpaceOnUse"><stop offset="0" stop-color="#26a7dc"/><stop offset="1" stop-color="#466bb3"/></linearGradient><mask id="mask-3" x="380.64" y="815.69" width="262.18" height="93.3" maskUnits="userSpaceOnUse"><g id="mask-16"><path id="path-15" class="cls-1" d="M388,822.55a24,24,0,0,0-.61,34,175,175,0,0,0,248.3,1.54,23.76,23.76,0,0,0-16.43-40.77,23.37,23.37,0,0,0-16.74,6.75,127.55,127.55,0,0,1-181-1.23,23.48,23.48,0,0,0-33.47-.3"/></g></mask><linearGradient id="linear-gradient-3" x1="-1964.47" y1="819.7" x2="-1963.51" y2="819.73" gradientTransform="matrix(262.18, 0, 0, -93.3, 515431.13, 77342.76)" xlink:href="#linear-gradient-2"/></defs><title>SecGraphics-0-6</title><rect id="Background" class="cls-2" width="1024" height="1024" rx="237.6"/><g id="Opin_Symbol" data-name="Opin Symbol"><g class="cls-3"><polygon id="Fill-1" class="cls-4" points="347.38 781.39 679.97 781.39 679.97 448.8 347.38 448.8 347.38 781.39"/></g><g class="cls-5"><path id="Fill-7" class="cls-6" d="M387.41,376a23.9,23.9,0,0,0,.3,33.72,23.48,23.48,0,0,0,33.47-.31,127.56,127.56,0,0,1,181.06-1.23A22.16,22.16,0,0,0,619,415a23.76,23.76,0,0,0,16.43-40.77,174.89,174.89,0,0,0-121.1-50.87h-1.2A175,175,0,0,0,387.41,376"/></g><g class="cls-7"><path id="Fill-13" class="cls-8" d="M388,822.55a24,24,0,0,0-.61,34,175,175,0,0,0,248.3,1.54,23.76,23.76,0,0,0-16.43-40.77,23.37,23.37,0,0,0-16.74,6.75,127.55,127.55,0,0,1-181-1.23,23.48,23.48,0,0,0-33.47-.3"/></g></g><path id="Xfinity_Logo" data-name="Xfinity Logo" class="cls-9" d="M386.23,151v66H402.5V151h20.86V136.5H402.5v-6c0-13.75,8.22-18.33,16.27-18.33a19.2,19.2,0,0,1,5.53.79l3.32-14.38A28.42,28.42,0,0,0,417.51,97c-20.22,0-31.28,15-31.28,33.18v6.32h-8.54L367.42,151Zm225.62,37.44c0,17.54,10.74,30,30,30a41.29,41.29,0,0,0,11.85-1.58L650.4,202.7a33,33,0,0,1-7.42.79c-7.9,0-14.86-4.26-14.86-15.32V151h22.76l-6.64-14.54H628.12V104.11l-16.27,7.11V136.5H594.63V151h17.22ZM472,136.5v80.58h16.27v-55.3c5.06-7.11,12.33-11.53,21.33-11.53,12,0,20.23,7.58,20.23,22.75v36.34a7.34,7.34,0,0,0,7.58,7.74h8.69V170.15c0-20.85-13.27-35.39-32.55-35.39a36.33,36.33,0,0,0-25.28,9.64v-7.9Zm211.09,109L742,136.5h-8.85c-5.37,0-9.48,1.58-11.69,5.69l-23.22,43.13-20.07-43.13c-2.05-4.27-6.32-5.69-11.69-5.69H658l31,65.73-27,49.29h8.84C676.31,251.52,680.74,249.79,683.11,245.52Zm-246.8-28.44h16.28V136.5H436.31Zm129.09,0h16.27V136.5H565.4Zm-230.21-42L364,136.5h-12c-5.37,0-8.85,1.9-11.69,5.69l-15.17,20.38-14.69-20.38c-2.85-3.79-6.32-5.69-11.7-5.69h-12l28.44,38.55-31.13,42h11.38c5.37,0,8.84-1.9,11.69-5.69l18-23.86,42.19,58.31c2.68,3.79,6.32,5.68,11.69,5.68h12.32Z"/></svg>