<svg id="Layer_1" data-name="Layer 1" xmlns="http://www.w3.org/2000/svg" xmlns:xlink="http://www.w3.org/1999/xlink" viewBox="0 0 1024 1024"><defs><style>.cls-1{fill:#fff;}.cls-1,.cls-2,.cls-7{fill-rule:evenodd;}.cls-2{fill:url(#linear-gradient);}.cls-3{mask:url(#mask);}.cls-4{fill:url(#linear-gradient-2);}.cls-5{fill:url(#linear-gradient-3);}.cls-6{fill:none;}.cls-7,.cls-8{fill:#fbfcfc;}</style><linearGradient id="linear-gradient" x1="-98.9" y1="908.11" x2="-97.9" y2="907.11" gradientTransform="matrix(1024, 0, 0, -1024, 101277, 929908)" gradientUnits="userSpaceOnUse"><stop offset="0" stop-color="#1f232e"/><stop offset="1" stop-color="#080d18"/></linearGradient><mask id="mask" x="0" y="0" width="1024" height="1024" maskUnits="userSpaceOnUse"><g id="mask-3"><path id="path-2" class="cls-1" d="M357,0H667c102.8,0,154.19,0,209.53,17.49a217.51,217.51,0,0,1,130,130C1024,202.81,1024,254.22,1024,357V667c0,102.8,0,154.19-17.49,209.53a217.47,217.47,0,0,1-130,130C821.18,1024,769.79,1024,667,1024H357c-102.8,0-154.2,0-209.53-17.5a217.47,217.47,0,0,1-130-130C0,821.18,0,769.79,0,667V357c0-102.79,0-154.2,17.49-209.53a217.51,217.51,0,0,1,130-130C202.81,0,254.21,0,357,0h0"/></g></mask><linearGradient id="linear-gradient-2" x1="-97.83" y1="907.2" x2="-98.83" y2="908.2" gradientTransform="matrix(580, 0, 0, -580, 57546, 527081)" gradientUnits="userSpaceOnUse"><stop offset="0" stop-color="#0272b6"/><stop offset="1" stop-color="#2b9cd8"/></linearGradient><linearGradient id="linear-gradient-3" x1="-98.8" y1="908.24" x2="-97.8" y2="907.24" gradientTransform="matrix(493, 0, 0, -493, 48976.5, 448128.5)" xlink:href="#linear-gradient"/></defs><title>SecGraphics-0-7</title><g id="Remote"><g id="IOS_Icon" data-name="IOS Icon"><g id="Stream"><g id="Base"><path class="cls-2" d="M357,0H667c102.8,0,154.19,0,209.53,17.49a217.51,217.51,0,0,1,130,130C1024,202.81,1024,254.22,1024,357V667c0,102.8,0,154.19-17.49,209.53a217.47,217.47,0,0,1-130,130C821.18,1024,769.79,1024,667,1024H357c-102.8,0-154.2,0-209.53-17.5a217.47,217.47,0,0,1-130-130C0,821.18,0,769.79,0,667V357c0-102.79,0-154.2,17.49-209.53a217.51,217.51,0,0,1,130-130C202.81,0,254.21,0,357,0h0"/></g><g class="cls-3"><g id="Icon"><circle id="Color_Circle" data-name="Color Circle" class="cls-4" cx="515" cy="615" r="290"/><g id="Solid_Circle" data-name="Solid Circle"><circle id="path-5" cx="515" cy="615" r="246.5"/><circle class="cls-5" cx="515" cy="615" r="246.5"/></g></g><g id="Glyph"><rect id="Bounding-Box-For-Scaling" class="cls-6" x="341" y="441" width="348" height="348"/><path id="Combined-Shape" class="cls-7" d="M567.26,513.46H462.74l49.7-49.7a3.63,3.63,0,0,1,5.12,0Zm49.2,49.2,49.78,49.78a3.63,3.63,0,0,1,0,5.12l-49.78,49.78Zm-49.12,153.8-49.78,49.78a3.63,3.63,0,0,1-5.12,0l-49.78-49.78Zm-153.88-49.2-49.7-49.7a3.63,3.63,0,0,1,0-5.12l49.7-49.7Z"/><circle id="Oval" class="cls-8" cx="515" cy="615" r="43.5"/></g></g><g class="cls-3"><path id="Fill-1" class="cls-1" d="M384.23,151v66H400.5V151h20.86V136.5H400.5v-6c0-13.75,8.22-18.33,16.27-18.33a19.2,19.2,0,0,1,5.53.79l3.32-14.38A28.42,28.42,0,0,0,415.51,97c-20.22,0-31.28,15-31.28,33.18v6.32h-8.54L365.42,151Zm225.62,37.44c0,17.54,10.74,30,30,30a41.29,41.29,0,0,0,11.85-1.58L648.4,202.7a33,33,0,0,1-7.42.79c-7.9,0-14.86-4.26-14.86-15.32V151h22.76l-6.64-14.54H626.12V104.11l-16.27,7.11V136.5H592.63V151h17.22ZM470,136.5v80.58h16.27v-55.3c5.06-7.11,12.33-11.53,21.33-11.53,12,0,20.23,7.58,20.23,22.75v36.34a7.34,7.34,0,0,0,7.58,7.74h8.69V170.15c0-20.85-13.27-35.39-32.55-35.39a36.33,36.33,0,0,0-25.28,9.64v-7.9Zm211.09,109L740,136.5h-8.85c-5.37,0-9.48,1.58-11.69,5.69l-23.22,43.13-20.07-43.13c-2.05-4.27-6.32-5.69-11.69-5.69H656l31,65.73-27,49.29h8.84C674.31,251.52,678.74,249.79,681.11,245.52Zm-246.8-28.44h16.28V136.5H434.31Zm129.09,0h16.27V136.5H563.4Zm-230.21-42L362,136.5h-12c-5.37,0-8.85,1.9-11.69,5.69l-15.17,20.38-14.69-20.38c-2.85-3.79-6.32-5.69-11.7-5.69h-12l28.44,38.55-31.13,42h11.38c5.37,0,8.84-1.9,11.69-5.69l18-23.86,42.19,58.31c2.68,3.79,6.32,5.68,11.69,5.68h12.32Z"/></g></g></g></g></svg>