<svg xmlns="http://www.w3.org/2000/svg" xmlns:xlink="http://www.w3.org/1999/xlink" viewBox="0 0 520 444"><defs><style>.cls-1{isolation:isolate;}.cls-2,.cls-3,.cls-70{fill:#fff;}.cls-10,.cls-11,.cls-12,.cls-13,.cls-14,.cls-15,.cls-16,.cls-17,.cls-18,.cls-19,.cls-20,.cls-21,.cls-22,.cls-23,.cls-24,.cls-25,.cls-26,.cls-27,.cls-28,.cls-29,.cls-3,.cls-30,.cls-31,.cls-32,.cls-33,.cls-34,.cls-35,.cls-36,.cls-37,.cls-38,.cls-39,.cls-4,.cls-40,.cls-41,.cls-42,.cls-43,.cls-44,.cls-45,.cls-46,.cls-47,.cls-48,.cls-49,.cls-5,.cls-50,.cls-51,.cls-52,.cls-53,.cls-54,.cls-55,.cls-56,.cls-57,.cls-58,.cls-59,.cls-6,.cls-60,.cls-61,.cls-62,.cls-63,.cls-64,.cls-65,.cls-66,.cls-67,.cls-7,.cls-8,.cls-9{mix-blend-mode:multiply;}.cls-4{fill:#fefefe;}.cls-5{fill:#fdfdfd;}.cls-6{fill:#fcfcfc;}.cls-7{fill:#fbfbfb;}.cls-8{fill:#fafafa;}.cls-9{fill:#f9f9f9;}.cls-10{fill:#f8f8f8;}.cls-11{fill:#f7f7f7;}.cls-12{fill:#f6f6f6;}.cls-13{fill:#f5f5f5;}.cls-14{fill:#f4f4f4;}.cls-15{fill:#f3f3f3;}.cls-16{fill:#f2f2f2;}.cls-17{fill:#f1f1f1;}.cls-18{fill:#f0f0f0;}.cls-19{fill:#efefef;}.cls-20{fill:#eee;}.cls-21{fill:#ededed;}.cls-22{fill:#ececec;}.cls-23{fill:#ebebeb;}.cls-24{fill:#eaeaea;}.cls-25{fill:#e9e9e9;}.cls-26{fill:#e8e8e8;}.cls-27{fill:#e7e7e7;}.cls-28{fill:#e6e6e6;}.cls-29{fill:#e5e5e5;}.cls-30{fill:#e4e4e4;}.cls-31{fill:#e3e3e3;}.cls-32{fill:#e2e2e2;}.cls-33{fill:#e1e1e1;}.cls-34{fill:#e0e0e0;}.cls-35{fill:#dfdfdf;}.cls-36{fill:#dedede;}.cls-37{fill:#ddd;}.cls-38{fill:#dcdcdc;}.cls-39{fill:#dbdbdb;}.cls-40{fill:#dadada;}.cls-41{fill:#d9d9d9;}.cls-42{fill:#d8d8d8;}.cls-43{fill:#d7d7d7;}.cls-44{fill:#d6d6d6;}.cls-45{fill:#d5d5d5;}.cls-46{fill:#d4d4d4;}.cls-47{fill:#d3d3d3;}.cls-48{fill:#d2d2d2;}.cls-49{fill:#d1d1d1;}.cls-50{fill:#d0d0d0;}.cls-51{fill:#cfcfcf;}.cls-52{fill:#cecece;}.cls-53{fill:#cdcdcd;}.cls-54{fill:#ccc;}.cls-55{fill:#cbcbcb;}.cls-56{fill:#cacaca;}.cls-57{fill:#c9c9c9;}.cls-58{fill:#c8c8c8;}.cls-59{fill:#c7c7c7;}.cls-60{fill:#c6c6c6;}.cls-61{fill:#c5c5c5;}.cls-62{fill:#c4c4c4;}.cls-63{fill:#c3c3c3;}.cls-64{fill:#c2c2c2;}.cls-65{fill:#c1c1c1;}.cls-66{fill:silver;}.cls-67{fill:#bfbfbf;}.cls-68{fill:url(#linear-gradient);}.cls-69,.cls-71{fill:#ffb81c;}.cls-70{fill-rule:evenodd;}.cls-71,.cls-78{font-size:19.36px;font-family:Gotham-Bold, Gotham;font-weight:700;letter-spacing:0em;}.cls-72{letter-spacing:-0.08em;}.cls-73{letter-spacing:-0.02em;}.cls-74{letter-spacing:0em;}.cls-75{letter-spacing:-0.05em;}.cls-76{fill:url(#linear-gradient-2);}.cls-77,.cls-78{fill:#bcbcbc;}</style><linearGradient id="linear-gradient" x1="149.22" y1="55.32" x2="149.22" y2="393.8" gradientUnits="userSpaceOnUse"><stop offset="0" stop-color="#18688e"/><stop offset="0.45" stop-color="#112d4f"/><stop offset="1"/></linearGradient><linearGradient id="linear-gradient-2" x1="370.22" y1="55.32" x2="370.22" y2="393.8" gradientUnits="userSpaceOnUse"><stop offset="0" stop-color="#545454"/><stop offset="0.45" stop-color="#282828"/><stop offset="1"/></linearGradient></defs><title>BrandHub-VectorGraphics</title><g class="cls-1"><g id="Vector"><rect class="cls-2" x="-0.12" y="-0.31" width="520" height="444"/><path class="cls-3" d="M231.57,347.86a10.57,10.57,0,0,1-7.22,9.58L74.09,400.52c-4,1.14-7.23-1.31-7.23-5.44v-343a7.54,7.54,0,0,1,7.52-7.51H224.06a7.53,7.53,0,0,1,7.51,7.51Z"/><path class="cls-4" d="M231.31,347.81a10.46,10.46,0,0,1-7.12,9.46l-149.94,43c-3.92,1.12-7.12-1.29-7.12-5.37V52.31a7.43,7.43,0,0,1,7.41-7.42H223.9a7.43,7.43,0,0,1,7.41,7.42Z"/><path class="cls-5" d="M231.05,347.77a10.29,10.29,0,0,1-7,9.32L74.41,400c-3.86,1.11-7-1.28-7-5.3V52.5a7.33,7.33,0,0,1,7.31-7.31h149a7.33,7.33,0,0,1,7.31,7.31Z"/><path class="cls-6" d="M230.79,347.72a10.15,10.15,0,0,1-6.93,9.19L74.58,399.71c-3.81,1.09-6.93-1.26-6.93-5.23V52.69a7.23,7.23,0,0,1,7.21-7.21H223.58a7.24,7.24,0,0,1,7.21,7.21Z"/><path class="cls-7" d="M230.53,347.67a10,10,0,0,1-6.84,9.07L74.74,399.44c-3.76,1.07-6.83-1.24-6.83-5.15V52.89A7.13,7.13,0,0,1,75,45.78h148.4a7.13,7.13,0,0,1,7.11,7.11Z"/><path class="cls-8" d="M230.27,347.62a9.87,9.87,0,0,1-6.74,8.94L74.91,399.16c-3.71,1.07-6.74-1.22-6.74-5.07v-341a7,7,0,0,1,7-7H223.26a7,7,0,0,1,7,7Z"/><path class="cls-9" d="M230,347.57a9.72,9.72,0,0,1-6.64,8.81L75.07,398.89a4.93,4.93,0,0,1-6.64-5V53.28a6.93,6.93,0,0,1,6.91-6.91H223.1A6.93,6.93,0,0,1,230,53.28Z"/><path class="cls-10" d="M229.75,347.52a9.6,9.6,0,0,1-6.55,8.69l-148,42.41a4.86,4.86,0,0,1-6.54-4.93V53.47a6.82,6.82,0,0,1,6.81-6.8H222.94a6.83,6.83,0,0,1,6.81,6.8Z"/><path class="cls-11" d="M229.49,347.47A9.47,9.47,0,0,1,223,356L75.4,398.35A4.79,4.79,0,0,1,69,393.49V53.67A6.73,6.73,0,0,1,75.66,47H222.78a6.73,6.73,0,0,1,6.71,6.71Z"/><path class="cls-12" d="M229.22,347.42a9.29,9.29,0,0,1-6.35,8.43L75.56,398.08a4.72,4.72,0,0,1-6.35-4.79V53.86a6.62,6.62,0,0,1,6.61-6.6h146.8a6.62,6.62,0,0,1,6.6,6.6Z"/><path class="cls-13" d="M229,347.38a9.15,9.15,0,0,1-6.25,8.29l-147,42.14a4.65,4.65,0,0,1-6.26-4.71v-339A6.53,6.53,0,0,1,76,47.55H222.46a6.52,6.52,0,0,1,6.5,6.51Z"/><path class="cls-14" d="M228.7,347.33a9,9,0,0,1-6.15,8.17l-146.66,42a4.58,4.58,0,0,1-6.16-4.64V54.25a6.42,6.42,0,0,1,6.41-6.4H222.3a6.42,6.42,0,0,1,6.4,6.4Z"/><path class="cls-15" d="M228.44,347.28a8.87,8.87,0,0,1-6.06,8L76.05,397.27A4.51,4.51,0,0,1,70,392.7V54.45a6.33,6.33,0,0,1,6.31-6.31H222.14a6.32,6.32,0,0,1,6.3,6.31Z"/><path class="cls-16" d="M228.18,347.23a8.73,8.73,0,0,1-6,7.91L76.22,397a4.44,4.44,0,0,1-6-4.5V54.64a6.23,6.23,0,0,1,6.21-6.2H222a6.22,6.22,0,0,1,6.2,6.2Z"/><path class="cls-17" d="M227.92,347.18a8.6,8.6,0,0,1-5.87,7.79L76.38,396.73a4.37,4.37,0,0,1-5.87-4.43V54.84a6.13,6.13,0,0,1,6.11-6.11h145.2a6.13,6.13,0,0,1,6.1,6.11Z"/><path class="cls-18" d="M227.66,347.13a8.47,8.47,0,0,1-5.77,7.66L76.55,396.45a4.28,4.28,0,0,1-5.77-4.34V55a6,6,0,0,1,6-6H221.66a6,6,0,0,1,6,6Z"/><path class="cls-19" d="M227.4,347.08a8.3,8.3,0,0,1-5.67,7.53l-145,41.57A4.21,4.21,0,0,1,71,391.91V55.23a5.92,5.92,0,0,1,5.9-5.91H221.5a5.93,5.93,0,0,1,5.9,5.91Z"/><path class="cls-20" d="M227.14,347a8.15,8.15,0,0,1-5.58,7.4L76.87,395.91a4.14,4.14,0,0,1-5.57-4.2V55.42a5.82,5.82,0,0,1,5.8-5.8H221.34a5.82,5.82,0,0,1,5.8,5.8Z"/><path class="cls-20" d="M226.88,347a8,8,0,0,1-5.48,7.27L77,395.64a4.07,4.07,0,0,1-5.48-4.13V55.62a5.72,5.72,0,0,1,5.7-5.71H221.18a5.73,5.73,0,0,1,5.7,5.71Z"/><path class="cls-21" d="M226.62,346.94a7.89,7.89,0,0,1-5.39,7.14l-144,41.29a4,4,0,0,1-5.38-4.06V55.81a5.62,5.62,0,0,1,5.6-5.6H221a5.62,5.62,0,0,1,5.6,5.6Z"/><path class="cls-22" d="M226.36,346.89a7.74,7.74,0,0,1-5.29,7L77.37,395.1a3.93,3.93,0,0,1-5.29-4V56a5.52,5.52,0,0,1,5.5-5.5H220.86a5.52,5.52,0,0,1,5.5,5.5Z"/><path class="cls-23" d="M226.1,346.84a7.62,7.62,0,0,1-5.19,6.89L77.53,394.83a3.86,3.86,0,0,1-5.19-3.91V56.2a5.42,5.42,0,0,1,5.4-5.4h143a5.42,5.42,0,0,1,5.4,5.4Z"/><path class="cls-24" d="M72.39,56.14a5.46,5.46,0,0,1,5.46-5.28H220.77a5.46,5.46,0,0,1,5.28,5.46V346.7a7.7,7.7,0,0,1-5.07,6.94L77.62,394.73c-2.79.8-5.23-.87-5.23-3.78Z"/><path class="cls-25" d="M72.43,56.08A5.51,5.51,0,0,1,78,50.92H220.85A5.5,5.5,0,0,1,226,56.45V346.57c0,2.83-2.23,6.19-4.95,7L77.72,394.63c-2.73.78-5.29-.8-5.29-3.64Z"/><path class="cls-26" d="M72.48,56c0-2.77,2.83-5,5.6-5H220.92c2.77,0,5,2.82,5,5.59V346.44c0,2.76-2.17,6.25-4.83,7L77.81,394.53c-2.66.77-5.33-.73-5.33-3.5Z"/><path class="cls-27" d="M72.53,56c0-2.7,3-4.91,5.67-4.91H221c2.7,0,4.91,2.94,4.91,5.64V346.3c0,2.7-2.13,6.32-4.72,7.06L77.91,394.44c-2.6.74-5.38-.67-5.38-3.37Z"/><path class="cls-28" d="M72.58,55.89c0-2.63,3.1-4.78,5.73-4.78H221.07c2.64,0,4.79,3.07,4.79,5.7V346.17c0,2.63-2.07,6.38-4.6,7.1L78,394.34c-2.53.72-5.42-.6-5.42-3.23Z"/><path class="cls-29" d="M72.62,55.83c0-2.56,3.24-4.66,5.8-4.66H221.15c2.56,0,4.66,3.2,4.66,5.77V346c0,2.57-2,6.44-4.48,7.15L78.1,394.24c-2.47.71-5.48-.53-5.48-3.09Z"/><path class="cls-30" d="M72.67,55.77c0-2.5,3.37-4.54,5.87-4.54H221.22c2.5,0,4.55,3.33,4.55,5.83V345.9c0,2.49-2,6.5-4.37,7.19L78.19,394.14c-2.4.69-5.52-.46-5.52-3Z"/><path class="cls-31" d="M72.72,55.71c0-2.43,3.5-4.42,5.93-4.42H221.3c2.43,0,4.42,3.46,4.42,5.89V345.76c0,2.43-1.91,6.57-4.25,7.24L78.29,394c-2.34.67-5.57-.39-5.57-2.82Z"/><path class="cls-32" d="M72.76,55.65c0-2.36,3.65-4.3,6-4.3H221.38c2.36,0,4.29,3.59,4.29,6V345.63c0,2.36-1.86,6.63-4.13,7.28L78.38,394c-2.27.65-5.62-.33-5.62-2.69Z"/><path class="cls-33" d="M72.81,55.59c0-2.3,3.78-4.17,6.07-4.17H221.45c2.3,0,4.17,3.71,4.17,6V345.49c0,2.3-1.8,6.69-4,7.33l-143.13,41c-2.21.63-5.67-.26-5.67-2.55Z"/><path class="cls-34" d="M72.86,55.53c0-2.23,3.91-4.05,6.14-4.05H221.53c2.22,0,4.05,3.84,4.05,6.07V345.36c0,2.23-1.76,6.75-3.9,7.36l-143.11,41c-2.14.61-5.71-.18-5.71-2.41Z"/><path class="cls-35" d="M72.91,55.47c0-2.16,4-3.93,6.2-3.93H221.6c2.16,0,3.93,4,3.93,6.14V345.23c0,2.16-1.7,6.81-3.78,7.4l-143.08,41c-2.08.6-5.76-.11-5.76-2.27Z"/><path class="cls-36" d="M73,55.41c0-2.1,4.18-3.81,6.27-3.81H221.68c2.09,0,3.8,4.11,3.8,6.2V345.09c0,2.09-1.64,6.88-3.65,7.45l-143.07,41c-2,.58-5.81,0-5.81-2.14Z"/><path class="cls-37" d="M73,55.34c0-2,4.31-3.68,6.34-3.68H221.75c2,0,3.69,4.24,3.69,6.26V345c0,2-1.6,6.93-3.54,7.49l-143,41c-2,.55-5.86,0-5.86-2Z"/><path class="cls-38" d="M73.05,55.28c0-2,4.45-3.56,6.4-3.56H221.83c2,0,3.56,4.37,3.56,6.32V344.82c0,2-1.54,7-3.42,7.54l-143,41c-1.88.54-5.9.09-5.9-1.87Z"/><path class="cls-39" d="M73.1,55.22c0-1.89,4.58-3.43,6.47-3.43H221.9c1.89,0,3.44,4.49,3.44,6.38V344.69c0,1.89-1.49,7.06-3.3,7.58l-143,41c-1.82.52-6,.16-6-1.73Z"/><path class="cls-40" d="M73.14,55.16c0-1.82,4.72-3.31,6.54-3.31H222c1.82,0,3.31,4.62,3.31,6.44V344.55c0,1.83-1.43,7.13-3.18,7.63l-143,41c-1.75.5-6,.23-6-1.59Z"/><path class="cls-41" d="M73.19,55.1c0-1.76,4.85-3.19,6.61-3.19H222.06c1.75,0,3.19,4.75,3.19,6.5v286c0,1.75-1.38,7.18-3.07,7.67l-142.94,41c-1.69.49-6,.3-6-1.45Z"/><path class="cls-42" d="M73.24,55c0-1.69,5-3.07,6.67-3.07H222.13c1.69,0,3.07,4.88,3.07,6.57V344.28c0,1.69-1.33,7.25-2.95,7.72L79.33,393c-1.62.46-6.09.36-6.09-1.33Z"/><path class="cls-43" d="M73.28,55C73.28,53.36,78.4,52,80,52H222.21c1.62,0,2.94,5,2.94,6.63V344.15c0,1.62-1.27,7.31-2.83,7.76l-142.89,41c-1.56.44-6.15.43-6.15-1.19Z"/><path class="cls-44" d="M73.33,54.92c0-1.56,5.26-2.83,6.81-2.83H222.28c1.55,0,2.82,5.14,2.82,6.69V344c0,1.56-1.22,7.38-2.71,7.8l-142.87,41c-1.49.43-6.19.5-6.19-1Z"/><path class="cls-45" d="M73.38,54.86c0-1.49,5.39-2.7,6.87-2.7H222.36c1.48,0,2.7,5.26,2.7,6.74v285c0,1.49-1.17,7.43-2.6,7.84L79.62,392.67c-1.43.41-6.24.57-6.24-.91Z"/><path class="cls-46" d="M73.43,54.79c0-1.41,5.52-2.57,6.94-2.57H222.43c1.42,0,2.58,5.39,2.58,6.81V343.75c0,1.41-1.11,7.49-2.48,7.88L79.71,392.57c-1.36.39-6.28.65-6.28-.77Z"/><path class="cls-47" d="M73.47,54.73c0-1.35,5.66-2.45,7-2.45h142c1.35,0,2.45,5.52,2.45,6.87V343.61c0,1.35-1.06,7.56-2.36,7.93L79.81,392.48c-1.3.37-6.34.71-6.34-.64Z"/><path class="cls-48" d="M73.52,54.67c0-1.28,5.79-2.33,7.08-2.33h142c1.29,0,2.34,5.65,2.34,6.93V343.48c0,1.28-1,7.62-2.25,8L79.9,392.38c-1.23.35-6.38.78-6.38-.51Z"/><path class="cls-49" d="M73.57,54.61c0-1.21,5.93-2.21,7.14-2.21h142c1.21,0,2.21,5.78,2.21,7V343.34c0,1.22-1,7.68-2.13,8L80,392.28c-1.17.33-6.43.85-6.43-.37Z"/><path class="cls-50" d="M73.61,54.55c0-1.15,6.07-2.09,7.21-2.09H222.73c1.15,0,2.09,5.91,2.09,7.06V343.21c0,1.15-.9,7.74-2,8.06L80.09,392.18c-1.1.32-6.48.92-6.48-.23Z"/><path class="cls-51" d="M73.66,54.49c0-1.08,6.2-2,7.28-2H222.81c1.08,0,2,6,2,7.11V343.07c0,1.08-.85,7.81-1.88,8.11l-142.7,40.9c-1,.3-6.53,1-6.53-.09Z"/><path class="cls-52" d="M73.71,54.43c0-1,6.33-1.84,7.34-1.84H222.89c1,0,1.84,6.16,1.84,7.18V342.94c0,1-.8,7.87-1.77,8.15L80.28,392c-1,.28-6.57,1.06-6.57,0Z"/><path class="cls-53" d="M73.76,54.37c0-.95,6.46-1.72,7.41-1.72H223c.95,0,1.72,6.29,1.72,7.24V342.8c0,.95-.74,7.93-1.65,8.19L80.38,391.89c-.91.26-6.62,1.12-6.62.18Z"/><path class="cls-54" d="M73.8,54.31c0-.88,6.6-1.6,7.48-1.6H223c.87,0,1.59,6.42,1.59,7.3V342.67c0,.88-.69,8-1.53,8.23L80.47,391.79c-.84.24-6.67,1.19-6.67.32Z"/><path class="cls-55" d="M73.85,54.24c0-.81,6.74-1.47,7.55-1.47H223.11c.81,0,1.47,6.55,1.47,7.36V342.54c0,.81-.63,8-1.41,8.27L80.57,391.69c-.78.22-6.72,1.26-6.72.45Z"/><path class="cls-56" d="M73.9,54.18c0-.74,6.87-1.35,7.61-1.35H223.19c.74,0,1.35,6.69,1.35,7.43V342.4c0,.74-.59,8.12-1.3,8.32L80.66,391.59c-.71.21-6.76,1.33-6.76.59Z"/><path class="cls-57" d="M74,54.12c0-.67,7-1.22,7.67-1.22H223.26c.68,0,1.23,6.81,1.23,7.48V342.27c0,.67-.53,8.17-1.18,8.36L80.76,391.49c-.65.19-6.81,1.41-6.81.73Z"/><path class="cls-58" d="M74,54.06c0-.61,7.14-1.1,7.75-1.1h141.6c.61,0,1.1,6.94,1.1,7.54V342.13c0,.61-.47,8.24-1.06,8.41L80.85,391.4c-.58.16-6.86,1.47-6.86.86Z"/><path class="cls-59" d="M74,54c0-.54,7.27-1,7.81-1H223.41c.54,0,1,7.07,1,7.61V342c0,.54-.43,8.3-1,8.45L81,391.3c-.52.15-6.91,1.54-6.91,1Z"/><path class="cls-60" d="M74.09,53.94c0-.47,7.4-.86,7.88-.86H223.49c.47,0,.86,7.2.86,7.67V341.86c0,.48-.37,8.37-.83,8.5L81,391.2c-.45.13-7,1.61-7,1.14Z"/><path class="cls-61" d="M74.13,53.88c0-.41,7.55-.74,8-.74H223.56c.41,0,.74,7.33.74,7.73V341.73c0,.4-.32,8.42-.71,8.54L81.14,391.1c-.39.11-7,1.68-7,1.27Z"/><path class="cls-62" d="M74.18,53.82c0-.34,7.68-.62,8-.62H223.64c.34,0,.61,7.46.61,7.8V341.59c0,.34-.26,8.49-.59,8.58L81.23,391c-.32.1-7,1.75-7,1.41Z"/><path class="cls-63" d="M74.23,53.76c0-.27,7.81-.5,8.08-.5H223.72c.27,0,.49,7.59.49,7.86V341.46c0,.27-.22,8.55-.48,8.62L81.33,390.91c-.26.07-7.1,1.81-7.1,1.54Z"/><path class="cls-64" d="M74.28,53.69c0-.2,7.94-.36,8.14-.36H223.79c.2,0,.37,7.71.37,7.91V341.33c0,.2-.16,8.61-.35,8.66L81.42,390.81c-.19.05-7.14,1.88-7.14,1.68Z"/><path class="cls-65" d="M74.32,53.63c0-.13,8.08-.24,8.22-.24H223.87c.13,0,.24,7.84.24,8V341.19c0,.14-.1,8.67-.23,8.71L81.52,390.71c-.13,0-7.2,2-7.2,1.82Z"/><path class="cls-66" d="M74.37,53.57c0-.07,8.22-.12,8.28-.12H223.94c.07,0,.13,8,.13,8V341.06c0,.06-.06,8.73-.12,8.75L81.61,390.61c-.06,0-7.24,2-7.24,2Z"/><polygon class="cls-67" points="224.02 349.72 74.42 392.6 74.42 53.51 224.02 53.51 224.02 349.72"/><polygon class="cls-68" points="224.22 338.06 74.22 381.06 74.22 53.06 224.22 53.06 224.22 338.06 224.22 338.06"/><polygon class="cls-69" points="224.22 338.06 74.22 381.06 74.22 393.06 224.22 350.06 224.22 338.06 224.22 338.06"/><polygon class="cls-70" points="114.22 247.06 114.22 246.06 185.22 246.06 185.22 247.06 175.05 247.06 114.22 247.06 114.22 247.06"/><path class="cls-2" d="M170.86,232.09l-8.61-8.52v-1.84l10.45,10.35Zm-2.64,0-6-5.9v-1.86l7.82,7.75Zm-2.64,0-3.31-3.28V227l5.16,5.11Zm.6-7.2-.93-.91,7.18-7.2v1.84l-6.25,6.27Zm-1.33-1.31-.92-.91,11.12-11.15v1.83l-10.2,10.23Zm-1.32-1.31-.92-.92,9.8-9.82v1.83l-8.88,8.91Zm-26.64,10.25a7.07,7.07,0,1,1,7-7.09,6.86,6.86,0,0,1-7,7.09Zm0-12.43a5.37,5.37,0,1,0,5.1,5.34,5.07,5.07,0,0,0-5.1-5.34Zm14.92,12.38a7.07,7.07,0,1,1,7-7.09,6.86,6.86,0,0,1-7,7.09Zm0-12.43a5.37,5.37,0,1,0,5.1,5.35,5.07,5.07,0,0,0-5.1-5.35Zm21.54,12,0-13.45h1.83l0,11.75,6.72,0v1.71l-8.55,0Zm20.3-.06L189,220.93h0l-4.5,11.12H182.4L188,218.58h2l5.6,13.44Zm-33.78.1,0-13.45h1.85l0,13.45Z"/><path class="cls-2" d="M108.64,232.44a4.19,4.19,0,0,1-3.57-2v1.79h-1.38V219.1h1.38v5.71a4.19,4.19,0,0,1,3.57-2.07,4.53,4.53,0,0,1,4.44,4.82v0a4.55,4.55,0,0,1-4.44,4.84Zm3-4.86a3.35,3.35,0,0,0-3.27-3.6,3.47,3.47,0,0,0-3.37,3.58v0a3.47,3.47,0,0,0,3.37,3.6,3.28,3.28,0,0,0,3.27-3.58v0Zm8.06,5c-.79,1.93-1.69,2.63-3.09,2.63a4.17,4.17,0,0,1-2-.47l.46-1.1a2.87,2.87,0,0,0,1.46.35c.83,0,1.35-.44,1.91-1.75l-4.23-9.27h1.53l3.39,7.76,3-7.76h1.47l-3.91,9.61Z"/><path class="cls-2" d="M94.43,195.8c3,.78,4.66,1.85,4.66,4.41v0c0,2.91-2.22,4.55-5.39,4.55a9.39,9.39,0,0,1-6.24-2.35l1.91-2.29A6.78,6.78,0,0,0,93.76,202c1.32,0,2.12-.53,2.12-1.39v0c0-.82-.5-1.24-3-1.87-3-.76-4.87-1.58-4.87-4.49v0c0-2.66,2.14-4.43,5.14-4.43a8.53,8.53,0,0,1,5.46,1.87L97,194a6.91,6.91,0,0,0-3.82-1.45c-1.24,0-1.89.57-1.89,1.28v0c0,1,.63,1.28,3.17,1.93Zm13.17,4.39h-2.46v4.41h-3.23V189.9h6c3.5,0,5.62,2.08,5.62,5.09v0c0,3.4-2.64,5.16-5.94,5.16Zm2.67-5.14c0-1.45-1-2.23-2.63-2.23h-2.5v4.49h2.57a2.27,2.27,0,0,0,2.56-2.22v0Zm16.86,6.68v2.87H115.94V189.9H127v2.88h-7.88v3h6.93v2.88h-6.93v3.09Zm14.07,0v2.87H130V189.9h11.08v2.88h-7.87v3h6.93v2.88h-6.93v3.09Zm8.61,2.87h-5.73V189.9h5.73c4.62,0,7.81,3.17,7.81,7.31v0c0,4.14-3.19,7.35-7.81,7.35Zm4.43-7.35a4.22,4.22,0,0,0-4.43-4.43h-2.5v8.86h2.5a4.18,4.18,0,0,0,4.43-4.39v0Zm12.08-4.37V204.6h-3.24V192.88h-4.47v-3h12.18v3Zm18.14,8.85v2.87H173.27V189.9h11.08v2.88h-7.87v3h6.93v2.88h-6.93v3.09Zm8.84-5.93c3,.78,4.66,1.85,4.66,4.41v0c0,2.91-2.22,4.55-5.39,4.55a9.37,9.37,0,0,1-6.24-2.35l1.91-2.29a6.76,6.76,0,0,0,4.39,1.79c1.32,0,2.12-.53,2.12-1.39v0c0-.82-.5-1.24-3-1.87-3-.76-4.87-1.58-4.87-4.49v0c0-2.66,2.14-4.43,5.14-4.43a8.55,8.55,0,0,1,5.46,1.87L195.84,194a6.91,6.91,0,0,0-3.82-1.45c-1.24,0-1.89.57-1.89,1.28v0c0,1,.63,1.28,3.17,1.93Zm13.82-2.92V204.6h-3.23V192.88h-4.48v-3h12.18v3Z"/><path class="cls-2" d="M149.11,178.56c-22.3,0-40.36-17.81-40.36-39.78S126.81,99,149.11,99s40.36,17.81,40.36,39.78-18.07,39.78-40.36,39.78Zm0-33.76,15.65-18.33-2.69-2.65-18.59,15.43,5.63,5.55Zm0-37.37a32,32,0,0,0-32.29,31.82,31.49,31.49,0,0,0,9.45,22.5l4.16-4.09a25.73,25.73,0,0,1-7.74-18.41,26.42,26.42,0,0,1,52.84,0,25.77,25.77,0,0,1-7.74,18.41l4.15,4.09a31.5,31.5,0,0,0,9.46-22.5,32.06,32.06,0,0,0-32.29-31.82ZM133.33,94.6h-3L109.22,63.06h31L161.8,94.6Zm32.95.11L150.53,71.3l5.69-8.24h33L166.28,94.71Z"/><text class="cls-71" transform="translate(94.45 274.48)">AMERIC<tspan class="cls-72" x="79.73" y="0">A</tspan><tspan x="93.46" y="0">’S</tspan><tspan x="29.92" y="19.56">BE</tspan><tspan class="cls-73" x="56.82" y="19.56">S</tspan><tspan class="cls-74" x="68.9" y="19.56">T</tspan><tspan x="4.69" y="39.12">INTERNET</tspan><tspan class="cls-74"><tspan x="2.93" y="58.68">PR</tspan><tspan class="cls-75" x="29.82" y="58.68">O</tspan><tspan x="45.38" y="58.68">VIDER</tspan></tspan></text><path class="cls-3" d="M452.57,347.86a10.57,10.57,0,0,1-7.22,9.58L295.09,400.52c-4,1.14-7.23-1.31-7.23-5.44v-343a7.54,7.54,0,0,1,7.52-7.51H445.06a7.53,7.53,0,0,1,7.51,7.51Z"/><path class="cls-4" d="M452.31,347.81a10.46,10.46,0,0,1-7.12,9.46l-149.94,43c-3.92,1.12-7.12-1.29-7.12-5.37V52.31a7.43,7.43,0,0,1,7.41-7.42H444.9a7.43,7.43,0,0,1,7.41,7.42Z"/><path class="cls-5" d="M452.05,347.77a10.29,10.29,0,0,1-7,9.32L295.41,400c-3.86,1.11-7-1.28-7-5.3V52.5a7.33,7.33,0,0,1,7.31-7.31h149a7.33,7.33,0,0,1,7.31,7.31Z"/><path class="cls-6" d="M451.79,347.72a10.15,10.15,0,0,1-6.93,9.19l-149.28,42.8c-3.81,1.09-6.93-1.26-6.93-5.23V52.69a7.23,7.23,0,0,1,7.21-7.21H444.58a7.24,7.24,0,0,1,7.21,7.21Z"/><path class="cls-7" d="M451.53,347.67a10,10,0,0,1-6.84,9.07l-148.95,42.7c-3.76,1.07-6.83-1.24-6.83-5.15V52.89A7.13,7.13,0,0,1,296,45.78h148.4a7.13,7.13,0,0,1,7.11,7.11Z"/><path class="cls-8" d="M451.27,347.62a9.87,9.87,0,0,1-6.74,8.94l-148.62,42.6c-3.71,1.07-6.74-1.22-6.74-5.07v-341a7,7,0,0,1,7-7H444.26a7,7,0,0,1,7,7Z"/><path class="cls-9" d="M451,347.57a9.72,9.72,0,0,1-6.64,8.81l-148.3,42.51a4.93,4.93,0,0,1-6.64-5V53.28a6.93,6.93,0,0,1,6.91-6.91H444.1A6.93,6.93,0,0,1,451,53.28Z"/><path class="cls-10" d="M450.75,347.52a9.6,9.6,0,0,1-6.55,8.69l-148,42.41a4.86,4.86,0,0,1-6.54-4.93V53.47a6.82,6.82,0,0,1,6.81-6.8H443.94a6.83,6.83,0,0,1,6.81,6.8Z"/><path class="cls-11" d="M450.49,347.47A9.47,9.47,0,0,1,444,356L296.4,398.35a4.79,4.79,0,0,1-6.45-4.86V53.67A6.73,6.73,0,0,1,296.66,47H443.78a6.73,6.73,0,0,1,6.71,6.71Z"/><path class="cls-12" d="M450.22,347.42a9.29,9.29,0,0,1-6.35,8.43L296.56,398.08a4.72,4.72,0,0,1-6.35-4.79V53.86a6.62,6.62,0,0,1,6.61-6.6h146.8a6.62,6.62,0,0,1,6.6,6.6Z"/><path class="cls-13" d="M450,347.38a9.15,9.15,0,0,1-6.25,8.29l-147,42.14a4.65,4.65,0,0,1-6.26-4.71v-339A6.53,6.53,0,0,1,297,47.55H443.46a6.52,6.52,0,0,1,6.5,6.51Z"/><path class="cls-14" d="M449.7,347.33a9,9,0,0,1-6.15,8.17l-146.66,42a4.58,4.58,0,0,1-6.16-4.64V54.25a6.42,6.42,0,0,1,6.41-6.4H443.3a6.42,6.42,0,0,1,6.4,6.4Z"/><path class="cls-15" d="M449.44,347.28a8.87,8.87,0,0,1-6.06,8L297.05,397.27A4.51,4.51,0,0,1,291,392.7V54.45a6.33,6.33,0,0,1,6.31-6.31H443.14a6.32,6.32,0,0,1,6.3,6.31Z"/><path class="cls-16" d="M449.18,347.23a8.73,8.73,0,0,1-6,7.91L297.22,397a4.44,4.44,0,0,1-6-4.5V54.64a6.23,6.23,0,0,1,6.21-6.2H443a6.22,6.22,0,0,1,6.2,6.2Z"/><path class="cls-17" d="M448.92,347.18a8.6,8.6,0,0,1-5.87,7.79L297.38,396.73a4.37,4.37,0,0,1-5.87-4.43V54.84a6.13,6.13,0,0,1,6.11-6.11h145.2a6.13,6.13,0,0,1,6.1,6.11Z"/><path class="cls-18" d="M448.66,347.13a8.47,8.47,0,0,1-5.77,7.66L297.55,396.45a4.28,4.28,0,0,1-5.77-4.34V55a6,6,0,0,1,6-6H442.66a6,6,0,0,1,6,6Z"/><path class="cls-19" d="M448.4,347.08a8.3,8.3,0,0,1-5.67,7.53l-145,41.57a4.21,4.21,0,0,1-5.67-4.27V55.23a5.92,5.92,0,0,1,5.9-5.91H442.5a5.93,5.93,0,0,1,5.9,5.91Z"/><path class="cls-20" d="M448.14,347a8.15,8.15,0,0,1-5.58,7.4L297.87,395.91a4.14,4.14,0,0,1-5.57-4.2V55.42a5.82,5.82,0,0,1,5.8-5.8H442.34a5.82,5.82,0,0,1,5.8,5.8Z"/><path class="cls-20" d="M447.88,347a8,8,0,0,1-5.48,7.27L298,395.64a4.07,4.07,0,0,1-5.48-4.13V55.62a5.72,5.72,0,0,1,5.7-5.71H442.18a5.73,5.73,0,0,1,5.7,5.71Z"/><path class="cls-21" d="M447.62,346.94a7.89,7.89,0,0,1-5.39,7.14l-144,41.29a4,4,0,0,1-5.38-4.06V55.81a5.62,5.62,0,0,1,5.6-5.6H442a5.62,5.62,0,0,1,5.6,5.6Z"/><path class="cls-22" d="M447.36,346.89a7.74,7.74,0,0,1-5.29,7l-143.7,41.2a3.93,3.93,0,0,1-5.29-4V56a5.52,5.52,0,0,1,5.5-5.5H441.86a5.52,5.52,0,0,1,5.5,5.5Z"/><path class="cls-23" d="M447.1,346.84a7.62,7.62,0,0,1-5.19,6.89l-143.38,41.1a3.86,3.86,0,0,1-5.19-3.91V56.2a5.42,5.42,0,0,1,5.4-5.4h143a5.42,5.42,0,0,1,5.4,5.4Z"/><path class="cls-24" d="M293.39,56.14a5.46,5.46,0,0,1,5.46-5.28H441.77a5.46,5.46,0,0,1,5.28,5.46V346.7a7.7,7.7,0,0,1-5.07,6.94L298.62,394.73c-2.79.8-5.23-.87-5.23-3.78Z"/><path class="cls-25" d="M293.43,56.08A5.51,5.51,0,0,1,299,50.92H441.85A5.5,5.5,0,0,1,447,56.45V346.57c0,2.83-2.23,6.19-4.95,7L298.72,394.63c-2.73.78-5.29-.8-5.29-3.64Z"/><path class="cls-26" d="M293.48,56c0-2.77,2.83-5,5.6-5H441.92c2.77,0,5,2.82,5,5.59V346.44c0,2.76-2.17,6.25-4.83,7L298.81,394.53c-2.66.77-5.33-.73-5.33-3.5Z"/><path class="cls-27" d="M293.53,56c0-2.7,3-4.91,5.67-4.91H442c2.7,0,4.91,2.94,4.91,5.64V346.3c0,2.7-2.13,6.32-4.72,7.06L298.91,394.44c-2.6.74-5.38-.67-5.38-3.37Z"/><path class="cls-28" d="M293.58,55.89c0-2.63,3.1-4.78,5.73-4.78H442.07c2.64,0,4.79,3.07,4.79,5.7V346.17c0,2.63-2.07,6.38-4.6,7.1L299,394.34c-2.53.72-5.42-.6-5.42-3.23Z"/><path class="cls-29" d="M293.62,55.83c0-2.56,3.24-4.66,5.8-4.66H442.15c2.56,0,4.66,3.2,4.66,5.77V346c0,2.57-2,6.44-4.48,7.15L299.1,394.24c-2.47.71-5.48-.53-5.48-3.09Z"/><path class="cls-30" d="M293.67,55.77c0-2.5,3.37-4.54,5.87-4.54H442.22c2.5,0,4.55,3.33,4.55,5.83V345.9c0,2.49-2,6.5-4.37,7.19L299.19,394.14c-2.4.69-5.52-.46-5.52-3Z"/><path class="cls-31" d="M293.72,55.71c0-2.43,3.5-4.42,5.93-4.42H442.3c2.43,0,4.42,3.46,4.42,5.89V345.76c0,2.43-1.91,6.57-4.25,7.24L299.29,394c-2.34.67-5.57-.39-5.57-2.82Z"/><path class="cls-32" d="M293.76,55.65c0-2.36,3.65-4.3,6-4.3H442.38c2.36,0,4.29,3.59,4.29,6V345.63c0,2.36-1.86,6.63-4.13,7.28L299.38,394c-2.27.65-5.62-.33-5.62-2.69Z"/><path class="cls-33" d="M293.81,55.59c0-2.3,3.78-4.17,6.07-4.17H442.45c2.3,0,4.17,3.71,4.17,6V345.49c0,2.3-1.8,6.69-4,7.33l-143.13,41c-2.21.63-5.67-.26-5.67-2.55Z"/><path class="cls-34" d="M293.86,55.53c0-2.23,3.91-4.05,6.14-4.05H442.53c2.22,0,4.05,3.84,4.05,6.07V345.36c0,2.23-1.76,6.75-3.9,7.36l-143.11,41c-2.14.61-5.71-.18-5.71-2.41Z"/><path class="cls-35" d="M293.91,55.47c0-2.16,4-3.93,6.2-3.93H442.6c2.16,0,3.93,4,3.93,6.14V345.23c0,2.16-1.7,6.81-3.78,7.4l-143.08,41c-2.08.6-5.76-.11-5.76-2.27Z"/><path class="cls-36" d="M294,55.41c0-2.1,4.18-3.81,6.27-3.81H442.68c2.09,0,3.8,4.11,3.8,6.2V345.09c0,2.09-1.64,6.88-3.65,7.45l-143.07,41c-2,.58-5.81,0-5.81-2.14Z"/><path class="cls-37" d="M294,55.34c0-2,4.31-3.68,6.34-3.68H442.75c2,0,3.69,4.24,3.69,6.26V345c0,2-1.6,6.93-3.54,7.49l-143,41c-1.95.55-5.86,0-5.86-2Z"/><path class="cls-38" d="M294.05,55.28c0-2,4.45-3.56,6.4-3.56H442.83c2,0,3.56,4.37,3.56,6.32V344.82c0,2-1.54,7-3.42,7.54l-143,41c-1.88.54-5.9.09-5.9-1.87Z"/><path class="cls-39" d="M294.1,55.22c0-1.89,4.58-3.43,6.47-3.43H442.9c1.89,0,3.44,4.49,3.44,6.38V344.69c0,1.89-1.49,7.06-3.3,7.58l-143,41c-1.82.52-5.95.16-5.95-1.73Z"/><path class="cls-40" d="M294.14,55.16c0-1.82,4.72-3.31,6.54-3.31H443c1.82,0,3.31,4.62,3.31,6.44V344.55c0,1.83-1.43,7.13-3.18,7.63l-143,41c-1.75.5-6,.23-6-1.59Z"/><path class="cls-41" d="M294.19,55.1c0-1.76,4.85-3.19,6.61-3.19H443.06c1.75,0,3.19,4.75,3.19,6.5v286c0,1.75-1.38,7.18-3.07,7.67l-142.94,41c-1.69.49-6.05.3-6.05-1.45Z"/><path class="cls-42" d="M294.24,55c0-1.69,5-3.07,6.67-3.07H443.13c1.69,0,3.07,4.88,3.07,6.57V344.28c0,1.69-1.33,7.25-2.95,7.72L300.33,393c-1.62.46-6.09.36-6.09-1.33Z"/><path class="cls-43" d="M294.28,55c0-1.62,5.12-2.95,6.74-2.95H443.21c1.62,0,2.94,5,2.94,6.63V344.15c0,1.62-1.27,7.31-2.83,7.76l-142.89,41c-1.56.44-6.15.43-6.15-1.19Z"/><path class="cls-44" d="M294.33,54.92c0-1.56,5.26-2.83,6.81-2.83H443.28c1.55,0,2.82,5.14,2.82,6.69V344c0,1.56-1.22,7.38-2.71,7.8l-142.87,41c-1.49.43-6.19.5-6.19-1Z"/><path class="cls-45" d="M294.38,54.86c0-1.49,5.39-2.7,6.87-2.7H443.36c1.48,0,2.7,5.26,2.7,6.74v285c0,1.49-1.17,7.43-2.6,7.84L300.62,392.67c-1.43.41-6.24.57-6.24-.91Z"/><path class="cls-46" d="M294.43,54.79c0-1.41,5.52-2.57,6.94-2.57H443.43c1.42,0,2.58,5.39,2.58,6.81V343.75c0,1.41-1.11,7.49-2.48,7.88L300.71,392.57c-1.36.39-6.28.65-6.28-.77Z"/><path class="cls-47" d="M294.47,54.73c0-1.35,5.66-2.45,7-2.45h142c1.35,0,2.45,5.52,2.45,6.87V343.61c0,1.35-1.06,7.56-2.36,7.93L300.81,392.48c-1.3.37-6.34.71-6.34-.64Z"/><path class="cls-48" d="M294.52,54.67c0-1.28,5.79-2.33,7.08-2.33h142c1.29,0,2.34,5.65,2.34,6.93V343.48c0,1.28-1,7.62-2.25,8L300.9,392.38c-1.23.35-6.38.78-6.38-.51Z"/><path class="cls-49" d="M294.57,54.61c0-1.21,5.93-2.21,7.14-2.21h142c1.21,0,2.21,5.78,2.21,7V343.34c0,1.22-1,7.68-2.13,8L301,392.28c-1.17.33-6.43.85-6.43-.37Z"/><path class="cls-50" d="M294.61,54.55c0-1.15,6.07-2.09,7.21-2.09H443.73c1.15,0,2.09,5.91,2.09,7.06V343.21c0,1.15-.9,7.74-2,8.06L301.09,392.18c-1.1.32-6.48.92-6.48-.23Z"/><path class="cls-51" d="M294.66,54.49c0-1.08,6.2-2,7.28-2H443.81c1.08,0,2,6,2,7.11V343.07c0,1.08-.85,7.81-1.88,8.11l-142.7,40.9c-1,.3-6.53,1-6.53-.09Z"/><path class="cls-52" d="M294.71,54.43c0-1,6.33-1.84,7.34-1.84H443.89c1,0,1.84,6.16,1.84,7.18V342.94c0,1-.8,7.87-1.77,8.15L301.28,392c-1,.28-6.57,1.06-6.57,0Z"/><path class="cls-53" d="M294.76,54.37c0-.95,6.46-1.72,7.41-1.72H444c1,0,1.72,6.29,1.72,7.24V342.8c0,.95-.74,7.93-1.65,8.19l-142.65,40.9c-.91.26-6.62,1.12-6.62.18Z"/><path class="cls-54" d="M294.8,54.31c0-.88,6.6-1.6,7.48-1.6H444c.87,0,1.59,6.42,1.59,7.3V342.67c0,.88-.69,8-1.53,8.23L301.47,391.79c-.84.24-6.67,1.19-6.67.32Z"/><path class="cls-55" d="M294.85,54.24c0-.81,6.74-1.47,7.55-1.47H444.11c.81,0,1.47,6.55,1.47,7.36V342.54c0,.81-.63,8-1.41,8.27l-142.6,40.88c-.78.22-6.72,1.26-6.72.45Z"/><path class="cls-56" d="M294.9,54.18c0-.74,6.87-1.35,7.61-1.35H444.19c.74,0,1.35,6.69,1.35,7.43V342.4c0,.74-.59,8.12-1.3,8.32L301.66,391.59c-.71.21-6.76,1.33-6.76.59Z"/><path class="cls-57" d="M295,54.12c0-.67,7-1.22,7.67-1.22H444.26c.68,0,1.23,6.81,1.23,7.48V342.27c0,.67-.53,8.17-1.18,8.36L301.76,391.49c-.65.19-6.81,1.41-6.81.73Z"/><path class="cls-58" d="M295,54.06c0-.61,7.14-1.1,7.75-1.1h141.6c.61,0,1.1,6.94,1.1,7.54V342.13c0,.61-.47,8.24-1.06,8.41L301.85,391.4c-.58.16-6.86,1.47-6.86.86Z"/><path class="cls-59" d="M295,54c0-.54,7.27-1,7.81-1H444.41c.54,0,1,7.07,1,7.61V342c0,.54-.43,8.3-.95,8.45L302,391.3c-.52.15-6.91,1.54-6.91,1Z"/><path class="cls-60" d="M295.09,53.94c0-.47,7.4-.86,7.88-.86H444.49c.47,0,.86,7.2.86,7.67V341.86c0,.48-.37,8.37-.83,8.5L302,391.2c-.45.13-7,1.61-7,1.14Z"/><path class="cls-61" d="M295.13,53.88c0-.41,7.55-.74,7.95-.74H444.56c.41,0,.74,7.33.74,7.73V341.73c0,.4-.32,8.42-.71,8.54L302.14,391.1c-.39.11-7,1.68-7,1.27Z"/><path class="cls-62" d="M295.18,53.82c0-.34,7.68-.62,8-.62H444.64c.34,0,.61,7.46.61,7.8V341.59c0,.34-.26,8.49-.59,8.58L302.23,391c-.32.1-7.05,1.75-7.05,1.41Z"/><path class="cls-63" d="M295.23,53.76c0-.27,7.81-.5,8.08-.5H444.72c.27,0,.49,7.59.49,7.86V341.46c0,.27-.22,8.55-.48,8.62l-142.4,40.83c-.26.07-7.1,1.81-7.1,1.54Z"/><path class="cls-64" d="M295.28,53.69c0-.2,7.94-.36,8.14-.36H444.79c.2,0,.37,7.71.37,7.91V341.33c0,.2-.16,8.61-.35,8.66L302.42,390.81c-.19.05-7.14,1.88-7.14,1.68Z"/><path class="cls-65" d="M295.32,53.63c0-.13,8.08-.24,8.22-.24H444.87c.13,0,.24,7.84.24,8V341.19c0,.14-.1,8.67-.23,8.71L302.52,390.71c-.13,0-7.2,2-7.2,1.82Z"/><path class="cls-66" d="M295.37,53.57c0-.07,8.22-.12,8.28-.12H444.94c.07,0,.13,8,.13,8V341.06c0,.06-.06,8.73-.12,8.75l-142.34,40.8c-.06,0-7.24,2-7.24,2Z"/><polygon class="cls-67" points="445.02 349.72 295.42 392.6 295.42 53.51 445.02 53.51 445.02 349.72"/><polygon class="cls-76" points="445.22 338.06 295.22 381.06 295.22 53.06 445.22 53.06 445.22 338.06 445.22 338.06"/><polygon class="cls-77" points="445.22 338.06 295.22 381.06 295.22 393.06 445.22 350.06 445.22 338.06 445.22 338.06"/><polygon class="cls-70" points="335.22 247.06 335.22 246.06 406.22 246.06 406.22 247.06 396.05 247.06 335.22 247.06 335.22 247.06"/><path class="cls-2" d="M391.86,232.09l-8.61-8.52v-1.84l10.45,10.35Zm-2.64,0-6-5.9v-1.86l7.82,7.75Zm-2.64,0-3.31-3.28V227l5.16,5.11Zm.6-7.2-.93-.91,7.18-7.2v1.84l-6.25,6.27Zm-1.33-1.31-.92-.91,11.12-11.15v1.83l-10.2,10.23Zm-1.32-1.31-.92-.92,9.8-9.82v1.83l-8.88,8.91Zm-26.64,10.25a7.07,7.07,0,1,1,7-7.09,6.86,6.86,0,0,1-7,7.09Zm0-12.43a5.37,5.37,0,1,0,5.1,5.34,5.07,5.07,0,0,0-5.1-5.34Zm14.92,12.38a7.07,7.07,0,1,1,7-7.09,6.86,6.86,0,0,1-7,7.09Zm0-12.43a5.37,5.37,0,1,0,5.1,5.35,5.07,5.07,0,0,0-5.1-5.35Zm21.54,12,0-13.45h1.83l0,11.75,6.72,0v1.71l-8.55,0Zm20.3-.06L410,220.93h0l-4.5,11.12H403.4L409,218.58h2l5.6,13.44Zm-33.78.1,0-13.45h1.85l0,13.45Z"/><path class="cls-2" d="M329.64,232.44a4.19,4.19,0,0,1-3.57-2v1.79h-1.38V219.1h1.38v5.71a4.19,4.19,0,0,1,3.57-2.07,4.53,4.53,0,0,1,4.44,4.82v0a4.55,4.55,0,0,1-4.44,4.84Zm3-4.86a3.35,3.35,0,0,0-3.27-3.6,3.47,3.47,0,0,0-3.37,3.58v0a3.47,3.47,0,0,0,3.37,3.6,3.28,3.28,0,0,0,3.27-3.58v0Zm8.06,5c-.79,1.93-1.69,2.63-3.09,2.63a4.17,4.17,0,0,1-2-.47l.46-1.1a2.87,2.87,0,0,0,1.46.35c.83,0,1.35-.44,1.91-1.75l-4.23-9.27h1.53l3.39,7.76,3-7.76h1.47l-3.91,9.61Z"/><path class="cls-2" d="M315.43,195.8c3,.78,4.66,1.85,4.66,4.41v0c0,2.91-2.22,4.55-5.39,4.55a9.39,9.39,0,0,1-6.24-2.35l1.91-2.29a6.78,6.78,0,0,0,4.39,1.79c1.32,0,2.12-.53,2.12-1.39v0c0-.82-.5-1.24-3-1.87-3-.76-4.87-1.58-4.87-4.49v0c0-2.66,2.14-4.43,5.14-4.43a8.53,8.53,0,0,1,5.46,1.87L318,194a6.91,6.91,0,0,0-3.82-1.45c-1.24,0-1.89.57-1.89,1.28v0c0,1,.63,1.28,3.17,1.93Zm13.17,4.39h-2.46v4.41h-3.23V189.9h6c3.5,0,5.62,2.08,5.62,5.09v0c0,3.4-2.64,5.16-5.94,5.16Zm2.67-5.14c0-1.45-1-2.23-2.63-2.23h-2.5v4.49h2.57a2.27,2.27,0,0,0,2.56-2.22v0Zm16.86,6.68v2.87H336.94V189.9H348v2.88h-7.88v3h6.93v2.88h-6.93v3.09Zm14.07,0v2.87H351V189.9h11.08v2.88h-7.87v3h6.93v2.88h-6.93v3.09Zm8.61,2.87h-5.73V189.9h5.73c4.62,0,7.81,3.17,7.81,7.31v0c0,4.14-3.19,7.35-7.81,7.35Zm4.43-7.35a4.22,4.22,0,0,0-4.43-4.43h-2.5v8.86h2.5a4.18,4.18,0,0,0,4.43-4.39v0Zm12.08-4.37V204.6h-3.24V192.88h-4.47v-3h12.18v3Zm18.14,8.85v2.87H394.27V189.9h11.08v2.88h-7.87v3h6.93v2.88h-6.93v3.09Zm8.84-5.93c3,.78,4.66,1.85,4.66,4.41v0c0,2.91-2.22,4.55-5.39,4.55a9.37,9.37,0,0,1-6.24-2.35l1.91-2.29a6.76,6.76,0,0,0,4.39,1.79c1.32,0,2.12-.53,2.12-1.39v0c0-.82-.5-1.24-3-1.87-3-.76-4.87-1.58-4.87-4.49v0c0-2.66,2.14-4.43,5.14-4.43a8.55,8.55,0,0,1,5.46,1.87L416.84,194a6.91,6.91,0,0,0-3.82-1.45c-1.24,0-1.89.57-1.89,1.28v0c0,1,.63,1.28,3.17,1.93Zm13.82-2.92V204.6h-3.23V192.88h-4.48v-3h12.18v3Z"/><path class="cls-2" d="M370.11,178.56c-22.3,0-40.36-17.81-40.36-39.78S347.81,99,370.11,99s40.36,17.81,40.36,39.78-18.07,39.78-40.36,39.78Zm0-33.76,15.65-18.33-2.69-2.65-18.59,15.43,5.63,5.55Zm0-37.37a32,32,0,0,0-32.29,31.82,31.49,31.49,0,0,0,9.45,22.5l4.16-4.09a25.73,25.73,0,0,1-7.74-18.41,26.42,26.42,0,0,1,52.84,0,25.77,25.77,0,0,1-7.74,18.41l4.15,4.09a31.5,31.5,0,0,0,9.46-22.5,32.06,32.06,0,0,0-32.29-31.82ZM354.33,94.6h-3L330.22,63.06h31L382.8,94.6Zm32.95.11L371.53,71.3l5.69-8.24h33L387.28,94.71Z"/><text class="cls-78" transform="translate(315.45 274.48)">AMERIC<tspan class="cls-72" x="79.73" y="0">A</tspan><tspan x="93.46" y="0">’S</tspan><tspan x="29.92" y="19.56">BE</tspan><tspan class="cls-73" x="56.82" y="19.56">S</tspan><tspan class="cls-74" x="68.9" y="19.56">T</tspan><tspan x="4.69" y="39.12">INTERNET</tspan><tspan class="cls-74"><tspan x="2.93" y="58.68">PR</tspan><tspan class="cls-75" x="29.82" y="58.68">O</tspan><tspan x="45.38" y="58.68">VIDER</tspan></tspan></text></g></g></svg>