<svg id="Layer_1" data-name="Layer 1" xmlns="http://www.w3.org/2000/svg" viewBox="0 0 360 360"><defs><style>.cls-1{fill:#231f20;}</style></defs><title>SecGraphics-0-8</title><path class="cls-1" d="M182.55,185.16a38.42,38.42,0,0,0-30.07,14.41,5.76,5.76,0,0,0,.88,8.06,5.72,5.72,0,0,0,8-.88,27.13,27.13,0,0,1,42.28,0,5.73,5.73,0,0,0,4.47,2.14,5.83,5.83,0,0,0,3.6-1.27,5.74,5.74,0,0,0,.87-8.06A38.44,38.44,0,0,0,182.55,185.16Z"/><path class="cls-1" d="M182.55,153.2a64.18,64.18,0,0,0-50.21,24.06,5.76,5.76,0,0,0,.87,8.06,5.7,5.7,0,0,0,3.59,1.27q.31,0,.63,0a5.74,5.74,0,0,0,3.85-2.11,52.95,52.95,0,0,1,82.56,0,5.73,5.73,0,1,0,8.92-7.2A64.18,64.18,0,0,0,182.55,153.2Z"/><path class="cls-1" d="M182.56,120.29a89.34,89.34,0,0,0-69.9,33.49,5.73,5.73,0,0,0,4.45,9.32q.31,0,.63,0a5.74,5.74,0,0,0,3.85-2.11,78.24,78.24,0,0,1,121.93,0,5.73,5.73,0,1,0,8.94-7.18A89.34,89.34,0,0,0,182.56,120.29Z"/><path class="cls-1" d="M181,10.1c-37.6,0-73.09,13.69-99.95,38.55-27,25-41.92,58.17-41.92,93.35,0,29.11,20.91,71.41,62.15,125.73a1008.53,1008.53,0,0,0,68.32,80.14l.82.84a16.74,16.74,0,0,0,11.31,4.17,15,15,0,0,0,10.59-4.17l.81-.84a1005.57,1005.57,0,0,0,68.3-80.11c41.26-54.33,62.17-96.64,62.17-125.84C322.86,69.23,258.88,10.1,181,10.1Zm.53,326.75v0a2.22,2.22,0,0,1-.36-.06c-58.14-61.2-126-148.92-126-194.81,0-30.67,13.07-59.65,36.79-81.61C115.85,38.28,147.49,26.1,181,26.1c69.12,0,125.91,52,126.6,115.9C307.64,187.91,239.73,275.66,181.57,336.85Z"/></svg>