<svg xmlns="http://www.w3.org/2000/svg" viewBox="0 0 1210 805"><defs><style>.cls-1{fill:#fff;}</style></defs><title>BrandHub-VectorGraphics</title><g id="Vector"><rect class="cls-1" width="1210" height="805"/><rect x="600" y="46" width="564" height="712"/><path d="M77.68,137.12c-3.05-.78-5.44-1.49-5.44-3.56,0-2.4,2.52-3.82,5.5-3.82a10.84,10.84,0,0,1,6.55,2.39l3.17-4.4a15.42,15.42,0,0,0-10.11-3.37c-5.44,0-11.27,3-11.27,9.52,0,4.28,3.3,6.61,7,7.84,4.47,1.49,9.52,1.68,9.52,5.18,0,2.4-2.65,3.82-5.31,3.82a14.83,14.83,0,0,1-9-3.36l-3.17,4.53a19,19,0,0,0,12.31,4.21c6,0,11.34-3.56,11.34-9.33C88.76,140.49,82.47,138.35,77.68,137.12ZM124,128.5V125h-6V155.5h6.16V135.31a10.18,10.18,0,0,1,8.23-5.12,8.6,8.6,0,0,1,2.4.26l.71-5.9a15.49,15.49,0,0,0-2.4-.19A11.17,11.17,0,0,0,124,128.5ZM151,124.36c-8.62,0-14.84,6.74-14.84,15.87a15.47,15.47,0,0,0,15.75,15.87,16.39,16.39,0,0,0,13-6l-2.14-1.87a2.7,2.7,0,0,0-3.61-.1,10.76,10.76,0,0,1-7.17,2.55,9.82,9.82,0,0,1-9.85-9.19h23.46a12.17,12.17,0,0,0,.06-1.3C165.59,131.23,159.44,124.36,151,124.36Zm-8.36,12a8.85,8.85,0,0,1,8.55-6.6,8.52,8.52,0,0,1,8,6.6Zm-33.65,14c-3,0-5.62-1.62-5.62-5.8V130.51h8.61V125h-8.61V112.76l-6.15,2.69V125H90.65v5.49h6.52v14.17c0,6.63,4.06,11.36,11.35,11.36a15.56,15.56,0,0,0,4.48-.6l-1.25-5.38A12.6,12.6,0,0,1,108.94,150.36ZM251.2,138.93V153a2.47,2.47,0,0,0,2.46,2.47h3.69V139.91c0-5.12-.9-8.1-2.78-10.43a13.77,13.77,0,0,0-10.82-5.12,15.25,15.25,0,0,0-11.6,5,13.83,13.83,0,0,0-10.76-5,13.24,13.24,0,0,0-8.94,3.56V125h-6V155.5h6.15v-21a11.61,11.61,0,0,1,8.56-4.34,7.77,7.77,0,0,1,5.89,2.66c1.1,1.29,1.75,3,1.75,6.08V153a2.48,2.48,0,0,0,2.47,2.47H235V139.91a25.44,25.44,0,0,0-.52-5.38,12.52,12.52,0,0,1,9.27-4.34,7.48,7.48,0,0,1,5.7,2.66C250.55,134.14,251.2,135.82,251.2,138.93Zm78.4.67L340.48,125h-4.55a5,5,0,0,0-4.42,2.15l-5.74,7.71-5.55-7.71a5,5,0,0,0-4.43-2.15h-4.54L322,139.6l-11.78,15.9h4.31a5,5,0,0,0,4.42-2.15l6.81-9,16,22.05a5,5,0,0,0,4.42,2.16h4.67Zm-30.07,15.9h6.15V125h-6.15ZM193.84,127.79a14.23,14.23,0,0,0-9.52-3.43,14.48,14.48,0,0,0-7.45,1.94,16.26,16.26,0,0,0-.07,27.79,15.63,15.63,0,0,0,7.65,2,14,14,0,0,0,9.39-3.43v2.83h6V125h-6Zm-.19,18.08a10.55,10.55,0,0,1-8.36,4.34,9.94,9.94,0,0,1-10.11-10,9.75,9.75,0,0,1,9.79-10,11,11,0,0,1,8.68,4.34ZM287,126.3a14.54,14.54,0,0,0-7.46-1.94,14.29,14.29,0,0,0-9.52,3.43V125h-6v43.51h6.15V152.81a13.71,13.71,0,0,0,9.2,3.3,15.63,15.63,0,0,0,7.65-2,15.93,15.93,0,0,0,7.78-13.87A16.09,16.09,0,0,0,287,126.3Zm-8.43,24a10.6,10.6,0,0,1-8.36-4.34V134.53a11,11,0,0,1,8.68-4.34,9.75,9.75,0,0,1,9.79,10A9.94,9.94,0,0,1,278.56,150.28Z"/><path class="cls-1" d="M666.9,137.12c-3-.78-5.44-1.49-5.44-3.56,0-2.4,2.53-3.82,5.51-3.82a10.83,10.83,0,0,1,6.54,2.39l3.18-4.4a15.46,15.46,0,0,0-10.11-3.37c-5.44,0-11.28,3-11.28,9.52,0,4.28,3.31,6.61,7,7.84,4.47,1.49,9.53,1.68,9.53,5.18,0,2.4-2.66,3.82-5.31,3.82a14.83,14.83,0,0,1-9-3.36l-3.18,4.53a19,19,0,0,0,12.32,4.21c6,0,11.34-3.56,11.34-9.33C678,140.49,671.7,138.35,666.9,137.12Zm46.36-8.62V125h-6V155.5h6.15V135.31a10.21,10.21,0,0,1,8.23-5.12,8.52,8.52,0,0,1,2.4.26l.71-5.9a15.46,15.46,0,0,0-2.39-.19A11.17,11.17,0,0,0,713.26,128.5Zm26.92-4.14c-8.62,0-14.84,6.74-14.84,15.87a15.46,15.46,0,0,0,15.74,15.87,16.39,16.39,0,0,0,13-6l-2.14-1.87a2.69,2.69,0,0,0-3.6-.1,10.8,10.8,0,0,1-7.17,2.55,9.8,9.8,0,0,1-9.85-9.19h23.46a12.17,12.17,0,0,0,.06-1.3C754.82,131.23,748.66,124.36,740.18,124.36Zm-8.36,12a8.84,8.84,0,0,1,8.55-6.6,8.5,8.5,0,0,1,8,6.6Zm-33.65,14c-3,0-5.62-1.62-5.62-5.8V130.51h8.6V125h-8.6V112.76l-6.16,2.69V125h-6.51v5.49h6.51v14.17c0,6.63,4.07,11.36,11.36,11.36a15.61,15.61,0,0,0,4.48-.6L701,150.06A12.5,12.5,0,0,1,698.17,150.36Zm142.25-11.43V153a2.48,2.48,0,0,0,2.47,2.47h3.69V139.91c0-5.12-.91-8.1-2.79-10.43A13.76,13.76,0,0,0,833,124.36c-5.51,0-8.81,2.27-11.6,5a13.79,13.79,0,0,0-10.75-5,13.27,13.27,0,0,0-9,3.56V125h-6V155.5h6.16v-21a11.59,11.59,0,0,1,8.55-4.34,7.79,7.79,0,0,1,5.9,2.66c1.1,1.29,1.75,3,1.75,6.08V153a2.47,2.47,0,0,0,2.46,2.47h3.69V139.91a25.51,25.51,0,0,0-.51-5.38,12.49,12.49,0,0,1,9.26-4.34,7.5,7.5,0,0,1,5.71,2.66C839.78,134.14,840.42,135.82,840.42,138.93Zm78.41.67L929.7,125h-4.54a5,5,0,0,0-4.42,2.15L915,134.88l-5.56-7.71A5,5,0,0,0,905,125h-4.54l10.75,14.58-11.77,15.9h4.3a5.05,5.05,0,0,0,4.43-2.15l6.81-9,16,22.05a5,5,0,0,0,4.42,2.16H940Zm-30.08,15.9h6.16V125h-6.16ZM783.07,127.79a14.26,14.26,0,0,0-9.53-3.43,14.48,14.48,0,0,0-7.45,1.94,16.09,16.09,0,0,0-7.84,13.93A15.92,15.92,0,0,0,766,154.09a15.59,15.59,0,0,0,7.64,2,14,14,0,0,0,9.4-3.43v2.83h6V125h-6Zm-.2,18.08a10.54,10.54,0,0,1-8.35,4.34,9.94,9.94,0,0,1-10.11-10,9.74,9.74,0,0,1,9.78-10,11,11,0,0,1,8.68,4.34Zm93.34-19.57a14.48,14.48,0,0,0-7.45-1.94,14.31,14.31,0,0,0-9.53,3.43V125h-6v43.51h6.16V152.81a13.71,13.71,0,0,0,9.2,3.3,15.66,15.66,0,0,0,7.65-2,15.92,15.92,0,0,0,7.77-13.87A16.09,16.09,0,0,0,876.21,126.3Zm-8.42,24a10.58,10.58,0,0,1-8.36-4.34V134.53a11,11,0,0,1,8.68-4.34,9.75,9.75,0,0,1,9.79,10A10,10,0,0,1,867.79,150.28Z"/><path d="M95,263.72H87L72.47,249.34v14.38H66.53v-38.3l5.94-2.37v22.54l12.25-11.25H93.1L78.41,247.59Z"/><path d="M289.87,247.81c0-8.18-5.8-14.36-13.65-14.36-8.31,0-14,6.89-14,15.32,0,9.15,6.5,15.33,14.74,15.33a15.2,15.2,0,0,0,12.37-5.9l-.92-.82a2.32,2.32,0,0,0-3.15,0,11.7,11.7,0,0,1-8.3,3.2c-6.76,0-10.81-5.28-11.07-11.53H289.8A10.09,10.09,0,0,0,289.87,247.81ZM266,245.75c1.1-5.09,5-8.83,10.18-8.83a10,10,0,0,1,9.85,8.83Z"/><path d="M244.84,233.52a12.78,12.78,0,0,0-10.26,4.55v-3.72h-3.73v29.36h3.73V243.19a11.7,11.7,0,0,1,10.2-6.12,9.15,9.15,0,0,1,7.68,3.93c1.19,1.71,1.67,3.81,1.67,7.23v13.5a2,2,0,0,0,1.87,2h1.87V248c0-5.08-1-7.45-2.53-9.45A12.8,12.8,0,0,0,244.84,233.52Z"/><path d="M211.2,264.36A15.35,15.35,0,1,1,226.36,249,15,15,0,0,1,211.2,264.36Zm0-27.21c-6.64,0-11.47,5.29-11.47,11.86s4.83,11.87,11.47,11.87,11.48-5.29,11.48-11.87S217.84,237.15,211.2,237.15Z"/><path d="M170.9,234.09h23.51v2.19L174.77,260H192c2.67,0,3,1,3,2.53v.94H169.3v-2.19l19.57-23.69H173.94c-2.67,0-3-1-3-2.53Z"/><path d="M155.16,245.89c-2.95-.75-5.28-1.44-5.28-3.45,0-2.33,2.45-3.71,5.34-3.71a10.44,10.44,0,0,1,6.35,2.33l3.08-4.28a15.05,15.05,0,0,0-9.8-3.26c-5.28,0-10.94,2.89-10.94,9.23,0,4.15,3.21,6.41,6.79,7.6,4.33,1.45,9.24,1.64,9.24,5,0,2.32-2.58,3.71-5.16,3.71a14.35,14.35,0,0,1-8.73-3.27l-3.08,4.4a18.43,18.43,0,0,0,11.94,4.08c5.78,0,11-3.45,11-9.05C165.91,249.16,159.81,247.09,155.16,245.89Z"/><rect x="98.15" y="234.15" width="5.97" height="29.56"/><path d="M132.53,225.42v11.17a13.39,13.39,0,0,0-9.14-3.33,14.08,14.08,0,0,0-7.23,1.88,15.79,15.79,0,0,0-.06,27,15.18,15.18,0,0,0,7.41,1.94,13.55,13.55,0,0,0,9.12-3.33v2.75h5.78V223.05Zm-.09,28.7a10.26,10.26,0,0,1-8.11,4.21,9.64,9.64,0,0,1-9.8-9.74,9.45,9.45,0,0,1,9.49-9.73,10.65,10.65,0,0,1,8.42,4.2Z"/><path class="cls-1" d="M682,263.72H674l-14.56-14.38v14.38h-5.94v-38.3l5.94-2.37v22.54l12.25-11.25h8.38l-14.69,13.25Z"/><path class="cls-1" d="M876.87,247.81c0-8.18-5.8-14.36-13.65-14.36-8.31,0-14,6.89-14,15.32,0,9.15,6.5,15.33,14.74,15.33a15.2,15.2,0,0,0,12.37-5.9l-.92-.82a2.32,2.32,0,0,0-3.15,0,11.7,11.7,0,0,1-8.3,3.2c-6.76,0-10.81-5.28-11.07-11.53H876.8A10.09,10.09,0,0,0,876.87,247.81ZM853,245.75c1.1-5.09,5-8.83,10.18-8.83a10,10,0,0,1,9.85,8.83Z"/><path class="cls-1" d="M831.84,233.52a12.78,12.78,0,0,0-10.26,4.55v-3.72h-3.73v29.36h3.73V243.19a11.7,11.7,0,0,1,10.2-6.12,9.15,9.15,0,0,1,7.68,3.93c1.19,1.71,1.67,3.81,1.67,7.23v13.5a2,2,0,0,0,1.87,2h1.87V248c0-5.08-1-7.45-2.53-9.45A12.8,12.8,0,0,0,831.84,233.52Z"/><path class="cls-1" d="M798.2,264.36A15.35,15.35,0,1,1,813.36,249,15,15,0,0,1,798.2,264.36Zm0-27.21c-6.64,0-11.47,5.29-11.47,11.86s4.83,11.87,11.47,11.87,11.48-5.29,11.48-11.87S804.84,237.15,798.2,237.15Z"/><path class="cls-1" d="M757.9,234.09h23.51v2.19L761.77,260H779c2.67,0,3,1,3,2.53v.94H756.3v-2.19l19.57-23.69H760.94c-2.67,0-3-1-3-2.53Z"/><path class="cls-1" d="M742.16,245.89c-2.95-.75-5.28-1.44-5.28-3.45,0-2.33,2.45-3.71,5.34-3.71a10.44,10.44,0,0,1,6.35,2.33l3.08-4.28a15.05,15.05,0,0,0-9.8-3.26c-5.28,0-10.94,2.89-10.94,9.23,0,4.15,3.21,6.41,6.79,7.6,4.33,1.45,9.24,1.64,9.24,5,0,2.32-2.58,3.71-5.16,3.71a14.35,14.35,0,0,1-8.73-3.27l-3.08,4.4a18.43,18.43,0,0,0,11.94,4.08c5.78,0,11-3.45,11-9.05C752.91,249.16,746.81,247.09,742.16,245.89Z"/><rect class="cls-1" x="685.15" y="234.15" width="5.97" height="29.56"/><path class="cls-1" d="M719.53,225.42v11.17a13.41,13.41,0,0,0-9.14-3.33,14.08,14.08,0,0,0-7.23,1.88,15.79,15.79,0,0,0-.06,27,15.18,15.18,0,0,0,7.41,1.94,13.55,13.55,0,0,0,9.12-3.33v2.75h5.78V223.05Zm-.09,28.7a10.26,10.26,0,0,1-8.11,4.21,9.64,9.64,0,0,1-9.8-9.74,9.45,9.45,0,0,1,9.49-9.73,10.65,10.65,0,0,1,8.42,4.2Z"/><path d="M94.4,393.68H86.46L71.9,379.3v14.38H66v-38.3L71.9,353v22.54L84.15,364.3h8.38L77.84,377.55Z"/><path d="M289.3,377.77c0-8.18-5.8-14.36-13.65-14.36-8.31,0-14,6.89-14,15.32,0,9.15,6.5,15.33,14.74,15.33a15.26,15.26,0,0,0,12.38-5.89l-.93-.83a2.32,2.32,0,0,0-3.15,0,11.7,11.7,0,0,1-8.3,3.2c-6.76,0-10.81-5.28-11.07-11.52h24A10.22,10.22,0,0,0,289.3,377.77Zm-23.83-2.06c1.1-5.09,5-8.82,10.18-8.82a10,10,0,0,1,9.85,8.82Z"/><path d="M244.27,363.49c-4.26,0-8.09,1.69-10.26,4.54v-3.72h-3.73v29.37H234V373.15a11.7,11.7,0,0,1,10.2-6.12,9.15,9.15,0,0,1,7.68,3.93c1.19,1.71,1.67,3.81,1.67,7.23v13.5a2,2,0,0,0,1.87,2h1.87V377.93c0-5.08-1-7.45-2.53-9.45A12.79,12.79,0,0,0,244.27,363.49Z"/><path d="M210.63,394.32A15.35,15.35,0,1,1,225.79,379,15,15,0,0,1,210.63,394.32Zm0-27.21c-6.64,0-11.47,5.29-11.47,11.86s4.83,11.87,11.47,11.87,11.48-5.29,11.48-11.87S217.28,367.11,210.63,367.11Z"/><path d="M170.34,364.05h23.5v2.19l-19.64,23.7h17.25c2.67,0,3,1,3,2.53v.95H168.73v-2.19l19.57-23.7H173.37c-2.67,0-3-1-3-2.53Z"/><path d="M154.59,375.86c-3-.76-5.28-1.45-5.28-3.46,0-2.32,2.45-3.71,5.34-3.71A10.5,10.5,0,0,1,161,371l3.08-4.27a15,15,0,0,0-9.8-3.27c-5.28,0-10.94,2.89-10.94,9.23,0,4.15,3.21,6.41,6.79,7.61,4.33,1.44,9.24,1.63,9.24,5,0,2.33-2.58,3.71-5.16,3.71a14.35,14.35,0,0,1-8.73-3.27l-3.08,4.4a18.43,18.43,0,0,0,11.94,4.08c5.78,0,11-3.45,11-9C165.34,379.12,159.24,377.05,154.59,375.86Z"/><rect x="97.58" y="364.12" width="5.97" height="29.56"/><path d="M132,355.38v11.17a13.44,13.44,0,0,0-9.14-3.33,14,14,0,0,0-7.23,1.89,15.78,15.78,0,0,0-.06,26.95,15.18,15.18,0,0,0,7.41,1.94,13.59,13.59,0,0,0,9.12-3.32v2.74h5.78V353Zm-.09,28.7a10.26,10.26,0,0,1-8.11,4.21,9.64,9.64,0,0,1-9.8-9.73,9.45,9.45,0,0,1,9.49-9.74,10.63,10.63,0,0,1,8.42,4.21Z"/><path d="M74.06,338.41l4.42-5.93H76.63a2.06,2.06,0,0,0-1.8.87l-2.33,3.14-2.26-3.14a2.06,2.06,0,0,0-1.8-.87H66.59L71,338.41l-4.8,6.47h1.76a2.06,2.06,0,0,0,1.8-.87l2.77-3.68,6.49,9a2,2,0,0,0,1.8.88h1.9Zm35.44,6.47H112v-12.4H109.5Zm-19.88,0h2.51v-12.4H89.62Zm38,4.38,9.08-16.78h-1.37a1.86,1.86,0,0,0-1.8.87L130,340l-3.09-6.64a1.8,1.8,0,0,0-1.8-.87h-1.32l4.77,10.12-4.16,7.59h1.37A2,2,0,0,0,127.62,349.26Zm-32.5-16.78v12.4h2.51v-8.51a3.94,3.94,0,0,1,3.28-1.78c1.85,0,3.12,1.17,3.12,3.51v5.59a1.12,1.12,0,0,0,1.16,1.19h1.34v-7.22c0-3.21-2-5.45-5-5.45a5.61,5.61,0,0,0-3.89,1.48v-1.21Zm21.53,8a4.3,4.3,0,0,0,4.62,4.62,6.66,6.66,0,0,0,1.83-.24l-.51-2.19a5.42,5.42,0,0,1-1.15.12,2.13,2.13,0,0,1-2.28-2.36v-5.72h3.5l-1-2.23h-2.48v-5l-2.51,1.09v3.9H114v2.23h2.65Zm-34.74-5.77v10.17h2.51V334.71h3.21v-2.23H84.42v-.93c0-2.11,1.26-2.82,2.5-2.82a3.19,3.19,0,0,1,.86.12l.51-2.21a4.42,4.42,0,0,0-1.56-.25c-3.11,0-4.82,2.32-4.82,5.11v1H80.6L79,334.71Z"/><path class="cls-1" d="M682.4,393.68h-7.94L659.9,379.3v14.38H654v-38.3L659.9,353v22.54l12.25-11.25h8.38l-14.69,13.25Z"/><path class="cls-1" d="M877.3,377.77c0-8.18-5.8-14.36-13.65-14.36-8.31,0-14,6.89-14,15.32,0,9.15,6.5,15.33,14.74,15.33a15.26,15.26,0,0,0,12.38-5.89l-.93-.83a2.32,2.32,0,0,0-3.15,0,11.7,11.7,0,0,1-8.3,3.2c-6.76,0-10.81-5.28-11.07-11.52h24A10.22,10.22,0,0,0,877.3,377.77Zm-23.83-2.06c1.1-5.09,5-8.82,10.18-8.82a10,10,0,0,1,9.85,8.82Z"/><path class="cls-1" d="M832.27,363.49c-4.26,0-8.09,1.69-10.26,4.54v-3.72h-3.73v29.37H822V373.15a11.7,11.7,0,0,1,10.2-6.12,9.15,9.15,0,0,1,7.68,3.93c1.19,1.71,1.67,3.81,1.67,7.23v13.5a2,2,0,0,0,1.87,2h1.87V377.93c0-5.08-1-7.45-2.53-9.45A12.79,12.79,0,0,0,832.27,363.49Z"/><path class="cls-1" d="M798.63,394.32A15.35,15.35,0,1,1,813.79,379,15,15,0,0,1,798.63,394.32Zm0-27.21c-6.64,0-11.47,5.29-11.47,11.86s4.83,11.87,11.47,11.87,11.48-5.29,11.48-11.87S805.28,367.11,798.63,367.11Z"/><path class="cls-1" d="M758.34,364.05h23.5v2.19l-19.64,23.7h17.25c2.67,0,3,1,3,2.53v.95H756.73v-2.19l19.57-23.7H761.37c-2.67,0-3-1-3-2.53Z"/><path class="cls-1" d="M742.59,375.86c-3-.76-5.28-1.45-5.28-3.46,0-2.32,2.45-3.71,5.34-3.71A10.5,10.5,0,0,1,749,371l3.08-4.27a15,15,0,0,0-9.8-3.27c-5.28,0-10.94,2.89-10.94,9.23,0,4.15,3.21,6.41,6.79,7.61,4.33,1.44,9.24,1.63,9.24,5,0,2.33-2.58,3.71-5.16,3.71a14.35,14.35,0,0,1-8.73-3.27l-3.08,4.4a18.43,18.43,0,0,0,11.94,4.08c5.78,0,11-3.45,11-9C753.34,379.12,747.24,377.05,742.59,375.86Z"/><rect class="cls-1" x="685.58" y="364.12" width="5.97" height="29.56"/><path class="cls-1" d="M720,355.38v11.17a13.44,13.44,0,0,0-9.14-3.33,14,14,0,0,0-7.23,1.89,15.78,15.78,0,0,0-.06,26.95,15.18,15.18,0,0,0,7.41,1.94,13.59,13.59,0,0,0,9.12-3.32v2.74h5.78V353Zm-.09,28.7a10.26,10.26,0,0,1-8.11,4.21,9.64,9.64,0,0,1-9.8-9.73,9.45,9.45,0,0,1,9.49-9.74,10.63,10.63,0,0,1,8.42,4.21Z"/><path class="cls-1" d="M662.06,338.41l4.42-5.93h-1.85a2.06,2.06,0,0,0-1.8.87l-2.33,3.14-2.26-3.14a2.06,2.06,0,0,0-1.8-.87h-1.85l4.38,5.93-4.8,6.47h1.76a2.06,2.06,0,0,0,1.8-.87l2.77-3.68,6.49,9a2,2,0,0,0,1.8.88h1.9Zm35.44,6.47H700v-12.4H697.5Zm-19.88,0h2.51v-12.4h-2.51Zm38,4.38,9.08-16.78h-1.37a1.86,1.86,0,0,0-1.8.87L718,340l-3.09-6.64a1.8,1.8,0,0,0-1.8-.87h-1.32l4.77,10.12-4.16,7.59h1.37A2,2,0,0,0,715.62,349.26Zm-32.5-16.78v12.4h2.51v-8.51a3.94,3.94,0,0,1,3.28-1.78c1.85,0,3.12,1.17,3.12,3.51v5.59a1.12,1.12,0,0,0,1.16,1.19h1.34v-7.22c0-3.21-2-5.45-5-5.45a5.61,5.61,0,0,0-3.89,1.48v-1.21Zm21.53,8a4.3,4.3,0,0,0,4.62,4.62,6.66,6.66,0,0,0,1.83-.24l-.51-2.19a5.42,5.42,0,0,1-1.15.12,2.13,2.13,0,0,1-2.28-2.36v-5.72h3.5l-1-2.23h-2.48v-5l-2.51,1.09v3.9H702v2.23h2.65Zm-34.74-5.77v10.17h2.51V334.71h3.21v-2.23h-3.21v-.93c0-2.11,1.26-2.82,2.5-2.82a3.19,3.19,0,0,1,.86.12l.51-2.21a4.42,4.42,0,0,0-1.56-.25c-3.11,0-4.82,2.32-4.82,5.11v1H668.6L667,334.71Z"/><path d="M87.54,494.69l13-17.48H95.13a6,6,0,0,0-5.3,2.58L83,489l-6.66-9.24a6,6,0,0,0-5.3-2.58H65.56l12.88,17.48-14.1,19h5.15a6,6,0,0,0,5.3-2.57L83,500.34l19.11,26.43a6,6,0,0,0,5.3,2.57H113Zm104.33,19h7.37V477.21h-7.37Zm-58.5,0h7.37V477.21h-7.37Zm111.84,12.89,26.71-49.41h-4c-2.43,0-4.3.72-5.3,2.58l-10.52,19.55L243,479.79c-.93-1.93-2.86-2.58-5.3-2.58h-3.86l14,29.79-12.24,22.34h4C242.13,529.34,244.14,528.56,245.21,526.62Zm-95.66-49.41v36.52h7.37V488.67a11.63,11.63,0,0,1,9.67-5.23c5.44,0,9.17,3.44,9.17,10.32v16.46a3.32,3.32,0,0,0,3.43,3.51h3.94V492.47c0-9.46-6-16-14.75-16a16.44,16.44,0,0,0-11.46,4.37v-3.59Zm63.37,23.56c0,8,4.87,13.61,13.6,13.61a18.69,18.69,0,0,0,5.37-.72l-1.5-6.44a15.46,15.46,0,0,1-3.37.36c-3.58,0-6.73-1.94-6.73-6.95V483.8H230.6l-3-6.59h-7.31V462.54l-7.37,3.22v11.45h-7.81v6.59h7.81Zm-102.25-17v29.93H118V483.8h9.45v-6.59H118v-2.72c0-6.23,3.73-8.3,7.38-8.3a8.56,8.56,0,0,1,2.5.36l1.51-6.52a12.86,12.86,0,0,0-4.59-.72c-9.16,0-14.17,6.81-14.17,15v2.86H106.8l-4.65,6.59Z"/><path d="M77.93,546.3A10.21,10.21,0,1,0,88,556.51,10,10,0,0,0,77.93,546.3Zm6.41,10.21a6.41,6.41,0,1,1-6.41-6.65A6.39,6.39,0,0,1,84.34,556.51Z"/><path d="M100.14,546.3a9,9,0,0,0-5.73,1.92V546.7h-3.6v19.62h3.68V553.15a6.5,6.5,0,0,1,5.61-3.29,5,5,0,0,1,4.18,2.13c.47.69.91,1.65.91,4.08v10.25h3.68V555.91c0-2.89-.47-4.64-1.69-6.25A8.59,8.59,0,0,0,100.14,546.3Z"/><path d="M229.15,546.47a9,9,0,0,0-5.55,1.79v-1.39h-3.69V566.5h3.69V553.27a6.39,6.39,0,0,1,5.51-3.23,4.86,4.86,0,0,1,4.11,2.1,6.65,6.65,0,0,1,.9,4v8.44A1.9,1.9,0,0,0,236,566.5h1.84V556c0-3.3-.67-4.86-1.68-6.19A8.52,8.52,0,0,0,229.15,546.47Z"/><path d="M150.15,546.42c-5.35,0-9.38,4.38-9.38,10.18s4.13,10.18,9.82,10.18a10.16,10.16,0,0,0,8.21-3.91l.4-.52-1.06-1a2.15,2.15,0,0,0-2.9,0,6.53,6.53,0,0,1-4.65,1.8c-3.75,0-5.71-2.77-6.09-5.73h14.68l.07-.62a6.68,6.68,0,0,0,.05-.88C159.3,550.54,155.37,546.42,150.15,546.42Zm5.23,7.61h-10.6a5.62,5.62,0,0,1,5.37-4A5.39,5.39,0,0,1,155.38,554Z"/><path d="M212.61,548.48a9.77,9.77,0,0,0-6-2,10.06,10.06,0,0,0-6.25,2.2,10.47,10.47,0,0,0-3.65,8,10,10,0,0,0,4.18,8.37,9.85,9.85,0,0,0,5.84,1.85,9.16,9.16,0,0,0,5.86-2v1.63h3.61V546.87h-3.61ZM206.67,550a7.34,7.34,0,0,1,5.86,3.18v6.65a6.91,6.91,0,0,1-5.82,3.49,6.45,6.45,0,0,1-3.71-1.24,6.53,6.53,0,0,1-2.58-5.42,6.72,6.72,0,0,1,2.3-5.25A6.32,6.32,0,0,1,206.67,550Z"/><path d="M185.77,546.47a9,9,0,0,0-7.1,3.35,8.37,8.37,0,0,0-6.9-3.35,8.85,8.85,0,0,0-5.45,1.87v-1.47h-3.61v19.64h3.69v-13.2a6.36,6.36,0,0,1,5.37-3.28,4.72,4.72,0,0,1,4,2.09c.55.83.92,1.88.92,4.33v8.22a1.85,1.85,0,0,0,1.84,1.84h1.85V556.17a16.25,16.25,0,0,0-.18-2.48,6.58,6.58,0,0,1,5.55-3.66,4.73,4.73,0,0,1,4,2.09c.55.83.92,1.88.92,4.33v8.22a1.85,1.85,0,0,0,1.84,1.84h1.84V556.17a10.78,10.78,0,0,0-1.17-5.51A8.42,8.42,0,0,0,185.77,546.47Z"/><path d="M134.43,548.34a9.64,9.64,0,0,0-5.82-1.93,10,10,0,0,0-6.17,2.18,10.31,10.31,0,0,0-3.61,7.93,9.91,9.91,0,0,0,4.13,8.27,9.78,9.78,0,0,0,5.77,1.83,9.14,9.14,0,0,0,5.78-2v1.66h3.58V537.55L134.43,539Zm0,4.74v6.56a6.78,6.78,0,0,1-5.74,3.44,6.37,6.37,0,0,1-3.66-1.22,6.46,6.46,0,0,1-2.54-5.34,6.6,6.6,0,0,1,2.26-5.18,6.32,6.32,0,0,1,3.9-1.39A7.27,7.27,0,0,1,134.43,553.08Z"/><path d="M255.78,539v9.3a9.64,9.64,0,0,0-5.82-1.93,10,10,0,0,0-6.18,2.18,10.34,10.34,0,0,0-3.6,7.93,9.84,9.84,0,0,0,9.9,10.1,9.09,9.09,0,0,0,5.77-2v1.66h3.59V537.55Zm0,14v6.56a6.78,6.78,0,0,1-5.74,3.44,6.37,6.37,0,0,1-3.66-1.22,6.46,6.46,0,0,1-2.55-5.34,6.61,6.61,0,0,1,2.27-5.18A6.28,6.28,0,0,1,250,550,7.27,7.27,0,0,1,255.78,553.08Z"/><path class="cls-1" d="M676.54,494.69l13-17.48h-5.44a6,6,0,0,0-5.3,2.58L672,489l-6.66-9.24a6,6,0,0,0-5.3-2.58h-5.44l12.88,17.48-14.1,19h5.15a6,6,0,0,0,5.3-2.57L672,500.34l19.11,26.43a6,6,0,0,0,5.3,2.57H702Zm104.33,19h7.37V477.21h-7.37Zm-58.5,0h7.37V477.21h-7.37Zm111.84,12.89,26.71-49.41h-4c-2.43,0-4.3.72-5.3,2.58l-10.52,19.55L832,479.79c-.93-1.93-2.86-2.58-5.3-2.58h-3.86l14,29.79-12.24,22.34h4C831.13,529.34,833.14,528.56,834.21,526.62Zm-95.66-49.41v36.52h7.37V488.67a11.63,11.63,0,0,1,9.67-5.23c5.44,0,9.17,3.44,9.17,10.32v16.46a3.32,3.32,0,0,0,3.43,3.51h3.94V492.47c0-9.46-6-16-14.75-16a16.44,16.44,0,0,0-11.46,4.37v-3.59Zm63.37,23.56c0,8,4.87,13.61,13.6,13.61a18.69,18.69,0,0,0,5.37-.72l-1.5-6.44a15.46,15.46,0,0,1-3.37.36c-3.58,0-6.73-1.94-6.73-6.95V483.8H819.6l-3-6.59h-7.31V462.54l-7.37,3.22v11.45h-7.81v6.59h7.81Zm-102.25-17v29.93H707V483.8h9.45v-6.59H707v-2.72c0-6.23,3.73-8.3,7.38-8.3a8.56,8.56,0,0,1,2.5.36l1.51-6.52a12.86,12.86,0,0,0-4.59-.72c-9.16,0-14.17,6.81-14.17,15v2.86H695.8l-4.65,6.59Z"/><path class="cls-1" d="M666.93,546.3A10.21,10.21,0,1,0,677,556.51,10,10,0,0,0,666.93,546.3Zm6.41,10.21a6.41,6.41,0,1,1-6.41-6.65A6.39,6.39,0,0,1,673.34,556.51Z"/><path class="cls-1" d="M689.14,546.3a9,9,0,0,0-5.73,1.92V546.7h-3.6v19.62h3.68V553.15a6.5,6.5,0,0,1,5.61-3.29,5,5,0,0,1,4.18,2.13c.47.69.91,1.65.91,4.08v10.25h3.68V555.91c0-2.89-.47-4.64-1.69-6.25A8.59,8.59,0,0,0,689.14,546.3Z"/><path class="cls-1" d="M818.15,546.47a9,9,0,0,0-5.55,1.79v-1.39h-3.69V566.5h3.69V553.27a6.39,6.39,0,0,1,5.51-3.23,4.86,4.86,0,0,1,4.11,2.1,6.65,6.65,0,0,1,.9,4v8.44A1.9,1.9,0,0,0,825,566.5h1.84V556c0-3.3-.67-4.86-1.68-6.19A8.52,8.52,0,0,0,818.15,546.47Z"/><path class="cls-1" d="M739.15,546.42c-5.35,0-9.38,4.38-9.38,10.18s4.13,10.18,9.82,10.18a10.16,10.16,0,0,0,8.21-3.91l.4-.52-1.06-1a2.15,2.15,0,0,0-2.9,0,6.53,6.53,0,0,1-4.65,1.8c-3.75,0-5.71-2.77-6.09-5.73h14.68l.07-.62a6.68,6.68,0,0,0,0-.88C748.3,550.54,744.37,546.42,739.15,546.42Zm5.23,7.61h-10.6a5.62,5.62,0,0,1,5.37-4A5.39,5.39,0,0,1,744.38,554Z"/><path class="cls-1" d="M801.61,548.48a9.77,9.77,0,0,0-6-2,10.06,10.06,0,0,0-6.25,2.2,10.47,10.47,0,0,0-3.65,8,10,10,0,0,0,4.18,8.37,9.85,9.85,0,0,0,5.84,1.85,9.16,9.16,0,0,0,5.86-2v1.63h3.61V546.87h-3.61ZM795.67,550a7.34,7.34,0,0,1,5.86,3.18v6.65a6.91,6.91,0,0,1-5.82,3.49,6.45,6.45,0,0,1-3.71-1.24,6.53,6.53,0,0,1-2.58-5.42,6.72,6.72,0,0,1,2.3-5.25A6.32,6.32,0,0,1,795.67,550Z"/><path class="cls-1" d="M774.77,546.47a9,9,0,0,0-7.1,3.35,8.37,8.37,0,0,0-6.9-3.35,8.85,8.85,0,0,0-5.45,1.87v-1.47h-3.61v19.64h3.69v-13.2a6.36,6.36,0,0,1,5.37-3.28,4.72,4.72,0,0,1,4,2.09c.55.83.92,1.88.92,4.33v8.22a1.85,1.85,0,0,0,1.84,1.84h1.85V556.17a16.25,16.25,0,0,0-.18-2.48,6.58,6.58,0,0,1,5.55-3.66,4.73,4.73,0,0,1,4,2.09c.55.83.92,1.88.92,4.33v8.22a1.85,1.85,0,0,0,1.84,1.84h1.84V556.17a10.78,10.78,0,0,0-1.17-5.51A8.42,8.42,0,0,0,774.77,546.47Z"/><path class="cls-1" d="M723.43,548.34a9.64,9.64,0,0,0-5.82-1.93,10,10,0,0,0-6.17,2.18,10.31,10.31,0,0,0-3.61,7.93,9.91,9.91,0,0,0,4.13,8.27,9.78,9.78,0,0,0,5.77,1.83,9.14,9.14,0,0,0,5.78-2v1.66h3.58V537.55L723.43,539Zm0,4.74v6.56a6.78,6.78,0,0,1-5.74,3.44,6.37,6.37,0,0,1-3.66-1.22,6.46,6.46,0,0,1-2.54-5.34,6.6,6.6,0,0,1,2.26-5.18,6.32,6.32,0,0,1,3.9-1.39A7.27,7.27,0,0,1,723.43,553.08Z"/><path class="cls-1" d="M844.78,539v9.3a9.64,9.64,0,0,0-5.82-1.93,10,10,0,0,0-6.18,2.18,10.34,10.34,0,0,0-3.6,7.93,9.84,9.84,0,0,0,9.9,10.1,9.09,9.09,0,0,0,5.77-2v1.66h3.59V537.55Zm0,14v6.56a6.78,6.78,0,0,1-5.74,3.44,6.37,6.37,0,0,1-3.66-1.22,6.46,6.46,0,0,1-2.55-5.34,6.61,6.61,0,0,1,2.27-5.18A6.28,6.28,0,0,1,839,550,7.27,7.27,0,0,1,844.78,553.08Z"/><path d="M87.53,670l13-17.45H95.11a6,6,0,0,0-5.29,2.58L83,664.31l-6.65-9.22A6,6,0,0,0,71,652.51H65.58L78.45,670,64.36,689h5.15a6,6,0,0,0,5.29-2.58L83,675.61,102,702a5.93,5.93,0,0,0,5.29,2.57h5.58Zm104.18,19h7.36V652.51h-7.36Zm-58.42,0h7.36V652.51h-7.36ZM245,701.85l26.67-49.34h-4c-2.43,0-4.29.72-5.29,2.58l-10.51,19.52-9.08-19.52c-.93-1.94-2.86-2.58-5.29-2.58h-3.86l14,29.75-12.23,22.3h4C241.9,704.56,243.9,703.78,245,701.85Zm-95.53-49.34V689h7.36V664a11.6,11.6,0,0,1,9.66-5.22c5.43,0,9.15,3.43,9.15,10.3v16.44a3.32,3.32,0,0,0,3.43,3.51H183V667.74c0-9.44-6-16-14.73-16a16.45,16.45,0,0,0-11.44,4.37v-3.58ZM212.73,676c0,7.93,4.86,13.58,13.58,13.58a19.09,19.09,0,0,0,5.37-.71l-1.51-6.44a14.77,14.77,0,0,1-3.36.36c-3.57,0-6.72-1.93-6.72-6.94v-16.8h10.3l-3-6.58h-7.3V637.85l-7.36,3.22v11.44h-7.8v6.58h7.8ZM110.62,659.09V689H118V659.09h9.44v-6.58H118v-2.72c0-6.22,3.72-8.29,7.36-8.29a8.68,8.68,0,0,1,2.51.36l1.5-6.51a12.85,12.85,0,0,0-4.58-.71c-9.15,0-14.16,6.79-14.16,15v2.86h-3.86l-4.65,6.58Z"/><path d="M291.33,660.16a10,10,0,1,0,9.9,10A9.86,9.86,0,0,0,291.33,660.16Zm6.29,10a6.29,6.29,0,1,1-6.29-6.52A6.28,6.28,0,0,1,297.62,670.18Z"/><path d="M313.12,660.16a8.86,8.86,0,0,0-5.62,1.89v-1.49H304v19.25h3.61V666.89a6.39,6.39,0,0,1,5.51-3.23,4.84,4.84,0,0,1,4.09,2.1c.47.67.9,1.61.9,4v10.06h3.61V669.6c0-2.84-.46-4.56-1.66-6.14A8.46,8.46,0,0,0,313.12,660.16Z"/><path d="M439.72,660.34a8.88,8.88,0,0,0-5.45,1.75v-1.36h-3.62V680h3.62V667a6.28,6.28,0,0,1,5.41-3.17,4.8,4.8,0,0,1,4,2.06,6.59,6.59,0,0,1,.88,3.93v8.29a1.86,1.86,0,0,0,1.8,1.87h1.81V669.68c0-3.24-.66-4.77-1.65-6.07A8.34,8.34,0,0,0,439.72,660.34Z"/><path d="M362.2,660.29c-5.25,0-9.21,4.29-9.21,10s4.06,10,9.64,10a9.94,9.94,0,0,0,8.05-3.85l.4-.5-1-.93a2.09,2.09,0,0,0-2.84,0,6.45,6.45,0,0,1-4.57,1.76c-3.68,0-5.6-2.72-6-5.62h14.41l.06-.61a6.42,6.42,0,0,0,.05-.86C371.18,664.33,367.32,660.29,362.2,660.29Zm5.13,7.46h-10.4a5.53,5.53,0,0,1,5.27-4A5.3,5.3,0,0,1,367.33,667.75Z"/><path d="M423.49,662.31a9.55,9.55,0,0,0-5.86-2,9.84,9.84,0,0,0-6.14,2.17,10.26,10.26,0,0,0-3.58,7.86,9.84,9.84,0,0,0,4.1,8.22,9.71,9.71,0,0,0,5.73,1.81,9,9,0,0,0,5.75-2V680H427V660.73h-3.54Zm-5.82,1.52a7.18,7.18,0,0,1,5.74,3.12v6.52a6.73,6.73,0,0,1-5.7,3.42,6.36,6.36,0,0,1-3.65-1.2,6.43,6.43,0,0,1-2.53-5.33,6.59,6.59,0,0,1,2.25-5.15A6.26,6.26,0,0,1,417.67,663.83Z"/><path d="M397.16,660.33a8.89,8.89,0,0,0-7,3.29,8.23,8.23,0,0,0-6.76-3.29,8.61,8.61,0,0,0-5.35,1.85v-1.46h-3.54V680h3.61V667a6.3,6.3,0,0,1,5.28-3.21,4.64,4.64,0,0,1,3.94,2c.54.81.9,1.85.9,4.25v8.06a1.81,1.81,0,0,0,1.81,1.81h1.81V669.85a17.06,17.06,0,0,0-.17-2.43,6.44,6.44,0,0,1,5.45-3.59,4.65,4.65,0,0,1,3.94,2c.54.81.9,1.85.9,4.25v8.06a1.81,1.81,0,0,0,1.81,1.81h1.81V669.85a10.69,10.69,0,0,0-1.15-5.4A8.26,8.26,0,0,0,397.16,660.33Z"/><path d="M346.77,662.17a9.41,9.41,0,0,0-5.7-1.89,9.76,9.76,0,0,0-6.07,2.14,10.12,10.12,0,0,0-3.53,7.77,9.66,9.66,0,0,0,9.71,9.92,8.88,8.88,0,0,0,5.67-2v1.63h3.52v-28.2l-3.6,1.47Zm0,4.65v6.44a6.63,6.63,0,0,1-5.62,3.37,6.14,6.14,0,0,1-6.1-6.44,6.51,6.51,0,0,1,2.23-5.08,6.19,6.19,0,0,1,3.83-1.36A7.1,7.1,0,0,1,346.77,666.82Z"/><path d="M465.85,653.05v9.12a9.44,9.44,0,0,0-5.71-1.89,9.75,9.75,0,0,0-6.06,2.14,10.13,10.13,0,0,0-3.54,7.77,9.72,9.72,0,0,0,4,8.12,9.61,9.61,0,0,0,5.67,1.8,8.88,8.88,0,0,0,5.67-2v1.63h3.52v-28.2Zm0,13.77v6.44a6.65,6.65,0,0,1-5.63,3.37,6.24,6.24,0,0,1-3.59-1.19,6.32,6.32,0,0,1-2.5-5.25,6.48,6.48,0,0,1,2.23-5.08,6.17,6.17,0,0,1,3.82-1.36A7.1,7.1,0,0,1,465.85,666.82Z"/><path class="cls-1" d="M676,670l13-17.45h-5.43a6,6,0,0,0-5.29,2.58l-6.87,9.22-6.65-9.22a6,6,0,0,0-5.29-2.58h-5.43L666.92,670l-14.09,19H658a6,6,0,0,0,5.29-2.58l8.15-10.79L690.51,702a5.94,5.94,0,0,0,5.3,2.57h5.57Zm104.18,19h7.36V652.51h-7.36Zm-58.42,0h7.37V652.51h-7.37Zm111.69,12.87,26.67-49.34h-4c-2.43,0-4.29.72-5.29,2.58l-10.51,19.52-9.08-19.52c-.93-1.94-2.86-2.58-5.29-2.58h-3.86l14,29.75-12.22,22.3h4C830.37,704.56,832.37,703.78,833.45,701.85Zm-95.53-49.34V689h7.37V664a11.57,11.57,0,0,1,9.65-5.22c5.43,0,9.15,3.43,9.15,10.3v16.44a3.32,3.32,0,0,0,3.43,3.51h3.94V667.74c0-9.44-6-16-14.73-16a16.42,16.42,0,0,0-11.44,4.37v-3.58ZM801.2,676c0,7.93,4.86,13.58,13.59,13.58a19.06,19.06,0,0,0,5.36-.71l-1.5-6.44a14.84,14.84,0,0,1-3.36.36c-3.58,0-6.73-1.93-6.73-6.94v-16.8h10.3l-3-6.58h-7.3V637.85l-7.36,3.22v11.44h-7.79v6.58h7.79ZM699.1,659.09V689h7.36V659.09h9.44v-6.58h-9.44v-2.72c0-6.22,3.72-8.29,7.36-8.29a8.68,8.68,0,0,1,2.51.36l1.5-6.51a12.85,12.85,0,0,0-4.58-.71c-9.15,0-14.15,6.79-14.15,15v2.86h-3.87l-4.64,6.58Z"/><path class="cls-1" d="M879.8,660.16a10,10,0,1,0,9.9,10A9.86,9.86,0,0,0,879.8,660.16Zm6.29,10a6.29,6.29,0,1,1-6.29-6.52A6.27,6.27,0,0,1,886.09,670.18Z"/><path class="cls-1" d="M901.6,660.16a8.87,8.87,0,0,0-5.63,1.89v-1.49h-3.53v19.25h3.61V666.89a6.39,6.39,0,0,1,5.51-3.23,4.87,4.87,0,0,1,4.1,2.1c.46.67.89,1.61.89,4v10.06h3.62V669.6c0-2.84-.47-4.56-1.67-6.14A8.45,8.45,0,0,0,901.6,660.16Z"/><path class="cls-1" d="M1028.2,660.34a8.89,8.89,0,0,0-5.46,1.75v-1.36h-3.61V680h3.61V667a6.3,6.3,0,0,1,5.42-3.17,4.8,4.8,0,0,1,4,2.06,6.59,6.59,0,0,1,.88,3.93v8.29a1.87,1.87,0,0,0,1.81,1.87h1.8V669.68c0-3.24-.66-4.77-1.64-6.07A8.35,8.35,0,0,0,1028.2,660.34Z"/><path class="cls-1" d="M950.67,660.29c-5.25,0-9.21,4.29-9.21,10s4.06,10,9.64,10a10,10,0,0,0,8.06-3.85l.39-.5-1-.93a2.09,2.09,0,0,0-2.84,0,6.45,6.45,0,0,1-4.57,1.76c-3.68,0-5.6-2.72-6-5.62h14.41l.07-.61a8,8,0,0,0,0-.86C959.65,664.33,955.79,660.29,950.67,660.29Zm5.13,7.46H945.4a5.53,5.53,0,0,1,5.27-4A5.3,5.3,0,0,1,955.8,667.75Z"/><path class="cls-1" d="M1012,662.31a9.55,9.55,0,0,0-5.86-2,9.86,9.86,0,0,0-6.14,2.17,10.26,10.26,0,0,0-3.58,7.86,9.84,9.84,0,0,0,4.1,8.22,9.72,9.72,0,0,0,5.74,1.81,9,9,0,0,0,5.74-2V680h3.54V660.73H1012Zm-5.82,1.52a7.18,7.18,0,0,1,5.74,3.12v6.52a6.73,6.73,0,0,1-5.7,3.42,6.36,6.36,0,0,1-3.65-1.2,6.46,6.46,0,0,1-2.53-5.33,6.57,6.57,0,0,1,2.26-5.15A6.21,6.21,0,0,1,1006.14,663.83Z"/><path class="cls-1" d="M985.63,660.33a8.86,8.86,0,0,0-7,3.29,8.25,8.25,0,0,0-6.77-3.29,8.61,8.61,0,0,0-5.35,1.85v-1.46H963V680h3.62V667a6.27,6.27,0,0,1,5.27-3.21,4.64,4.64,0,0,1,3.94,2c.54.81.91,1.85.91,4.25v8.06a1.81,1.81,0,0,0,1.8,1.81h1.81V669.85a17.06,17.06,0,0,0-.17-2.43,6.44,6.44,0,0,1,5.45-3.59,4.65,4.65,0,0,1,3.94,2c.54.81.9,1.85.9,4.25v8.06a1.81,1.81,0,0,0,1.81,1.81h1.81V669.85a10.58,10.58,0,0,0-1.15-5.4A8.26,8.26,0,0,0,985.63,660.33Z"/><path class="cls-1" d="M935.24,662.17a9.41,9.41,0,0,0-5.7-1.89,9.73,9.73,0,0,0-6.06,2.14,10.13,10.13,0,0,0-3.54,7.77,9.69,9.69,0,0,0,4,8.12,9.59,9.59,0,0,0,5.67,1.8,8.86,8.86,0,0,0,5.66-2v1.63h3.52v-28.2l-3.6,1.47Zm0,4.65v6.44a6.63,6.63,0,0,1-5.62,3.37,6.13,6.13,0,0,1-6.09-6.44,6.5,6.5,0,0,1,2.22-5.08,6.19,6.19,0,0,1,3.83-1.36A7.08,7.08,0,0,1,935.24,666.82Z"/><path class="cls-1" d="M1054.32,653.05v9.12a9.41,9.41,0,0,0-5.7-1.89,9.76,9.76,0,0,0-6.07,2.14,10.13,10.13,0,0,0-3.54,7.77,9.72,9.72,0,0,0,4,8.12,9.61,9.61,0,0,0,5.67,1.8,8.88,8.88,0,0,0,5.67-2v1.63h3.52v-28.2Zm0,13.77v6.44a6.64,6.64,0,0,1-5.63,3.37,6.27,6.27,0,0,1-3.59-1.19,6.35,6.35,0,0,1-2.5-5.25,6.48,6.48,0,0,1,2.23-5.08,6.17,6.17,0,0,1,3.83-1.36A7.1,7.1,0,0,1,1054.32,666.82Z"/></g></svg>