<svg xmlns="http://www.w3.org/2000/svg" viewBox="0 0 1210 455"><defs><style>.cls-1{fill:#fff;}</style></defs><title>BrandHub-VectorGraphics</title><g id="Vector"><rect class="cls-1" width="1210" height="455"/><path d="M87.37,320.4l13-17.44H95a6,6,0,0,0-5.29,2.57l-6.87,9.22-6.64-9.22A6,6,0,0,0,70.86,303H65.43L78.29,320.4l-14.08,19h5.15a6,6,0,0,0,5.29-2.57l8.14-10.79,19.09,26.37a5.93,5.93,0,0,0,5.29,2.58h5.57Zm104.14,19h7.37V303h-7.37Zm-58.39,0h7.36V303h-7.36Zm111.64,12.87L271.43,303h-4c-2.43,0-4.29.71-5.29,2.57l-10.5,19.52-9.08-19.52c-.93-1.93-2.86-2.57-5.29-2.57H233.4l14,29.73L235.19,355h4C241.69,355,243.69,354.21,244.76,352.28ZM149.27,303v36.45h7.36v-25a11.6,11.6,0,0,1,9.65-5.22c5.43,0,9.15,3.43,9.15,10.29v16.44a3.32,3.32,0,0,0,3.43,3.5h3.93V318.18c0-9.43-6-16-14.72-16a16.45,16.45,0,0,0-11.44,4.36V303Zm63.26,23.52c0,7.93,4.86,13.58,13.58,13.58a18.67,18.67,0,0,0,5.36-.72l-1.5-6.43a15.36,15.36,0,0,1-3.36.36c-3.58,0-6.72-1.93-6.72-6.94V309.54h10.29l-3-6.58h-7.29V288.31l-7.36,3.21V303h-7.79v6.58h7.79ZM110.46,309.54v29.87h7.36V309.54h9.43V303h-9.43v-2.72c0-6.22,3.72-8.29,7.36-8.29a8.91,8.91,0,0,1,2.5.36l1.5-6.5a12.78,12.78,0,0,0-4.57-.72c-9.15,0-14.15,6.79-14.15,15V303H106.6L102,309.54Z"/><path d="M290.29,330.51a9.51,9.51,0,1,1,9.39-9.5A9.29,9.29,0,0,1,290.29,330.51Zm0-16.85A7.35,7.35,0,1,0,297.4,321,7.11,7.11,0,0,0,290.29,313.66Z"/><path d="M368.33,330.11v-2.67a8.05,8.05,0,0,1-6.55,3.07,9.24,9.24,0,0,1-9.31-9.5,9.72,9.72,0,0,1,3.39-7.47,9.29,9.29,0,0,1,5.8-2,8.87,8.87,0,0,1,6.67,2.92V311.9h2.19v18.21Zm-.08-12.78a8,8,0,0,0-6.55-3.67,7.1,7.1,0,0,0-4.4,1.55,7.48,7.48,0,0,0-2.55,5.8,7,7,0,0,0,7,7.34,7.56,7.56,0,0,0,6.51-4Z"/><path d="M455.42,326.16a8.63,8.63,0,0,0,5.51,2.19c2.28,0,4.2-1.27,4.2-3.19,0-4.67-10.51-2.12-10.51-8.35,0-3.31,3.12-5.31,6.19-5.31a10.57,10.57,0,0,1,5.88,1.76l-1.2,1.87a7.55,7.55,0,0,0-4.56-1.47c-1.91,0-4,1-4,3.11,0,4,10.5,1.88,10.5,8.27,0,3.39-2.87,5.47-6.31,5.47a10.34,10.34,0,0,1-7.07-2.6Z"/><path d="M427.71,321a7.42,7.42,0,0,1-2.55,5.78,7,7,0,0,1-4.39,1.56,8,8,0,0,1-6.54-3.67v-7a7.55,7.55,0,0,1,6.5-4,7,7,0,0,1,7,7.34Zm2.28,0a9.35,9.35,0,0,0-3.87-7.78,9.23,9.23,0,0,0-5.43-1.72,8,8,0,0,0-6.54,3.08V311.9H412v25.64l2.27-1v-8.93a9,9,0,0,0,6.58,2.83,9.31,9.31,0,0,0,5.79-2A9.73,9.73,0,0,0,430,321Z"/><path d="M390.3,320.76V329a1.14,1.14,0,0,0,1.14,1.14h1.14v-9.63h0a16,16,0,0,0-.2-2.6,7.29,7.29,0,0,1,6.28-4.24,5.43,5.43,0,0,1,4.6,2.4c.64,1,1,2.16,1,4.72V329a1.14,1.14,0,0,0,1.14,1.14h1.14v-9.63a10.12,10.12,0,0,0-1.08-5.16,7.74,7.74,0,0,0-6.84-3.84,8.49,8.49,0,0,0-7.16,3.88,7.58,7.58,0,0,0-6.83-3.88,7.84,7.84,0,0,0-6.16,2.88v-2.48h-2.2v18.23h2.28V317.44a7,7,0,0,1,6.08-3.8,5.4,5.4,0,0,1,4.59,2.4c.64,1,1,2.16,1,4.72Z"/><path d="M350.79,326.84l-.57-.51a1.44,1.44,0,0,0-2,0,7.92,7.92,0,0,1-5,1.95,7.35,7.35,0,0,1-2.93-14.13,6.79,6.79,0,0,1,2.61-.52,7.69,7.69,0,0,1,5.15,2l.34.31,1.44-1.63h0a9.5,9.5,0,0,0-6.93-2.83,9.37,9.37,0,0,0-9.4,9.47c0,5.82,4.7,9.48,9.76,9.48A9.24,9.24,0,0,0,350.79,326.84Z"/><path d="M441.5,330.51a7.8,7.8,0,0,0,6.26-2.77v2.38H450V311.9h-2.27v12.72a7.15,7.15,0,0,1-6.22,3.73,5.55,5.55,0,0,1-4.68-2.4,7.24,7.24,0,0,1-1-4.41v-8.43a1.2,1.2,0,0,0-1.14-1.21h-1.14v9.8c0,3.1.61,4.55,1.54,5.77A7.82,7.82,0,0,0,441.5,330.51Z"/><path d="M312.4,311.5a7.81,7.81,0,0,0-6.25,2.77V311.9h-2.28v18.22h2.28V317.4a7.11,7.11,0,0,1,6.21-3.74,5.6,5.6,0,0,1,4.69,2.4,7.34,7.34,0,0,1,1,4.41v8.44a1.2,1.2,0,0,0,1.14,1.21h1.13v-9.81c0-3.09-.61-4.54-1.54-5.76A7.8,7.8,0,0,0,312.4,311.5Z"/><path d="M88.53,130l13-17.49H96.13a6,6,0,0,0-5.31,2.58l-6.88,9.25-6.67-9.25A6,6,0,0,0,72,112.55H66.51L79.42,130,65.29,149.12h5.17a6,6,0,0,0,5.3-2.58l8.18-10.83,19.14,26.46a6,6,0,0,0,5.31,2.58H114ZM193,149.12h7.38V112.55H193Zm-58.59,0h7.39V112.55h-7.39Zm112,12.9,26.75-49.47h-4c-2.43,0-4.3.72-5.3,2.58L253.3,134.7l-9.11-19.57c-.93-1.94-2.87-2.58-5.3-2.58H235l14.06,29.83-12.26,22.37h4C243.33,164.75,245.34,164,246.41,162Zm-95.79-49.47v36.57H158V124a11.6,11.6,0,0,1,9.67-5.23c5.45,0,9.18,3.44,9.18,10.32V145.6a3.34,3.34,0,0,0,3.44,3.52h3.95v-21.3c0-9.46-6-16.06-14.77-16.06A16.47,16.47,0,0,0,158,116.13v-3.58Zm63.46,23.59c0,8,4.87,13.62,13.62,13.62a18.85,18.85,0,0,0,5.38-.71l-1.51-6.46a14.87,14.87,0,0,1-3.37.36c-3.58,0-6.74-1.94-6.74-6.95V119.15h10.33l-3-6.6h-7.32V97.85l-7.38,3.23v11.47h-7.82v6.6h7.82Zm-102.39-17v30h7.38v-30h9.47v-6.6h-9.47v-2.73c0-6.23,3.73-8.31,7.39-8.31a9.05,9.05,0,0,1,2.51.35l1.5-6.52a12.86,12.86,0,0,0-4.59-.72c-9.18,0-14.19,6.81-14.19,15.06v2.87h-3.88l-4.66,6.6Z"/><path d="M79.41,201.66a9.52,9.52,0,1,1,9.4-9.52A9.32,9.32,0,0,1,79.41,201.66Zm0-16.88a7.36,7.36,0,1,0,7.12,7.36A7.12,7.12,0,0,0,79.41,184.78Z"/><path d="M157.57,201.26v-2.68a8,8,0,0,1-6.56,3.08,9.26,9.26,0,0,1-5.44-1.72,9.37,9.37,0,0,1-3.88-7.8,9.73,9.73,0,0,1,3.4-7.48,9.29,9.29,0,0,1,5.8-2,8.88,8.88,0,0,1,6.68,2.92V183h2.2v18.24Zm-.08-12.8a8,8,0,0,0-6.56-3.68,7,7,0,0,0-4.4,1.56,7.46,7.46,0,0,0-2.56,5.8,7,7,0,0,0,7,7.36,7.58,7.58,0,0,0,6.52-4Z"/><path d="M244.82,197.3a8.65,8.65,0,0,0,5.52,2.2c2.28,0,4.2-1.28,4.2-3.2,0-4.68-10.52-2.12-10.52-8.36,0-3.32,3.12-5.32,6.2-5.32a10.57,10.57,0,0,1,5.88,1.76l-1.2,1.88a7.49,7.49,0,0,0-4.56-1.48c-1.92,0-4,1-4,3.12,0,4,10.52,1.88,10.52,8.28,0,3.4-2.88,5.48-6.32,5.48a10.34,10.34,0,0,1-7.08-2.6Z"/><path d="M217.06,192.13a7.46,7.46,0,0,1-2.56,5.8,7,7,0,0,1-4.39,1.55,8,8,0,0,1-6.55-3.67v-7a7.56,7.56,0,0,1,6.51-4,7,7,0,0,1,7,7.35Zm2.28,0a9.36,9.36,0,0,0-3.88-7.79,9.21,9.21,0,0,0-5.43-1.72,8,8,0,0,0-6.55,3.08V183h-2.2V208.7l2.28-.95V198.8a8.93,8.93,0,0,0,6.59,2.84,9.26,9.26,0,0,0,5.79-2A9.7,9.7,0,0,0,219.34,192.13Z"/><path d="M179.59,191.89v8.23a1.14,1.14,0,0,0,1.14,1.14h1.14v-9.65h0a16,16,0,0,0-.2-2.6,7.29,7.29,0,0,1,6.29-4.25,5.44,5.44,0,0,1,4.61,2.41c.64,1,1,2.16,1,4.72v8.23a1.14,1.14,0,0,0,1.14,1.14h1.14v-9.65a10.19,10.19,0,0,0-1.08-5.17A7.75,7.75,0,0,0,188,182.6a8.51,8.51,0,0,0-7.17,3.88,7.6,7.6,0,0,0-6.85-3.88,7.84,7.84,0,0,0-6.16,2.88V183h-2.21v18.26h2.28V188.57a7.07,7.07,0,0,1,6.09-3.81,5.43,5.43,0,0,1,4.61,2.41c.64,1,1,2.16,1,4.72Z"/><path d="M230.87,201.66a7.82,7.82,0,0,0,6.27-2.77v2.38h2.28V183h-2.28v12.74a7.14,7.14,0,0,1-6.23,3.74,5.6,5.6,0,0,1-4.69-2.4,7.3,7.3,0,0,1-1-4.42v-8.45a1.2,1.2,0,0,0-1.14-1.21h-1.14v9.82c0,3.1.61,4.55,1.54,5.77A7.81,7.81,0,0,0,230.87,201.66Z"/><path d="M101.56,182.62a7.8,7.8,0,0,0-6.27,2.78V183H93v18.25h2.28V188.53a7.14,7.14,0,0,1,6.23-3.74,5.58,5.58,0,0,1,4.69,2.4,7.33,7.33,0,0,1,1,4.42v8.45a1.2,1.2,0,0,0,1.14,1.21h1.14v-9.82c0-3.11-.62-4.56-1.54-5.78A7.83,7.83,0,0,0,101.56,182.62Z"/><path d="M140,198l-.58-.51a1.44,1.44,0,0,0-2,0,8,8,0,0,1-5,2,7.36,7.36,0,0,1-2.93-14.16,7,7,0,0,1,2.61-.52,7.7,7.7,0,0,1,5.17,2l.34.3,1.43-1.63h0a9.49,9.49,0,0,0-6.94-2.83,9.49,9.49,0,1,0,.36,19A9.27,9.27,0,0,0,140,198Z"/><rect x="600" y="46" width="564" height="363.63"/><path class="cls-1" d="M677,130l13-17.49H684.6a6,6,0,0,0-5.31,2.58l-6.88,9.25-6.67-9.25a6,6,0,0,0-5.31-2.58H655L667.89,130l-14.13,19.08h5.17a6,6,0,0,0,5.3-2.58l8.18-10.83,19.14,26.46a6,6,0,0,0,5.31,2.58h5.59Zm104.47,19.08h7.38V112.55h-7.38Zm-58.58,0h7.38V112.55h-7.38Zm112,12.9,26.75-49.47h-4c-2.43,0-4.3.72-5.3,2.58L841.77,134.7l-9.11-19.57c-.93-1.94-2.87-2.58-5.3-2.58h-3.88l14.06,29.83-12.26,22.37h4C831.8,164.75,833.81,164,834.88,162Zm-95.79-49.47v36.57h7.39V124a11.61,11.61,0,0,1,9.68-5.23c5.44,0,9.17,3.44,9.17,10.32V145.6a3.34,3.34,0,0,0,3.45,3.52h3.94v-21.3c0-9.46-6-16.06-14.77-16.06a16.49,16.49,0,0,0-11.47,4.37v-3.58Zm63.46,23.59c0,8,4.87,13.62,13.62,13.62a18.85,18.85,0,0,0,5.38-.71L820,142.59a14.87,14.87,0,0,1-3.37.36c-3.58,0-6.74-1.94-6.74-6.95V119.15h10.33l-3-6.6h-7.32V97.85l-7.38,3.23v11.47h-7.82v6.6h7.82Zm-102.39-17v30h7.38v-30H717v-6.6h-9.47v-2.73c0-6.23,3.73-8.31,7.39-8.31a9.05,9.05,0,0,1,2.51.35l1.5-6.52a12.86,12.86,0,0,0-4.59-.72c-9.18,0-14.19,6.81-14.19,15.06v2.87h-3.88l-4.66,6.6Z"/><path class="cls-1" d="M667.88,201.66a9.52,9.52,0,1,1,9.4-9.52A9.32,9.32,0,0,1,667.88,201.66Zm0-16.88a7.36,7.36,0,1,0,7.12,7.36A7.12,7.12,0,0,0,667.88,184.78Z"/><path class="cls-1" d="M746,201.26v-2.68a8,8,0,0,1-6.56,3.08,9.26,9.26,0,0,1-5.44-1.72,9.37,9.37,0,0,1-3.88-7.8,9.73,9.73,0,0,1,3.4-7.48,9.29,9.29,0,0,1,5.8-2,8.88,8.88,0,0,1,6.68,2.92V183h2.2v18.24Zm-.08-12.8a8,8,0,0,0-6.56-3.68,7,7,0,0,0-4.4,1.56,7.46,7.46,0,0,0-2.56,5.8,7,7,0,0,0,7,7.36,7.58,7.58,0,0,0,6.52-4Z"/><path class="cls-1" d="M833.29,197.3a8.65,8.65,0,0,0,5.52,2.2c2.28,0,4.2-1.28,4.2-3.2,0-4.68-10.52-2.12-10.52-8.36,0-3.32,3.12-5.32,6.2-5.32a10.57,10.57,0,0,1,5.88,1.76l-1.2,1.88a7.49,7.49,0,0,0-4.56-1.48c-1.92,0-4,1-4,3.12,0,4,10.52,1.88,10.52,8.28,0,3.4-2.88,5.48-6.32,5.48a10.34,10.34,0,0,1-7.08-2.6Z"/><path class="cls-1" d="M805.53,192.13a7.46,7.46,0,0,1-2.56,5.8,7,7,0,0,1-4.39,1.55,8,8,0,0,1-6.55-3.67v-7a7.56,7.56,0,0,1,6.51-4,7,7,0,0,1,7,7.35Zm2.28,0a9.36,9.36,0,0,0-3.88-7.79,9.21,9.21,0,0,0-5.43-1.72A8,8,0,0,0,792,185.7V183h-2.2V208.7l2.28-.95V198.8a8.93,8.93,0,0,0,6.59,2.84,9.24,9.24,0,0,0,5.79-2A9.7,9.7,0,0,0,807.81,192.13Z"/><path class="cls-1" d="M768.06,191.89v8.23a1.14,1.14,0,0,0,1.14,1.14h1.14v-9.65h0a16,16,0,0,0-.2-2.6,7.29,7.29,0,0,1,6.29-4.25,5.44,5.44,0,0,1,4.61,2.41c.64,1,1,2.16,1,4.72v8.23a1.14,1.14,0,0,0,1.14,1.14h1.14v-9.65a10.19,10.19,0,0,0-1.08-5.17,7.75,7.75,0,0,0-6.85-3.84,8.51,8.51,0,0,0-7.17,3.88,7.6,7.6,0,0,0-6.85-3.88,7.84,7.84,0,0,0-6.16,2.88V183H754v18.26h2.29V188.57a7,7,0,0,1,6.08-3.81,5.42,5.42,0,0,1,4.61,2.41c.64,1,1,2.16,1,4.72Z"/><path class="cls-1" d="M819.34,201.66a7.8,7.8,0,0,0,6.27-2.77v2.38h2.28V183h-2.28v12.74a7.14,7.14,0,0,1-6.23,3.74,5.6,5.6,0,0,1-4.69-2.4,7.37,7.37,0,0,1-1-4.42v-8.45a1.2,1.2,0,0,0-1.14-1.21h-1.14v9.82c0,3.1.61,4.55,1.54,5.77A7.81,7.81,0,0,0,819.34,201.66Z"/><path class="cls-1" d="M690,182.62a7.8,7.8,0,0,0-6.27,2.78V183h-2.28v18.25h2.28V188.53a7.14,7.14,0,0,1,6.23-3.74,5.58,5.58,0,0,1,4.69,2.4,7.33,7.33,0,0,1,1,4.42v8.45a1.2,1.2,0,0,0,1.14,1.21H698v-9.82c0-3.11-.62-4.56-1.54-5.78A7.83,7.83,0,0,0,690,182.62Z"/><path class="cls-1" d="M728.48,198l-.58-.51a1.44,1.44,0,0,0-1.95,0,7.94,7.94,0,0,1-5,2A7.36,7.36,0,0,1,718,185.3a7,7,0,0,1,2.61-.52,7.7,7.7,0,0,1,5.17,2l.34.3,1.43-1.63h0a9.49,9.49,0,0,0-6.94-2.83,9.49,9.49,0,1,0,.36,19A9.27,9.27,0,0,0,728.48,198Z"/><path class="cls-1" d="M677.36,320.4l13-17.44h-5.43a6,6,0,0,0-5.29,2.57l-6.87,9.22-6.64-9.22a6,6,0,0,0-5.29-2.57h-5.43l12.86,17.44-14.08,19h5.15a6,6,0,0,0,5.29-2.57l8.14-10.79,19.09,26.37a5.93,5.93,0,0,0,5.29,2.58h5.57Zm104.14,19h7.37V303H781.5Zm-58.39,0h7.36V303h-7.36Zm111.64,12.87L861.42,303h-4c-2.43,0-4.29.71-5.29,2.57l-10.5,19.52-9.08-19.52c-.93-1.93-2.86-2.57-5.29-2.57h-3.86l14,29.73L825.18,355h4C831.68,355,833.68,354.21,834.75,352.28ZM739.26,303v36.45h7.36v-25a11.6,11.6,0,0,1,9.65-5.22c5.43,0,9.15,3.43,9.15,10.29v16.44a3.32,3.32,0,0,0,3.43,3.5h3.93V318.18c0-9.43-6-16-14.72-16a16.45,16.45,0,0,0-11.44,4.36V303Zm63.26,23.52c0,7.93,4.86,13.58,13.58,13.58a18.67,18.67,0,0,0,5.36-.72l-1.5-6.43a15.36,15.36,0,0,1-3.36.36c-3.58,0-6.72-1.93-6.72-6.94V309.54h10.29l-3-6.58h-7.29V288.31l-7.36,3.21V303h-7.79v6.58h7.79ZM700.45,309.54v29.87h7.36V309.54h9.43V303h-9.43v-2.72c0-6.22,3.72-8.29,7.36-8.29a8.91,8.91,0,0,1,2.5.36l1.5-6.5a12.78,12.78,0,0,0-4.57-.72c-9.15,0-14.15,6.79-14.15,15V303h-3.86l-4.65,6.58Z"/><path class="cls-1" d="M880.28,330.51a9.51,9.51,0,1,1,9.39-9.5A9.29,9.29,0,0,1,880.28,330.51Zm0-16.85a7.35,7.35,0,1,0,7.11,7.35A7.11,7.11,0,0,0,880.28,313.66Z"/><path class="cls-1" d="M958.32,330.11v-2.67a8.05,8.05,0,0,1-6.55,3.07,9.24,9.24,0,0,1-9.31-9.5,9.72,9.72,0,0,1,3.39-7.47,9.29,9.29,0,0,1,5.8-2,8.87,8.87,0,0,1,6.67,2.92V311.9h2.19v18.21Zm-.08-12.78a8,8,0,0,0-6.55-3.67,7.1,7.1,0,0,0-4.4,1.55,7.48,7.48,0,0,0-2.55,5.8,7,7,0,0,0,7,7.34,7.56,7.56,0,0,0,6.51-4Z"/><path class="cls-1" d="M1045.41,326.16a8.63,8.63,0,0,0,5.51,2.19c2.28,0,4.2-1.27,4.2-3.19,0-4.67-10.51-2.12-10.51-8.35,0-3.31,3.12-5.31,6.19-5.31a10.57,10.57,0,0,1,5.88,1.76l-1.2,1.87a7.55,7.55,0,0,0-4.56-1.47c-1.91,0-4,1-4,3.11,0,4,10.5,1.88,10.5,8.27,0,3.39-2.87,5.47-6.31,5.47a10.34,10.34,0,0,1-7.07-2.6Z"/><path class="cls-1" d="M1017.7,321a7.42,7.42,0,0,1-2.55,5.78,7,7,0,0,1-4.39,1.56,8,8,0,0,1-6.54-3.67v-7a7.55,7.55,0,0,1,6.5-4,7,7,0,0,1,7,7.34Zm2.28,0a9.35,9.35,0,0,0-3.87-7.78,9.23,9.23,0,0,0-5.43-1.72,8,8,0,0,0-6.54,3.08V311.9H1002v25.64l2.27-1v-8.93a9,9,0,0,0,6.58,2.83,9.31,9.31,0,0,0,5.79-2A9.73,9.73,0,0,0,1020,321Z"/><path class="cls-1" d="M980.29,320.76V329a1.14,1.14,0,0,0,1.14,1.14h1.14v-9.63h0a16,16,0,0,0-.2-2.6,7.29,7.29,0,0,1,6.28-4.24,5.43,5.43,0,0,1,4.6,2.4c.64,1,1,2.16,1,4.72V329a1.14,1.14,0,0,0,1.14,1.14h1.14v-9.63a10.12,10.12,0,0,0-1.08-5.16,7.74,7.74,0,0,0-6.84-3.84,8.49,8.49,0,0,0-7.16,3.88,7.58,7.58,0,0,0-6.83-3.88,7.84,7.84,0,0,0-6.16,2.88v-2.48h-2.2v18.23h2.28V317.44a7,7,0,0,1,6.08-3.8,5.4,5.4,0,0,1,4.59,2.4c.64,1,1,2.16,1,4.72Z"/><path class="cls-1" d="M940.78,326.84l-.57-.51a1.44,1.44,0,0,0-2,0,7.92,7.92,0,0,1-5,1.95,7.35,7.35,0,0,1-2.93-14.13,6.79,6.79,0,0,1,2.61-.52,7.69,7.69,0,0,1,5.15,2,3.39,3.39,0,0,1,.34.31l1.44-1.63h0a9.5,9.5,0,0,0-6.93-2.83,9.37,9.37,0,0,0-9.4,9.47c0,5.82,4.7,9.48,9.76,9.48A9.24,9.24,0,0,0,940.78,326.84Z"/><path class="cls-1" d="M1031.49,330.51a7.8,7.8,0,0,0,6.26-2.77v2.38H1040V311.9h-2.27v12.72a7.15,7.15,0,0,1-6.22,3.73,5.55,5.55,0,0,1-4.68-2.4,7.24,7.24,0,0,1-1-4.41v-8.43a1.2,1.2,0,0,0-1.14-1.21h-1.14v9.8c0,3.1.61,4.55,1.54,5.77A7.82,7.82,0,0,0,1031.49,330.51Z"/><path class="cls-1" d="M902.39,311.5a7.81,7.81,0,0,0-6.25,2.77V311.9h-2.28v18.22h2.28V317.4a7.11,7.11,0,0,1,6.21-3.74,5.6,5.6,0,0,1,4.69,2.4,7.34,7.34,0,0,1,1,4.41v8.44a1.2,1.2,0,0,0,1.14,1.21h1.13v-9.81c0-3.09-.61-4.54-1.54-5.76A7.8,7.8,0,0,0,902.39,311.5Z"/></g></svg>