<svg xmlns="http://www.w3.org/2000/svg" viewBox="0 0 1210 455"><defs><style>.cls-1{fill:#fff;}</style></defs><title>BrandHub-VectorGraphics</title><g id="Vector"><rect class="cls-1" width="1210" height="455"/><rect x="600" y="46" width="564" height="363.63"/><path d="M452.47,313.59h-6.12v9.94a4.42,4.42,0,0,0,.81,3.05,3.74,3.74,0,0,0,3,1.28,7.37,7.37,0,0,0,2-.24l.4,2.08a8.54,8.54,0,0,1-2.37.33,6.16,6.16,0,0,1-4.89-2.09,6.75,6.75,0,0,1-1.24-4.49v-9.86h-4.25v-2.17h4.25V304.9l2.28-.83v7.35h6.12Z"/><path d="M309.15,311a9.51,9.51,0,1,0,9.38,9.5A9.35,9.35,0,0,0,309.15,311Zm0,16.82a7.32,7.32,0,1,1,7.08-7.32A7.05,7.05,0,0,1,309.15,327.85Z"/><path d="M480,319.93c0-5.07-3.59-8.9-8.46-8.9-5.15,0-8.71,4.27-8.71,9.5,0,5.67,4,9.51,9.15,9.51a9.44,9.44,0,0,0,7.67-3.66l-.57-.51a1.46,1.46,0,0,0-2,0,7.24,7.24,0,0,1-5.14,2c-4.2,0-6.71-3.28-6.87-7.15H480A6.89,6.89,0,0,0,480,319.93Zm-14.77-1.28a6.49,6.49,0,0,1,6.31-5.47,6.17,6.17,0,0,1,6.11,5.47Z"/><path d="M421.29,311a7.83,7.83,0,0,0-6.28,2.78v-2.39h-2.29V329.7H415V316.94a7.15,7.15,0,0,1,6.24-3.75,5.59,5.59,0,0,1,4.69,2.41,7.29,7.29,0,0,1,1,4.42v8.47a1.2,1.2,0,0,0,1.14,1.21h1.14v-9.84c0-3.1-.61-4.56-1.54-5.78A7.85,7.85,0,0,0,421.29,311Z"/><path d="M335.31,320.32c0-2.56-.4-3.77-1-4.73a5.45,5.45,0,0,0-4.61-2.4,7.05,7.05,0,0,0-6.09,3.8V329.7h-2.29V311.42h2.21v2.49a7.82,7.82,0,0,1,6.17-2.89,7.62,7.62,0,0,1,6.86,3.89,8.48,8.48,0,0,1,7.17-3.89,7.76,7.76,0,0,1,6.86,3.85,10.14,10.14,0,0,1,1.08,5.17v9.66h-1.14a1.14,1.14,0,0,1-1.15-1.14v-8.24c0-2.56-.4-3.77-1-4.73a5.43,5.43,0,0,0-4.61-2.4,7.29,7.29,0,0,0-6.29,4.24,16.22,16.22,0,0,1,.2,2.61h0v9.66h-1.15a1.14,1.14,0,0,1-1.14-1.14v-8.24Z"/><path d="M370.42,320.32c0-2.56-.4-3.77-1.05-4.73a5.43,5.43,0,0,0-4.61-2.4,7.06,7.06,0,0,0-6.09,3.8V329.7h-2.28V311.42h2.2v2.49a7.83,7.83,0,0,1,6.17-2.89,7.61,7.61,0,0,1,6.86,3.89A8.5,8.5,0,0,1,378.8,311a7.74,7.74,0,0,1,6.85,3.85,10.14,10.14,0,0,1,1.08,5.17v9.66h-1.14a1.14,1.14,0,0,1-1.14-1.14v-8.24c0-2.56-.4-3.77-1-4.73a5.46,5.46,0,0,0-4.61-2.4,7.31,7.31,0,0,0-6.3,4.24,16.22,16.22,0,0,1,.2,2.61h0v9.66h-1.14a1.14,1.14,0,0,1-1.14-1.14v-8.24Z"/><path d="M435.13,307.91a1.49,1.49,0,1,0-1.49-1.49A1.49,1.49,0,0,0,435.13,307.91Zm1.14,21.79H434V311.42h2.29Z"/><path d="M458.08,307.91a1.49,1.49,0,1,0-1.49-1.49A1.49,1.49,0,0,0,458.08,307.91Zm1.14,21.79h-2.28V311.42h2.28Z"/><path d="M398.87,330.1a7.83,7.83,0,0,0,6.28-2.78v2.38h2.28V311.42h-2.28v12.76a7.17,7.17,0,0,1-6.24,3.75,5.59,5.59,0,0,1-4.7-2.41,7.28,7.28,0,0,1-1-4.42v-8.47a1.21,1.21,0,0,0-1.15-1.21H390.9v9.84c0,3.1.62,4.56,1.55,5.78A7.83,7.83,0,0,0,398.87,330.1Z"/><path d="M484.25,325.68a8.64,8.64,0,0,0,5.51,2.2c2.28,0,4.2-1.28,4.2-3.2,0-4.67-10.51-2.11-10.51-8.34,0-3.32,3.12-5.31,6.19-5.31a10.51,10.51,0,0,1,5.87,1.75l-1.19,1.88a7.49,7.49,0,0,0-4.56-1.48c-1.91,0-4,1-4,3.12,0,4,10.5,1.87,10.5,8.26,0,3.4-2.87,5.48-6.31,5.48a10.29,10.29,0,0,1-7.06-2.6Z"/><path d="M298.46,326.43l-.57-.51a1.45,1.45,0,0,0-2,0,7.94,7.94,0,0,1-5,2A7.37,7.37,0,0,1,288,313.73a6.94,6.94,0,0,1,2.61-.52,7.7,7.7,0,0,1,5.17,2l.34.31,1.44-1.64h0a9.52,9.52,0,0,0-6.95-2.84,9.67,9.67,0,0,0-3.31.59,9.44,9.44,0,0,0-6.11,8.92c0,5.83,4.71,9.5,9.78,9.5A9.24,9.24,0,0,0,298.46,326.43Z"/><path d="M87.42,320.46l13-17.49H95a6,6,0,0,0-5.3,2.58l-6.89,9.25-6.66-9.25A6,6,0,0,0,70.86,303H65.41l12.91,17.49L64.19,339.53h5.17a6,6,0,0,0,5.3-2.58l8.17-10.83L102,352.58a6,6,0,0,0,5.3,2.58h5.59Zm104.46,19.07h7.39V303h-7.39Zm-58.57,0h7.38V303h-7.38Zm112,12.91L272,303h-4c-2.44,0-4.3.71-5.3,2.58l-10.54,19.57-9.11-19.57c-.93-1.94-2.87-2.58-5.3-2.58h-3.88L248,332.79l-12.26,22.37h4C242.21,355.16,244.22,354.37,245.29,352.44ZM149.51,303v36.56h7.38V314.44a11.64,11.64,0,0,1,9.68-5.24c5.45,0,9.18,3.44,9.18,10.33V336a3.33,3.33,0,0,0,3.44,3.51h3.94V318.24c0-9.47-6-16.06-14.76-16.06a16.52,16.52,0,0,0-11.48,4.37V303ZM213,326.55c0,8,4.87,13.63,13.62,13.63a18.82,18.82,0,0,0,5.38-.72L230.45,333a15.51,15.51,0,0,1-3.37.35c-3.58,0-6.74-1.93-6.74-6.95V309.56h10.33l-3-6.59h-7.32v-14.7L213,291.49V303h-7.82v6.59H213Zm-102.38-17v30H118v-30h9.47V303H118v-2.73c0-6.24,3.73-8.31,7.39-8.31a9.05,9.05,0,0,1,2.51.35l1.5-6.52a12.8,12.8,0,0,0-4.58-.72c-9.18,0-14.2,6.81-14.2,15.06V303h-3.87l-4.66,6.59Z"/><path class="cls-1" d="M1042.3,313.59h-6.11v9.94a4.48,4.48,0,0,0,.8,3.05,3.74,3.74,0,0,0,3,1.28,7.28,7.28,0,0,0,2-.24l.4,2.08a8.48,8.48,0,0,1-2.37.33,6.14,6.14,0,0,1-4.88-2.09,6.69,6.69,0,0,1-1.25-4.49v-9.86h-4.25v-2.17h4.25V304.9l2.29-.83v7.35h6.11Z"/><path class="cls-1" d="M899,311a9.51,9.51,0,1,0,9.39,9.5A9.34,9.34,0,0,0,899,311Zm0,16.82a7.32,7.32,0,1,1,7.08-7.32A7,7,0,0,1,899,327.85Z"/><path class="cls-1" d="M1069.83,319.93c0-5.07-3.6-8.9-8.47-8.9-5.15,0-8.71,4.27-8.71,9.5,0,5.67,4,9.51,9.15,9.51a9.44,9.44,0,0,0,7.67-3.66l-.57-.51a1.46,1.46,0,0,0-2,0,7.23,7.23,0,0,1-5.14,2c-4.19,0-6.71-3.28-6.87-7.15h14.86A6.89,6.89,0,0,0,1069.83,319.93Zm-14.78-1.28a6.5,6.5,0,0,1,6.31-5.47,6.17,6.17,0,0,1,6.11,5.47Z"/><path class="cls-1" d="M1011.12,311a7.83,7.83,0,0,0-6.28,2.78v-2.39h-2.28V329.7h2.28V316.94a7.17,7.17,0,0,1,6.24-3.75,5.59,5.59,0,0,1,4.7,2.41,7.3,7.3,0,0,1,1,4.42v8.47a1.2,1.2,0,0,0,1.14,1.21h1.15v-9.84c0-3.1-.62-4.56-1.55-5.78A7.83,7.83,0,0,0,1011.12,311Z"/><path class="cls-1" d="M925.15,320.32c0-2.56-.41-3.77-1-4.73a5.43,5.43,0,0,0-4.61-2.4,7.06,7.06,0,0,0-6.09,3.8V329.7h-2.29V311.42h2.21v2.49a7.83,7.83,0,0,1,6.17-2.89,7.61,7.61,0,0,1,6.86,3.89,8.49,8.49,0,0,1,7.17-3.89,7.74,7.74,0,0,1,6.86,3.85,10.14,10.14,0,0,1,1.08,5.17v9.66h-1.14a1.14,1.14,0,0,1-1.14-1.14v-8.24c0-2.56-.4-3.77-1-4.73a5.43,5.43,0,0,0-4.61-2.4,7.3,7.3,0,0,0-6.29,4.24,16.22,16.22,0,0,1,.2,2.61h0v9.66h-1.14a1.14,1.14,0,0,1-1.14-1.14v-8.24Z"/><path class="cls-1" d="M960.25,320.32c0-2.56-.4-3.77-1-4.73a5.45,5.45,0,0,0-4.61-2.4,7.08,7.08,0,0,0-6.1,3.8V329.7h-2.28V311.42h2.2v2.49A7.85,7.85,0,0,1,954.6,311a7.6,7.6,0,0,1,6.85,3.89,8.51,8.51,0,0,1,7.18-3.89,7.73,7.73,0,0,1,6.85,3.85,10,10,0,0,1,1.09,5.17v9.66h-1.15a1.14,1.14,0,0,1-1.14-1.14v-8.24c0-2.56-.4-3.77-1-4.73a5.45,5.45,0,0,0-4.61-2.4,7.32,7.32,0,0,0-6.3,4.24,16.12,16.12,0,0,1,.21,2.61h0v9.66h-1.15a1.14,1.14,0,0,1-1.14-1.14v-8.24Z"/><path class="cls-1" d="M1025,307.91a1.49,1.49,0,1,0-1.49-1.49A1.49,1.49,0,0,0,1025,307.91Zm1.14,21.79h-2.28V311.42h2.28Z"/><path class="cls-1" d="M1047.92,307.91a1.49,1.49,0,1,0-1.49-1.49A1.49,1.49,0,0,0,1047.92,307.91Zm1.14,21.79h-2.29V311.42h2.29Z"/><path class="cls-1" d="M988.7,330.1a7.83,7.83,0,0,0,6.28-2.78v2.38h2.29V311.42H995v12.76a7.15,7.15,0,0,1-6.24,3.75,5.6,5.6,0,0,1-4.7-2.41,7.35,7.35,0,0,1-1-4.42v-8.47a1.2,1.2,0,0,0-1.14-1.21h-1.15v9.84c0,3.1.62,4.56,1.55,5.78A7.86,7.86,0,0,0,988.7,330.1Z"/><path class="cls-1" d="M1074.09,325.68a8.6,8.6,0,0,0,5.51,2.2c2.27,0,4.19-1.28,4.19-3.2,0-4.67-10.5-2.11-10.5-8.34,0-3.32,3.11-5.31,6.19-5.31a10.56,10.56,0,0,1,5.87,1.75l-1.2,1.88a7.49,7.49,0,0,0-4.55-1.48c-1.92,0-4,1-4,3.12,0,4,10.51,1.87,10.51,8.26,0,3.4-2.88,5.48-6.31,5.48a10.32,10.32,0,0,1-7.07-2.6Z"/><path class="cls-1" d="M888.3,326.43l-.58-.51a1.43,1.43,0,0,0-2,0,8,8,0,0,1-5,2,7.38,7.38,0,0,1-2.93-14.18,7,7,0,0,1,2.61-.52,7.73,7.73,0,0,1,5.18,2c.11.1.23.2.33.31l1.44-1.64h0A9.54,9.54,0,0,0,871,320.56c0,5.83,4.71,9.5,9.78,9.5A9.27,9.27,0,0,0,888.3,326.43Z"/><path class="cls-1" d="M677.26,320.46l13-17.49h-5.44a6,6,0,0,0-5.31,2.58l-6.88,9.25L666,305.55a6,6,0,0,0-5.31-2.58h-5.44l12.9,17.49L654,339.53h5.16a6,6,0,0,0,5.3-2.58l8.18-10.83,19.14,26.46a6,6,0,0,0,5.31,2.58h5.59Zm104.45,19.07h7.39V303h-7.39Zm-58.57,0h7.38V303h-7.38Zm112,12.91L861.87,303h-4c-2.43,0-4.3.71-5.3,2.58L842,325.12l-9.11-19.57C832,303.61,830,303,827.6,303h-3.87l14,29.82-12.26,22.37h4C832,355.16,834.05,354.37,835.13,352.44ZM739.34,303v36.56h7.39V314.44a11.62,11.62,0,0,1,9.68-5.24c5.45,0,9.17,3.44,9.17,10.33V336a3.33,3.33,0,0,0,3.44,3.51h4V318.24c0-9.47-6-16.06-14.77-16.06a16.49,16.49,0,0,0-11.47,4.37V303Zm63.45,23.58c0,8,4.88,13.63,13.62,13.63a18.72,18.72,0,0,0,5.38-.72l-1.5-6.45a15.58,15.58,0,0,1-3.37.35c-3.59,0-6.74-1.93-6.74-6.95V309.56H820.5l-3-6.59h-7.31v-14.7l-7.39,3.22V303H795v6.59h7.81Zm-102.38-17v30h7.39v-30h9.46V303H707.8v-2.73c0-6.24,3.73-8.31,7.38-8.31a9.05,9.05,0,0,1,2.51.35l1.51-6.52a12.86,12.86,0,0,0-4.59-.72c-9.18,0-14.2,6.81-14.2,15.06V303h-3.87l-4.66,6.59Z"/><path d="M88.52,129.87l13.07-17.52H96.13a6,6,0,0,0-5.31,2.58l-6.9,9.27-6.67-9.27a6.06,6.06,0,0,0-5.32-2.58H66.48L79.4,129.87,65.26,149h5.17a6.05,6.05,0,0,0,5.31-2.59l8.18-10.84L103.09,162a6,6,0,0,0,5.32,2.59H114ZM193.13,149h7.39V112.35h-7.39Zm-58.66,0h7.39V112.35h-7.39Zm112.15,12.92,26.78-49.54h-4c-2.44,0-4.31.72-5.32,2.58l-10.55,19.6-9.12-19.6c-.93-1.93-2.87-2.58-5.31-2.58H235.2l14.07,29.87L237,164.62h4C243.53,164.62,245.54,163.83,246.62,161.89ZM150.7,112.35V149h7.39V123.84a11.65,11.65,0,0,1,9.69-5.24c5.46,0,9.19,3.44,9.19,10.33v16.52a3.34,3.34,0,0,0,3.45,3.52h4V127.64c0-9.48-6-16.08-14.79-16.08a16.48,16.48,0,0,0-11.49,4.38v-3.59ZM214.24,136c0,8,4.88,13.64,13.64,13.64a18.77,18.77,0,0,0,5.38-.72l-1.51-6.46a14.87,14.87,0,0,1-3.37.36c-3.59,0-6.75-1.94-6.75-7V119H232l-3-6.6h-7.32V97.63l-7.39,3.23v11.49h-7.83V119h7.83ZM111.71,119v30h7.39V119h9.48v-6.6H119.1v-2.73c0-6.25,3.74-8.33,7.4-8.33a9,9,0,0,1,2.51.36l1.51-6.53a12.86,12.86,0,0,0-4.59-.72c-9.19,0-14.22,6.82-14.22,15.08v2.87h-3.88l-4.66,6.6Z"/><path d="M227.27,185.07h-6.11V195a4.5,4.5,0,0,0,.8,3.05,3.74,3.74,0,0,0,3,1.28,7.33,7.33,0,0,0,2-.24l.4,2.08a8.93,8.93,0,0,1-2.37.32,6.16,6.16,0,0,1-4.89-2.08,6.77,6.77,0,0,1-1.24-4.49v-9.86h-4.25V182.9h4.25v-6.52l2.29-.83v7.35h6.11Z"/><path d="M84,182.51a9.5,9.5,0,1,0,9.38,9.5A9.35,9.35,0,0,0,84,182.51Zm0,16.82A7.32,7.32,0,1,1,91,192,7,7,0,0,1,84,199.33Z"/><path d="M254.79,191.41c0-5.07-3.59-8.91-8.46-8.91-5.15,0-8.71,4.28-8.71,9.51,0,5.67,4,9.5,9.15,9.5a9.46,9.46,0,0,0,7.67-3.65l-.57-.51a1.46,1.46,0,0,0-2,0,7.24,7.24,0,0,1-5.14,2c-4.2,0-6.71-3.28-6.87-7.15h14.85A6.89,6.89,0,0,0,254.79,191.41ZM240,190.13a6.49,6.49,0,0,1,6.31-5.47,6.17,6.17,0,0,1,6.11,5.47Z"/><path d="M196.09,182.5a7.83,7.83,0,0,0-6.28,2.78V182.9h-2.29v18.28h2.29V188.42a7.15,7.15,0,0,1,6.24-3.75,5.57,5.57,0,0,1,4.69,2.41,7.29,7.29,0,0,1,1,4.42V200a1.2,1.2,0,0,0,1.14,1.21h1.14v-9.84c0-3.1-.61-4.56-1.54-5.78A7.86,7.86,0,0,0,196.09,182.5Z"/><path d="M110.11,191.8c0-2.57-.4-3.77-1-4.73a5.44,5.44,0,0,0-4.61-2.41,7.07,7.07,0,0,0-6.09,3.81v12.71H96.08V182.9h2.21v2.48a7.86,7.86,0,0,1,6.17-2.88,7.62,7.62,0,0,1,6.86,3.89,8.48,8.48,0,0,1,7.17-3.89,7.76,7.76,0,0,1,6.86,3.85,10.14,10.14,0,0,1,1.08,5.17v9.66h-1.14a1.15,1.15,0,0,1-1.15-1.14V191.8c0-2.57-.4-3.77-1-4.73a5.44,5.44,0,0,0-4.61-2.41,7.31,7.31,0,0,0-6.29,4.25,16.12,16.12,0,0,1,.2,2.61h0v9.66h-1.14a1.14,1.14,0,0,1-1.15-1.14V191.8Z"/><path d="M145.22,191.8c0-2.57-.4-3.77-1-4.73a5.47,5.47,0,0,0-4.61-2.41,7.08,7.08,0,0,0-6.1,3.81v12.71h-2.28V182.9h2.2v2.48a7.86,7.86,0,0,1,6.18-2.88,7.6,7.6,0,0,1,6.85,3.89,8.5,8.5,0,0,1,7.18-3.89,7.74,7.74,0,0,1,6.85,3.85,10.14,10.14,0,0,1,1.08,5.17v9.66h-1.14a1.14,1.14,0,0,1-1.14-1.14V191.8c0-2.57-.4-3.77-1-4.73a5.47,5.47,0,0,0-4.61-2.41,7.32,7.32,0,0,0-6.3,4.25,16.12,16.12,0,0,1,.2,2.61h0v9.66h-1.14a1.14,1.14,0,0,1-1.14-1.14V191.8Z"/><path d="M209.93,179.38a1.49,1.49,0,1,0-1.49-1.48A1.48,1.48,0,0,0,209.93,179.38Zm1.14,21.8h-2.29V182.9h2.29Z"/><path d="M232.88,179.38a1.49,1.49,0,1,0-1.49-1.48A1.49,1.49,0,0,0,232.88,179.38Zm1.15,21.8h-2.29V182.9H234Z"/><path d="M173.67,201.57a7.8,7.8,0,0,0,6.28-2.78v2.39h2.28V182.9H180v12.76a7.17,7.17,0,0,1-6.24,3.75A5.59,5.59,0,0,1,169,197a7.3,7.3,0,0,1-1-4.42v-8.47a1.2,1.2,0,0,0-1.15-1.21H165.7v9.84c0,3.1.62,4.56,1.55,5.78A7.83,7.83,0,0,0,173.67,201.57Z"/><path d="M259.05,197.16a8.65,8.65,0,0,0,5.52,2.2c2.27,0,4.19-1.28,4.19-3.2,0-4.67-10.5-2.11-10.5-8.34,0-3.32,3.11-5.32,6.19-5.32a10.56,10.56,0,0,1,5.87,1.76l-1.2,1.88a7.49,7.49,0,0,0-4.55-1.48c-1.92,0-4,1-4,3.12,0,4,10.5,1.87,10.5,8.26,0,3.4-2.87,5.47-6.31,5.47a10.29,10.29,0,0,1-7.06-2.59Z"/><path d="M73.26,197.91l-.57-.51a1.44,1.44,0,0,0-2,0,7.93,7.93,0,0,1-5,2,7.37,7.37,0,0,1-2.93-14.17,6.79,6.79,0,0,1,2.61-.52,7.7,7.7,0,0,1,5.17,2l.34.3,1.44-1.63h0A9.54,9.54,0,0,0,56,192c0,5.83,4.71,9.5,9.78,9.5A9.24,9.24,0,0,0,73.26,197.91Z"/><path class="cls-1" d="M676.93,129.87,690,112.35h-5.45a6.08,6.08,0,0,0-5.32,2.58l-6.89,9.27-6.68-9.27a6,6,0,0,0-5.31-2.58h-5.46l12.93,17.52L653.66,149h5.17a6.08,6.08,0,0,0,5.32-2.59l8.18-10.84L691.5,162a6,6,0,0,0,5.31,2.59h5.6ZM781.54,149h7.39V112.35h-7.39Zm-58.66,0h7.39V112.35h-7.39ZM835,161.89l26.78-49.54h-4c-2.44,0-4.3.72-5.31,2.58l-10.55,19.6-9.12-19.6c-.93-1.93-2.87-2.58-5.31-2.58h-3.88l14.07,29.87-12.28,22.4h4C831.94,164.62,834,163.83,835,161.89ZM739.1,112.35V149h7.4V123.84a11.65,11.65,0,0,1,9.69-5.24c5.46,0,9.19,3.44,9.19,10.33v16.52a3.34,3.34,0,0,0,3.45,3.52h3.95V127.64c0-9.48-6-16.08-14.79-16.08a16.48,16.48,0,0,0-11.49,4.38v-3.59ZM802.64,136c0,8,4.89,13.64,13.65,13.64a18.82,18.82,0,0,0,5.38-.72l-1.51-6.46a14.87,14.87,0,0,1-3.37.36c-3.59,0-6.75-1.94-6.75-7V119h10.34l-3-6.6H810V97.63l-7.4,3.23v11.49h-7.82V119h7.82ZM700.12,119v30h7.39V119H717v-6.6h-9.48v-2.73c0-6.25,3.74-8.33,7.4-8.33a9,9,0,0,1,2.51.36l1.51-6.53a12.93,12.93,0,0,0-4.6-.72c-9.19,0-14.21,6.82-14.21,15.08v2.87h-3.88l-4.67,6.6Z"/><path class="cls-1" d="M815.67,185.07h-6.11V195a4.5,4.5,0,0,0,.8,3.05,3.77,3.77,0,0,0,3,1.28,7.26,7.26,0,0,0,2-.24l.4,2.08a8.85,8.85,0,0,1-2.36.32,6.15,6.15,0,0,1-4.89-2.08,6.77,6.77,0,0,1-1.24-4.49v-9.86H803V182.9h4.25v-6.52l2.28-.83v7.35h6.11Z"/><path class="cls-1" d="M672.36,182.51a9.5,9.5,0,1,0,9.38,9.5A9.34,9.34,0,0,0,672.36,182.51Zm0,16.82a7.32,7.32,0,1,1,7.08-7.32A7.05,7.05,0,0,1,672.36,199.33Z"/><path class="cls-1" d="M843.2,191.41c0-5.07-3.59-8.91-8.47-8.91-5.15,0-8.7,4.28-8.7,9.51,0,5.67,4,9.5,9.14,9.5a9.47,9.47,0,0,0,7.68-3.65l-.58-.51a1.44,1.44,0,0,0-1.95,0,7.25,7.25,0,0,1-5.15,2c-4.19,0-6.71-3.28-6.86-7.15h14.85A6.89,6.89,0,0,0,843.2,191.41Zm-14.77-1.28a6.48,6.48,0,0,1,6.3-5.47,6.16,6.16,0,0,1,6.11,5.47Z"/><path class="cls-1" d="M784.49,182.5a7.81,7.81,0,0,0-6.27,2.78V182.9h-2.29v18.28h2.29V188.42a7.15,7.15,0,0,1,6.23-3.75,5.59,5.59,0,0,1,4.7,2.41,7.29,7.29,0,0,1,1,4.42V200a1.2,1.2,0,0,0,1.14,1.21h1.14v-9.84c0-3.1-.62-4.56-1.54-5.78A7.86,7.86,0,0,0,784.49,182.5Z"/><path class="cls-1" d="M698.52,191.8c0-2.57-.4-3.77-1-4.73a5.45,5.45,0,0,0-4.61-2.41,7.09,7.09,0,0,0-6.1,3.81v12.71h-2.28V182.9h2.2v2.48a7.88,7.88,0,0,1,6.18-2.88,7.6,7.6,0,0,1,6.85,3.89,8.51,8.51,0,0,1,7.18-3.89,7.73,7.73,0,0,1,6.85,3.85,10,10,0,0,1,1.09,5.17v9.66h-1.15a1.14,1.14,0,0,1-1.14-1.14V191.8c0-2.57-.4-3.77-1-4.73a5.45,5.45,0,0,0-4.61-2.41,7.3,7.3,0,0,0-6.29,4.25,16.12,16.12,0,0,1,.2,2.61h0v9.66h-1.15a1.14,1.14,0,0,1-1.14-1.14V191.8Z"/><path class="cls-1" d="M733.63,191.8c0-2.57-.41-3.77-1-4.73a5.44,5.44,0,0,0-4.61-2.41,7.07,7.07,0,0,0-6.09,3.81v12.71h-2.29V182.9h2.21v2.48A7.86,7.86,0,0,1,728,182.5a7.61,7.61,0,0,1,6.86,3.89A8.49,8.49,0,0,1,742,182.5a7.74,7.74,0,0,1,6.86,3.85,10.14,10.14,0,0,1,1.08,5.17v9.66H748.8a1.14,1.14,0,0,1-1.14-1.14V191.8c0-2.57-.4-3.77-1-4.73a5.44,5.44,0,0,0-4.61-2.41,7.31,7.31,0,0,0-6.29,4.25,16.12,16.12,0,0,1,.2,2.61h0v9.66h-1.14a1.14,1.14,0,0,1-1.14-1.14V191.8Z"/><path class="cls-1" d="M798.33,179.38a1.49,1.49,0,1,0-1.48-1.48A1.48,1.48,0,0,0,798.33,179.38Zm1.15,21.8h-2.29V182.9h2.29Z"/><path class="cls-1" d="M821.29,179.38a1.49,1.49,0,1,0-1.49-1.48A1.49,1.49,0,0,0,821.29,179.38Zm1.14,21.8h-2.28V182.9h2.28Z"/><path class="cls-1" d="M762.08,201.57a7.8,7.8,0,0,0,6.28-2.78v2.39h2.28V182.9h-2.28v12.76a7.18,7.18,0,0,1-6.24,3.75,5.59,5.59,0,0,1-4.7-2.41,7.29,7.29,0,0,1-1-4.42v-8.47a1.2,1.2,0,0,0-1.14-1.21h-1.14v9.84c0,3.1.62,4.56,1.54,5.78A7.85,7.85,0,0,0,762.08,201.57Z"/><path class="cls-1" d="M847.46,197.16a8.64,8.64,0,0,0,5.51,2.2c2.28,0,4.2-1.28,4.2-3.2,0-4.67-10.51-2.11-10.51-8.34,0-3.32,3.12-5.32,6.19-5.32a10.51,10.51,0,0,1,5.87,1.76l-1.19,1.88a7.49,7.49,0,0,0-4.56-1.48c-1.91,0-4,1-4,3.12,0,4,10.5,1.87,10.5,8.26,0,3.4-2.87,5.47-6.31,5.47a10.33,10.33,0,0,1-7.07-2.59Z"/><path class="cls-1" d="M661.67,197.91l-.57-.51a1.46,1.46,0,0,0-2,0,7.89,7.89,0,0,1-5,2,7.37,7.37,0,0,1-2.93-14.17,6.72,6.72,0,0,1,2.61-.52,7.7,7.7,0,0,1,5.17,2l.34.3,1.44-1.63h0a9.54,9.54,0,0,0-7-2.84,9.67,9.67,0,0,0-3.31.59,9.44,9.44,0,0,0-6.12,8.92c0,5.83,4.72,9.5,9.79,9.5A9.26,9.26,0,0,0,661.67,197.91Z"/></g></svg>