<svg xmlns="http://www.w3.org/2000/svg" viewBox="0 0 1210 684"><defs><style>.cls-1{fill:#fff;}.cls-2{fill:#d8dade;}</style></defs><title>BrandHub-VectorGraphics</title><g id="Vector"><rect class="cls-1" y="-0.24" width="1210" height="684"/><rect class="cls-2" x="96.42" y="264.57" width="457.83" height="118.89"/><path d="M411.64,336.31H418a3.28,3.28,0,0,0-3.09-2.55A3.41,3.41,0,0,0,411.64,336.31Zm3.56,7.59a6,6,0,0,1-6.05-6.1c0-3.51,2.39-6.1,5.7-6.1s5.63,2.64,5.63,6.1c0,.1,0,.27,0,.5h-9a3.77,3.77,0,0,0,3.79,3.54,4.43,4.43,0,0,0,2.69-.89,1.18,1.18,0,0,1,1.63.17l.53.66A6.19,6.19,0,0,1,415.2,343.9Zm17.25-1.32a5.36,5.36,0,0,1-3.61,1.32,6,6,0,0,1-2.94-.77,6.13,6.13,0,0,1-3-5.33,6.19,6.19,0,0,1,3-5.36,5.61,5.61,0,0,1,2.87-.74,5.49,5.49,0,0,1,3.66,1.32V332h2.29v11.7h-2.29Zm-.08-7a4.19,4.19,0,0,0-3.33-1.67,3.75,3.75,0,0,0-3.77,3.86,3.82,3.82,0,0,0,3.89,3.86,4,4,0,0,0,3.21-1.67Zm5.92-8.6,2.37-.94v17.58h-2.37Zm7.74,9.3h6.37a3.27,3.27,0,0,0-3.09-2.55A3.39,3.39,0,0,0,446,336.31Zm3.56,7.59a6,6,0,0,1-6-6.1c0-3.51,2.39-6.1,5.7-6.1s5.63,2.64,5.63,6.1a3.63,3.63,0,0,1,0,.5h-9a3.77,3.77,0,0,0,3.78,3.54,4.39,4.39,0,0,0,2.69-.89,1.19,1.19,0,0,1,1.64.17l.53.66A6.19,6.19,0,0,1,449.59,343.9ZM460,336v7.67h-2.37V332h2.29v1.34a4.27,4.27,0,0,1,3.51-1.59,5.88,5.88,0,0,1,.92.07l-.26,2.2a3.86,3.86,0,0,0-.88,0A4,4,0,0,0,460,336Zm-55.84-18.63a5.41,5.41,0,0,1-3.61,1.32,5.91,5.91,0,0,1-2.94-.78,6.25,6.25,0,0,1,0-10.68,5.79,5.79,0,0,1,6.53.57v-1.07h2.29v11.71h-2.29Zm-.08-7a4.19,4.19,0,0,0-3.33-1.67,3.75,3.75,0,0,0-3.77,3.86,3.82,3.82,0,0,0,3.89,3.86,4,4,0,0,0,3.21-1.66Zm14.08-3.66h2.36v11.7h-2.29v-1.14a5.46,5.46,0,0,1-3.75,1.4c-2.8,0-4.72-2.12-4.72-5.15v-6.81H411a1.07,1.07,0,0,1,1.07,1.07v5.33c0,2.2,1.19,3.31,2.94,3.31a3.74,3.74,0,0,0,3.1-1.68Zm13.63,11.71a6.44,6.44,0,0,1-1.84.25,4.27,4.27,0,0,1-3.32-1.37,4.55,4.55,0,0,1-.94-3.12v-5.35h-3v-2.12h3V303L428,302v4.7h3.74v2.12H428v5.48a2.25,2.25,0,0,0,.35,1.49,2.19,2.19,0,0,0,1.62.62,5.76,5.76,0,0,0,1.3-.15Zm12.26,0a1.08,1.08,0,0,1-1.08-1.08V312c0-2.2-1.19-3.3-2.93-3.3a3.72,3.72,0,0,0-3.1,1.68v8h-2.36V301.77l2.36-.94v7a5.28,5.28,0,0,1,3.67-1.4c2.8,0,4.73,2.11,4.73,5.14v6.82Zm10-12a6.11,6.11,0,1,1-6,6.1A5.93,5.93,0,0,1,454,306.46Zm0,10a3.86,3.86,0,1,0-3.69-3.86A3.68,3.68,0,0,0,454,316.42Zm11.12-5.67v7.67h-2.36V306.71h2.29v1.34a4.3,4.3,0,0,1,3.51-1.59,5.92,5.92,0,0,1,.92.08l-.27,2.2a3.2,3.2,0,0,0-.87,0A4.07,4.07,0,0,0,465.14,310.75Zm6.86-4h2.36v11.71H472Zm11.28,2.12h-6v-2.12h9.34v1.49l-6.45,8.1H486a1.08,1.08,0,0,1,1.08,1.08v1H476.85v-1.5Zm7.56,2.24h6.38a3.26,3.26,0,0,0-3.09-2.54A3.4,3.4,0,0,0,490.84,311.07Zm3.57,7.6a6,6,0,0,1-6.06-6.11c0-3.51,2.39-6.1,5.71-6.1s5.63,2.64,5.63,6.1a3.56,3.56,0,0,1,0,.5h-9a3.78,3.78,0,0,0,3.79,3.54,4.45,4.45,0,0,0,2.69-.88,1.17,1.17,0,0,1,1.64.17l.52.65A6.13,6.13,0,0,1,494.41,318.67Zm16.94-1.32a5.41,5.41,0,0,1-3.61,1.32,5.91,5.91,0,0,1-2.94-.78,6.25,6.25,0,0,1,0-10.68,5.76,5.76,0,0,1,6.45.52v-6l2.37-.94v17.59h-2.29Zm-.08-7a4.21,4.21,0,0,0-3.34-1.67,3.75,3.75,0,0,0-3.76,3.86,3.82,3.82,0,0,0,3.89,3.86,4,4,0,0,0,3.21-1.66ZM404.12,342.58a5.36,5.36,0,0,1-3.61,1.32,6,6,0,0,1-2.94-.77,6.13,6.13,0,0,1-3-5.33,6.19,6.19,0,0,1,3-5.36,5.61,5.61,0,0,1,2.87-.74A5.53,5.53,0,0,1,404,333v-6l2.37-.94v17.58h-2.29Zm-.08-7.09a4.19,4.19,0,0,0-3.33-1.67,3.75,3.75,0,0,0-3.77,3.86,3.82,3.82,0,0,0,3.89,3.86,4,4,0,0,0,3.21-1.67Z"/><rect x="369.42" y="283.88" width="1.31" height="80.28"/><path d="M160.5,324.38l13.19-17.67h-5.51a6.11,6.11,0,0,0-5.36,2.61l-6.95,9.34-6.74-9.34a6.1,6.1,0,0,0-5.36-2.61h-5.5l13,17.67L137,343.65h5.21a6.1,6.1,0,0,0,5.36-2.61l8.26-10.94,19.34,26.73a6,6,0,0,0,5.36,2.61h5.65ZM266,343.65h7.46V306.71H266Zm-59.18,0h7.46V306.71h-7.46Zm113.15,13,27-50H343c-2.46,0-4.35.72-5.36,2.61L327,329.09l-9.2-19.77c-.94-2-2.89-2.61-5.36-2.61h-3.91l14.2,30.13-12.39,22.6h4.06C316.89,359.44,318.92,358.64,320,356.69Zm-96.78-50v36.94h7.47V318.3a11.73,11.73,0,0,1,9.77-5.29c5.51,0,9.28,3.48,9.28,10.43V340.1a3.36,3.36,0,0,0,3.47,3.55h4V322.14c0-9.56-6.09-16.23-14.93-16.23a16.63,16.63,0,0,0-11.58,4.42v-3.62Zm64.11,23.83c0,8,4.93,13.76,13.76,13.76a19.17,19.17,0,0,0,5.44-.72L305,337.06a15.15,15.15,0,0,1-3.4.36c-3.62,0-6.81-2-6.81-7v-17h10.43l-3-6.66H294.8V291.86l-7.46,3.26v11.59h-7.9v6.66h7.9ZM183.9,313.37v30.28h7.46V313.37h9.56v-6.66h-9.56V304c0-6.31,3.77-8.41,7.46-8.41a9.26,9.26,0,0,1,2.54.36l1.52-6.59a13.1,13.1,0,0,0-4.64-.72c-9.27,0-14.34,6.88-14.34,15.21v2.9H180l-4.71,6.66Z"/><path d="M411.64,132.46H418a3.28,3.28,0,0,0-3.09-2.54A3.42,3.42,0,0,0,411.64,132.46Zm3.56,7.6a6,6,0,0,1-6.05-6.1c0-3.51,2.39-6.1,5.7-6.1s5.63,2.64,5.63,6.1c0,.1,0,.27,0,.5h-9a3.76,3.76,0,0,0,3.79,3.53,4.43,4.43,0,0,0,2.69-.88,1.18,1.18,0,0,1,1.63.17l.53.66A6.19,6.19,0,0,1,415.2,140.06Zm17.25-1.32a5.36,5.36,0,0,1-3.61,1.32,6,6,0,0,1-2.94-.77,6.13,6.13,0,0,1-3-5.33,6.19,6.19,0,0,1,3-5.36,5.61,5.61,0,0,1,2.87-.74,5.44,5.44,0,0,1,3.66,1.32v-1.07h2.29v11.7h-2.29Zm-.08-7A4.19,4.19,0,0,0,429,130.1a3.75,3.75,0,0,0-3.77,3.86,3.82,3.82,0,0,0,3.89,3.86,4,4,0,0,0,3.21-1.67Zm5.92-8.6,2.37-.94v17.58h-2.37Zm7.74,9.29h6.37a3.27,3.27,0,0,0-3.09-2.54A3.4,3.4,0,0,0,446,132.46Zm3.56,7.6a6,6,0,0,1-6-6.1c0-3.51,2.39-6.1,5.7-6.1s5.63,2.64,5.63,6.1a3.63,3.63,0,0,1,0,.5h-9a3.76,3.76,0,0,0,3.78,3.53,4.38,4.38,0,0,0,2.69-.88,1.19,1.19,0,0,1,1.64.17l.53.66A6.19,6.19,0,0,1,449.59,140.06ZM460,132.14v7.67h-2.37v-11.7h2.29v1.34a4.27,4.27,0,0,1,3.51-1.59,5.88,5.88,0,0,1,.92.07l-.26,2.2a3.86,3.86,0,0,0-.88,0A4.07,4.07,0,0,0,460,132.14ZM404.12,113.5a5.37,5.37,0,0,1-3.61,1.33,5.91,5.91,0,0,1-2.94-.78,6.25,6.25,0,0,1,0-10.68,5.79,5.79,0,0,1,6.53.57v-1.07h2.29v11.71h-2.29Zm-.08-7a4.19,4.19,0,0,0-3.33-1.67,3.75,3.75,0,0,0-3.77,3.86,3.82,3.82,0,0,0,3.89,3.86,4,4,0,0,0,3.21-1.67Zm14.08-3.66h2.36v11.7h-2.29v-1.15a5.42,5.42,0,0,1-3.75,1.41c-2.8,0-4.72-2.12-4.72-5.15v-6.81H411a1.07,1.07,0,0,1,1.07,1.07v5.33c0,2.2,1.19,3.31,2.94,3.31a3.74,3.74,0,0,0,3.1-1.68Zm13.63,11.71a6.44,6.44,0,0,1-1.84.25,4.27,4.27,0,0,1-3.32-1.37,4.55,4.55,0,0,1-.94-3.12V105h-3v-2.12h3V99.11l2.36-.94v4.7h3.74V105H428v5.48a2.25,2.25,0,0,0,.35,1.49,2.19,2.19,0,0,0,1.62.62,5.76,5.76,0,0,0,1.3-.15Zm12.26,0a1.09,1.09,0,0,1-1.08-1.08v-5.33c0-2.2-1.19-3.3-2.93-3.3a3.73,3.73,0,0,0-3.1,1.67v8h-2.36V97.93L436.9,97v7a5.28,5.28,0,0,1,3.67-1.4c2.8,0,4.73,2.11,4.73,5.14v6.82Zm10-12a6.11,6.11,0,1,1-6,6.1A5.93,5.93,0,0,1,454,102.62Zm0,10a3.86,3.86,0,1,0-3.69-3.86A3.68,3.68,0,0,0,454,112.58Zm11.12-5.68v7.68h-2.36V102.87h2.29v1.34a4.3,4.3,0,0,1,3.51-1.59,5.88,5.88,0,0,1,.92.07l-.27,2.21a3.2,3.2,0,0,0-.87,0A4.08,4.08,0,0,0,465.14,106.9Zm6.86-4h2.36v11.71H472ZM483.28,105h-6v-2.12h9.34v1.49l-6.45,8.1H486a1.07,1.07,0,0,1,1.08,1.07v1H476.85v-1.5Zm7.56,2.24h6.38a3.26,3.26,0,0,0-3.09-2.54A3.4,3.4,0,0,0,490.84,107.23Zm3.57,7.6a6,6,0,0,1-6.06-6.11c0-3.51,2.39-6.1,5.71-6.1s5.63,2.64,5.63,6.1a3.56,3.56,0,0,1,0,.5h-9a3.78,3.78,0,0,0,3.79,3.54,4.45,4.45,0,0,0,2.69-.88,1.17,1.17,0,0,1,1.64.17l.52.65A6.13,6.13,0,0,1,494.41,114.83Zm16.94-1.33a5.37,5.37,0,0,1-3.61,1.33,5.91,5.91,0,0,1-2.94-.78,6.25,6.25,0,0,1,0-10.68,5.76,5.76,0,0,1,6.45.52v-6l2.37-.94v17.59h-2.29Zm-.08-7a4.21,4.21,0,0,0-3.34-1.67,3.75,3.75,0,0,0-3.76,3.86,3.82,3.82,0,0,0,3.89,3.86,4,4,0,0,0,3.21-1.67ZM404.12,138.74a5.36,5.36,0,0,1-3.61,1.32,6,6,0,0,1-2.94-.77,6.13,6.13,0,0,1-3-5.33,6.19,6.19,0,0,1,3-5.36,5.61,5.61,0,0,1,2.87-.74,5.48,5.48,0,0,1,3.58,1.27v-6l2.37-.94v17.58h-2.29Zm-.08-7.09a4.19,4.19,0,0,0-3.33-1.67,3.75,3.75,0,0,0-3.77,3.86,3.82,3.82,0,0,0,3.89,3.86A4,4,0,0,0,404,136Z"/><rect x="369.42" y="80.04" width="1.31" height="80.28"/><path d="M160.5,120.54l13.19-17.67h-5.51a6.11,6.11,0,0,0-5.36,2.61l-6.95,9.34-6.74-9.34a6.1,6.1,0,0,0-5.36-2.61h-5.5l13,17.67L137,139.81h5.21a6.11,6.11,0,0,0,5.36-2.6l8.26-10.94L175.21,153a6,6,0,0,0,5.36,2.6h5.65ZM266,139.81h7.46V102.87H266Zm-59.18,0h7.46V102.87h-7.46Zm113.15,13,27-50H343c-2.46,0-4.35.72-5.36,2.61L327,125.25l-9.2-19.77c-.94-2-2.89-2.61-5.36-2.61h-3.91L322.69,133,310.3,155.6h4.06C316.89,155.6,318.92,154.81,320,152.85Zm-96.78-50v36.94h7.47V114.46a11.73,11.73,0,0,1,9.77-5.29c5.51,0,9.28,3.48,9.28,10.43v16.66a3.36,3.36,0,0,0,3.47,3.55h4V118.3c0-9.56-6.09-16.23-14.93-16.23a16.63,16.63,0,0,0-11.58,4.42v-3.62Zm64.11,23.83c0,8,4.93,13.76,13.76,13.76a18.81,18.81,0,0,0,5.44-.72L305,133.22a15.15,15.15,0,0,1-3.4.36c-3.62,0-6.81-2-6.81-7v-17h10.43l-3-6.66H294.8V88l-7.46,3.26v11.59h-7.9v6.66h7.9ZM183.9,109.53v30.28h7.46V109.53h9.56v-6.66h-9.56v-2.75c0-6.31,3.77-8.41,7.46-8.41a8.88,8.88,0,0,1,2.54.37l1.52-6.6a13.1,13.1,0,0,0-4.64-.72c-9.27,0-14.34,6.88-14.34,15.21v2.9H180l-4.71,6.66Z"/><rect x="96.42" y="479.05" width="457.83" height="118.89"/><path class="cls-1" d="M411.64,550.78H418a3.28,3.28,0,0,0-3.09-2.54A3.42,3.42,0,0,0,411.64,550.78Zm3.56,7.6a6,6,0,0,1-6.05-6.1c0-3.51,2.39-6.1,5.7-6.1s5.63,2.64,5.63,6.1c0,.1,0,.27,0,.5h-9a3.76,3.76,0,0,0,3.79,3.53,4.43,4.43,0,0,0,2.69-.88,1.18,1.18,0,0,1,1.63.17l.53.66A6.19,6.19,0,0,1,415.2,558.38Zm17.25-1.32a5.36,5.36,0,0,1-3.61,1.32,6,6,0,0,1-2.94-.77,6.13,6.13,0,0,1-3-5.33,6.19,6.19,0,0,1,3-5.36,5.61,5.61,0,0,1,2.87-.74,5.44,5.44,0,0,1,3.66,1.32v-1.07h2.29v11.7h-2.29Zm-.08-7a4.19,4.19,0,0,0-3.33-1.67,3.75,3.75,0,0,0-3.77,3.86,3.82,3.82,0,0,0,3.89,3.86,4,4,0,0,0,3.21-1.67Zm5.92-8.6,2.37-.94v17.58h-2.37Zm7.74,9.29h6.37a3.27,3.27,0,0,0-3.09-2.54A3.4,3.4,0,0,0,446,550.78Zm3.56,7.6a6,6,0,0,1-6-6.1c0-3.51,2.39-6.1,5.7-6.1s5.63,2.64,5.63,6.1a3.63,3.63,0,0,1,0,.5h-9a3.76,3.76,0,0,0,3.78,3.53,4.38,4.38,0,0,0,2.69-.88,1.19,1.19,0,0,1,1.64.17l.53.66A6.19,6.19,0,0,1,449.59,558.38ZM460,550.46v7.67h-2.37v-11.7h2.29v1.34a4.27,4.27,0,0,1,3.51-1.59,5.88,5.88,0,0,1,.92.07l-.26,2.2a3.86,3.86,0,0,0-.88,0A4,4,0,0,0,460,550.46Zm-55.84-18.64a5.37,5.37,0,0,1-3.61,1.33,5.91,5.91,0,0,1-2.94-.78,6.25,6.25,0,0,1,0-10.68,5.79,5.79,0,0,1,6.53.57v-1.07h2.29V532.9h-2.29Zm-.08-7a4.19,4.19,0,0,0-3.33-1.67,3.75,3.75,0,0,0-3.77,3.86,3.82,3.82,0,0,0,3.89,3.86,4,4,0,0,0,3.21-1.67Zm14.08-3.66h2.36v11.7h-2.29v-1.15a5.42,5.42,0,0,1-3.75,1.41c-2.8,0-4.72-2.12-4.72-5.15v-6.81H411a1.07,1.07,0,0,1,1.07,1.07v5.33c0,2.2,1.19,3.31,2.94,3.31a3.74,3.74,0,0,0,3.1-1.68Zm13.63,11.71a6.44,6.44,0,0,1-1.84.25,4.27,4.27,0,0,1-3.32-1.37,4.55,4.55,0,0,1-.94-3.12v-5.35h-3v-2.12h3v-3.76l2.36-.94v4.7h3.74v2.12H428v5.48a2.25,2.25,0,0,0,.35,1.49,2.19,2.19,0,0,0,1.62.62,5.76,5.76,0,0,0,1.3-.15Zm12.26,0a1.09,1.09,0,0,1-1.08-1.08v-5.33c0-2.2-1.19-3.3-2.93-3.3a3.73,3.73,0,0,0-3.1,1.67v8h-2.36V516.25l2.36-.94v7a5.28,5.28,0,0,1,3.67-1.4c2.8,0,4.73,2.11,4.73,5.14v6.82Zm10-12a6.11,6.11,0,1,1-6,6.1A5.93,5.93,0,0,1,454,520.94Zm0,10a3.86,3.86,0,1,0-3.69-3.86A3.68,3.68,0,0,0,454,530.9Zm11.12-5.68v7.68h-2.36V521.19h2.29v1.34a4.3,4.3,0,0,1,3.51-1.59,5.88,5.88,0,0,1,.92.07l-.27,2.21a3.2,3.2,0,0,0-.87,0A4.08,4.08,0,0,0,465.14,525.22Zm6.86-4h2.36V532.9H472Zm11.28,2.12h-6v-2.12h9.34v1.49l-6.45,8.1H486a1.07,1.07,0,0,1,1.08,1.07v1H476.85v-1.5Zm7.56,2.24h6.38a3.26,3.26,0,0,0-3.09-2.54A3.4,3.4,0,0,0,490.84,525.55Zm3.57,7.6a6,6,0,0,1-6.06-6.11c0-3.51,2.39-6.1,5.71-6.1s5.63,2.64,5.63,6.1a3.56,3.56,0,0,1,0,.5h-9a3.78,3.78,0,0,0,3.79,3.54,4.45,4.45,0,0,0,2.69-.88,1.17,1.17,0,0,1,1.64.17l.52.65A6.13,6.13,0,0,1,494.41,533.15Zm16.94-1.33a5.37,5.37,0,0,1-3.61,1.33,5.91,5.91,0,0,1-2.94-.78,6.25,6.25,0,0,1,0-10.68,5.76,5.76,0,0,1,6.45.52v-6l2.37-.94V532.9h-2.29Zm-.08-7a4.21,4.21,0,0,0-3.34-1.67,3.75,3.75,0,0,0-3.76,3.86,3.82,3.82,0,0,0,3.89,3.86,4,4,0,0,0,3.21-1.67ZM404.12,557.06a5.36,5.36,0,0,1-3.61,1.32,6,6,0,0,1-2.94-.77,6.13,6.13,0,0,1-3-5.33,6.19,6.19,0,0,1,3-5.36,5.61,5.61,0,0,1,2.87-.74,5.48,5.48,0,0,1,3.58,1.27v-6l2.37-.94v17.58h-2.29ZM404,550a4.19,4.19,0,0,0-3.33-1.67,3.75,3.75,0,0,0-3.77,3.86,3.82,3.82,0,0,0,3.89,3.86,4,4,0,0,0,3.21-1.67Z"/><rect class="cls-1" x="369.42" y="498.36" width="1.31" height="80.28"/><path class="cls-1" d="M160.5,538.86l13.19-17.67h-5.51a6.13,6.13,0,0,0-5.36,2.6l-6.95,9.35-6.74-9.35a6.11,6.11,0,0,0-5.36-2.6h-5.5l13,17.67L137,558.13h5.21a6.1,6.1,0,0,0,5.36-2.61l8.26-10.94,19.34,26.73a6,6,0,0,0,5.36,2.61h5.65ZM266,558.13h7.46V521.19H266Zm-59.18,0h7.46V521.19h-7.46Zm113.15,13,27-50H343c-2.46,0-4.35.72-5.36,2.6L327,543.57l-9.2-19.78c-.94-1.95-2.89-2.6-5.36-2.6h-3.91l14.2,30.13-12.39,22.6h4.06C316.89,573.92,318.92,573.12,320,571.17Zm-96.78-50v36.94h7.47V532.78a11.73,11.73,0,0,1,9.77-5.29c5.51,0,9.28,3.48,9.28,10.43v16.66a3.36,3.36,0,0,0,3.47,3.55h4V536.62c0-9.57-6.09-16.23-14.93-16.23a16.63,16.63,0,0,0-11.58,4.42v-3.62ZM287.34,545c0,8,4.93,13.76,13.76,13.76a19.17,19.17,0,0,0,5.44-.72L305,551.54a15.15,15.15,0,0,1-3.4.36c-3.62,0-6.81-2-6.81-7v-17h10.43l-3-6.66H294.8V506.34l-7.46,3.26v11.59h-7.9v6.66h7.9ZM183.9,527.85v30.28h7.46V527.85h9.56v-6.66h-9.56v-2.76c0-6.3,3.77-8.4,7.46-8.4a9.26,9.26,0,0,1,2.54.36l1.52-6.59a13.1,13.1,0,0,0-4.64-.72c-9.27,0-14.34,6.88-14.34,15.21v2.9H180l-4.71,6.66Z"/><rect class="cls-2" x="657.42" y="264.57" width="457.83" height="118.89"/><path d="M965.12,317.35a5.41,5.41,0,0,1-3.61,1.32,5.93,5.93,0,0,1-2.94-.78,6.25,6.25,0,0,1,0-10.68,5.79,5.79,0,0,1,6.53.57v-1.07h2.29v11.71h-2.29Zm-.08-7a4.19,4.19,0,0,0-3.33-1.67,3.75,3.75,0,0,0-3.76,3.86,3.81,3.81,0,0,0,3.88,3.86,4,4,0,0,0,3.21-1.66Zm14.08-3.66h2.36v11.7h-2.29v-1.14a5.46,5.46,0,0,1-3.74,1.4c-2.8,0-4.73-2.12-4.73-5.15v-6.81H972a1.07,1.07,0,0,1,1.07,1.07v5.33c0,2.2,1.19,3.31,2.94,3.31a3.74,3.74,0,0,0,3.1-1.68Zm13.63,11.71a6.44,6.44,0,0,1-1.84.25,4.27,4.27,0,0,1-3.32-1.37,4.55,4.55,0,0,1-.94-3.12v-5.35h-3v-2.12h3V303L989,302v4.7h3.74v2.12H989v5.48a2.25,2.25,0,0,0,.35,1.49,2.19,2.19,0,0,0,1.62.62,5.76,5.76,0,0,0,1.3-.15Zm12.26,0a1.07,1.07,0,0,1-1.07-1.08V312c0-2.2-1.2-3.3-2.94-3.3a3.72,3.72,0,0,0-3.1,1.68v8h-2.36V301.77l2.36-.94v7a5.28,5.28,0,0,1,3.67-1.4c2.8,0,4.73,2.11,4.73,5.14v6.82Zm10-12a6.11,6.11,0,1,1-6,6.1A5.93,5.93,0,0,1,1015,306.46Zm0,10a3.86,3.86,0,1,0-3.69-3.86A3.68,3.68,0,0,0,1015,316.42Zm11.12-5.67v7.67h-2.36V306.71h2.29v1.34a4.3,4.3,0,0,1,3.51-1.59,5.92,5.92,0,0,1,.92.08l-.27,2.2a3.2,3.2,0,0,0-.87,0A4.08,4.08,0,0,0,1026.14,310.75Zm6.86-4h2.36v11.71H1033Zm11.28,2.12h-6v-2.12h9.34v1.49l-6.45,8.1H1047a1.08,1.08,0,0,1,1.08,1.08v1h-10.21v-1.5Zm7.56,2.24h6.38a3.26,3.26,0,0,0-3.09-2.54A3.4,3.4,0,0,0,1051.84,311.07Zm3.57,7.6a6,6,0,0,1-6.06-6.11c0-3.51,2.4-6.1,5.71-6.1s5.63,2.64,5.63,6.1a3.56,3.56,0,0,1,0,.5h-9a3.77,3.77,0,0,0,3.78,3.54,4.45,4.45,0,0,0,2.69-.88,1.17,1.17,0,0,1,1.64.17l.52.65A6.13,6.13,0,0,1,1055.41,318.67Zm16.94-1.32a5.41,5.41,0,0,1-3.61,1.32,5.91,5.91,0,0,1-2.94-.78,6.25,6.25,0,0,1,0-10.68,5.76,5.76,0,0,1,6.45.52v-6l2.37-.94v17.59h-2.29Zm-.08-7a4.19,4.19,0,0,0-3.33-1.67,3.75,3.75,0,0,0-3.77,3.86,3.82,3.82,0,0,0,3.89,3.86,4,4,0,0,0,3.21-1.66ZM986,343.65a6.44,6.44,0,0,1-1.84.25,4.2,4.2,0,0,1-3.31-1.37,4.46,4.46,0,0,1-1-3.11v-5.35h-3V332h3v-3.76l2.36-.94V332H986v2.12h-3.74v5.47a2.27,2.27,0,0,0,.35,1.5,2.19,2.19,0,0,0,1.62.62,5.76,5.76,0,0,0,1.3-.15Zm-19-7.34h6.37a3.25,3.25,0,0,0-3.08-2.54A3.4,3.4,0,0,0,967,336.31Zm3.56,7.59a6,6,0,0,1-6-6.1c0-3.51,2.39-6.1,5.7-6.1s5.63,2.64,5.63,6.1a3.56,3.56,0,0,1,0,.5h-9a3.78,3.78,0,0,0,3.79,3.54,4.49,4.49,0,0,0,2.69-.88,1.17,1.17,0,0,1,1.63.16l.53.66A6.19,6.19,0,0,1,970.51,343.9Zm26.7-1.32a5.33,5.33,0,0,1-3.61,1.32,6.06,6.06,0,0,1-2.94-.77,6.26,6.26,0,0,1,0-10.68,5.61,5.61,0,0,1,2.86-.75,5.49,5.49,0,0,1,3.66,1.32V332h2.29v11.7h-2.29Zm-.07-7a4.21,4.21,0,0,0-3.34-1.67A3.75,3.75,0,0,0,990,337.8a3.82,3.82,0,0,0,3.89,3.86,4.07,4.07,0,0,0,3.21-1.67Zm6.09-3.66h2.36v11.7h-2.36Zm6.09-4.94,2.36-.93v17.57h-2.36Zm7.6,9.3h6.38a3.27,3.27,0,0,0-3.09-2.54A3.4,3.4,0,0,0,1016.92,336.31Zm3.56,7.59a6,6,0,0,1-6.05-6.1c0-3.51,2.39-6.1,5.7-6.1s5.63,2.64,5.63,6.1c0,.1,0,.28,0,.5h-9a3.78,3.78,0,0,0,3.79,3.54,4.49,4.49,0,0,0,2.69-.88,1.17,1.17,0,0,1,1.63.16l.53.66A6.19,6.19,0,0,1,1020.48,343.9Zm13.58-10a4.3,4.3,0,0,1,.87,0l.27-2.2a5.92,5.92,0,0,0-.92-.08,4.27,4.27,0,0,0-3.51,1.6V332h-2.29v11.7h2.36V336A4.07,4.07,0,0,1,1034.06,333.94Zm-71.94,0a3.79,3.79,0,0,1,.88,0l.26-2.2a5.92,5.92,0,0,0-.92-.08,4.27,4.27,0,0,0-3.51,1.6V332h-2.29v11.7h2.37V336A4.08,4.08,0,0,1,962.12,333.94Z"/><rect x="930.42" y="283.88" width="1.31" height="80.28"/><path d="M721.51,324.38l13.18-17.67h-5.51a6.11,6.11,0,0,0-5.36,2.61l-7,9.34-6.74-9.34a6.09,6.09,0,0,0-5.36-2.61h-5.5l13,17.67L698,343.65h5.21a6.1,6.1,0,0,0,5.36-2.61l8.26-10.94,19.34,26.73a6,6,0,0,0,5.36,2.61h5.65ZM827,343.65h7.47V306.71H827Zm-59.18,0h7.47V306.71h-7.47Zm113.15,13,27-50H904c-2.46,0-4.34.72-5.36,2.61L888,329.09l-9.2-19.77c-.94-2-2.89-2.61-5.36-2.61h-3.91l14.2,30.13-12.39,22.6h4.06C877.89,359.44,879.92,358.64,881,356.69Zm-96.77-50v36.94h7.46V318.3a11.73,11.73,0,0,1,9.77-5.29c5.51,0,9.28,3.48,9.28,10.43V340.1a3.37,3.37,0,0,0,3.47,3.55h4V322.14c0-9.56-6.09-16.23-14.92-16.23a16.66,16.66,0,0,0-11.59,4.42v-3.62Zm64.1,23.83c0,8,4.93,13.76,13.76,13.76a19.17,19.17,0,0,0,5.44-.72L866,337.06a15.31,15.31,0,0,1-3.41.36c-3.62,0-6.81-1.95-6.81-7v-17h10.43l-3-6.66H855.8V291.86l-7.46,3.26v11.59h-7.89v6.66h7.89ZM744.9,313.37v30.28h7.46V313.37h9.56v-6.66h-9.56V304c0-6.31,3.77-8.41,7.46-8.41a8.77,8.77,0,0,1,2.54.37l1.52-6.6a13.1,13.1,0,0,0-4.64-.72c-9.27,0-14.34,6.88-14.34,15.21v2.9H741l-4.71,6.66Z"/><path d="M965.12,113.5a5.37,5.37,0,0,1-3.61,1.33,5.93,5.93,0,0,1-2.94-.78,6.25,6.25,0,0,1,0-10.68,5.79,5.79,0,0,1,6.53.57v-1.07h2.29v11.71h-2.29Zm-.08-7a4.19,4.19,0,0,0-3.33-1.67,3.75,3.75,0,0,0-3.76,3.86,3.82,3.82,0,0,0,3.88,3.86,4,4,0,0,0,3.21-1.67Zm14.08-3.66h2.36v11.7h-2.29v-1.15a5.42,5.42,0,0,1-3.74,1.41c-2.81,0-4.73-2.12-4.73-5.15v-6.81H972a1.07,1.07,0,0,1,1.07,1.07v5.33c0,2.2,1.19,3.31,2.94,3.31a3.74,3.74,0,0,0,3.1-1.68Zm13.63,11.71a6.44,6.44,0,0,1-1.84.25,4.24,4.24,0,0,1-3.32-1.38,4.5,4.5,0,0,1-.94-3.11V105h-3v-2.12h3V99.11l2.36-.94v4.7h3.74V105H989v5.48a2.25,2.25,0,0,0,.35,1.49,2.19,2.19,0,0,0,1.62.62,5.76,5.76,0,0,0,1.3-.15Zm12.26,0a1.08,1.08,0,0,1-1.07-1.08v-5.33c0-2.2-1.2-3.3-2.94-3.3a3.73,3.73,0,0,0-3.1,1.67v8h-2.36V97.93L997.9,97v7a5.28,5.28,0,0,1,3.67-1.4c2.8,0,4.73,2.11,4.73,5.14v6.82Zm10-12a6.11,6.11,0,1,1-6,6.1A5.93,5.93,0,0,1,1015,102.62Zm0,10a3.86,3.86,0,1,0-3.69-3.86A3.69,3.69,0,0,0,1015,112.58Zm11.12-5.68v7.68h-2.36V102.87h2.29v1.34a4.3,4.3,0,0,1,3.51-1.59,5.88,5.88,0,0,1,.92.07l-.27,2.21a3.2,3.2,0,0,0-.87,0A4.08,4.08,0,0,0,1026.14,106.9Zm6.86-4h2.36v11.71H1033Zm11.28,2.12h-6v-2.12h9.34v1.49l-6.45,8.1H1047a1.07,1.07,0,0,1,1.08,1.07v1h-10.21v-1.5Zm7.56,2.24h6.38a3.26,3.26,0,0,0-3.09-2.54A3.4,3.4,0,0,0,1051.84,107.23Zm3.57,7.6a6,6,0,0,1-6.06-6.11c0-3.51,2.39-6.1,5.71-6.1s5.63,2.64,5.63,6.1a3.56,3.56,0,0,1,0,.5h-9a3.78,3.78,0,0,0,3.79,3.54,4.45,4.45,0,0,0,2.69-.88,1.17,1.17,0,0,1,1.64.17l.52.65A6.13,6.13,0,0,1,1055.41,114.83Zm16.94-1.33a5.37,5.37,0,0,1-3.61,1.33,5.91,5.91,0,0,1-2.94-.78,6.25,6.25,0,0,1,0-10.68,5.76,5.76,0,0,1,6.45.52v-6l2.37-.94v17.59h-2.29Zm-.08-7a4.2,4.2,0,0,0-3.33-1.67,3.75,3.75,0,0,0-3.77,3.86,3.82,3.82,0,0,0,3.89,3.86,4,4,0,0,0,3.21-1.67ZM986,139.81a6.44,6.44,0,0,1-1.84.25,4.24,4.24,0,0,1-3.32-1.37,4.5,4.5,0,0,1-.94-3.11v-5.35h-3v-2.12h3v-3.76l2.36-.94v4.7H986v2.12h-3.74v5.47a2.27,2.27,0,0,0,.35,1.5,2.19,2.19,0,0,0,1.62.62,5.76,5.76,0,0,0,1.3-.15Zm-19-7.34h6.37a3.25,3.25,0,0,0-3.08-2.54A3.4,3.4,0,0,0,967,132.47Zm3.56,7.59a6,6,0,0,1-6-6.1c0-3.51,2.39-6.1,5.7-6.1s5.63,2.64,5.63,6.1a3.63,3.63,0,0,1,0,.5h-9a3.77,3.77,0,0,0,3.79,3.53,4.37,4.37,0,0,0,2.68-.88,1.19,1.19,0,0,1,1.64.17l.53.66A6.19,6.19,0,0,1,970.51,140.06Zm26.7-1.32a5.33,5.33,0,0,1-3.61,1.32,6.06,6.06,0,0,1-2.94-.77,6.26,6.26,0,0,1,0-10.68,5.77,5.77,0,0,1,6.52.57v-1.07h2.29v11.7h-2.29Zm-.07-7a4.21,4.21,0,0,0-3.34-1.67A3.75,3.75,0,0,0,990,134a3.82,3.82,0,0,0,3.89,3.86,4.07,4.07,0,0,0,3.21-1.67Zm6.09-3.66h2.36v11.7h-2.36Zm6.09-4.94,2.36-.94v17.58h-2.36Zm7.6,9.3h6.37a3.25,3.25,0,0,0-3.08-2.54A3.4,3.4,0,0,0,1016.92,132.47Zm3.56,7.59a6,6,0,0,1-6.05-6.1c0-3.51,2.39-6.1,5.7-6.1s5.63,2.64,5.63,6.1a3.63,3.63,0,0,1,0,.5h-9a3.77,3.77,0,0,0,3.79,3.53,4.43,4.43,0,0,0,2.69-.88,1.18,1.18,0,0,1,1.63.17l.53.66A6.19,6.19,0,0,1,1020.48,140.06Zm13.58-10a3.23,3.23,0,0,1,.87,0l.27-2.2a5.92,5.92,0,0,0-.92-.08,4.3,4.3,0,0,0-3.51,1.59v-1.34h-2.29v11.7h2.36v-7.67A4.08,4.08,0,0,1,1034.06,130.1Zm-71.94,0a3.2,3.2,0,0,1,.87,0l.27-2.2a5.92,5.92,0,0,0-.92-.08,4.3,4.3,0,0,0-3.51,1.59v-1.34h-2.29v11.7h2.37v-7.67A4.08,4.08,0,0,1,962.12,130.1Z"/><rect x="930.42" y="80.04" width="1.31" height="80.28"/><path d="M721.51,120.54l13.18-17.67h-5.51a6.11,6.11,0,0,0-5.36,2.61l-7,9.34-6.74-9.34a6.09,6.09,0,0,0-5.36-2.61h-5.5l13,17.67L698,139.81h5.21a6.1,6.1,0,0,0,5.36-2.61l8.26-10.93L736.21,153a6,6,0,0,0,5.36,2.6h5.65ZM827,139.81h7.47V102.87H827Zm-59.18,0h7.47V102.87h-7.47Zm113.15,13,27-50H904c-2.46,0-4.34.72-5.36,2.61L888,125.25l-9.2-19.77c-.94-2-2.89-2.61-5.36-2.61h-3.91L883.69,133,871.3,155.6h4.06C877.89,155.6,879.92,154.81,881,152.85Zm-96.77-50v36.94h7.46V114.46a11.73,11.73,0,0,1,9.77-5.29c5.51,0,9.28,3.48,9.28,10.43v16.66a3.37,3.37,0,0,0,3.47,3.55h4V118.3c0-9.56-6.09-16.23-14.92-16.23a16.66,16.66,0,0,0-11.59,4.42v-3.62Zm64.1,23.83c0,8,4.93,13.76,13.76,13.76a19.17,19.17,0,0,0,5.44-.72L866,133.22a15.31,15.31,0,0,1-3.41.36c-3.62,0-6.81-2-6.81-7v-17h10.43l-3-6.66H855.8V88l-7.46,3.26v11.59h-7.89v6.66h7.89ZM744.9,109.53v30.28h7.46V109.53h9.56v-6.66h-9.56v-2.75c0-6.31,3.77-8.41,7.46-8.41a9.15,9.15,0,0,1,2.54.36l1.52-6.59a13.1,13.1,0,0,0-4.64-.72c-9.27,0-14.34,6.88-14.34,15.21v2.9H741l-4.71,6.66Z"/><rect x="657.42" y="479.05" width="457.83" height="118.9"/><path class="cls-1" d="M965.12,531.83a5.41,5.41,0,0,1-3.61,1.32,5.93,5.93,0,0,1-2.94-.78,6.25,6.25,0,0,1,0-10.68,5.79,5.79,0,0,1,6.53.57v-1.07h2.29V532.9h-2.29Zm-.08-7a4.19,4.19,0,0,0-3.33-1.67A3.75,3.75,0,0,0,958,527a3.82,3.82,0,0,0,3.88,3.86,4,4,0,0,0,3.21-1.67Zm14.08-3.66h2.36v11.7h-2.29v-1.14a5.46,5.46,0,0,1-3.74,1.4c-2.8,0-4.73-2.12-4.73-5.15v-6.81H972a1.07,1.07,0,0,1,1.07,1.07v5.33c0,2.2,1.19,3.31,2.94,3.31a3.74,3.74,0,0,0,3.1-1.68Zm13.63,11.71a6.44,6.44,0,0,1-1.84.25,4.27,4.27,0,0,1-3.32-1.37,4.55,4.55,0,0,1-.94-3.12v-5.35h-3v-2.12h3v-3.76l2.36-.94v4.7h3.74v2.12H989v5.48a2.25,2.25,0,0,0,.35,1.49,2.19,2.19,0,0,0,1.62.62,5.76,5.76,0,0,0,1.3-.15Zm12.26,0a1.08,1.08,0,0,1-1.07-1.08v-5.33c0-2.2-1.2-3.3-2.94-3.3a3.73,3.73,0,0,0-3.1,1.67v8h-2.36V516.25l2.36-.94v7a5.28,5.28,0,0,1,3.67-1.4c2.8,0,4.73,2.11,4.73,5.14v6.82Zm10-12a6.11,6.11,0,1,1-6,6.1A5.93,5.93,0,0,1,1015,520.94Zm0,10a3.86,3.86,0,1,0-3.69-3.86A3.69,3.69,0,0,0,1015,530.9Zm11.12-5.68v7.68h-2.36V521.19h2.29v1.34a4.3,4.3,0,0,1,3.51-1.59,5.88,5.88,0,0,1,.92.07l-.27,2.21a3.2,3.2,0,0,0-.87,0A4.1,4.1,0,0,0,1026.14,525.22Zm6.86-4h2.36V532.9H1033Zm11.28,2.12h-6v-2.12h9.34v1.49l-6.45,8.1H1047a1.08,1.08,0,0,1,1.08,1.08v1h-10.21v-1.5Zm7.56,2.24h6.38a3.26,3.26,0,0,0-3.09-2.54A3.4,3.4,0,0,0,1051.84,525.55Zm3.57,7.6a6,6,0,0,1-6.06-6.11c0-3.51,2.4-6.1,5.71-6.1s5.63,2.64,5.63,6.1a3.56,3.56,0,0,1,0,.5h-9a3.77,3.77,0,0,0,3.78,3.54,4.45,4.45,0,0,0,2.69-.88,1.17,1.17,0,0,1,1.64.17l.52.65A6.13,6.13,0,0,1,1055.41,533.15Zm16.94-1.32a5.41,5.41,0,0,1-3.61,1.32,5.91,5.91,0,0,1-2.94-.78,6.25,6.25,0,0,1,0-10.68,5.76,5.76,0,0,1,6.45.52v-6l2.37-.94V532.9h-2.29Zm-.08-7a4.19,4.19,0,0,0-3.33-1.67,3.75,3.75,0,0,0-3.77,3.86,3.82,3.82,0,0,0,3.89,3.86,4,4,0,0,0,3.21-1.67ZM986,558.13a6.44,6.44,0,0,1-1.84.25,4.2,4.2,0,0,1-3.31-1.37,4.46,4.46,0,0,1-1-3.11v-5.35h-3v-2.12h3v-3.76l2.36-.94v4.7H986v2.12h-3.74V554a2.27,2.27,0,0,0,.35,1.5,2.19,2.19,0,0,0,1.62.62,5.76,5.76,0,0,0,1.3-.15Zm-19-7.34h6.37a3.25,3.25,0,0,0-3.08-2.54A3.4,3.4,0,0,0,967,550.79Zm3.56,7.59a6,6,0,0,1-6-6.1c0-3.51,2.39-6.1,5.7-6.1s5.63,2.64,5.63,6.1a3.63,3.63,0,0,1,0,.5h-9a3.77,3.77,0,0,0,3.79,3.53,4.43,4.43,0,0,0,2.69-.88,1.18,1.18,0,0,1,1.63.17l.53.66A6.19,6.19,0,0,1,970.51,558.38Zm26.7-1.32a5.33,5.33,0,0,1-3.61,1.32,6.06,6.06,0,0,1-2.94-.77,6.26,6.26,0,0,1,0-10.68,5.61,5.61,0,0,1,2.86-.75,5.49,5.49,0,0,1,3.66,1.32v-1.07h2.29v11.7h-2.29Zm-.07-7a4.21,4.21,0,0,0-3.34-1.67,3.75,3.75,0,0,0-3.76,3.86,3.82,3.82,0,0,0,3.89,3.86,4.07,4.07,0,0,0,3.21-1.67Zm6.09-3.66h2.36v11.7h-2.36Zm6.09-4.94,2.36-.93v17.57h-2.36Zm7.6,9.3h6.38a3.27,3.27,0,0,0-3.09-2.54A3.4,3.4,0,0,0,1016.92,550.79Zm3.56,7.59a6,6,0,0,1-6.05-6.1c0-3.51,2.39-6.1,5.7-6.1s5.63,2.64,5.63,6.1c0,.1,0,.27,0,.5h-9a3.77,3.77,0,0,0,3.79,3.53,4.43,4.43,0,0,0,2.69-.88,1.18,1.18,0,0,1,1.63.17l.53.66A6.19,6.19,0,0,1,1020.48,558.38Zm13.58-10a3.67,3.67,0,0,1,.87,0l.27-2.2a5.92,5.92,0,0,0-.92-.08,4.27,4.27,0,0,0-3.51,1.6v-1.35h-2.29v11.7h2.36v-7.67A4.08,4.08,0,0,1,1034.06,548.42Zm-71.94,0a3.31,3.31,0,0,1,.88,0l.26-2.2a5.92,5.92,0,0,0-.92-.08,4.3,4.3,0,0,0-3.51,1.59v-1.34h-2.29v11.7h2.37v-7.67A4.08,4.08,0,0,1,962.12,548.42Z"/><rect class="cls-1" x="930.42" y="498.36" width="1.31" height="80.28"/><path class="cls-1" d="M721.51,538.86l13.18-17.67h-5.51a6.13,6.13,0,0,0-5.36,2.6l-7,9.35-6.74-9.35a6.1,6.1,0,0,0-5.36-2.6h-5.5l13,17.67L698,558.13h5.21a6.1,6.1,0,0,0,5.36-2.61l8.26-10.94,19.34,26.73a6,6,0,0,0,5.36,2.61h5.65ZM827,558.13h7.47V521.19H827Zm-59.18,0h7.47V521.19h-7.47Zm113.15,13,27-50H904c-2.46,0-4.34.72-5.36,2.6L888,543.57l-9.2-19.78c-.94-1.95-2.89-2.6-5.36-2.6h-3.91l14.2,30.13-12.39,22.6h4.06C877.89,573.92,879.92,573.12,881,571.17Zm-96.77-50v36.94h7.46V532.78a11.73,11.73,0,0,1,9.77-5.29c5.51,0,9.28,3.48,9.28,10.43v16.66a3.37,3.37,0,0,0,3.47,3.55h4V536.62c0-9.57-6.09-16.23-14.92-16.23a16.66,16.66,0,0,0-11.59,4.42v-3.62ZM848.34,545c0,8,4.93,13.76,13.76,13.76a19.17,19.17,0,0,0,5.44-.72L866,551.54a15.31,15.31,0,0,1-3.41.36c-3.62,0-6.81-2-6.81-7v-17h10.43l-3-6.66H855.8V506.34l-7.46,3.26v11.59h-7.89v6.66h7.89ZM744.9,527.85v30.28h7.46V527.85h9.56v-6.66h-9.56v-2.76c0-6.3,3.77-8.4,7.46-8.4a9.15,9.15,0,0,1,2.54.36l1.52-6.59a13.1,13.1,0,0,0-4.64-.72c-9.27,0-14.34,6.88-14.34,15.21v2.9H741l-4.71,6.66Z"/></g></svg>