<svg xmlns="http://www.w3.org/2000/svg" viewBox="0 0 1210 684"><defs><style>.cls-1{fill:#fff;}.cls-2{fill:#d71920;}.cls-3{fill:#231f20;}</style></defs><title>BrandHub-VectorGraphics</title><g id="Vector"><rect class="cls-1" y="-0.24" width="1210" height="684"/><path d="M203.07,110.69l13.08-17.53h-5.46a6.05,6.05,0,0,0-5.32,2.58l-6.9,9.27-6.69-9.27a6,6,0,0,0-5.31-2.58H181l12.94,17.53-14.16,19.12H185a6.06,6.06,0,0,0,5.32-2.59l8.19-10.85,19.19,26.52a6,6,0,0,0,5.31,2.58h5.61Zm104.71,19.12h7.4V93.16h-7.4Zm-58.72,0h7.4V93.16h-7.4Zm112.26,12.93,26.8-49.58h-4c-2.45,0-4.32.72-5.32,2.58l-10.57,19.62-9.12-19.62c-.94-1.94-2.88-2.58-5.32-2.58h-3.88L364,123.05l-12.28,22.42h4C358.23,145.47,360.24,144.68,361.32,142.74ZM271.6,158.62h-5.51v9a4.09,4.09,0,0,0,.72,2.75,3.39,3.39,0,0,0,2.75,1.15,6.53,6.53,0,0,0,1.77-.21l.36,1.88a8,8,0,0,1-2.13.29,5.54,5.54,0,0,1-4.41-1.88,6.12,6.12,0,0,1-1.12-4v-8.9h-3.84v-2H264v-5.88l2.06-.75v6.63h5.51Zm-36.89,6.26a8.47,8.47,0,1,1-8.46-8.57A8.43,8.43,0,0,1,234.71,164.88Zm-2.07,0a6.39,6.39,0,1,0-6.39,6.61A6.35,6.35,0,0,0,232.64,164.88Zm93.05-16.36a6,6,0,0,0-4.7,2c-.87,1-1.38,2.5-1.38,5v1.08h-2.89l-1.38,2h4.27v14.54h2.07V158.62h5.6v-2h-5.6v-1.19a5.45,5.45,0,0,1,.76-3.43,3.74,3.74,0,0,1,3.22-1.56,4.56,4.56,0,0,1,1.23.15l.39-1.92A7.44,7.44,0,0,0,325.69,148.52Zm24.88,8.14a2.16,2.16,0,0,0-2,1.33L343,168.35c-1.25-2.75-4.52-9.91-4.77-10.5a1.64,1.64,0,0,0-1.79-1.19h-1l6.37,14-.6,1.14-4.5,8.44h1.07a1.88,1.88,0,0,0,1.85-1.24l11.93-22.3Zm-42.66,8.4h-13.4c.14,3.5,2.41,6.45,6.2,6.45a6.57,6.57,0,0,0,4.64-1.79,1.31,1.31,0,0,1,1.76,0l.52.46a8.53,8.53,0,0,1-6.92,3.3c-4.62,0-8.25-3.46-8.25-8.58,0-4.72,3.2-8.57,7.85-8.57,4.4,0,7.64,3.46,7.64,8A5.59,5.59,0,0,1,307.91,165.06Zm-2.09-1.87a5.56,5.56,0,0,0-5.51-4.94,5.85,5.85,0,0,0-5.69,4.94Zm-60.9-6.88a7,7,0,0,0-5.66,2.5v-2.15h-2.07v16.49h2.07V161.64a6.44,6.44,0,0,1,5.62-3.38,5,5,0,0,1,4.24,2.17,6.57,6.57,0,0,1,.93,4v7.64a1.08,1.08,0,0,0,1,1.09h1v-8.87c0-2.8-.56-4.11-1.4-5.22A7.05,7.05,0,0,0,244.92,156.31Zm37.38,0a7,7,0,0,0-5.66,2.5V148.53l-2.07.84v23.78h2.07V161.64a6.44,6.44,0,0,1,5.62-3.38,5,5,0,0,1,4.24,2.17,6.57,6.57,0,0,1,.93,4v7.64a1.08,1.08,0,0,0,1,1.09h1v-8.87c0-2.8-.56-4.11-1.4-5.22A7.05,7.05,0,0,0,282.3,156.31Zm50.36-7.78-2.06.84v23.78h2.06ZM265.3,93.16v36.65h7.41V104.66a11.62,11.62,0,0,1,9.7-5.25c5.46,0,9.2,3.45,9.2,10.35v16.53a3.34,3.34,0,0,0,3.45,3.52H299V108.46c0-9.48-6-16.09-14.81-16.09a16.48,16.48,0,0,0-11.49,4.38V93.16Zm63.6,23.64c0,8,4.89,13.66,13.66,13.66a18.9,18.9,0,0,0,5.39-.72l-1.51-6.47a15.56,15.56,0,0,1-3.38.36c-3.59,0-6.75-1.94-6.75-7V99.77h10.34l-3-6.61h-7.33V78.42l-7.41,3.24v11.5h-7.83v6.61h7.83Zm-102.62-17v30h7.4v-30h9.49V93.16h-9.49V90.43c0-6.26,3.74-8.34,7.4-8.34a8.7,8.7,0,0,1,2.52.36l1.51-6.54a12.93,12.93,0,0,0-4.6-.72c-9.2,0-14.23,6.83-14.23,15.09v2.88H222.4l-4.67,6.61Z"/><path class="cls-2" d="M203.07,540.66l13.08-17.54h-5.46a6.06,6.06,0,0,0-5.32,2.59l-6.9,9.27-6.69-9.27a6.05,6.05,0,0,0-5.31-2.59H181l12.94,17.54-14.16,19.12H185a6.08,6.08,0,0,0,5.32-2.59l8.19-10.85,19.19,26.52a6,6,0,0,0,5.31,2.58h5.61Zm104.71,19.12h7.4V523.12h-7.4Zm-58.72,0h7.4V523.12h-7.4Zm112.26,12.93,26.8-49.59h-4c-2.45,0-4.32.72-5.32,2.59l-10.57,19.62-9.12-19.62c-.94-1.94-2.88-2.59-5.32-2.59h-3.88L364,553l-12.28,22.42h4C358.23,575.44,360.24,574.65,361.32,572.71ZM271.6,588.58h-5.51v9a4,4,0,0,0,.72,2.74,3.36,3.36,0,0,0,2.75,1.16,6.19,6.19,0,0,0,1.77-.22l.36,1.89a8,8,0,0,1-2.13.28,5.54,5.54,0,0,1-4.41-1.88,6.09,6.09,0,0,1-1.12-4v-8.9h-3.84v-2H264v-5.88l2.06-.75v6.63h5.51Zm-36.89,6.27a8.47,8.47,0,1,1-8.46-8.58A8.42,8.42,0,0,1,234.71,594.85Zm-2.07,0a6.39,6.39,0,1,0-6.39,6.6A6.36,6.36,0,0,0,232.64,594.85Zm93.05-16.36a6,6,0,0,0-4.7,2c-.87,1.05-1.38,2.5-1.38,5v1.08h-2.89l-1.38,2h4.27v14.54h2.07V588.58h5.6v-2h-5.6v-1.19a5.43,5.43,0,0,1,.76-3.43,3.71,3.71,0,0,1,3.22-1.56,4.55,4.55,0,0,1,1.23.14l.39-1.92A8.15,8.15,0,0,0,325.69,578.49Zm24.88,8.14a2.16,2.16,0,0,0-2,1.33L343,598.31c-1.25-2.75-4.52-9.9-4.77-10.5a1.64,1.64,0,0,0-1.79-1.18h-1l6.37,14-.6,1.14-4.5,8.44h1.07a1.89,1.89,0,0,0,1.85-1.24l11.93-22.3ZM307.91,595h-13.4c.14,3.49,2.41,6.45,6.2,6.45a6.53,6.53,0,0,0,4.64-1.8,1.31,1.31,0,0,1,1.76,0l.52.47a8.52,8.52,0,0,1-6.92,3.29c-4.62,0-8.25-3.46-8.25-8.57,0-4.72,3.2-8.58,7.85-8.58,4.4,0,7.64,3.46,7.64,8A5.67,5.67,0,0,1,307.91,595Zm-2.09-1.87a5.55,5.55,0,0,0-5.51-4.94,5.85,5.85,0,0,0-5.69,4.94Zm-60.9-6.89a7,7,0,0,0-5.66,2.51v-2.15h-2.07v16.49h2.07V591.61a6.44,6.44,0,0,1,5.62-3.38,5,5,0,0,1,4.24,2.17,6.55,6.55,0,0,1,.93,4V602a1.08,1.08,0,0,0,1,1.09h1v-8.87c0-2.81-.56-4.12-1.4-5.22A7.06,7.06,0,0,0,244.92,586.27Zm37.38,0a7,7,0,0,0-5.66,2.51V578.5l-2.07.84v23.78h2.07V591.61a6.44,6.44,0,0,1,5.62-3.38,5,5,0,0,1,4.24,2.17,6.55,6.55,0,0,1,.93,4V602a1.08,1.08,0,0,0,1,1.09h1v-8.87c0-2.81-.56-4.12-1.4-5.22A7.06,7.06,0,0,0,282.3,586.27Zm50.36-7.77-2.06.84v23.78h2.06ZM265.3,523.12v36.66h7.41V534.62a11.64,11.64,0,0,1,9.7-5.24c5.46,0,9.2,3.45,9.2,10.35v16.52a3.34,3.34,0,0,0,3.45,3.53H299V538.43c0-9.48-6-16.1-14.81-16.1a16.49,16.49,0,0,0-11.49,4.39v-3.6Zm63.6,23.65c0,8,4.89,13.65,13.66,13.65a18.55,18.55,0,0,0,5.39-.72l-1.51-6.46a15.56,15.56,0,0,1-3.38.36c-3.59,0-6.75-1.94-6.75-7V529.74h10.34l-3-6.62h-7.33V508.39l-7.41,3.24v11.49h-7.83v6.62h7.83Zm-102.62-17v30h7.4v-30h9.49v-6.62h-9.49v-2.73c0-6.25,3.74-8.33,7.4-8.33a8.7,8.7,0,0,1,2.52.36l1.51-6.54a12.93,12.93,0,0,0-4.6-.72c-9.2,0-14.23,6.83-14.23,15.09v2.87H222.4l-4.67,6.62Z"/><path class="cls-2" d="M959.15,535.67h-5.51v9a4.09,4.09,0,0,0,.72,2.75,3.39,3.39,0,0,0,2.75,1.15,6.53,6.53,0,0,0,1.77-.21l.36,1.88a8,8,0,0,1-2.13.29,5.54,5.54,0,0,1-4.41-1.88,6.07,6.07,0,0,1-1.12-4v-8.9h-3.84v-2h3.84v-5.88l2.06-.75v6.63h5.51Zm-36.89,6.26a8.47,8.47,0,1,1-8.47-8.58A8.43,8.43,0,0,1,922.26,541.93Zm-2.08,0a6.39,6.39,0,1,0-6.39,6.61A6.35,6.35,0,0,0,920.18,541.93Zm93.06-16.36a6,6,0,0,0-4.7,2c-.87,1-1.38,2.5-1.38,5v1.08h-2.89l-1.38,2h4.27V550.2h2.06V535.67h5.61v-2h-5.61v-1.19c0-1.95.29-2.75.77-3.43a3.71,3.71,0,0,1,3.21-1.56,4.58,4.58,0,0,1,1.24.14l.39-1.92A8.24,8.24,0,0,0,1013.24,525.57Zm24.87,8.14a2.16,2.16,0,0,0-2,1.33l-5.56,10.36c-1.26-2.76-4.52-9.91-4.77-10.51a1.64,1.64,0,0,0-1.79-1.18h-1l6.37,14-.6,1.14-4.5,8.44h1.07a1.88,1.88,0,0,0,1.85-1.24l11.93-22.3Zm-300.3,41.73H732.2a6,6,0,0,1-5.31-2.58L707.7,546.34l-8.2,10.85a6.05,6.05,0,0,1-5.31,2.59H689l14.16-19.12-12.94-17.54h5.47a6.05,6.05,0,0,1,5.31,2.59L707.7,535l6.9-9.27a6.05,6.05,0,0,1,5.31-2.59h5.47L712.3,540.66ZM817,523.12h7.41v36.66H817Zm-58.71,0h7.4v36.66h-7.4Zm106.65,52.32h-4L873.2,553l-14.08-29.9H863c2.44,0,4.38.65,5.32,2.59l9.12,19.62L888,525.71c1-1.87,2.87-2.59,5.32-2.59h4l-26.81,49.59C869.47,574.65,867.45,575.44,864.94,575.44Zm-83-52.32v3.6a16.53,16.53,0,0,1,11.5-4.39c8.77,0,14.81,6.62,14.81,16.1v21.35h-4a3.35,3.35,0,0,1-3.45-3.53V539.73c0-6.9-3.73-10.35-9.19-10.35a11.67,11.67,0,0,0-9.71,5.24v25.16h-7.4V523.12Zm56.2,6.62H830.3v-6.62h7.83V511.63l7.41-3.24v14.73h7.33l3,6.62H845.54v16.88c0,5,3.16,7,6.75,7a15.63,15.63,0,0,0,3.38-.36l1.51,6.46a18.55,18.55,0,0,1-5.39.72c-8.77,0-13.66-5.67-13.66-13.65Zm-111.17,0,4.67-6.62h3.88v-2.87c0-8.26,5-15.09,14.23-15.09a13,13,0,0,1,4.6.72l-1.51,6.54a8.7,8.7,0,0,0-2.52-.36c-3.66,0-7.4,2.08-7.4,8.33v2.73h9.49v6.62h-9.49v30h-7.4v-30Zm268.5,12.37h-13.4c.14,3.49,2.41,6.45,6.2,6.45a6.57,6.57,0,0,0,4.64-1.79,1.28,1.28,0,0,1,1.76,0l.52.46a8.52,8.52,0,0,1-6.92,3.29c-4.62,0-8.26-3.45-8.26-8.57,0-4.72,3.21-8.58,7.86-8.58,4.39,0,7.64,3.46,7.64,8A5.59,5.59,0,0,1,995.46,542.11Zm-2.09-1.87a5.55,5.55,0,0,0-5.51-4.94,5.85,5.85,0,0,0-5.69,4.94Zm-60.9-6.89a7.08,7.08,0,0,0-5.67,2.51v-2.15h-2.06V550.2h2.06V538.69a6.46,6.46,0,0,1,5.63-3.38,5,5,0,0,1,4.24,2.17,6.58,6.58,0,0,1,.92,4v7.64a1.09,1.09,0,0,0,1,1.09h1v-8.87c0-2.8-.56-4.12-1.4-5.22A7.07,7.07,0,0,0,932.47,533.35Zm37.38,0a7.08,7.08,0,0,0-5.67,2.51V525.58l-2.06.84V550.2h2.06V538.69a6.46,6.46,0,0,1,5.63-3.38,5,5,0,0,1,4.24,2.17,6.57,6.57,0,0,1,.93,4v7.64a1.08,1.08,0,0,0,1,1.09h1v-8.87c0-2.8-.56-4.12-1.4-5.22A7.06,7.06,0,0,0,969.85,533.35Zm50.36-7.77-2.06.84V550.2h2.06Z"/><rect x="130.51" y="251.74" width="306.81" height="184.11"/><rect x="645.35" y="251.74" width="431.71" height="184.11"/><path class="cls-1" d="M203.07,327.38l13.08-17.54h-5.46a6,6,0,0,0-5.32,2.59l-6.9,9.27-6.69-9.27a6,6,0,0,0-5.31-2.59H181l12.94,17.54-14.16,19.11H185a6.06,6.06,0,0,0,5.32-2.59l8.19-10.85,19.19,26.52a6,6,0,0,0,5.31,2.59h5.61Zm104.71,19.11h7.4V309.84h-7.4Zm-58.72,0h7.4V309.84h-7.4Zm112.26,12.94,26.8-49.59h-4c-2.45,0-4.32.72-5.32,2.59l-10.57,19.62-9.12-19.62c-.94-1.94-2.88-2.59-5.32-2.59h-3.88L364,339.74l-12.28,22.42h4C358.23,362.16,360.24,361.37,361.32,359.43ZM271.6,375.3h-5.51v9a4.07,4.07,0,0,0,.72,2.75,3.39,3.39,0,0,0,2.75,1.16,6.57,6.57,0,0,0,1.77-.22l.36,1.88a8,8,0,0,1-2.13.29,5.54,5.54,0,0,1-4.41-1.88A6.1,6.1,0,0,1,264,384.2v-8.9h-3.84v-1.95H264v-5.89l2.06-.74v6.63h5.51Zm-36.89,6.26a8.47,8.47,0,1,1-8.46-8.57A8.43,8.43,0,0,1,234.71,381.56Zm-2.07,0a6.39,6.39,0,1,0-6.39,6.61A6.36,6.36,0,0,0,232.64,381.56Zm93.05-16.35a6,6,0,0,0-4.7,2c-.87,1.05-1.38,2.49-1.38,5v1.07h-2.89l-1.38,2h4.27v14.54h2.07V375.3h5.6v-2h-5.6v-1.18a5.47,5.47,0,0,1,.76-3.44,3.74,3.74,0,0,1,3.22-1.56,4.56,4.56,0,0,1,1.23.15l.39-1.92A7.45,7.45,0,0,0,325.69,365.21Zm24.88,8.14a2.15,2.15,0,0,0-2,1.33L343,385c-1.25-2.75-4.52-9.91-4.77-10.5a1.63,1.63,0,0,0-1.79-1.18h-1l6.37,13.95-.6,1.14-4.5,8.45h1.07a1.89,1.89,0,0,0,1.85-1.24c.56-1.06,11.93-22.3,11.93-22.3Zm-42.66,8.39h-13.4c.14,3.5,2.41,6.45,6.2,6.45a6.52,6.52,0,0,0,4.64-1.79,1.31,1.31,0,0,1,1.76,0l.52.46a8.53,8.53,0,0,1-6.92,3.3c-4.62,0-8.25-3.46-8.25-8.58,0-4.72,3.2-8.57,7.85-8.57,4.4,0,7.64,3.46,7.64,8A5.51,5.51,0,0,1,307.91,381.74Zm-2.09-1.87a5.56,5.56,0,0,0-5.51-4.94,5.85,5.85,0,0,0-5.69,4.94ZM244.92,373a7,7,0,0,0-5.66,2.51v-2.15h-2.07v16.49h2.07V378.33a6.44,6.44,0,0,1,5.62-3.39,5.05,5.05,0,0,1,4.24,2.18,6.55,6.55,0,0,1,.93,4v7.63a1.09,1.09,0,0,0,1,1.1h1V381c0-2.8-.56-4.11-1.4-5.22A7.05,7.05,0,0,0,244.92,373Zm37.38,0a7,7,0,0,0-5.66,2.51V365.21l-2.07.84v23.79h2.07V378.33a6.44,6.44,0,0,1,5.62-3.39,5,5,0,0,1,4.24,2.18,6.55,6.55,0,0,1,.93,4v7.63a1.09,1.09,0,0,0,1,1.1h1V381c0-2.8-.56-4.11-1.4-5.22A7.05,7.05,0,0,0,282.3,373Zm50.36-7.78-2.06.84v23.79h2.06ZM265.3,309.84v36.65h7.41V321.34a11.62,11.62,0,0,1,9.7-5.25c5.46,0,9.2,3.45,9.2,10.35V343a3.34,3.34,0,0,0,3.45,3.52H299V325.15c0-9.49-6-16.1-14.81-16.1a16.48,16.48,0,0,0-11.49,4.38v-3.59Zm63.6,23.64c0,8,4.89,13.66,13.66,13.66a18.9,18.9,0,0,0,5.39-.72L346.44,340a15,15,0,0,1-3.38.36c-3.59,0-6.75-1.94-6.75-7V316.45h10.34l-3-6.61h-7.33V295.11l-7.41,3.23v11.5h-7.83v6.61h7.83Zm-102.62-17v30h7.4v-30h9.49v-6.61h-9.49v-2.73c0-6.25,3.74-8.34,7.4-8.34a9.05,9.05,0,0,1,2.52.36l1.51-6.54a12.93,12.93,0,0,0-4.6-.72c-9.2,0-14.23,6.83-14.23,15.1v2.87H222.4l-4.67,6.61Z"/><path class="cls-3" d="M959.15,105.7h-5.51v9a4.07,4.07,0,0,0,.72,2.75,3.39,3.39,0,0,0,2.75,1.16,6.57,6.57,0,0,0,1.77-.22l.36,1.88a8,8,0,0,1-2.13.29,5.54,5.54,0,0,1-4.41-1.88,6.07,6.07,0,0,1-1.12-4.05v-8.9h-3.84v-2h3.84V97.86l2.06-.75v6.64h5.51ZM922.26,112a8.47,8.47,0,1,1-8.47-8.57A8.44,8.44,0,0,1,922.26,112Zm-2.08,0a6.39,6.39,0,1,0-6.39,6.61A6.35,6.35,0,0,0,920.18,112Zm93.06-16.35a6,6,0,0,0-4.7,2c-.87,1-1.38,2.49-1.38,5v1.08h-2.89l-1.38,2h4.27v14.54h2.06V105.7h5.61v-2h-5.61v-1.19c0-2,.29-2.74.77-3.43a3.73,3.73,0,0,1,3.21-1.56,4.58,4.58,0,0,1,1.24.15l.39-1.92A7.52,7.52,0,0,0,1013.24,95.61Zm24.87,8.13a2.16,2.16,0,0,0-2,1.34l-5.56,10.35c-1.26-2.75-4.52-9.91-4.77-10.5a1.64,1.64,0,0,0-1.79-1.19h-1l6.37,14-.6,1.14-4.5,8.44h1.07a1.89,1.89,0,0,0,1.85-1.23c.56-1.06,11.93-22.31,11.93-22.31Zm-300.3,41.73H732.2a6,6,0,0,1-5.31-2.58L707.7,116.37l-8.2,10.85a6,6,0,0,1-5.31,2.59H689l14.16-19.12L690.23,93.16h5.47A6,6,0,0,1,701,95.74L707.7,105l6.9-9.27a6,6,0,0,1,5.31-2.58h5.47L712.3,110.69ZM817,93.16h7.41v36.65H817Zm-58.71,0h7.4v36.65h-7.4Zm106.65,52.31h-4l12.29-22.42L859.12,93.16H863c2.44,0,4.38.64,5.32,2.58l9.12,19.62L888,95.74c1-1.86,2.87-2.58,5.32-2.58h4l-26.81,49.58C869.47,144.68,867.45,145.47,864.94,145.47Zm-83-52.31v3.59a16.53,16.53,0,0,1,11.5-4.38c8.77,0,14.81,6.61,14.81,16.09v21.35h-4a3.34,3.34,0,0,1-3.45-3.52V109.76c0-6.9-3.73-10.35-9.19-10.35a11.65,11.65,0,0,0-9.71,5.25v25.15h-7.4V93.16Zm56.2,6.61H830.3V93.16h7.83V81.66l7.41-3.24V93.16h7.33l3,6.61H845.54v16.89c0,5,3.16,7,6.75,7a15.63,15.63,0,0,0,3.38-.36l1.51,6.47a18.9,18.9,0,0,1-5.39.72c-8.77,0-13.66-5.68-13.66-13.66ZM727,99.77l4.67-6.61h3.88V90.28c0-8.26,5-15.09,14.23-15.09a13,13,0,0,1,4.6.72l-1.51,6.54a8.7,8.7,0,0,0-2.52-.36c-3.66,0-7.4,2.08-7.4,8.34v2.73h9.49v6.61h-9.49v30h-7.4v-30Zm268.5,12.37h-13.4c.14,3.5,2.41,6.45,6.2,6.45a6.57,6.57,0,0,0,4.64-1.79,1.31,1.31,0,0,1,1.76,0l.52.46a8.53,8.53,0,0,1-6.92,3.3c-4.62,0-8.26-3.46-8.26-8.58,0-4.72,3.21-8.57,7.86-8.57,4.39,0,7.64,3.46,7.64,8A5.51,5.51,0,0,1,995.46,112.14Zm-2.09-1.87a5.56,5.56,0,0,0-5.51-4.94,5.85,5.85,0,0,0-5.69,4.94Zm-60.9-6.88a7.05,7.05,0,0,0-5.67,2.51v-2.16h-2.06v16.5h2.06V108.72a6.46,6.46,0,0,1,5.63-3.38,5,5,0,0,1,4.24,2.17,6.61,6.61,0,0,1,.92,4v7.63a1.1,1.1,0,0,0,1,1.1h1v-8.88c0-2.8-.56-4.11-1.4-5.22A7.07,7.07,0,0,0,932.47,103.39Zm37.38,0a7.05,7.05,0,0,0-5.67,2.51V95.61l-2.06.84v23.79h2.06V108.72a6.46,6.46,0,0,1,5.63-3.38,5,5,0,0,1,4.24,2.17,6.61,6.61,0,0,1,.93,4v7.63a1.09,1.09,0,0,0,1,1.1h1v-8.88c0-2.8-.56-4.11-1.4-5.22A7.05,7.05,0,0,0,969.85,103.39Zm50.36-7.78-2.06.84v23.79h2.06Z"/><path class="cls-1" d="M959.15,336.14h-5.51v9a4.09,4.09,0,0,0,.72,2.75,3.39,3.39,0,0,0,2.75,1.15,6.53,6.53,0,0,0,1.77-.21l.36,1.88a8,8,0,0,1-2.13.29,5.54,5.54,0,0,1-4.41-1.88,6.07,6.07,0,0,1-1.12-4v-8.9h-3.84v-2h3.84V328.3l2.06-.75v6.63h5.51Zm-36.89,6.26a8.47,8.47,0,1,1-8.47-8.57A8.44,8.44,0,0,1,922.26,342.4Zm-2.08,0a6.39,6.39,0,1,0-6.39,6.61A6.35,6.35,0,0,0,920.18,342.4ZM1013.24,326a6,6,0,0,0-4.7,2c-.87,1.05-1.38,2.5-1.38,5v1.08h-2.89l-1.38,2h4.27v14.53h2.06V336.14h5.61v-2h-5.61V333c0-1.95.29-2.74.77-3.43a3.73,3.73,0,0,1,3.21-1.56,4.58,4.58,0,0,1,1.24.15l.39-1.92A7.52,7.52,0,0,0,1013.24,326Zm24.87,8.14a2.16,2.16,0,0,0-2,1.33l-5.56,10.36c-1.26-2.75-4.52-9.91-4.77-10.5a1.64,1.64,0,0,0-1.79-1.19h-1l6.37,14-.6,1.14-4.5,8.44h1.07a1.88,1.88,0,0,0,1.85-1.24l11.93-22.3Zm-300.3,41.73H732.2a6,6,0,0,1-5.31-2.58L707.7,346.81l-8.2,10.85a6.05,6.05,0,0,1-5.31,2.59H689l14.16-19.12L690.23,323.6h5.47a6,6,0,0,1,5.31,2.58l6.69,9.27,6.9-9.27a6,6,0,0,1,5.31-2.58h5.47L712.3,341.13ZM817,323.6h7.41v36.65H817Zm-58.71,0h7.4v36.65h-7.4Zm106.65,52.31h-4l12.29-22.42L859.12,323.6H863c2.44,0,4.38.64,5.32,2.58l9.12,19.62L888,326.18c1-1.87,2.87-2.58,5.32-2.58h4l-26.81,49.58C869.47,375.12,867.45,375.91,864.94,375.91Zm-83-52.31v3.59a16.53,16.53,0,0,1,11.5-4.39c8.77,0,14.81,6.62,14.81,16.1v21.35h-4a3.34,3.34,0,0,1-3.45-3.52V340.2c0-6.9-3.73-10.35-9.19-10.35a11.67,11.67,0,0,0-9.71,5.24v25.16h-7.4V323.6Zm56.2,6.61H830.3V323.6h7.83V312.1l7.41-3.24V323.6h7.33l3,6.61H845.54V347.1c0,5,3.16,7,6.75,7a15.63,15.63,0,0,0,3.38-.36l1.51,6.46a18.55,18.55,0,0,1-5.39.72c-8.77,0-13.66-5.67-13.66-13.65Zm-111.17,0,4.67-6.61h3.88v-2.88c0-8.26,5-15.09,14.23-15.09a13,13,0,0,1,4.6.72l-1.51,6.54a8.7,8.7,0,0,0-2.52-.36c-3.66,0-7.4,2.08-7.4,8.33v2.74h9.49v6.61h-9.49v30h-7.4v-30Zm268.5,12.37h-13.4c.14,3.5,2.41,6.45,6.2,6.45a6.57,6.57,0,0,0,4.64-1.79,1.31,1.31,0,0,1,1.76,0l.52.46a8.53,8.53,0,0,1-6.92,3.3c-4.62,0-8.26-3.46-8.26-8.58,0-4.72,3.21-8.57,7.86-8.57,4.39,0,7.64,3.45,7.64,8A5.59,5.59,0,0,1,995.46,342.58Zm-2.09-1.87a5.56,5.56,0,0,0-5.51-4.94,5.85,5.85,0,0,0-5.69,4.94Zm-60.9-6.88a7.08,7.08,0,0,0-5.67,2.5v-2.15h-2.06v16.49h2.06V339.16a6.46,6.46,0,0,1,5.63-3.38,5,5,0,0,1,4.24,2.17,6.58,6.58,0,0,1,.92,4v7.64a1.09,1.09,0,0,0,1,1.09h1V341.8c0-2.8-.56-4.11-1.4-5.22A7.07,7.07,0,0,0,932.47,333.83Zm37.38,0a7.08,7.08,0,0,0-5.67,2.5V326.05l-2.06.84v23.78h2.06V339.16a6.46,6.46,0,0,1,5.63-3.38,5,5,0,0,1,4.24,2.17,6.57,6.57,0,0,1,.93,4v7.64a1.08,1.08,0,0,0,1,1.09h1V341.8c0-2.8-.56-4.11-1.4-5.22A7.05,7.05,0,0,0,969.85,333.83Zm50.36-7.78-2.06.84v23.78h2.06Z"/></g></svg>