<svg xmlns="http://www.w3.org/2000/svg" viewBox="0 0 1210 482"><defs><style>.cls-1{fill:#fff;}</style></defs><title>BrandHub-VectorGraphics</title><g id="Vector"><rect class="cls-1" width="1210" height="482"/><rect x="600" y="46" width="564" height="390.43"/><path d="M88.76,129.92l13.06-17.51H96.37A6,6,0,0,0,91.06,115l-6.9,9.26L77.49,115a6.08,6.08,0,0,0-5.32-2.58H66.72l12.92,17.51L65.5,149h5.17A6,6,0,0,0,76,146.44l8.18-10.84,19.17,26.49a6,6,0,0,0,5.31,2.58h5.6ZM193.36,149h7.4V112.41h-7.4Zm-58.65,0h7.39V112.41h-7.39Zm112.14,12.92,26.78-49.53h-4c-2.44,0-4.31.71-5.31,2.58l-10.56,19.6L244.62,115c-.93-1.94-2.87-2.58-5.31-2.58h-3.88l14.08,29.86-12.28,22.4h4C243.76,164.67,245.77,163.88,246.85,161.94Zm-95.92-49.53V149h7.4V123.89a11.63,11.63,0,0,1,9.69-5.24c5.46,0,9.19,3.45,9.19,10.34V145.5a3.33,3.33,0,0,0,3.44,3.52h3.95V127.7c0-9.48-6-16.08-14.79-16.08A16.48,16.48,0,0,0,158.33,116v-3.59ZM214.47,136c0,8,4.88,13.64,13.64,13.64a18.9,18.9,0,0,0,5.39-.72L232,142.49a15.56,15.56,0,0,1-3.38.36c-3.59,0-6.75-1.94-6.75-7V119H232.2l-3-6.6h-7.33V97.69l-7.39,3.23v11.49h-7.83V119h7.83ZM112,119v30h7.39V119h9.48v-6.6h-9.48v-2.73c0-6.25,3.74-8.33,7.4-8.33a8.68,8.68,0,0,1,2.51.36l1.51-6.53a12.93,12.93,0,0,0-4.6-.72c-9.19,0-14.21,6.82-14.21,15.07v2.88h-3.88L103.4,119Z"/><path d="M226.35,199.24a1.63,1.63,0,0,0-.84.23c-1.12.84-2.31.36-3.35-.15a9,9,0,0,1-3.91-3.66c-.5-.88-1-1.31-1.57-1.31h0c-.56,0-1.09.44-1.61,1.35-.23.41-.42.84-.61,1.26a9.78,9.78,0,0,1-.71,1.41,16.07,16.07,0,0,1-2.17,2.83,2.72,2.72,0,0,1-1.72.79h0c-1.2-.21-1.27-1.61-1.25-2.3a4.86,4.86,0,0,1,.13-.81,4.44,4.44,0,0,0,.14-1.16,1.63,1.63,0,0,0-.94-1.3,1.6,1.6,0,0,0-1.57.52c-.8,1.24-1.59,2.62-2.42,4.21-1.06,2-3.53,6.71-5.72,6.72h-.05a.57.57,0,0,1-.38-.27c-1-1.38-.55-6.29-.38-7.25a8.67,8.67,0,0,1,.39-1.3,8.64,8.64,0,0,0,.39-1.25,1.73,1.73,0,0,0-.33-1.18.51.51,0,0,0-.38-.23c-.22,0-1.3,0-1.65.52-.73,1.14-1.4,2.33-2.05,3.48-.31.54-.61,1.08-.92,1.61-.09.15-.19.28-.31.45,0-.23-.07-.48-.1-.73-.17-1.28-.38-2.88-1.84-3.54-.68-.3-1.45.34-1.79.89-1.13,1.84-2.42,4.13-3.09,5.33a6.43,6.43,0,0,1-1.85,2.22c-.89.62-3.88,2.12-4.38,2.4a1.1,1.1,0,0,1-1,.09.91.91,0,0,1-.43-.79c-.13-1.5-.25-3-.35-4.51,0-.1,0-.2,0-.3,0-.55,0-1.48-1-1.6a2.61,2.61,0,0,0-1.95.77c-1.06,1.15-2.05,2.4-3,3.6l-.58.72c-.49.61-1,1.23-1.45,1.84-.78,1-1.59,2.06-2.43,3-.13.15-.29.34-.47.57-1.29,1.57-4,4.84-6.21,5.38a1.45,1.45,0,0,1-1.08-.09,6.23,6.23,0,0,1-2.69-3.47,46.73,46.73,0,0,1-1.4-8.1,117.27,117.27,0,0,1-.11-12.09c.09-2.56.38-5.16.65-7.67.1-1,.21-2,.31-3a6.45,6.45,0,0,1,1.76-4.06,29.35,29.35,0,0,1,2.56-2.17c.45-.35.89-.7,1.33-1.07a33.18,33.18,0,0,0,7.77-8.67c4-6.71,3.8-16.58,1.39-17.63-1.84-.8-4.86,2.44-5.93,3.9a42.74,42.74,0,0,0-3.57,5.62,70.65,70.65,0,0,0-3.92,8.71c-.74,2.09-1.28,4.28-1.81,6.4-.28,1.12-.55,2.25-.86,3.36a3,3,0,0,1-.58,1.3c-.74.56-10,6.27-11.69,7.38-.35.24-.55.25-.61.21s-.12-.17-.11-.51c.06-1.81.24-3.65.41-5.43.06-.63.58-4.38.55-5.64,0-.27.18-.39.62-.6s1.07-.52.83-1.29a3.56,3.56,0,0,0-1.53-1.83,1.32,1.32,0,0,0-1.05-.11,1.68,1.68,0,0,0-.95,2.07,4.56,4.56,0,0,1,0,1.33c-.06.42-.47,2.6-.47,2.6-.22,1.47-.44,3-.58,4.48-.18,2-.3,3.82-.35,5.58,0,.73-.21,1-.77,1.11a3.15,3.15,0,0,0-.65.26s-18.74,8.68-29.91,4.9a2.39,2.39,0,0,0-1.3,0,.72.72,0,0,0-.47.33,2.27,2.27,0,0,0,.06,1.72,1.76,1.76,0,0,0,1.13.89l1.13.28a23.27,23.27,0,0,0,4,.8A36.57,36.57,0,0,0,125.69,196c2.75-.77,5.47-1.75,8.1-2.71l.18-.06c1-.37,2-.81,3-1.23.65-.29,1.31-.58,2-.84a.54.54,0,0,1,.21-.05l0,.55c0,.8-1.1,17.94-1.15,19.23-.07,1.92-.13,4.2,0,6.46.15,3.64.64,11.24.64,11.24a1.78,1.78,0,0,0,.62,1.37,3.2,3.2,0,0,0,1.17.17c1.32-.33,1-1.6.9-2.08a28.8,28.8,0,0,1-.79-3.52c-.21-3.63-.28-6.42-.22-9.05s.23-5.57.38-8.29c.07-1.13.68-11.52.71-13.95a5.63,5.63,0,0,1,3.31-5.45c1.56-.8,7.58-4.51,8.59-5.16l.89-.58a3.73,3.73,0,0,1-.06.52c-.08.5-.19,1-.3,1.52a29.42,29.42,0,0,0-.52,3.12c-.13,1.4-.18,2.82-.22,4.19,0,.75-.05,1.51-.09,2.26,0,.59-.08,1.18-.13,1.77a27.84,27.84,0,0,0-.15,3.3c0,.86.05,1.71.06,2.57a64.58,64.58,0,0,0,.79,10.24c.49,2.68,1.09,5.24,3,7.3s3.38,2.89,6.13,1.25a17.54,17.54,0,0,0,4.48-4.1c1.71-2.06,3.4-4.18,5-6.23l1.62-2,1.12-1.44.36-.48c.15,0,.25.65.14,1.16,0,.14-.06.28-.08.41a4.4,4.4,0,0,0,1.05,3.94c1,1,3,.78,4.33-.36,1-.8,1.9-1.65,2.81-2.47l.82-.74-.05.32c-.07.6-.14,1.21-.23,1.81a2.09,2.09,0,0,0,.48,1.72,1.71,1.71,0,0,0,1.4.49,5.3,5.3,0,0,0,2.26-.83,10.27,10.27,0,0,0,1.94-1.75c1-1.09,2-2.23,3-3.49.49-.6.94-1.24,1.39-1.85l.13-.18c0,.1,0,.2,0,.3s0,.26,0,.38l.07.67a22.54,22.54,0,0,0,.42,2.8,3.39,3.39,0,0,0,1.51,2.11,2.56,2.56,0,0,0,2,.31,4.85,4.85,0,0,0,2.27-1.27c1.26-1.44,2.45-3,3.6-4.48l.67-.88c.38-.49.72-1,1.1-1.58l.12-.18v.06a3.14,3.14,0,0,0,1.09,2.25,2.94,2.94,0,0,0,2.32.51c2.6-.37,6.18-6,6.6-6.54.09-.12.18-.25.28-.37A5.09,5.09,0,0,0,219.5,201a23.63,23.63,0,0,0,2.2,1l.8.32a3.29,3.29,0,0,0,2.91-.07,3.51,3.51,0,0,0,1.69-2.59l.08-.5-.5.09Zm-68.68-22.79c.09-.41.18-.83.26-1.25.25-1.23.59-2.48.91-3.69,1.78-6.62,10.15-22.11,11.34-19.58,1.67,3.57-.89,13.59-6.66,19.32-1.29,1.28-2.69,2.5-4.07,3.67l-1.77,1.53Zm33.93,27.31c-.28.41-.55.82-.81,1.24a11.11,11.11,0,0,1-2.68,3.24l-.16.14a2,2,0,0,1-1.26.67c-.43-1.67,2.74-6.91,3.44-7.27,0,0,.13,0,.15,0A4.43,4.43,0,0,1,191.6,203.76Z"/><path d="M315.7,153.88a4,4,0,0,0-1.25,1.56,15.33,15.33,0,0,0-.52,1.53c-.21.74-3.41,9.95-8.51,10.92l-.12,0a3.1,3.1,0,0,1-2.81-.43c-1.05-1-1.44-2.17-1-3a18.45,18.45,0,0,1,1.91-2.77,1.38,1.38,0,0,0,.3-1.24,1,1,0,0,0-.62-.65,2.22,2.22,0,0,0-1.93.45c-.56.52-1.08,1.1-1.59,1.66s-1,1.09-1.51,1.58a11.33,11.33,0,0,1-3.69,2.46c-1.19-1.85-1.75-1.84-2.3-1.62a1.64,1.64,0,0,0-1.12,1.34,1.23,1.23,0,0,0,.69,1.16c.75.3-.55.8-1.61.76a1.33,1.33,0,0,1-.79-1.05A.87.87,0,0,0,289,166a1.71,1.71,0,0,0-2.61.27c-.21.22-.41.45-.61.67s-.47.55-.73.81a9.25,9.25,0,0,0-2.68,4.16,4.06,4.06,0,0,0,.41,2.76,2,2,0,0,0,1.2,1,10.63,10.63,0,0,0,2.64.34,6.85,6.85,0,0,0,.79,0,7.41,7.41,0,0,0,6.71-5.9,4,4,0,0,1,.49-1.53c1.42-1,4-2.85,4.23-3a4.66,4.66,0,0,0,4.28,5.1c2.75.43,5.63-1.15,8.05-3.63,1.91-1.95,5.55-8.86,6.13-10.41.14-.36.27-.72.41-1.07a1.57,1.57,0,0,0-.44-1.5A1.49,1.49,0,0,0,315.7,153.88Zm-29.44,19.58a1.61,1.61,0,0,1-1.26-.4,1.49,1.49,0,0,1,0-1.27,6.51,6.51,0,0,1,1.76-2.37c.17-.16,1.24-1.31,1.39-1.47.15.13.74,1.61,1.25,1.9a1.82,1.82,0,0,0,2-.25,1,1,0,0,1,.05.36,14.88,14.88,0,0,1-1.36,2.16,4.71,4.71,0,0,1-3.88,1.34Z"/><path d="M242.71,192c-1.15-.73-3.65-.8-5.46-.14-1.19.43-5.8,2.61-6.6,3-.38.18-.5.14-.51.13s-.09-.1-.12-.32a2.59,2.59,0,0,1,.07-1.21,9.48,9.48,0,0,1,1.31-2,15.29,15.29,0,0,1,1.13-1.15,10.93,10.93,0,0,0,1.75-2c1.13-1.8,2.83-2.71,4.64-3.67l.68-.37.27-.12c.38-.15,1.09-.44.79-1.35a1.54,1.54,0,0,0-2-1.06,5.35,5.35,0,0,0-2.1,1.06c-1.71,1.6-3.38,3.3-5,4.94l-.79.79c-.39.4-.77.83-1.17,1.29l-.07.08-.09-.49c-.15-.73-.27-1.41-.42-2.08-.2-.9-.39-1.8-.59-2.7-.56-2.6-1.14-5.3-1.8-7.92-.08-.32-.21-.77-.38-1.33a54.84,54.84,0,0,1-1.83-7.79,1.69,1.69,0,0,0-1.31-.92.9.9,0,0,0-.65.31,1.3,1.3,0,0,0-.45.85,27.53,27.53,0,0,0,.45,4c.18.87.45,1.72.71,2.55.14.47.29.93.43,1.4l.36,1.32c.44,1.55.89,3.15,1.26,4.74.55,2.34,1.11,4.85,1.52,7.38.15,1,.21,2,.26,3.06,0,.79.09,1.62.19,2.43.14,1.22.37,2.44.6,3.63l.2,1.08a2.37,2.37,0,0,0,.35.79,1.37,1.37,0,0,0,1.15.7h0a1.33,1.33,0,0,0,1.13-.77,2.17,2.17,0,0,0,.21-.67A2.66,2.66,0,0,1,231,199c.06-.12.11-.26.16-.39a2.73,2.73,0,0,1,.59-1,9.65,9.65,0,0,1,2.64-1.73c.47-.17.94-.37,1.41-.56a12.54,12.54,0,0,1,5.23-1.33,2.87,2.87,0,0,1,.39,0c.62.09,1.54.21,2-.78l0-.09V193A1.37,1.37,0,0,0,242.71,192Z"/><path d="M278.22,166.64a1.82,1.82,0,0,0-.74.74c-.77,1.89-1.48,3.84-2.08,5.52-1.16,3.22-3.5,5.43-7.35,6.95-.51.2-.66.17-.71.15s-.14-.14-.21-.68a9.06,9.06,0,0,1-.07-.91,9.78,9.78,0,0,0-.15-1.42,1.2,1.2,0,0,0-2.36-.13,6.9,6.9,0,0,0,.24,5,2,2,0,0,0,1.65,1,9.72,9.72,0,0,0,3.19-.69,16.48,16.48,0,0,0,5.78-4.1c0,.5-.08.94-.13,1.37l-.45,3.55q-.4,3.08-.77,6.15c-.14,1.27-.25,2.54-.36,3.81-.09,1-.18,2-.28,3-.06.61-.15,1.21-.23,1.82-.12.87-.25,1.77-.3,2.67a1,1,0,0,0,.47,1c.12.08,1.53.39,1.9-.38a2.19,2.19,0,0,0,.28-.8l.2-1.63c.18-1.4.36-2.85.49-4.28.12-1.24.2-2.48.29-3.72s.15-2.2.25-3.29l.15-1.78c.16-2,.33-4.05.65-6,.38-2.38.88-4.79,1.37-7.11.21-1,.43-2.07.63-3.11,0-.15.07-.3.1-.45a3.77,3.77,0,0,0,.18-1.29,1.17,1.17,0,0,0-.56-.87A1.65,1.65,0,0,0,278.22,166.64Z"/><path d="M244,184.19c1.42-1.57,3.37-3.75,4.88-5.3a4.9,4.9,0,0,1,1.89-1.06,1.41,1.41,0,0,1,1.92.88c.31.83-.33,1.13-.67,1.28l-.24.12-.62.37c-1.62,1-5.64,5.22-6,7C245.06,187.94,244,184.19,244,184.19Z"/><path d="M248.33,185.51c-.59,0-2-.14-2.15-.15,2.61-3.43-1.09-2.47-2.14-1.17-.41.5-.86,1.06-1.26,1.66a1.19,1.19,0,0,0-.21,1.11,1.12,1.12,0,0,0,.87.63,15.18,15.18,0,0,0,2.15.11c.63,0,4.39.41,4.95.44s1.4.2,1.52,1a1.78,1.78,0,0,1-.73,1.33,11.16,11.16,0,0,1-2.36,1l-.45.16a1.39,1.39,0,0,0-1.16,1.6c.18,1,1,1,1.52.94H249a1.55,1.55,0,0,0,.56-.11l0,0c.93-.39,1.85-.8,2.78-1.21a2.64,2.64,0,0,0,.33-.2,4.22,4.22,0,0,0,2.26-3,2.81,2.81,0,0,0-.77-2.56C252.42,185.33,250.15,185.43,248.33,185.51Z"/><path class="cls-1" d="M677.09,129.92l13.07-17.51H684.7a6,6,0,0,0-5.31,2.58l-6.89,9.26L665.82,115a6,6,0,0,0-5.31-2.58h-5.46L668,129.92,653.83,149H659a6,6,0,0,0,5.31-2.58l8.19-10.84,19.17,26.49a6,6,0,0,0,5.31,2.58h5.6ZM781.7,149h7.39V112.41H781.7ZM723,149h7.39V112.41H723Zm112.14,12.92L862,112.41h-4c-2.44,0-4.31.71-5.31,2.58l-10.55,19.6L833,115c-.94-1.94-2.87-2.58-5.32-2.58h-3.87l14.07,29.86-12.28,22.4h4C832.1,164.67,834.11,163.88,835.18,161.94Zm-95.91-49.53V149h7.39V123.89a11.65,11.65,0,0,1,9.69-5.24c5.46,0,9.19,3.45,9.19,10.34V145.5A3.34,3.34,0,0,0,769,149h4V127.7c0-9.48-6-16.08-14.79-16.08A16.48,16.48,0,0,0,746.66,116v-3.59ZM802.8,136c0,8,4.89,13.64,13.64,13.64a18.84,18.84,0,0,0,5.39-.72l-1.51-6.46a15.46,15.46,0,0,1-3.37.36c-3.59,0-6.75-1.94-6.75-7V119h10.34l-3-6.6H810.2V97.69l-7.4,3.23v11.49H795V119h7.82ZM700.28,119v30h7.4V119h9.47v-6.6h-9.47v-2.73c0-6.25,3.73-8.33,7.39-8.33a8.63,8.63,0,0,1,2.51.36l1.51-6.53a12.86,12.86,0,0,0-4.59-.72c-9.19,0-14.22,6.82-14.22,15.07v2.88H696.4l-4.66,6.6Z"/><path class="cls-1" d="M814.69,199.24a1.67,1.67,0,0,0-.85.23c-1.11.84-2.31.36-3.35-.15a9,9,0,0,1-3.91-3.66c-.5-.88-1-1.31-1.57-1.31h0c-.57,0-1.09.44-1.61,1.35a13.24,13.24,0,0,0-.61,1.26,11,11,0,0,1-.72,1.41,16,16,0,0,1-2.16,2.83,2.77,2.77,0,0,1-1.73.79h0c-1.21-.21-1.28-1.61-1.25-2.3a4.81,4.81,0,0,1,.12-.81,4.44,4.44,0,0,0,.14-1.16,1.38,1.38,0,0,0-2.51-.78c-.79,1.24-1.59,2.62-2.42,4.21-1.06,2-3.53,6.71-5.71,6.72h-.06a.59.59,0,0,1-.38-.27c-1-1.38-.55-6.29-.38-7.25a8.67,8.67,0,0,1,.39-1.3,8.64,8.64,0,0,0,.39-1.25,1.68,1.68,0,0,0-.33-1.18.51.51,0,0,0-.38-.23c-.22,0-1.3,0-1.65.52-.72,1.14-1.4,2.33-2,3.48-.3.54-.61,1.08-.92,1.61a3.33,3.33,0,0,1-.31.45c0-.23-.07-.48-.1-.73-.17-1.28-.38-2.88-1.83-3.54-.69-.3-1.46.34-1.8.89-1.13,1.84-2.42,4.13-3.09,5.33a6.43,6.43,0,0,1-1.85,2.22c-.89.62-3.88,2.12-4.38,2.4a1.08,1.08,0,0,1-1,.09.92.92,0,0,1-.44-.79c-.12-1.5-.24-3-.35-4.51,0-.1,0-.2,0-.3,0-.55,0-1.48-1-1.6a2.58,2.58,0,0,0-2,.77c-1.06,1.15-2,2.4-3,3.6l-.58.72c-.49.61-1,1.23-1.44,1.84-.79,1-1.6,2.06-2.44,3-.13.15-.29.34-.47.57-1.29,1.57-4,4.84-6.21,5.38a1.46,1.46,0,0,1-1.08-.09,6.23,6.23,0,0,1-2.69-3.47,46.73,46.73,0,0,1-1.4-8.1,120.16,120.16,0,0,1-.11-12.09c.1-2.56.38-5.16.65-7.67.11-1,.22-2,.31-3a6.41,6.41,0,0,1,1.77-4.06,27.81,27.81,0,0,1,2.55-2.17c.45-.35.9-.7,1.33-1.07a33,33,0,0,0,7.77-8.67c3.95-6.71,3.8-16.58,1.39-17.63-1.84-.8-4.86,2.44-5.92,3.9a42.72,42.72,0,0,0-3.58,5.62,70.65,70.65,0,0,0-3.92,8.71c-.73,2.09-1.28,4.28-1.8,6.4-.28,1.12-.56,2.25-.87,3.36a3,3,0,0,1-.58,1.3c-.74.56-10,6.27-11.68,7.38-.35.24-.55.25-.61.21s-.13-.17-.12-.51c.07-1.81.24-3.65.42-5.43.06-.63.57-4.38.54-5.64,0-.27.19-.39.62-.6s1.08-.52.83-1.29a3.56,3.56,0,0,0-1.53-1.83,1.32,1.32,0,0,0-1-.11,1.69,1.69,0,0,0-1,2.07,4.55,4.55,0,0,1,0,1.33c-.06.42-.48,2.6-.48,2.6-.21,1.47-.44,3-.57,4.48-.19,2-.31,3.82-.36,5.58,0,.73-.2,1-.76,1.11a2.94,2.94,0,0,0-.65.26s-18.74,8.68-29.91,4.9a2.43,2.43,0,0,0-1.31,0,.7.7,0,0,0-.46.33,2.27,2.27,0,0,0,.05,1.72,1.76,1.76,0,0,0,1.14.89l1.13.28a23.08,23.08,0,0,0,4,.8A36.59,36.59,0,0,0,714,196c2.74-.77,5.46-1.75,8.09-2.71l.19-.06c1-.37,2-.81,3-1.23.66-.29,1.31-.58,2-.84a.58.58,0,0,1,.21-.05l0,.55c0,.8-1.1,17.94-1.14,19.23-.08,1.92-.14,4.2-.05,6.46.15,3.64.64,11.24.64,11.24a1.75,1.75,0,0,0,.63,1.37,3.14,3.14,0,0,0,1.17.17c1.31-.33,1-1.6.89-2.08a33.11,33.11,0,0,1-.79-3.52c-.2-3.63-.27-6.42-.21-9.05s.22-5.57.38-8.29c.06-1.13.67-11.52.71-13.95a5.62,5.62,0,0,1,3.3-5.45c1.57-.8,7.58-4.51,8.59-5.16l.89-.58a3.83,3.83,0,0,1,0,.52c-.09.5-.2,1-.3,1.52a27.07,27.07,0,0,0-.52,3.12c-.14,1.4-.18,2.82-.22,4.19,0,.75,0,1.51-.09,2.26,0,.59-.08,1.18-.14,1.77a27.84,27.84,0,0,0-.15,3.3c0,.86.05,1.71.07,2.57a65.76,65.76,0,0,0,.78,10.24c.49,2.68,1.09,5.24,3,7.3s3.39,2.89,6.13,1.25a17.54,17.54,0,0,0,4.48-4.1c1.71-2.06,3.4-4.18,5-6.23l1.63-2,1.11-1.44.37-.48c.15,0,.24.65.14,1.16a3.28,3.28,0,0,0-.08.41,4.42,4.42,0,0,0,1,3.94c1,1,3,.78,4.33-.36,1-.8,1.9-1.65,2.81-2.47l.82-.74,0,.32c-.08.6-.15,1.21-.23,1.81a2.09,2.09,0,0,0,.47,1.72,1.73,1.73,0,0,0,1.4.49,5.25,5.25,0,0,0,2.26-.83,10,10,0,0,0,1.94-1.75c1-1.09,2-2.23,3-3.49.49-.6,1-1.24,1.39-1.85L783,204c0,.1,0,.2,0,.3l0,.38.07.67a24.58,24.58,0,0,0,.42,2.8,3.41,3.41,0,0,0,1.52,2.11,2.54,2.54,0,0,0,2,.31,4.8,4.8,0,0,0,2.27-1.27c1.27-1.44,2.45-3,3.6-4.48l.68-.88c.38-.49.71-1,1.1-1.58l.12-.18v.06a3.13,3.13,0,0,0,1.08,2.25,3,3,0,0,0,2.32.51c2.61-.37,6.18-6,6.6-6.54l.28-.37a5.09,5.09,0,0,0,2.68,2.89,23.63,23.63,0,0,0,2.2,1l.8.32a3.31,3.31,0,0,0,2.92-.07,3.53,3.53,0,0,0,1.68-2.59l.09-.5-.51.09A3.16,3.16,0,0,1,814.69,199.24ZM746,176.45c.09-.41.18-.83.26-1.25.26-1.23.59-2.48.92-3.69,1.77-6.62,10.14-22.11,11.33-19.58,1.68,3.57-.89,13.59-6.65,19.32-1.29,1.28-2.7,2.5-4.08,3.67L746,176.45Zm33.94,27.31c-.29.41-.55.82-.82,1.24a11.24,11.24,0,0,1-2.67,3.24l-.17.14a2,2,0,0,1-1.25.67c-.44-1.67,2.74-6.91,3.43-7.27,0,0,.13,0,.16,0A4.52,4.52,0,0,1,779.94,203.76Z"/><path class="cls-1" d="M904,153.88a4,4,0,0,0-1.26,1.56,15.24,15.24,0,0,0-.51,1.53c-.22.74-3.42,9.95-8.52,10.92l-.12,0a3.1,3.1,0,0,1-2.81-.43c-1.05-1-1.43-2.17-1-3a20.06,20.06,0,0,1,1.91-2.77,1.42,1.42,0,0,0,.31-1.24,1,1,0,0,0-.63-.65,2.2,2.2,0,0,0-1.92.45,22.53,22.53,0,0,0-1.59,1.66c-.49.54-1,1.09-1.52,1.58a11.3,11.3,0,0,1-3.68,2.46c-1.2-1.85-1.76-1.84-2.31-1.62a1.64,1.64,0,0,0-1.12,1.34,1.24,1.24,0,0,0,.7,1.16c.74.3-.56.8-1.61.76a1.32,1.32,0,0,1-.8-1.05.86.86,0,0,0-.23-.51,1.71,1.71,0,0,0-2.61.27c-.21.22-.41.45-.61.67s-.48.55-.74.81a9.25,9.25,0,0,0-2.68,4.16,4,4,0,0,0,.42,2.76,2,2,0,0,0,1.19,1A10.77,10.77,0,0,0,875,176a6.79,6.79,0,0,0,.78,0,7.41,7.41,0,0,0,6.71-5.9,3.9,3.9,0,0,1,.5-1.53c1.42-1,4-2.85,4.22-3a4.66,4.66,0,0,0,4.29,5.1c2.75.43,5.62-1.15,8-3.63,1.91-1.95,5.55-8.86,6.14-10.41.13-.36.26-.72.4-1.07a1.56,1.56,0,0,0-.43-1.5A1.5,1.5,0,0,0,904,153.88Zm-29.45,19.58a1.62,1.62,0,0,1-1.26-.4,1.57,1.57,0,0,1,0-1.27,6.54,6.54,0,0,1,1.77-2.37c.16-.16,1.23-1.31,1.38-1.47.15.13.74,1.61,1.25,1.9a1.84,1.84,0,0,0,2-.25,1.11,1.11,0,0,1,0,.36,14.06,14.06,0,0,1-1.36,2.16,4.71,4.71,0,0,1-3.88,1.34Z"/><path class="cls-1" d="M831,192c-1.14-.73-3.64-.8-5.46-.14-1.19.43-5.8,2.61-6.59,3-.38.18-.5.14-.52.13s-.09-.1-.11-.32a2.47,2.47,0,0,1,.06-1.21,9.48,9.48,0,0,1,1.31-2c.35-.4.75-.78,1.13-1.15a10.93,10.93,0,0,0,1.75-2c1.13-1.8,2.83-2.71,4.64-3.67l.69-.37.26-.12c.38-.15,1.09-.44.8-1.35a1.54,1.54,0,0,0-2-1.06,5.29,5.29,0,0,0-2.1,1.06c-1.71,1.6-3.39,3.3-5,4.94l-.78.79c-.4.4-.77.83-1.17,1.29a.6.6,0,0,0-.08.08l-.09-.49c-.14-.73-.27-1.41-.42-2.08-.2-.9-.39-1.8-.58-2.7-.56-2.6-1.14-5.3-1.81-7.92-.08-.32-.21-.77-.37-1.33a53.49,53.49,0,0,1-1.83-7.79,1.7,1.7,0,0,0-1.31-.92.87.87,0,0,0-.65.31,1.3,1.3,0,0,0-.45.85,25,25,0,0,0,.45,4,24,24,0,0,0,.7,2.55c.15.47.3.93.43,1.4l.37,1.32c.44,1.55.89,3.15,1.26,4.74.55,2.34,1.11,4.85,1.51,7.38.16,1,.21,2,.27,3.06,0,.79.09,1.62.18,2.43.14,1.22.38,2.44.6,3.63l.21,1.08a2,2,0,0,0,.35.79,1.36,1.36,0,0,0,1.14.7h0a1.33,1.33,0,0,0,1.12-.77,2.5,2.5,0,0,0,.22-.67,2.67,2.67,0,0,1,.12-.45c.06-.12.11-.26.17-.39a2.72,2.72,0,0,1,.58-1,9.7,9.7,0,0,1,2.65-1.73c.47-.17.93-.37,1.4-.56a12.58,12.58,0,0,1,5.23-1.33,3,3,0,0,1,.4,0,1.63,1.63,0,0,0,2-.78l0-.09V193A1.34,1.34,0,0,0,831,192Z"/><path class="cls-1" d="M866.56,166.64a1.84,1.84,0,0,0-.75.74c-.77,1.89-1.48,3.84-2.08,5.52-1.16,3.22-3.49,5.43-7.35,6.95-.5.2-.66.17-.71.15s-.14-.14-.21-.68a9.06,9.06,0,0,1-.07-.91,8.56,8.56,0,0,0-.15-1.42,1.49,1.49,0,0,0-1.11-1.07,1.54,1.54,0,0,0-1.25.94,6.9,6.9,0,0,0,.24,5,2,2,0,0,0,1.66,1,9.66,9.66,0,0,0,3.18-.69,16.43,16.43,0,0,0,5.79-4.1c0,.5-.08.94-.14,1.37l-.45,3.55c-.27,2.05-.53,4.1-.76,6.15-.15,1.27-.26,2.54-.37,3.81-.09,1-.17,2-.28,3-.06.61-.14,1.21-.23,1.82-.12.87-.24,1.77-.3,2.67a1,1,0,0,0,.48,1c.11.08,1.52.39,1.9-.38a2.37,2.37,0,0,0,.27-.8l.21-1.63c.17-1.4.35-2.85.48-4.28.12-1.24.21-2.48.29-3.72s.16-2.2.25-3.29c.06-.6.1-1.19.15-1.78.17-2,.33-4.05.65-6,.39-2.38.88-4.79,1.37-7.11.21-1,.43-2.07.63-3.11,0-.15.07-.3.11-.45a4,4,0,0,0,.17-1.29,1.17,1.17,0,0,0-.56-.87A1.62,1.62,0,0,0,866.56,166.64Z"/><path class="cls-1" d="M832.37,184.19c1.42-1.57,3.38-3.75,4.88-5.3a5,5,0,0,1,1.89-1.06,1.41,1.41,0,0,1,1.92.88c.31.83-.33,1.13-.67,1.28l-.24.12-.62.37c-1.62,1-5.64,5.22-6,7C833.4,187.94,832.37,184.19,832.37,184.19Z"/><path class="cls-1" d="M836.66,185.51c-.59,0-2-.14-2.15-.15,2.61-3.43-1.08-2.47-2.14-1.17-.4.5-.86,1.06-1.26,1.66a1.19,1.19,0,0,0-.21,1.11,1.14,1.14,0,0,0,.87.63,15.24,15.24,0,0,0,2.16.11c.62,0,4.38.41,4.94.44s1.41.2,1.53,1a1.84,1.84,0,0,1-.73,1.33,11.63,11.63,0,0,1-2.36,1l-.46.16a1.4,1.4,0,0,0-1.16,1.6c.18,1,1,1,1.53.94h.11a1.59,1.59,0,0,0,.56-.11l0,0c.93-.39,1.86-.8,2.78-1.21a1.71,1.71,0,0,0,.33-.2,4.23,4.23,0,0,0,2.27-3,2.81,2.81,0,0,0-.78-2.56C840.75,185.33,838.48,185.43,836.66,185.51Z"/><path d="M87.26,350.54,100.33,333H94.87a6,6,0,0,0-5.31,2.58l-6.89,9.27L76,335.6A6,6,0,0,0,70.68,333H65.22l12.92,17.52L64,369.64h5.17a6.05,6.05,0,0,0,5.31-2.59l8.19-10.84,19.17,26.49a6,6,0,0,0,5.31,2.59h5.6Zm104.61,19.1h7.39V333h-7.39Zm-58.66,0h7.39V333h-7.39Zm112.14,12.92L272.13,333h-4c-2.44,0-4.31.72-5.31,2.58l-10.55,19.6-9.12-19.6c-.94-1.93-2.87-2.58-5.32-2.58h-3.87L248,362.89l-12.28,22.4h4C242.27,385.29,244.28,384.5,245.35,382.56ZM149.44,333v36.62h7.39V344.51a11.65,11.65,0,0,1,9.69-5.24c5.46,0,9.19,3.44,9.19,10.33v16.52a3.34,3.34,0,0,0,3.45,3.52h4V348.31c0-9.47-6-16.08-14.79-16.08a16.48,16.48,0,0,0-11.49,4.38V333ZM213,356.64c0,8,4.89,13.64,13.64,13.64a18.84,18.84,0,0,0,5.39-.72l-1.51-6.46a14.87,14.87,0,0,1-3.37.36c-3.59,0-6.75-1.94-6.75-7V339.62h10.34l-3-6.6h-7.32V318.3l-7.4,3.23V333h-7.82v6.6H213Zm-102.52-17v30h7.4v-30h9.47V333h-9.47v-2.73c0-6.24,3.73-8.33,7.39-8.33a9,9,0,0,1,2.51.36l1.51-6.53a12.86,12.86,0,0,0-4.59-.72c-9.19,0-14.22,6.82-14.22,15.08V333h-3.88l-4.66,6.6Z"/><path d="M379.73,363.36a1.64,1.64,0,0,0-.93,0c-1.39.48-2.44-.38-3.33-1.23a9.52,9.52,0,0,1-2.77-4.93c-.22-1.05-.6-1.65-1.16-1.83h0c-.57-.18-1.24.1-2.05.85a14.58,14.58,0,0,0-1,1.07,11.19,11.19,0,0,1-1.18,1.2,17.11,17.11,0,0,1-3.08,2.16,2.94,2.94,0,0,1-2,.24h0c-1.15-.6-.77-2-.52-2.71a5.59,5.59,0,0,1,.38-.78,4.85,4.85,0,0,0,.52-1.13,1.74,1.74,0,0,0-.54-1.61,1.7,1.7,0,0,0-1.74,0c-1.2,1-2.44,2.14-3.79,3.47-1.71,1.69-5.7,5.64-7.9,4.94h-.06a.68.68,0,0,1-.3-.4c-.56-1.7,1.46-6.51,1.94-7.42A8.64,8.64,0,0,1,351,354a10.53,10.53,0,0,0,.8-1.14,1.86,1.86,0,0,0,0-1.29.54.54,0,0,0-.32-.35c-.21-.08-1.29-.44-1.82,0-1.1.91-2.16,1.9-3.18,2.85l-1.45,1.33a2.93,2.93,0,0,1-.45.34c0-.24.08-.5.13-.76.25-1.35.55-3-.71-4.15-.59-.52-1.58-.13-2.1.32-1.72,1.49-3.75,3.39-4.81,4.38a6.86,6.86,0,0,1-2.58,1.65c-1.09.33-4.58.89-5.18,1a1.16,1.16,0,0,1-1.06-.23,1,1,0,0,1-.18-.93c.35-1.56.71-3.12,1.09-4.67,0-.1.05-.2.08-.3.17-.56.44-1.5-.51-1.93a2.69,2.69,0,0,0-2.21.15c-1.44.82-2.83,1.75-4.18,2.66l-.81.54c-.69.46-1.37.93-2.05,1.4-1.11.76-2.26,1.56-3.42,2.28l-.66.43c-1.81,1.17-5.55,3.61-8,3.44a1.56,1.56,0,0,1-1.05-.44,6.57,6.57,0,0,1-1.61-4.36,49.29,49.29,0,0,1,1.18-8.6,126.18,126.18,0,0,1,3.76-12.22c.91-2.55,2-5.08,3.11-7.53.43-1,.86-1.95,1.28-2.94a6.77,6.77,0,0,1,3.07-3.52,31.32,31.32,0,0,1,3.27-1.37c.56-.21,1.13-.42,1.68-.65a34.88,34.88,0,0,0,10.6-6.25c6.12-5.5,9.13-15.49,7-17.32-1.59-1.4-5.67.91-7.22,2a45.46,45.46,0,0,0-5.39,4.51,75.53,75.53,0,0,0-6.74,7.53c-1.41,1.87-2.66,3.9-3.86,5.87-.65,1-1.29,2.08-1.95,3.11-.26.4-.68,1-1,1.12-.93.33-12.06,3.12-14.14,3.7-.42.12-.63.07-.68,0s-.07-.2.05-.54c.65-1.81,1.41-3.61,2.15-5.34.27-.62,2-4.24,2.36-5.52.08-.26.31-.32.82-.4s1.25-.18,1.24-1a3.75,3.75,0,0,0-.95-2.33,1.4,1.4,0,0,0-1-.44,1.78,1.78,0,0,0-1.62,1.78,4.94,4.94,0,0,1-.42,1.34c-.2.4-1.32,2.47-1.32,2.47-.68,1.41-1.39,2.86-2,4.33-.82,1.95-1.52,3.75-2.14,5.51-.26.73-.52.93-1.12.87a2.92,2.92,0,0,0-.74.06s-21.66,2.75-31.7-4.64a2.63,2.63,0,0,0-1.3-.47.82.82,0,0,0-.58.19,2.42,2.42,0,0,0-.49,1.75,1.89,1.89,0,0,0,.86,1.26l1.05.65a25.64,25.64,0,0,0,3.74,2.07,38.46,38.46,0,0,0,13.66,2.63c3,.1,6.07,0,9-.14h.21c1.14,0,2.28-.17,3.39-.28.75-.08,1.5-.16,2.26-.22a.53.53,0,0,1,.22,0l-.15.56c-.22.82-6.85,17.72-7.31,19-.69,1.92-1.47,4.2-2.11,6.5-1,3.72-2.95,11.52-2.95,11.52a1.9,1.9,0,0,0,.19,1.59,3.36,3.36,0,0,0,1.13.54c1.43.09,1.53-1.29,1.56-1.81a32.47,32.47,0,0,1,.34-3.8c.95-3.72,1.77-6.55,2.67-9.18s2-5.54,3-8.23c.42-1.11,4.36-11.39,5.17-13.83a5.93,5.93,0,0,1,5.08-4.43c1.83-.31,9.07-2.12,10.3-2.46l1.08-.29c-.08.19-.14.35-.22.5-.25.48-.52,1-.79,1.44a28.76,28.76,0,0,0-1.52,3c-.58,1.36-1.08,2.78-1.56,4.15l-.81,2.24c-.22.59-.46,1.16-.7,1.74a30.63,30.63,0,0,0-1.22,3.28q-.36,1.31-.75,2.61a67.72,67.72,0,0,0-2.48,10.57c-.36,2.85-.58,5.63.68,8.31,1.34,2.85,2.49,4,5.78,3.23a18.67,18.67,0,0,0,5.82-2.71c2.38-1.52,4.76-3.12,7.07-4.66l2.29-1.53c.53-.35,1.06-.72,1.59-1.09l.52-.36c.13.08,0,.73-.24,1.2-.07.14-.15.27-.21.4a4.64,4.64,0,0,0-.2,4.3c.67,1.27,2.73,1.73,4.48,1,1.22-.5,2.44-1.05,3.61-1.59l1.06-.48-.14.31-.81,1.75a2.19,2.19,0,0,0-.07,1.88,1.79,1.79,0,0,0,1.25.94,5.54,5.54,0,0,0,2.54-.11,11.17,11.17,0,0,0,2.52-1.14c1.35-.78,2.71-1.61,4.17-2.56.68-.44,1.34-.93,2-1.41l.19-.14c0,.1-.05.21-.07.31a2.74,2.74,0,0,0-.09.39l-.14.7a22.26,22.26,0,0,0-.47,3,3.55,3.55,0,0,0,.84,2.61,2.7,2.7,0,0,0,1.9.94,5.08,5.08,0,0,0,2.7-.55c1.73-1.05,3.42-2.22,5.06-3.36l1-.67c.54-.38,1-.78,1.61-1.24l.18-.15v.07a3.3,3.3,0,0,0,.37,2.61,3.12,3.12,0,0,0,2.18,1.26c2.75.45,8.13-4,8.74-4.48l.4-.29a5.41,5.41,0,0,0,1.77,3.78c.61.6,1.27,1.14,1.91,1.67.24.19.48.38.71.58a3.51,3.51,0,0,0,3,.86,3.72,3.72,0,0,0,2.52-2.07l.25-.48-.54-.07Zm-61.91-44.93c.22-.39.45-.78.66-1.18.65-1.16,1.39-2.31,2.1-3.43,3.91-6.09,17.29-19,17.68-16.09.55,4.13-5.24,13.4-12.88,17.33-1.71.88-3.52,1.66-5.28,2.4l-2.27,1Zm25.45,38.37c-.41.31-.82.65-1.22,1a11.59,11.59,0,0,1-3.73,2.41l-.21.1a2.28,2.28,0,0,1-1.48.27c.1-1.83,5-6.09,5.79-6.23,0,0,.12.07.14.09A4.71,4.71,0,0,1,343.27,356.8Z"/><path d="M484.25,346.23a4.12,4.12,0,0,0-1.76,1.18,13.54,13.54,0,0,0-1,1.38c-.46.67-6.63,8.93-12.07,8.26h-.13a3.24,3.24,0,0,1-2.69-1.33c-.75-1.32-.76-2.64,0-3.37a19.19,19.19,0,0,1,2.81-2.18,1.46,1.46,0,0,0,.7-1.16,1,1,0,0,0-.42-.85,2.36,2.36,0,0,0-2.08-.16c-.74.35-1.45.76-2.14,1.16s-1.34.79-2,1.12a12.09,12.09,0,0,1-4.5,1.29c-.61-2.25-1.18-2.41-1.8-2.37a1.75,1.75,0,0,0-1.56,1,1.31,1.31,0,0,0,.33,1.39c.66.54-.81.63-1.86.25a1.4,1.4,0,0,1-.47-1.3.9.9,0,0,0-.07-.59,1.82,1.82,0,0,0-2.72-.57c-.28.15-.55.32-.83.49s-.65.39-1,.57a9.8,9.8,0,0,0-4,3.34,4.26,4.26,0,0,0-.46,2.91,2.08,2.08,0,0,0,.89,1.36,11.18,11.18,0,0,0,2.56,1.2c.26.08.53.15.8.21a7.83,7.83,0,0,0,8.65-3.8c.45-.77.78-1.32,1-1.38,1.76-.58,4.92-1.6,5.22-1.68a4.93,4.93,0,0,0,2.69,6.51c2.63,1.31,6,.63,9.26-1.09,2.55-1.36,8.43-7.15,9.51-8.53l.76-1a1.66,1.66,0,0,0,0-1.64A1.59,1.59,0,0,0,484.25,346.23Zm-35.93,10.31c-.45-.14-1-.4-1.14-.81a1.63,1.63,0,0,1,.45-1.26,7,7,0,0,1,2.53-1.83c.22-.11,1.66-.92,1.87-1,.11.18.23,1.86.65,2.31a2,2,0,0,0,2.12.4,1,1,0,0,1-.07.38,15.66,15.66,0,0,1-2.06,1.73,4.93,4.93,0,0,1-4.34.11Z"/><path d="M398.52,361.27c-.91-1.1-3.41-2-5.45-1.89-1.34.05-6.68.78-7.6.91-.44.06-.55,0-.56,0s-.06-.13,0-.36a2.58,2.58,0,0,1,.46-1.19,9.59,9.59,0,0,1,2-1.62c.47-.29,1-.55,1.5-.8a11,11,0,0,0,2.4-1.43c1.7-1.44,3.71-1.81,5.84-2.21l.81-.15.3,0c.44,0,1.24-.1,1.24-1.12a1.63,1.63,0,0,0-1.72-1.71,5.58,5.58,0,0,0-2.45.39c-2.24,1.08-4.47,2.25-6.63,3.38l-1,.54c-.53.28-1,.59-1.59.93l-.1.06.06-.52c.09-.79.18-1.51.25-2.23l.27-2.91c.27-2.8.55-5.7.72-8.56,0-.35,0-.84,0-1.45a58.29,58.29,0,0,1,.65-8.44,1.81,1.81,0,0,0-1-1.35,1,1,0,0,0-.76.1c-.14.08-.62.34-.72.72a27,27,0,0,0-.82,4.15,26.32,26.32,0,0,0-.11,2.8c0,.51,0,1,0,1.55l-.05,1.44c-.05,1.7-.11,3.46-.25,5.18-.19,2.53-.43,5.24-.83,7.92a30.72,30.72,0,0,1-.71,3.16c-.21.82-.43,1.67-.59,2.51-.25,1.28-.4,2.59-.56,3.85l-.14,1.16a2.45,2.45,0,0,0,.1.91,1.46,1.46,0,0,0,.93,1.07h0a1.43,1.43,0,0,0,1.38-.41,2.71,2.71,0,0,0,.43-.61,2.24,2.24,0,0,1,.27-.41c.1-.11.19-.23.29-.35a3,3,0,0,1,.92-.86,10.07,10.07,0,0,1,3.22-.89l1.59-.12a13.48,13.48,0,0,1,5.7.33l.38.17a1.73,1.73,0,0,0,2.26-.15l.07-.08,0-.09A1.4,1.4,0,0,0,398.52,361.27Z"/><path d="M442.41,347.1a1.89,1.89,0,0,0-1,.51c-1.38,1.66-2.72,3.39-3.86,4.89-2.2,2.88-5.26,4.36-9.63,4.66-.57,0-.72,0-.76-.08s-.1-.19,0-.75c.06-.32.14-.63.23-.94a10.21,10.21,0,0,0,.3-1.48,1.26,1.26,0,0,0-2.33-.89,7.29,7.29,0,0,0-1.36,5.11,2.12,2.12,0,0,0,1.35,1.53,10.16,10.16,0,0,0,3.43.33,17.52,17.52,0,0,0,7.14-2.28c-.21.49-.39.92-.58,1.34l-1.59,3.42c-.92,2-1.84,4-2.74,6-.55,1.23-1.07,2.47-1.58,3.72-.41,1-.82,2-1.25,3-.26.59-.54,1.18-.82,1.76-.39.84-.81,1.71-1.16,2.6a1.11,1.11,0,0,0,.16,1.17c.1.11,1.41.87,2,.23a2.71,2.71,0,0,0,.53-.73l.73-1.58c.62-1.35,1.27-2.75,1.86-4.15.51-1.21,1-2.43,1.48-3.66.43-1.08.86-2.16,1.31-3.23l.72-1.74c.8-2,1.62-4,2.58-5.88,1.15-2.28,2.42-4.54,3.65-6.73.55-1,1.1-1.95,1.63-2.93l.25-.42a3.94,3.94,0,0,0,.59-1.24,1.22,1.22,0,0,0-.28-1.06A1.74,1.74,0,0,0,442.41,347.1Z"/><path d="M402.35,353.85c1.94-1.13,4.61-2.7,6.62-3.78a5.34,5.34,0,0,1,2.24-.47,1.52,1.52,0,0,1,1.66,1.51c0,.94-.7,1-1.09,1.08l-.28,0-.74.18c-1.95.45-7.36,3.44-8.31,5.09C402.19,358,402.35,353.85,402.35,353.85Z"/><path d="M406.26,356.55a21.58,21.58,0,0,1-2.12-.84c3.72-2.62-.31-2.83-1.79-1.86-.56.37-1.2.79-1.79,1.27a1.24,1.24,0,0,0-.57,1.05,1.18,1.18,0,0,0,.67.91,15.53,15.53,0,0,0,2.14.81c.64.16,4.29,1.8,4.84,2s1.35.65,1.23,1.47a2,2,0,0,1-1.16,1.1,12.71,12.71,0,0,1-2.71.29h-.51a1.48,1.48,0,0,0-1.68,1.24c-.14,1.05.72,1.29,1.23,1.43l.12,0a1.5,1.5,0,0,0,.6.06h0l3.19-.33a1.72,1.72,0,0,0,.39-.1,4.48,4.48,0,0,0,3.26-2.33,2.94,2.94,0,0,0,0-2.82C410.44,357.68,408.12,357.05,406.26,356.55Z"/><path class="cls-1" d="M677.18,350.54,690.25,333h-5.46a6,6,0,0,0-5.31,2.58l-6.89,9.27-6.68-9.27A6,6,0,0,0,660.6,333h-5.46l12.93,17.52-14.15,19.1h5.17a6.05,6.05,0,0,0,5.31-2.59l8.19-10.84,19.17,26.49a6,6,0,0,0,5.31,2.59h5.6Zm104.61,19.1h7.39V333h-7.39Zm-58.66,0h7.4V333h-7.4Zm112.15,12.92L862.06,333h-4c-2.44,0-4.3.72-5.31,2.58l-10.55,19.6-9.12-19.6c-.93-1.93-2.87-2.58-5.31-2.58h-3.88l14.07,29.87-12.27,22.4h4C832.19,385.29,834.2,384.5,835.28,382.56ZM739.36,333v36.62h7.39V344.51a11.65,11.65,0,0,1,9.7-5.24c5.45,0,9.18,3.44,9.18,10.33v16.52a3.34,3.34,0,0,0,3.45,3.52H773V348.31c0-9.47-6-16.08-14.79-16.08a16.5,16.5,0,0,0-11.49,4.38V333Zm63.54,23.62c0,8,4.88,13.64,13.64,13.64a18.77,18.77,0,0,0,5.38-.72l-1.51-6.46a14.87,14.87,0,0,1-3.37.36c-3.59,0-6.75-1.94-6.75-7V339.62h10.34l-3-6.6h-7.32V318.3l-7.39,3.23V333h-7.83v6.6h7.83Zm-102.53-17v30h7.4v-30h9.48V333h-9.48v-2.73c0-6.24,3.73-8.33,7.39-8.33a9.05,9.05,0,0,1,2.52.36l1.5-6.53a12.86,12.86,0,0,0-4.59-.72c-9.19,0-14.22,6.82-14.22,15.08V333H696.5l-4.67,6.6Z"/><path class="cls-1" d="M969.65,363.36a1.64,1.64,0,0,0-.93,0c-1.39.48-2.44-.38-3.33-1.23a9.51,9.51,0,0,1-2.76-4.93c-.23-1.05-.61-1.65-1.17-1.83h0c-.57-.18-1.24.1-2.05.85a14.58,14.58,0,0,0-1,1.07,11.12,11.12,0,0,1-1.17,1.2,17.56,17.56,0,0,1-3.09,2.16,2.94,2.94,0,0,1-2,.24h0c-1.15-.6-.77-2-.53-2.71a5.67,5.67,0,0,1,.39-.78,4.82,4.82,0,0,0,.51-1.13,1.74,1.74,0,0,0-.53-1.61,1.72,1.72,0,0,0-1.75,0c-1.2,1-2.44,2.14-3.79,3.47-1.71,1.69-5.7,5.64-7.9,4.94h-.06a.63.63,0,0,1-.29-.4c-.57-1.7,1.46-6.51,1.93-7.42a9.64,9.64,0,0,1,.81-1.19,10.53,10.53,0,0,0,.8-1.14,1.86,1.86,0,0,0,0-1.29.55.55,0,0,0-.31-.35c-.22-.08-1.3-.44-1.83,0-1.1.91-2.16,1.9-3.18,2.85L935,355.42a4.39,4.39,0,0,1-.45.34c0-.24.08-.5.13-.76.24-1.35.54-3-.72-4.15-.59-.52-1.58-.13-2.09.32-1.73,1.49-3.76,3.39-4.82,4.38a6.86,6.86,0,0,1-2.58,1.65c-1.09.33-4.58.89-5.17,1a1.14,1.14,0,0,1-1.06-.23,1,1,0,0,1-.19-.93c.35-1.56.71-3.12,1.09-4.67,0-.1.06-.2.09-.3.16-.56.43-1.5-.52-1.93a2.69,2.69,0,0,0-2.21.15c-1.43.82-2.83,1.75-4.18,2.66l-.81.54c-.69.46-1.37.93-2,1.4-1.11.76-2.26,1.56-3.42,2.28l-.66.43c-1.8,1.17-5.55,3.61-8,3.44a1.57,1.57,0,0,1-1.06-.44,6.55,6.55,0,0,1-1.6-4.36,48.36,48.36,0,0,1,1.18-8.6,123.26,123.26,0,0,1,3.75-12.22c.92-2.55,2-5.08,3.11-7.53.43-1,.86-1.95,1.28-2.94a6.77,6.77,0,0,1,3.07-3.52,33.24,33.24,0,0,1,3.27-1.37c.57-.21,1.13-.42,1.68-.65a34.88,34.88,0,0,0,10.6-6.25c6.13-5.5,9.14-15.49,7-17.32-1.59-1.4-5.67.91-7.21,2a45.49,45.49,0,0,0-5.4,4.51,76.8,76.8,0,0,0-6.74,7.53c-1.41,1.87-2.65,3.9-3.86,5.87-.64,1-1.28,2.08-2,3.11-.26.4-.68,1-1,1.12-.93.33-12.06,3.12-14.13,3.7-.43.12-.63.07-.68,0s-.08-.2,0-.54c.65-1.81,1.42-3.61,2.16-5.34.26-.62,2-4.24,2.35-5.52.08-.26.31-.32.82-.4s1.25-.18,1.25-1a3.82,3.82,0,0,0-1-2.33,1.38,1.38,0,0,0-1-.44,1.78,1.78,0,0,0-1.62,1.78,4.94,4.94,0,0,1-.42,1.34c-.19.4-1.31,2.47-1.31,2.47-.69,1.41-1.4,2.86-2,4.33-.83,1.95-1.53,3.75-2.15,5.51-.25.73-.52.93-1.12.87a2.92,2.92,0,0,0-.74.06s-21.66,2.75-31.7-4.64a2.63,2.63,0,0,0-1.3-.47.78.78,0,0,0-.57.19,2.43,2.43,0,0,0-.5,1.75,1.89,1.89,0,0,0,.86,1.26c.36.21.7.43,1.05.65a25.75,25.75,0,0,0,3.75,2.07,38.4,38.4,0,0,0,13.65,2.63c3,.1,6.07,0,9-.14h.2c1.14,0,2.29-.17,3.39-.28.76-.08,1.51-.16,2.26-.22a.53.53,0,0,1,.22,0l-.15.56c-.22.82-6.84,17.72-7.3,19-.69,1.92-1.48,4.2-2.11,6.5-1,3.72-3,11.52-3,11.52a1.94,1.94,0,0,0,.19,1.59,3.45,3.45,0,0,0,1.13.54c1.43.09,1.53-1.29,1.56-1.81a32.47,32.47,0,0,1,.34-3.8c1-3.72,1.77-6.55,2.67-9.18s2-5.54,3-8.23c.42-1.11,4.36-11.39,5.18-13.83a5.91,5.91,0,0,1,5.07-4.43c1.83-.31,9.07-2.12,10.3-2.46l1.08-.29a3.93,3.93,0,0,1-.22.5c-.25.48-.52,1-.79,1.44a33.33,33.33,0,0,0-1.52,3c-.58,1.36-1.08,2.78-1.56,4.15-.27.75-.53,1.5-.81,2.24-.22.59-.46,1.16-.7,1.74a28.57,28.57,0,0,0-1.21,3.28c-.25.87-.5,1.74-.76,2.61a68.87,68.87,0,0,0-2.48,10.57c-.36,2.85-.58,5.63.68,8.31,1.34,2.85,2.49,4,5.78,3.23a18.62,18.62,0,0,0,5.83-2.71c2.37-1.52,4.76-3.12,7.07-4.66l2.28-1.53c.53-.35,1.06-.72,1.59-1.09l.52-.36c.14.08,0,.73-.23,1.2-.08.14-.15.27-.21.4a4.64,4.64,0,0,0-.21,4.3c.68,1.27,2.73,1.73,4.48,1,1.22-.5,2.44-1.05,3.62-1.59l1.06-.48-.15.31c-.27.58-.53,1.16-.81,1.75a2.19,2.19,0,0,0-.07,1.88,1.81,1.81,0,0,0,1.25.94,5.58,5.58,0,0,0,2.55-.11,11.29,11.29,0,0,0,2.51-1.14c1.35-.78,2.72-1.61,4.17-2.56.68-.44,1.34-.93,2-1.41l.19-.14c0,.1,0,.21-.07.31l-.09.39-.14.7a22.26,22.26,0,0,0-.47,3,3.56,3.56,0,0,0,.85,2.61,2.68,2.68,0,0,0,1.89.94,5.06,5.06,0,0,0,2.7-.55c1.74-1.05,3.43-2.22,5.06-3.36l1-.67c.54-.38,1-.78,1.61-1.24l.18-.15v.07a3.3,3.3,0,0,0,.38,2.61,3.08,3.08,0,0,0,2.17,1.26c2.75.45,8.14-4,8.75-4.48l.4-.29a5.37,5.37,0,0,0,1.77,3.78,25.08,25.08,0,0,0,1.91,1.67l.7.58a3.51,3.51,0,0,0,3,.86,3.72,3.72,0,0,0,2.52-2.07l.25-.48-.53-.07Zm-61.91-44.93c.23-.39.45-.78.67-1.18.64-1.16,1.38-2.31,2.1-3.43,3.9-6.09,17.29-19,17.67-16.09.55,4.13-5.23,13.4-12.88,17.33-1.71.88-3.52,1.66-5.27,2.4-.77.32-1.53.64-2.28,1Zm25.45,38.37c-.41.31-.81.65-1.21,1a11.59,11.59,0,0,1-3.73,2.41l-.21.1a2.32,2.32,0,0,1-1.49.27c.1-1.83,5-6.09,5.79-6.23,0,0,.12.07.15.09A4.69,4.69,0,0,1,933.19,356.8Z"/><path class="cls-1" d="M1074.17,346.23a4.12,4.12,0,0,0-1.76,1.18,13.54,13.54,0,0,0-1,1.38c-.45.67-6.62,8.93-12.07,8.26h-.13a3.24,3.24,0,0,1-2.69-1.33c-.75-1.32-.75-2.64,0-3.37a19.74,19.74,0,0,1,2.81-2.18A1.5,1.5,0,0,0,1060,349a1.05,1.05,0,0,0-.43-.85,2.36,2.36,0,0,0-2.08-.16c-.74.35-1.45.76-2.13,1.16s-1.34.79-2,1.12a12.05,12.05,0,0,1-4.49,1.29c-.62-2.25-1.18-2.41-1.81-2.37a1.77,1.77,0,0,0-1.56,1,1.33,1.33,0,0,0,.33,1.39c.66.54-.81.63-1.86.25a1.36,1.36,0,0,1-.46-1.3,1,1,0,0,0-.08-.59,1.81,1.81,0,0,0-2.72-.57c-.28.15-.55.32-.82.49s-.66.39-1,.57a9.76,9.76,0,0,0-4,3.34,4.26,4.26,0,0,0-.46,2.91,2.08,2.08,0,0,0,.89,1.36,11.18,11.18,0,0,0,2.56,1.2c.27.08.53.15.8.21a7.83,7.83,0,0,0,8.65-3.8c.45-.77.78-1.32,1-1.38,1.76-.58,4.92-1.6,5.22-1.68a4.94,4.94,0,0,0,2.69,6.51c2.63,1.31,6,.63,9.26-1.09,2.55-1.36,8.43-7.15,9.52-8.53l.75-1a1.63,1.63,0,0,0,0-1.64A1.59,1.59,0,0,0,1074.17,346.23Zm-35.92,10.31c-.45-.14-1-.4-1.14-.81s.17-.9.44-1.26a6.91,6.91,0,0,1,2.54-1.83l1.86-1c.11.18.23,1.86.65,2.31a2,2,0,0,0,2.12.4,1,1,0,0,1-.07.38,15.5,15.5,0,0,1-2.05,1.73,5,5,0,0,1-4.35.11Z"/><path class="cls-1" d="M988.44,361.27c-.91-1.1-3.41-2-5.44-1.89-1.34.05-6.68.78-7.61.91-.44.06-.55,0-.56,0s-.06-.13,0-.36a2.57,2.57,0,0,1,.45-1.19,9.59,9.59,0,0,1,2-1.62c.47-.29,1-.55,1.5-.8a10.8,10.8,0,0,0,2.4-1.43c1.7-1.44,3.71-1.81,5.84-2.21l.81-.15a3,3,0,0,1,.31,0c.43,0,1.23-.1,1.23-1.12a1.63,1.63,0,0,0-1.71-1.71,5.62,5.62,0,0,0-2.46.39c-2.24,1.08-4.47,2.25-6.63,3.38l-1,.54c-.53.28-1,.59-1.6.93l-.1.06.06-.52c.09-.79.18-1.51.25-2.23l.27-2.91c.27-2.8.55-5.7.72-8.56,0-.35,0-.84,0-1.45a58.29,58.29,0,0,1,.65-8.44,1.76,1.76,0,0,0-1-1.35,1,1,0,0,0-.76.1c-.14.08-.62.34-.72.72a28.2,28.2,0,0,0-.82,4.15,26.3,26.3,0,0,0-.1,2.8c0,.51,0,1,0,1.55l0,1.44c-.06,1.7-.12,3.46-.25,5.18-.2,2.53-.43,5.24-.84,7.92a30.72,30.72,0,0,1-.71,3.16c-.21.82-.43,1.67-.59,2.51-.25,1.28-.4,2.59-.55,3.85l-.14,1.16a2.46,2.46,0,0,0,.09.91,1.47,1.47,0,0,0,.94,1.07h0a1.43,1.43,0,0,0,1.38-.41,2.71,2.71,0,0,0,.43-.61,2.24,2.24,0,0,1,.27-.41c.1-.11.19-.23.29-.35a3,3,0,0,1,.92-.86,10.07,10.07,0,0,1,3.22-.89l1.59-.12a13.48,13.48,0,0,1,5.7.33l.38.17a1.73,1.73,0,0,0,2.26-.15l.07-.08,0-.09A1.45,1.45,0,0,0,988.44,361.27Z"/><path class="cls-1" d="M1032.33,347.1a1.89,1.89,0,0,0-1,.51c-1.38,1.66-2.71,3.39-3.85,4.89-2.21,2.88-5.27,4.36-9.64,4.66-.56,0-.71,0-.76-.08s-.09-.19,0-.75c.06-.32.14-.63.23-.94a10.21,10.21,0,0,0,.3-1.48,1.55,1.55,0,0,0-.78-1.43,1.6,1.6,0,0,0-1.55.54,7.34,7.34,0,0,0-1.36,5.11,2.12,2.12,0,0,0,1.35,1.53,10.21,10.21,0,0,0,3.43.33,17.47,17.47,0,0,0,7.14-2.28c-.21.49-.38.92-.58,1.34-.52,1.14-1.06,2.28-1.59,3.42-.92,2-1.84,4-2.73,6-.56,1.23-1.07,2.47-1.59,3.72-.41,1-.82,2-1.25,3-.26.59-.54,1.18-.81,1.76-.4.84-.82,1.71-1.16,2.6a1.08,1.08,0,0,0,.15,1.17c.1.11,1.42.87,2,.23a2.75,2.75,0,0,0,.54-.73l.72-1.58c.63-1.35,1.27-2.75,1.86-4.15.52-1.21,1-2.43,1.49-3.66.42-1.08.85-2.16,1.3-3.23l.72-1.74c.8-2,1.62-4,2.58-5.88,1.15-2.28,2.42-4.54,3.66-6.73l1.63-2.93a4.64,4.64,0,0,1,.25-.42,3.92,3.92,0,0,0,.58-1.24,1.22,1.22,0,0,0-.28-1.06A1.74,1.74,0,0,0,1032.33,347.1Z"/><path class="cls-1" d="M992.28,353.85c1.94-1.13,4.6-2.7,6.61-3.78a5.35,5.35,0,0,1,2.25-.47,1.51,1.51,0,0,1,1.65,1.51c0,.94-.7,1-1.09,1.08l-.28,0-.74.18c-1.94.45-7.36,3.44-8.3,5.09C992.11,358,992.28,353.85,992.28,353.85Z"/><path class="cls-1" d="M996.18,356.55a21.58,21.58,0,0,1-2.12-.84c3.72-2.62-.3-2.83-1.78-1.86a20.65,20.65,0,0,0-1.8,1.27,1.27,1.27,0,0,0-.57,1.05,1.2,1.2,0,0,0,.67.91,16.58,16.58,0,0,0,2.14.81c.64.16,4.29,1.8,4.84,2s1.36.65,1.23,1.47a1.92,1.92,0,0,1-1.16,1.1,12.64,12.64,0,0,1-2.71.29h-.51a1.49,1.49,0,0,0-1.68,1.24c-.13,1.05.72,1.29,1.24,1.43l.11,0a1.5,1.5,0,0,0,.6.06h0c1.07-.1,2.13-.22,3.19-.33a1.94,1.94,0,0,0,.4-.1,4.46,4.46,0,0,0,3.25-2.33,3,3,0,0,0,0-2.82C1000.36,357.68,998,357.05,996.18,356.55Z"/></g></svg>