<svg xmlns="http://www.w3.org/2000/svg" viewBox="0 0 1072 197"><defs><style>.cls-1{fill:#fff;}</style></defs><title>BrandHub-VectorGraphics</title><g id="Vector"><rect class="cls-1" x="0.21" y="-0.51" width="1072" height="197"/><path d="M155.49,101.38H124V131H111.31V65.19H124V90.1h31.49V65.19h12.69V131H155.49Z"/><path d="M187.45,61.43A7.52,7.52,0,1,1,179.74,69,7.59,7.59,0,0,1,187.45,61.43ZM193.56,131H181.34V85.4h12.22Z"/><path d="M227.59,65.19h12.69V131H227.59Z"/><path d="M271.2,65.19,259,92.45h-8.46l7-27.26Z"/><path d="M276.09,131V85.4h11.28v4c3.2-3.19,8.27-5,13.07-5a19.57,19.57,0,0,1,15,7.15,22.62,22.62,0,0,1,16.17-7.15,20.5,20.5,0,0,1,16.07,7.15c2.92,3.57,4.52,8.45,4.52,15.22V131H340V106.17c0-4.13-.85-6.2-2.26-7.8a9.14,9.14,0,0,0-6.86-2.82c-5.26,0-9.4,3.67-11,6a39.48,39.48,0,0,1,.38,5.07V131H308.05V106.17c0-4.13-.85-6.2-2.26-7.8a9.14,9.14,0,0,0-6.86-2.82c-5.17,0-8.93,3.48-10.62,5.64V131Z"/><path d="M413.8,95.93,437.48,131H422.54l-16.17-24.35L390,131H375.45l23.69-34.78-20.87-31h14.85L406.56,85.5,420.1,65.19h14.56Z"/><path d="M467.85,75.72a9.3,9.3,0,0,0-5.08-1.6,5.42,5.42,0,0,0-4.32,2c-.75.94-1.22,2.16-1.22,5.45V85.4h13.63v9.87H457.23V131H445V95.27H434.2V85.4H445V81.64c0-7.14,2.07-11.75,5.64-14.66a16.35,16.35,0,0,1,10.62-3.67,17.56,17.56,0,0,1,11.47,3.86Zm18.23-14.29a7.52,7.52,0,1,1-7.7,7.52A7.59,7.59,0,0,1,486.08,61.43ZM492.19,131H480V85.4h12.21Z"/><path d="M504.6,131V85.4h11.28v4a21.33,21.33,0,0,1,13.63-5,20.22,20.22,0,0,1,15.61,7.05c3,3.57,4.6,8.46,4.6,16.26V131H537.5V106.64c0-4.51-1-6.86-2.72-8.55a9.63,9.63,0,0,0-6.87-2.54,14.57,14.57,0,0,0-11.09,5.64V131Z"/><path d="M567.49,61.43A7.52,7.52,0,1,1,559.78,69,7.59,7.59,0,0,1,567.49,61.43ZM573.6,131H561.38V85.4H573.6Z"/><path d="M604,115.2c0,2.44.38,4,1.22,4.79a5.91,5.91,0,0,0,4.23,1.41,12.34,12.34,0,0,0,5.64-1.5l4,8.64a19.13,19.13,0,0,1-11.37,3.39c-4.42,0-9.12-1.13-12.32-4.8-2.25-2.63-3.57-6.1-3.57-11.74V95.27H580.93V85.4h10.81V70.83H604V85.4h13.63v9.87H604Z"/><path d="M629.72,152.14l11.75-25.29L620.6,85.4h13.06l14.1,28.39L660.64,85.4h12.6l-30.93,66.74Z"/><path d="M721.27,65.19c7.42,0,11.56,1.79,14.76,4.61a17.55,17.55,0,0,1,6.11,13.25,17.21,17.21,0,0,1-4.23,11c5.82,2.91,9.86,9.49,9.86,16.82a19.88,19.88,0,0,1-6,14.2c-3.67,3.66-8.74,5.92-17.2,5.92H698.9V65.19Zm6.3,13.44c-1.32-1.5-3.2-2.35-7.24-2.35h-8.74V90.66h8.74c4,0,5.92-.84,7.24-2.34a7.26,7.26,0,0,0,1.88-4.89A7,7,0,0,0,727.57,78.63ZM723.9,119.9c4.51,0,7.05-1.13,8.74-3a9.19,9.19,0,0,0,2.45-6.39,9,9,0,0,0-2.45-6.3c-1.69-1.88-4.23-3-8.74-3H711.59V119.9Z"/><path d="M785.19,96.12a26.1,26.1,0,0,0-4.23-.29,14.35,14.35,0,0,0-12.22,6.49V131H756.52V85.4h11.75V90c2.72-3.39,7.71-5.27,13.25-5.27a15.82,15.82,0,0,1,3.67.38Z"/><path d="M812.36,84.46a23.74,23.74,0,1,1-24,23.78A23.55,23.55,0,0,1,812.36,84.46Zm0,36.38c7.14,0,11.74-5.74,11.74-12.6s-4.6-12.69-11.74-12.69-11.75,5.83-11.75,12.69S805.21,120.84,812.36,120.84Z"/><path d="M864.34,131h-8.46L838.68,85.4h12.69l9.68,26,10.53-26H880l10.71,26.23,9.87-26.23h12.31L895.73,131h-8.46l-11.56-27.64Z"/><path d="M919.52,131V85.4H930.8v4a21.28,21.28,0,0,1,13.63-5A20.21,20.21,0,0,1,960,91.51c3,3.57,4.6,8.46,4.6,16.26V131H952.41V106.64c0-4.51-1-6.86-2.72-8.55a9.6,9.6,0,0,0-6.86-2.54,14.55,14.55,0,0,0-11.09,5.64V131Z"/></g></svg>