<svg xmlns="http://www.w3.org/2000/svg" viewBox="0 0 1072 197"><defs><style>.cls-1{fill:#fff;}</style></defs><title>BrandHub-VectorGraphics</title><g id="Vector"><rect class="cls-1" x="0.21" y="-0.51" width="1072" height="197"/><path d="M97.79,63.93V91h28v-27h10.64v63.55H125.78V99.66h-28v27.82H87.16V63.93Z"/><path d="M162.3,61.25V70.7H151.45V61.25Zm-.44,19.42v46.81h-10V80.67Z"/><path d="M208.58,63.93v63.55H197.94V63.93Z"/><path d="M236,63.93l-9.36,24.21H219l5.23-24.21Z"/><path d="M253.71,80.67l.92,7.47A21,21,0,0,1,257.75,84a15.19,15.19,0,0,1,3.36-2.57,12.92,12.92,0,0,1,3.52-1.32,17.34,17.34,0,0,1,3.58-.37,23.11,23.11,0,0,1,4.11.35,13.68,13.68,0,0,1,3.8,1.25,12.41,12.41,0,0,1,3.32,2.44,13.81,13.81,0,0,1,2.61,3.87,17.83,17.83,0,0,1,6.11-6.11,15.61,15.61,0,0,1,7.6-1.8,16.25,16.25,0,0,1,6.22,1.1,13.49,13.49,0,0,1,4.77,3.29,15.62,15.62,0,0,1,1.69,2.33,14.87,14.87,0,0,1,1.32,2.92,21.31,21.31,0,0,1,.84,3.72,34.63,34.63,0,0,1,.28,4.7v29.71H300.77V96.41a11.83,11.83,0,0,0-.37-2.9,7.32,7.32,0,0,0-1.3-2.71,6.85,6.85,0,0,0-2.48-2,8.77,8.77,0,0,0-3.93-.77,10.1,10.1,0,0,0-3.87.72,9,9,0,0,0-3,2,9.49,9.49,0,0,0-2,3.06,10,10,0,0,0-.73,3.82v29.8H273V96.41a11.83,11.83,0,0,0-.37-2.9,7.32,7.32,0,0,0-1.3-2.71,6.85,6.85,0,0,0-2.48-2,8.91,8.91,0,0,0-4-.77,9.82,9.82,0,0,0-3.8.72,9.06,9.06,0,0,0-3,2,9.49,9.49,0,0,0-2,3.06,10,10,0,0,0-.73,3.82v29.8h-10V89.15l-.92-8.48Z"/><path d="M353,63.93l14.15,23.42L382,63.93h12l-20.7,30.59,21.14,33H381.15l-14.41-25.76-15.12,25.76H339.49l20.87-33L339.93,63.93Z"/><path d="M404.27,80.67V72.76a14.71,14.71,0,0,1,.83-5,11.47,11.47,0,0,1,2.46-4,11.25,11.25,0,0,1,4-2.68,15.22,15.22,0,0,1,5.63-1,27.28,27.28,0,0,1,4.61.33,7,7,0,0,1,2.51.77l-.88,7.38a21,21,0,0,0-2.13-.39,17.55,17.55,0,0,0-2.4-.18,5.23,5.23,0,0,0-3.73,1.08c-.73.72-1.1,2-1.1,4v7.64h10.24v7.65h-10v39.16h-10.1V88.32h-7.56V80.67ZM442,61.25V70.7H431.12V61.25Zm-.44,19.42v46.81h-10V80.67Z"/><path d="M464.29,80.67l.93,7.47A21,21,0,0,1,468.34,84a14.48,14.48,0,0,1,3.34-2.6,11.75,11.75,0,0,1,3.58-1.29,20.47,20.47,0,0,1,3.89-.35,17.69,17.69,0,0,1,6.7,1.16,13.86,13.86,0,0,1,4.81,3.23,13.53,13.53,0,0,1,3.23,5.52,27.41,27.41,0,0,1,1,8.15v29.71h-10V96.41a11.65,11.65,0,0,0-.41-3.08,6.56,6.56,0,0,0-1.56-2.77,7,7,0,0,0-2.73-1.82,11.61,11.61,0,0,0-4.3-.68,10.71,10.71,0,0,0-4,.72,9.51,9.51,0,0,0-3.16,2,9.26,9.26,0,0,0-2.09,3.06,9.61,9.61,0,0,0-.75,3.82v29.8h-10V89.15L455,80.67Z"/><path d="M518.92,61.25V70.7H508.06V61.25Zm-.44,19.42v46.81h-10V80.67Z"/><path d="M544.23,68.24V80.67h10.64v7.65H544.23v26.89a6.48,6.48,0,0,0,.22,1.74,4.4,4.4,0,0,0,.68,1.45,3.1,3.1,0,0,0,1.21,1,4.39,4.39,0,0,0,1.85.35h7l-.66,7.56a8.75,8.75,0,0,1-3.21.83,50.08,50.08,0,0,1-5.23.22,14.28,14.28,0,0,1-5.32-.9,10.22,10.22,0,0,1-3.69-2.44,9.8,9.8,0,0,1-2.15-3.6,13.51,13.51,0,0,1-.7-4.39V88.32H526.7V80.67h7.56l1.14-12.43Z"/><path d="M568.36,80.67l10.32,30.5,1.19,4.53h.44l1.19-4.53,9.62-30.5h10.46l-18.94,52.56a50.7,50.7,0,0,1-2.22,5.36,20,20,0,0,1-3,4.57,13.71,13.71,0,0,1-4,3.19,11,11,0,0,1-5.27,1.21,19.32,19.32,0,0,1-2.9-.2,5.17,5.17,0,0,1-2-.64l-.7-7.29a39.51,39.51,0,0,0,4.13-.18,8.35,8.35,0,0,0,2.79-.72,5.09,5.09,0,0,0,1.87-1.58,11.18,11.18,0,0,0,1.36-2.71l2.24-6.06L557.46,80.67Z"/><path d="M665.74,75.18a42.13,42.13,0,0,0-7.51-2.7A32.46,32.46,0,0,0,650,71.4a23.82,23.82,0,0,0-4.62.44,11.83,11.83,0,0,0-3.89,1.47A7.81,7.81,0,0,0,638.82,76a8,8,0,0,0-1,4.13A7.58,7.58,0,0,0,639,84.5a10.07,10.07,0,0,0,3,2.88,19.75,19.75,0,0,0,4.2,1.93q2.32.76,4.66,1.43a66.24,66.24,0,0,1,7.88,2.88A24.09,24.09,0,0,1,665,97.5a16.91,16.91,0,0,1,4.07,5.32,16.16,16.16,0,0,1,1.47,7.12,18,18,0,0,1-1.69,7.91,16.79,16.79,0,0,1-4.88,6,22.93,22.93,0,0,1-7.82,3.82A37.89,37.89,0,0,1,645.57,129c-1.55,0-3.17-.07-4.84-.22a48.85,48.85,0,0,1-5-.68,44.43,44.43,0,0,1-4.81-1.18,32.19,32.19,0,0,1-4.38-1.7l1.89-9.36a36.42,36.42,0,0,0,4.2,1.83,44.27,44.27,0,0,0,4.51,1.38,40.45,40.45,0,0,0,4.57.88,32,32,0,0,0,4.39.31,27.6,27.6,0,0,0,5-.46,13.86,13.86,0,0,0,4.35-1.56,8.9,8.9,0,0,0,3.06-2.84,8.71,8.71,0,0,0-.22-9,12,12,0,0,0-3.41-3.17,21.1,21.1,0,0,0-4.5-2.09q-2.46-.81-4.62-1.42c-1.26-.33-2.58-.71-4-1.15A34.34,34.34,0,0,1,637.7,97a25.1,25.1,0,0,1-4-2.33,15.36,15.36,0,0,1-3.34-3.3,15.65,15.65,0,0,1-2.31-4.52,19.08,19.08,0,0,1-.86-6,17.89,17.89,0,0,1,1.7-8.09,15.17,15.17,0,0,1,4.72-5.58,20.84,20.84,0,0,1,7.23-3.25,37.94,37.94,0,0,1,9.21-1,42.84,42.84,0,0,1,9.51,1,75.39,75.39,0,0,1,7.84,2.24Z"/><path d="M693,68.24V80.67h10.63v7.65H693v26.89a6.48,6.48,0,0,0,.22,1.74,4.4,4.4,0,0,0,.68,1.45,3.1,3.1,0,0,0,1.21,1,4.38,4.38,0,0,0,1.84.35h7l-.66,7.56a8.75,8.75,0,0,1-3.21.83,50.08,50.08,0,0,1-5.23.22,14.28,14.28,0,0,1-5.32-.9,10.22,10.22,0,0,1-3.69-2.44,9.66,9.66,0,0,1-2.15-3.6,13.51,13.51,0,0,1-.71-4.39V88.32H675.5V80.67h7.55l1.15-12.43Z"/><path d="M712.28,84.36a16.09,16.09,0,0,1,2.81-1.6,28.91,28.91,0,0,1,4.09-1.49,38.42,38.42,0,0,1,5.23-1.12,40.73,40.73,0,0,1,6.24-.44,30.9,30.9,0,0,1,7.82.9,14.39,14.39,0,0,1,5.78,2.9,12.46,12.46,0,0,1,3.56,5.18A22,22,0,0,1,749,96.41v19a28,28,0,0,0,.85,7.61,24.72,24.72,0,0,0,1.65,4.44H741.37c-.29-.59-.66-1.48-1.1-2.66a14.72,14.72,0,0,1-.79-4.29,16.95,16.95,0,0,1-15,8,19.12,19.12,0,0,1-5.93-.88A12.8,12.8,0,0,1,713.9,125a11.5,11.5,0,0,1-3-4.28,15.07,15.07,0,0,1-1.06-5.85,14.46,14.46,0,0,1,1.41-6.44,12.17,12.17,0,0,1,4.76-4.94,28.34,28.34,0,0,1,9-3.23A76.32,76.32,0,0,1,738.91,99V95.88q0-4.3-2-6.29t-6.63-2a25.46,25.46,0,0,0-7.12,1,44.75,44.75,0,0,0-6.86,2.61Zm26.63,20.35a61.2,61.2,0,0,0-10.26,1.39,19.3,19.3,0,0,0-5.76,2.22,5.94,5.94,0,0,0-2.5,2.74,8.24,8.24,0,0,0-.55,2.92,6.83,6.83,0,0,0,1.82,5.1q1.83,1.8,5.74,1.8a13.6,13.6,0,0,0,4.68-.77,10.44,10.44,0,0,0,3.64-2.17,9.55,9.55,0,0,0,2.35-3.41,11.5,11.5,0,0,0,.84-4.5Z"/><path d="M771.21,80.67l.92,7.47A21.84,21.84,0,0,1,775.25,84a14.92,14.92,0,0,1,3.34-2.6,11.84,11.84,0,0,1,3.58-1.29,20.55,20.55,0,0,1,3.89-.35,17.69,17.69,0,0,1,6.7,1.16,13.91,13.91,0,0,1,4.82,3.23,13.64,13.64,0,0,1,3.23,5.52,27.75,27.75,0,0,1,1,8.15v29.71h-10V96.41a11.66,11.66,0,0,0-.42-3.08,6.56,6.56,0,0,0-1.56-2.77,7,7,0,0,0-2.72-1.82,11.67,11.67,0,0,0-4.31-.68,10.75,10.75,0,0,0-4,.72,9.61,9.61,0,0,0-3.16,2,9.26,9.26,0,0,0-2.09,3.06,9.61,9.61,0,0,0-.75,3.82v29.8h-10V89.15l-.92-8.48Z"/><path d="M854.22,61.25v66.23h-8.39l-.88-6.6a24,24,0,0,1-3.1,3.61,15.62,15.62,0,0,1-3.25,2.35,13,13,0,0,1-3.58,1.27,20.79,20.79,0,0,1-4,.38,18.06,18.06,0,0,1-6.39-1.06,15.71,15.71,0,0,1-4.88-2.88,16.82,16.82,0,0,1-3.49-4.24,25.49,25.49,0,0,1-2.27-5.14,32.87,32.87,0,0,1-1.23-5.6,45.27,45.27,0,0,1-.37-5.61,38.22,38.22,0,0,1,1.1-9.27A22.79,22.79,0,0,1,816.89,87a17.23,17.23,0,0,1,6-5.3,17.94,17.94,0,0,1,8.63-2,18.81,18.81,0,0,1,4.07.41,13.25,13.25,0,0,1,3.36,1.26,11.49,11.49,0,0,1,2.81,2.15,22.14,22.14,0,0,1,2.46,3.08V61.25Zm-10,36.52a9.81,9.81,0,0,0-.61-3.34,9.23,9.23,0,0,0-1.91-3.12,10.26,10.26,0,0,0-3.3-2.33,11.22,11.22,0,0,0-4.77-.92,10,10,0,0,0-5.62,1.4,9.62,9.62,0,0,0-3.26,3.65,15.14,15.14,0,0,0-1.49,5.08,47,47,0,0,0-.35,5.69,49.94,49.94,0,0,0,.35,5.89,15.91,15.91,0,0,0,1.49,5.2,9.47,9.47,0,0,0,3.26,3.72,10,10,0,0,0,5.62,1.4,11.71,11.71,0,0,0,4.77-.88,10,10,0,0,0,3.3-2.26,9,9,0,0,0,1.91-3.08,9.6,9.6,0,0,0,.61-3.31Z"/><path d="M867.49,84.36a16.22,16.22,0,0,1,2.82-1.6,29.21,29.21,0,0,1,4.08-1.49,38.75,38.75,0,0,1,5.23-1.12,40.92,40.92,0,0,1,6.24-.44,30.84,30.84,0,0,1,7.82.9,14.26,14.26,0,0,1,5.78,2.9A12.37,12.37,0,0,1,903,88.69a21.76,21.76,0,0,1,1.21,7.72v19a28,28,0,0,0,.86,7.61,24.72,24.72,0,0,0,1.65,4.44H896.58c-.29-.59-.65-1.48-1.09-2.66a14.7,14.7,0,0,1-.8-4.29,17.42,17.42,0,0,1-6.1,5.82,17.64,17.64,0,0,1-8.92,2.14,19.19,19.19,0,0,1-5.94-.88,12.84,12.84,0,0,1-4.61-2.62,11.52,11.52,0,0,1-3-4.28,15.26,15.26,0,0,1-1-5.85,14.46,14.46,0,0,1,1.4-6.44,12.27,12.27,0,0,1,4.77-4.94,28.18,28.18,0,0,1,8.94-3.23A76.41,76.41,0,0,1,894.12,99V95.88q0-4.3-2-6.29t-6.64-2a25.56,25.56,0,0,0-7.12,1,44.64,44.64,0,0,0-6.85,2.61Zm26.63,20.35a61.51,61.51,0,0,0-10.26,1.39,19.33,19.33,0,0,0-5.75,2.22,6,6,0,0,0-2.51,2.74,8.24,8.24,0,0,0-.55,2.92,6.87,6.87,0,0,0,1.82,5.1q1.83,1.8,5.74,1.8a13.52,13.52,0,0,0,4.68-.77,10.48,10.48,0,0,0,3.65-2.17,9.68,9.68,0,0,0,2.35-3.41,11.5,11.5,0,0,0,.83-4.5Z"/><path d="M926.25,80.67l.92,7.74a35.28,35.28,0,0,1,2.33-3.3,17.81,17.81,0,0,1,2.61-2.66,11.83,11.83,0,0,1,3-1.75,9,9,0,0,1,3.43-.64,14.25,14.25,0,0,1,2.35.2,9.77,9.77,0,0,1,2.39.68l-1.14,10a16.17,16.17,0,0,0-2.77-.46c-.9-.08-1.7-.11-2.37-.11a11.51,11.51,0,0,0-3.62.54,8.15,8.15,0,0,0-2.84,1.61,6.83,6.83,0,0,0-1.82,2.64,9.7,9.7,0,0,0-.64,3.69v28.61h-10V89.07l-.92-8.4Z"/><path d="M988.39,61.25v66.23H980l-.88-6.6a23.45,23.45,0,0,1-3.09,3.61,15.67,15.67,0,0,1-3.26,2.35,12.84,12.84,0,0,1-3.58,1.27,20.76,20.76,0,0,1-4,.38,18.16,18.16,0,0,1-6.4-1.06,15.66,15.66,0,0,1-4.87-2.88,16.86,16.86,0,0,1-3.5-4.24,25.46,25.46,0,0,1-2.26-5.14,32.87,32.87,0,0,1-1.23-5.6,43.42,43.42,0,0,1-.37-5.61,37.73,37.73,0,0,1,1.1-9.27A22.79,22.79,0,0,1,951.06,87a17.11,17.11,0,0,1,6-5.3,18,18,0,0,1,8.64-2,18.72,18.72,0,0,1,4.06.41,13,13,0,0,1,3.36,1.26,11.35,11.35,0,0,1,2.82,2.15,22.14,22.14,0,0,1,2.46,3.08V61.25Zm-10,36.52a9.83,9.83,0,0,0-.62-3.34,9.23,9.23,0,0,0-1.91-3.12,10,10,0,0,0-3.3-2.33,11.2,11.2,0,0,0-4.76-.92,10.07,10.07,0,0,0-5.63,1.4,9.51,9.51,0,0,0-3.25,3.65,15.38,15.38,0,0,0-1.5,5.08,47,47,0,0,0-.35,5.69,49.94,49.94,0,0,0,.35,5.89,16.16,16.16,0,0,0,1.5,5.2,9.36,9.36,0,0,0,3.25,3.72,10.07,10.07,0,0,0,5.63,1.4,11.69,11.69,0,0,0,4.76-.88,9.75,9.75,0,0,0,3.3-2.26,9,9,0,0,0,1.91-3.08,9.62,9.62,0,0,0,.62-3.31Z"/></g></svg>